<?xml version="1.0" encoding="UTF-8" standalone="no"?>
<!DOCTYPE svg PUBLIC "-//W3C//DTD SVG 1.1//EN" "http://www.w3.org/Graphics/SVG/1.1/DTD/svg11.dtd">
<svg width="100%" height="100%" viewBox="0 0 689 165" version="1.1" xmlns="http://www.w3.org/2000/svg" xmlns:xlink="http://www.w3.org/1999/xlink" xml:space="preserve" xmlns:serif="http://www.serif.com/" style="fill-rule:evenodd;clip-rule:evenodd;stroke-linejoin:round;stroke-miterlimit:2;">
    <g transform="matrix(1,0,0,1,-76.1,-215.3)">
        <path d="M764.3,308.7C763,291.1 755.2,277.1 741.3,266.5C726.4,255.2 709.2,250.8 694.3,250.6C680.1,250.6 669.7,252.3 659.6,256C635.5,264.8 615,285.2 617.1,318.7C618.4,338.6 627.4,354.1 644,364.7C668.1,380 694.1,381.8 720.9,372.9C745.5,364.7 767.1,343.8 764.4,308.7L764.3,308.7ZM737.6,330.3C732.2,340.3 723.2,346 712.7,349.6C705.6,352 698.2,353.1 690.7,353C678.6,353 667.2,350.4 656.9,344C633.8,329.8 633.9,297.4 658.1,284C679.6,272.2 701.9,272.2 723.5,284C740.8,293.4 746.6,313.8 737.7,330.4L737.6,330.3ZM565.5,352.6L606.8,352.6L606.8,375.3L584.8,375.3C560.9,375.3 541.6,355.9 541.6,332.1L541.6,220.6L565.5,220.6L565.5,253L604.9,253L604.9,270.9C604.9,272.9 603.2,274.6 601.2,274.6L565.5,274.6L565.5,352.6ZM221.3,253.1L245.2,253.1L245.2,375.3L221.3,375.3L221.3,253.1ZM493.9,253L405.9,253L405.9,270.9C405.9,272.9 407.5,274.6 409.6,274.6L501.8,274.6L501.8,280.8C501.8,280.8 459.4,289.1 442.8,295.4C428.5,300.1 413.7,304.7 402,315.4C397,320 392.9,325.2 390.7,331.7C385.7,346.8 393.7,367.8 408.3,374.5C414,377.2 420.6,379.8 433.7,379.8C452.4,379.7 465.8,373.7 475.4,364.5C492.4,348.1 494.3,337 500.5,316.4C501,314.7 501.6,313.1 502,311.4L502,371.9C502,373.9 503.6,375.4 505.5,375.4L524.8,375.4L524.8,284C524.9,266.9 511.1,253.1 494,253.1L493.9,253ZM490.3,322.4C474.7,343.3 458.5,355.8 440.5,357.4C431,357.7 425.5,356.4 420.3,352.6C415.8,349.3 414.3,343.2 414.8,339.5C415.6,334.2 417.5,330.5 423.8,326.5C430.4,322.5 434.5,320.7 441.7,317.8C461.2,309.8 481.2,305.7 501.4,297.7C499.1,306.9 495.7,315.1 490.3,322.3L490.3,322.4ZM249.7,228.3C250.3,236.2 245.5,240.8 240,242.6C234,244.6 228.2,244.2 222.8,240.8C219.1,238.4 217.1,235 216.8,230.5C216.3,223 220.9,218.4 226.3,216.5C228.6,215.7 230.9,215.3 234.1,215.3C237.4,215.3 241.3,216.3 244.6,218.9C247.7,221.3 249.4,224.4 249.7,228.3ZM325.4,378.6C313.3,378.6 303.9,371.1 299.7,359.8L261.1,253L283.1,253C285,253 286.7,254.1 287.4,255.9L323.3,354.4L327.6,354.4L363.5,255.9C364.2,254.1 365.9,253 367.8,253L389.8,253L351.2,359.8C347,371.1 337.7,378.6 325.5,378.6L325.4,378.6ZM140.4,378.6C128.3,378.6 118.9,371.1 114.7,359.8L76.1,253L98.1,253C100,253 101.7,254.1 102.4,255.9L138.3,354.4L142.6,354.4L178.5,255.9C179.2,254.1 180.9,253 182.8,253L204.8,253L166.2,359.8C162,371.1 152.7,378.6 140.5,378.6L140.4,378.6Z" style="fill:url(#_Linear1);fill-rule:nonzero;"/>
    </g>
    <defs>
        <linearGradient id="_Linear1" x1="0" y1="0" x2="1" y2="0" gradientUnits="userSpaceOnUse" gradientTransform="matrix(688.4,0,0,688.4,76.1,297.5)"><stop offset="0" style="stop-color:rgb(51,0,101);stop-opacity:1"/><stop offset="0.1" style="stop-color:rgb(51,0,101);stop-opacity:1"/><stop offset="1" style="stop-color:rgb(249,79,75);stop-opacity:1"/></linearGradient>
    </defs>
</svg>
