<svg width="100%" height="100%" viewBox="0 0 2801 669" version="1.1" xmlns="http://www.w3.org/2000/svg" xmlns:xlink="http://www.w3.org/1999/xlink" xml:space="preserve" xmlns:serif="http://www.serif.com/" style="fill-rule:evenodd;clip-rule:evenodd;stroke-linejoin:round;stroke-miterlimit:2;">
    <g transform="matrix(4.16667,0,0,4.16667,0,-1.84154)">
        <path d="M645.879,112.715C640.602,122.516 631.846,128.081 621.567,131.539C614.616,133.878 607.454,134.922 600.123,134.874C588.346,134.811 577.225,132.325 567.084,126.059C544.578,112.154 544.588,80.537 568.218,67.506C589.177,55.948 611.004,56.027 632.021,67.445C648.881,76.605 654.571,96.57 645.879,112.715ZM671.902,91.574C670.591,74.405 662.978,60.704 649.421,50.363C634.896,39.284 618.083,35.054 603.509,34.836C589.619,34.822 579.455,36.519 569.605,40.101C546.103,48.65 526.077,68.603 528.144,101.343C529.372,120.796 538.181,135.922 554.384,146.205C577.904,161.132 603.307,162.922 629.434,154.244C653.471,146.26 674.521,125.883 671.902,91.574Z" style="fill:rgb(37,33,95);fill-rule:nonzero;"/>
    </g>
    <g transform="matrix(4.16667,0,0,4.16667,0,-1.84154)">
        <path d="M477.853,58.314L512.69,58.314C514.685,58.314 516.302,56.698 516.302,54.703L516.302,37.234L477.853,37.234L477.853,5.487L454.53,5.584L454.53,114.479C454.53,137.785 473.423,156.678 496.728,156.678L518.203,156.678L518.203,134.491L477.853,134.491L477.853,58.314Z" style="fill:rgb(37,33,95);fill-rule:nonzero;"/>
    </g>
    <g transform="matrix(4.16667,0,0,4.16667,0,-1.84154)">
        <rect x="141.775" y="37.359" width="23.289" height="119.289" style="fill:rgb(37,33,95);fill-rule:nonzero;"/>
    </g>
    <g transform="matrix(4.16667,0,0,4.16667,0,-1.84154)">
        <path d="M404.432,105.012C389.22,125.371 373.401,137.642 355.831,139.171C346.583,139.476 341.229,138.184 336.105,134.478C331.691,131.286 330.282,125.296 330.743,121.731C331.482,116.574 333.361,112.957 339.506,109.083C345.948,105.215 349.929,103.441 357.002,100.551C376.025,92.779 395.605,88.718 415.272,80.962C413.019,89.901 409.707,97.954 404.432,105.012ZM407.93,37.234L321.989,37.234L321.989,54.733C321.989,56.711 323.593,58.314 325.571,58.314L415.59,58.314L415.59,64.38C415.59,64.38 374.148,72.522 357.99,78.594C344.055,83.199 329.621,87.706 318.135,98.155C313.212,102.634 309.248,107.729 307.118,114.11C302.205,128.827 310.076,149.376 324.347,155.854C329.953,158.465 336.381,161 349.105,161C367.36,160.872 380.395,155.038 389.809,146.063C406.411,130.008 408.288,119.191 414.305,99.074C414.795,97.436 415.346,95.816 415.774,94.159L415.774,153.2C415.774,155.108 417.321,156.655 419.229,156.655L438.026,156.655L438.111,67.444C438.127,50.764 424.61,37.234 407.93,37.234Z" style="fill:rgb(37,33,95);fill-rule:nonzero;"/>
    </g>
    <g transform="matrix(4.16667,0,0,4.16667,0,-1.84154)">
        <path d="M164.449,3.911C161.203,1.435 157.446,0.49 154.19,0.442C151.086,0.438 148.815,0.817 146.614,1.618C141.363,3.528 136.888,7.986 137.35,15.302C137.625,19.649 139.593,23.028 143.214,25.326C148.469,28.661 154.145,29.061 159.983,27.122C165.354,25.338 170.057,20.785 169.472,13.119C169.179,9.283 167.478,6.222 164.449,3.911Z" style="fill:rgb(37,33,95);fill-rule:nonzero;"/>
    </g>
    <g transform="matrix(4.16667,0,0,4.16667,0,-1.84154)">
        <path d="M243.413,159.86C231.554,159.858 222.44,152.547 218.347,141.548L180.649,37.288L202.166,37.256C204.007,37.253 205.659,38.385 206.321,40.102L241.332,136.232L245.495,136.232L280.506,40.102C281.168,38.385 282.82,37.253 284.66,37.256L306.177,37.288L268.479,141.548C264.387,152.547 255.272,159.858 243.413,159.86Z" style="fill:rgb(37,33,95);fill-rule:nonzero;"/>
    </g>
    <g transform="matrix(4.16667,0,0,4.16667,0,-1.84154)">
        <path d="M62.764,159.86C50.905,159.858 41.79,152.547 37.698,141.548L0,37.288L21.517,37.256C23.357,37.253 25.009,38.385 25.671,40.102L60.682,136.232L64.845,136.232L99.856,40.102C100.519,38.385 102.171,37.253 104.011,37.256L125.528,37.288L87.83,141.548C83.737,152.547 74.623,159.858 62.764,159.86Z" style="fill:rgb(37,33,95);fill-rule:nonzero;"/>
    </g>
</svg>
