<svg xmlns="http://www.w3.org/2000/svg" viewBox="0 0 100 58" width="80" height="46.4" fill="none" data-sentry-element="svg" data-sentry-component="Logo" data-sentry-source-file="index.tsx"><g fill="#9ac325" clip-path="url(#invx-logo-a)" data-sentry-element="g" data-sentry-source-file="index.tsx"><path d="M30.154 51.942c0 3.098-2.22 5.278-5.271 5.278-3.052 0-5.271-2.18-5.271-5.278 0-2.884 2.54-4.914 5.27-4.914 2.732 0 5.272 2.03 5.272 4.914Zm-7.981 0c0 1.645 1.216 2.863 2.689 2.863 1.472 0 2.688-1.196 2.688-2.863 0-1.325-1.216-2.521-2.689-2.521-1.472 0-2.688 1.196-2.688 2.521ZM33.184 47.348h2.476l4.545 5.855h.021v-5.855h2.476v9.572h-2.476l-4.545-5.854h-.021v5.854h-2.476v-9.572ZM50.683 56.92h-2.475v-7.457h-2.05v-2.115h6.595v2.115h-2.049v7.457h-.02ZM58.643 49.464v1.602h2.795v2.115h-2.795v1.646h2.945v2.115h-5.442V47.37h5.442v2.115h-2.945v-.021ZM83.654 47.028H69.825c-2.88.15-4.844 2.158-4.844 5.15 0 2.99 2.091 5.042 5.1 5.042 1.6 0 3.01-.577 3.948-1.88.854-1.197.96-2.394.982-3.783h-4.93v1.945h2.028c-.107 1.11-.918 1.666-2.006 1.666-1.644 0-2.518-1.517-2.518-2.99 0-1.326.704-2.736 2.048-2.992h9.646a4.595 4.595 0 0 0-.875 2.735c0 3.098 2.22 5.277 5.27 5.277 3.053 0 5.272-2.18 5.272-5.277 0-2.885-2.54-4.915-5.271-4.915l-.021.022Zm0 7.799c-1.473 0-2.69-1.197-2.69-2.864 0-1.324 1.217-2.52 2.69-2.52 1.472 0 2.689 1.196 2.689 2.52 0 1.646-1.217 2.864-2.69 2.864ZM16.197 54.827h-.106c-1.473 0-2.69-1.197-2.69-2.863 0-1.325 1.217-2.522 2.69-2.522h.106v-2.414h-.106c-2.753 0-5.271 2.03-5.271 4.914 0 3.098 2.219 5.278 5.27 5.278h.107v-2.415.022ZM40.525 17.115c0 4.914 3.521 8.397 8.387 8.397h.17v-3.825h-.17c-2.348 0-4.29-1.923-4.29-4.53 0-2.094 1.942-4.017 4.29-4.017h.17V9.316h-.17c-4.375 0-8.387 3.226-8.387 7.82v-.021Zm10.52-7.82h-.17v3.824h.17c2.348 0 4.29 1.923 4.29 4.017 0 2.628-1.942 4.53-4.29 4.53h-.17v3.824h.17c4.866 0 8.387-3.461 8.387-8.397 0-4.594-4.033-7.82-8.386-7.82v.021Zm-19.184 6.794c-2.177-2.778-5.25-5.427-9.987-6.11-7.619-1.09-16.902.427-21.682-3.056-.107 0-.192.021-.17.17 1.75 1.988 2.73 3.761 4.908 5.086 7.02 4.273 19.889-.3 26.93 3.91Zm39.01.684a12.058 12.058 0 0 0-3.906 1.794c.043-.47.064-.918.064-1.388 0-.812-.064-1.603-.17-2.372a30.303 30.303 0 0 1 5.378-3.953h.34c-2.752-.64-4.651.086-6.337 1.175C64.063 5.15 57.619.171 50.02.171c-7.597 0-14.02 4.978-16.218 11.858-1.686-1.09-3.585-1.816-6.338-1.175h.341c1.92 1.111 3.713 2.457 5.378 3.953-.107.77-.17 1.581-.17 2.372 0 .47 0 .94.063 1.389a12.058 12.058 0 0 0-3.905-1.795c-4.887-1.325-11.076 0-16.261-.684-2.817-.363-7.085-1.902-8.814-2.884 2.07 4.316 6.445 7.072 11.866 7.456 5.27.385 12.804-.448 17.114.855.192.064.384.128.577.214.234.876.554 1.71.917 2.521-5.036-1.624-11.374-.812-17.413-1.367-1.9-.171-3.714-.812-4.909-1.197-1.686-.534-3.628-1.068-4.567-1.367 2.433 3.59 5.912 6.645 11.695 7.136 5.954.491 12.484-.513 17.584.598a15.452 15.452 0 0 0 1.835 1.902c-.81 1.538.406 2.948 1.003 4.124-.49-.342-1.344-.364-1.643-.876 0-1.86-.533-3.227-1.43-4.274H34.85c-.107.983 0 2.116.32 2.8-.448-.3-1.003-.492-1.323-.877.192-.598.277-1.26.298-1.923h-2.667s.042.107.064.15c-.107-.043-.214-.086-.299-.15h-1.024c.405.278.768.535.32.727-.94-.641-4.14-1.047-4.951 0 1.494 1.474 5.015 3.44 7.938 1.773.107.684 1.025.663 1.324 1.175-1.921-.042-3.863-.085-4.951.599 1.259 1.987 5.996 2.777 7.938.876.107.683 1.451.277 1.643.876-2.24-.043-3.926.427-4.63 1.773 2.283.94 6.85.962 7.938-.876 1.43.79 3.863.684 5.292 1.474-1.301.599-2.56 1.261-3.307 2.35 3.329.62 2.966-2.072 5.612-2.072 1.622.428 2.561 3.013 4.951 1.774a80.892 80.892 0 0 0-3.628-2.35c2.113-.193 3.99-.578 5.613-1.176 1.536 1.902 5.783 2.115 7.938.598-.981-1.09-3.073-1.175-4.63-1.773.832.043 1.024-.47 1.643-.598 2.006 1.944 6.551 1.004 7.938-.876-1.067-.834-3.649-.278-4.95-.898 1.045.15.874-.79 1.642-.876 2.775 1.667 6.424-.406 7.598-2.072-1.537-.577-4.034-.278-5.293.299.192-.278.406-.513.64-.727h-3.755c-.064 1.368-.214 2.564-1.516 2.8.598-.556.769-1.753.62-2.8h-1.943c-1.024 1.005-1.472 2.522-1.323 4.573-.768-.257-1.43 1.025-1.643.299.939-.727 1.152-2.115 1.003-3.825a17.374 17.374 0 0 0 1.857-1.901c5.1-1.09 11.651-.086 17.584-.599 5.783-.491 9.24-3.547 11.694-7.136-.96.3-2.88.833-4.567 1.367-1.195.385-3.008 1.005-4.908 1.197-6.018.555-12.377-.257-17.413 1.367.362-.811.683-1.645.917-2.52.192-.086.384-.15.576-.214 4.311-1.304 11.823-.47 17.115-.855 5.42-.385 9.795-3.141 11.865-7.457-1.728.983-5.975 2.521-8.813 2.884-5.186.663-11.374-.64-16.261.684l-.064-.021ZM42.744 34.956c-.085-1.197-.448-2.137-1.024-2.906a17.01 17.01 0 0 0 4.951 1.837c.256.385.598.812.96 1.24.278.363.576.705.875 1.004a19.48 19.48 0 0 1-5.762-1.175Zm14.213.299a31.484 31.484 0 0 1-5.42.876c.277-.278.554-.598.832-.962.363-.448.704-.897.981-1.282a16.99 16.99 0 0 0 4.887-1.794c-.597.897-.981 1.987-1.28 3.162Zm-6.936-5.406c-6.978 0-12.654-5.683-12.654-12.67s5.655-12.67 12.654-12.67c7 0 12.655 5.683 12.655 12.67s-5.655 12.67-12.655 12.67ZM99.83 6.923c-4.78 3.482-14.063 1.965-21.681 3.055-4.738.684-7.832 3.333-9.987 6.111 7.042-4.188 19.91.363 26.93-3.91 2.199-1.325 3.18-3.12 4.909-5.085.021-.15-.064-.15-.17-.171ZM94.153 50.703a1.645 1.645 0 0 1-1.644-1.645c0-.919.726-1.645 1.644-1.645.917 0 1.643.726 1.643 1.645s-.726 1.645-1.643 1.645Zm0-3.098c-.79 0-1.43.662-1.43 1.453 0 .79.64 1.453 1.43 1.453.79 0 1.43-.663 1.43-1.453s-.64-1.453-1.43-1.453Zm0 1.602h-.299v.748h-.213V48.14h.576c.299 0 .555.235.555.534 0 .278-.171.449-.406.513l.448.77h-.234l-.449-.749h.022Zm.064-.876h-.363v.684h.363c.213 0 .384-.15.384-.342 0-.192-.17-.342-.384-.342Z" data-sentry-element="path" data-sentry-source-file="index.tsx"></path></g><defs data-sentry-element="defs" data-sentry-source-file="index.tsx"><clipPath id="invx-logo-a" data-sentry-element="clipPath" data-sentry-source-file="index.tsx"><path fill="#9ac325" d="M0 .128h100V57.22H0z" data-sentry-element="path" data-sentry-source-file="index.tsx"></path></clipPath></defs></svg>