<?xml version="1.0" encoding="UTF-8" standalone="no"?>
<!DOCTYPE svg PUBLIC "-//W3C//DTD SVG 1.1//EN" "http://www.w3.org/Graphics/SVG/1.1/DTD/svg11.dtd">
<svg width="100%" height="100%" viewBox="0 0 689 165" version="1.1" xmlns="http://www.w3.org/2000/svg" xmlns:xlink="http://www.w3.org/1999/xlink" xml:space="preserve" xmlns:serif="http://www.serif.com/" style="fill-rule:evenodd;clip-rule:evenodd;stroke-linejoin:round;stroke-miterlimit:2;">
    <g transform="matrix(1,0,0,1,-76.2,-209.3)">
        <g>
            <g>
                <path fill="black" d="M764.2,308.6C762.9,291 755.1,277 741.2,266.4C726.3,255.1 709.1,250.7 694.2,250.5C680,250.5 669.6,252.2 659.5,255.9C635.4,264.7 614.9,285.1 617.1,318.6C618.4,338.5 627.4,354 644,364.5C668.1,379.8 694.1,381.6 720.8,372.7C745.4,364.5 767,343.7 764.3,308.5L764.2,308.6ZM737.5,330.3C732.1,340.3 723.1,346 712.6,349.6C705.5,352 698.1,353.1 690.6,353C678.5,353 667.2,350.4 656.8,344C633.8,329.8 633.8,297.4 658,284.1C679.5,272.3 701.8,272.3 723.3,284.1C740.6,293.5 746.4,313.9 737.5,330.4L737.5,330.3Z"/>
                <path fill="black" d="M565.5,274.6L601.2,274.6C603.2,274.6 604.9,272.9 604.9,270.9L604.9,253L565.5,253L565.5,220.5L541.6,220.5L541.6,332.1C541.6,356 560.9,375.3 584.8,375.3L606.8,375.3L606.8,352.6L565.5,352.6L565.5,274.6Z"/>
                <rect fill="black" x="221.4" y="253.1" width="23.8" height="122.1"/>
                <path fill="black" d="M493.9,253L405.9,253L405.9,270.9C405.9,272.9 407.5,274.6 409.6,274.6L501.8,274.6L501.8,280.8C501.8,280.8 459.4,289.1 442.8,295.4C428.5,300.1 413.8,304.7 402,315.4C397,320 392.9,325.2 390.7,331.7C385.7,346.8 393.7,367.8 408.3,374.4C414,377.1 420.6,379.7 433.6,379.7C452.3,379.6 465.6,373.6 475.3,364.4C492.3,348 494.2,336.9 500.4,316.3C500.9,314.6 501.5,313 501.9,311.3L501.9,371.7C501.9,373.7 503.5,375.2 505.4,375.2L524.6,375.2L524.6,283.9C524.7,266.8 510.9,253 493.8,253L493.9,253ZM490.3,322.4C474.7,343.2 458.5,355.8 440.5,357.4C431,357.7 425.5,356.4 420.3,352.6C415.8,349.3 414.3,343.2 414.8,339.5C415.6,334.2 417.5,330.5 423.8,326.6C430.4,322.6 434.5,320.8 441.7,317.9C461.2,309.9 481.2,305.8 501.4,297.8C499.1,307 495.7,315.2 490.3,322.4Z"/>
                <path fill="black" d="M244.6,218.9C241.3,216.4 237.4,215.4 234.1,215.3C230.9,215.3 228.6,215.7 226.3,216.5C220.9,218.5 216.3,223 216.8,230.5C217.1,235 219.1,238.4 222.8,240.8C228.2,244.2 234,244.6 240,242.6C245.5,240.8 250.3,236.1 249.7,228.3C249.4,224.4 247.7,221.2 244.6,218.9Z"/>
                <path fill="black" d="M325.5,378.5C313.4,378.5 304,371 299.8,359.8L261.2,253.1L283.2,253.1C285.1,253.1 286.8,254.2 287.5,256L323.3,354.4L327.6,354.4L363.4,256C364.1,254.2 365.8,253.1 367.7,253.1L389.7,253.1L351.1,359.9C346.9,371.2 337.6,378.6 325.4,378.6L325.5,378.5Z"/>
                <path fill="black" d="M140.5,378.5C128.4,378.5 119,371 114.8,359.8L76.2,253.1L98.2,253.1C100.1,253.1 101.8,254.2 102.5,256L138.3,354.4L142.6,354.4L178.4,256C179.1,254.2 180.8,253.1 182.7,253.1L204.7,253.1L166.1,359.9C161.9,371.2 152.6,378.6 140.4,378.6L140.5,378.5Z"/>
            </g>
        </g>
    </g>
</svg>
