<?xml version="1.0" encoding="UTF-8" standalone="no"?>
<!DOCTYPE svg PUBLIC "-//W3C//DTD SVG 1.1//EN" "http://www.w3.org/Graphics/SVG/1.1/DTD/svg11.dtd">
<svg width="100%" height="100%" viewBox="0 0 163 73" version="1.1" xmlns="http://www.w3.org/2000/svg" xmlns:xlink="http://www.w3.org/1999/xlink" xml:space="preserve" xmlns:serif="http://www.serif.com/" style="fill-rule:evenodd;clip-rule:evenodd;stroke-linejoin:round;stroke-miterlimit:2;">
    <g transform="matrix(1,0,0,1,-50,-50.94)">
        <path d="M80.373,82.267L76.885,82.267L76.885,62.652C76.885,61.104 76.981,59.217 77.176,56.99L77.093,56.99C76.76,58.308 76.462,59.251 76.2,59.821L66.048,82.267L64.345,82.267L54.172,59.984C53.895,59.387 53.597,58.389 53.28,56.99L53.197,56.99C53.306,58.158 53.363,60.06 53.363,62.693L53.363,82.267L50,82.267L50,53.059L54.608,53.059L63.743,73.427C64.434,74.975 64.885,76.143 65.093,76.93L65.238,76.93C65.929,75.056 66.407,73.862 66.671,73.346L75.992,53.059L80.373,53.059L80.373,82.267Z" style="fill:white;fill-rule:nonzero;"/>
        <path d="M90.064,82.267L86.659,82.267L86.659,61.41L90.064,61.41L90.064,82.267ZM90.645,53.935C90.645,54.56 90.423,55.08 89.981,55.493C89.537,55.907 89.011,56.114 88.403,56.114C87.78,56.114 87.254,55.915 86.825,55.513C86.395,55.113 86.181,54.586 86.181,53.935C86.181,53.351 86.392,52.845 86.815,52.417C87.236,51.989 87.765,51.776 88.403,51.776C89.039,51.776 89.571,51.986 90.002,52.407C90.43,52.829 90.645,53.338 90.645,53.935Z" style="fill:white;fill-rule:nonzero;"/>
        <path d="M110.218,81.31C108.571,82.287 106.627,82.776 104.384,82.776C102.446,82.776 100.707,82.338 99.163,81.462C97.619,80.586 96.42,79.348 95.561,77.745C94.702,76.143 94.274,74.344 94.274,72.347C94.274,68.899 95.281,66.129 97.295,64.037C99.308,61.947 101.989,60.901 105.339,60.901C107.194,60.901 108.835,61.254 110.26,61.96L110.26,65.382C108.669,64.296 106.979,63.752 105.194,63.752C102.993,63.752 101.205,64.523 99.827,66.064C98.45,67.606 97.762,69.598 97.762,72.042C97.762,74.473 98.416,76.395 99.724,77.806C101.031,79.219 102.786,79.925 104.986,79.925C106.842,79.925 108.586,79.328 110.218,78.132L110.218,81.31Z" style="fill:white;fill-rule:nonzero;"/>
        <path d="M125.39,64.791C124.781,64.343 123.916,64.119 122.795,64.119C121.287,64.119 120.062,64.816 119.12,66.207C118.179,67.599 117.709,69.409 117.709,71.635L117.709,82.267L114.304,82.267L114.304,61.41L117.709,61.41L117.709,65.707L117.792,65.707C118.262,64.269 118.988,63.131 119.971,62.296C120.955,61.461 122.082,61.043 123.355,61.043C124.241,61.043 124.92,61.139 125.39,61.328L125.39,64.791Z" style="fill:white;fill-rule:nonzero;"/>
        <path d="M143.304,71.879C143.304,69.259 142.712,67.25 141.529,65.85C140.345,64.452 138.653,63.752 136.453,63.752C134.265,63.752 132.535,64.469 131.262,65.901C129.989,67.334 129.352,69.353 129.352,71.961C129.352,74.46 129.992,76.411 131.273,77.816C132.553,79.222 134.279,79.925 136.453,79.925C138.667,79.925 140.362,79.232 141.539,77.847C142.715,76.462 143.304,74.473 143.304,71.879ZM146.792,71.757C146.792,75.071 145.832,77.735 143.916,79.751C141.999,81.768 139.427,82.776 136.204,82.776C133.061,82.776 130.552,81.795 128.678,79.833C126.802,77.872 125.865,75.288 125.865,72.083C125.865,68.635 126.826,65.908 128.75,63.905C130.674,61.903 133.324,60.901 136.702,60.901C139.858,60.901 142.328,61.868 144.113,63.803C145.899,65.738 146.792,68.39 146.792,71.757Z" style="fill:white;fill-rule:nonzero;"/>
        <path d="M162.607,76.686C162.607,78.493 161.897,79.959 160.479,81.086C159.06,82.213 157.174,82.776 154.822,82.776C152.814,82.776 151.057,82.356 149.548,81.513L149.548,77.928C151.223,79.26 153.063,79.925 155.071,79.925C157.77,79.925 159.119,78.954 159.119,77.012C159.119,76.225 158.855,75.583 158.33,75.087C157.804,74.592 156.607,73.923 154.739,73.081C152.855,72.294 151.527,71.448 150.753,70.545C149.977,69.643 149.59,68.444 149.59,66.95C149.59,65.226 150.296,63.787 151.708,62.632C153.119,61.478 154.911,60.901 157.085,60.901C158.759,60.901 160.274,61.226 161.631,61.878L161.631,65.239C160.246,64.248 158.642,63.752 156.815,63.752C155.694,63.752 154.791,64.024 154.105,64.567C153.42,65.111 153.078,65.809 153.078,66.665C153.078,67.589 153.34,68.299 153.867,68.793C154.392,69.289 155.479,69.877 157.126,70.555C159.146,71.397 160.565,72.281 161.382,73.203C162.198,74.127 162.607,75.288 162.607,76.686Z" style="fill:white;fill-rule:nonzero;"/>
        <path d="M182.346,71.879C182.346,69.259 181.755,67.25 180.571,65.85C179.388,64.452 177.696,63.752 175.495,63.752C173.308,63.752 171.577,64.469 170.305,65.901C169.031,67.334 168.395,69.353 168.395,71.961C168.395,74.46 169.034,76.411 170.315,77.816C171.595,79.222 173.321,79.925 175.495,79.925C177.709,79.925 179.404,79.232 180.582,77.847C181.758,76.462 182.346,74.473 182.346,71.879ZM185.834,71.757C185.834,75.071 184.875,77.735 182.959,79.751C181.041,81.768 178.47,82.776 175.246,82.776C172.104,82.776 169.595,81.795 167.72,79.833C165.844,77.872 164.907,75.288 164.907,72.083C164.907,68.635 165.868,65.908 167.793,63.905C169.716,61.903 172.366,60.901 175.744,60.901C178.9,60.901 181.371,61.868 183.156,63.803C184.942,65.738 185.834,68.39 185.834,71.757Z" style="fill:white;fill-rule:nonzero;"/>
        <path d="M199.781,54.322C199.117,53.955 198.362,53.772 197.518,53.772C195.138,53.772 193.947,55.245 193.947,58.192L193.947,61.41L198.93,61.41L198.93,64.241L193.947,64.241L193.947,82.267L190.542,82.267L190.542,64.241L186.93,64.241L186.93,61.41L190.542,61.41L190.542,58.029C190.542,55.91 191.179,54.199 192.452,52.896C193.726,51.592 195.346,50.94 197.311,50.94C198.349,50.94 199.172,51.063 199.781,51.307L199.781,54.322Z" style="fill:white;fill-rule:nonzero;"/>
        <path d="M212.15,82.063C211.333,82.511 210.269,82.735 208.953,82.735C205.244,82.735 203.39,80.685 203.39,76.584L203.39,64.241L199.735,64.241L199.735,61.41L203.39,61.41L203.39,56.318L206.794,55.238L206.794,61.41L212.15,61.41L212.15,64.241L206.794,64.241L206.794,76.014C206.794,77.413 207.036,78.407 207.52,78.998C208.006,79.588 208.815,79.884 209.95,79.884C210.794,79.884 211.527,79.66 212.15,79.212L212.15,82.063Z" style="fill:white;fill-rule:nonzero;"/>
        <path d="M102.973,102.184C102.973,98.314 100.647,96.379 95.997,96.379L91.907,96.379L91.907,108.356L95.561,108.356C97.956,108.356 99.789,107.823 101.063,106.757C102.336,105.692 102.973,104.167 102.973,102.184ZM106.627,102.001C106.627,104.826 105.633,107.103 103.647,108.834C101.662,110.566 99.056,111.431 95.831,111.431L91.907,111.431L91.907,122.491L88.419,122.491L88.419,93.283L96.599,93.283C99.783,93.283 102.249,94.047 104,95.575C105.752,97.102 106.627,99.245 106.627,102.001Z" style="fill:white;fill-rule:nonzero;"/>
        <path d="M120.989,111.941L115.84,112.653C114.083,112.898 112.85,113.31 112.145,113.886C111.439,114.463 111.086,115.397 111.086,116.686C111.086,117.732 111.467,118.57 112.228,119.202C112.988,119.833 113.964,120.149 115.155,120.149C116.844,120.149 118.238,119.566 119.338,118.397C120.439,117.231 120.989,115.77 120.989,114.018L120.989,111.941ZM124.394,122.491L120.989,122.491L120.989,119.232L120.906,119.232C119.424,121.745 117.244,123 114.366,123C112.318,123 110.678,122.455 109.446,121.361C108.213,120.268 107.598,118.799 107.598,116.951C107.598,113.068 109.936,110.8 114.615,110.148L120.989,109.272C120.989,105.743 119.528,103.977 116.608,103.977C114.047,103.977 111.737,104.826 109.674,106.523L109.674,103.101C110.297,102.639 111.363,102.194 112.871,101.767C114.379,101.339 115.723,101.125 116.899,101.125C121.895,101.125 124.394,103.726 124.394,108.926L124.394,122.491Z" style="fill:white;fill-rule:nonzero;"/>
        <path d="M140.833,105.015C140.224,104.567 139.359,104.343 138.238,104.343C136.729,104.343 135.504,105.04 134.564,106.431C133.622,107.823 133.152,109.633 133.152,111.859L133.152,122.491L129.747,122.491L129.747,101.634L133.152,101.634L133.152,105.932L133.235,105.932C133.705,104.493 134.432,103.355 135.415,102.52C136.396,101.685 137.525,101.268 138.799,101.268C139.684,101.268 140.362,101.364 140.833,101.553L140.833,105.015Z" style="fill:white;fill-rule:nonzero;"/>
        <path d="M154.573,122.288C153.755,122.736 152.689,122.96 151.376,122.96C147.665,122.96 145.811,120.91 145.811,116.809L145.811,104.465L142.158,104.465L142.158,101.634L145.811,101.634L145.811,96.542L149.216,95.463L149.216,101.634L154.573,101.634L154.573,104.465L149.216,104.465L149.216,116.238C149.216,117.638 149.458,118.632 149.943,119.222C150.426,119.813 151.236,120.108 152.372,120.108C153.216,120.108 153.95,119.884 154.573,119.436L154.573,122.288Z" style="fill:white;fill-rule:nonzero;"/>
        <path d="M175.703,122.491L172.298,122.491L172.298,110.596C172.298,106.184 170.651,103.977 167.357,103.977C165.683,103.977 164.281,104.598 163.153,105.84C162.024,107.083 161.461,108.669 161.461,110.596L161.461,122.491L158.056,122.491L158.056,101.634L161.461,101.634L161.461,105.097L161.544,105.097C163.135,102.449 165.46,101.125 168.52,101.125C170.858,101.125 172.641,101.873 173.866,103.366C175.091,104.86 175.703,106.978 175.703,109.72L175.703,122.491Z" style="fill:white;fill-rule:nonzero;"/>
        <path d="M194.487,110.067C194.459,108.139 193.986,106.642 193.065,105.576C192.144,104.51 190.847,103.977 189.172,103.977C187.594,103.977 186.245,104.534 185.124,105.647C184.003,106.761 183.297,108.233 183.006,110.067L194.487,110.067ZM197.975,112.898L182.965,112.898C183.02,115.247 183.653,117.043 184.864,118.285C186.076,119.528 187.753,120.149 189.899,120.149C192.307,120.149 194.501,119.39 196.48,117.868L196.48,120.984C194.625,122.328 192.162,123 189.089,123C186.058,123 183.691,122.04 181.989,120.118C180.287,118.198 179.435,115.54 179.435,112.144C179.435,110.081 179.861,108.197 180.712,106.492C181.563,104.788 182.736,103.467 184.231,102.53C185.726,101.593 187.387,101.125 189.214,101.125C191.968,101.125 194.116,102.005 195.66,103.763C197.204,105.522 197.975,107.983 197.975,111.146L197.975,112.898Z" style="fill:white;fill-rule:nonzero;"/>
        <path d="M212.981,105.015C212.372,104.567 211.506,104.343 210.385,104.343C208.878,104.343 207.652,105.04 206.711,106.431C205.769,107.823 205.3,109.633 205.3,111.859L205.3,122.491L201.894,122.491L201.894,101.634L205.3,101.634L205.3,105.932L205.382,105.932C205.853,104.493 206.579,103.355 207.562,102.52C208.545,101.685 209.672,101.268 210.946,101.268C211.831,101.268 212.511,101.364 212.981,101.553L212.981,105.015Z" style="fill:white;fill-rule:nonzero;"/>
    </g>
</svg>
