<?xml version="1.0" encoding="UTF-8" standalone="no"?>
<!DOCTYPE svg PUBLIC "-//W3C//DTD SVG 1.1//EN" "http://www.w3.org/Graphics/SVG/1.1/DTD/svg11.dtd">
<svg width="100%" height="100%" viewBox="0 0 163 71" version="1.1" xmlns="http://www.w3.org/2000/svg" xmlns:xlink="http://www.w3.org/1999/xlink" xml:space="preserve" xmlns:serif="http://www.serif.com/" style="fill-rule:evenodd;clip-rule:evenodd;stroke-linejoin:round;stroke-miterlimit:2;">
    <g transform="matrix(1,0,0,1,-50.509,-51.191)">
        <path d="M80.882,81.891L77.394,81.891L77.394,62.669C77.394,61.152 77.491,59.302 77.685,57.119L77.602,57.119C77.27,58.411 76.972,59.335 76.709,59.894L66.557,81.891L64.855,81.891L54.682,60.054C54.405,59.469 54.106,58.491 53.789,57.119L53.706,57.119C53.816,58.264 53.872,60.128 53.872,62.708L53.872,81.891L50.509,81.891L50.509,53.267L55.118,53.267L64.253,73.228C64.944,74.745 65.395,75.89 65.602,76.661L65.747,76.661C66.439,74.825 66.916,73.654 67.18,73.148L76.502,53.267L80.882,53.267L80.882,81.891Z" style="fill:rgb(8,8,8);fill-rule:nonzero;"/>
        <path d="M90.573,81.891L87.168,81.891L87.168,61.451L90.573,61.451L90.573,81.891ZM91.155,54.125C91.155,54.738 90.932,55.247 90.49,55.652C90.047,56.059 89.52,56.261 88.912,56.261C88.289,56.261 87.763,56.066 87.334,55.672C86.904,55.28 86.691,54.764 86.691,54.125C86.691,53.554 86.901,53.057 87.324,52.638C87.745,52.219 88.275,52.009 88.912,52.009C89.548,52.009 90.081,52.216 90.511,52.628C90.939,53.042 91.155,53.541 91.155,54.125Z" style="fill:rgb(8,8,8);fill-rule:nonzero;"/>
        <path d="M110.728,80.953C109.08,81.911 107.136,82.39 104.894,82.39C102.956,82.39 101.216,81.961 99.672,81.102C98.129,80.244 96.929,79.031 96.07,77.46C95.212,75.89 94.783,74.126 94.783,72.17C94.783,68.791 95.79,66.076 97.804,64.026C99.818,61.977 102.499,60.952 105.849,60.952C107.704,60.952 109.344,61.298 110.769,61.99L110.769,65.343C109.178,64.28 107.489,63.746 105.703,63.746C103.503,63.746 101.714,64.502 100.337,66.012C98.959,67.523 98.271,69.475 98.271,71.871C98.271,74.253 98.925,76.137 100.233,77.519C101.541,78.904 103.295,79.595 105.496,79.595C107.351,79.595 109.095,79.011 110.728,77.839L110.728,80.953Z" style="fill:rgb(8,8,8);fill-rule:nonzero;"/>
        <path d="M125.899,64.764C125.29,64.325 124.425,64.106 123.304,64.106C121.796,64.106 120.571,64.789 119.63,66.152C118.688,67.516 118.218,69.29 118.218,71.471L118.218,81.891L114.813,81.891L114.813,61.451L118.218,61.451L118.218,65.663L118.301,65.663C118.771,64.253 119.498,63.138 120.481,62.319C121.464,61.501 122.591,61.092 123.865,61.092C124.75,61.092 125.429,61.186 125.899,61.371L125.899,64.764Z" style="fill:rgb(8,8,8);fill-rule:nonzero;"/>
        <path d="M143.813,71.711C143.813,69.143 143.222,67.174 142.038,65.802C140.855,64.432 139.163,63.746 136.962,63.746C134.775,63.746 133.044,64.449 131.772,65.852C130.498,67.257 129.862,69.236 129.862,71.791C129.862,74.24 130.501,76.152 131.782,77.53C133.062,78.907 134.788,79.595 136.962,79.595C139.176,79.595 140.871,78.917 142.049,77.559C143.225,76.202 143.813,74.253 143.813,71.711ZM147.301,71.591C147.301,74.839 146.342,77.45 144.426,79.426C142.508,81.402 139.937,82.39 136.713,82.39C133.571,82.39 131.062,81.429 129.187,79.506C127.311,77.584 126.374,75.051 126.374,71.91C126.374,68.531 127.335,65.859 129.26,63.896C131.183,61.934 133.833,60.952 137.211,60.952C140.367,60.952 142.837,61.9 144.623,63.796C146.408,65.693 147.301,68.292 147.301,71.591Z" style="fill:rgb(8,8,8);fill-rule:nonzero;"/>
        <path d="M163.117,76.422C163.117,78.193 162.406,79.63 160.989,80.733C159.569,81.838 157.683,82.39 155.331,82.39C153.323,82.39 151.566,81.978 150.058,81.152L150.058,77.639C151.732,78.944 153.572,79.595 155.58,79.595C158.279,79.595 159.629,78.644 159.629,76.741C159.629,75.97 159.365,75.341 158.84,74.855C158.313,74.37 157.117,73.714 155.248,72.889C153.365,72.117 152.036,71.289 151.262,70.403C150.486,69.519 150.099,68.345 150.099,66.88C150.099,65.191 150.805,63.781 152.217,62.649C153.629,61.518 155.42,60.952 157.594,60.952C159.268,60.952 160.784,61.271 162.141,61.91L162.141,65.204C160.756,64.233 159.151,63.746 157.324,63.746C156.203,63.746 155.3,64.013 154.615,64.545C153.93,65.078 153.587,65.762 153.587,66.601C153.587,67.506 153.85,68.202 154.376,68.687C154.901,69.173 155.988,69.749 157.636,70.413C159.655,71.239 161.075,72.104 161.892,73.008C162.707,73.914 163.117,75.051 163.117,76.422Z" style="fill:rgb(8,8,8);fill-rule:nonzero;"/>
        <path d="M182.856,71.711C182.856,69.143 182.264,67.174 181.081,65.802C179.897,64.432 178.205,63.746 176.005,63.746C173.817,63.746 172.087,64.449 170.814,65.852C169.541,67.257 168.904,69.236 168.904,71.791C168.904,74.24 169.544,76.152 170.825,77.53C172.105,78.907 173.831,79.595 176.005,79.595C178.219,79.595 179.914,78.917 181.091,77.559C182.267,76.202 182.856,74.253 182.856,71.711ZM186.344,71.591C186.344,74.839 185.384,77.45 183.468,79.426C181.551,81.402 178.979,82.39 175.755,82.39C172.613,82.39 170.104,81.429 168.23,79.506C166.354,77.584 165.416,75.051 165.416,71.91C165.416,68.531 166.378,65.859 168.302,63.896C170.226,61.934 172.876,60.952 176.254,60.952C179.409,60.952 181.88,61.9 183.665,63.796C185.451,65.693 186.344,68.292 186.344,71.591Z" style="fill:rgb(8,8,8);fill-rule:nonzero;"/>
        <path d="M200.291,54.505C199.626,54.145 198.871,53.966 198.028,53.966C195.648,53.966 194.457,55.41 194.457,58.297L194.457,61.451L199.439,61.451L199.439,64.226L194.457,64.226L194.457,81.891L191.052,81.891L191.052,64.226L187.44,64.226L187.44,61.451L191.052,61.451L191.052,58.137C191.052,56.061 191.688,54.385 192.962,53.107C194.236,51.83 195.855,51.191 197.82,51.191C198.858,51.191 199.681,51.311 200.291,51.55L200.291,54.505Z" style="fill:rgb(8,8,8);fill-rule:nonzero;"/>
        <path d="M212.66,81.691C211.843,82.13 210.777,82.35 209.462,82.35C205.754,82.35 203.898,80.341 203.898,76.322L203.898,64.226L200.245,64.226L200.245,61.451L203.898,61.451L203.898,56.461L207.303,55.403L207.303,61.451L212.66,61.451L212.66,64.226L207.303,64.226L207.303,75.763C207.303,77.135 207.546,78.108 208.03,78.687C208.515,79.266 209.324,79.556 210.458,79.556C211.303,79.556 212.038,79.336 212.66,78.897L212.66,81.691Z" style="fill:rgb(8,8,8);fill-rule:nonzero;"/>
        <path d="M103.482,101.41C103.482,97.617 101.157,95.721 96.506,95.721L92.416,95.721L92.416,107.458L96.07,107.458C98.465,107.458 100.298,106.936 101.572,105.891C102.846,104.847 103.482,103.353 103.482,101.41ZM107.136,101.23C107.136,103.999 106.142,106.23 104.157,107.927C102.171,109.624 99.566,110.472 96.34,110.472L92.416,110.472L92.416,121.311L88.929,121.311L88.929,92.687L97.108,92.687C100.292,92.687 102.758,93.435 104.51,94.933C106.261,96.43 107.136,98.53 107.136,101.23Z" style="fill:rgb(8,8,8);fill-rule:nonzero;"/>
        <path d="M121.498,110.971L116.349,111.67C114.592,111.909 113.36,112.313 112.654,112.877C111.948,113.443 111.595,114.359 111.595,115.622C111.595,116.647 111.976,117.468 112.737,118.087C113.498,118.706 114.474,119.015 115.664,119.015C117.353,119.015 118.747,118.444 119.848,117.299C120.948,116.155 121.498,114.724 121.498,113.007L121.498,110.971ZM124.903,121.311L121.498,121.311L121.498,118.117L121.415,118.117C119.934,120.58 117.754,121.81 114.875,121.81C112.827,121.81 111.187,121.275 109.955,120.203C108.723,119.132 108.107,117.692 108.107,115.882C108.107,112.076 110.446,109.853 115.125,109.215L121.498,108.356C121.498,104.897 120.038,103.166 117.118,103.166C114.557,103.166 112.246,103.999 110.183,105.662L110.183,102.308C110.806,101.856 111.872,101.42 113.381,101.001C114.889,100.581 116.232,100.372 117.408,100.372C122.404,100.372 124.903,102.921 124.903,108.017L124.903,121.311Z" style="fill:rgb(8,8,8);fill-rule:nonzero;"/>
        <path d="M141.343,104.184C140.733,103.745 139.869,103.526 138.748,103.526C137.238,103.526 136.013,104.209 135.073,105.572C134.131,106.936 133.661,108.71 133.661,110.891L133.661,121.311L130.256,121.311L130.256,100.871L133.661,100.871L133.661,105.083L133.744,105.083C134.214,103.673 134.941,102.558 135.924,101.739C136.906,100.921 138.034,100.512 139.308,100.512C140.193,100.512 140.871,100.606 141.343,100.791L141.343,104.184Z" style="fill:rgb(8,8,8);fill-rule:nonzero;"/>
        <path d="M155.082,121.111C154.265,121.55 153.199,121.77 151.885,121.77C148.175,121.77 146.321,119.761 146.321,115.742L146.321,103.646L142.667,103.646L142.667,100.871L146.321,100.871L146.321,95.881L149.726,94.823L149.726,100.871L155.082,100.871L155.082,103.646L149.726,103.646L149.726,115.183C149.726,116.555 149.967,117.528 150.452,118.107C150.936,118.686 151.745,118.976 152.881,118.976C153.725,118.976 154.459,118.756 155.082,118.317L155.082,121.111Z" style="fill:rgb(8,8,8);fill-rule:nonzero;"/>
        <path d="M176.212,121.311L172.807,121.311L172.807,109.654C172.807,105.329 171.16,103.166 167.866,103.166C166.192,103.166 164.791,103.775 163.662,104.993C162.534,106.21 161.97,107.765 161.97,109.654L161.97,121.311L158.565,121.311L158.565,100.871L161.97,100.871L161.97,104.264L162.053,104.264C163.645,101.669 165.97,100.372 169.029,100.372C171.368,100.372 173.15,101.105 174.375,102.568C175.6,104.032 176.212,106.108 176.212,108.795L176.212,121.311Z" style="fill:rgb(8,8,8);fill-rule:nonzero;"/>
        <path d="M194.996,109.135C194.968,107.246 194.495,105.778 193.574,104.733C192.654,103.69 191.356,103.166 189.682,103.166C188.104,103.166 186.754,103.713 185.633,104.803C184.512,105.895 183.806,107.338 183.516,109.135L194.996,109.135ZM198.484,111.909L183.474,111.909C183.529,114.212 184.162,115.971 185.374,117.189C186.585,118.407 188.263,119.015 190.408,119.015C192.817,119.015 195.01,118.271 196.99,116.78L196.99,119.834C195.135,121.151 192.671,121.81 189.599,121.81C186.568,121.81 184.201,120.869 182.498,118.985C180.796,117.103 179.945,114.499 179.945,111.171C179.945,109.149 180.37,107.303 181.222,105.632C182.073,103.962 183.246,102.667 184.741,101.749C186.235,100.831 187.896,100.372 189.723,100.372C192.477,100.372 194.626,101.235 196.17,102.957C197.713,104.681 198.484,107.093 198.484,110.193L198.484,111.909Z" style="fill:rgb(8,8,8);fill-rule:nonzero;"/>
        <path d="M213.491,104.184C212.88,103.745 212.016,103.526 210.896,103.526C209.386,103.526 208.162,104.209 207.221,105.572C206.279,106.936 205.809,108.71 205.809,110.891L205.809,121.311L202.404,121.311L202.404,100.871L205.809,100.871L205.809,105.083L205.892,105.083C206.361,103.673 207.089,102.558 208.071,101.739C209.055,100.921 210.182,100.512 211.456,100.512C212.341,100.512 213.02,100.606 213.491,100.791L213.491,104.184Z" style="fill:rgb(8,8,8);fill-rule:nonzero;"/>
    </g>
</svg>
