<?xml version="1.0" encoding="UTF-8" standalone="no"?>
<!DOCTYPE svg PUBLIC "-//W3C//DTD SVG 1.1//EN" "http://www.w3.org/Graphics/SVG/1.1/DTD/svg11.dtd">
<svg width="100%" height="100%" viewBox="0 0 181 67" version="1.1" xmlns="http://www.w3.org/2000/svg" xmlns:xlink="http://www.w3.org/1999/xlink" xml:space="preserve" xmlns:serif="http://www.serif.com/" style="fill-rule:evenodd;clip-rule:evenodd;stroke-linejoin:round;stroke-miterlimit:2;">
    <g transform="matrix(1,0,0,1,-6.09,-2.19727)">
        <path d="M128.53,26.16L128.53,22.52L132.35,22.52C133.78,22.52 134.18,23.45 134.18,24.33C134.18,25.28 133.72,26.16 132.35,26.16L128.53,26.16ZM125.84,33.89L128.52,33.89L128.52,28.7L131.32,28.7L133.93,33.89L136.95,33.89L134.25,28.34C136.06,27.7 136.95,25.89 136.95,24.32C136.95,22.03 135.8,19.96 132.3,19.96L125.84,19.96L125.84,33.89ZM114.24,33.89L124.16,33.89L124.16,31.34L116.92,31.34L116.92,27.98L120.94,27.98L120.94,25.43L116.92,25.43L116.92,22.51L123.74,22.51L123.74,19.96L114.23,19.96L114.23,33.88L114.24,33.89ZM108,31.39L104.16,31.39L104.16,27.95L107.44,27.95C109.41,27.95 109.85,28.86 109.85,29.76C109.85,30.5 109.43,31.39 108,31.39M107.26,25.44L104.16,25.44L104.16,22.48L107.62,22.48C109.09,22.48 109.37,23.24 109.37,23.95C109.37,24.84 108.69,25.44 107.26,25.44M101.47,19.97L101.47,33.89L107.85,33.89C111.33,33.89 112.56,31.72 112.56,29.75C112.56,28.54 111.96,27.12 110.39,26.55C111.6,25.97 112.08,24.88 112.08,23.71C112.08,21.82 110.97,19.97 107.57,19.97L101.46,19.97L101.47,19.97ZM92.68,33.89L95.34,33.89L95.34,28.46L100.49,19.97L97.45,19.97L94.01,25.66L90.57,19.97L87.53,19.97L92.68,28.46L92.68,33.89ZM82.36,34.11C84.89,34.11 86.44,32.7 87.35,30.67L84.88,29.74C84.24,30.79 83.49,31.53 82.35,31.53C80.2,31.53 79.29,29.08 79.29,26.94C79.29,24.8 80.03,22.35 82.35,22.35C83.56,22.35 84.22,22.95 84.92,24L87.33,22.91C86.69,21.34 85.02,19.77 82.36,19.77C78.04,19.77 76.51,23.77 76.51,26.95C76.51,30.39 78,34.13 82.36,34.13" style="fill:white;fill-rule:nonzero;"/>
    </g>
    <g transform="matrix(1,0,0,1,-6.09,-2.19727)">
        <path d="M181.97,51.59C184.79,51.59 187,50.06 187,47.35C187,44.35 184.39,43.47 182.33,42.78C180.96,42.32 179.8,41.94 179.8,41.07C179.8,40.2 180.48,39.74 181.65,39.74C182.94,39.74 183.66,40.38 184.04,41.21L186.45,40.41C185.93,38.58 184.3,37.19 181.82,37.19C178.82,37.19 177.11,38.94 177.11,41.03C177.11,43.79 179.46,44.57 181.49,45.25C183,45.75 184.31,46.18 184.31,47.36C184.31,48.54 183.41,49.05 182.06,49.05C180.71,49.05 179.61,48.16 179.02,46.86L176.57,47.77C177.37,50.14 179.35,51.59 181.98,51.59M166.26,51.35L175.67,51.35L175.67,48.76L168.95,48.76L168.95,37.42L166.27,37.42L166.27,51.34L166.26,51.35ZM160.39,46.02L156.77,46.02L158.14,42.4C158.28,42.04 158.48,41.5 158.58,41.15C158.68,41.51 158.88,42.04 159.02,42.4L160.39,46.02ZM162.32,51.35L165.22,51.35L159.89,37.43L157.26,37.43L151.93,51.35L154.81,51.35L155.88,48.47L161.25,48.47L162.32,51.35ZM148.32,51.35L151,51.35L151,37.43L148.32,37.43L148.32,51.35ZM142.75,40.02L146.73,40.02L146.73,37.43L136.09,37.43L136.09,40.02L140.07,40.02L140.07,51.36L142.75,51.36L142.75,40.02ZM134.6,51.35L134.6,37.43L131.94,37.43L131.94,45.44C131.94,45.7 131.96,46.18 132,46.49C131.84,46.15 131.58,45.69 131.42,45.44L126.03,37.43L123.5,37.43L123.5,51.35L126.16,51.35L126.16,43.24C126.16,42.94 126.14,42.52 126.1,42.19C126.26,42.53 126.52,43.01 126.68,43.24L132.21,51.35L134.6,51.35ZM111.89,51.35L121.81,51.35L121.81,48.8L114.57,48.8L114.57,45.44L118.59,45.44L118.59,42.89L114.57,42.89L114.57,39.97L121.39,39.97L121.39,37.42L111.88,37.42L111.88,51.34L111.89,51.35ZM105.27,51.59C108.09,51.59 110.3,50.06 110.3,47.35C110.3,44.35 107.69,43.47 105.63,42.78C104.26,42.32 103.1,41.94 103.1,41.07C103.1,40.2 103.78,39.74 104.95,39.74C106.24,39.74 106.96,40.38 107.34,41.21L109.75,40.41C109.23,38.58 107.6,37.19 105.12,37.19C102.12,37.19 100.41,38.94 100.41,41.03C100.41,43.79 102.76,44.57 104.79,45.25C106.3,45.75 107.61,46.18 107.61,47.36C107.61,48.54 106.72,49.05 105.36,49.05C104,49.05 102.91,48.16 102.32,46.86L99.87,47.77C100.67,50.14 102.65,51.59 105.28,51.59M93.43,51.59C96.25,51.59 98.46,50.06 98.46,47.35C98.46,44.35 95.85,43.47 93.79,42.78C92.42,42.32 91.26,41.94 91.26,41.07C91.26,40.2 91.94,39.74 93.11,39.74C94.4,39.74 95.12,40.38 95.5,41.21L97.91,40.41C97.39,38.58 95.76,37.19 93.28,37.19C90.28,37.19 88.57,38.94 88.57,41.03C88.57,43.79 90.92,44.57 92.95,45.25C94.46,45.75 95.77,46.18 95.77,47.36C95.77,48.54 94.88,49.05 93.52,49.05C92.16,49.05 91.07,48.16 90.48,46.86L88.03,47.77C88.83,50.14 90.81,51.59 93.44,51.59M77.01,51.35L86.93,51.35L86.93,48.8L79.69,48.8L79.69,45.44L83.71,45.44L83.71,42.89L79.69,42.89L79.69,39.97L86.51,39.97L86.51,37.42L77,37.42L77,51.34L77.01,51.35Z" style="fill:white;fill-rule:nonzero;"/>
    </g>
    <g transform="matrix(1,0,0,1,-6.09,-2.19727)">
        <path d="M37.57,68.7C54.96,68.7 69.06,54.6 69.06,37.21C69.06,19.82 54.97,5.72 37.57,5.72C20.17,5.72 6.09,19.82 6.09,37.21C6.09,54.6 20.19,68.7 37.58,68.7" style="fill:rgb(33,34,85);fill-rule:nonzero;"/>
    </g>
    <g transform="matrix(1,0,0,1,-6.09,-2.19727)">
        <g>
            <path d="M37.57,68.7C54.96,68.7 69.06,54.6 69.06,37.21C69.06,19.82 54.97,5.72 37.57,5.72C20.17,5.72 6.09,19.82 6.09,37.21C6.09,54.6 20.19,68.7 37.58,68.7" style="fill:rgb(0,144,198);fill-rule:nonzero;"/>
        </g>
    </g>
    <g transform="matrix(1,0,0,1,-6.09,-2.19727)">
        <path d="M47.24,25.31C46.36,26.53 45.29,27.62 44.08,28.54C41.3,30.67 37.74,31.95 33.87,31.95C28.66,31.95 24.05,29.63 21.09,26.05C20.81,25.71 20.54,25.35 20.29,24.99C22.05,38.41 27.53,47.43 36.22,56.46C36.39,56.63 36.56,56.81 36.73,56.98C37.05,57.31 37.36,57.63 37.69,57.96C37.69,57.95 37.69,57.94 37.7,57.93C37.51,57.02 35.05,44.06 47.25,25.31" style="fill:rgb(140,200,117);fill-rule:nonzero;"/>
    </g>
    <g transform="matrix(1,0,0,1,-6.09,-2.19727)">
        <path d="M92.68,11.63C92.68,11.63 87.6,4.25 81.63,2.76C77.35,1.69 73.26,2.08 68.54,4.5C68.5,4.52 68.47,4.54 68.43,4.56C67.86,4.85 67.28,5.19 66.69,5.54C61.69,8.55 55.88,13.39 50.18,21.08C50.01,21.31 49.84,21.52 49.66,21.76C48.85,22.88 48.1,23.97 47.4,25.06C47.34,25.14 47.29,25.23 47.24,25.31C35.04,44.06 37.5,57.02 37.69,57.93C37.69,57.91 37.7,57.89 37.71,57.88C40.74,49.57 46.4,40.56 54.28,32.35C66.83,19.27 81.62,11.71 92.69,11.65L92.69,11.64" style="fill:rgb(96,198,238);fill-rule:nonzero;"/>
    </g>
    <g transform="matrix(1,0,0,1,-6.09,-2.19727)">
        <g>
            <path d="M47.24,25.31C46.36,26.53 45.29,27.62 44.08,28.54C41.3,30.67 37.74,31.95 33.87,31.95C28.66,31.95 24.05,29.63 21.09,26.05C20.81,25.71 20.54,25.35 20.29,24.99C22.05,38.41 27.53,47.43 36.22,56.46C36.39,56.63 36.56,56.81 36.73,56.98C37.05,57.31 37.36,57.63 37.69,57.96C37.69,57.95 37.69,57.94 37.7,57.93C37.51,57.02 35.05,44.06 47.25,25.31" style="fill:rgb(47,141,59);fill-rule:nonzero;"/>
        </g>
    </g>
    <g transform="matrix(1,0,0,1,-6.09,-2.19727)">
        <g>
            <path d="M92.68,11.63C92.68,11.63 87.6,4.25 81.63,2.76C77.35,1.69 73.26,2.08 68.54,4.5C68.5,4.52 68.47,4.54 68.43,4.56C67.86,4.85 67.28,5.19 66.69,5.54C61.69,8.55 55.88,13.39 50.18,21.08C50.01,21.31 49.84,21.52 49.66,21.76C48.85,22.88 48.1,23.97 47.4,25.06C47.34,25.14 47.29,25.23 47.24,25.31C35.04,44.06 37.5,57.02 37.69,57.93C37.69,57.91 37.7,57.89 37.71,57.88C40.74,49.57 46.4,40.56 54.28,32.35C66.83,19.27 81.62,11.71 92.69,11.65L92.69,11.64" style="fill:rgb(0,144,198);fill-rule:nonzero;"/>
        </g>
    </g>
    <g transform="matrix(1,0,0,1,-6.09,-2.19727)">
        <g>
            <path d="M92.68,11.63C92.68,11.63 87.6,4.25 81.63,2.76C77.35,1.69 73.26,2.08 68.54,4.5C68.5,4.52 68.47,4.54 68.43,4.56C67.86,4.85 67.28,5.19 66.69,5.54C61.69,8.55 55.88,13.39 50.18,21.08C50.01,21.31 49.84,21.52 49.66,21.76C48.85,22.88 48.1,23.97 47.4,25.06C47.34,25.14 47.29,25.23 47.24,25.31C35.04,44.06 37.5,57.02 37.69,57.93C37.69,57.91 37.7,57.89 37.71,57.88C40.74,49.57 46.4,40.56 54.28,32.35C66.83,19.27 81.62,11.71 92.69,11.65L92.69,11.64" style="fill:rgb(37,64,142);fill-rule:nonzero;"/>
        </g>
    </g>
    <g transform="matrix(1,0,0,1,-6.09,-2.19727)">
        <g>
            <path d="M47.24,25.31C46.36,26.53 45.29,27.62 44.08,28.54C41.3,30.67 37.74,31.95 33.87,31.95C28.66,31.95 24.05,29.63 21.09,26.05C20.81,25.71 20.54,25.35 20.29,24.99C22.05,38.41 27.53,47.43 36.22,56.46C36.39,56.63 36.56,56.81 36.73,56.98C37.05,57.31 37.36,57.63 37.69,57.96C37.69,57.95 37.69,57.94 37.7,57.93C37.51,57.02 35.05,44.06 47.25,25.31" style="fill:rgb(30,116,46);fill-rule:nonzero;"/>
        </g>
    </g>
</svg>
