<svg width="100%" height="100%" viewBox="0 0 272 105" version="1.1" xmlns="http://www.w3.org/2000/svg" xmlns:xlink="http://www.w3.org/1999/xlink" xml:space="preserve" xmlns:serif="http://www.serif.com/" style="fill-rule:evenodd;clip-rule:evenodd;stroke-linejoin:round;stroke-miterlimit:2;">
    <g transform="matrix(1,0,0,1,-29.1469,-200.114)">
        <path class="svg-fill" d="M63.995,304.37C57.563,304.37 51.731,303.194 46.499,300.842C41.267,298.49 37.115,294.962 34.043,290.258C30.971,285.554 29.339,279.698 29.147,272.69L41.387,272.69C41.483,276.53 42.419,280.058 44.195,283.274C45.971,286.49 48.539,289.058 51.899,290.978C55.259,292.898 59.291,293.858 63.995,293.858C68.699,293.858 72.635,292.946 75.803,291.122C78.971,289.298 81.371,286.874 83.003,283.85C84.635,280.826 85.451,277.442 85.451,273.698C85.451,268.994 84.323,265.178 82.067,262.25C79.811,259.322 76.787,257.138 72.995,255.698C69.203,254.258 65.051,253.538 60.539,253.538L53.051,253.538L53.051,243.314L60.539,243.314C67.163,243.314 72.347,241.802 76.091,238.778C79.835,235.754 81.707,231.554 81.707,226.178C81.707,221.762 80.243,218.066 77.315,215.09C74.387,212.114 69.947,210.626 63.995,210.626C58.331,210.626 53.819,212.258 50.459,215.522C47.099,218.786 45.179,222.962 44.699,228.05L32.459,228.05C32.747,222.578 34.235,217.73 36.923,213.506C39.611,209.282 43.259,205.994 47.867,203.642C52.475,201.29 57.899,200.114 64.139,200.114C70.667,200.114 76.139,201.266 80.555,203.57C84.971,205.874 88.307,208.946 90.563,212.786C92.819,216.626 93.947,220.85 93.947,225.458C93.947,228.818 93.323,232.034 92.075,235.106C90.827,238.178 88.955,240.866 86.459,243.17C83.963,245.474 80.795,247.058 76.955,247.922C80.891,248.786 84.419,250.322 87.539,252.53C90.659,254.738 93.131,257.618 94.955,261.17C96.779,264.722 97.691,268.898 97.691,273.698C97.691,279.17 96.419,284.234 93.875,288.89C91.331,293.546 87.563,297.29 82.571,300.122C77.579,302.954 71.387,304.37 63.995,304.37Z" style="fill-rule:nonzero;"/>
        <path class="svg-fill" d="M163.355,302.642L163.355,281.042L112.235,281.042L112.235,271.682L161.195,201.842L175.307,201.842L175.307,270.386L190.283,270.386L190.283,281.042L175.307,281.042L175.307,302.642L163.355,302.642ZM125.627,270.386L163.931,270.386L163.931,215.234L125.627,270.386Z" style="fill-rule:nonzero;"/>
        <path class="svg-fill" d="M214.619,302.642L273.227,201.842L285.323,201.842L226.715,302.642L214.619,302.642ZM278.123,304.37C273.803,304.37 269.915,303.386 266.459,301.418C263.003,299.45 260.243,296.642 258.179,292.994C256.115,289.346 255.083,285.074 255.083,280.178C255.083,275.186 256.115,270.89 258.179,267.29C260.243,263.69 263.003,260.906 266.459,258.938C269.915,256.97 273.803,255.986 278.123,255.986C282.539,255.986 286.451,256.97 289.859,258.938C293.267,260.906 295.979,263.69 297.995,267.29C300.011,270.89 301.019,275.186 301.019,280.178C301.019,285.074 300.011,289.346 297.995,292.994C295.979,296.642 293.243,299.45 289.787,301.418C286.331,303.386 282.443,304.37 278.123,304.37ZM277.979,295.01C280.283,295.01 282.395,294.458 284.315,293.354C286.235,292.25 287.795,290.594 288.995,288.386C290.195,286.178 290.795,283.442 290.795,280.178C290.795,276.818 290.219,274.034 289.067,271.826C287.915,269.618 286.379,267.962 284.459,266.858C282.539,265.754 280.427,265.202 278.123,265.202C275.915,265.202 273.827,265.754 271.859,266.858C269.891,267.962 268.307,269.618 267.107,271.826C265.907,274.034 265.307,276.818 265.307,280.178C265.307,283.442 265.907,286.178 267.107,288.386C268.307,290.594 269.867,292.25 271.787,293.354C273.707,294.458 275.771,295.01 277.979,295.01ZM222.683,248.642C218.363,248.642 214.475,247.658 211.019,245.69C207.563,243.722 204.803,240.914 202.739,237.266C200.675,233.618 199.643,229.346 199.643,224.45C199.643,219.458 200.675,215.162 202.739,211.562C204.803,207.962 207.587,205.178 211.091,203.21C214.595,201.242 218.507,200.258 222.827,200.258C227.147,200.258 231.035,201.242 234.491,203.21C237.947,205.178 240.683,207.962 242.699,211.562C244.715,215.162 245.723,219.458 245.723,224.45C245.723,229.346 244.715,233.618 242.699,237.266C240.683,240.914 237.923,243.722 234.419,245.69C230.915,247.658 227.003,248.642 222.683,248.642ZM222.683,239.282C224.987,239.282 227.099,238.73 229.019,237.626C230.939,236.522 232.475,234.866 233.627,232.658C234.779,230.45 235.355,227.714 235.355,224.45C235.355,221.09 234.779,218.282 233.627,216.026C232.475,213.77 230.939,212.09 229.019,210.986C227.099,209.882 225.035,209.33 222.827,209.33C220.619,209.33 218.507,209.882 216.491,210.986C214.475,212.09 212.867,213.77 211.667,216.026C210.467,218.282 209.867,221.09 209.867,224.45C209.867,227.714 210.467,230.45 211.667,232.658C212.867,234.866 214.451,236.522 216.419,237.626C218.387,238.73 220.475,239.282 222.683,239.282Z" style="fill-rule:nonzero;"/>
    </g>
</svg>