<?xml version="1.0" encoding="UTF-8"?>
<svg id="Layer_1" xmlns="http://www.w3.org/2000/svg" xmlns:xlink="http://www.w3.org/1999/xlink" version="1.1" viewBox="0 0 841.9 595.3">
  <!-- Generator: Adobe Illustrator 29.6.0, SVG Export Plug-In . SVG Version: 2.1.1 Build 207)  -->
  <defs>
    <style>
      .st0 {
        fill: url(#linear-gradient);
      }
    </style>
    <linearGradient id="linear-gradient" x1="76.1" y1="297.5" x2="764.5" y2="297.5" gradientUnits="userSpaceOnUse">
      <stop offset=".1" stop-color="#330065"/>
      <stop offset="1" stop-color="#f94f4b"/>
    </linearGradient>
  </defs>
  <path class="st0" d="M764.3,308.7c-1.3-17.6-9.1-31.6-23-42.2-14.9-11.3-32.1-15.7-47-15.9-14.2,0-24.6,1.7-34.7,5.4-24.1,8.8-44.6,29.2-42.5,62.7,1.3,19.9,10.3,35.4,26.9,46,24.1,15.3,50.1,17.1,76.9,8.2,24.6-8.2,46.2-29.1,43.5-64.2ZM737.6,330.3c-5.4,10-14.4,15.7-24.9,19.3-7.1,2.4-14.5,3.5-22,3.4-12.1,0-23.5-2.6-33.8-9-23.1-14.2-23-46.6,1.2-60,21.5-11.8,43.8-11.8,65.4,0,17.3,9.4,23.1,29.8,14.2,46.4ZM565.5,352.6h41.3v22.7h-22c-23.9,0-43.2-19.4-43.2-43.2v-111.5h23.9v32.4h39.4v17.9c0,2-1.7,3.7-3.7,3.7h-35.7v78ZM221.3,253.1h23.9v122.2h-23.9v-122.2ZM493.9,253h-88v17.9c0,2,1.6,3.7,3.7,3.7h92.2v6.2s-42.4,8.3-59,14.6c-14.3,4.7-29.1,9.3-40.8,20-5,4.6-9.1,9.8-11.3,16.3-5,15.1,3,36.1,17.6,42.8,5.7,2.7,12.3,5.3,25.4,5.3,18.7-.1,32.1-6.1,41.7-15.3,17-16.4,18.9-27.5,25.1-48.1.5-1.7,1.1-3.3,1.5-5v60.5c0,2,1.6,3.5,3.5,3.5h19.3v-91.4c.1-17.1-13.7-30.9-30.8-30.9ZM490.3,322.4c-15.6,20.9-31.8,33.4-49.8,35-9.5.3-15-1-20.2-4.8-4.5-3.3-6-9.4-5.5-13.1.8-5.3,2.7-9,9-13,6.6-4,10.7-5.8,17.9-8.7,19.5-8,39.5-12.1,59.7-20.1-2.3,9.2-5.7,17.4-11.1,24.6ZM249.7,228.3c.6,7.9-4.2,12.5-9.7,14.3-6,2-11.8,1.6-17.2-1.8-3.7-2.4-5.7-5.8-6-10.3-.5-7.5,4.1-12.1,9.5-14,2.3-.8,4.6-1.2,7.8-1.2,3.3,0,7.2,1,10.5,3.6,3.1,2.4,4.8,5.5,5.1,9.4ZM325.4,378.6c-12.1,0-21.5-7.5-25.7-18.8l-38.6-106.8h22c1.9,0,3.6,1.1,4.3,2.9l35.9,98.5h4.3s35.9-98.5,35.9-98.5c.7-1.8,2.4-2.9,4.3-2.9h22s-38.6,106.8-38.6,106.8c-4.2,11.3-13.5,18.8-25.7,18.8h0ZM140.4,378.6c-12.1,0-21.5-7.5-25.7-18.8l-38.6-106.8h22c1.9,0,3.6,1.1,4.3,2.9l35.9,98.5h4.3s35.9-98.5,35.9-98.5c.7-1.8,2.4-2.9,4.3-2.9h22s-38.6,106.8-38.6,106.8c-4.2,11.3-13.5,18.8-25.7,18.8h0Z"/>
</svg>