<?xml version="1.0" encoding="UTF-8" standalone="no"?>
<!DOCTYPE svg PUBLIC "-//W3C//DTD SVG 1.1//EN" "http://www.w3.org/Graphics/SVG/1.1/DTD/svg11.dtd">
<svg width="100%" height="100%" viewBox="0 0 100 100" version="1.1" xmlns="http://www.w3.org/2000/svg" xmlns:xlink="http://www.w3.org/1999/xlink" xml:space="preserve" xmlns:serif="http://www.serif.com/" style="fill-rule:evenodd;clip-rule:evenodd;stroke-linejoin:round;stroke-miterlimit:2;">
    <g transform="matrix(0.194446,0,0,0.194446,40.2217,40.5116)">
        <g transform="matrix(4.16667,0,0,4.16667,-835.829,-827.805)">
            <rect x="202.56" y="222.315" width="20.496" height="11.843" style="fill:rgb(236,183,158);fill-rule:nonzero;"/>
        </g>
        <g transform="matrix(4.16667,0,0,4.16667,-835.829,-827.805)">
            <path d="M207.042,231.415C205.552,231.415 204.048,231.329 202.56,231.176L202.56,222.315L223.056,222.315L223.056,222.735C222.806,223.167 222.536,223.571 222.29,223.929C221.046,225.744 219.388,227.3 217.331,228.608C214.796,230.221 211.589,231.284 208.292,231.394C207.877,231.408 207.46,231.415 207.042,231.415Z" style="fill:rgb(195,153,133);fill-rule:nonzero;"/>
        </g>
        <g transform="matrix(4.16667,0,0,4.16667,-835.829,-827.805)">
            <path d="M238.188,190.076C238.188,171.092 226.813,160.18 212.745,160.09L212.624,160.088L212.581,160.088L212.45,160.09C198.384,160.18 187.011,171.092 187.011,190.076C187.011,214.699 204.735,229.058 212.573,229.123L212.573,229.124L212.624,229.124L212.626,229.123C220.46,229.058 238.188,214.699 238.188,190.076Z" style="fill:rgb(236,183,158);fill-rule:nonzero;"/>
        </g>
        <g transform="matrix(4.16667,0,0,4.16667,-835.829,-827.805)">
            <path d="M235.667,197.106L234.206,208.295C239.946,210.823 240.845,197.656 240.845,197.656C239.517,194.372 235.667,197.106 235.667,197.106Z" style="fill:rgb(236,183,158);fill-rule:nonzero;"/>
        </g>
        <g transform="matrix(4.16667,0,0,4.16667,-835.829,-827.805)">
            <path d="M185.003,197.656C185.003,197.656 185.899,210.823 191.642,208.295L190.181,197.106C190.181,197.106 186.331,194.372 185.003,197.656Z" style="fill:rgb(236,183,158);fill-rule:nonzero;"/>
        </g>
        <g transform="matrix(4.16667,0,0,4.16667,-835.829,-827.805)">
            <path d="M202.479,233.256L177.829,240.88C177.829,240.88 169.202,242.41 167.001,251.39L163.228,267.671L261.97,267.671L258.198,251.39C255.997,242.41 247.37,240.88 247.37,240.88L222.718,233.256L202.479,233.256Z" style="fill:rgb(236,183,158);fill-rule:nonzero;"/>
        </g>
        <g transform="matrix(4.16667,0,0,4.16667,-835.829,-827.805)">
            <path d="M241.128,253.512L242.845,239.398L237.14,237.635C237.14,237.635 232.829,256.85 212.731,259.892C192.634,256.85 188.323,237.635 188.323,237.635L182.616,239.398L184.333,253.512C184.333,253.512 181.056,261.317 182.462,267.671L243.001,267.671C244.407,261.317 241.128,253.512 241.128,253.512Z" style="fill:rgb(108,143,38);fill-rule:nonzero;"/>
        </g>
        <g transform="matrix(4.16667,0,0,4.16667,-835.829,-827.805)">
            <path d="M234.206,194.606C234.206,194.606 235.808,215.971 223.056,223.59L223.274,233.925L246.024,240.463C246.024,240.463 241.888,235.893 243.351,218.053C243.351,218.053 253.071,169.074 227.989,156.901C227.989,156.901 211.735,149.643 196.437,156.901C196.437,156.901 169.274,167.67 182.112,213.557C182.112,213.557 185.003,226.865 179.173,240.463L202.479,233.256L202.56,225.018C202.56,225.018 192.315,217.078 191.642,208.295C191.642,208.295 185.155,181.155 198.985,173.757C198.985,173.757 212.431,190.336 224.05,193.72C224.05,193.72 221.509,191.371 215.862,183.998C215.862,183.998 221.485,193.83 234.206,194.606Z" style="fill:rgb(181,106,42);fill-rule:nonzero;"/>
        </g>
        <g transform="matrix(4.16667,0,0,4.16667,-835.829,-827.805)">
            <path d="M201.032,162.285C200.864,167.791 209.376,173.878 212.772,177.431C211.222,174.598 209.212,171.893 208.503,168.684C211.349,170.962 213.884,173.604 216.72,175.923C220.409,178.942 223.399,183.518 227.458,185.912C226.728,183.746 224.14,181.657 223.022,179.418C222.231,177.828 221.536,175.427 220.501,174.24C221.085,177.192 228.573,182.135 230.948,183.836C233.448,185.627 236.974,188.813 240.101,189.168C238.876,185.743 237.694,181.793 235.929,178.439C235.138,176.937 233.796,172.405 231.978,172.384C231.599,174.258 233.47,176.621 233.306,178.888C231.083,178.583 228.128,174.524 226.55,172.89C224.634,170.901 222.634,166.553 219.798,166.064C219.728,167.35 219.794,168.687 219.728,169.975C217.712,169.873 202.394,153.575 201.501,162.754" style="fill:rgb(207,121,51);fill-rule:nonzero;"/>
        </g>
    </g>
</svg>
