<?xml version="1.0" encoding="UTF-8" standalone="no"?>
<!DOCTYPE svg PUBLIC "-//W3C//DTD SVG 1.1//EN" "http://www.w3.org/Graphics/SVG/1.1/DTD/svg11.dtd">
<svg width="100%" height="100%" viewBox="0 0 150 150" version="1.1" xmlns="http://www.w3.org/2000/svg" xmlns:xlink="http://www.w3.org/1999/xlink" xml:space="preserve" xmlns:serif="http://www.serif.com/" style="fill-rule:evenodd;clip-rule:evenodd;stroke-linecap:round;stroke-miterlimit:10;">
    <g transform="matrix(0.692614,0,0,0.692614,-30.9272,-18.8631)">
        <g transform="matrix(1,0,0,1,252.637,49.2076)">
            <path d="M0,165.353C0,165.353 -8.443,133.979 2.471,118.964C13.386,103.95 11.878,77.01 -20.242,67.437C-52.362,57.866 -40.065,29.106 -64.535,14.554C-89.004,0 -119.115,7.069 -133.945,37.318C-148.775,67.568 -183.415,44.565 -198.151,67.437C-210.625,86.798 -182.962,96.447 -187.958,111.373C-192.954,126.299 -205.631,150.476 -196.051,165.353L0,165.353Z" style="fill:rgb(212,216,219);fill-rule:nonzero;"/>
        </g>
        <g transform="matrix(-1,0.000744546,0.000744546,1,154.281,76.1867)">
            <path d="M0.477,-13.431C0.477,-13.431 -0.061,-7.83 6.806,-6.51C6.806,-6.51 0.584,-6.023 0.477,-0C0.477,-0 0.423,-5.3 -6.324,-6.711C-6.324,-6.711 -0.181,-7.227 0.477,-13.431" style="fill:rgb(0,204,102);fill-rule:nonzero;"/>
        </g>
        <g transform="matrix(-1,0.000744546,0.000744546,1,51.469,163.256)">
            <path d="M0.477,-13.431C0.477,-13.431 -0.061,-7.83 6.806,-6.51C6.806,-6.51 0.583,-6.023 0.477,-0C0.477,-0 0.423,-5.301 -6.324,-6.711C-6.324,-6.711 -0.181,-7.228 0.477,-13.431" style="fill:rgb(23,169,230);fill-rule:nonzero;"/>
        </g>
        <g transform="matrix(-1,0.000734035,0.000734035,1,67.8186,208.791)">
            <path d="M0.29,-8.174C0.29,-8.174 -0.037,-4.765 4.142,-3.962C4.142,-3.962 0.354,-3.666 0.29,-0C0.29,-0 0.257,-3.226 -3.849,-4.084C-3.849,-4.084 -0.11,-4.399 0.29,-8.174" style="fill:white;fill-rule:nonzero;"/>
        </g>
        <g transform="matrix(-1,0.000795635,0.000795635,1,256.708,148.72)">
            <path d="M0.311,-8.798C0.311,-8.798 -0.041,-5.129 4.458,-4.264C4.458,-4.264 0.38,-3.945 0.311,-0C0.311,-0 0.276,-3.472 -4.143,-4.396C-4.143,-4.396 -0.119,-4.734 0.311,-8.798" style="fill:rgb(175,179,177);fill-rule:nonzero;"/>
        </g>
        <g opacity="0.63">
            <g>
                <clipPath id="_clip1">
                    <rect x="66.669" y="96.362" width="75.316" height="102.229" clip-rule="nonzero"/>
                </clipPath>
                <g clip-path="url(#_clip1)">
                    <g transform="matrix(1,0,0,1,137.93,97.3623)">
                        <path d="M0,100.229L-67.206,100.229C-68.893,100.229 -70.261,98.861 -70.261,97.174L-70.261,3.055C-70.261,1.368 -68.893,0 -67.206,0L0,0C1.687,0 3.055,1.368 3.055,3.055L3.055,97.174C3.055,98.861 1.687,100.229 0,100.229Z" style="fill:white;fill-rule:nonzero;stroke:rgb(1,51,25);stroke-width:2.89px;"/>
                    </g>
                    <g opacity="0.23">
                        <g transform="matrix(1,0,0,1,76.4083,168.822)">
                            <clipPath id="_clip2">
                                <rect x="-1" y="-1" width="16.899" height="2" clip-rule="nonzero"/>
                            </clipPath>
                            <g clip-path="url(#_clip2)">
                                <path d="M0,0L14.899,0" style="fill:none;fill-rule:nonzero;stroke:rgb(1,51,25);stroke-width:2.89px;"/>
                            </g>
                        </g>
                    </g>
                    <g opacity="0.23">
                        <g transform="matrix(1,0,0,1,96.8775,168.822)">
                            <clipPath id="_clip3">
                                <rect x="-1" y="-1" width="16.899" height="2" clip-rule="nonzero"/>
                            </clipPath>
                            <g clip-path="url(#_clip3)">
                                <path d="M0,0L14.899,0" style="fill:none;fill-rule:nonzero;stroke:rgb(1,51,25);stroke-width:2.89px;"/>
                            </g>
                        </g>
                    </g>
                    <g opacity="0.23">
                        <g transform="matrix(1,0,0,1,117.346,168.822)">
                            <clipPath id="_clip4">
                                <rect x="-1" y="-1" width="16.9" height="2" clip-rule="nonzero"/>
                            </clipPath>
                            <g clip-path="url(#_clip4)">
                                <path d="M0,0L14.899,0" style="fill:none;fill-rule:nonzero;stroke:rgb(1,51,25);stroke-width:2.89px;"/>
                            </g>
                        </g>
                    </g>
                    <g opacity="0.23">
                        <g transform="matrix(1,0,0,1,76.4083,173.08)">
                            <clipPath id="_clip5">
                                <rect x="-1" y="-1" width="16.899" height="2" clip-rule="nonzero"/>
                            </clipPath>
                            <g clip-path="url(#_clip5)">
                                <path d="M0,0L14.899,0" style="fill:none;fill-rule:nonzero;stroke:rgb(1,51,25);stroke-width:2.89px;"/>
                            </g>
                        </g>
                    </g>
                    <g opacity="0.23">
                        <g transform="matrix(1,0,0,1,76.4083,181.946)">
                            <clipPath id="_clip6">
                                <rect x="-1" y="-1" width="27.521" height="2" clip-rule="nonzero"/>
                            </clipPath>
                            <g clip-path="url(#_clip6)">
                                <path d="M0,0L25.521,0" style="fill:none;fill-rule:nonzero;stroke:rgb(1,51,25);stroke-width:2.89px;"/>
                            </g>
                        </g>
                    </g>
                    <g opacity="0.23">
                        <g transform="matrix(1,0,0,1,114.458,181.946)">
                            <clipPath id="_clip7">
                                <rect x="-1" y="-1" width="19.788" height="2" clip-rule="nonzero"/>
                            </clipPath>
                            <g clip-path="url(#_clip7)">
                                <path d="M0,0L17.788,0" style="fill:none;fill-rule:nonzero;stroke:rgb(1,51,25);stroke-width:2.89px;"/>
                            </g>
                        </g>
                    </g>
                    <g opacity="0.23">
                        <g transform="matrix(1,0,0,1,76.4083,186.145)">
                            <clipPath id="_clip8">
                                <rect x="-1" y="-1" width="10.816" height="2" clip-rule="nonzero"/>
                            </clipPath>
                            <g clip-path="url(#_clip8)">
                                <path d="M0,0L8.816,0" style="fill:none;fill-rule:nonzero;stroke:rgb(1,51,25);stroke-width:2.89px;"/>
                            </g>
                        </g>
                    </g>
                    <g opacity="0.23">
                        <g transform="matrix(1,0,0,1,123.971,186.145)">
                            <clipPath id="_clip9">
                                <rect x="-1" y="-1" width="10.816" height="2" clip-rule="nonzero"/>
                            </clipPath>
                            <g clip-path="url(#_clip9)">
                                <path d="M0,0L8.816,0" style="fill:none;fill-rule:nonzero;stroke:rgb(1,51,25);stroke-width:2.89px;"/>
                            </g>
                        </g>
                    </g>
                    <g opacity="0.23">
                        <g transform="matrix(1,0,0,1,96.8775,186.145)">
                            <clipPath id="_clip10">
                                <rect x="-1" y="-1" width="20.896" height="2" clip-rule="nonzero"/>
                            </clipPath>
                            <g clip-path="url(#_clip10)">
                                <path d="M0,0L18.896,0" style="fill:none;fill-rule:nonzero;stroke:rgb(1,51,25);stroke-width:2.89px;"/>
                            </g>
                        </g>
                    </g>
                    <g opacity="0.23">
                        <g transform="matrix(1,0,0,1,117.346,173.08)">
                            <clipPath id="_clip11">
                                <rect x="-1" y="-1" width="16.9" height="2" clip-rule="nonzero"/>
                            </clipPath>
                            <g clip-path="url(#_clip11)">
                                <path d="M0,0L14.899,0" style="fill:none;fill-rule:nonzero;stroke:rgb(1,51,25);stroke-width:2.89px;"/>
                            </g>
                        </g>
                    </g>
                    <g transform="matrix(-1,0,0,1,208.652,-12.613)">
                        <rect x="74.899" y="114.925" width="58.854" height="49.341" style="fill:rgb(212,216,219);"/>
                    </g>
                    <g transform="matrix(1,0,0,1,108.422,149.19)">
                        <path d="M0,-16.072C-1.051,-15.522 -2.137,-15.24 -3.327,-15.25C-3.408,-15.25 -3.491,-15.259 -3.572,-15.26C-3.639,-15.259 -3.701,-15.252 -3.769,-15.252C-4.489,-15.252 -5.14,-15.344 -5.722,-15.494C-6.146,-15.572 -6.567,-15.659 -6.979,-15.767C-7.518,-15.907 -8.117,-16.061 -8.584,-16.377C-8.932,-16.612 -9.207,-16.927 -9.491,-17.233L-9.58,1.161L1.722,1.161L1.722,-17.197C1.197,-16.754 0.601,-16.386 0,-16.072" style="fill:white;fill-rule:nonzero;"/>
                    </g>
                    <g transform="matrix(1,0,0,1,122.148,142.874)">
                        <path d="M0,-3.93L1.305,5.454C1.454,6.523 0.624,7.477 -0.456,7.477L-12.003,7.477L-12.003,-11.407C-11.862,-11.297 -11.702,-11.204 -11.524,-11.137L-8.886,-10.135L-3.229,-7.988C-1.495,-7.324 -0.252,-5.768 0,-3.93Z" style="fill:rgb(23,169,230);fill-rule:nonzero;stroke:rgb(1,51,25);stroke-width:2.17px;"/>
                    </g>
                    <g transform="matrix(1,0,0,1,98.9776,150.351)">
                        <path d="M0,-19.345L-0.043,-12.796L-0.135,0L-12.356,0C-13.229,0 -13.9,-0.771 -13.78,-1.635L-12.421,-11.407C-12.169,-13.245 -10.927,-14.801 -9.187,-15.465L-3,-17.814L-0.897,-18.613C-0.516,-18.755 -0.209,-19.019 0,-19.345" style="fill:rgb(23,169,230);fill-rule:nonzero;"/>
                    </g>
                    <g opacity="0.56">
                        <g transform="matrix(1,0,0,1,88.6534,142.548)">
                            <path d="M0,-3.739L-1.586,7.668L10.189,7.668L10.189,7.803L-1.673,7.803C-2.735,7.803 -3.553,6.864 -3.406,5.812L-2.097,-3.604C-1.845,-5.442 -0.603,-6.998 1.138,-7.662L7.324,-10.011L9.427,-10.81C9.808,-10.952 10.115,-11.216 10.324,-11.542L10.318,-10.485L9.42,-10.146L3.234,-7.798C1.494,-7.133 0.252,-5.577 0,-3.739" style="fill:white;fill-rule:nonzero;"/>
                        </g>
                    </g>
                    <g transform="matrix(1,0,0,1,106.51,125.822)">
                        <path d="M0,-15.594C-0.953,-8.166 -9.088,-8.879 -9.088,-8.879C-9.138,-9.408 -9.574,-10.085 -10.213,-10.085C-10.65,-10.085 -10.908,-9.137 -10.804,-8.061C-10.699,-6.985 -10.343,-5.958 -10.293,-5.116C-10.244,-4.267 -9.008,-4.089 -9.008,-4.089C-9.045,-2.859 -8.246,-1.58 -7.244,-0.498L-7.244,4.2C-7.244,4.557 -7.348,4.895 -7.533,5.184C-7.742,5.51 -8.049,5.774 -8.43,5.916L-10.533,6.715C-10.533,6.715 -14.112,2.239 -14.112,-6.168C-14.112,-14.567 -9.685,-22.512 -1.857,-22.512C5.977,-22.512 10.405,-14.567 10.405,-6.168C10.405,2.239 6.826,6.715 6.826,6.715L6.752,6.918L4.114,5.916C3.936,5.848 3.776,5.756 3.634,5.645C3.198,5.301 3.523,4.698 3.523,4.126L2.927,0.037C4.052,-1.205 5.123,-2.823 5.307,-4.353C6.629,-4.218 6.494,-5.983 6.555,-7.004C6.61,-8.025 7.379,-9.697 6.863,-10.115C6.34,-10.539 5.805,-9.525 4.532,-9.574C0.363,-9.74 0.006,-15.594 0.006,-15.594L0,-15.594Z" style="fill:rgb(1,51,25);fill-rule:nonzero;"/>
                    </g>
                    <g transform="matrix(1,0,0,1,99.2667,113.376)">
                        <path d="M0,11.948C-1.002,10.865 -1.802,9.587 -1.765,8.357C-1.765,8.357 -3,8.178 -3.05,7.33C-3.099,6.488 -3.456,5.461 -3.56,4.385C-3.665,3.308 -3.407,2.361 -2.97,2.361C-2.331,2.361 -1.894,3.038 -1.845,3.567C-1.845,3.567 6.291,4.28 7.244,-3.148L7.25,-3.148C7.25,-3.148 7.606,2.706 11.776,2.872C13.049,2.921 13.583,1.906 14.106,2.33C14.623,2.749 13.854,4.421 13.799,5.442C13.737,6.463 13.873,8.228 12.551,8.093C12.366,9.623 11.296,11.24 10.171,12.483C9.273,13.467 8.332,14.211 7.767,14.481C6.487,15.096 5.571,15.029 5.571,15.029L5.479,15.029C5.215,15.029 4.372,14.986 3.265,14.481C2.546,14.156 1.138,13.184 0,11.948" style="fill:rgb(252,213,197);fill-rule:nonzero;"/>
                    </g>
                    <g transform="matrix(1,0,0,1,99.2667,134.075)">
                        <path d="M0,-8.591L0,-5.806C0,-5.582 -0.104,-5.37 -0.289,-5.189L-0.332,-1.084L-0.289,-1.084C-0.289,-1.084 1.593,0 5.387,0C9.187,0 10.878,-1.18 10.878,-1.18L10.878,-2.719C6.628,-2.827 2.525,-4.837 0,-8.591" style="fill:rgb(252,213,197);fill-rule:nonzero;"/>
                    </g>
                    <g transform="matrix(1,0,0,1,110.034,128.652)">
                        <path d="M0,-0.429L0.111,-3.133C-0.045,-3.025 -0.228,-2.92 -0.419,-2.816C-0.448,-2.774 -0.482,-2.736 -0.525,-2.705C-0.883,-2.449 -1.254,-2.227 -1.636,-2.03C-1.639,-1.957 -1.669,-1.884 -1.749,-1.821C-1.983,-1.632 -2.237,-1.475 -2.498,-1.334C-3.008,-0.981 -3.564,-0.709 -4.191,-0.556C-5.417,-0.255 -6.563,-0.429 -7.7,-0.955C-7.82,-1.01 -7.871,-1.1 -7.876,-1.195C-8.122,-1.284 -8.358,-1.404 -8.584,-1.541C-8.81,-1.679 -9.027,-1.828 -9.25,-1.97C-9.444,-2.093 -9.693,-2.24 -9.875,-2.315C-10.049,-2.387 -10.173,-2.543 -10.118,-2.743C-10.115,-2.755 -10.105,-2.765 -10.101,-2.776C-10.264,-2.841 -10.43,-2.898 -10.603,-2.94C-8.067,0.664 -4.05,2.598 0.111,2.704L0.111,0.523C-0.326,0.307 0,-0.071 0,-0.429" style="fill:rgb(232,193,179);fill-rule:nonzero;"/>
                    </g>
                    <g transform="matrix(1,0,0,1,97.502,109.73)">
                        <path d="M0,12.003C0,12.003 -1.236,11.825 -1.285,10.976C-1.334,10.134 -1.691,9.107 -1.795,8.031C-1.9,6.955 -1.642,6.007 -1.205,6.007C-0.566,6.007 -0.129,6.684 -0.08,7.213C-0.08,7.213 8.055,7.926 9.008,0.498C9.033,0.338 9.052,0.172 9.064,0" style="fill:none;fill-rule:nonzero;stroke:rgb(1,51,25);stroke-width:2.17px;"/>
                    </g>
                    <g transform="matrix(1,0,0,1,111.818,128.473)">
                        <path d="M0,-7.004C-0.185,-5.473 -1.255,-3.856 -2.38,-2.614C-3.278,-1.63 -4.219,-0.886 -4.784,-0.615C-6.063,0 -6.979,-0.068 -6.979,-0.068L-7.072,-0.068C-7.336,-0.068 -8.179,-0.111 -9.286,-0.615C-10.005,-0.941 -11.413,-1.913 -12.551,-3.149C-13.553,-4.231 -14.353,-5.51 -14.315,-6.74" style="fill:none;fill-rule:nonzero;stroke:rgb(1,51,25);stroke-width:2.17px;"/>
                    </g>
                    <g transform="matrix(-0.624292,0.781191,0.781191,0.624292,116.948,116.587)">
                        <path d="M1.545,-12.119C1.545,-12.119 5.895,-8.186 3.422,-4.825C2.665,-3.8 1.54,-4.016 1.545,-3.342C1.548,-2.678 3.335,-2.235 4.166,-1.64C5.003,-1.051 6.297,0.157 7.017,-0.96" style="fill:none;fill-rule:nonzero;stroke:rgb(1,51,25);stroke-width:2.17px;"/>
                    </g>
                    <g transform="matrix(1,0,0,1,95.9771,103.31)">
                        <path d="M0,29.227C0,29.227 -3.579,24.75 -3.579,16.344C-3.579,7.945 0.849,0 8.676,0" style="fill:none;fill-rule:nonzero;stroke:rgb(1,51,25);stroke-width:2.17px;"/>
                    </g>
                    <g transform="matrix(1,0,0,1,113.336,103.31)">
                        <path d="M0,29.227C0,29.227 3.579,24.75 3.579,16.344C3.579,7.945 -0.849,0 -8.683,0" style="fill:none;fill-rule:nonzero;stroke:rgb(1,51,25);stroke-width:2.17px;"/>
                    </g>
                    <g transform="matrix(1,0,0,1,98.9776,150.351)">
                        <path d="M0,-25.027L-0.043,-12.797L-0.135,0" style="fill:none;fill-rule:nonzero;stroke:rgb(1,51,25);stroke-width:2.17px;"/>
                    </g>
                    <g transform="matrix(1,0,0,1,110.145,125.635)">
                        <path d="M0,24.716L0,0" style="fill:none;fill-rule:nonzero;stroke:rgb(1,51,25);stroke-width:2.17px;"/>
                    </g>
                    <g transform="matrix(1,0,0,1,98.9776,133.921)">
                        <path d="M0,-1.574C0,-1.574 1.882,0.154 5.676,0.154C9.476,0.154 11.167,-1.728 11.167,-1.728" style="fill:none;fill-rule:nonzero;stroke:rgb(1,51,25);stroke-width:2.17px;"/>
                    </g>
                    <g transform="matrix(1,0,0,1,86.7638,142.874)">
                        <path d="M0,-3.93L-1.305,5.454C-1.454,6.523 -0.624,7.477 0.456,7.477L12.003,7.477L12.003,-11.407C11.861,-11.297 11.702,-11.204 11.523,-11.137L8.885,-10.135L3.228,-7.988C1.494,-7.324 0.252,-5.768 0,-3.93Z" style="fill:none;fill-rule:nonzero;stroke:rgb(1,51,25);stroke-width:2.17px;"/>
                    </g>
                    <g transform="matrix(1,0,0,1,95.0206,150.409)">
                        <path d="M0,0L19.481,0" style="fill:none;fill-rule:nonzero;stroke:rgb(1,51,25);stroke-width:2.17px;"/>
                    </g>
                    <g transform="matrix(-1,0,0,1,209.195,52.622)">
                        <rect x="76.408" y="102.454" width="56.379" height="9.048" style="fill:rgb(212,216,219);"/>
                    </g>
                    <g transform="matrix(1,0,0,1,85.2125,156.799)">
                        <path d="M0,5.601L-2.014,4.707L-3.892,5.86L-3.665,3.668L-5.341,2.238L-3.187,1.777L-2.344,-0.259L-1.24,1.648L0.957,1.819L-0.516,3.459L0,5.601Z" style="fill:white;fill-rule:nonzero;"/>
                    </g>
                    <g transform="matrix(1,0,0,1,96.0011,156.799)">
                        <path d="M0,5.601L-2.014,4.707L-3.892,5.86L-3.665,3.668L-5.341,2.238L-3.186,1.777L-2.344,-0.259L-1.24,1.648L0.957,1.819L-0.516,3.459L0,5.601Z" style="fill:white;fill-rule:nonzero;"/>
                    </g>
                    <g transform="matrix(1,0,0,1,106.79,156.799)">
                        <path d="M0,5.601L-2.014,4.707L-3.893,5.86L-3.665,3.668L-5.341,2.238L-3.187,1.777L-2.345,-0.259L-1.241,1.648L0.957,1.819L-0.516,3.459L0,5.601Z" style="fill:white;fill-rule:nonzero;"/>
                    </g>
                    <g transform="matrix(1,0,0,1,117.579,156.799)">
                        <path d="M0,5.601L-2.014,4.707L-3.893,5.86L-3.665,3.668L-5.341,2.238L-3.187,1.777L-2.345,-0.259L-1.24,1.648L0.957,1.819L-0.516,3.459L0,5.601Z" style="fill:white;fill-rule:nonzero;"/>
                    </g>
                    <g transform="matrix(1,0,0,1,128.367,156.799)">
                        <path d="M0,5.601L-2.014,4.707L-3.892,5.86L-3.665,3.668L-5.341,2.238L-3.187,1.777L-2.345,-0.259L-1.24,1.648L0.957,1.819L-0.516,3.459L0,5.601Z" style="fill:white;fill-rule:nonzero;"/>
                    </g>
                </g>
            </g>
        </g>
        <g opacity="0.63">
            <g>
                <clipPath id="_clip12">
                    <rect x="168.693" y="96.362" width="75.315" height="102.229" clip-rule="nonzero"/>
                </clipPath>
                <g clip-path="url(#_clip12)">
                    <g transform="matrix(1,0,0,1,239.954,97.3623)">
                        <path d="M0,100.229L-67.206,100.229C-68.894,100.229 -70.261,98.861 -70.261,97.174L-70.261,3.055C-70.261,1.368 -68.894,0 -67.206,0L0,0C1.687,0 3.055,1.368 3.055,3.055L3.055,97.174C3.055,98.861 1.687,100.229 0,100.229Z" style="fill:white;fill-rule:nonzero;stroke:rgb(1,51,25);stroke-width:2.89px;"/>
                    </g>
                    <g opacity="0.23">
                        <g transform="matrix(1,0,0,1,178.432,168.822)">
                            <clipPath id="_clip13">
                                <rect x="-1" y="-1" width="16.899" height="2" clip-rule="nonzero"/>
                            </clipPath>
                            <g clip-path="url(#_clip13)">
                                <path d="M0,0L14.899,0" style="fill:none;fill-rule:nonzero;stroke:rgb(1,51,25);stroke-width:2.89px;"/>
                            </g>
                        </g>
                    </g>
                    <g opacity="0.23">
                        <g transform="matrix(1,0,0,1,198.901,168.822)">
                            <clipPath id="_clip14">
                                <rect x="-1" y="-1" width="16.899" height="2" clip-rule="nonzero"/>
                            </clipPath>
                            <g clip-path="url(#_clip14)">
                                <path d="M0,0L14.899,0" style="fill:none;fill-rule:nonzero;stroke:rgb(1,51,25);stroke-width:2.89px;"/>
                            </g>
                        </g>
                    </g>
                    <g opacity="0.23">
                        <g transform="matrix(1,0,0,1,219.37,168.822)">
                            <clipPath id="_clip15">
                                <rect x="-1" y="-1" width="16.899" height="2" clip-rule="nonzero"/>
                            </clipPath>
                            <g clip-path="url(#_clip15)">
                                <path d="M0,0L14.899,0" style="fill:none;fill-rule:nonzero;stroke:rgb(1,51,25);stroke-width:2.89px;"/>
                            </g>
                        </g>
                    </g>
                    <g opacity="0.23">
                        <g transform="matrix(1,0,0,1,178.432,173.08)">
                            <clipPath id="_clip16">
                                <rect x="-1" y="-1" width="16.899" height="2" clip-rule="nonzero"/>
                            </clipPath>
                            <g clip-path="url(#_clip16)">
                                <path d="M0,0L14.899,0" style="fill:none;fill-rule:nonzero;stroke:rgb(1,51,25);stroke-width:2.89px;"/>
                            </g>
                        </g>
                    </g>
                    <g opacity="0.23">
                        <g transform="matrix(1,0,0,1,178.432,181.946)">
                            <clipPath id="_clip17">
                                <rect x="-1" y="-1" width="27.521" height="2" clip-rule="nonzero"/>
                            </clipPath>
                            <g clip-path="url(#_clip17)">
                                <path d="M0,0L25.521,0" style="fill:none;fill-rule:nonzero;stroke:rgb(1,51,25);stroke-width:2.89px;"/>
                            </g>
                        </g>
                    </g>
                    <g opacity="0.23">
                        <g transform="matrix(1,0,0,1,216.482,181.946)">
                            <clipPath id="_clip18">
                                <rect x="-0.999" y="-1" width="19.787" height="2" clip-rule="nonzero"/>
                            </clipPath>
                            <g clip-path="url(#_clip18)">
                                <path d="M0,0L17.788,0" style="fill:none;fill-rule:nonzero;stroke:rgb(1,51,25);stroke-width:2.89px;"/>
                            </g>
                        </g>
                    </g>
                    <g opacity="0.23">
                        <g transform="matrix(1,0,0,1,178.432,186.145)">
                            <clipPath id="_clip19">
                                <rect x="-1" y="-1" width="10.816" height="2" clip-rule="nonzero"/>
                            </clipPath>
                            <g clip-path="url(#_clip19)">
                                <path d="M0,0L8.816,0" style="fill:none;fill-rule:nonzero;stroke:rgb(1,51,25);stroke-width:2.89px;"/>
                            </g>
                        </g>
                    </g>
                    <g opacity="0.23">
                        <g transform="matrix(1,0,0,1,225.994,186.145)">
                            <clipPath id="_clip20">
                                <rect x="-1" y="-1" width="10.817" height="2" clip-rule="nonzero"/>
                            </clipPath>
                            <g clip-path="url(#_clip20)">
                                <path d="M0,0L8.816,0" style="fill:none;fill-rule:nonzero;stroke:rgb(1,51,25);stroke-width:2.89px;"/>
                            </g>
                        </g>
                    </g>
                    <g opacity="0.23">
                        <g transform="matrix(1,0,0,1,198.901,186.145)">
                            <clipPath id="_clip21">
                                <rect x="-1" y="-1" width="20.895" height="2" clip-rule="nonzero"/>
                            </clipPath>
                            <g clip-path="url(#_clip21)">
                                <path d="M0,0L18.896,0" style="fill:none;fill-rule:nonzero;stroke:rgb(1,51,25);stroke-width:2.89px;"/>
                            </g>
                        </g>
                    </g>
                    <g opacity="0.23">
                        <g transform="matrix(1,0,0,1,219.37,173.08)">
                            <clipPath id="_clip22">
                                <rect x="-1" y="-1" width="16.899" height="2" clip-rule="nonzero"/>
                            </clipPath>
                            <g clip-path="url(#_clip22)">
                                <path d="M0,0L14.899,0" style="fill:none;fill-rule:nonzero;stroke:rgb(1,51,25);stroke-width:2.89px;"/>
                            </g>
                        </g>
                    </g>
                    <g transform="matrix(-1,0,0,1,412.7,-12.613)">
                        <rect x="176.923" y="114.925" width="58.854" height="49.341" style="fill:rgb(212,216,219);"/>
                    </g>
                    <g transform="matrix(-1,0,0,1,413.243,52.622)">
                        <rect x="178.432" y="102.454" width="56.379" height="9.048" style="fill:rgb(212,216,219);"/>
                    </g>
                    <g transform="matrix(1,0,0,1,187.236,156.799)">
                        <path d="M0,5.601L-2.014,4.707L-3.893,5.86L-3.665,3.668L-5.341,2.238L-3.187,1.777L-2.345,-0.259L-1.241,1.648L0.957,1.819L-0.516,3.459L0,5.601Z" style="fill:white;fill-rule:nonzero;"/>
                    </g>
                    <g transform="matrix(1,0,0,1,198.025,156.799)">
                        <path d="M0,5.601L-2.014,4.707L-3.892,5.86L-3.665,3.668L-5.341,2.238L-3.187,1.777L-2.345,-0.259L-1.24,1.648L0.957,1.819L-0.516,3.459L0,5.601Z" style="fill:white;fill-rule:nonzero;"/>
                    </g>
                    <g transform="matrix(1,0,0,1,208.814,156.799)">
                        <path d="M0,5.601L-2.014,4.707L-3.892,5.86L-3.665,3.668L-5.341,2.238L-3.187,1.777L-2.345,-0.259L-1.24,1.648L0.957,1.819L-0.516,3.459L0,5.601Z" style="fill:white;fill-rule:nonzero;"/>
                    </g>
                    <g transform="matrix(1,0,0,1,219.602,156.799)">
                        <path d="M0,5.601L-2.014,4.707L-3.892,5.86L-3.665,3.668L-5.341,2.238L-3.187,1.777L-2.344,-0.259L-1.24,1.648L0.957,1.819L-0.516,3.459L0,5.601Z" style="fill:white;fill-rule:nonzero;"/>
                    </g>
                    <g transform="matrix(1,0,0,1,230.391,156.799)">
                        <path d="M0,5.601L-2.014,4.707L-3.892,5.86L-3.665,3.668L-5.341,2.238L-3.186,1.777L-2.344,-0.259L-1.24,1.648L0.957,1.819L-0.516,3.459L0,5.601Z" style="fill:white;fill-rule:nonzero;"/>
                    </g>
                    <g transform="matrix(1,0,0,1,202.973,131.423)">
                        <path d="M0,-7.661L0,-5.486L4.626,0L9.165,-5.486L9.129,-7.661C9.129,-7.661 7.565,-5.554 4.583,-5.595C1.601,-5.636 0,-7.661 0,-7.661" style="fill:rgb(255,190,157);fill-rule:nonzero;"/>
                    </g>
                    <g transform="matrix(1,0,0,1,207.659,149.288)">
                        <path d="M0,-17.609L-1.843,-15.607L-0.801,-13.339L-2.69,0.123L3.713,0L3.713,-17.732" style="fill:white;fill-rule:nonzero;"/>
                    </g>
                    <g transform="matrix(1,0,0,1,216.547,118.994)">
                        <path d="M0,-3.172C0.068,-2.822 -0.657,-0.114 -1.2,0.241C-1.251,0.275 -1.309,0.309 -1.36,0.338C-0.794,-0.32 -0.206,-2.038 -0.126,-2.908C-0.103,-3.143 -0.137,-3.344 -0.206,-3.51C-0.097,-3.384 -0.017,-3.258 0,-3.172" style="fill:white;fill-rule:nonzero;"/>
                    </g>
                    <g transform="matrix(1,0,0,1,215.456,114.786)">
                        <path d="M0,-0.149C0.04,-0.121 0.103,-0.069 0.177,0C0.068,-0.046 0,-0.069 0,-0.069L0,-0.149Z" style="fill:white;fill-rule:nonzero;"/>
                    </g>
                    <g transform="matrix(1,0,0,1,215.296,112.135)">
                        <path d="M0,1.168C-0.257,1.019 -0.737,0.647 -0.817,0C-0.571,0.487 -0.143,0.974 0,1.168" style="fill:rgb(52,120,247);fill-rule:nonzero;"/>
                    </g>
                    <g transform="matrix(1,0,0,1,227.05,142.133)">
                        <path d="M0,-7.042C0.04,-6.911 0.063,-6.779 0.091,-6.647L0.423,7.003L-4.103,7.187L-16.759,7.187L-18.674,-6.286L-17.565,-8.628L-15.662,-6.796L-12.971,-14.045L-13.063,-14.166L-12.971,-14.229L-6.588,-11.852L-3.223,-10.604C-2,-10.14 -1.006,-9.252 -0.423,-8.119C-0.24,-7.781 -0.097,-7.42 0,-7.042" style="fill:rgb(133,237,165);fill-rule:nonzero;"/>
                    </g>
                    <g transform="matrix(1,0,0,1,212.313,135.319)">
                        <path d="M0,-9.213C0.16,-9.207 0.32,-9.127 0.423,-8.99L1.674,-7.352L1.766,-7.232L-0.925,0.017L-2.828,-1.815L-4.714,-3.636L-0.491,-8.99C-0.371,-9.15 -0.183,-9.23 0,-9.213" style="fill:white;fill-rule:nonzero;"/>
                    </g>
                    <g transform="matrix(1,0,0,1,211.016,123.61)">
                        <path d="M0,1.311C0.468,0.911 0.863,0.464 1.2,0C0.926,0.504 0.686,0.882 0.531,0.979C0.411,1.054 0.229,1.174 0,1.311" style="fill-rule:nonzero;"/>
                    </g>
                    <g transform="matrix(1,0,0,1,211.845,110.217)">
                        <path d="M0,-0.55C-0.64,-0.516 -1.034,-0.264 -1.423,0.04C-1.017,-0.327 -0.657,-0.59 0,-0.55" style="fill:rgb(52,120,247);fill-rule:nonzero;"/>
                    </g>
                    <g transform="matrix(1,0,0,1,207.673,126.312)">
                        <path d="M0,0.138C0.24,0.103 0.474,0.057 0.697,0C0.474,0.08 0.269,0.132 0.103,0.138L0,0.138Z" style="fill-rule:nonzero;"/>
                    </g>
                    <g transform="matrix(1,0,0,1,205.896,110.983)">
                        <path d="M0,-0.062C0.4,0.104 0.771,0.236 1.12,0.327C0.251,0.236 -0.263,-0.068 -0.691,-0.389C-0.497,-0.285 -0.269,-0.177 0,-0.062" style="fill:rgb(52,120,247);fill-rule:nonzero;"/>
                    </g>
                    <g transform="matrix(1,0,0,1,203.193,126.445)">
                        <path d="M0,-2.56C0.966,-1.346 2.349,-0.287 4.309,0C3.246,-0.063 1.292,-0.716 0.029,-2.52C0.017,-2.531 0.012,-2.549 0,-2.56" style="fill-rule:nonzero;"/>
                    </g>
                    <g opacity="0.21">
                        <g transform="matrix(1,0,0,1,212.313,127.343)">
                            <path d="M0,-3.836L0,-2.525L-0.011,-2.536C-0.994,-1.145 -2.497,0.132 -4.714,0.43C-6.937,0.132 -8.428,-1.145 -9.411,-2.536L-9.428,-2.525L-9.428,-3.836L-9.411,-3.848C-9.319,-3.716 -9.222,-3.584 -9.12,-3.458C-9.108,-3.447 -9.103,-3.429 -9.091,-3.418C-7.828,-1.614 -5.874,-0.961 -4.811,-0.898C-4.783,-0.893 -4.748,-0.887 -4.714,-0.881C-4.691,-0.887 -4.668,-0.887 -4.646,-0.893L-4.537,-0.893C-4.371,-0.898 -4.166,-0.95 -3.942,-1.03C-3.925,-1.036 -3.902,-1.042 -3.885,-1.047C-2.851,-1.316 -2,-1.814 -1.297,-2.422C-1.068,-2.559 -0.886,-2.679 -0.766,-2.754C-0.611,-2.851 -0.371,-3.229 -0.097,-3.733C-0.068,-3.773 -0.04,-3.807 -0.011,-3.848L0,-3.836Z" style="fill-rule:nonzero;"/>
                        </g>
                    </g>
                    <g transform="matrix(1,0,0,1,203.382,135.097)">
                        <path d="M0,-8.767L4.217,-3.413L2.332,-1.592L0.423,0.24L-2.257,-7.009L-2.171,-7.129L-0.92,-8.767C-0.811,-8.904 -0.657,-8.984 -0.497,-8.99C-0.314,-9.007 -0.125,-8.933 0,-8.767" style="fill:white;fill-rule:nonzero;"/>
                    </g>
                    <g transform="matrix(1,0,0,1,202.445,110.102)">
                        <path d="M0,-0.304C-0.206,-0.229 -0.4,-0.126 -0.583,0C-0.411,-0.137 -0.217,-0.246 0,-0.304" style="fill:rgb(52,120,247);fill-rule:nonzero;"/>
                    </g>
                    <g transform="matrix(1,0,0,1,204.908,127.904)">
                        <path d="M0,21.416L-16.994,21.416L-16.851,7.582C-16.52,5.772 -15.262,4.272 -13.531,3.625L-3.783,0L-3.697,0.063L-3.783,0.184L-1.103,7.433L0.806,5.601L1.909,7.943L0,21.416Z" style="fill:rgb(133,237,165);fill-rule:nonzero;"/>
                    </g>
                    <g transform="matrix(1,0,0,1,214.467,105.504)">
                        <path d="M0,6.448C0,5.423 -1.171,4.157 -2.451,4.157C-2.508,4.157 -2.56,4.157 -2.611,4.163L-2.623,4.163C-3.28,4.123 -3.64,4.386 -4.045,4.753C-4.051,4.759 -4.062,4.764 -4.074,4.776C-4.691,5.251 -5.297,5.835 -6.868,5.835C-7.08,5.835 -7.274,5.824 -7.451,5.806C-7.8,5.715 -8.171,5.583 -8.571,5.417C-8.84,5.302 -9.068,5.194 -9.263,5.091C-9.268,5.085 -9.274,5.079 -9.28,5.079C-9.868,4.633 -10.297,4.157 -11.285,4.157C-11.502,4.157 -11.714,4.192 -11.919,4.266C-11.954,4.272 -11.988,4.283 -12.022,4.295C-12.24,4.352 -12.434,4.461 -12.605,4.598C-12.611,4.604 -12.617,4.61 -12.623,4.61C-13.279,5.073 -13.731,5.806 -13.731,6.448C-13.731,7.015 -14.034,7.393 -14.302,7.622C-14.308,7.622 -14.314,7.628 -14.319,7.633C-14.537,7.759 -14.725,7.799 -14.725,7.799L-14.725,4.381C-14.725,0.453 -10.737,-1.437 -6.868,-1.197C-3.005,-1.437 0.989,0.453 0.989,4.381L0.989,7.885C0.989,7.885 0.926,7.862 0.834,7.805C0.834,7.805 0.829,7.805 0.829,7.799C0.686,7.605 0.257,7.118 0.012,6.631C0.006,6.574 0,6.511 0,6.448" style="fill:rgb(1,51,25);fill-rule:nonzero;"/>
                    </g>
                    <g transform="matrix(1,0,0,1,214.079,116.504)">
                        <path d="M0,3.109C0,3.109 -0.057,3.24 -0.148,3.458C-0.468,4.202 -1.246,5.978 -1.863,7.106C-2.2,7.569 -2.594,8.016 -3.063,8.417C-3.754,8.852 -4.834,9.493 -5.651,9.791C-5.668,9.797 -5.691,9.802 -5.708,9.808C-5.931,9.865 -6.166,9.911 -6.405,9.946L-6.411,9.946C-6.462,9.946 -6.52,9.946 -6.577,9.94C-8.537,9.654 -9.919,8.594 -10.885,7.38C-12.131,5.571 -12.828,3.252 -12.942,2.868C-12.948,2.828 -12.954,2.811 -12.954,2.811C-12.954,2.811 -13.222,3.269 -13.674,3.097L-13.685,3.097C-13.942,2.994 -14.251,2.576 -14.497,2.141C-14.548,2.049 -14.594,1.946 -14.645,1.843C-14.713,1.683 -14.782,1.511 -14.851,1.339C-14.856,1.311 -14.874,1.276 -14.879,1.242C-14.919,1.07 -15.011,0.83 -15.102,0.567C-15.125,0.475 -15.154,0.378 -15.182,0.286C-15.228,0.08 -15.268,-0.12 -15.285,-0.287C-15.302,-0.516 -15.279,-0.739 -15.188,-0.945C-14.925,-1.529 -14.668,-1.466 -14.479,-1.736C-14.394,-1.77 -14.336,-1.787 -14.336,-1.787L-14.336,-2.073C-14.211,-2.514 -14.279,-2.95 -14.319,-3.121C-14.273,-3.144 -14.114,-3.224 -13.931,-3.368C-13.925,-3.373 -13.919,-3.379 -13.914,-3.379C-13.691,-3.516 -13.451,-3.745 -13.376,-4.118C-13.262,-4.662 -12.942,-5.795 -12.234,-6.391C-12.228,-6.391 -12.222,-6.396 -12.216,-6.402C-12.034,-6.528 -11.839,-6.631 -11.634,-6.706C-11.6,-6.717 -11.565,-6.728 -11.531,-6.734C-11.451,-6.751 -11.365,-6.757 -11.279,-6.763C-10.131,-6.803 -9.839,-6.419 -8.891,-5.921C-8.885,-5.921 -8.879,-5.915 -8.874,-5.91C-8.445,-5.589 -7.931,-5.286 -7.062,-5.194C-6.051,-4.919 -5.245,-4.994 -4.514,-5.515C-4.171,-5.761 -3.919,-6.007 -3.686,-6.224C-3.674,-6.236 -3.663,-6.242 -3.657,-6.247C-3.268,-6.551 -2.874,-6.803 -2.234,-6.837L-2.223,-6.837C-2.183,-6.837 -2.137,-6.837 -2.091,-6.832C-0.914,-6.7 0.223,-5.6 0.223,-4.976C0.223,-4.787 0.297,-4.581 0.4,-4.37C0.48,-3.723 0.96,-3.35 1.217,-3.202C1.217,-3.196 1.223,-3.196 1.223,-3.196C1.423,-2.904 1.332,-1.907 1.332,-1.907C1.332,-1.907 1.349,-1.896 1.377,-1.867L1.377,-1.787C1.377,-1.787 1.446,-1.764 1.554,-1.718C1.76,-1.541 2.057,-1.266 2.257,-1.025L2.263,-1.02C2.332,-0.854 2.366,-0.653 2.343,-0.418C2.263,0.452 1.674,2.17 1.109,2.828C0.926,2.942 0.731,3.04 0.566,3.109L0.56,3.109C0.257,3.229 0.023,3.263 0,3.109" style="fill:rgb(255,190,157);fill-rule:nonzero;"/>
                    </g>
                    <g transform="matrix(1,0,0,1,200.148,113.384)">
                        <path d="M0,-0.247C-0.183,-0.104 -0.343,-0.023 -0.389,0C-0.4,-0.052 -0.406,-0.081 -0.406,-0.081C-0.406,-0.081 -0.217,-0.121 0,-0.247" style="fill:rgb(52,120,247);fill-rule:nonzero;"/>
                    </g>
                    <g transform="matrix(1,0,0,1,199.759,113.307)">
                        <path d="M0,0.076C-0.011,0.081 -0.017,0.081 -0.017,0.081L-0.017,-0.005C-0.017,-0.005 -0.011,0.024 0,0.076" style="fill:rgb(52,120,247);fill-rule:nonzero;"/>
                    </g>
                    <g transform="matrix(0,1,1,0,199.839,114.671)">
                        <path d="M-0.24,-0.097L0.046,-0.097C0.046,-0.097 0.063,-0.154 0.097,-0.24C0.034,-0.194 -0.046,-0.154 -0.16,-0.12C-0.189,-0.108 -0.212,-0.103 -0.24,-0.097" style="fill:white;fill-rule:nonzero;"/>
                    </g>
                    <g transform="matrix(1,0,0,1,199.228,118.348)">
                        <path d="M0,-0.504C0.068,-0.332 0.137,-0.16 0.206,0C0.114,-0.189 0.04,-0.367 0,-0.504" style="fill:white;fill-rule:nonzero;"/>
                    </g>
                    <g transform="matrix(1,0,0,1,198.793,116.79)">
                        <path d="M0,-0.573C0.017,-0.406 0.057,-0.206 0.103,0C0.052,-0.189 0.012,-0.384 0,-0.573" style="fill:white;fill-rule:nonzero;"/>
                    </g>
                    <g transform="matrix(1,0,0,1,202.885,123.506)">
                        <path d="M0,2.6L0,0" style="fill:none;fill-rule:nonzero;stroke:rgb(1,51,25);stroke-width:2.17px;"/>
                    </g>
                    <g transform="matrix(1,0,0,1,192.959,149.319)">
                        <path d="M0,-10.833L0,0" style="fill:none;fill-rule:nonzero;stroke:rgb(1,51,25);stroke-width:2.17px;"/>
                    </g>
                    <g transform="matrix(1,0,0,1,205.713,135.846)">
                        <path d="M0,-2.342L1.103,0L1.886,0" style="fill:none;fill-rule:nonzero;stroke:rgb(1,51,25);stroke-width:2.17px;"/>
                    </g>
                    <g transform="matrix(1,0,0,1,206.816,149.32)">
                        <path d="M0,-13.473L-1.909,0L-1.217,-4.998" style="fill:none;fill-rule:nonzero;stroke:rgb(1,51,25);stroke-width:2.17px;"/>
                    </g>
                    <g transform="matrix(1,0,0,1,212.313,135.319)">
                        <path d="M0,-9.213C0.16,-9.207 0.32,-9.127 0.423,-8.99L1.674,-7.352L1.766,-7.232L-0.925,0.017L-2.828,-1.815L-4.714,-3.636L-0.491,-8.99C-0.371,-9.15 -0.183,-9.23 0,-9.213Z" style="fill:none;fill-rule:nonzero;stroke:rgb(1,51,25);stroke-width:2.17px;"/>
                    </g>
                    <g transform="matrix(1,0,0,1,212.313,123.506)">
                        <path d="M0,2.6L0,0" style="fill:none;fill-rule:nonzero;stroke:rgb(1,51,25);stroke-width:2.17px;"/>
                    </g>
                    <g transform="matrix(1,0,0,1,214.079,126.461)">
                        <path d="M0,-7.146C0,-7.146 -0.04,-6.9 -0.148,-6.499C-0.366,-5.703 -0.846,-4.283 -1.777,-2.966C-1.806,-2.926 -1.834,-2.892 -1.863,-2.852C-2.2,-2.388 -2.594,-1.941 -3.063,-1.541C-3.766,-0.933 -4.617,-0.435 -5.651,-0.166C-5.668,-0.16 -5.691,-0.155 -5.708,-0.149C-5.931,-0.092 -6.166,-0.046 -6.405,-0.011L-6.411,-0.011C-6.434,-0.006 -6.457,-0.006 -6.479,0C-6.514,-0.006 -6.548,-0.011 -6.577,-0.017C-8.537,-0.303 -9.919,-1.363 -10.885,-2.577C-10.988,-2.703 -11.085,-2.834 -11.177,-2.966C-12.445,-4.752 -12.874,-6.734 -12.942,-7.089C-12.948,-7.129 -12.954,-7.146 -12.954,-7.146" style="fill:none;fill-rule:nonzero;stroke:rgb(1,51,25);stroke-width:2.17px;"/>
                    </g>
                    <g transform="matrix(1,0,0,1,213.959,104.816)">
                        <path d="M0,14.081C0,14.081 0.045,14.275 0.171,14.459C0.274,14.613 0.44,14.774 0.68,14.797L0.686,14.797C0.731,14.797 0.783,14.791 0.84,14.785C0.965,14.768 1.091,14.671 1.229,14.516C1.794,13.857 2.383,12.14 2.462,11.269C2.485,11.035 2.451,10.834 2.383,10.668L2.377,10.663C2.217,10.279 1.88,10.067 1.674,9.97C1.565,9.924 1.497,9.901 1.497,9.901L1.497,5.068C1.497,1.14 -2.497,-0.75 -6.36,-0.509C-10.229,-0.75 -14.217,1.14 -14.217,5.068L-14.217,9.901C-14.217,9.901 -14.274,9.918 -14.36,9.952C-14.646,10.084 -15.257,10.451 -15.183,11.269C-15.177,11.31 -15.177,11.355 -15.166,11.401C-15.148,11.567 -15.108,11.768 -15.063,11.974C-15.034,12.065 -15.005,12.163 -14.982,12.254C-14.919,12.477 -14.845,12.706 -14.76,12.93C-14.754,12.964 -14.737,12.998 -14.731,13.027C-14.663,13.199 -14.594,13.371 -14.525,13.531C-14.474,13.634 -14.428,13.737 -14.377,13.829C-14.114,14.356 -13.823,14.751 -13.565,14.785L-13.554,14.785C-13.223,14.831 -13.011,14.648 -12.885,14.459C-12.76,14.275 -12.714,14.081 -12.714,14.081" style="fill:none;fill-rule:nonzero;stroke:rgb(1,51,25);stroke-width:2.17px;"/>
                    </g>
                    <g transform="matrix(1,0,0,1,209.485,135.846)">
                        <path d="M0,-2.342L-1.109,0L-1.886,0" style="fill:none;fill-rule:nonzero;stroke:rgb(1,51,25);stroke-width:2.17px;"/>
                    </g>
                    <g transform="matrix(1,0,0,1,208.376,149.32)">
                        <path d="M0,-13.473L1.915,0L1.223,-4.998" style="fill:none;fill-rule:nonzero;stroke:rgb(1,51,25);stroke-width:2.17px;"/>
                    </g>
                    <g transform="matrix(1,0,0,1,215.456,109.661)">
                        <path d="M0,3.728C0,3.728 -0.063,3.705 -0.154,3.648C-0.154,3.648 -0.16,3.648 -0.16,3.642C-0.417,3.493 -0.897,3.121 -0.977,2.474C-0.983,2.417 -0.989,2.354 -0.989,2.291C-0.989,1.266 -2.16,0 -3.44,0C-3.497,0 -3.549,0 -3.6,0.006L-3.611,0.006C-4.251,0.04 -4.646,0.292 -5.034,0.596C-5.04,0.602 -5.051,0.607 -5.063,0.619C-5.68,1.094 -6.286,1.678 -7.857,1.678C-8.068,1.678 -8.263,1.667 -8.44,1.649C-9.309,1.558 -9.823,1.254 -10.251,0.934C-10.257,0.928 -10.263,0.922 -10.269,0.922C-10.857,0.476 -11.286,0 -12.274,0C-12.491,0 -12.703,0.035 -12.908,0.109C-12.942,0.115 -12.977,0.126 -13.011,0.138C-13.217,0.212 -13.411,0.315 -13.594,0.441C-13.6,0.447 -13.605,0.453 -13.611,0.453C-14.268,0.916 -14.72,1.649 -14.72,2.291C-14.72,2.858 -15.022,3.236 -15.291,3.465C-15.297,3.465 -15.303,3.471 -15.308,3.476C-15.491,3.619 -15.651,3.7 -15.697,3.723C-15.708,3.728 -15.714,3.728 -15.714,3.728" style="fill:none;fill-rule:nonzero;stroke:rgb(1,51,25);stroke-width:2.17px;"/>
                    </g>
                    <g transform="matrix(0,-1,-1,0,225.447,146.82)">
                        <path d="M-2.5,2.5L2.5,2.5" style="fill:none;fill-rule:nonzero;stroke:rgb(1,51,25);stroke-width:2.17px;"/>
                    </g>
                    <g transform="matrix(0,1,1,0,225.911,141.358)">
                        <path d="M-2.963,-2.963L2.963,-2.963" style="fill:none;fill-rule:nonzero;stroke:rgb(1,51,25);stroke-width:2.17px;"/>
                    </g>
                    <g transform="matrix(-1,0,0,1,434.918,19.728)">
                        <rect x="213.83" y="122.516" width="7.258" height="1.818" style="fill:white;"/>
                    </g>
                    <g transform="matrix(1,0,0,1,201.023,148.975)">
                        <path d="M0,-19.959C0,-19.959 -8.361,-16.285 -9.704,-13.927C-11.047,-11.568 -10.669,-6.472 -10.764,-4.113C-10.858,-1.754 -10.97,0.637 -10.97,0.637L-13.447,0.634L-13.093,-12.84C-13.093,-12.84 -12.435,-16.089 -10.758,-16.791C-9.081,-17.493 -1.242,-20.408 -1.242,-20.408L-0.372,-20.596L-0.036,-20.056L0,-19.959Z" style="fill:rgb(0,204,102);fill-rule:nonzero;"/>
                    </g>
                    <g transform="matrix(1,0,0,1,201.125,149.323)">
                        <path d="M0,-21.419L-9.748,-17.794C-11.479,-17.147 -12.737,-15.647 -13.068,-13.837L-13.205,-5.272L-13.211,-0.003L21.822,-0.003L26.547,0L26.256,-5.268L26.016,-13.837C25.988,-13.969 25.965,-14.101 25.925,-14.232C25.828,-14.61 25.685,-14.971 25.502,-15.309C24.919,-16.443 23.925,-17.331 22.702,-17.794L19.336,-19.043L12.954,-21.419" style="fill:none;fill-rule:nonzero;stroke:rgb(1,51,25);stroke-width:2.17px;"/>
                    </g>
                    <g transform="matrix(1,0,0,1,202.885,135.319)">
                        <path d="M0,-9.213C-0.16,-9.207 -0.314,-9.127 -0.423,-8.99L-1.674,-7.352L-1.76,-7.232L0.92,0.017L2.829,-1.815L4.714,-3.636L0.497,-8.99C0.372,-9.156 0.183,-9.23 0,-9.213Z" style="fill:none;fill-rule:nonzero;stroke:rgb(1,51,25);stroke-width:2.17px;"/>
                    </g>
                </g>
            </g>
        </g>
        <g transform="matrix(1,0,0,1,195.284,79.8456)">
            <path d="M0,124.858L-83.721,124.858C-85.822,124.858 -87.526,123.154 -87.526,121.052L-87.526,3.805C-87.526,1.703 -85.822,0 -83.721,0L0,0C2.102,0 3.806,1.703 3.806,3.805L3.806,121.052C3.806,123.154 2.102,124.858 0,124.858Z" style="fill:white;fill-rule:nonzero;stroke:rgb(1,51,25);stroke-width:2.89px;"/>
        </g>
        <g transform="matrix(1,0,0,1,51.2227,214.567)">
            <path d="M0,0L206.654,0" style="fill:none;fill-rule:nonzero;stroke:rgb(1,51,25);stroke-width:2.89px;"/>
        </g>
        <g opacity="0.23">
            <g transform="matrix(1,0,0,1,118.644,168.864)">
                <clipPath id="_clip23">
                    <rect x="-1" y="-1" width="20.56" height="2" clip-rule="nonzero"/>
                </clipPath>
                <g clip-path="url(#_clip23)">
                    <path d="M0,0L18.561,0" style="fill:none;fill-rule:nonzero;stroke:rgb(1,51,25);stroke-width:2.89px;"/>
                </g>
            </g>
        </g>
        <g opacity="0.23">
            <g transform="matrix(1,0,0,1,144.143,168.864)">
                <clipPath id="_clip24">
                    <rect x="-1" y="-1" width="20.561" height="2" clip-rule="nonzero"/>
                </clipPath>
                <g clip-path="url(#_clip24)">
                    <path d="M0,0L18.561,0" style="fill:none;fill-rule:nonzero;stroke:rgb(1,51,25);stroke-width:2.89px;"/>
                </g>
            </g>
        </g>
        <g opacity="0.23">
            <g transform="matrix(1,0,0,1,169.642,168.864)">
                <clipPath id="_clip25">
                    <rect x="-1" y="-1" width="20.561" height="2" clip-rule="nonzero"/>
                </clipPath>
                <g clip-path="url(#_clip25)">
                    <path d="M0,0L18.561,0" style="fill:none;fill-rule:nonzero;stroke:rgb(1,51,25);stroke-width:2.89px;"/>
                </g>
            </g>
        </g>
        <g opacity="0.23">
            <g transform="matrix(1,0,0,1,118.644,174.169)">
                <clipPath id="_clip26">
                    <rect x="-1" y="-1" width="20.56" height="2" clip-rule="nonzero"/>
                </clipPath>
                <g clip-path="url(#_clip26)">
                    <path d="M0,0L18.561,0" style="fill:none;fill-rule:nonzero;stroke:rgb(1,51,25);stroke-width:2.89px;"/>
                </g>
            </g>
        </g>
        <g opacity="0.23">
            <g transform="matrix(1,0,0,1,118.644,185.213)">
                <clipPath id="_clip27">
                    <rect x="-1" y="-1" width="33.793" height="2" clip-rule="nonzero"/>
                </clipPath>
                <g clip-path="url(#_clip27)">
                    <path d="M0,0L31.792,0" style="fill:none;fill-rule:nonzero;stroke:rgb(1,51,25);stroke-width:2.89px;"/>
                </g>
            </g>
        </g>
        <g opacity="0.23">
            <g transform="matrix(1,0,0,1,166.044,185.213)">
                <clipPath id="_clip28">
                    <rect x="-1" y="-1" width="24.159" height="2" clip-rule="nonzero"/>
                </clipPath>
                <g clip-path="url(#_clip28)">
                    <path d="M0,0L22.159,0" style="fill:none;fill-rule:nonzero;stroke:rgb(1,51,25);stroke-width:2.89px;"/>
                </g>
            </g>
        </g>
        <g opacity="0.23">
            <g transform="matrix(1,0,0,1,118.644,190.445)">
                <clipPath id="_clip29">
                    <rect x="-1" y="-1" width="12.983" height="2" clip-rule="nonzero"/>
                </clipPath>
                <g clip-path="url(#_clip29)">
                    <path d="M0,0L10.983,0" style="fill:none;fill-rule:nonzero;stroke:rgb(1,51,25);stroke-width:2.89px;"/>
                </g>
            </g>
        </g>
        <g opacity="0.23">
            <g transform="matrix(1,0,0,1,177.894,190.445)">
                <clipPath id="_clip30">
                    <rect x="-1" y="-1" width="12.983" height="2" clip-rule="nonzero"/>
                </clipPath>
                <g clip-path="url(#_clip30)">
                    <path d="M0,0L10.983,0" style="fill:none;fill-rule:nonzero;stroke:rgb(1,51,25);stroke-width:2.89px;"/>
                </g>
            </g>
        </g>
        <g opacity="0.23">
            <g transform="matrix(1,0,0,1,144.143,190.445)">
                <clipPath id="_clip31">
                    <rect x="-1" y="-1" width="25.539" height="2" clip-rule="nonzero"/>
                </clipPath>
                <g clip-path="url(#_clip31)">
                    <path d="M0,0L23.539,0" style="fill:none;fill-rule:nonzero;stroke:rgb(1,51,25);stroke-width:2.89px;"/>
                </g>
            </g>
        </g>
        <g opacity="0.23">
            <g transform="matrix(1,0,0,1,169.642,174.169)">
                <clipPath id="_clip32">
                    <rect x="-1" y="-1" width="20.561" height="2" clip-rule="nonzero"/>
                </clipPath>
                <g clip-path="url(#_clip32)">
                    <path d="M0,0L18.561,0" style="fill:none;fill-rule:nonzero;stroke:rgb(1,51,25);stroke-width:2.89px;"/>
                </g>
            </g>
        </g>
        <g transform="matrix(-1,0,0,1,306.847,-33.09)">
            <rect x="116.766" y="119.101" width="73.315" height="61.466" style="fill:rgb(212,216,219);"/>
        </g>
        <g opacity="0.15">
            <g transform="matrix(1,0,0,1,164.03,141.6)">
                <path d="M0,-19.939C7.498,-15.599 14.995,-16.684 14.995,-5.835L14.995,0L-32.131,0L-32.131,-5.835C-32.131,-16.684 -24.633,-15.599 -17.136,-19.939L0,-19.939Z" style="fill-rule:nonzero;"/>
            </g>
            <g transform="matrix(1,0,0,1,159.746,114.066)">
                <path d="M0,11.935L-4.284,9.765L-8.568,11.935L-12.852,7.595L-10.71,4.34L-9.639,4.34L-9.639,0L-4.284,1.085L1.071,0L1.071,4.34L2.142,4.34L4.284,7.595L0,11.935Z" style="fill-rule:nonzero;"/>
            </g>
            <g transform="matrix(1,0,0,1,164.03,141.6)">
                <path d="M0,-19.939C7.498,-15.599 14.995,-16.684 14.995,-5.835L14.995,0L-32.131,0L-32.131,-5.835C-32.131,-16.684 -24.633,-15.599 -17.136,-19.939" style="fill-rule:nonzero;"/>
            </g>
            <g transform="matrix(1,0,0,1,159.746,118.406)">
                <path d="M0,7.595L-4.284,5.425L-8.568,7.595L-12.852,3.255L-10.71,0L-4.284,1.085L2.142,0L4.284,3.255L0,7.595Z" style="fill-rule:nonzero;"/>
            </g>
            <g transform="matrix(1,0,0,1,165.102,112.981)">
                <path d="M0,-13.019L0,-8.679C-1.071,-1.085 -4.284,1.085 -4.284,1.085C-6.426,2.17 -9.639,2.17 -9.639,2.17C-9.639,2.17 -12.853,2.17 -14.995,1.085C-14.995,1.085 -18.208,-1.085 -19.279,-8.679L-19.279,-13.019L-14.995,-15.189L-4.284,-10.849L0,-13.019Z" style="fill-rule:nonzero;"/>
            </g>
            <g transform="matrix(1,0,0,1,145.823,92.3674)">
                <path d="M0,7.595C0,1.004 3.133,-2.17 9.64,-2.17C16.146,-2.17 19.279,1.004 19.279,7.595L14.995,9.765L9.64,7.595L4.284,5.425L0,7.595Z" style="fill-rule:nonzero;"/>
            </g>
            <g transform="matrix(1,0,0,1,165.102,115.151)">
                <path d="M0,-15.189L0,-10.849C-1.071,-3.255 -4.284,-1.085 -4.284,-1.085C-6.426,0 -9.639,0 -9.639,0C-9.639,0 -12.853,0 -14.995,-1.085C-14.995,-1.085 -18.208,-3.255 -19.279,-10.849L-19.279,-15.189" style="fill-rule:nonzero;"/>
            </g>
            <g transform="matrix(1,0,0,1,145.823,90.1974)">
                <path d="M0,9.765C0,3.174 3.133,0 9.64,0C16.146,0 19.279,3.174 19.279,9.765" style="fill-rule:nonzero;"/>
            </g>
            <g transform="matrix(0.892083,-0.451872,-0.451872,-0.892083,146.863,104.318)">
                <path d="M1.04,4.356L5.843,4.356L9.64,-0L13.436,-4.356L18.239,-4.356" style="fill-rule:nonzero;"/>
            </g>
        </g>
        <g transform="matrix(1,0,0,1,162.457,141.6)">
            <path d="M0,-19.683C7.497,-15.399 14.994,-16.47 14.994,-5.76L14.994,0L-32.131,0L-32.131,-5.76C-32.131,-16.47 -24.634,-15.399 -17.137,-19.683L0,-19.683Z" style="fill:rgb(23,169,230);fill-rule:nonzero;"/>
        </g>
        <g opacity="0.36">
            <g transform="matrix(1,0,0,1,149.689,141.601)">
                <path d="M0,-19.682C-7.498,-15.4 -14.996,-16.471 -14.996,-5.762L-14.996,0L-19.365,0L-19.365,-5.762C-19.365,-16.471 -11.867,-15.4 -4.369,-19.682L0,-19.682Z" style="fill:white;fill-rule:nonzero;"/>
            </g>
        </g>
        <g transform="matrix(0,-1,-1,0,155.657,110.86)">
            <path d="M-6.831,-3.587L-3.56,-3.587L-4.63,1.768L-3.617,6.831C-6.281,4.085 -6.858,0.209 -6.831,-3.587" style="fill:rgb(209,165,132);fill-rule:nonzero;"/>
        </g>
        <g transform="matrix(1,0,0,1,148.826,119.573)">
            <path d="M0,-5.095L-0.293,-5.154L-0.293,-1.218C-0.284,-1.214 -0.276,-1.214 -0.267,-1.208C0.376,-0.801 1.345,-0.754 2.078,-0.648C2.93,-0.524 3.775,-0.358 4.626,-0.23C6.551,0.059 8.591,-0.515 10.417,-1.159L10.417,-1.882C6.621,-1.855 2.745,-2.432 0,-5.095" style="fill:rgb(232,193,160);fill-rule:nonzero;"/>
        </g>
        <g transform="matrix(1,0,0,1,160.314,126.201)">
            <path d="M0,-7.497L-0.542,-7.497C-0.571,-7.449 -0.612,-7.407 -0.677,-7.384C-2.501,-6.727 -4.604,-6.074 -6.562,-6.301C-7.7,-6.434 -8.834,-6.671 -9.968,-6.839C-10.626,-6.937 -11.439,-7.029 -12.014,-7.393C-12.059,-7.422 -12.085,-7.458 -12.104,-7.497L-12.853,-7.497L-14.995,-4.284L-10.71,0L-6.426,-2.142L-2.142,0L2.142,-4.284L0,-7.497Z" style="fill:white;fill-rule:nonzero;"/>
        </g>
        <g transform="matrix(1,0,0,1,162.457,141.6)">
            <path d="M0,-19.683C7.497,-15.399 14.994,-16.47 14.994,-5.76L14.994,0L-32.131,0L-32.131,-5.76C-32.131,-16.47 -24.634,-15.399 -17.137,-19.683" style="fill:none;fill-rule:nonzero;stroke:rgb(1,51,25);stroke-width:2.17px;"/>
        </g>
        <g transform="matrix(1,0,0,1,158.172,118.704)">
            <path d="M0,7.497L-4.284,5.355L-8.568,7.497L-12.853,3.213L-10.71,0L-4.284,1.071L2.142,0L4.284,3.213L0,7.497Z" style="fill:none;fill-rule:nonzero;stroke:rgb(1,51,25);stroke-width:2.17px;"/>
        </g>
        <g transform="matrix(0,1,1,0,161.385,116.561)">
            <path d="M-2.142,-2.142L2.142,-2.142" style="fill:none;fill-rule:nonzero;stroke:rgb(1,51,25);stroke-width:2.17px;"/>
        </g>
        <g transform="matrix(1,0,0,1,163.527,113.349)">
            <path d="M0,-12.853L0,-8.569C-1.071,-1.072 -4.284,1.07 -4.284,1.07C-6.426,2.142 -9.639,2.142 -9.639,2.142C-9.639,2.142 -12.853,2.142 -14.994,1.07C-14.994,1.07 -18.208,-1.072 -19.278,-8.569L-19.278,-12.853L-14.994,-14.995L-4.284,-10.711L0,-12.853Z" style="fill:rgb(232,193,160);fill-rule:nonzero;"/>
        </g>
        <g transform="matrix(1,0,0,1,144.249,92.9991)">
            <path d="M0,7.497C0,0.99 3.132,-2.142 9.639,-2.142C16.146,-2.142 19.278,0.99 19.278,7.497L14.994,9.639L4.284,5.355L0,7.497Z" style="fill:rgb(1,51,25);fill-rule:nonzero;"/>
        </g>
        <g transform="matrix(1,0,0,1,163.527,115.491)">
            <path d="M0,-14.995L0,-10.711C-1.071,-3.214 -4.284,-1.072 -4.284,-1.072C-6.426,0 -9.639,0 -9.639,0C-9.639,0 -12.853,0 -14.994,-1.072C-14.994,-1.072 -18.208,-3.214 -19.278,-10.711L-19.278,-14.995" style="fill:none;fill-rule:nonzero;stroke:rgb(1,51,25);stroke-width:2.17px;"/>
        </g>
        <g transform="matrix(1,0,0,1,144.249,90.8571)">
            <path d="M0,9.639C0,3.132 3.132,0 9.639,0C16.146,0 19.278,3.132 19.278,9.639" style="fill:none;fill-rule:nonzero;stroke:rgb(1,51,25);stroke-width:2.17px;"/>
        </g>
        <g transform="matrix(0.894427,-0.447214,-0.447214,-0.894427,145.267,104.807)">
            <path d="M1.018,4.311L5.807,4.311L13.471,-4.311L18.26,-4.311" style="fill:none;fill-rule:nonzero;stroke:rgb(1,51,25);stroke-width:2.17px;"/>
        </g>
        <g transform="matrix(0,1,1,0,172.027,137.287)">
            <path d="M-4.311,-4.311L4.311,-4.311" style="fill:none;fill-rule:nonzero;stroke:rgb(1,51,25);stroke-width:2.17px;"/>
        </g>
        <g transform="matrix(0,-1,-1,0,153.888,126.949)">
            <path d="M-1.161,-1.161C-1.802,-1.161 -2.322,-0.641 -2.322,0C-2.322,0.641 -1.802,1.161 -1.161,1.161C-0.52,1.161 0,0.641 0,0C0,-0.641 -0.52,-1.161 -1.161,-1.161" style="fill:white;fill-rule:nonzero;"/>
        </g>
        <g transform="matrix(0,-1,-1,0,153.888,130.51)">
            <path d="M-1.161,-1.161C-1.802,-1.161 -2.322,-0.641 -2.322,0C-2.322,0.641 -1.802,1.161 -1.161,1.161C-0.52,1.161 0,0.641 0,0C0,-0.641 -0.52,-1.161 -1.161,-1.161" style="fill:white;fill-rule:nonzero;"/>
        </g>
        <g transform="matrix(0,-1,-1,0,153.888,134.071)">
            <path d="M-1.161,-1.161C-1.802,-1.161 -2.322,-0.641 -2.322,0C-2.322,0.641 -1.802,1.161 -1.161,1.161C-0.52,1.161 0,0.641 0,0C0,-0.641 -0.52,-1.161 -1.161,-1.161" style="fill:white;fill-rule:nonzero;"/>
        </g>
        <g transform="matrix(0,-1,-1,0,150.675,116.562)">
            <path d="M-2.142,2.142L2.142,2.142" style="fill:none;fill-rule:nonzero;stroke:rgb(1,51,25);stroke-width:2.17px;"/>
        </g>
        <g transform="matrix(0,1,1,0,145.319,137.287)">
            <path d="M-4.311,-4.311L4.311,-4.311" style="fill:none;fill-rule:nonzero;stroke:rgb(1,51,25);stroke-width:2.17px;"/>
        </g>
        <g transform="matrix(-1,0,0,1,307.521,48.174)">
            <rect x="118.644" y="103.566" width="70.233" height="11.272" style="fill:rgb(212,216,219);"/>
        </g>
        <g transform="matrix(1,0,0,1,129.612,153.887)">
            <path d="M0,6.978L-2.509,5.865L-4.849,7.3L-4.565,4.57L-6.653,2.789L-3.969,2.214L-2.92,-0.322L-1.545,2.053L1.192,2.267L-0.643,4.309L0,6.978Z" style="fill:white;fill-rule:nonzero;"/>
        </g>
        <g transform="matrix(1,0,0,1,143.052,153.887)">
            <path d="M0,6.978L-2.509,5.865L-4.849,7.3L-4.565,4.57L-6.654,2.789L-3.969,2.214L-2.92,-0.322L-1.545,2.053L1.191,2.267L-0.643,4.309L0,6.978Z" style="fill:white;fill-rule:nonzero;"/>
        </g>
        <g transform="matrix(1,0,0,1,156.492,153.887)">
            <path d="M0,6.978L-2.509,5.865L-4.849,7.3L-4.565,4.57L-6.654,2.789L-3.97,2.214L-2.921,-0.322L-1.545,2.053L1.191,2.267L-0.643,4.309L0,6.978Z" style="fill:white;fill-rule:nonzero;"/>
        </g>
        <g transform="matrix(1,0,0,1,169.931,153.887)">
            <path d="M0,6.978L-2.509,5.865L-4.849,7.3L-4.565,4.57L-6.653,2.789L-3.969,2.214L-2.92,-0.322L-1.545,2.053L1.192,2.267L-0.643,4.309L0,6.978Z" style="fill:white;fill-rule:nonzero;"/>
        </g>
        <g transform="matrix(1,0,0,1,183.371,153.887)">
            <path d="M0,6.978L-2.509,5.865L-4.849,7.3L-4.565,4.57L-6.654,2.789L-3.969,2.214L-2.92,-0.322L-1.545,2.053L1.191,2.267L-0.643,4.309L0,6.978Z" style="fill:white;fill-rule:nonzero;"/>
        </g>
        <g opacity="0.15">
            <g transform="matrix(-1,0,0,1,211.275,28.375)">
                <rect x="103.518" y="68.987" width="4.239" height="100.229" style="fill:rgb(1,51,25);"/>
            </g>
        </g>
        <g opacity="0.15">
            <g transform="matrix(1,0,0,-1,0,266.578)">
                <rect x="199.743" y="68.987" width="4.239" height="100.229" style="fill:rgb(1,51,25);"/>
            </g>
        </g>
        <g opacity="0.22">
            <g transform="matrix(-0.0394687,-0.999221,-0.999221,0.0394687,151.269,83.4681)">
                <path d="M-43.671,-45.431C-67.809,-45.431 -87.377,-25.864 -87.376,-1.726C-87.377,22.412 -67.809,41.98 -43.671,41.98C-19.533,41.98 0.035,22.413 0.034,-1.726C0.034,-25.864 -19.533,-45.431 -43.671,-45.431" style="fill:white;fill-rule:nonzero;"/>
            </g>
        </g>
        <g transform="matrix(1,0,0,1,188.801,197.253)">
            <path d="M0,-20.522L31.669,12.935C32.995,14.335 35.205,14.396 36.606,13.07L45.199,4.936C46.599,3.611 46.66,1.4 45.334,0L13.665,-33.457C12.339,-34.857 10.129,-34.918 8.729,-33.592L0.135,-25.459C-1.265,-24.133 -1.326,-21.923 0,-20.522Z" style="fill:rgb(0,204,102);fill-rule:nonzero;stroke:rgb(1,51,25);stroke-width:2.89px;"/>
        </g>
        <g transform="matrix(-0.687417,-0.726263,-0.726263,0.687417,194.557,157.142)">
            <rect x="-6.779" y="2.917" width="12.614" height="10.641" style="fill:rgb(134,132,136);"/>
        </g>
        <g transform="matrix(-0.687417,-0.726263,-0.726263,0.687417,194.557,157.142)">
            <rect x="-6.779" y="2.917" width="12.614" height="10.641" style="fill:rgb(1,51,25);"/>
        </g>
        <g transform="matrix(1,0,0,1,154.717,174.6)">
            <path d="M0,-95.125C-26.268,-95.125 -47.562,-73.831 -47.562,-47.562C-47.562,-21.294 -26.268,0 0,0C26.268,0 47.563,-21.294 47.563,-47.562C47.563,-73.831 26.268,-95.125 0,-95.125M39.472,-47.562C39.472,-25.763 21.8,-8.09 0,-8.09C-21.8,-8.09 -39.472,-25.763 -39.472,-47.562C-39.472,-69.362 -21.8,-87.035 0,-87.035C21.8,-87.035 39.472,-69.362 39.472,-47.562" style="fill:rgb(0,204,102);fill-rule:nonzero;"/>
        </g>
        <g transform="matrix(1,0,0,1,154.717,174.6)">
            <path d="M0,-95.125C-26.268,-95.125 -47.562,-73.831 -47.562,-47.562C-47.562,-21.294 -26.268,0 0,0C26.268,0 47.563,-21.294 47.563,-47.562C47.563,-73.831 26.268,-95.125 0,-95.125ZM39.472,-47.562C39.472,-25.763 21.8,-8.09 0,-8.09C-21.8,-8.09 -39.472,-25.763 -39.472,-47.562C-39.472,-69.362 -21.8,-87.035 0,-87.035C21.8,-87.035 39.472,-69.362 39.472,-47.562Z" style="fill:none;fill-rule:nonzero;stroke:rgb(1,51,25);stroke-width:2.89px;"/>
        </g>
    </g>
</svg>
