<?xml version="1.0" encoding="UTF-8" standalone="no"?>
<!DOCTYPE svg PUBLIC "-//W3C//DTD SVG 1.1//EN" "http://www.w3.org/Graphics/SVG/1.1/DTD/svg11.dtd">
<svg width="100%" height="100%" viewBox="0 0 100 100" version="1.1" xmlns="http://www.w3.org/2000/svg" xmlns:xlink="http://www.w3.org/1999/xlink" xml:space="preserve" xmlns:serif="http://www.serif.com/" style="fill-rule:evenodd;clip-rule:evenodd;stroke-linejoin:round;stroke-miterlimit:2;">
    <g transform="matrix(0.190142,0,0,0.190142,40.7336,42.6986)">
        <g transform="matrix(4.16667,0,0,4.16667,-344.152,-293.618)">
            <rect x="83.905" y="94.255" width="21.303" height="11.207" style="fill:rgb(236,183,158);fill-rule:nonzero;"/>
        </g>
        <g transform="matrix(4.16667,0,0,4.16667,-344.152,-293.618)">
            <path d="M89.55,102.853L83.905,99.888L83.905,94.255L105.208,94.255L105.208,94.653C104.95,95.06 104.668,95.443 104.416,95.781C103.12,97.5 101.396,98.972 99.258,100.211C96.624,101.738 93.29,102.742 89.863,102.845C89.759,102.848 89.654,102.851 89.55,102.853Z" style="fill:rgb(195,153,133);fill-rule:nonzero;"/>
        </g>
        <g transform="matrix(4.16667,0,0,4.16667,-344.152,-293.618)">
            <path d="M94.564,32.714L94.564,32.712L94.549,32.712L94.549,32.714C80.937,33.097 70.548,38.689 70.598,57.974C70.628,69.408 71.67,72.781 75.002,85.827C77.307,94.853 89.572,99.617 94.246,99.926C94.346,99.921 94.45,99.91 94.557,99.9C94.664,99.91 94.768,99.921 94.868,99.926C99.542,99.617 111.807,94.853 114.112,85.827C117.444,72.781 118.486,69.408 118.517,57.974C118.565,38.689 108.177,33.097 94.564,32.714Z" style="fill:rgb(236,183,158);fill-rule:nonzero;"/>
        </g>
        <g transform="matrix(4.16667,0,0,4.16667,-344.152,-293.618)">
            <path d="M115.911,65.907L114.423,77.293C120.267,79.867 121.18,66.466 121.18,66.466C119.83,63.126 115.911,65.907 115.911,65.907Z" style="fill:rgb(236,183,158);fill-rule:nonzero;"/>
        </g>
        <g transform="matrix(4.16667,0,0,4.16667,-344.152,-293.618)">
            <path d="M67.22,66.466C67.22,66.466 68.133,79.867 73.977,77.293L72.49,65.907C72.49,65.907 68.569,63.126 67.22,66.466Z" style="fill:rgb(236,183,158);fill-rule:nonzero;"/>
        </g>
        <g transform="matrix(4.16667,0,0,4.16667,-344.152,-293.618)">
            <path d="M105.394,105.462L134.166,112.95C134.166,112.95 143.983,114.454 146.489,123.276L150.783,139.268L38.41,139.268L42.703,123.276C45.209,114.454 55.027,112.95 55.027,112.95L83.715,105.462L105.394,105.462Z" style="fill:rgb(236,183,158);fill-rule:nonzero;"/>
        </g>
        <g transform="matrix(4.16667,0,0,4.16667,-344.152,-293.618)">
            <path d="M38.41,139.268L42.703,123.276C45.209,114.454 55.027,112.95 55.027,112.95L83.715,105.462L105.394,105.462L134.166,112.95C134.166,112.95 143.983,114.454 146.489,123.276L150.783,139.268L38.41,139.268Z" style="fill:white;fill-rule:nonzero;"/>
        </g>
        <g transform="matrix(4.16667,0,0,4.16667,-344.152,-293.618)">
            <path d="M96.447,105.462L92.746,105.462L87.476,113.765L92.189,119.072L97.003,119.072L101.716,113.765L96.447,105.462Z" style="fill:rgb(0,185,197);fill-rule:nonzero;"/>
        </g>
        <g transform="matrix(4.16667,0,0,4.16667,-344.152,-293.618)">
            <path d="M97.003,119.072L92.189,119.072L88.38,114.783L93.429,107.112C93.177,111.079 94.51,115.21 97.216,118.06C97.332,118.18 97.455,118.302 97.582,118.42L97.003,119.072Z" style="fill:rgb(0,172,166);fill-rule:nonzero;"/>
        </g>
        <g transform="matrix(4.16667,0,0,4.16667,-344.152,-293.618)">
            <path d="M113.569,107.59L113.55,107.585L105.244,99.859L105.208,99.878L105.244,99.859L113.569,107.59Z" style="fill:rgb(188,190,192);fill-rule:nonzero;"/>
        </g>
        <g transform="matrix(4.16667,0,0,4.16667,-344.152,-293.618)">
            <path d="M101.585,116.109L100.751,114.852L101.329,114.201L101.715,114.695L113.719,107.742L113.55,107.585L113.569,107.59L114.423,108.383L101.585,116.109Z" style="fill:rgb(188,190,192);fill-rule:nonzero;"/>
        </g>
        <g transform="matrix(4.16667,0,0,4.16667,-344.152,-293.618)">
            <path d="M100.751,114.852L94.514,105.462L101.329,114.201L100.751,114.852Z" style="fill:rgb(0,141,151);fill-rule:nonzero;"/>
        </g>
        <g transform="matrix(4.16667,0,0,4.16667,-344.152,-293.618)">
            <path d="M105.244,99.859L94.514,105.462L101.715,114.695L113.719,107.742L105.244,99.859Z" style="fill:white;fill-rule:nonzero;"/>
        </g>
        <g transform="matrix(4.16667,0,0,4.16667,-344.152,-293.618)">
            <path d="M75.509,107.604L83.85,99.859L83.905,99.888L83.905,105.462L94.514,105.462L83.715,105.462L75.509,107.604Z" style="fill:rgb(188,190,192);fill-rule:nonzero;"/>
        </g>
        <g transform="matrix(4.16667,0,0,4.16667,-344.152,-293.618)">
            <path d="M94.514,105.462L83.905,105.462L83.905,99.888L83.905,102.64C85.448,102.784 87.005,102.865 88.549,102.865C88.884,102.865 89.217,102.861 89.55,102.853L94.514,105.462Z" style="fill:rgb(176,138,121);fill-rule:nonzero;"/>
        </g>
        <g transform="matrix(4.16667,0,0,4.16667,-344.152,-293.618)">
            <path d="M88.549,102.865C87.005,102.865 85.448,102.784 83.905,102.64L83.905,99.888L89.55,102.853C89.217,102.861 88.884,102.865 88.549,102.865Z" style="fill:rgb(149,117,102);fill-rule:nonzero;"/>
        </g>
        <g transform="matrix(4.16667,0,0,4.16667,-344.152,-293.618)">
            <path d="M87.508,116.109L74.67,108.383L75.509,107.604L83.715,105.462L94.514,105.462L92.746,105.462L87.476,113.765L88.38,114.783L87.508,116.109Z" style="fill:rgb(188,190,192);fill-rule:nonzero;"/>
        </g>
        <g transform="matrix(4.16667,0,0,4.16667,-344.152,-293.618)">
            <path d="M87.476,113.765L92.746,105.462L94.514,105.462L93.429,107.112C93.464,106.557 93.53,106.006 93.627,105.462L92.746,105.462L87.476,113.765Z" style="fill:rgb(0,141,151);fill-rule:nonzero;"/>
        </g>
        <g transform="matrix(4.16667,0,0,4.16667,-344.152,-293.618)">
            <path d="M88.38,114.783L87.476,113.765L92.746,105.462L93.627,105.462C93.53,106.006 93.464,106.557 93.429,107.112L88.38,114.783Z" style="fill:rgb(0,132,127);fill-rule:nonzero;"/>
        </g>
        <g transform="matrix(4.16667,0,0,4.16667,-344.152,-293.618)">
            <path d="M83.85,99.859L94.579,105.462L87.379,114.696L75.375,107.742L83.85,99.859Z" style="fill:white;fill-rule:nonzero;"/>
        </g>
        <g transform="matrix(4.16667,0,0,4.16667,-344.152,-293.618)">
            <path d="M75.511,107.616L55.027,112.95C55.027,112.95 45.209,114.454 42.703,123.276L38.41,139.268L150.783,139.268L146.489,123.276C143.983,114.454 134.166,112.95 134.166,112.95L112.713,106.794L94.514,138.472L75.511,107.616Z" style="fill:rgb(4,58,85);fill-rule:nonzero;"/>
        </g>
        <g transform="matrix(4.16667,0,0,4.16667,-344.152,-293.618)">
            <path d="M92.106,119.072L89.542,130.398L94.514,138.472L99.156,130.394L96.922,119.072L92.106,119.072Z" style="fill:rgb(0,185,197);fill-rule:nonzero;"/>
        </g>
        <g transform="matrix(4.16667,0,0,4.16667,-344.152,-293.618)">
            <path d="M75.511,107.616L65.807,110.144L71.281,112.266L67.903,116.109L87.476,139.268L95.081,139.268L75.511,107.616Z" style="fill:rgb(1,39,63);fill-rule:nonzero;"/>
        </g>
        <g transform="matrix(4.16667,0,0,4.16667,-344.152,-293.618)">
            <path d="M112.713,106.794L123.392,109.86L117.918,112.266L121.296,116.109L101.722,139.268L94.117,139.268L112.713,106.794Z" style="fill:rgb(1,39,63);fill-rule:nonzero;"/>
        </g>
        <g transform="matrix(4.16667,0,0,4.16667,-344.152,-293.618)">
            <path d="M72.469,66.533L73.671,80.98C67.354,63.983 71.004,41.748 71.004,41.748C73.018,33.538 74.876,32.144 78.129,30.439C81.382,28.737 80.144,29.046 85.255,27.805C90.367,26.568 85.255,27.805 92.171,26.102C99.087,24.398 104.85,28.268 104.85,28.268C109.575,31.052 112.519,32.453 112.519,32.453C122.896,40.509 118.158,62.814 118.158,62.814C118.517,72.039 114.967,82.491 114.967,82.491L115.771,63.775C115.771,37.939 102.583,40.224 102.583,40.224C95.634,41.592 87.118,40.199 87.118,40.199C87.118,40.199 71.301,35.345 72.469,66.196" style="fill:rgb(127,76,32);fill-rule:nonzero;"/>
        </g>
        <g transform="matrix(4.16667,0,0,4.16667,-344.152,-293.618)">
            <path d="M74.291,41.113C74.36,41.44 74.169,41.628 74.465,41.797C74.789,40.459 74.91,39.143 75.498,37.879C76.317,38.429 78.191,41.586 78.043,38.36C78.917,38.275 79.877,39.247 80.563,39.031C81.607,38.702 81.692,37.067 82.412,36.201C84.056,37.384 84.286,38.327 85.908,37.406C86.48,37.082 86.282,35.964 87.065,35.754C87.999,35.501 88.441,36.571 89.161,36.658C89.719,36.725 91.884,36.433 92.363,36.153C93.19,35.663 93.84,32.945 95.19,35.043C97.074,33.647 97.393,36.737 99.116,36.899C99.114,36.623 99.167,36.309 99.187,36.032C100.257,36.788 100.469,35.728 101.231,35.803C102.661,35.945 102.942,36.665 104.082,37.123C105.045,37.508 107.764,38.29 108.872,38.054C108.902,37.915 108.927,37.775 108.947,37.634C110.368,38.932 111.461,40.792 113.109,41.843C113.261,41.708 113.237,41.499 113.314,41.42C114.249,42.691 114.583,44.257 116.066,45.04C116.175,42.006 112,38.328 110.527,36.43C110.648,36.649 110.713,36.909 110.85,37.136C109.32,35.631 107.335,34.244 105.229,33.225C105.312,33.543 105.293,33.991 105.391,34.309C104.78,32.865 100.161,31.59 98.723,31.146C98.76,31.487 98.616,31.933 98.652,32.278C98.565,32.212 97.417,31.445 97.293,31.525C97.714,31.256 95.497,32.387 96.376,32.284C96.366,32.284 95.821,32.882 95.451,32.944C95.044,33.015 93.823,31.972 93.378,31.85C93.37,32.13 93.312,32.439 93.309,32.717C92.984,32.476 92.135,32.252 91.764,31.842C91.78,32.189 91.656,32.618 91.677,32.962C91.076,32.32 90.179,31.588 89.191,31.378C89.295,31.917 89.154,32.356 89.422,32.923C88.947,31.974 88.239,31.548 87.546,32.272C86.605,31.359 84.549,29.901 84.299,32.03C84.02,32.045 83.893,31.82 83.631,31.853C82.753,33.006 81.636,32.17 80.599,31.855C80.721,33.085 80.596,34.69 79.158,34.173C79.069,34.445 79.001,34.756 78.904,35.054C78.778,34.987 78.418,34.708 78.279,34.684C77.489,35.462 76.112,35.43 75.028,36.042C75.075,37.875 74.53,39.423 74.522,41.344" style="fill:rgb(139,83,37);fill-rule:nonzero;"/>
        </g>
        <g transform="matrix(4.16667,0,0,4.16667,-344.152,-293.618)">
            <path d="M104.97,72.104C104.97,72.104 98.562,71.437 98.335,64.943C98.335,64.943 98.18,62.895 98.793,61.382C98.793,61.382 105.807,58.972 113.734,61.361C113.734,61.361 115.794,73.231 104.97,72.104ZM90.155,65.098C89.929,71.591 83.52,72.259 83.52,72.259C72.696,73.384 74.757,61.515 74.757,61.515C82.685,59.128 89.698,61.538 89.698,61.538C90.31,63.05 90.155,65.098 90.155,65.098ZM119.704,61.494L115.359,60.132L115.358,60.248C105.684,57.358 97.139,60.294 97.139,60.294L97.135,60.306C94.64,60.889 92.356,60.619 90.998,60.338C90.719,60.255 90.282,60.132 89.707,59.996L89.706,59.996L89.707,59.996C86.849,59.324 80.606,58.33 73.703,60.239L73.702,60.155L69.41,60.987L69.41,64.735L73.071,65.77C73.694,69.754 76.05,74.377 83.79,73.572C83.79,73.572 91.634,72.756 91.911,64.808C91.911,64.808 91.952,64.26 91.92,63.49C94.049,61.476 95.842,62.922 96.56,63.701C96.551,64.273 96.579,64.652 96.579,64.652C96.856,72.601 104.7,73.418 104.7,73.418C112.232,74.201 114.667,69.843 115.365,65.938L119.598,65.24L119.704,61.494Z" style="fill:rgb(35,31,32);fill-rule:nonzero;"/>
        </g>
    </g>
</svg>
