<?xml version="1.0" encoding="UTF-8" standalone="no"?>
<!DOCTYPE svg PUBLIC "-//W3C//DTD SVG 1.1//EN" "http://www.w3.org/Graphics/SVG/1.1/DTD/svg11.dtd">
<svg width="100%" height="100%" viewBox="0 0 150 150" version="1.1" xmlns="http://www.w3.org/2000/svg" xmlns:xlink="http://www.w3.org/1999/xlink" xml:space="preserve" xmlns:serif="http://www.serif.com/" style="fill-rule:evenodd;clip-rule:evenodd;stroke-linecap:round;stroke-miterlimit:10;">
    <g transform="matrix(0.714282,0,0,0.714282,-36.5876,-22.0638)">
        <g transform="matrix(1,0,0,1,252.637,49.2076)">
            <path d="M0,165.353C0,165.353 -8.443,133.979 2.472,118.964C13.386,103.95 11.879,77.01 -20.241,67.437C-52.361,57.866 -40.064,29.106 -64.534,14.554C-89.004,0 -119.115,7.069 -133.945,37.318C-148.774,67.568 -183.414,44.565 -198.15,67.437C-210.625,86.798 -182.962,96.447 -187.958,111.373C-192.953,126.299 -205.631,150.476 -196.051,165.353L0,165.353Z" style="fill:rgb(212,216,219);fill-rule:nonzero;"/>
        </g>
        <g transform="matrix(-1,0.000744546,0.000744546,1,87.5771,148.763)">
            <path d="M0.478,-13.431C0.478,-13.431 -0.06,-7.83 6.806,-6.51C6.806,-6.51 0.585,-6.023 0.478,-0C0.478,-0 0.423,-5.3 -6.323,-6.711C-6.323,-6.711 -0.18,-7.227 0.478,-13.431" style="fill:rgb(0,204,102);fill-rule:nonzero;"/>
        </g>
        <g transform="matrix(-1,0.000744546,0.000744546,1,174.043,78.1364)">
            <path d="M0.477,-13.431C0.477,-13.431 -0.061,-7.83 6.806,-6.51C6.806,-6.51 0.584,-6.023 0.477,-0C0.477,-0 0.422,-5.301 -6.324,-6.711C-6.324,-6.711 -0.18,-7.228 0.477,-13.431" style="fill:rgb(23,169,230);fill-rule:nonzero;"/>
        </g>
        <g transform="matrix(-1,0.000856374,0.000856374,1,101.53,125.307)">
            <path d="M0.29,-8.174C0.29,-8.174 -0.037,-4.765 4.143,-3.962C4.143,-3.962 0.355,-3.666 0.29,-0C0.29,-0 0.258,-3.226 -3.849,-4.084C-3.849,-4.084 -0.109,-4.399 0.29,-8.174" style="fill:white;fill-rule:nonzero;"/>
        </g>
        <g transform="matrix(-1,0.000734035,0.000734035,1,214.327,186.026)">
            <path d="M0.29,-8.174C0.29,-8.174 -0.037,-4.765 4.142,-3.962C4.142,-3.962 0.355,-3.665 0.29,-0C0.29,-0 0.257,-3.225 -3.849,-4.084C-3.849,-4.084 -0.11,-4.398 0.29,-8.174" style="fill:white;fill-rule:nonzero;"/>
        </g>
        <g transform="matrix(-1,0.000681896,0.000681896,1,152.825,84.9855)">
            <path d="M0.311,-8.799C0.311,-8.799 -0.04,-5.13 4.458,-4.264C4.458,-4.264 0.38,-3.946 0.311,-0C0.311,-0 0.276,-3.472 -4.144,-4.397C-4.144,-4.397 -0.12,-4.735 0.311,-8.799" style="fill:rgb(175,179,177);fill-rule:nonzero;"/>
        </g>
        <g transform="matrix(0,-1,-1,0,201.84,105.231)">
            <path d="M-28.043,-28.043C-43.53,-28.043 -56.085,-15.487 -56.085,0C-56.085,15.488 -43.53,28.043 -28.043,28.043C-12.556,28.043 -0.001,15.488 -0.001,0C-0.001,-15.487 -12.556,-28.043 -28.043,-28.043" style="fill:white;fill-rule:nonzero;"/>
        </g>
        <g transform="matrix(0,-1,-1,0,201.839,117.235)">
            <path d="M-16.038,-16.038C-24.895,-16.038 -32.076,-8.857 -32.076,0C-32.076,8.858 -24.895,16.038 -16.038,16.038C-7.181,16.038 0,8.858 0,0C0,-8.857 -7.181,-16.038 -16.038,-16.038" style="fill:rgb(23,169,230);fill-rule:nonzero;"/>
        </g>
        <g transform="matrix(1,0,0,1,51.2229,214.567)">
            <path d="M0,0L206.653,0" style="fill:none;fill-rule:nonzero;stroke:rgb(1,51,25);stroke-width:2.8px;"/>
        </g>
        <g transform="matrix(1,0,0,1,129.262,164.659)">
            <path d="M0,-21.331L0,-15.275L12.882,0L25.521,-15.275L25.422,-21.331C25.422,-21.331 21.064,-15.465 12.761,-15.58C4.457,-15.694 0,-21.331 0,-21.331" style="fill:rgb(255,190,157);fill-rule:nonzero;"/>
        </g>
        <g transform="matrix(1,0,0,1,142.31,214.406)">
            <path d="M0,-49.033L-5.131,-43.459L-2.23,-37.145L-7.491,0.343L10.34,0.001L10.34,-49.376" style="fill:white;fill-rule:nonzero;"/>
        </g>
        <g transform="matrix(1,0,0,1,167.061,130.051)">
            <path d="M0,-8.833C0.191,-7.86 -1.829,-0.319 -3.341,0.67C-3.484,0.766 -3.644,0.861 -3.786,0.941C-2.211,-0.893 -0.572,-5.676 -0.35,-8.1C-0.286,-8.753 -0.382,-9.312 -0.572,-9.774C-0.271,-9.423 -0.048,-9.072 0,-8.833" style="fill:white;fill-rule:nonzero;"/>
        </g>
        <g transform="matrix(1,0,0,1,164.022,118.332)">
            <path d="M0,-0.415C0.111,-0.335 0.287,-0.192 0.493,0C0.191,-0.128 0,-0.192 0,-0.192L0,-0.415Z" style="fill:white;fill-rule:nonzero;"/>
        </g>
        <g transform="matrix(1,0,0,1,163.576,110.95)">
            <path d="M0,3.253C-0.716,2.838 -2.053,1.802 -2.275,0C-1.591,1.356 -0.397,2.711 0,3.253" style="fill:rgb(52,120,247);fill-rule:nonzero;"/>
        </g>
        <g transform="matrix(1,0,0,1,196.306,194.484)">
            <path d="M0,-19.612C0.111,-19.245 0.175,-18.879 0.255,-18.512L1.179,19.499L-11.425,20.01L-46.668,20.01L-51.998,-17.508L-48.911,-24.029L-43.612,-18.926L-36.118,-39.112L-36.373,-39.447L-36.118,-39.622L-18.346,-33.006L-8.974,-29.529C-5.569,-28.238 -2.801,-25.767 -1.178,-22.61C-0.668,-21.669 -0.271,-20.664 0,-19.612" style="fill:rgb(0,204,102);fill-rule:nonzero;"/>
        </g>
        <g transform="matrix(1,0,0,1,155.271,175.509)">
            <path d="M0,-25.655C0.445,-25.639 0.892,-25.416 1.178,-25.033L4.662,-20.473L4.917,-20.138L-2.577,0.048L-7.876,-5.054L-13.127,-10.125L-1.368,-25.033C-1.034,-25.48 -0.509,-25.703 0,-25.655" style="fill:white;fill-rule:nonzero;"/>
        </g>
        <g transform="matrix(1,0,0,1,151.659,142.903)">
            <path d="M0,3.651C1.305,2.535 2.402,1.291 3.341,0C2.577,1.402 1.909,2.455 1.479,2.726C1.146,2.933 0.636,3.268 0,3.651" style="fill-rule:nonzero;"/>
        </g>
        <g transform="matrix(1,0,0,1,153.966,105.61)">
            <path d="M0,-1.532C-1.782,-1.436 -2.88,-0.735 -3.962,0.111C-2.832,-0.91 -1.83,-1.643 0,-1.532" style="fill:rgb(52,120,247);fill-rule:nonzero;"/>
        </g>
        <g transform="matrix(1,0,0,1,142.351,150.429)">
            <path d="M0,0.382C0.668,0.286 1.321,0.159 1.941,0C1.321,0.223 0.748,0.366 0.286,0.382L0,0.382Z" style="fill-rule:nonzero;"/>
        </g>
        <g transform="matrix(1,0,0,1,137.403,107.745)">
            <path d="M0,-0.175C1.114,0.287 2.148,0.654 3.118,0.909C0.7,0.654 -0.731,-0.191 -1.925,-1.084C-1.384,-0.797 -0.748,-0.494 0,-0.175" style="fill:rgb(52,120,247);fill-rule:nonzero;"/>
        </g>
        <g transform="matrix(1,0,0,1,129.876,150.795)">
            <path d="M0,-7.127C2.689,-3.747 6.54,-0.797 11.997,0C9.038,-0.175 3.597,-1.993 0.08,-7.015C0.048,-7.047 0.032,-7.095 0,-7.127" style="fill-rule:nonzero;"/>
        </g>
        <g opacity="0.21">
            <g transform="matrix(1,0,0,1,155.271,153.299)">
                <path d="M0,-10.683L0,-7.032L-0.031,-7.063C-2.769,-3.189 -6.953,0.367 -13.127,1.196C-19.316,0.367 -23.469,-3.189 -26.206,-7.063L-26.253,-7.032L-26.253,-10.683L-26.206,-10.715C-25.951,-10.348 -25.681,-9.981 -25.395,-9.631C-25.362,-9.599 -25.347,-9.551 -25.314,-9.519C-21.798,-4.497 -16.356,-2.679 -13.397,-2.503C-13.317,-2.488 -13.222,-2.472 -13.127,-2.456C-13.063,-2.472 -12.999,-2.472 -12.936,-2.488L-12.634,-2.488C-12.172,-2.503 -11.599,-2.647 -10.979,-2.87C-10.931,-2.886 -10.867,-2.902 -10.819,-2.918C-7.939,-3.667 -5.568,-5.055 -3.611,-6.745C-2.976,-7.127 -2.466,-7.462 -2.132,-7.669C-1.702,-7.94 -1.034,-8.993 -0.271,-10.396C-0.19,-10.508 -0.111,-10.603 -0.031,-10.715L0,-10.683Z" style="fill-rule:nonzero;"/>
            </g>
        </g>
        <g transform="matrix(1,0,0,1,130.402,174.888)">
            <path d="M0,-24.411L11.742,-9.503L6.492,-4.432L1.178,0.67L-6.285,-19.516L-6.046,-19.851L-2.562,-24.411C-2.259,-24.794 -1.83,-25.017 -1.384,-25.033C-0.875,-25.081 -0.35,-24.873 0,-24.411" style="fill:white;fill-rule:nonzero;"/>
        </g>
        <g transform="matrix(1,0,0,1,127.792,105.289)">
            <path d="M0,-0.845C-0.572,-0.637 -1.113,-0.35 -1.623,0C-1.146,-0.383 -0.604,-0.685 0,-0.845" style="fill:rgb(52,120,247);fill-rule:nonzero;"/>
        </g>
        <g transform="matrix(1,0,0,1,134.65,154.862)">
            <path d="M0,59.632L-47.319,59.632L-46.922,21.11C-45.999,16.071 -42.498,11.894 -37.678,10.092L-10.533,0L-10.294,0.175L-10.533,0.51L-3.07,20.695L2.244,15.593L5.314,22.114L0,59.632Z" style="fill:rgb(0,204,102);fill-rule:nonzero;"/>
        </g>
        <g transform="matrix(1,0,0,1,161.27,92.4855)">
            <path d="M0,17.954C0,15.1 -3.262,11.577 -6.826,11.577C-6.985,11.577 -7.129,11.577 -7.271,11.592L-7.304,11.592C-9.134,11.481 -10.136,12.214 -11.266,13.235C-11.281,13.25 -11.313,13.267 -11.345,13.298C-13.063,14.622 -14.75,16.248 -19.126,16.248C-19.714,16.248 -20.255,16.216 -20.749,16.168C-21.719,15.913 -22.753,15.547 -23.867,15.084C-24.615,14.765 -25.251,14.462 -25.792,14.175C-25.809,14.16 -25.824,14.143 -25.84,14.143C-27.479,12.9 -28.672,11.577 -31.425,11.577C-32.029,11.577 -32.618,11.672 -33.191,11.879C-33.286,11.895 -33.382,11.927 -33.478,11.959C-34.082,12.119 -34.623,12.421 -35.101,12.804C-35.116,12.82 -35.132,12.836 -35.148,12.836C-36.978,14.127 -38.235,16.168 -38.235,17.954C-38.235,19.533 -39.078,20.585 -39.826,21.223C-39.842,21.223 -39.857,21.239 -39.874,21.255C-40.479,21.605 -41.004,21.717 -41.004,21.717L-41.004,12.198C-41.004,1.26 -29.897,-4.002 -19.126,-3.332C-8.37,-4.002 2.752,1.26 2.752,12.198L2.752,21.956C2.752,21.956 2.577,21.892 2.322,21.733C2.322,21.733 2.307,21.733 2.307,21.717C1.909,21.175 0.716,19.82 0.031,18.464C0.016,18.305 0,18.13 0,17.954" style="fill:rgb(1,51,25);fill-rule:nonzero;"/>
        </g>
        <g transform="matrix(1,0,0,1,160.188,123.115)">
            <path d="M0,8.658C0,8.658 -0.159,9.025 -0.414,9.631C-1.305,11.703 -3.469,16.646 -5.187,19.787C-6.126,21.079 -7.224,22.323 -8.528,23.439C-10.454,24.65 -13.461,26.436 -15.736,27.265C-15.784,27.281 -15.848,27.297 -15.896,27.313C-16.516,27.472 -17.169,27.6 -17.837,27.696L-17.853,27.696C-17.996,27.696 -18.155,27.696 -18.314,27.68C-23.771,26.883 -27.622,23.933 -30.312,20.553C-33.779,15.514 -35.721,9.056 -36.039,7.989C-36.055,7.877 -36.071,7.829 -36.071,7.829C-36.071,7.829 -36.818,9.104 -38.076,8.626L-38.107,8.626C-38.823,8.339 -39.683,7.175 -40.367,5.963C-40.51,5.708 -40.638,5.421 -40.78,5.134C-40.972,4.688 -41.162,4.209 -41.354,3.731C-41.369,3.652 -41.417,3.556 -41.433,3.46C-41.544,2.982 -41.799,2.312 -42.054,1.578C-42.117,1.324 -42.196,1.053 -42.276,0.797C-42.403,0.223 -42.515,-0.335 -42.563,-0.797C-42.61,-1.435 -42.547,-2.057 -42.292,-2.631C-41.561,-4.257 -40.845,-4.082 -40.319,-4.831C-40.08,-4.927 -39.922,-4.975 -39.922,-4.975L-39.922,-5.772C-39.571,-7 -39.763,-8.211 -39.874,-8.69C-39.746,-8.754 -39.301,-8.977 -38.792,-9.375C-38.775,-9.391 -38.76,-9.407 -38.744,-9.407C-38.123,-9.79 -37.455,-10.427 -37.248,-11.464C-36.93,-12.979 -36.039,-16.136 -34.066,-17.794C-34.05,-17.794 -34.034,-17.81 -34.019,-17.826C-33.509,-18.176 -32.968,-18.464 -32.396,-18.671C-32.3,-18.703 -32.204,-18.735 -32.109,-18.751C-31.887,-18.799 -31.647,-18.815 -31.409,-18.83C-28.211,-18.942 -27.399,-17.874 -24.758,-16.487C-24.742,-16.487 -24.727,-16.47 -24.71,-16.455C-23.517,-15.562 -22.085,-14.717 -19.667,-14.462C-16.851,-13.696 -14.606,-13.904 -12.57,-15.355C-11.615,-16.04 -10.915,-16.726 -10.263,-17.332C-10.231,-17.363 -10.199,-17.38 -10.184,-17.395C-9.102,-18.24 -8.004,-18.942 -6.222,-19.038L-6.189,-19.038C-6.078,-19.038 -5.951,-19.038 -5.824,-19.022C-2.546,-18.655 0.62,-15.593 0.62,-13.856C0.62,-13.329 0.827,-12.756 1.113,-12.166C1.336,-10.364 2.673,-9.327 3.389,-8.913C3.389,-8.897 3.404,-8.897 3.404,-8.897C3.962,-8.084 3.707,-5.309 3.707,-5.309C3.707,-5.309 3.755,-5.278 3.834,-5.198L3.834,-4.975C3.834,-4.975 4.025,-4.911 4.327,-4.783C4.9,-4.289 5.728,-3.524 6.284,-2.854L6.301,-2.838C6.491,-2.376 6.587,-1.818 6.523,-1.164C6.301,1.26 4.662,6.043 3.087,7.877C2.577,8.196 2.036,8.467 1.575,8.658L1.559,8.658C0.716,8.993 0.063,9.089 0,8.658" style="fill:rgb(255,190,157);fill-rule:nonzero;"/>
        </g>
        <g transform="matrix(1,0,0,1,121.396,114.426)">
            <path d="M0,-0.686C-0.509,-0.288 -0.954,-0.064 -1.082,0C-1.113,-0.144 -1.13,-0.224 -1.13,-0.224C-1.13,-0.224 -0.604,-0.335 0,-0.686" style="fill:rgb(52,120,247);fill-rule:nonzero;"/>
        </g>
        <g transform="matrix(1,0,0,1,129.018,142.615)">
            <path d="M0,7.239L0,0" style="fill:none;fill-rule:nonzero;stroke:rgb(1,51,25);stroke-width:2.8px;"/>
        </g>
        <g transform="matrix(1,0,0,1,101.38,214.494)">
            <path d="M0,-30.167L0,0" style="fill:none;fill-rule:nonzero;stroke:rgb(1,51,25);stroke-width:2.8px;"/>
        </g>
        <g transform="matrix(1,0,0,1,136.894,176.976)">
            <path d="M0,-6.521L3.07,0L5.25,0" style="fill:none;fill-rule:nonzero;stroke:rgb(1,51,25);stroke-width:2.8px;"/>
        </g>
        <g transform="matrix(1,0,0,1,139.964,214.494)">
            <path d="M0,-37.518L-5.314,0L-3.389,-13.92" style="fill:none;fill-rule:nonzero;stroke:rgb(1,51,25);stroke-width:2.8px;"/>
        </g>
        <g transform="matrix(1,0,0,1,155.271,175.509)">
            <path d="M0,-25.655C0.445,-25.639 0.892,-25.416 1.178,-25.033L4.662,-20.473L4.917,-20.138L-2.577,0.048L-7.876,-5.054L-13.127,-10.125L-1.368,-25.033C-1.034,-25.48 -0.509,-25.703 0,-25.655Z" style="fill:none;fill-rule:nonzero;stroke:rgb(1,51,25);stroke-width:2.8px;"/>
        </g>
        <g transform="matrix(1,0,0,1,155.271,142.615)">
            <path d="M0,7.239L0,0" style="fill:none;fill-rule:nonzero;stroke:rgb(1,51,25);stroke-width:2.8px;"/>
        </g>
        <g transform="matrix(1,0,0,1,160.188,150.843)">
            <path d="M0,-19.899C0,-19.899 -0.111,-19.213 -0.414,-18.097C-1.019,-15.881 -2.355,-11.927 -4.948,-8.259C-5.028,-8.148 -5.107,-8.052 -5.187,-7.941C-6.126,-6.649 -7.224,-5.405 -8.528,-4.289C-10.485,-2.599 -12.856,-1.212 -15.736,-0.462C-15.784,-0.447 -15.848,-0.431 -15.896,-0.415C-16.516,-0.255 -17.169,-0.128 -17.837,-0.032L-17.853,-0.032C-17.916,-0.016 -17.979,-0.016 -18.044,0C-18.139,-0.016 -18.234,-0.032 -18.314,-0.048C-23.771,-0.845 -27.622,-3.795 -30.312,-7.175C-30.598,-7.526 -30.868,-7.893 -31.123,-8.259C-34.655,-13.234 -35.849,-18.751 -36.039,-19.739C-36.055,-19.851 -36.071,-19.899 -36.071,-19.899" style="fill:none;fill-rule:nonzero;stroke:rgb(1,51,25);stroke-width:2.8px;"/>
        </g>
        <g transform="matrix(1,0,0,1,159.854,90.5733)">
            <path d="M0,39.207C0,39.207 0.127,39.749 0.477,40.259C0.764,40.69 1.225,41.136 1.893,41.2L1.909,41.2C2.036,41.2 2.18,41.184 2.339,41.168C2.688,41.121 3.039,40.85 3.421,40.419C4.996,38.585 6.635,33.802 6.857,31.378C6.921,30.725 6.825,30.166 6.635,29.704L6.618,29.688C6.173,28.62 5.234,28.03 4.661,27.759C4.359,27.631 4.168,27.567 4.168,27.567L4.168,14.11C4.168,3.172 -6.954,-2.089 -17.71,-1.419C-28.481,-2.089 -39.588,3.172 -39.588,14.11L-39.588,27.567C-39.588,27.567 -39.746,27.615 -39.985,27.711C-40.781,28.078 -42.483,29.098 -42.276,31.378C-42.261,31.49 -42.261,31.618 -42.229,31.745C-42.181,32.207 -42.069,32.766 -41.942,33.339C-41.862,33.595 -41.783,33.866 -41.72,34.121C-41.545,34.743 -41.338,35.38 -41.099,36.002C-41.083,36.098 -41.035,36.194 -41.02,36.273C-40.828,36.751 -40.638,37.23 -40.446,37.676C-40.304,37.963 -40.176,38.25 -40.033,38.505C-39.301,39.973 -38.489,41.073 -37.773,41.168L-37.742,41.168C-36.819,41.296 -36.23,40.786 -35.88,40.259C-35.53,39.749 -35.402,39.207 -35.402,39.207" style="fill:none;fill-rule:nonzero;stroke:rgb(1,51,25);stroke-width:2.8px;"/>
        </g>
        <g transform="matrix(1,0,0,1,147.395,176.976)">
            <path d="M0,-6.521L-3.087,0L-5.251,0" style="fill:none;fill-rule:nonzero;stroke:rgb(1,51,25);stroke-width:2.8px;"/>
        </g>
        <g transform="matrix(1,0,0,1,144.308,214.494)">
            <path d="M0,-37.518L5.33,0L3.405,-13.92" style="fill:none;fill-rule:nonzero;stroke:rgb(1,51,25);stroke-width:2.8px;"/>
        </g>
        <g transform="matrix(1,0,0,1,164.022,104.062)">
            <path d="M0,10.38C0,10.38 -0.175,10.316 -0.43,10.156C-0.43,10.156 -0.445,10.156 -0.445,10.141C-1.161,9.726 -2.498,8.69 -2.721,6.888C-2.736,6.729 -2.752,6.553 -2.752,6.378C-2.752,3.524 -6.014,0 -9.578,0C-9.737,0 -9.881,0 -10.023,0.016L-10.056,0.016C-11.838,0.111 -12.936,0.813 -14.018,1.658C-14.033,1.674 -14.065,1.69 -14.097,1.722C-15.815,3.046 -17.502,4.672 -21.878,4.672C-22.466,4.672 -23.007,4.64 -23.501,4.592C-25.919,4.337 -27.351,3.492 -28.544,2.599C-28.561,2.583 -28.576,2.567 -28.592,2.567C-30.23,1.323 -31.424,0 -34.177,0C-34.781,0 -35.37,0.096 -35.943,0.303C-36.038,0.319 -36.134,0.351 -36.229,0.382C-36.802,0.59 -37.343,0.877 -37.853,1.228C-37.868,1.244 -37.884,1.259 -37.9,1.259C-39.729,2.551 -40.987,4.592 -40.987,6.378C-40.987,7.956 -41.83,9.008 -42.578,9.647C-42.594,9.647 -42.609,9.662 -42.626,9.678C-43.135,10.077 -43.58,10.3 -43.708,10.364C-43.739,10.38 -43.756,10.38 -43.756,10.38" style="fill:none;fill-rule:nonzero;stroke:rgb(1,51,25);stroke-width:2.8px;"/>
        </g>
        <g transform="matrix(-1,0,0,1,339.197,128.064)">
            <rect x="159.493" y="66.726" width="20.211" height="5.062" style="fill:white;"/>
        </g>
        <g transform="matrix(1,0,0,1,123.832,213.533)">
            <path d="M0,-55.576C0,-55.576 -23.283,-45.346 -27.022,-38.779C-30.762,-32.211 -29.71,-18.022 -29.973,-11.453C-30.235,-4.884 -30.546,1.774 -30.546,1.774L-37.445,1.765L-36.458,-35.752C-36.458,-35.752 -34.627,-44.801 -29.957,-46.756C-25.287,-48.71 -3.458,-56.826 -3.458,-56.826L-1.036,-57.35L-0.1,-55.845L0,-55.576Z" style="fill:rgb(0,204,102);fill-rule:nonzero;"/>
        </g>
        <g transform="matrix(1,0,0,1,124.117,214.502)">
            <path d="M0,-59.641L-27.145,-49.548C-31.965,-47.746 -35.466,-43.569 -36.389,-38.531L-36.771,-14.678L-36.786,-0.009L60.765,-0.009L73.923,0L73.111,-14.669L72.444,-38.531C72.364,-38.897 72.301,-39.264 72.189,-39.631C71.919,-40.683 71.521,-41.687 71.012,-42.628C69.389,-45.786 66.62,-48.257 63.216,-49.548L53.844,-53.024L36.071,-59.641" style="fill:none;fill-rule:nonzero;stroke:rgb(1,51,25);stroke-width:2.8px;"/>
        </g>
        <g transform="matrix(1,0,0,1,129.018,175.509)">
            <path d="M0,-25.655C-0.446,-25.639 -0.875,-25.416 -1.178,-25.033L-4.662,-20.473L-4.901,-20.138L2.562,0.048L7.876,-5.054L13.126,-10.125L1.384,-25.033C1.034,-25.495 0.509,-25.703 0,-25.655Z" style="fill:none;fill-rule:nonzero;stroke:rgb(1,51,25);stroke-width:2.8px;"/>
        </g>
        <g transform="matrix(1,0,0,1,201.839,114.205)">
            <path d="M0,0L0,0" style="fill:none;fill-rule:nonzero;stroke:rgb(1,51,25);stroke-width:2.8px;"/>
        </g>
        <g transform="matrix(1,0,0,1,201.839,152.342)">
            <path d="M0,0L0,0" style="fill:none;fill-rule:nonzero;stroke:rgb(1,51,25);stroke-width:2.8px;"/>
        </g>
        <g transform="matrix(1,0,0,1,220.909,133.273)">
            <path d="M0,0L0,0" style="fill:none;fill-rule:nonzero;stroke:rgb(1,51,25);stroke-width:2.8px;"/>
        </g>
        <g transform="matrix(1,0,0,1,182.771,133.273)">
            <path d="M0,0L0,0" style="fill:none;fill-rule:nonzero;stroke:rgb(1,51,25);stroke-width:2.8px;"/>
        </g>
        <g transform="matrix(0,-1,-1,0,201.84,131.029)">
            <circle cx="-2.244" cy="0" r="2.244" style="fill:none;stroke:rgb(1,51,25);stroke-width:2.8px;"/>
        </g>
        <g transform="matrix(0,1,1,0,207.448,125.421)">
            <path d="M-5.608,-5.608L5.608,-5.608" style="fill:none;fill-rule:nonzero;stroke:rgb(1,51,25);stroke-width:2.8px;"/>
        </g>
        <g transform="matrix(-1,0,0,1,204.083,133.273)">
            <path d="M-10.095,0L0,0" style="fill:none;fill-rule:nonzero;stroke:rgb(1,51,25);stroke-width:2.8px;"/>
        </g>
        <g transform="matrix(0,1,1,0,201.84,105.231)">
            <path d="M28.043,-28.043C43.53,-28.043 56.085,-15.487 56.085,-0.001C56.085,15.487 43.53,28.043 28.043,28.043C12.556,28.043 0.001,15.487 0.001,-0.001C0.001,-9.174 4.404,-17.318 11.214,-22.435" style="fill:none;fill-rule:nonzero;stroke:rgb(1,51,25);stroke-width:2.8px;"/>
        </g>
        <g transform="matrix(1,0,0,1,179.405,116.448)">
            <path d="M0,-11.217L0,0L11.217,0" style="fill:none;fill-rule:nonzero;stroke:rgb(1,51,25);stroke-width:2.8px;"/>
        </g>
    </g>
</svg>
