<?xml version="1.0" encoding="UTF-8" standalone="no"?>
<!DOCTYPE svg PUBLIC "-//W3C//DTD SVG 1.1//EN" "http://www.w3.org/Graphics/SVG/1.1/DTD/svg11.dtd">
<svg width="100%" height="100%" viewBox="0 0 100 100" version="1.1" xmlns="http://www.w3.org/2000/svg" xmlns:xlink="http://www.w3.org/1999/xlink" xml:space="preserve" xmlns:serif="http://www.serif.com/" style="fill-rule:evenodd;clip-rule:evenodd;stroke-linejoin:round;stroke-miterlimit:2;">
    <g transform="matrix(0.179857,0,0,0.179857,41.1087,41.4636)">
        <g transform="matrix(4.16667,0,0,4.16667,-326.285,-1358.99)">
            <path d="M114.608,291.564C112.997,296.937 107.337,299.985 101.966,298.371L93.727,295.901C88.356,294.289 85.309,288.629 86.918,283.257C88.53,277.886 94.192,274.838 99.563,276.449L107.802,278.92C113.173,280.532 116.222,286.194 114.608,291.564Z" style="fill:rgb(28,0,0);fill-rule:nonzero;"/>
        </g>
        <g transform="matrix(4.16667,0,0,4.16667,-326.285,-1358.99)">
            <rect x="80.27" y="354.942" width="20.495" height="11.843" style="fill:rgb(236,183,158);fill-rule:nonzero;"/>
        </g>
        <g transform="matrix(4.16667,0,0,4.16667,-326.285,-1358.99)">
            <path d="M84.755,364.042C83.262,364.042 81.759,363.956 80.27,363.802L80.27,354.942L100.765,354.942L100.765,355.363C100.517,355.795 100.247,356.199 100.001,356.555C98.754,358.37 97.096,359.926 95.04,361.236C92.506,362.849 89.297,363.911 86.002,364.022C85.588,364.036 85.172,364.042 84.755,364.042Z" style="fill:rgb(195,153,133);fill-rule:nonzero;"/>
        </g>
        <g transform="matrix(4.16667,0,0,4.16667,-326.285,-1358.99)">
            <path d="M115.897,322.703C115.897,303.718 104.522,292.806 90.458,292.717L90.335,292.716L90.282,292.716L90.161,292.717C76.092,292.806 64.719,303.718 64.719,322.703C64.719,347.326 82.444,361.686 90.282,361.749L90.282,361.752L90.335,361.752L90.335,361.749C98.172,361.686 115.897,347.326 115.897,322.703Z" style="fill:rgb(236,183,158);fill-rule:nonzero;"/>
        </g>
        <g transform="matrix(4.16667,0,0,4.16667,-326.285,-1358.99)">
            <path d="M80.19,365.883L55.538,373.506C55.538,373.506 46.911,375.037 44.709,384.017L40.936,400.296L139.681,400.296L135.907,384.017C133.706,375.037 125.079,373.506 125.079,373.506L100.429,365.883L80.19,365.883Z" style="fill:rgb(236,183,158);fill-rule:nonzero;"/>
        </g>
        <g transform="matrix(4.16667,0,0,4.16667,-326.285,-1358.99)">
            <path d="M111.915,369.435L125.079,373.506C125.079,373.506 133.706,375.037 135.907,384.017L139.681,400.296L40.936,400.296L44.709,384.017C46.911,375.037 55.538,373.506 55.538,373.506L68.612,369.463C68.612,369.463 87.045,381.78 111.915,369.435Z" style="fill:rgb(240,120,87);fill-rule:nonzero;"/>
        </g>
        <g transform="matrix(4.16667,0,0,4.16667,-326.285,-1358.99)">
            <path d="M89.606,374.929L89.603,374.929L89.606,374.929ZM89.61,374.929C96.03,374.928 103.615,373.555 111.915,369.435C103.614,373.556 96.031,374.929 89.61,374.929Z" style="fill:rgb(176,138,121);fill-rule:nonzero;"/>
        </g>
        <g transform="matrix(4.16667,0,0,4.16667,-326.285,-1358.99)">
            <path d="M139.681,400.296L138.849,400.296L135.907,387.606C133.706,378.626 125.079,377.095 125.079,377.095L111.915,373.025C103.612,377.147 96.028,378.519 89.607,378.519C76.794,378.519 68.612,373.053 68.612,373.053L55.538,377.095C55.538,377.095 46.911,378.626 44.709,387.606L41.77,400.296L40.936,400.296L44.709,384.017C46.911,375.037 55.538,373.506 55.538,373.506L68.612,369.463C68.612,369.463 76.791,374.928 89.603,374.929L89.61,374.929C96.031,374.929 103.614,373.556 111.915,369.435L125.079,373.506C125.079,373.506 133.706,375.037 135.907,384.017L139.681,400.296Z" style="fill:rgb(179,89,64);fill-rule:nonzero;"/>
        </g>
        <g transform="matrix(4.16667,0,0,4.16667,-326.285,-1358.99)">
            <path d="M67.151,304.558C66.307,307.343 65.643,310.803 65.303,315.111L65.303,321.614L72.079,321.614L73.069,313.666L73.53,321.614L74.512,321.614L75.086,316.282L75.086,321.614L77.95,321.614L78.686,316.282L78.686,321.614L81.635,321.614L82.514,315.111L82.514,321.614L85.491,321.614L85.491,316.282L86.428,321.614L88.557,321.614L89.374,317.639L89.793,319.107L89.793,321.614L96.567,321.614L97.561,313.666L98.02,321.614L99.002,321.614L99.575,316.282L99.575,321.614L102.438,321.614L103.175,316.282L103.175,321.614L106.124,321.614L107.003,315.111L107.003,321.614L109.981,321.614L109.981,316.282L110.917,321.614L113.05,321.614L113.862,317.639L115.003,321.614L115.853,321.614C115.853,321.614 116.038,312.572 114.069,304.558L67.151,304.558Z" style="fill:rgb(28,0,0);fill-rule:nonzero;"/>
        </g>
        <g transform="matrix(4.16667,0,0,4.16667,-326.285,-1358.99)">
            <path d="M112.837,333.866C120.151,330.631 120.3,316.702 120.3,316.702C119.845,305.567 115.974,296.242 106.104,290.955C104.358,290.022 102.466,289.496 100.614,288.79C91.581,285.343 80.458,289.443 80.458,289.443C78.54,289.929 76.713,290.675 74.971,291.608C65.1,296.895 61.774,305.125 60.877,316.235C60.877,316.235 59.403,331.715 67.362,338.036C67.362,338.036 62.711,308.772 74.309,307.018L109.427,307.018C109.427,307.018 116.409,323.404 112.837,333.866Z" style="fill:rgb(28,0,0);fill-rule:nonzero;"/>
        </g>
        <g transform="matrix(4.16667,0,0,4.16667,-326.285,-1358.99)">
            <path d="M113.376,329.733L111.915,340.92C117.655,343.449 118.554,330.281 118.554,330.281C117.226,327 113.376,329.733 113.376,329.733Z" style="fill:rgb(236,183,158);fill-rule:nonzero;"/>
        </g>
        <g transform="matrix(4.16667,0,0,4.16667,-326.285,-1358.99)">
            <path d="M62.711,330.281C62.711,330.281 63.61,343.449 69.35,340.92L67.889,329.733C67.889,329.733 64.038,327 62.711,330.281Z" style="fill:rgb(236,183,158);fill-rule:nonzero;"/>
        </g>
        <g transform="matrix(4.16667,0,0,4.16667,-326.285,-1358.99)">
            <path d="M113.802,328.666C113.802,328.666 115.356,371.321 103.026,379.806C103.026,379.806 119.188,368.614 116.335,328.666L113.802,328.666Z" style="fill:rgb(28,0,0);fill-rule:nonzero;"/>
        </g>
        <g transform="matrix(4.16667,0,0,4.16667,-326.285,-1358.99)">
            <path d="M66.395,328.666C66.395,328.666 65.569,371.321 77.899,379.806C77.899,379.806 61.737,368.614 64.588,328.666L66.395,328.666Z" style="fill:rgb(28,0,0);fill-rule:nonzero;"/>
        </g>
    </g>
</svg>
