<?xml version="1.0" encoding="UTF-8" standalone="no"?>
<!DOCTYPE svg PUBLIC "-//W3C//DTD SVG 1.1//EN" "http://www.w3.org/Graphics/SVG/1.1/DTD/svg11.dtd">
<svg width="100%" height="100%" viewBox="0 0 150 150" version="1.1" xmlns="http://www.w3.org/2000/svg" xmlns:xlink="http://www.w3.org/1999/xlink" xml:space="preserve" xmlns:serif="http://www.serif.com/" style="fill-rule:evenodd;clip-rule:evenodd;stroke-linecap:round;stroke-miterlimit:10;">
    <g transform="matrix(0.691484,0,0,0.691484,141.669,15.3162)">
        <path d="M0,165.353C0,165.353 -8.443,133.979 2.472,118.964C13.386,103.95 11.879,77.01 -20.241,67.437C-52.362,57.866 -40.064,29.106 -64.534,14.554C-89.004,0 -119.115,7.069 -133.945,37.318C-148.775,67.568 -183.414,44.565 -198.151,67.437C-210.625,86.798 -182.963,96.447 -187.958,111.373C-192.953,126.299 -205.631,150.476 -196.051,165.353L0,165.353Z" style="fill:rgb(212,216,219);fill-rule:nonzero;"/>
    </g>
    <g transform="matrix(0.691484,0,0,0.691484,60.149,92.9136)">
        <path d="M0,-27.435C-1.794,-26.497 -3.647,-26.016 -5.679,-26.031C-5.817,-26.032 -5.958,-26.046 -6.097,-26.05C-6.211,-26.047 -6.317,-26.035 -6.433,-26.035C-7.662,-26.035 -8.772,-26.193 -9.767,-26.449C-10.49,-26.581 -11.21,-26.731 -11.911,-26.914C-12.832,-27.153 -13.854,-27.416 -14.652,-27.956C-15.245,-28.356 -15.715,-28.895 -16.199,-29.416L-16.352,1.981L2.94,1.981L2.94,-29.355C2.043,-28.599 1.026,-27.971 0,-27.435" style="fill:white;fill-rule:nonzero;"/>
    </g>
    <g transform="matrix(0.691484,0,0,0.691484,76.3489,85.4576)">
        <path d="M0,-6.707L2.229,9.311C2.481,11.135 1.064,12.763 -0.777,12.763L-20.487,12.763L-20.487,-19.47C-20.246,-19.281 -19.974,-19.124 -19.669,-19.008L-15.166,-17.297L-5.51,-13.634C-2.55,-12.5 -0.43,-9.845 0,-6.707Z" style="fill:rgb(23,169,230);fill-rule:nonzero;stroke:rgb(1,51,25);stroke-width:2.89px;"/>
    </g>
    <g transform="matrix(0.691484,0,0,0.691484,49.0016,94.2835)">
        <path d="M0,-33.021L-0.073,-21.843L-0.23,0L-21.091,0C-22.58,0 -23.727,-1.316 -23.521,-2.792L-21.201,-19.471C-20.771,-22.609 -18.65,-25.264 -15.681,-26.398L-5.122,-30.407L-1.532,-31.772C-0.881,-32.013 -0.356,-32.464 0,-33.021" style="fill:rgb(23,169,230);fill-rule:nonzero;"/>
    </g>
    <g transform="matrix(0.691484,0,0,0.691484,-33.0261,-18.7101)">
        <g opacity="0.56">
            <g transform="matrix(1,0,0,1,101.003,150.088)">
                <path d="M0,-6.382L-2.708,13.088L17.392,13.088L17.392,13.319L-2.855,13.319C-4.669,13.319 -6.064,11.717 -5.814,9.92L-3.579,-6.151C-3.149,-9.289 -1.028,-11.944 1.941,-13.078L12.501,-17.088L16.09,-18.452C16.741,-18.694 17.266,-19.145 17.622,-19.701L17.612,-17.896L16.08,-17.319L5.521,-13.309C2.55,-12.175 0.43,-9.52 0,-6.382" style="fill:white;fill-rule:nonzero;"/>
            </g>
        </g>
    </g>
    <g transform="matrix(0.691484,0,0,0.691484,57.8929,65.3315)">
        <path d="M0,-26.617C-1.627,-13.938 -15.514,-15.156 -15.514,-15.156C-15.598,-16.058 -16.343,-17.213 -17.435,-17.213C-18.18,-17.213 -18.62,-15.596 -18.441,-13.76C-18.264,-11.923 -17.654,-10.17 -17.57,-8.732C-17.486,-7.284 -15.377,-6.979 -15.377,-6.979C-15.44,-4.88 -14.075,-2.697 -12.364,-0.85L-12.364,7.169C-12.364,7.778 -12.543,8.355 -12.858,8.848C-13.215,9.405 -13.739,9.856 -14.391,10.097L-17.98,11.462C-17.98,11.462 -24.089,3.821 -24.089,-10.527C-24.089,-24.865 -16.531,-38.425 -3.17,-38.425C10.201,-38.425 17.759,-24.865 17.759,-10.527C17.759,3.821 11.65,11.462 11.65,11.462L11.524,11.808L7.021,10.097C6.717,9.982 6.444,9.825 6.203,9.636C5.457,9.048 6.013,8.018 6.013,7.042L4.996,0.064C6.916,-2.057 8.743,-4.817 9.058,-7.43C11.314,-7.2 11.083,-10.212 11.188,-11.954C11.282,-13.697 12.595,-16.552 11.713,-17.265C10.821,-17.99 9.908,-16.258 7.735,-16.342C0.619,-16.625 0.01,-26.617 0.01,-26.617L0,-26.617Z" style="fill:rgb(1,51,25);fill-rule:nonzero;"/>
    </g>
    <g transform="matrix(0.691484,0,0,0.691484,49.3432,50.6424)">
        <path d="M0,20.393C-1.711,18.546 -3.076,16.363 -3.013,14.264C-3.013,14.264 -5.122,13.959 -5.206,12.511C-5.29,11.073 -5.899,9.32 -6.077,7.483C-6.256,5.646 -5.815,4.03 -5.07,4.03C-3.979,4.03 -3.233,5.185 -3.149,6.087C-3.149,6.087 10.737,7.305 12.364,-5.374L12.374,-5.374C12.374,-5.374 12.983,4.618 20.1,4.901C22.272,4.985 23.186,3.253 24.077,3.977C24.959,4.691 23.646,7.546 23.553,9.289C23.447,11.031 23.679,14.043 21.422,13.812C21.107,16.426 19.28,19.186 17.36,21.307C15.827,22.986 14.222,24.256 13.256,24.718C11.073,25.767 9.509,25.652 9.509,25.652L9.352,25.652C8.9,25.652 7.462,25.578 5.573,24.718C4.345,24.161 1.941,22.503 0,20.393" style="fill:rgb(252,213,197);fill-rule:nonzero;"/>
    </g>
    <g transform="matrix(0.691484,0,0,0.691484,49.3432,75.0722)">
        <path d="M0,-14.663L0,-9.909C0,-9.528 -0.179,-9.166 -0.493,-8.856L-0.567,-1.849L-0.493,-1.849C-0.493,-1.849 2.718,0 9.194,0C15.681,0 18.567,-2.014 18.567,-2.014L18.567,-4.641C11.313,-4.825 4.31,-8.256 0,-14.663" style="fill:rgb(252,213,197);fill-rule:nonzero;"/>
    </g>
    <g transform="matrix(0.691484,0,0,0.691484,62.0513,68.6727)">
        <path d="M0,-0.734L0.189,-5.348C-0.077,-5.165 -0.39,-4.985 -0.717,-4.808C-0.765,-4.736 -0.823,-4.671 -0.896,-4.619C-1.508,-4.182 -2.142,-3.802 -2.793,-3.467C-2.798,-3.343 -2.85,-3.218 -2.984,-3.109C-3.386,-2.788 -3.818,-2.52 -4.264,-2.278C-5.136,-1.676 -6.084,-1.213 -7.153,-0.95C-9.247,-0.437 -11.203,-0.734 -13.144,-1.631C-13.348,-1.726 -13.436,-1.879 -13.444,-2.042C-13.863,-2.194 -14.267,-2.398 -14.652,-2.632C-15.037,-2.867 -15.408,-3.122 -15.788,-3.363C-16.121,-3.574 -16.545,-3.824 -16.855,-3.953C-17.153,-4.076 -17.364,-4.342 -17.271,-4.684C-17.266,-4.704 -17.249,-4.721 -17.241,-4.741C-17.52,-4.852 -17.804,-4.949 -18.099,-5.02C-13.77,1.132 -6.913,4.433 0.189,4.614L0.189,0.891C-0.557,0.523 0,-0.122 0,-0.734" style="fill:rgb(232,193,179);fill-rule:nonzero;"/>
    </g>
    <g transform="matrix(0.691484,0,0,0.691484,47.26,46.3383)">
        <path d="M0,20.488C0,20.488 -2.109,20.184 -2.193,18.735C-2.277,17.297 -2.887,15.544 -3.064,13.708C-3.243,11.871 -2.803,10.255 -2.058,10.255C-0.966,10.255 -0.221,11.409 -0.137,12.312C-0.137,12.312 13.75,13.529 15.377,0.85C15.419,0.577 15.45,0.294 15.471,0" style="fill:none;fill-rule:nonzero;stroke:rgb(1,51,25);stroke-width:2.89px;"/>
    </g>
    <g transform="matrix(0.691484,0,0,0.691484,64.1561,68.4601)">
        <path d="M0,-11.955C-0.314,-9.342 -2.142,-6.581 -4.062,-4.461C-5.595,-2.782 -7.2,-1.512 -8.166,-1.05C-10.349,0 -11.913,-0.116 -11.913,-0.116L-12.07,-0.116C-12.521,-0.116 -13.96,-0.189 -15.849,-1.05C-17.077,-1.606 -19.48,-3.265 -21.422,-5.374C-23.133,-7.222 -24.498,-9.405 -24.435,-11.504" style="fill:none;fill-rule:nonzero;stroke:rgb(1,51,25);stroke-width:2.89px;"/>
    </g>
    <g transform="matrix(-0.431674,0.540193,0.540193,0.431674,70.2117,54.4313)">
        <path d="M2.636,-20.685C2.636,-20.685 10.062,-13.972 5.84,-8.235C4.55,-6.486 2.626,-6.853 2.636,-5.704C2.643,-4.57 5.693,-3.814 7.112,-2.798C8.54,-1.794 10.748,0.268 11.977,-1.639" style="fill:none;fill-rule:nonzero;stroke:rgb(1,51,25);stroke-width:2.89px;"/>
    </g>
    <g transform="matrix(0.691484,0,0,0.691484,45.4597,38.7613)">
        <path d="M0,49.887C0,49.887 -6.108,42.246 -6.108,27.898C-6.108,13.56 1.449,0 14.811,0" style="fill:none;fill-rule:nonzero;stroke:rgb(1,51,25);stroke-width:2.89px;"/>
    </g>
    <g transform="matrix(0.691484,0,0,0.691484,65.949,38.7613)">
        <path d="M0,49.887C0,49.887 6.108,42.246 6.108,27.898C6.108,13.56 -1.449,0 -14.82,0" style="fill:none;fill-rule:nonzero;stroke:rgb(1,51,25);stroke-width:2.89px;"/>
    </g>
    <g transform="matrix(0.691484,0,0,0.691484,49.0016,94.2833)">
        <path d="M0,-42.719L-0.073,-21.843L-0.23,0" style="fill:none;fill-rule:nonzero;stroke:rgb(1,51,25);stroke-width:2.89px;"/>
    </g>
    <g transform="matrix(0.691484,0,0,0.691484,62.1823,65.1115)">
        <path d="M0,42.187L0,0" style="fill:none;fill-rule:nonzero;stroke:rgb(1,51,25);stroke-width:2.89px;"/>
    </g>
    <g transform="matrix(0.691484,0,0,0.691484,49.0016,74.8912)">
        <path d="M0,-2.688C0,-2.688 3.212,0.262 9.688,0.262C16.175,0.262 19.062,-2.95 19.062,-2.95" style="fill:none;fill-rule:nonzero;stroke:rgb(1,51,25);stroke-width:2.89px;"/>
    </g>
    <g transform="matrix(0.691484,0,0,0.691484,34.5857,85.4576)">
        <path d="M0,-6.707L-2.229,9.311C-2.481,11.135 -1.064,12.763 0.777,12.763L20.487,12.763L20.487,-19.47C20.246,-19.281 19.974,-19.124 19.669,-19.008L15.166,-17.297L5.51,-13.634C2.55,-12.5 0.43,-9.845 0,-6.707Z" style="fill:none;fill-rule:nonzero;stroke:rgb(1,51,25);stroke-width:2.89px;"/>
    </g>
    <g transform="matrix(0.691484,0,0,0.691484,44.3313,94.3521)">
        <path d="M0,0L33.252,0" style="fill:none;fill-rule:nonzero;stroke:rgb(1,51,25);stroke-width:2.89px;"/>
    </g>
    <g transform="matrix(0.691484,0,0,0.691484,-33.0261,-18.7101)">
        <g opacity="0.15">
            <g transform="matrix(1,0,0,1,197.211,181.806)">
                <path d="M0,-33.249C12.502,-26.012 25.004,-27.822 25.004,-9.73L25.004,0L-53.579,0L-53.579,-9.73C-53.579,-27.822 -41.077,-26.012 -28.575,-33.249L0,-33.249Z" style="fill-rule:nonzero;"/>
            </g>
            <g transform="matrix(1,0,0,1,190.068,135.893)">
                <path d="M0,19.901L-7.144,16.282L-14.288,19.901L-21.432,12.664L-17.859,7.236L-16.074,7.236L-16.074,0L-7.144,1.809L1.786,0L1.786,7.236L3.572,7.236L7.144,12.664L0,19.901Z" style="fill-rule:nonzero;"/>
            </g>
            <g transform="matrix(1,0,0,1,197.211,181.806)">
                <path d="M0,-33.249C12.502,-26.012 25.004,-27.822 25.004,-9.73L25.004,0L-53.579,0L-53.579,-9.73C-53.579,-27.822 -41.077,-26.012 -28.575,-33.249" style="fill-rule:nonzero;"/>
            </g>
            <g transform="matrix(1,0,0,1,190.068,143.129)">
                <path d="M0,12.665L-7.144,9.046L-14.288,12.665L-21.432,5.428L-17.859,0L-7.144,1.81L3.572,0L7.144,5.428L0,12.665Z" style="fill-rule:nonzero;"/>
            </g>
            <g transform="matrix(1,0,0,1,198.998,134.085)">
                <path d="M0,-21.711L0,-14.474C-1.786,-1.81 -7.144,1.809 -7.144,1.809C-10.716,3.618 -16.073,3.618 -16.073,3.618C-16.073,3.618 -21.432,3.618 -25.004,1.809C-25.004,1.809 -30.361,-1.81 -32.147,-14.474L-32.147,-21.711L-25.004,-25.329L-7.144,-18.092L0,-21.711Z" style="fill-rule:nonzero;"/>
            </g>
            <g transform="matrix(1,0,0,1,166.85,99.7106)">
                <path d="M0,12.663C0,1.672 5.224,-3.619 16.074,-3.619C26.924,-3.619 32.147,1.672 32.147,12.663L25.004,16.282L16.074,12.663L7.144,9.045L0,12.663Z" style="fill-rule:nonzero;"/>
            </g>
            <g transform="matrix(1,0,0,1,198.998,137.703)">
                <path d="M0,-25.329L0,-18.092C-1.786,-5.428 -7.144,-1.809 -7.144,-1.809C-10.716,0 -16.073,0 -16.073,0C-16.073,0 -21.432,0 -25.004,-1.809C-25.004,-1.809 -30.361,-5.428 -32.147,-18.092L-32.147,-25.329" style="fill-rule:nonzero;"/>
            </g>
            <g transform="matrix(1,0,0,1,166.85,96.0916)">
                <path d="M0,16.282C0,5.291 5.224,0 16.074,0C26.924,0 32.147,5.291 32.147,16.282" style="fill-rule:nonzero;"/>
            </g>
            <g transform="matrix(0.892118,-0.451803,-0.451803,-0.892118,168.584,119.636)">
                <path d="M1.734,7.262L9.742,7.262L16.074,-0L22.406,-7.263L30.413,-7.262" style="fill-rule:nonzero;"/>
            </g>
        </g>
    </g>
    <g transform="matrix(0.691484,0,0,0.691484,101.527,107.006)">
        <path d="M0,-32.822C12.502,-25.678 25.004,-27.464 25.004,-9.604L25.004,0L-53.579,0L-53.579,-9.604C-53.579,-27.464 -41.077,-25.678 -28.575,-32.822L0,-32.822Z" style="fill:rgb(0,204,102);fill-rule:nonzero;"/>
    </g>
    <g transform="matrix(0.691484,0,0,0.691484,86.8063,107.007)">
        <path d="M0,-32.82C-12.503,-25.68 -25.006,-27.466 -25.006,-9.608L-25.006,0L-32.291,0L-32.291,-9.608C-32.291,-27.466 -19.787,-25.68 -7.284,-32.82L0,-32.82Z" style="fill:rgb(133,237,165);fill-rule:nonzero;"/>
    </g>
    <g transform="matrix(0,-0.691484,-0.691484,0,93.6877,71.5609)">
        <path d="M-11.39,-5.98L-5.935,-5.98L-7.721,2.95L-6.033,11.39C-10.473,6.814 -11.435,0.35 -11.39,-5.98" style="fill:rgb(209,165,132);fill-rule:nonzero;"/>
    </g>
    <g transform="matrix(0.691484,0,0,0.691484,85.8116,81.6074)">
        <path d="M0,-8.496L-0.489,-8.594L-0.489,-2.032C-0.475,-2.024 -0.46,-2.024 -0.445,-2.015C0.626,-1.335 2.241,-1.258 3.464,-1.08C4.886,-0.875 6.295,-0.598 7.714,-0.384C10.924,0.098 14.325,-0.859 17.37,-1.934L17.37,-3.139C11.04,-3.094 4.576,-4.057 0,-8.496" style="fill:rgb(232,193,160);fill-rule:nonzero;"/>
    </g>
    <g transform="matrix(0.691484,0,0,0.691484,99.0578,89.2497)">
        <path d="M0,-12.502L-0.905,-12.502C-0.952,-12.422 -1.021,-12.352 -1.129,-12.313C-4.17,-11.218 -7.678,-10.129 -10.943,-10.508C-12.84,-10.729 -14.731,-11.125 -16.621,-11.405C-17.72,-11.569 -19.074,-11.721 -20.033,-12.329C-20.107,-12.377 -20.152,-12.438 -20.184,-12.502L-21.432,-12.502L-25.004,-7.144L-17.86,0L-10.716,-3.572L-3.572,0L3.571,-7.144L0,-12.502Z" style="fill:white;fill-rule:nonzero;"/>
    </g>
    <g transform="matrix(0.691484,0,0,0.691484,101.527,107.006)">
        <path d="M0,-32.822C12.502,-25.678 25.004,-27.464 25.004,-9.604L25.004,0L-53.579,0L-53.579,-9.604C-53.579,-27.464 -41.077,-25.678 -28.575,-32.822" style="fill:none;fill-rule:nonzero;stroke:rgb(1,51,25);stroke-width:2.89px;"/>
    </g>
    <g transform="matrix(0.691484,0,0,0.691484,96.5877,80.6047)">
        <path d="M0,12.502L-7.144,8.93L-14.288,12.502L-21.432,5.358L-17.859,0L-7.144,1.786L3.572,0L7.144,5.358L0,12.502Z" style="fill:none;fill-rule:nonzero;stroke:rgb(1,51,25);stroke-width:2.89px;"/>
    </g>
    <g transform="matrix(0,0.691484,0.691484,0,100.293,78.1347)">
        <path d="M-3.572,-3.572L3.572,-3.572" style="fill:none;fill-rule:nonzero;stroke:rgb(1,51,25);stroke-width:2.89px;"/>
    </g>
    <g transform="matrix(0.691484,0,0,0.691484,102.762,74.4296)">
        <path d="M0,-21.431L0,-14.287C-1.786,-1.785 -7.144,1.786 -7.144,1.786C-10.716,3.572 -16.073,3.572 -16.073,3.572C-16.073,3.572 -21.432,3.572 -25.003,1.786C-25.003,1.786 -30.361,-1.785 -32.147,-14.287L-32.147,-21.431L-25.003,-25.003L-7.144,-17.859L0,-21.431Z" style="fill:rgb(232,193,160);fill-rule:nonzero;"/>
    </g>
    <g transform="matrix(0.691484,0,0,0.691484,80.533,50.9654)">
        <path d="M0,12.502C0,1.652 5.224,-3.572 16.074,-3.572C26.924,-3.572 32.147,1.652 32.147,12.502L25.004,16.074L16.074,12.502L7.145,8.93L0,12.502Z" style="fill:rgb(1,51,25);fill-rule:nonzero;"/>
    </g>
    <g transform="matrix(0.691484,0,0,0.691484,102.762,76.8995)">
        <path d="M0,-25.003L0,-17.859C-1.786,-5.357 -7.144,-1.786 -7.144,-1.786C-10.716,0 -16.073,0 -16.073,0C-16.073,0 -21.432,0 -25.003,-1.786C-25.003,-1.786 -30.361,-5.357 -32.147,-17.859L-32.147,-25.003" style="fill:none;fill-rule:nonzero;stroke:rgb(1,51,25);stroke-width:2.89px;"/>
    </g>
    <g transform="matrix(0.691484,0,0,0.691484,80.533,48.4954)">
        <path d="M0,16.074C0,5.224 5.224,0 16.074,0C26.924,0 32.147,5.224 32.147,16.074" style="fill:none;fill-rule:nonzero;stroke:rgb(1,51,25);stroke-width:2.89px;"/>
    </g>
    <g transform="matrix(0.6185,-0.309207,-0.309207,-0.6185,81.7061,64.5804)">
        <path d="M1.697,7.187L9.685,7.187L16.074,-0L22.464,-7.188L30.45,-7.187" style="fill:none;fill-rule:nonzero;stroke:rgb(1,51,25);stroke-width:2.89px;"/>
    </g>
    <g transform="matrix(0,0.691484,0.691484,0,112.563,102.032)">
        <path d="M-7.189,-7.189L7.189,-7.189" style="fill:none;fill-rule:nonzero;stroke:rgb(1,51,25);stroke-width:2.89px;"/>
    </g>
    <g transform="matrix(0,-0.691484,-0.691484,0,91.6478,90.1124)">
        <path d="M-1.936,-1.936C-3.005,-1.936 -3.872,-1.069 -3.872,0C-3.872,1.069 -3.005,1.936 -1.936,1.936C-0.867,1.936 0,1.069 0,0C0,-1.069 -0.867,-1.936 -1.936,-1.936" style="fill:white;fill-rule:nonzero;"/>
    </g>
    <g transform="matrix(0,-0.691484,-0.691484,0,91.6478,94.2184)">
        <path d="M-1.936,-1.936C-3.005,-1.936 -3.872,-1.069 -3.872,0C-3.872,1.069 -3.005,1.936 -1.936,1.936C-0.867,1.936 0,1.069 0,0C0,-1.069 -0.867,-1.936 -1.936,-1.936" style="fill:white;fill-rule:nonzero;"/>
    </g>
    <g transform="matrix(0,-0.691484,-0.691484,0,91.6478,98.3244)">
        <path d="M-1.936,-1.936C-3.005,-1.936 -3.872,-1.069 -3.872,0C-3.872,1.069 -3.005,1.936 -1.936,1.936C-0.867,1.936 0,1.069 0,0C0,-1.069 -0.867,-1.936 -1.936,-1.936" style="fill:white;fill-rule:nonzero;"/>
    </g>
    <g transform="matrix(0,-0.691484,-0.691484,0,87.9433,78.1347)">
        <path d="M-3.572,3.572L3.572,3.572" style="fill:none;fill-rule:nonzero;stroke:rgb(1,51,25);stroke-width:2.89px;"/>
    </g>
    <g transform="matrix(0,0.691484,0.691484,0,81.7674,102.032)">
        <path d="M-7.189,-7.189L7.189,-7.189" style="fill:none;fill-rule:nonzero;stroke:rgb(1,51,25);stroke-width:2.89px;"/>
    </g>
    <g transform="matrix(0.691484,0,0,0.691484,2.39384,129.66)">
        <path d="M0,0L206.653,0" style="fill:none;fill-rule:nonzero;stroke:rgb(1,51,25);stroke-width:2.89px;"/>
    </g>
    <g transform="matrix(-0.691484,0,0,0.691484,23.7956,86.1298)">
        <rect x="-29.867" y="0" width="29.867" height="49.779" style="fill:rgb(0,204,102);"/>
    </g>
    <g transform="matrix(0.691484,0,0,0.691484,125.393,120.874)">
        <path d="M0,-35.779C-1.074,-35.779 -2.095,-35.553 -3.017,-35.145L-41.233,-21.339L-41.32,-21.319C-39.002,-22.588 -37.412,-25.019 -37.412,-27.845C-37.412,-31.97 -40.757,-35.313 -44.879,-35.313L-67.28,-35.313L-94.658,-45.268L-117.06,-45.268L-117.06,-5.445L-104.614,-5.445C-104.614,-5.445 -64.791,9.489 -57.324,9.489C-49.857,9.489 4.395,-22.275 4.395,-22.275C6.257,-23.631 7.39,-25.364 7.39,-27.845C7.39,-31.97 4.123,-35.779 0,-35.779" style="fill:white;fill-rule:nonzero;"/>
    </g>
    <g transform="matrix(0.691484,0,0,0.691484,23.7954,86.1293)">
        <rect x="0" y="0" width="29.867" height="49.78" style="fill:none;stroke:rgb(1,51,25);stroke-width:2.89px;"/>
    </g>
    <g transform="matrix(0.691484,0,0,0.691484,44.4481,111.945)">
        <path d="M0,-32.356L22.401,-32.356L49.779,-22.4L72.181,-22.4C76.303,-22.4 79.647,-19.058 79.647,-14.933C79.647,-10.809 76.303,-7.466 72.181,-7.466L44.802,-7.466C40.68,-7.466 37.335,-4.124 37.335,0" style="fill:none;fill-rule:nonzero;stroke:rgb(1,51,25);stroke-width:2.89px;"/>
    </g>
    <g transform="matrix(0,-0.691484,-0.691484,0,39.2848,113.667)">
        <path d="M-2.489,2.489L2.489,2.489" style="fill:none;fill-rule:nonzero;stroke:white;stroke-width:5.78px;stroke-linecap:butt;"/>
    </g>
    <g transform="matrix(0,-0.691484,-0.691484,0,39.2848,106.783)">
        <path d="M-2.489,2.489L2.489,2.489" style="fill:none;fill-rule:nonzero;stroke:white;stroke-width:5.78px;stroke-linecap:butt;"/>
    </g>
    <g transform="matrix(0.691484,0,0,0.691484,96.8808,117.451)">
        <path d="M0,-16.388L38.217,-30.194C39.139,-30.603 40.159,-30.828 41.233,-30.828C45.356,-30.828 48.623,-27.02 48.623,-22.895C48.623,-20.413 47.49,-18.68 45.628,-17.324C45.628,-17.324 -8.624,14.44 -16.091,14.44C-23.558,14.44 -63.381,-0.494 -63.381,-0.494L-75.826,-0.494" style="fill:none;fill-rule:nonzero;stroke:rgb(1,51,25);stroke-width:2.89px;"/>
    </g>
    <g transform="matrix(-0.691484,0.000514842,0.000514842,0.691484,87.4584,38.6154)">
        <path d="M0.477,-13.431C0.477,-13.431 -0.061,-7.83 6.806,-6.51C6.806,-6.51 0.584,-6.023 0.477,-0C0.477,-0 0.423,-5.3 -6.324,-6.711C-6.324,-6.711 -0.18,-7.227 0.477,-13.431" style="fill:rgb(0,204,102);fill-rule:nonzero;"/>
    </g>
    <g transform="matrix(-0.691484,0.000514842,0.000514842,0.691484,21.8525,78.2498)">
        <path d="M0.477,-13.431C0.477,-13.431 -0.061,-7.83 6.806,-6.51C6.806,-6.51 0.584,-6.023 0.477,-0C0.477,-0 0.422,-5.3 -6.324,-6.711C-6.324,-6.711 -0.18,-7.227 0.477,-13.431" style="fill:rgb(23,169,230);fill-rule:nonzero;"/>
    </g>
    <g transform="matrix(-0.691484,0.000592169,0.000592169,0.691484,28.8605,67.1174)">
        <path d="M0.29,-8.174C0.29,-8.174 -0.037,-4.765 4.143,-3.962C4.143,-3.962 0.355,-3.666 0.29,-0C0.29,-0 0.258,-3.226 -3.849,-4.084C-3.849,-4.084 -0.109,-4.399 0.29,-8.174" style="fill:white;fill-rule:nonzero;"/>
    </g>
    <g transform="matrix(-0.691484,0.000550169,0.000550169,0.691484,118.929,78.7065)">
        <path d="M0.312,-8.798C0.312,-8.798 -0.04,-5.129 4.459,-4.264C4.459,-4.264 0.381,-3.945 0.312,-0C0.312,-0 0.277,-3.472 -4.143,-4.396C-4.143,-4.396 -0.119,-4.734 0.312,-8.798" style="fill:rgb(175,179,177);fill-rule:nonzero;"/>
    </g>
</svg>
