<?xml version="1.0" encoding="UTF-8" standalone="no"?>
<!DOCTYPE svg PUBLIC "-//W3C//DTD SVG 1.1//EN" "http://www.w3.org/Graphics/SVG/1.1/DTD/svg11.dtd">
<svg width="100%" height="100%" viewBox="0 0 100 100" version="1.1" xmlns="http://www.w3.org/2000/svg" xmlns:xlink="http://www.w3.org/1999/xlink" xml:space="preserve" xmlns:serif="http://www.serif.com/" style="fill-rule:evenodd;clip-rule:evenodd;stroke-linejoin:round;stroke-miterlimit:2;">
    <g transform="matrix(0.196539,0,0,0.196539,40.1363,41.0702)">
        <g transform="matrix(4.16667,0,0,4.16667,-1334.75,-1388.67)">
            <path d="M353.653,326.726L352.167,338.113C358.009,340.686 358.923,327.285 358.923,327.285C357.572,323.944 353.653,326.726 353.653,326.726Z" style="fill:rgb(141,86,49);fill-rule:nonzero;"/>
        </g>
        <g transform="matrix(4.16667,0,0,4.16667,-1334.75,-1388.67)">
            <path d="M304.963,327.285C304.963,327.285 305.876,340.686 311.719,338.113L310.233,326.726C310.233,326.726 306.313,323.944 304.963,327.285Z" style="fill:rgb(141,86,49);fill-rule:nonzero;"/>
        </g>
        <g transform="matrix(4.16667,0,0,4.16667,-1334.75,-1388.67)">
            <rect x="321.648" y="356.441" width="21.304" height="11.205" style="fill:rgb(141,86,49);fill-rule:nonzero;"/>
        </g>
        <g transform="matrix(4.16667,0,0,4.16667,-1334.75,-1388.67)">
            <path d="M327.298,365.04L321.648,362.071L321.648,356.441L342.952,356.441L342.952,356.837C342.692,357.246 342.412,357.628 342.159,357.965C340.862,359.684 339.139,361.156 337.001,362.396C334.368,363.921 331.033,364.927 327.607,365.031C327.504,365.035 327.401,365.037 327.298,365.04Z" style="fill:rgb(119,72,39);fill-rule:nonzero;"/>
        </g>
        <g transform="matrix(4.16667,0,0,4.16667,-1334.75,-1388.67)">
            <path d="M321.217,356.804C325.305,359.378 329.501,360.583 331.947,360.744C332.047,360.738 332.151,360.729 332.258,360.719C332.365,360.729 332.469,360.738 332.569,360.744C335.015,360.583 339.54,359.2 343.628,356.626C343.628,356.626 334.252,361.103 321.217,356.804Z" style="fill:rgb(127,76,32);fill-rule:nonzero;"/>
        </g>
        <g transform="matrix(4.16667,0,0,4.16667,-1334.75,-1388.67)">
            <path d="M343.137,367.646L371.909,375.136C371.909,375.136 381.727,376.639 384.231,385.461L388.525,401.453L276.153,401.453L280.447,385.461C282.952,376.639 292.77,375.136 292.77,375.136L321.458,367.646L343.137,367.646Z" style="fill:rgb(141,86,49);fill-rule:nonzero;"/>
        </g>
        <g transform="matrix(4.16667,0,0,4.16667,-1334.75,-1388.67)">
            <path d="M276.153,401.453L280.447,385.461C282.952,376.639 292.77,375.136 292.77,375.136L321.458,367.646L343.137,367.646L371.909,375.136C371.909,375.136 381.727,376.639 384.231,385.461L388.525,401.453L276.153,401.453Z" style="fill:white;fill-rule:nonzero;"/>
        </g>
        <g transform="matrix(4.16667,0,0,4.16667,-1334.75,-1388.67)">
            <path d="M334.189,367.646L330.489,367.646L325.22,375.951L329.932,381.256L334.747,381.256L339.459,375.951L334.189,367.646Z" style="fill:rgb(237,81,79);fill-rule:nonzero;"/>
        </g>
        <g transform="matrix(4.16667,0,0,4.16667,-1334.75,-1388.67)">
            <path d="M334.747,381.256L329.932,381.256L326.123,376.968L331.172,369.296C330.92,373.263 332.252,377.396 334.959,380.244C335.075,380.366 335.199,380.486 335.325,380.604L334.747,381.256Z" style="fill:rgb(177,59,57);fill-rule:nonzero;"/>
        </g>
        <g transform="matrix(4.16667,0,0,4.16667,-1334.75,-1388.67)">
            <path d="M350.777,369.635L350.755,369.629L342.986,362.401L342.952,362.419L342.986,362.401L350.777,369.635Z" style="fill:rgb(188,190,192);fill-rule:nonzero;"/>
        </g>
        <g transform="matrix(4.16667,0,0,4.16667,-1334.75,-1388.67)">
            <path d="M339.329,378.65L338.359,377.19L338.924,376.554L339.457,377.238L351.461,370.286L350.755,369.629L350.777,369.635L352.166,370.925L339.329,378.65Z" style="fill:rgb(188,190,192);fill-rule:nonzero;"/>
        </g>
        <g transform="matrix(4.16667,0,0,4.16667,-1334.75,-1388.67)">
            <path d="M338.359,377.19L332.258,368.002L338.924,376.554L338.359,377.19Z" style="fill:rgb(177,59,57);fill-rule:nonzero;"/>
        </g>
        <g transform="matrix(4.16667,0,0,4.16667,-1334.75,-1388.67)">
            <path d="M342.986,362.401L332.258,368.002L339.457,377.238L351.461,370.286L342.986,362.401Z" style="fill:white;fill-rule:nonzero;"/>
        </g>
        <g transform="matrix(4.16667,0,0,4.16667,-1334.75,-1388.67)">
            <path d="M313.251,369.788L321.593,362.042L321.648,362.071L321.648,367.646L332.258,367.646L321.458,367.646L313.251,369.788Z" style="fill:rgb(188,190,192);fill-rule:nonzero;"/>
        </g>
        <g transform="matrix(4.16667,0,0,4.16667,-1334.75,-1388.67)">
            <path d="M332.258,367.646L321.648,367.646L321.648,362.071L321.648,364.824C323.196,364.97 324.758,365.051 326.308,365.051C326.639,365.051 326.969,365.047 327.298,365.04L332.258,367.646Z" style="fill:rgb(109,65,33);fill-rule:nonzero;"/>
        </g>
        <g transform="matrix(4.16667,0,0,4.16667,-1334.75,-1388.67)">
            <path d="M326.308,365.051C324.758,365.051 323.196,364.97 321.648,364.824L321.648,362.071L327.298,365.04C326.969,365.047 326.639,365.051 326.308,365.051Z" style="fill:rgb(95,55,25);fill-rule:nonzero;"/>
        </g>
        <g transform="matrix(4.16667,0,0,4.16667,-1334.75,-1388.67)">
            <path d="M325.251,378.293L312.414,370.567L313.251,369.788L321.458,367.646L332.258,367.646L330.489,367.646L325.22,375.951L326.123,376.968L325.251,378.293Z" style="fill:rgb(188,190,192);fill-rule:nonzero;"/>
        </g>
        <g transform="matrix(4.16667,0,0,4.16667,-1334.75,-1388.67)">
            <path d="M325.22,375.951L330.489,367.646L332.258,367.646L331.172,369.296C331.207,368.741 331.273,368.19 331.371,367.646L330.489,367.646L325.22,375.951Z" style="fill:rgb(177,59,57);fill-rule:nonzero;"/>
        </g>
        <g transform="matrix(4.16667,0,0,4.16667,-1334.75,-1388.67)">
            <path d="M326.123,376.968L325.22,375.951L330.489,367.646L331.371,367.646C331.273,368.19 331.207,368.741 331.172,369.296L326.123,376.968Z" style="fill:rgb(137,41,39);fill-rule:nonzero;"/>
        </g>
        <g transform="matrix(4.16667,0,0,4.16667,-1334.75,-1388.67)">
            <path d="M321.593,362.042L332.323,367.646L325.123,376.88L313.119,369.93L321.593,362.042Z" style="fill:white;fill-rule:nonzero;"/>
        </g>
        <g transform="matrix(4.16667,0,0,4.16667,-1334.75,-1388.67)">
            <path d="M313.255,369.802L292.77,375.136C292.77,375.136 282.952,376.639 280.447,385.461L276.153,401.453L388.525,401.453L384.231,385.461C381.727,376.639 371.909,375.136 371.909,375.136L350.457,368.981L332.258,400.657L313.255,369.802Z" style="fill:rgb(8,63,83);fill-rule:nonzero;"/>
        </g>
        <g transform="matrix(4.16667,0,0,4.16667,-1334.75,-1388.67)">
            <path d="M329.85,381.256L327.285,392.583L332.258,400.657L336.899,392.579L334.665,381.256L329.85,381.256Z" style="fill:rgb(237,81,79);fill-rule:nonzero;"/>
        </g>
        <g transform="matrix(4.16667,0,0,4.16667,-1334.75,-1388.67)">
            <path d="M313.255,369.802L303.55,372.329L309.023,374.452L305.646,378.293L325.22,401.453L332.825,401.453L313.255,369.802Z" style="fill:rgb(0,44,61);fill-rule:nonzero;"/>
        </g>
        <g transform="matrix(4.16667,0,0,4.16667,-1334.75,-1388.67)">
            <path d="M350.457,368.981L361.134,372.043L355.66,374.452L359.039,378.293L339.465,401.453L331.859,401.453L350.457,368.981Z" style="fill:rgb(0,44,61);fill-rule:nonzero;"/>
        </g>
        <g transform="matrix(4.16667,0,0,4.16667,-1334.75,-1388.67)">
            <path d="M332.308,293.532L332.308,293.529L332.292,293.529L332.292,293.532C318.68,293.916 308.292,299.507 308.341,318.792C308.371,330.227 309.414,333.599 312.746,346.646C315.05,355.673 327.315,360.436 331.989,360.744C332.089,360.738 332.193,360.729 332.3,360.719C332.407,360.729 332.511,360.738 332.611,360.744C337.286,360.436 349.55,355.673 351.855,346.646C355.187,333.599 356.229,330.227 356.259,318.792C356.308,299.507 345.919,293.916 332.308,293.532Z" style="fill:rgb(141,86,49);fill-rule:nonzero;"/>
        </g>
        <g transform="matrix(4.16667,0,0,4.16667,-1334.75,-1388.67)">
            <path d="M314.731,298.175C302.578,303.906 308.122,324.767 308.122,324.767L309.442,334.082L310.817,334.488L310.817,328.067C315.357,323.904 313.672,319.309 313.672,319.309C313.672,319.309 312.84,304.38 320.623,302.211L314.731,298.175Z" style="fill:rgb(53,30,14);fill-rule:nonzero;"/>
        </g>
        <g transform="matrix(4.16667,0,0,4.16667,-1334.75,-1388.67)">
            <path d="M348.029,292.404C341.284,287.648 331.263,289.044 323.786,290.433C320.1,291.117 315.532,292.161 313.974,296.047C312.479,299.78 315.627,301.434 318.837,301.957C322.053,305.707 332.851,316.772 350.331,319.586C350.321,319.717 350.316,319.844 350.305,319.976C350.305,319.976 348.621,324.573 353.16,328.737L353.16,335.156L354.535,334.749L355.856,325.437C355.856,325.437 362.745,302.782 348.029,292.404Z" style="fill:rgb(53,30,14);fill-rule:nonzero;"/>
        </g>
        <g transform="matrix(4.16667,0,0,4.16667,-1334.75,-1388.67)">
            <path d="M316.299,298.624C316.705,299.31 317.58,300.175 317.817,300.701C317.961,299.791 317.502,298.99 317.618,298.12C318.914,298.865 320.593,299.134 321.92,299.72C321.925,298.976 321.819,298.022 321.613,297.294C323.863,297.223 325.215,299.272 327.297,299.423C327.427,298.267 326.924,297.329 326.904,296.294C329.122,296.326 330.988,298.458 333.171,298.337C333.136,297.613 332.921,296.573 332.777,295.792C334.81,295.78 337.886,298.533 339.37,299.809C339.478,298.83 339.428,297.812 339.676,296.85C342.481,298.088 344.664,300.417 347.158,302.122C347.292,301.242 347.013,300.42 347.088,299.562C350.023,301.187 351.501,304.991 353.502,307.544C353.556,306.839 353.009,306.273 353.066,305.576C353.573,306.331 354.042,307.167 354.563,307.941C353.43,306.239 352.639,303.906 351.941,301.938C352.218,302.64 352.479,303.328 352.794,304.011C351.666,302.165 349.659,300.338 349.22,298.159C349.018,298.634 349.309,299.227 349.65,299.654C348.729,298.298 346.699,296.215 345.208,295.568C345.255,296.322 346.027,296.861 346.125,297.607C345.008,296.895 343.847,295.311 342.568,295.022C342.63,295.221 342.543,295.601 342.614,295.811C341.142,295.99 339.392,294.493 338.217,293.746C338.165,294.227 338.39,294.669 338.457,295.127C337.367,294.793 336.307,293.795 335.17,293.584C335.014,293.936 335,294.342 335.116,294.72C333.511,294.704 331.97,293.98 330.404,294.036C330.456,294.22 330.38,294.652 330.429,294.801C329.648,294.351 327.742,293.651 326.834,293.946C326.029,294.211 326.198,294.231 326.244,295.178C324.906,295.186 323.55,295.019 322.212,294.989C322.164,295.377 322.003,295.727 322.006,296.118C321.042,296.156 320.104,295.858 319.14,295.883C319.129,296.113 318.951,296.297 318.952,296.535C318,296.532 316.395,296.081 316.569,297.575C316.445,297.538 316.283,297.516 316.145,297.464C316.006,297.946 316.112,298.365 316.537,298.52" style="fill:rgb(71,45,30);fill-rule:nonzero;"/>
        </g>
    </g>
</svg>
