<?xml version="1.0" encoding="UTF-8" standalone="no"?>
<!DOCTYPE svg PUBLIC "-//W3C//DTD SVG 1.1//EN" "http://www.w3.org/Graphics/SVG/1.1/DTD/svg11.dtd">
<svg width="100%" height="100%" viewBox="0 0 100 100" version="1.1" xmlns="http://www.w3.org/2000/svg" xmlns:xlink="http://www.w3.org/1999/xlink" xml:space="preserve" xmlns:serif="http://www.serif.com/" style="fill-rule:evenodd;clip-rule:evenodd;stroke-linejoin:round;stroke-miterlimit:2;">
    <g transform="matrix(0.19444,0,0,0.19444,41.1348,40.3578)">
        <g transform="matrix(4.16667,0,0,4.16667,-326.285,-296.631)">
            <rect x="80.27" y="94.52" width="20.495" height="11.842" style="fill:rgb(141,86,49);fill-rule:nonzero;"/>
        </g>
        <g transform="matrix(4.16667,0,0,4.16667,-326.285,-296.631)">
            <path d="M84.753,103.619C83.261,103.619 81.759,103.534 80.27,103.381L80.27,94.52L100.765,94.52L100.765,94.94C100.517,95.371 100.247,95.777 100.001,96.133C98.754,97.949 97.096,99.504 95.04,100.814C92.506,102.426 89.297,103.488 86.001,103.599C85.586,103.613 85.17,103.619 84.753,103.619Z" style="fill:rgb(119,72,39);fill-rule:nonzero;"/>
        </g>
        <g transform="matrix(4.16667,0,0,4.16667,-326.285,-296.631)">
            <path d="M115.897,62.281C115.897,43.296 104.521,32.385 90.456,32.295L90.335,32.294L90.282,32.294L90.161,32.295C76.092,32.385 64.719,43.296 64.719,62.281C64.719,86.905 82.444,101.263 90.28,101.327L90.282,101.328L90.307,101.327L90.335,101.328L90.335,101.327C98.172,101.263 115.897,86.905 115.897,62.281Z" style="fill:rgb(141,86,49);fill-rule:nonzero;"/>
        </g>
        <g transform="matrix(4.16667,0,0,4.16667,-326.285,-296.631)">
            <path d="M113.376,69.31L111.915,80.499C117.655,83.027 118.554,69.86 118.554,69.86C117.226,66.578 113.376,69.31 113.376,69.31Z" style="fill:rgb(141,86,49);fill-rule:nonzero;"/>
        </g>
        <g transform="matrix(4.16667,0,0,4.16667,-326.285,-296.631)">
            <path d="M62.711,69.86C62.711,69.86 63.61,83.027 69.35,80.499L67.889,69.31C67.889,69.31 64.038,66.578 62.711,69.86Z" style="fill:rgb(141,86,49);fill-rule:nonzero;"/>
        </g>
        <g transform="matrix(4.16667,0,0,4.16667,-326.285,-296.631)">
            <path d="M80.19,105.461L55.538,113.083C55.538,113.083 46.911,114.614 44.71,123.595L40.936,139.874L139.681,139.874L135.907,123.595C133.706,114.614 125.079,113.083 125.079,113.083L100.429,105.461L80.19,105.461Z" style="fill:rgb(141,86,49);fill-rule:nonzero;"/>
        </g>
        <g transform="matrix(4.16667,0,0,4.16667,-326.285,-296.631)">
            <path d="M139.681,139.874L135.907,123.595C133.706,114.614 125.079,113.083 125.079,113.083L114.587,109.839C114.587,109.839 119.021,121.046 98.42,129.299C98.42,129.299 92.374,131.134 90.46,135.649L90.282,136.062L90.157,135.649C88.243,131.134 82.196,129.299 82.196,129.299C61.594,121.046 66.03,109.839 66.03,109.839L55.538,113.083C55.538,113.083 46.911,114.614 44.71,123.595L40.936,139.874L91.444,139.876L91.444,139.874L139.681,139.874Z" style="fill:rgb(121,208,226);fill-rule:nonzero;"/>
        </g>
        <g transform="matrix(4.16667,0,0,4.16667,-326.285,-296.631)">
            <path d="M74.471,45.545C74.471,45.545 94.116,35.524 101.384,55.576C101.384,55.576 104.319,24.943 74.471,45.545Z" style="fill-rule:nonzero;"/>
        </g>
        <g transform="matrix(4.16667,0,0,4.16667,-326.285,-296.631)">
            <path d="M77.28,34.171C77.28,34.171 74.223,42.419 75.627,44.76C75.627,44.76 65.985,48.692 65.079,68.248C65.079,68.248 64.198,68.015 63.073,69.188C63.073,69.188 55.741,41.526 77.28,34.171Z" style="fill:rgb(25,4,0);fill-rule:nonzero;"/>
        </g>
        <g transform="matrix(4.16667,0,0,4.16667,-326.285,-296.631)">
            <path d="M74.471,45.545C74.471,45.545 98.26,28.113 100.765,53.45C100.765,53.45 104.413,69.638 115.897,68.243C115.897,68.243 122.931,52.099 109.353,35.243C109.353,35.243 99.754,23.07 85.708,27.463C85.708,27.463 71.895,32.294 74.471,45.545Z" style="fill:rgb(25,4,0);fill-rule:nonzero;"/>
        </g>
        <g transform="matrix(4.16667,0,0,4.16667,-326.285,-296.631)">
            <path d="M66.03,80.033C66.03,80.033 67.68,98.071 80.27,103.381L80.27,96.726C80.27,96.726 71.661,89.011 68.417,80.78C68.417,80.78 66.854,81.006 66.03,80.033Z" style="fill:rgb(25,4,0);fill-rule:nonzero;"/>
        </g>
        <g transform="matrix(4.16667,0,0,4.16667,-326.285,-296.631)">
            <path d="M111.915,80.499C111.915,80.499 106.952,92.082 100.757,95.873L97.362,103.619C97.362,103.619 92.797,114.486 100.765,119.524C100.765,119.524 111.915,126.893 95.934,137.193C96.413,136.886 98.188,137.204 98.719,137.2C101.087,137.178 103.464,137.093 105.802,136.709C110.267,135.973 115.177,134.733 117.894,130.778C120.716,126.664 119.444,120.924 116.688,117.129C115.048,114.864 113.415,112.295 113.296,109.407C113.14,105.646 116.421,103.039 117.968,99.926C119.769,96.304 120.181,91.824 118.673,88.033C117.374,84.765 114.872,82.345 111.915,80.499Z" style="fill:rgb(25,4,0);fill-rule:nonzero;"/>
        </g>
        <g transform="matrix(4.16667,0,0,4.16667,-326.285,-296.631)">
            <path d="M100.8,73.925C100.8,73.925 94.342,73.253 94.116,66.712C94.116,66.712 93.96,64.649 94.577,63.123C94.577,63.123 101.644,60.694 109.632,63.102C109.632,63.102 111.708,75.06 100.8,73.925ZM85.872,66.868C85.645,73.411 79.188,74.081 79.188,74.081C68.282,75.216 70.356,63.258 70.356,63.258C78.346,60.85 85.411,63.28 85.411,63.28C86.03,64.804 85.872,66.868 85.872,66.868ZM115.647,63.236L111.269,61.864L111.267,61.979C101.519,59.068 92.909,62.026 92.909,62.026L92.907,62.038C90.393,62.625 88.09,62.355 86.721,62.071C86.442,61.987 86.001,61.864 85.422,61.727L85.42,61.727L85.422,61.727C82.543,61.049 76.251,60.047 69.297,61.971L69.293,61.886L64.971,62.724L64.971,66.501L68.659,67.544C69.286,71.558 71.661,76.216 79.458,75.405C79.458,75.405 87.364,74.583 87.641,66.574C87.641,66.574 87.684,66.024 87.651,65.246C89.795,63.217 91.604,64.674 92.327,65.459C92.317,66.036 92.346,66.419 92.346,66.419C92.624,74.426 100.528,75.248 100.528,75.248C108.118,76.038 110.571,71.649 111.274,67.713L115.538,67.01L115.647,63.236Z" style="fill:white;fill-rule:nonzero;"/>
        </g>
    </g>
</svg>
