<?xml version="1.0" encoding="UTF-8" standalone="no"?>
<!DOCTYPE svg PUBLIC "-//W3C//DTD SVG 1.1//EN" "http://www.w3.org/Graphics/SVG/1.1/DTD/svg11.dtd">
<svg width="100%" height="100%" viewBox="0 0 150 150" version="1.1" xmlns="http://www.w3.org/2000/svg" xmlns:xlink="http://www.w3.org/1999/xlink" xml:space="preserve" xmlns:serif="http://www.serif.com/" style="fill-rule:evenodd;clip-rule:evenodd;stroke-linecap:round;stroke-miterlimit:10;">
    <g transform="matrix(1,0,0,1,-81.2234,-60.77)">
        <g transform="matrix(0.714282,0,0,0.714282,225.09,73.94)">
            <path d="M0,165.353C0,165.353 -8.443,133.979 2.471,118.964C13.386,103.95 11.878,77.01 -20.242,67.437C-52.362,57.866 -40.065,29.106 -64.535,14.554C-89.004,0 -119.115,7.069 -133.945,37.318C-148.775,67.568 -183.415,44.565 -198.151,67.437C-210.625,86.798 -182.963,96.447 -187.958,111.373C-192.954,126.299 -205.631,150.476 -196.051,165.353L0,165.353Z" style="fill:rgb(212,216,219);fill-rule:nonzero;"/>
        </g>
        <g transform="matrix(0.714282,0,0,0.714282,138.511,180.522)">
            <path d="M0,-8.399L2.79,11.661C3.108,13.946 1.333,15.984 -0.974,15.984L-25.658,15.984L-25.658,-24.383C-25.356,-24.146 -25.014,-23.949 -24.633,-23.804L-18.994,-21.662L-6.901,-17.074C-3.194,-15.655 -0.539,-12.329 0,-8.399" style="fill:rgb(23,169,230);fill-rule:nonzero;"/>
        </g>
        <g transform="matrix(0.714282,0,0,0.714282,120.184,191.939)">
            <path d="M0,-27.683L0,0L-24.16,0L-23.963,-27.354L-23.871,-27.354C-23.871,-27.354 -19.849,-23.661 -11.738,-23.661C-3.615,-23.661 0,-27.683 0,-27.683" style="fill:white;fill-rule:nonzero;"/>
        </g>
        <g transform="matrix(0.714282,0,0,0.714282,103.134,191.939)">
            <path d="M0,-41.353L-0.092,-27.354L-0.289,0L-26.415,0C-28.279,0 -29.714,-1.648 -29.458,-3.496L-26.552,-24.383C-26.013,-28.313 -23.358,-31.639 -19.638,-33.059L-6.415,-38.08L-1.919,-39.789C-1.104,-40.091 -0.447,-40.656 0,-41.353" style="fill:rgb(23,169,230);fill-rule:nonzero;"/>
        </g>
        <g transform="matrix(0.714282,0,0,0.714282,44.6358,38.7919)">
            <g opacity="0.56">
                <g transform="matrix(1,0,0,1,59.8278,197.725)">
                    <path d="M0,-7.991L-3.392,16.392L21.781,16.392L21.781,16.681L-3.577,16.681C-5.848,16.681 -7.595,14.675 -7.282,12.425L-4.482,-7.702C-3.943,-11.632 -1.288,-14.958 2.432,-16.377L15.655,-21.399L20.151,-23.107C20.965,-23.409 21.623,-23.975 22.07,-24.672L22.057,-22.41L20.138,-21.688L6.914,-16.666C3.194,-15.247 0.539,-11.921 0,-7.991" style="fill:white;fill-rule:nonzero;"/>
                </g>
            </g>
        </g>
        <g transform="matrix(0.714282,0,0,0.714282,114.635,154.487)">
            <path d="M0,-33.335C-2.038,-17.456 -19.428,-18.981 -19.428,-18.981C-19.533,-20.111 -20.466,-21.557 -21.833,-21.557C-22.767,-21.557 -23.318,-19.533 -23.095,-17.233C-22.872,-14.933 -22.109,-12.737 -22.004,-10.937C-21.899,-9.123 -19.257,-8.741 -19.257,-8.741C-19.336,-6.112 -17.627,-3.378 -15.484,-1.065L-15.484,8.978C-15.484,9.74 -15.708,10.463 -16.102,11.081C-16.549,11.777 -17.207,12.343 -18.021,12.645L-22.517,14.353C-22.517,14.353 -30.167,4.785 -30.167,-13.184C-30.167,-31.14 -20.703,-48.123 -3.97,-48.123C12.776,-48.123 22.241,-31.14 22.241,-13.184C22.241,4.785 14.59,14.353 14.59,14.353L14.433,14.788L8.794,12.645C8.413,12.5 8.071,12.303 7.769,12.066C6.835,11.331 6.257,10.2 6.257,8.978L6.257,0.079C8.662,-2.577 10.95,-6.034 11.344,-9.307C14.17,-9.018 13.881,-12.79 14.012,-14.972C14.13,-17.154 15.773,-20.73 14.669,-21.623C13.552,-22.53 12.409,-20.361 9.688,-20.466C0.775,-20.821 0.013,-33.335 0.013,-33.335L0,-33.335Z" style="fill:rgb(1,51,25);fill-rule:nonzero;"/>
        </g>
        <g transform="matrix(0.714282,0,0,0.714282,103.575,135.483)">
            <path d="M0,25.54C-2.143,23.227 -3.852,20.493 -3.772,17.864C-3.772,17.864 -6.415,17.482 -6.52,15.668C-6.625,13.868 -7.387,11.672 -7.611,9.372C-7.834,7.072 -7.282,5.048 -6.349,5.048C-4.982,5.048 -4.048,6.494 -3.943,7.624C-3.943,7.624 13.447,9.149 15.484,-6.73L15.498,-6.73C15.498,-6.73 16.26,5.784 25.172,6.139C27.893,6.244 29.037,4.075 30.154,4.982C31.258,5.875 29.615,9.451 29.497,11.633C29.365,13.815 29.654,17.587 26.828,17.298C26.434,20.571 24.146,24.028 21.741,26.684C19.822,28.787 17.811,30.377 16.602,30.956C13.868,32.27 11.909,32.125 11.909,32.125L11.712,32.125C11.146,32.125 9.346,32.034 6.98,30.956C5.442,30.259 2.432,28.182 0,25.54" style="fill:rgb(202,160,120);fill-rule:nonzero;"/>
        </g>
        <g transform="matrix(0.714282,0,0,0.714282,120.184,165.66)">
            <path d="M0,-3.576L0,9.109C0,9.109 -3.615,13.131 -11.738,13.131C-19.849,13.131 -23.871,9.437 -23.871,9.437L-23.963,9.437L-23.871,-4.562C-23.477,-5.18 -23.253,-5.903 -23.253,-6.665L-23.253,-16.707C-20.821,-14.065 -17.811,-11.989 -16.273,-11.292C-13.907,-10.214 -12.106,-10.122 -11.541,-10.122L-11.344,-10.122C-11.344,-10.122 -9.385,-9.977 -6.651,-11.292C-5.442,-11.87 -3.431,-13.461 -1.512,-15.564L-1.512,-6.665C-1.512,-5.442 -0.934,-4.312 0,-3.576" style="fill:rgb(202,160,120);fill-rule:nonzero;"/>
        </g>
        <g transform="matrix(0.714282,0,0,0.714282,44.6358,38.7919)">
            <g opacity="0.21">
                <g transform="matrix(1,0,0,1,104.255,186.009)">
                    <path d="M0,-23.958L0,-18.913C-1.857,-16.896 -3.795,-15.374 -4.98,-14.813C-7.703,-13.5 -9.673,-13.645 -9.673,-13.645L-9.865,-13.645C-10.425,-13.645 -12.235,-13.74 -14.589,-14.813C-16.127,-15.518 -19.138,-17.584 -21.572,-20.227L-21.572,-10.185C-21.572,-9.433 -21.796,-8.712 -22.196,-8.087L-22.245,1.137C-22.324,1.073 -22.356,1.041 -22.356,1.041L-22.453,1.041L-22.356,-12.956C-21.956,-13.58 -21.732,-14.301 -21.732,-15.054L-21.732,-25.095C-19.314,-22.453 -16.303,-20.387 -14.766,-19.682C-12.396,-18.609 -10.585,-18.513 -10.025,-18.513L-9.833,-18.513C-9.833,-18.513 -7.879,-18.369 -5.141,-19.682C-3.923,-20.258 -1.921,-21.86 0,-23.958" style="fill-rule:nonzero;"/>
                </g>
            </g>
        </g>
        <g transform="matrix(0.714282,0,0,0.714282,119.104,191.122)">
            <path d="M0,-51.211L0,-42.312C0,-41.089 0.578,-39.959 1.512,-39.223C1.814,-38.986 2.156,-38.789 2.537,-38.645L8.176,-36.502L20.269,-31.915C23.976,-30.495 26.631,-27.169 27.17,-23.239L30.056,-2.491C30.323,-0.57 28.831,1.144 26.892,1.144L-52.302,1.144L-48.911,-23.239C-48.372,-27.169 -45.717,-30.495 -41.997,-31.915L-28.773,-36.936L-24.278,-38.645C-23.463,-38.947 -22.806,-39.512 -22.359,-40.209C-21.965,-40.827 -21.741,-41.55 -21.741,-42.312L-21.741,-52.355" style="fill:none;fill-rule:nonzero;stroke:rgb(1,51,25);stroke-width:2.8px;"/>
        </g>
        <g transform="matrix(0.714282,0,0,0.714282,100.88,129.915)">
            <path d="M0,25.659C0,25.659 -2.642,25.278 -2.747,23.464C-2.853,21.663 -3.615,19.468 -3.838,17.167C-4.062,14.867 -3.51,12.843 -2.576,12.843C-1.209,12.843 -0.276,14.289 -0.171,15.419C-0.171,15.419 17.219,16.944 19.257,1.065C19.31,0.723 19.349,0.368 19.375,0" style="fill:none;fill-rule:nonzero;stroke:rgb(1,51,25);stroke-width:2.8px;"/>
        </g>
        <g transform="matrix(0.714282,0,0,0.714282,122.738,158.533)">
            <path d="M0,-14.972C-0.394,-11.699 -2.682,-8.242 -5.087,-5.587C-7.006,-3.484 -9.017,-1.893 -10.227,-1.315C-12.96,0 -14.919,-0.145 -14.919,-0.145L-15.116,-0.145C-15.682,-0.145 -17.482,-0.237 -19.848,-1.315C-21.386,-2.012 -24.396,-4.088 -26.828,-6.73C-28.971,-9.044 -30.68,-11.778 -30.601,-14.407" style="fill:none;fill-rule:nonzero;stroke:rgb(1,51,25);stroke-width:2.8px;"/>
        </g>
        <g transform="matrix(-0.445912,0.557999,0.557999,0.445912,130.571,140.385)">
            <path d="M3.301,-25.905C3.301,-25.905 12.601,-17.497 7.315,-10.313C5.698,-8.121 3.29,-8.583 3.301,-7.144C3.309,-5.724 7.129,-4.775 8.907,-3.505C10.693,-2.245 13.46,0.335 14.998,-2.053" style="fill:none;fill-rule:nonzero;stroke:rgb(1,51,25);stroke-width:2.8px;"/>
        </g>
        <g transform="matrix(0.714282,0,0,0.714282,98.552,120.113)">
            <path d="M0,62.476C0,62.476 -7.65,52.907 -7.65,34.938C-7.65,16.983 1.814,0 18.547,0" style="fill:none;fill-rule:nonzero;stroke:rgb(1,51,25);stroke-width:2.8px;"/>
        </g>
        <g transform="matrix(0.714282,0,0,0.714282,125.057,120.113)">
            <path d="M0,62.476C0,62.476 7.65,52.907 7.65,34.938C7.65,16.983 -1.814,0 -18.56,0" style="fill:none;fill-rule:nonzero;stroke:rgb(1,51,25);stroke-width:2.8px;"/>
        </g>
        <g transform="matrix(0.714282,0,0,0.714282,103.134,191.939)">
            <path d="M0,-41.353L-0.092,-27.354L-0.289,0" style="fill:none;fill-rule:nonzero;stroke:rgb(1,51,25);stroke-width:2.8px;"/>
        </g>
        <g transform="matrix(0.714282,0,0,0.714282,120.184,163.105)">
            <path d="M0,40.367L0,0" style="fill:none;fill-rule:nonzero;stroke:rgb(1,51,25);stroke-width:2.8px;"/>
        </g>
        <g transform="matrix(0.714282,0,0,0.714282,103.134,174.804)">
            <path d="M0,-3.365C0,-3.365 4.022,0.329 12.132,0.329C20.256,0.329 23.871,-3.694 23.871,-3.694" style="fill:none;fill-rule:nonzero;stroke:rgb(1,51,25);stroke-width:2.8px;"/>
        </g>
        <g transform="matrix(-0.714282,0.000531816,0.000531816,0.714282,111.26,97.2575)">
            <path d="M0.477,-13.431C0.477,-13.431 -0.061,-7.83 6.806,-6.51C6.806,-6.51 0.583,-6.023 0.477,-0C0.477,-0 0.422,-5.3 -6.324,-6.711C-6.324,-6.711 -0.181,-7.228 0.477,-13.431" style="fill:rgb(133,237,165);fill-rule:nonzero;"/>
        </g>
        <g transform="matrix(-0.714282,0.000531816,0.000531816,0.714282,197.732,106.851)">
            <path d="M0.477,-13.431C0.477,-13.431 -0.061,-7.83 6.806,-6.51C6.806,-6.51 0.583,-6.023 0.477,-0C0.477,-0 0.422,-5.3 -6.324,-6.711C-6.324,-6.711 -0.181,-7.227 0.477,-13.431" style="fill:rgb(23,169,230);fill-rule:nonzero;"/>
        </g>
        <g transform="matrix(-0.714282,0.000531816,0.000531816,0.714282,168.676,96.1327)">
            <path d="M0.477,-13.431C0.477,-13.431 -0.061,-7.83 6.806,-6.51C6.806,-6.51 0.583,-6.023 0.477,-0C0.477,-0 0.423,-5.301 -6.324,-6.711C-6.324,-6.711 -0.181,-7.228 0.477,-13.431" style="fill:white;fill-rule:nonzero;"/>
        </g>
        <g transform="matrix(-0.714282,0.000531816,0.000531816,0.714282,214.714,151.574)">
            <path d="M0.477,-13.431C0.477,-13.431 -0.061,-7.83 6.806,-6.51C6.806,-6.51 0.584,-6.023 0.477,-0C0.477,-0 0.423,-5.301 -6.324,-6.711C-6.324,-6.711 -0.181,-7.228 0.477,-13.431" style="fill:white;fill-rule:nonzero;"/>
        </g>
        <g transform="matrix(-0.714282,0.000568308,0.000568308,0.714282,127.615,116.158)">
            <path d="M0.311,-8.798C0.311,-8.798 -0.041,-5.129 4.458,-4.263C4.458,-4.263 0.38,-3.945 0.311,-0C0.311,-0 0.276,-3.471 -4.143,-4.396C-4.143,-4.396 -0.119,-4.734 0.311,-8.798" style="fill:rgb(175,179,177);fill-rule:nonzero;"/>
        </g>
        <g transform="matrix(0.714282,0,0,0.714282,195.637,183.496)">
            <path d="M0,-24.678L3.618,-20.456L9.792,-37.158C9.792,-37.158 19.402,-34.627 24.904,-32.457C30.406,-30.286 35.704,-28.388 37.491,-24.678C39.278,-20.967 39.662,-19.563 39.662,-19.563L39.662,12.48L-6.914,12.48L-6.098,-21.98L0,-24.678Z" style="fill:white;fill-rule:nonzero;"/>
        </g>
        <g transform="matrix(0.714282,0,0,0.714282,81.2234,192.054)">
            <path d="M0,0L206.654,0" style="fill:none;fill-rule:nonzero;stroke:rgb(1,51,25);stroke-width:2.8px;"/>
        </g>
        <g transform="matrix(0,-0.714282,-0.714282,0,131.573,187.783)">
            <path d="M-5.759,5.759L5.759,5.759" style="fill:none;fill-rule:nonzero;stroke:rgb(1,51,25);stroke-width:2.8px;"/>
        </g>
        <g transform="matrix(0,0.714282,0.714282,0,132.337,178.793)">
            <path d="M-6.827,-6.827L6.827,-6.827" style="fill:none;fill-rule:nonzero;stroke:rgb(1,51,25);stroke-width:2.8px;"/>
        </g>
        <g transform="matrix(0.714282,0,0,0.714282,199.591,162.444)">
            <path d="M0,-17.649L0,-12.638L-10.659,0L-21.116,-12.638L-21.034,-17.649C-21.034,-17.649 -17.428,-12.796 -10.558,-12.89C-3.688,-12.985 0,-17.649 0,-17.649" style="fill:rgb(255,190,157);fill-rule:nonzero;"/>
        </g>
        <g transform="matrix(0.714282,0,0,0.714282,191.879,191.844)">
            <path d="M0,-40.57L4.246,-35.958L1.846,-30.734L6.199,0.284L-8.555,0L-8.555,-40.854" style="fill:white;fill-rule:nonzero;"/>
        </g>
        <g transform="matrix(0.714282,0,0,0.714282,177.251,141.991)">
            <path d="M0,-7.309C-0.158,-6.504 1.514,-0.264 2.765,0.554C2.883,0.633 3.015,0.712 3.133,0.778C1.83,-0.739 0.474,-4.697 0.29,-6.702C0.237,-7.243 0.316,-7.705 0.474,-8.087C0.224,-7.797 0.04,-7.507 0,-7.309" style="fill:white;fill-rule:nonzero;"/>
        </g>
        <g transform="matrix(0.714282,0,0,0.714282,179.048,135.065)">
            <path d="M0,-0.343C-0.092,-0.277 -0.237,-0.158 -0.408,0C-0.158,-0.106 0,-0.158 0,-0.158L0,-0.343Z" style="fill:white;fill-rule:nonzero;"/>
        </g>
        <g transform="matrix(0.714282,0,0,0.714282,179.311,130.702)">
            <path d="M0,2.691C0.592,2.348 1.698,1.49 1.882,0C1.316,1.121 0.329,2.242 0,2.691" style="fill:rgb(52,120,247);fill-rule:nonzero;"/>
        </g>
        <g transform="matrix(0.714282,0,0,0.714282,159.968,180.069)">
            <path d="M0,-16.226C-0.092,-15.922 -0.145,-15.619 -0.211,-15.316L-0.975,16.135L9.452,16.557L38.612,16.557L43.023,-14.484L40.469,-19.88L36.085,-15.659L29.884,-32.36L30.095,-32.637L29.884,-32.783L15.179,-27.308L7.425,-24.432C4.607,-23.363 2.317,-21.318 0.974,-18.706C0.553,-17.928 0.224,-17.097 0,-16.226" style="fill:rgb(221,225,241);fill-rule:nonzero;"/>
        </g>
        <g transform="matrix(0.714282,0,0,0.714282,184.22,168.856)">
            <path d="M0,-21.226C-0.369,-21.213 -0.737,-21.028 -0.974,-20.712L-3.857,-16.938L-4.068,-16.662L2.133,0.04L6.517,-4.182L10.861,-8.377L1.132,-20.712C0.855,-21.081 0.421,-21.266 0,-21.226" style="fill:white;fill-rule:nonzero;"/>
        </g>
        <g transform="matrix(0.714282,0,0,0.714282,186.354,149.586)">
            <path d="M0,3.021C-1.08,2.098 -1.988,1.068 -2.765,0C-2.133,1.161 -1.58,2.031 -1.224,2.256C-0.948,2.427 -0.526,2.704 0,3.021" style="fill-rule:nonzero;"/>
        </g>
        <g transform="matrix(0.714282,0,0,0.714282,184.991,127.546)">
            <path d="M0,-1.267C1.475,-1.188 2.383,-0.607 3.278,0.092C2.343,-0.752 1.514,-1.359 0,-1.267" style="fill:rgb(52,120,247);fill-rule:nonzero;"/>
        </g>
        <g transform="matrix(0.714282,0,0,0.714282,191.855,154.034)">
            <path d="M0,0.317C-0.553,0.238 -1.093,0.132 -1.606,0C-1.093,0.185 -0.619,0.304 -0.237,0.317L0,0.317Z" style="fill-rule:nonzero;"/>
        </g>
        <g transform="matrix(0.714282,0,0,0.714282,194.78,128.808)">
            <path d="M0,-0.145C-0.921,0.238 -1.777,0.541 -2.581,0.752C-0.579,0.541 0.605,-0.158 1.593,-0.897C1.146,-0.659 0.619,-0.409 0,-0.145" style="fill:rgb(52,120,247);fill-rule:nonzero;"/>
        </g>
        <g transform="matrix(0.714282,0,0,0.714282,199.227,154.251)">
            <path d="M0,-5.897C-2.225,-3.101 -5.411,-0.66 -9.926,0C-7.478,-0.146 -2.976,-1.649 -0.066,-5.805C-0.04,-5.831 -0.026,-5.871 0,-5.897" style="fill-rule:nonzero;"/>
        </g>
        <g transform="matrix(0.714282,0,0,0.714282,44.6358,38.7919)">
            <g opacity="0.21">
                <g transform="matrix(1,0,0,1,195.418,163.713)">
                    <path d="M0,-8.838L0,-5.817L0.026,-5.844C2.291,-2.638 5.753,0.304 10.861,0.99C15.982,0.304 19.418,-2.638 21.683,-5.844L21.722,-5.817L21.722,-8.838L21.683,-8.865C21.472,-8.561 21.248,-8.258 21.011,-7.967C20.985,-7.941 20.972,-7.901 20.945,-7.875C18.036,-3.72 13.534,-2.216 11.085,-2.07C11.019,-2.057 10.94,-2.044 10.861,-2.031C10.808,-2.044 10.756,-2.044 10.703,-2.057L10.453,-2.057C10.071,-2.07 9.597,-2.189 9.083,-2.374C9.044,-2.387 8.992,-2.4 8.952,-2.414C6.569,-3.034 4.608,-4.181 2.988,-5.58C2.462,-5.896 2.041,-6.173 1.764,-6.345C1.409,-6.569 0.855,-7.44 0.224,-8.601C0.158,-8.693 0.092,-8.772 0.026,-8.865L0,-8.838Z" style="fill-rule:nonzero;"/>
                </g>
            </g>
        </g>
        <g transform="matrix(0.714282,0,0,0.714282,198.917,168.489)">
            <path d="M0,-20.198L-9.716,-7.863L-5.371,-3.668L-0.974,0.554L5.2,-16.148L5.002,-16.425L2.12,-20.198C1.87,-20.514 1.514,-20.699 1.146,-20.712C0.724,-20.752 0.29,-20.58 0,-20.198" style="fill:white;fill-rule:nonzero;"/>
        </g>
        <g transform="matrix(0.714282,0,0,0.714282,200.459,127.357)">
            <path d="M0,-0.699C0.474,-0.528 0.921,-0.29 1.343,0C0.948,-0.317 0.5,-0.567 0,-0.699" style="fill:rgb(52,120,247);fill-rule:nonzero;"/>
        </g>
        <g transform="matrix(0.714282,0,0,0.714282,196.406,156.653)">
            <path d="M0,49.34L39.152,49.34L38.823,17.467C38.06,13.298 35.164,9.842 31.174,8.351L8.715,0L8.518,0.146L8.715,0.423L2.541,17.124L-1.856,12.902L-4.397,18.298L0,49.34Z" style="fill:none;fill-rule:nonzero;stroke:rgb(1,51,25);stroke-width:2.8px;"/>
        </g>
        <g transform="matrix(0.714282,0,0,0.714282,180.674,119.789)">
            <path d="M0,14.856C0,12.494 2.699,9.579 5.648,9.579C5.78,9.579 5.898,9.579 6.017,9.592L6.043,9.592C7.557,9.5 8.386,10.106 9.321,10.951C9.334,10.964 9.36,10.977 9.387,11.003C10.809,12.099 12.204,13.444 15.824,13.444C16.312,13.444 16.759,13.418 17.167,13.378C17.97,13.167 18.826,12.864 19.748,12.481C20.366,12.217 20.893,11.967 21.34,11.729C21.354,11.716 21.367,11.703 21.38,11.703C22.736,10.674 23.723,9.579 26.001,9.579C26.501,9.579 26.988,9.658 27.462,9.83C27.541,9.843 27.62,9.869 27.699,9.896C28.199,10.027 28.647,10.278 29.042,10.595C29.055,10.608 29.068,10.621 29.082,10.621C30.595,11.689 31.635,13.378 31.635,14.856C31.635,16.162 32.333,17.033 32.952,17.56C32.965,17.56 32.978,17.573 32.991,17.586C33.492,17.877 33.926,17.969 33.926,17.969L33.926,10.093C33.926,1.043 24.737,-3.311 15.824,-2.756C6.925,-3.311 -2.277,1.043 -2.277,10.093L-2.277,18.167C-2.277,18.167 -2.132,18.114 -1.922,17.982C-1.922,17.982 -1.909,17.982 -1.909,17.969C-1.58,17.521 -0.592,16.399 -0.026,15.278C-0.013,15.146 0,15.001 0,14.856" style="fill:rgb(1,51,25);fill-rule:nonzero;"/>
        </g>
        <g transform="matrix(0.714282,0,0,0.714282,181.314,137.892)">
            <path d="M0,7.164C0,7.164 0.131,7.467 0.342,7.969C1.08,9.684 2.87,13.773 4.292,16.372C5.068,17.441 5.977,18.47 7.056,19.393C8.649,20.396 11.137,21.873 13.02,22.56C13.06,22.573 13.112,22.586 13.151,22.599C13.665,22.731 14.205,22.837 14.758,22.916L14.771,22.916C14.889,22.916 15.021,22.916 15.153,22.903C19.668,22.243 22.854,19.802 25.079,17.006C27.949,12.837 29.555,7.494 29.818,6.61C29.832,6.518 29.845,6.478 29.845,6.478C29.845,6.478 30.463,7.533 31.503,7.138L31.53,7.138C32.122,6.9 32.833,5.937 33.399,4.935C33.518,4.724 33.623,4.486 33.742,4.248C33.899,3.879 34.058,3.483 34.215,3.087C34.229,3.021 34.268,2.942 34.281,2.863C34.374,2.467 34.584,1.914 34.794,1.307C34.847,1.096 34.913,0.871 34.979,0.66C35.084,0.185 35.176,-0.276 35.216,-0.659C35.255,-1.187 35.203,-1.701 34.992,-2.176C34.387,-3.522 33.794,-3.377 33.36,-3.997C33.162,-4.076 33.031,-4.116 33.031,-4.116L33.031,-4.775C32.741,-5.791 32.899,-6.794 32.991,-7.19C32.886,-7.242 32.517,-7.427 32.096,-7.757C32.083,-7.77 32.069,-7.783 32.056,-7.783C31.543,-8.1 30.99,-8.628 30.819,-9.485C30.556,-10.738 29.818,-13.35 28.186,-14.722C28.173,-14.722 28.16,-14.735 28.146,-14.749C27.725,-15.039 27.277,-15.276 26.804,-15.448C26.725,-15.474 26.646,-15.501 26.566,-15.514C26.382,-15.553 26.185,-15.566 25.987,-15.58C23.341,-15.672 22.67,-14.788 20.484,-13.641C20.471,-13.641 20.458,-13.628 20.445,-13.614C19.458,-12.876 18.273,-12.176 16.271,-11.965C13.941,-11.332 12.085,-11.503 10.4,-12.704C9.61,-13.271 9.031,-13.838 8.491,-14.34C8.465,-14.366 8.438,-14.379 8.425,-14.393C7.53,-15.092 6.622,-15.672 5.147,-15.752L5.121,-15.752C5.029,-15.752 4.923,-15.752 4.818,-15.738C2.106,-15.435 -0.514,-12.902 -0.514,-11.464C-0.514,-11.028 -0.685,-10.554 -0.922,-10.065C-1.106,-8.575 -2.212,-7.717 -2.804,-7.374C-2.804,-7.361 -2.817,-7.361 -2.817,-7.361C-3.278,-6.688 -3.067,-4.393 -3.067,-4.393C-3.067,-4.393 -3.107,-4.366 -3.173,-4.3L-3.173,-4.116C-3.173,-4.116 -3.331,-4.063 -3.581,-3.957C-4.055,-3.548 -4.739,-2.915 -5.2,-2.361L-5.213,-2.348C-5.372,-1.965 -5.45,-1.503 -5.397,-0.962C-5.213,1.042 -3.857,5 -2.554,6.518C-2.133,6.781 -1.685,7.006 -1.303,7.164L-1.29,7.164C-0.592,7.441 -0.053,7.52 0,7.164" style="fill:rgb(255,190,157);fill-rule:nonzero;"/>
        </g>
        <g transform="matrix(0.714282,0,0,0.714282,204.239,132.756)">
            <path d="M0,-0.567C0.421,-0.237 0.79,-0.052 0.896,0C0.922,-0.118 0.935,-0.184 0.935,-0.184C0.935,-0.184 0.5,-0.276 0,-0.567" style="fill:rgb(52,120,247);fill-rule:nonzero;"/>
        </g>
        <g transform="matrix(0.714282,0,0,0.714282,204.879,132.633)">
            <path d="M0,0.172C0.026,0.185 0.04,0.185 0.04,0.185L0.04,-0.013C0.04,-0.013 0.026,0.053 0,0.172" style="fill:rgb(52,120,247);fill-rule:nonzero;"/>
        </g>
        <g transform="matrix(0,0.714282,0.714282,0,205.303,134.641)">
            <path d="M-0.225,-0.554L0.435,-0.554C0.435,-0.554 0.474,-0.423 0.554,-0.225C0.408,-0.33 0.224,-0.423 -0.04,-0.502C-0.106,-0.528 -0.159,-0.541 -0.225,-0.554" style="fill:white;fill-rule:nonzero;"/>
        </g>
        <g transform="matrix(0.714282,0,0,0.714282,205.753,140.926)">
            <path d="M0,-1.161C-0.158,-0.765 -0.316,-0.369 -0.474,0C-0.263,-0.435 -0.092,-0.844 0,-1.161" style="fill:white;fill-rule:nonzero;"/>
        </g>
        <g transform="matrix(0.714282,0,0,0.714282,206.468,138.363)">
            <path d="M0,-1.319C-0.04,-0.936 -0.131,-0.475 -0.237,0C-0.118,-0.435 -0.026,-0.883 0,-1.319" style="fill:white;fill-rule:nonzero;"/>
        </g>
        <g transform="matrix(0.714282,0,0,0.714282,199.735,168.856)">
            <path d="M0,-21.226C0.369,-21.213 0.724,-21.028 0.974,-20.712L3.857,-16.938L4.055,-16.662L-2.12,0.04L-6.517,-4.182L-10.861,-8.377L-1.146,-20.712C-0.856,-21.094 -0.421,-21.266 0,-21.226Z" style="fill:none;fill-rule:nonzero;stroke:rgb(1,51,25);stroke-width:2.8px;"/>
        </g>
        <g transform="matrix(0.714282,0,0,0.714282,199.735,149.416)">
            <path d="M0,5.99L0,0" style="fill:none;fill-rule:nonzero;stroke:rgb(1,51,25);stroke-width:2.8px;"/>
        </g>
        <g transform="matrix(0.714282,0,0,0.714282,216.069,191.896)">
            <path d="M0,-24.96L0,0" style="fill:none;fill-rule:nonzero;stroke:rgb(1,51,25);stroke-width:2.8px;"/>
        </g>
        <g transform="matrix(0.714282,0,0,0.714282,195.081,169.724)">
            <path d="M0,-5.396L-2.541,0L-4.345,0" style="fill:none;fill-rule:nonzero;stroke:rgb(1,51,25);stroke-width:2.8px;"/>
        </g>
        <g transform="matrix(0.714282,0,0,0.714282,193.266,191.896)">
            <path d="M0,-31.042L4.397,0L2.804,-11.517" style="fill:none;fill-rule:nonzero;stroke:rgb(1,51,25);stroke-width:2.8px;"/>
        </g>
        <g transform="matrix(0.714282,0,0,0.714282,184.22,168.856)">
            <path d="M0,-21.226C-0.369,-21.213 -0.737,-21.028 -0.974,-20.712L-3.857,-16.938L-4.068,-16.662L2.133,0.04L6.517,-4.182L10.861,-8.377L1.132,-20.712C0.855,-21.081 0.421,-21.266 0,-21.226Z" style="fill:none;fill-rule:nonzero;stroke:rgb(1,51,25);stroke-width:2.8px;"/>
        </g>
        <g transform="matrix(0.714282,0,0,0.714282,184.22,149.416)">
            <path d="M0,5.99L0,0" style="fill:none;fill-rule:nonzero;stroke:rgb(1,51,25);stroke-width:2.8px;"/>
        </g>
        <g transform="matrix(-0.529138,0.479805,0.479805,0.529138,203.819,145.595)">
            <path d="M20.447,-24.354C22.86,-20.637 27.039,-10.086 20.557,-2.264C20.557,-2.264 20.466,-2.156 20.447,-2.129C13.341,2.436 4.824,0.557 -1.553,-4.227C-1.625,-4.285 -1.662,-4.306 -1.662,-4.306" style="fill:none;fill-rule:nonzero;stroke:rgb(1,51,25);stroke-width:2.8px;"/>
        </g>
        <g transform="matrix(0.714282,0,0,0.714282,181.511,118.659)">
            <path d="M0,32.441C0,32.441 -0.105,32.889 -0.395,33.312C-0.632,33.668 -1.014,34.037 -1.566,34.09L-1.58,34.09C-1.685,34.09 -1.804,34.077 -1.935,34.064C-2.225,34.024 -2.515,33.8 -2.831,33.443C-4.134,31.926 -5.49,27.968 -5.674,25.963C-5.727,25.422 -5.648,24.961 -5.49,24.578L-5.477,24.565C-5.108,23.681 -4.331,23.193 -3.857,22.969C-3.607,22.863 -3.449,22.81 -3.449,22.81L-3.449,11.676C-3.449,2.626 5.753,-1.728 14.652,-1.174C23.565,-1.728 32.754,2.626 32.754,11.676L32.754,22.81C32.754,22.81 32.886,22.85 33.083,22.929C33.742,23.233 35.15,24.077 34.979,25.963C34.966,26.056 34.966,26.161 34.939,26.267C34.9,26.649 34.808,27.111 34.703,27.586C34.637,27.797 34.571,28.022 34.518,28.233C34.374,28.747 34.202,29.274 34.005,29.789C33.992,29.868 33.952,29.947 33.939,30.013C33.781,30.409 33.623,30.805 33.465,31.174C33.347,31.412 33.241,31.649 33.123,31.86C32.517,33.074 31.846,33.984 31.253,34.064L31.227,34.064C30.463,34.169 29.977,33.747 29.687,33.312C29.397,32.889 29.292,32.441 29.292,32.441" style="fill:none;fill-rule:nonzero;stroke:rgb(1,51,25);stroke-width:2.8px;"/>
        </g>
        <g transform="matrix(0.714282,0,0,0.714282,188.874,169.724)">
            <path d="M0,-5.396L2.554,0L4.344,0" style="fill:none;fill-rule:nonzero;stroke:rgb(1,51,25);stroke-width:2.8px;"/>
        </g>
        <g transform="matrix(0.714282,0,0,0.714282,190.699,191.896)">
            <path d="M0,-31.042L-4.411,0L-2.817,-11.517" style="fill:none;fill-rule:nonzero;stroke:rgb(1,51,25);stroke-width:2.8px;"/>
        </g>
        <g transform="matrix(0.714282,0,0,0.714282,179.048,126.631)">
            <path d="M0,8.588C0,8.588 0.145,8.535 0.355,8.403C0.355,8.403 0.369,8.403 0.369,8.39C0.961,8.047 2.067,7.19 2.251,5.699C2.264,5.567 2.277,5.422 2.277,5.277C2.277,2.915 4.977,0 7.925,0C8.057,0 8.175,0 8.294,0.013L8.32,0.013C9.795,0.092 10.703,0.672 11.598,1.372C11.611,1.385 11.638,1.398 11.664,1.424C13.086,2.52 14.481,3.865 18.102,3.865C18.589,3.865 19.037,3.839 19.444,3.799C21.446,3.588 22.63,2.889 23.618,2.15C23.631,2.137 23.644,2.124 23.657,2.124C25.013,1.095 26,0 28.278,0C28.778,0 29.266,0.079 29.739,0.251C29.818,0.264 29.897,0.29 29.977,0.317C30.45,0.488 30.898,0.725 31.319,1.016C31.333,1.029 31.346,1.042 31.359,1.042C32.873,2.11 33.913,3.799 33.913,5.277C33.913,6.583 34.61,7.454 35.229,7.981C35.242,7.981 35.255,7.994 35.269,8.007C35.69,8.338 36.059,8.522 36.164,8.575C36.19,8.588 36.204,8.588 36.204,8.588" style="fill:none;fill-rule:nonzero;stroke:rgb(1,51,25);stroke-width:2.8px;"/>
        </g>
        <g transform="matrix(0,-0.714282,-0.714282,0,170.833,187.783)">
            <path d="M-5.759,5.759L5.759,5.759" style="fill:none;fill-rule:nonzero;stroke:rgb(1,51,25);stroke-width:2.8px;"/>
        </g>
        <g transform="matrix(0,0.714282,0.714282,0,171.596,178.793)">
            <path d="M-6.827,-6.827L6.827,-6.827" style="fill:none;fill-rule:nonzero;stroke:rgb(1,51,25);stroke-width:2.8px;"/>
        </g>
        <g transform="matrix(0.714282,0,0,0.714282,224.269,171.201)">
            <path d="M0,8.615L0.131,16.837L0.145,28.973L-80.569,28.973L-91.456,28.981L-90.785,16.844L-90.232,-2.9C-90.167,-3.203 -90.114,-3.506 -90.021,-3.81C-89.798,-4.68 -89.469,-5.511 -89.047,-6.29C-87.705,-8.902 -85.414,-10.947 -82.597,-12.015L-74.842,-14.891L-60.137,-20.366" style="fill:none;fill-rule:nonzero;stroke:rgb(1,51,25);stroke-width:2.8px;"/>
        </g>
        <g transform="matrix(0.714282,0,0,0.714282,202.631,174.278)">
            <path d="M0,-24.674L22.459,-16.323C26.448,-14.832 29.344,-11.376 30.108,-7.207L30.223,0" style="fill:none;fill-rule:nonzero;stroke:rgb(1,51,25);stroke-width:2.8px;"/>
        </g>
        <g transform="matrix(0.714282,0,0,0.714282,44.6358,134.289)">
            <rect x="175.202" y="64.346" width="16.723" height="4.189" style="fill:white;"/>
        </g>
        <g transform="matrix(0.714282,0,0,0.714282,146.907,156.026)">
            <path d="M0,-21.331L0,-15.274L12.882,0L25.521,-15.274L25.421,-21.331C25.421,-21.331 21.064,-15.465 12.76,-15.579C4.457,-15.693 0,-21.331 0,-21.331" style="fill:rgb(255,190,157);fill-rule:nonzero;"/>
        </g>
        <g transform="matrix(0.714282,0,0,0.714282,156.227,191.56)">
            <path d="M0,-49.033L-5.131,-43.459L-2.23,-37.144L-7.492,0.343L10.34,0.001L10.34,-49.376" style="fill:white;fill-rule:nonzero;"/>
        </g>
        <g transform="matrix(0.714282,0,0,0.714282,173.906,131.308)">
            <path d="M0,-8.834C0.191,-7.861 -1.83,-0.319 -3.341,0.669C-3.484,0.765 -3.644,0.86 -3.787,0.94C-2.211,-0.894 -0.573,-5.677 -0.35,-8.101C-0.286,-8.754 -0.382,-9.312 -0.573,-9.774C-0.271,-9.424 -0.047,-9.073 0,-8.834" style="fill:white;fill-rule:nonzero;"/>
        </g>
        <g transform="matrix(0.714282,0,0,0.714282,171.735,122.937)">
            <path d="M0,-0.415C0.111,-0.335 0.287,-0.192 0.494,0C0.191,-0.128 0,-0.192 0,-0.192L0,-0.415Z" style="fill:white;fill-rule:nonzero;"/>
        </g>
        <g transform="matrix(0.714282,0,0,0.714282,171.417,117.664)">
            <path d="M0,3.252C-0.716,2.837 -2.053,1.801 -2.275,0C-1.591,1.355 -0.398,2.71 0,3.252" style="fill:rgb(52,120,247);fill-rule:nonzero;"/>
        </g>
        <g transform="matrix(0.714282,0,0,0.714282,194.795,177.33)">
            <path d="M0,-19.613C0.111,-19.246 0.175,-18.879 0.254,-18.512L1.178,19.498L-11.424,20.01L-46.667,20.01L-51.998,-17.508L-48.911,-24.03L-43.613,-18.927L-36.119,-39.113L-36.373,-39.448L-36.119,-39.623L-18.346,-33.006L-8.974,-29.53C-5.569,-28.239 -2.801,-25.767 -1.178,-22.611C-0.668,-21.67 -0.271,-20.665 0,-19.613" style="fill:rgb(0,204,102);fill-rule:nonzero;"/>
        </g>
        <g transform="matrix(0.714282,0,0,0.714282,165.485,163.777)">
            <path d="M0,-25.655C0.445,-25.639 0.891,-25.416 1.177,-25.033L4.662,-20.473L4.917,-20.138L-2.578,0.048L-7.876,-5.055L-13.127,-10.125L-1.368,-25.033C-1.034,-25.48 -0.509,-25.703 0,-25.655" style="fill:white;fill-rule:nonzero;"/>
        </g>
        <g transform="matrix(0.714282,0,0,0.714282,162.905,140.487)">
            <path d="M0,3.651C1.305,2.535 2.402,1.291 3.341,0C2.578,1.403 1.909,2.455 1.479,2.726C1.146,2.934 0.636,3.268 0,3.651" style="fill-rule:nonzero;"/>
        </g>
        <g transform="matrix(0.714282,0,0,0.714282,164.553,113.848)">
            <path d="M0,-1.53C-1.782,-1.434 -2.88,-0.733 -3.962,0.112C-2.832,-0.908 -1.83,-1.642 0,-1.53" style="fill:rgb(52,120,247);fill-rule:nonzero;"/>
        </g>
        <g transform="matrix(0.714282,0,0,0.714282,156.256,145.862)">
            <path d="M0,0.383C0.668,0.287 1.321,0.16 1.941,0C1.321,0.223 0.748,0.367 0.287,0.383L0,0.383Z" style="fill-rule:nonzero;"/>
        </g>
        <g transform="matrix(0.714282,0,0,0.714282,152.722,115.374)">
            <path d="M0,-0.175C1.114,0.287 2.148,0.654 3.119,0.909C0.7,0.654 -0.732,-0.191 -1.925,-1.084C-1.384,-0.797 -0.748,-0.494 0,-0.175" style="fill:rgb(52,120,247);fill-rule:nonzero;"/>
        </g>
        <g transform="matrix(0.714282,0,0,0.714282,147.346,146.124)">
            <path d="M0,-7.127C2.689,-3.747 6.539,-0.797 11.997,0C9.038,-0.175 3.596,-1.993 0.08,-7.016C0.047,-7.047 0.032,-7.095 0,-7.127" style="fill-rule:nonzero;"/>
        </g>
        <g transform="matrix(0.714282,0,0,0.714282,44.6358,38.7919)">
            <g opacity="0.21">
                <g transform="matrix(1,0,0,1,169.189,152.769)">
                    <path d="M0,-10.683L0,-7.032L-0.032,-7.063C-2.769,-3.189 -6.953,0.367 -13.127,1.196C-19.316,0.367 -23.469,-3.189 -26.206,-7.063L-26.253,-7.032L-26.253,-10.683L-26.206,-10.715C-25.951,-10.348 -25.681,-9.981 -25.394,-9.63C-25.362,-9.599 -25.347,-9.551 -25.314,-9.519C-21.798,-4.497 -16.356,-2.679 -13.397,-2.503C-13.318,-2.487 -13.222,-2.471 -13.127,-2.456C-13.063,-2.471 -13,-2.471 -12.936,-2.487L-12.633,-2.487C-12.172,-2.503 -11.599,-2.647 -10.979,-2.87C-10.931,-2.886 -10.867,-2.902 -10.82,-2.918C-7.939,-3.667 -5.569,-5.054 -3.612,-6.745C-2.976,-7.127 -2.466,-7.462 -2.132,-7.669C-1.703,-7.94 -1.034,-8.993 -0.271,-10.396C-0.191,-10.507 -0.111,-10.603 -0.032,-10.715L0,-10.683Z" style="fill-rule:nonzero;"/>
                </g>
            </g>
        </g>
        <g transform="matrix(0.714282,0,0,0.714282,147.721,163.333)">
            <path d="M0,-24.412L11.742,-9.504L6.492,-4.433L1.177,0.669L-6.285,-19.517L-6.046,-19.852L-2.562,-24.412C-2.259,-24.795 -1.83,-25.018 -1.384,-25.034C-0.875,-25.081 -0.35,-24.874 0,-24.412" style="fill:white;fill-rule:nonzero;"/>
        </g>
        <g transform="matrix(0.714282,0,0,0.714282,145.857,113.62)">
            <path d="M0,-0.845C-0.573,-0.638 -1.114,-0.351 -1.623,0C-1.146,-0.383 -0.604,-0.686 0,-0.845" style="fill:rgb(52,120,247);fill-rule:nonzero;"/>
        </g>
        <g transform="matrix(0.714282,0,0,0.714282,150.755,149.028)">
            <path d="M0,59.633L-47.32,59.633L-46.922,21.111C-45.999,16.072 -42.499,11.895 -37.677,10.093L-10.533,0L-10.294,0.175L-10.533,0.51L-3.071,20.696L2.244,15.594L5.314,22.115L0,59.633Z" style="fill:rgb(0,204,102);fill-rule:nonzero;"/>
        </g>
        <g transform="matrix(0.714282,0,0,0.714282,169.769,104.475)">
            <path d="M0,17.954C0,15.1 -3.262,11.576 -6.826,11.576C-6.985,11.576 -7.128,11.576 -7.271,11.592L-7.303,11.592C-9.133,11.48 -10.135,12.214 -11.265,13.234C-11.281,13.25 -11.313,13.266 -11.345,13.298C-13.063,14.621 -14.75,16.248 -19.125,16.248C-19.714,16.248 -20.255,16.216 -20.748,16.168C-21.719,15.913 -22.753,15.546 -23.867,15.084C-24.615,14.765 -25.251,14.462 -25.792,14.175C-25.808,14.159 -25.824,14.143 -25.84,14.143C-27.479,12.899 -28.672,11.576 -31.425,11.576C-32.029,11.576 -32.618,11.672 -33.191,11.879C-33.286,11.895 -33.382,11.927 -33.477,11.959C-34.082,12.118 -34.623,12.421 -35.1,12.804C-35.116,12.82 -35.132,12.836 -35.148,12.836C-36.978,14.127 -38.234,16.168 -38.234,17.954C-38.234,19.533 -39.078,20.585 -39.826,21.223C-39.842,21.223 -39.857,21.239 -39.874,21.254C-40.478,21.605 -41.003,21.717 -41.003,21.717L-41.003,12.198C-41.003,1.26 -29.897,-4.002 -19.125,-3.332C-8.369,-4.002 2.752,1.26 2.752,12.198L2.752,21.956C2.752,21.956 2.578,21.892 2.323,21.733C2.323,21.733 2.307,21.733 2.307,21.717C1.909,21.175 0.716,19.819 0.032,18.464C0.016,18.305 0,18.129 0,17.954" style="fill:rgb(1,51,25);fill-rule:nonzero;"/>
        </g>
        <g transform="matrix(0.714282,0,0,0.714282,168.996,126.353)">
            <path d="M0,8.657C0,8.657 -0.159,9.024 -0.414,9.63C-1.305,11.702 -3.469,16.645 -5.187,19.786C-6.126,21.078 -7.224,22.322 -8.528,23.438C-10.454,24.65 -13.461,26.435 -15.736,27.264C-15.784,27.281 -15.848,27.297 -15.895,27.312C-16.516,27.472 -17.168,27.599 -17.836,27.695L-17.852,27.695C-17.996,27.695 -18.155,27.695 -18.313,27.679C-23.771,26.882 -27.622,23.932 -30.311,20.552C-33.779,15.513 -35.721,9.056 -36.039,7.988C-36.055,7.876 -36.071,7.828 -36.071,7.828C-36.071,7.828 -36.818,9.104 -38.075,8.625L-38.107,8.625C-38.823,8.338 -39.683,7.175 -40.367,5.963C-40.51,5.707 -40.637,5.421 -40.78,5.134C-40.971,4.687 -41.162,4.209 -41.353,3.73C-41.369,3.651 -41.417,3.555 -41.433,3.459C-41.544,2.981 -41.799,2.311 -42.053,1.578C-42.117,1.323 -42.196,1.052 -42.276,0.797C-42.403,0.222 -42.515,-0.336 -42.563,-0.798C-42.61,-1.436 -42.546,-2.057 -42.292,-2.632C-41.56,-4.258 -40.844,-4.082 -40.319,-4.832C-40.08,-4.927 -39.921,-4.975 -39.921,-4.975L-39.921,-5.773C-39.571,-7 -39.762,-8.212 -39.874,-8.691C-39.746,-8.754 -39.301,-8.977 -38.792,-9.376C-38.775,-9.392 -38.76,-9.408 -38.744,-9.408C-38.123,-9.791 -37.455,-10.428 -37.248,-11.465C-36.93,-12.98 -36.039,-16.136 -34.066,-17.795C-34.05,-17.795 -34.034,-17.811 -34.018,-17.827C-33.509,-18.177 -32.968,-18.465 -32.395,-18.672C-32.3,-18.704 -32.204,-18.736 -32.109,-18.751C-31.886,-18.799 -31.647,-18.815 -31.409,-18.831C-28.21,-18.943 -27.399,-17.874 -24.758,-16.488C-24.742,-16.488 -24.726,-16.471 -24.71,-16.455C-23.517,-15.563 -22.084,-14.718 -19.666,-14.462C-16.85,-13.697 -14.606,-13.905 -12.57,-15.355C-11.615,-16.041 -10.915,-16.726 -10.263,-17.332C-10.231,-17.364 -10.199,-17.38 -10.183,-17.396C-9.101,-18.241 -8.003,-18.943 -6.221,-19.038L-6.189,-19.038C-6.078,-19.038 -5.951,-19.038 -5.823,-19.023C-2.546,-18.656 0.621,-15.594 0.621,-13.857C0.621,-13.33 0.828,-12.756 1.114,-12.166C1.336,-10.364 2.673,-9.328 3.389,-8.914C3.389,-8.898 3.405,-8.898 3.405,-8.898C3.962,-8.085 3.708,-5.31 3.708,-5.31C3.708,-5.31 3.755,-5.278 3.834,-5.198L3.834,-4.975C3.834,-4.975 4.025,-4.911 4.328,-4.784C4.901,-4.29 5.728,-3.525 6.285,-2.855L6.301,-2.839C6.492,-2.376 6.587,-1.818 6.523,-1.165C6.301,1.259 4.662,6.042 3.087,7.876C2.578,8.195 2.037,8.466 1.575,8.657L1.56,8.657C0.716,8.992 0.063,9.088 0,8.657" style="fill:rgb(255,190,157);fill-rule:nonzero;"/>
        </g>
        <g transform="matrix(0.714282,0,0,0.714282,141.288,120.146)">
            <path d="M0,-0.686C-0.509,-0.287 -0.955,-0.064 -1.082,0C-1.114,-0.144 -1.129,-0.224 -1.129,-0.224C-1.129,-0.224 -0.604,-0.335 0,-0.686" style="fill:rgb(52,120,247);fill-rule:nonzero;"/>
        </g>
        <g transform="matrix(0.714282,0,0,0.714282,140.515,119.998)">
            <path d="M0,0.207C-0.032,0.223 -0.047,0.223 -0.047,0.223L-0.047,-0.016C-0.047,-0.016 -0.032,0.064 0,0.207" style="fill:rgb(52,120,247);fill-rule:nonzero;"/>
        </g>
        <g transform="matrix(0,0.714282,0.714282,0,140.676,122.708)">
            <path d="M-0.67,-0.272L0.127,-0.272C0.127,-0.272 0.176,-0.431 0.272,-0.67C0.097,-0.543 -0.127,-0.431 -0.447,-0.336C-0.526,-0.304 -0.59,-0.288 -0.67,-0.272" style="fill:white;fill-rule:nonzero;"/>
        </g>
        <g transform="matrix(0.714282,0,0,0.714282,139.459,130.02)">
            <path d="M0,-1.403C0.191,-0.924 0.382,-0.446 0.573,0C0.318,-0.526 0.111,-1.02 0,-1.403" style="fill:white;fill-rule:nonzero;"/>
        </g>
        <g transform="matrix(0.714282,0,0,0.714282,138.595,126.923)">
            <path d="M0,-1.595C0.048,-1.133 0.159,-0.574 0.287,0C0.144,-0.527 0.032,-1.069 0,-1.595" style="fill:white;fill-rule:nonzero;"/>
        </g>
        <g transform="matrix(0.714282,0,0,0.714282,146.732,140.282)">
            <path d="M0,7.239L0,0" style="fill:none;fill-rule:nonzero;stroke:rgb(1,51,25);stroke-width:2.8px;"/>
        </g>
        <g transform="matrix(0.714282,0,0,0.714282,126.991,191.623)">
            <path d="M0,-30.167L0,0" style="fill:none;fill-rule:nonzero;stroke:rgb(1,51,25);stroke-width:2.8px;"/>
        </g>
        <g transform="matrix(0.714282,0,0,0.714282,152.358,164.824)">
            <path d="M0,-6.521L3.071,0L5.25,0" style="fill:none;fill-rule:nonzero;stroke:rgb(1,51,25);stroke-width:2.8px;"/>
        </g>
        <g transform="matrix(0.714282,0,0,0.714282,154.551,191.623)">
            <path d="M0,-37.518L-5.314,0L-3.389,-13.92" style="fill:none;fill-rule:nonzero;stroke:rgb(1,51,25);stroke-width:2.8px;"/>
        </g>
        <g transform="matrix(0.714282,0,0,0.714282,165.485,163.777)">
            <path d="M0,-25.655C0.445,-25.639 0.891,-25.416 1.177,-25.033L4.662,-20.473L4.917,-20.138L-2.578,0.048L-7.876,-5.055L-13.127,-10.125L-1.368,-25.033C-1.034,-25.48 -0.509,-25.703 0,-25.655Z" style="fill:none;fill-rule:nonzero;stroke:rgb(1,51,25);stroke-width:2.8px;"/>
        </g>
        <g transform="matrix(0.714282,0,0,0.714282,165.485,140.282)">
            <path d="M0,7.239L0,0" style="fill:none;fill-rule:nonzero;stroke:rgb(1,51,25);stroke-width:2.8px;"/>
        </g>
        <g transform="matrix(0.714282,0,0,0.714282,168.996,146.158)">
            <path d="M0,-19.899C0,-19.899 -0.111,-19.213 -0.414,-18.097C-1.018,-15.881 -2.355,-11.926 -4.948,-8.259C-5.028,-8.148 -5.107,-8.052 -5.187,-7.941C-6.126,-6.649 -7.224,-5.405 -8.528,-4.289C-10.485,-2.599 -12.856,-1.212 -15.736,-0.462C-15.784,-0.446 -15.848,-0.43 -15.895,-0.415C-16.516,-0.255 -17.168,-0.128 -17.836,-0.032L-17.852,-0.032C-17.916,-0.016 -17.979,-0.016 -18.043,0C-18.139,-0.016 -18.234,-0.032 -18.313,-0.048C-23.771,-0.845 -27.622,-3.795 -30.311,-7.175C-30.597,-7.526 -30.868,-7.893 -31.122,-8.259C-34.654,-13.234 -35.848,-18.751 -36.039,-19.739C-36.055,-19.851 -36.071,-19.899 -36.071,-19.899" style="fill:none;fill-rule:nonzero;stroke:rgb(1,51,25);stroke-width:2.8px;"/>
        </g>
        <g transform="matrix(0.714282,0,0,0.714282,168.758,103.108)">
            <path d="M0,39.208C0,39.208 0.127,39.75 0.477,40.26C0.764,40.691 1.225,41.137 1.894,41.201L1.909,41.201C2.037,41.201 2.18,41.185 2.339,41.169C2.689,41.121 3.039,40.85 3.421,40.419C4.996,38.586 6.635,33.803 6.857,31.379C6.921,30.726 6.826,30.167 6.635,29.705L6.619,29.689C6.173,28.621 5.235,28.031 4.662,27.76C4.359,27.632 4.168,27.568 4.168,27.568L4.168,14.111C4.168,3.173 -6.953,-2.088 -17.709,-1.419C-28.481,-2.088 -39.587,3.173 -39.587,14.111L-39.587,27.568C-39.587,27.568 -39.746,27.616 -39.985,27.712C-40.78,28.079 -42.483,29.099 -42.276,31.379C-42.26,31.491 -42.26,31.618 -42.229,31.746C-42.181,32.208 -42.069,32.766 -41.942,33.34C-41.862,33.595 -41.783,33.866 -41.719,34.122C-41.544,34.743 -41.337,35.381 -41.099,36.003C-41.083,36.099 -41.035,36.194 -41.019,36.274C-40.828,36.752 -40.637,37.231 -40.446,37.677C-40.303,37.964 -40.176,38.251 -40.033,38.506C-39.301,39.973 -38.489,41.073 -37.773,41.169L-37.741,41.169C-36.818,41.296 -36.23,40.786 -35.88,40.26C-35.53,39.75 -35.402,39.208 -35.402,39.208" style="fill:none;fill-rule:nonzero;stroke:rgb(1,51,25);stroke-width:2.8px;"/>
        </g>
        <g transform="matrix(0.714282,0,0,0.714282,159.859,164.824)">
            <path d="M0,-6.521L-3.087,0L-5.251,0" style="fill:none;fill-rule:nonzero;stroke:rgb(1,51,25);stroke-width:2.8px;"/>
        </g>
        <g transform="matrix(0.714282,0,0,0.714282,157.654,191.623)">
            <path d="M0,-37.518L5.331,0L3.405,-13.92" style="fill:none;fill-rule:nonzero;stroke:rgb(1,51,25);stroke-width:2.8px;"/>
        </g>
        <g transform="matrix(0.714282,0,0,0.714282,171.735,112.743)">
            <path d="M0,10.38C0,10.38 -0.175,10.316 -0.429,10.157C-0.429,10.157 -0.445,10.157 -0.445,10.141C-1.161,9.726 -2.498,8.69 -2.721,6.888C-2.736,6.729 -2.752,6.553 -2.752,6.378C-2.752,3.524 -6.014,0 -9.578,0C-9.737,0 -9.881,0 -10.024,0.016L-10.056,0.016C-11.838,0.112 -12.936,0.813 -14.018,1.658C-14.034,1.674 -14.065,1.69 -14.097,1.722C-15.815,3.046 -17.502,4.672 -21.878,4.672C-22.466,4.672 -23.007,4.64 -23.5,4.592C-25.919,4.337 -27.351,3.492 -28.544,2.599C-28.561,2.583 -28.576,2.567 -28.592,2.567C-30.231,1.323 -31.424,0 -34.177,0C-34.782,0 -35.371,0.096 -35.943,0.303C-36.039,0.319 -36.134,0.351 -36.229,0.383C-36.802,0.59 -37.343,0.877 -37.853,1.228C-37.869,1.244 -37.884,1.26 -37.9,1.26C-39.73,2.551 -40.987,4.592 -40.987,6.378C-40.987,7.957 -41.83,9.009 -42.578,9.647C-42.594,9.647 -42.61,9.663 -42.626,9.678C-43.135,10.077 -43.581,10.3 -43.708,10.364C-43.74,10.38 -43.755,10.38 -43.755,10.38" style="fill:none;fill-rule:nonzero;stroke:rgb(1,51,25);stroke-width:2.8px;"/>
        </g>
        <g transform="matrix(0,-0.714282,-0.714282,0,191.607,186.651)">
            <path d="M-6.96,6.96L6.96,6.96" style="fill:none;fill-rule:nonzero;stroke:rgb(1,51,25);stroke-width:2.8px;"/>
        </g>
        <g transform="matrix(0,0.714282,0.714282,0,192.529,175.786)">
            <path d="M-8.251,-8.251L8.251,-8.251" style="fill:none;fill-rule:nonzero;stroke:rgb(1,51,25);stroke-width:2.8px;"/>
        </g>
        <g transform="matrix(-0.714282,0,0,0.714282,306.802,129.509)">
            <rect x="173.412" y="67.256" width="20.211" height="5.062" style="fill:white;"/>
        </g>
        <g transform="matrix(0.714282,0,0,0.714282,143.028,190.937)">
            <path d="M0,-55.576C0,-55.576 -23.283,-45.346 -27.022,-38.779C-30.761,-32.212 -29.71,-18.022 -29.973,-11.453C-30.235,-4.885 -30.546,1.774 -30.546,1.774L-37.445,1.765L-36.458,-35.753C-36.458,-35.753 -34.627,-44.801 -29.957,-46.756C-25.287,-48.71 -3.458,-56.827 -3.458,-56.827L-1.036,-57.35L-0.1,-55.846L0,-55.576Z" style="fill:rgb(0,204,102);fill-rule:nonzero;"/>
        </g>
        <g transform="matrix(0.714282,0,0,0.714282,143.232,191.629)">
            <path d="M0,-59.641L-27.144,-49.548C-31.965,-47.746 -35.466,-43.569 -36.389,-38.53L-36.771,-14.677L-36.787,-0.008L60.765,-0.008L73.923,0L73.111,-14.669L72.444,-38.53C72.364,-38.897 72.301,-39.264 72.189,-39.631C71.919,-40.683 71.521,-41.687 71.012,-42.628C69.389,-45.785 66.62,-48.257 63.215,-49.548L53.844,-53.024L36.071,-59.641" style="fill:none;fill-rule:nonzero;stroke:rgb(1,51,25);stroke-width:2.8px;"/>
        </g>
        <g transform="matrix(0.714282,0,0,0.714282,146.732,163.777)">
            <path d="M0,-25.655C-0.445,-25.639 -0.875,-25.416 -1.177,-25.033L-4.662,-20.473L-4.901,-20.138L2.562,0.048L7.876,-5.055L13.126,-10.125L1.384,-25.033C1.034,-25.496 0.509,-25.703 0,-25.655Z" style="fill:none;fill-rule:nonzero;stroke:rgb(1,51,25);stroke-width:2.8px;"/>
        </g>
    </g>
</svg>
