<?xml version="1.0" encoding="UTF-8" standalone="no"?>
<!DOCTYPE svg PUBLIC "-//W3C//DTD SVG 1.1//EN" "http://www.w3.org/Graphics/SVG/1.1/DTD/svg11.dtd">
<svg width="100%" height="100%" viewBox="0 0 150 150" version="1.1" xmlns="http://www.w3.org/2000/svg" xmlns:xlink="http://www.w3.org/1999/xlink" xml:space="preserve" xmlns:serif="http://www.serif.com/" style="fill-rule:evenodd;clip-rule:evenodd;stroke-linecap:round;stroke-miterlimit:10;">
    <g transform="matrix(0.714282,0,0,0.714282,-36.5875,-19.9418)">
        <g transform="matrix(1,0,0,1,252.637,49.2076)">
            <path d="M0,165.353C0,165.353 -8.443,133.979 2.471,118.964C13.386,103.95 11.878,77.01 -20.242,67.437C-52.362,57.866 -40.065,29.106 -64.535,14.554C-89.004,0 -119.115,7.069 -133.945,37.318C-148.775,67.568 -183.415,44.565 -198.151,67.437C-210.625,86.798 -182.963,96.447 -187.958,111.373C-192.954,126.299 -205.631,150.476 -196.051,165.353L0,165.353Z" style="fill:rgb(212,216,219);fill-rule:nonzero;"/>
        </g>
        <g transform="matrix(1,0,0,1,51.2228,214.567)">
            <path d="M0,0L206.654,0" style="fill:none;fill-rule:nonzero;stroke:rgb(1,51,25);stroke-width:2.8px;"/>
        </g>
        <g transform="matrix(-1,0.000744546,0.000744546,1,69.307,140.68)">
            <path d="M0.477,-13.431C0.477,-13.431 -0.061,-7.829 6.806,-6.51C6.806,-6.51 0.583,-6.023 0.477,-0C0.477,-0 0.423,-5.3 -6.324,-6.711C-6.324,-6.711 -0.181,-7.227 0.477,-13.431" style="fill:rgb(23,169,230);fill-rule:nonzero;"/>
        </g>
        <g transform="matrix(-1,0.000744546,0.000744546,1,79.3641,187.322)">
            <path d="M0.477,-13.431C0.477,-13.431 -0.061,-7.83 6.806,-6.51C6.806,-6.51 0.583,-6.023 0.477,-0C0.477,-0 0.423,-5.3 -6.324,-6.711C-6.324,-6.711 -0.181,-7.227 0.477,-13.431" style="fill:white;fill-rule:nonzero;"/>
        </g>
        <g transform="matrix(-1,0.000744546,0.000744546,1,196.662,95.2829)">
            <path d="M0.477,-13.431C0.477,-13.431 -0.061,-7.83 6.806,-6.51C6.806,-6.51 0.583,-6.023 0.477,-0C0.477,-0 0.422,-5.3 -6.324,-6.711C-6.324,-6.711 -0.181,-7.227 0.477,-13.431" style="fill:white;fill-rule:nonzero;"/>
        </g>
        <g transform="matrix(-1,0.000681973,0.000681973,1,96.7259,85.1558)">
            <path d="M0.312,-8.798C0.312,-8.798 -0.04,-5.129 4.458,-4.264C4.458,-4.264 0.381,-3.945 0.312,-0C0.312,-0 0.277,-3.472 -4.143,-4.396C-4.143,-4.396 -0.119,-4.734 0.312,-8.798" style="fill:rgb(175,179,177);fill-rule:nonzero;"/>
        </g>
        <g transform="matrix(-1,0.000795635,0.000795635,1,228.978,175.894)">
            <path d="M0.311,-8.798C0.311,-8.798 -0.041,-5.129 4.458,-4.264C4.458,-4.264 0.381,-3.945 0.311,-0C0.311,-0 0.276,-3.472 -4.143,-4.396C-4.143,-4.396 -0.119,-4.734 0.311,-8.798" style="fill:rgb(175,179,177);fill-rule:nonzero;"/>
        </g>
        <g transform="matrix(1,0,0,1,135.083,95.2099)">
            <path d="M0,-9.915C6.227,-13.042 10.369,-19.541 10.336,-26.506C13.302,-22.247 18.884,-19.987 23.979,-20.985C25.447,-21.269 26.859,-21.801 28.328,-22.081C29.796,-22.365 31.39,-22.377 32.708,-21.675C34.575,-20.689 35.476,-18.56 36.181,-16.572C36.883,-14.584 37.638,-12.434 39.374,-11.241C39.905,-10.876 40.566,-10.617 41.187,-10.791C41.195,-10.791 41.199,-10.795 41.208,-10.799C42.607,-9.497 43.296,-7.436 42.883,-5.562C42.408,-3.392 40.412,-1.57 38.213,-1.258C36.818,2.924 35.058,7.066 32.218,10.441C32.112,10.563 32.007,10.689 31.901,10.807C29.086,13.999 25.167,16.373 20.928,16.591C16.661,16.373 12.729,13.975 9.906,10.758C9.817,10.652 9.724,10.547 9.634,10.441C6.795,7.066 5.034,2.924 3.639,-1.258C1.44,-1.57 -0.552,-3.392 -1.03,-5.562C-1.396,-7.221 -0.901,-9.026 0.195,-10.325C0.215,-10.296 0.235,-10.268 0.255,-10.239L0,-9.915Z" style="fill:rgb(255,190,157);fill-rule:nonzero;"/>
        </g>
        <g transform="matrix(1,0,0,1,176.732,117.238)">
            <path d="M0,3.188L0,3.192C-4.503,10.113 -12.762,14.454 -21.014,14.279C-29.269,14.454 -37.528,10.113 -42.031,3.192C-40.197,2.417 -38.461,1.48 -36.92,0.227C-34.709,-1.579 -32.709,-6.759 -32.036,-11.266C-29.212,-8.049 -25.281,-5.651 -21.014,-5.432C-16.774,-5.651 -12.855,-8.024 -10.041,-11.217C-9.334,-6.722 -7.314,-1.57 -5.111,0.227C-3.57,1.48 -1.833,2.417 0,3.188" style="fill:rgb(255,190,157);fill-rule:nonzero;"/>
        </g>
        <g transform="matrix(1,0,0,1,200.629,114.683)">
            <path d="M0,51.754L-89.826,51.754L-89.826,35.909C-89.826,28.302 -90.175,19.536 -84.285,13.788C-81.166,10.745 -75.417,9.676 -71.988,6.987C-69.289,4.87 -63.424,2.1 -61.241,1.183C-56.738,8.104 -53.167,17.009 -44.911,16.834C-36.66,17.009 -33.484,6.921 -28.981,0L-22.308,3.579C-20.125,4.5 -17.65,6.777 -15.382,7.467C-11.212,8.733 -8.661,10.745 -5.541,13.788C0.353,19.536 0,28.302 0,35.909L0,51.754Z" style="fill:rgb(0,204,102);fill-rule:nonzero;"/>
        </g>
        <g transform="matrix(1,0,0,1,134.984,50.9402)">
            <path d="M0,33.95C-2.264,30.928 -3.46,27.115 -3.331,23.342C-3.201,19.533 -1.728,15.78 0.775,12.904C1.509,12.056 2.349,11.273 3.371,10.819C4.507,10.316 5.464,10.511 6.604,10.709C8.592,6.324 11.351,2.721 16.101,1.107C20.563,-0.41 25.731,0.328 29.589,3.042C31.382,4.304 32.908,5.959 34.847,6.985C36.786,8.012 39.418,8.235 40.997,6.705C41.24,9.448 40.7,11.857 39.045,14.06C41.187,16.222 42.477,18.774 42.891,21.788C43.309,24.806 43.017,27.877 42.546,30.883C42.38,31.934 42.027,33.179 41.013,33.475C41.004,33.479 41,33.483 40.993,33.483C40.372,33.658 39.71,33.398 39.179,33.033C37.443,31.841 36.688,29.69 35.986,27.702C35.281,25.715 34.38,23.585 32.514,22.599C31.196,21.898 29.602,21.909 28.133,22.194C26.665,22.473 25.252,23.005 23.784,23.289C18.689,24.287 13.107,22.027 10.142,17.768C10.174,24.733 6.032,31.232 -0.195,34.36L0.061,34.035C0.041,34.007 0.02,33.978 0,33.95" style="fill:rgb(1,51,25);fill-rule:nonzero;"/>
        </g>
        <g opacity="0.07">
            <g transform="matrix(1,0,0,1,160.648,106.681)">
                <path d="M0,11.527C0.105,11.668 0.19,11.818 0.273,11.969C1.293,11.336 2.327,10.721 3.365,10.137C3.93,9.819 5.81,8.964 5.86,8.875C6.504,7.739 7.355,7.006 8.291,6.605C7.486,4.717 6.882,2.746 6.508,0.728C4.032,3.614 0.306,5.388 -3.495,5.491C-7.296,5.593 -11.112,4.023 -13.741,1.275L-15.229,-0.442C-12.859,3.834 -8.96,7.242 -4.406,9.021C-2.809,9.645 -1.024,10.152 0,11.527" style="fill-rule:nonzero;"/>
            </g>
        </g>
        <g transform="matrix(1,0,0,1,144.75,166.799)">
            <path d="M0,-60.464C-0.059,-60.071 -0.126,-59.68 -0.202,-59.291C-0.565,-57.425 -1.003,-55.188 -1.946,-53.515C-2.359,-52.783 -3.248,-52.477 -3.953,-52.115C-9.111,-49.466 -14.131,-46.561 -19.189,-43.729C-23.344,-41.403 -28.11,-39.226 -30.708,-35.024C-34.219,-29.347 -33.894,-22.26 -33.894,-15.845L-33.894,0L11.259,0" style="fill:none;fill-rule:nonzero;stroke:rgb(1,51,25);stroke-width:2.8px;"/>
        </g>
        <g transform="matrix(1,0,0,1,167.694,166.799)">
            <path d="M0,-60.464C0.059,-60.071 0.126,-59.68 0.202,-59.291C0.565,-57.425 1.003,-55.188 1.946,-53.515C2.359,-52.783 3.249,-52.477 3.953,-52.115C9.111,-49.466 14.131,-46.561 19.189,-43.729C23.344,-41.403 28.11,-39.226 30.708,-35.024C34.219,-29.347 33.894,-22.26 33.894,-15.845L33.894,0L-11.259,0" style="fill:none;fill-rule:nonzero;stroke:rgb(1,51,25);stroke-width:2.8px;"/>
        </g>
        <g transform="matrix(0,1,1,0,135.697,159.668)">
            <path d="M-6.463,-6.463L6.463,-6.463" style="fill:none;fill-rule:nonzero;stroke:rgb(1,51,25);stroke-width:2.8px;"/>
        </g>
        <g transform="matrix(0,1,1,0,188.767,159.668)">
            <path d="M-6.463,-6.463L6.463,-6.463" style="fill:none;fill-rule:nonzero;stroke:rgb(1,51,25);stroke-width:2.8px;"/>
        </g>
        <g transform="matrix(1,0,0,1,176.147,101.31)">
            <path d="M0,-17.086C1.865,-15.88 2.859,-13.464 2.382,-11.295C1.905,-9.126 -0.087,-7.306 -2.287,-6.993C-3.682,-2.811 -5.445,1.333 -8.283,4.707C-11.121,8.082 -15.171,10.632 -19.575,10.857C-23.979,10.632 -28.029,8.082 -30.867,4.707C-33.705,1.333 -35.468,-2.811 -36.864,-6.993C-39.063,-7.306 -41.055,-9.126 -41.532,-11.295C-42.009,-13.464 -41.015,-15.88 -39.15,-17.086C-35.43,-19.492 -32.89,-23.516 -32.7,-27.943" style="fill:none;fill-rule:nonzero;stroke:rgb(1,51,25);stroke-width:2.8px;"/>
        </g>
        <g transform="matrix(1,0,0,1,168.791,125.549)">
            <path d="M0,-11.589L-0.19,-3.554L-0.222,-3.538L-7.938,0.203L-8.058,0.14L-7.97,-0.031L-11.833,-5.44C-11.904,-5.541 -12.015,-5.604 -12.134,-5.619C-7.502,-7.669 -3.537,-9.828 0.008,-11.792L0,-11.589Z" style="fill:white;fill-rule:nonzero;"/>
        </g>
        <g transform="matrix(1,0,0,1,156.173,119.4)">
            <path d="M0,0.709L-3.696,5.892L-3.704,5.884L-12.729,2.275L-12.729,2.268L-12.967,-5.183C-8.843,-3.289 -4.513,-0.639 0.262,0.538C0.159,0.553 0.071,0.616 0,0.709" style="fill:white;fill-rule:nonzero;"/>
        </g>
        <g transform="matrix(1,0,0,1,143.445,152.841)">
            <path d="M0,-31.166L9.025,-27.558L9.033,-27.55L8.875,-27.324L10.405,-24.315C10.405,-24.315 10.563,-24.308 10.817,-24.292L10.849,-24.214C11.008,-24.214 11.174,-24.245 11.333,-24.269L7.304,0C3.228,-9.867 0.047,-19.936 0,-31.166" style="fill:white;fill-rule:nonzero;"/>
        </g>
        <g transform="matrix(1,0,0,1,160.853,146.076)">
            <path d="M0,-20.325L7.717,-24.066C7.622,-14.114 5.076,-5.074 1.642,3.725L1.642,3.702L1.626,3.741L-1.991,-17.379L-2.133,-17.387C-2.109,-17.426 -2.086,-17.473 -2.07,-17.512L-1.57,-17.551L-0.119,-20.387L0,-20.325Z" style="fill:white;fill-rule:nonzero;"/>
        </g>
        <g transform="matrix(1,0,0,1,156.007,115.768)">
            <path d="M0,49.067L1.443,49.737C1.166,49.963 0.888,50.181 0.603,50.4C0.404,50.556 0.206,50.712 0,50.859C-0.206,50.712 -0.404,50.556 -0.603,50.4C-9.636,43.448 -15.98,33.769 -18.891,22.803L-15.362,18.392L-21.77,15.969C-21.429,9.305 -18.383,2.806 -13.45,-1.792L-12.8,-1.551L-12.562,5.9L-12.562,5.907C-12.515,17.138 -9.334,27.207 -5.258,37.073L-5.274,37.167L-4.346,39.232C-2.958,42.513 -1.475,45.771 0,49.059L0,49.067Z" style="fill:white;fill-rule:nonzero;"/>
        </g>
        <g transform="matrix(1,0,0,1,169.458,165.49)">
            <path d="M0,-51.514C4.933,-46.916 7.978,-40.416 8.327,-33.753L1.919,-31.329L5.448,-26.918C2.617,-16.296 -3.418,-6.882 -12.007,0.016L-13.451,-0.655L-13.451,-0.662C-11.19,-5.666 -8.938,-10.622 -6.979,-15.649L-6.963,-15.571L-6.963,-15.688C-3.529,-24.487 -0.983,-33.527 -0.888,-43.479L-0.857,-43.494L-0.667,-51.53L0,-51.514Z" style="fill:white;fill-rule:nonzero;"/>
        </g>
        <g transform="matrix(1,0,0,1,162.494,149.919)">
            <path d="M0,-0.117L0,0L-0.016,-0.078C-0.008,-0.094 0,-0.101 0,-0.117" style="fill:rgb(0,79,40);fill-rule:nonzero;"/>
        </g>
        <g transform="matrix(0,1,1,0,162.517,149.817)">
            <rect x="-0.039" y="-0.039" width="0.062" height="0.016" style="fill:rgb(0,79,40);"/>
        </g>
        <g transform="matrix(1,0,0,1,158.862,164.437)">
            <path d="M0,-35.74L3.617,-14.62L-2.926,0.125L-7.201,-9.437C-7.51,-10.155 -7.812,-10.879 -8.113,-11.596L-4.084,-35.865L-4.076,-35.865C-3.505,-35.834 -2.792,-35.802 -2.292,-35.771C-1.927,-35.756 -1.673,-35.74 -1.673,-35.74L-1.206,-35.779L-0.143,-35.74L-0.143,-35.748L0,-35.74Z" style="fill:rgb(0,79,40);fill-rule:nonzero;"/>
        </g>
        <g transform="matrix(1,0,0,1,160.424,123.32)">
            <path d="M0,2.081L-1.142,4.255C-1.309,4.582 -1.475,4.917 -1.642,5.245L-2.585,5.323L-5.631,5.167L-5.646,5.253C-5.845,5.245 -6.02,5.237 -6.162,5.229L-7.629,1.59L-4.203,-2.611L-3.704,-3.242L-0.428,1.169C-0.206,1.434 -0.056,1.753 0,2.081" style="fill:rgb(0,79,40);fill-rule:nonzero;"/>
        </g>
        <g transform="matrix(1,0,0,1,158.783,128.69)">
            <path d="M0,-0.125C-0.016,-0.086 -0.04,-0.04 -0.063,0L-0.944,-0.047L0,-0.125Z" style="fill:rgb(0,79,40);fill-rule:nonzero;"/>
        </g>
        <g transform="matrix(0,1,1,0,158.168,129.201)">
            <path d="M-0.512,0.551L-0.504,0.551L-0.543,-0.512L-0.559,-0.329L-0.512,0.551Z" style="fill:rgb(0,79,40);fill-rule:nonzero;"/>
        </g>
        <g transform="matrix(1,0,0,1,157.656,128.596)">
            <path d="M0,0.062L-0.468,0.101C-0.468,0.101 -0.722,0.085 -1.086,0.07C-1.586,0.039 -2.3,0.007 -2.871,-0.023C-2.847,-0.031 -2.815,-0.039 -2.792,-0.039L0,0.062Z" style="fill:rgb(0,79,40);fill-rule:nonzero;"/>
        </g>
        <g transform="matrix(1,0,0,1,154.794,128.658)">
            <path d="M0,-0.171L3.045,-0.015L2.863,0L0.071,-0.101C0.048,-0.101 0.016,-0.093 -0.008,-0.085L-0.016,-0.085L0,-0.171Z" style="fill:rgb(0,79,40);fill-rule:nonzero;"/>
        </g>
        <g transform="matrix(1,0,0,1,154.778,128.604)">
            <path d="M0,-0.031C-0.159,-0.008 -0.325,0.023 -0.484,0.023L-0.516,-0.054C-0.373,-0.047 -0.198,-0.039 0,-0.031" style="fill:rgb(0,79,40);fill-rule:nonzero;"/>
        </g>
        <g transform="matrix(1,0,0,1,151.661,152.841)">
            <path d="M0,2.159L-0.928,0.094L-0.912,0C-0.61,0.717 -0.309,1.442 0,2.159" style="fill:rgb(0,79,40);fill-rule:nonzero;"/>
        </g>
        <g transform="matrix(1,0,0,1,156.567,119.537)">
            <path d="M0,0.435C4.678,-1.632 8.665,-3.797 12.236,-5.779L12.035,2.458L4.284,6.214" style="fill:none;fill-rule:nonzero;stroke:rgb(1,51,25);stroke-width:2.8px;stroke-linejoin:round;"/>
        </g>
        <g transform="matrix(1,0,0,1,156.569,119.873)">
            <path d="M0,8.791C0.366,8.81 0.618,8.822 0.618,8.822L2.714,8.653L4.249,5.642L0.392,0.237C0.2,-0.031 -0.203,-0.031 -0.395,0.237L-4.252,5.642L-2.717,8.653C-2.717,8.653 -0.964,8.742 0,8.791Z" style="fill:none;fill-rule:nonzero;stroke:rgb(1,51,25);stroke-width:2.8px;stroke-linejoin:round;"/>
        </g>
        <g transform="matrix(1,0,0,1,156.567,119.529)">
            <path d="M0,0.443C-4.83,-0.719 -9.197,-3.404 -13.356,-5.308L-13.123,2.143L-4.096,5.751" style="fill:none;fill-rule:nonzero;stroke:rgb(1,51,25);stroke-width:2.8px;stroke-linejoin:round;"/>
        </g>
        <g transform="matrix(1,0,0,1,156.009,113.978)">
            <path d="M0,52.652C-0.206,52.504 -0.404,52.348 -0.603,52.192C-9.636,45.24 -15.98,35.561 -18.891,24.596L-15.362,20.185L-21.77,17.761C-21.429,11.098 -18.383,4.598 -13.45,0" style="fill:none;fill-rule:nonzero;stroke:rgb(1,51,25);stroke-width:2.8px;stroke-linejoin:round;"/>
        </g>
        <g transform="matrix(1,0,0,1,143.447,164.837)">
            <path d="M0,-43.167C0.063,-27.37 6.329,-13.879 12.562,-0.007L12.562,0" style="fill:none;fill-rule:nonzero;stroke:rgb(1,51,25);stroke-width:2.8px;stroke-linejoin:round;"/>
        </g>
        <g transform="matrix(1,0,0,1,169.46,166.63)">
            <path d="M0,-52.652C4.933,-48.054 7.978,-41.554 8.327,-34.891L1.919,-32.467L5.448,-28.056C2.53,-17.091 -3.815,-7.412 -12.848,-0.46C-13.046,-0.304 -13.245,-0.148 -13.451,0" style="fill:none;fill-rule:nonzero;stroke:rgb(1,51,25);stroke-width:2.8px;stroke-linejoin:round;"/>
        </g>
        <g transform="matrix(0.279582,-0.960122,-0.960122,-0.279582,181.26,155.323)">
            <path d="M-16.195,21.584C-1.131,19.469 13.57,17.233 28.765,21.584" style="fill:none;fill-rule:nonzero;stroke:rgb(1,51,25);stroke-width:2.8px;stroke-linejoin:round;"/>
        </g>
        <g transform="matrix(1,0,0,1,154.795,164.562)">
            <path d="M0,-36.077L-4.063,-11.628L1.141,0L7.699,-14.781L7.699,-14.64L4.063,-35.867L0,-36.077Z" style="fill:rgb(1,51,25);fill-rule:nonzero;"/>
        </g>
        <g transform="matrix(1,0,0,1,156.719,128.696)">
            <path d="M0,-8.617L-0.499,-7.986L-3.92,-3.783L-2.424,-0.071C-2.232,-0.071 -2.043,-0.117 -1.854,-0.14L1.996,0C2.187,-0.374 2.376,-0.747 2.566,-1.121L3.707,-3.293C3.646,-3.625 3.497,-3.942 3.279,-4.203L0,-8.617Z" style="fill:rgb(1,51,25);fill-rule:nonzero;"/>
        </g>
        <g transform="matrix(1,0,0,1,113.306,173.701)">
            <path d="M0,9.013L0,0L35.943,0" style="fill:none;fill-rule:nonzero;stroke:rgb(1,51,25);stroke-width:2.8px;"/>
        </g>
        <g transform="matrix(1,0,0,1,123.606,189.616)">
            <path d="M0,20.458L-20.171,20.458C-22.186,20.458 -23.819,18.825 -23.819,16.81L-23.819,3.648C-23.819,1.634 -22.186,0 -20.171,0L0,0C2.015,0 3.648,1.634 3.648,3.648L3.648,16.81C3.648,18.825 2.015,20.458 0,20.458" style="fill:white;fill-rule:nonzero;"/>
        </g>
        <g transform="matrix(1,0,0,1,188.84,189.616)">
            <path d="M0,20.458L20.171,20.458C22.186,20.458 23.819,18.825 23.819,16.81L23.819,3.648C23.819,1.634 22.186,0 20.171,0L0,0C-2.015,0 -3.648,1.634 -3.648,3.648L-3.648,16.81C-3.648,18.825 -2.015,20.458 0,20.458" style="fill:rgb(134,132,136);fill-rule:nonzero;"/>
        </g>
        <g transform="matrix(1,0,0,1,123.606,189.616)">
            <path d="M0,20.458L-20.171,20.458C-22.186,20.458 -23.819,18.825 -23.819,16.81L-23.819,3.648C-23.819,1.634 -22.186,0 -20.171,0L0,0C2.015,0 3.648,1.634 3.648,3.648L3.648,16.81C3.648,18.825 2.015,20.458 0,20.458Z" style="fill:none;fill-rule:nonzero;stroke:rgb(1,51,25);stroke-width:2.8px;"/>
        </g>
        <g transform="matrix(1,0,0,1,199.141,173.701)">
            <path d="M0,9.013L0,0L-35.943,0" style="fill:none;fill-rule:nonzero;stroke:rgb(1,51,25);stroke-width:2.8px;"/>
        </g>
        <g transform="matrix(1,0,0,1,188.84,189.616)">
            <path d="M0,20.458L20.171,20.458C22.186,20.458 23.819,18.825 23.819,16.81L23.819,3.648C23.819,1.634 22.186,0 20.171,0L0,0C-2.015,0 -3.648,1.634 -3.648,3.648L-3.648,16.81C-3.648,18.825 -2.015,20.458 0,20.458Z" style="fill:none;fill-rule:nonzero;stroke:rgb(1,51,25);stroke-width:2.8px;"/>
        </g>
        <g transform="matrix(1,0,0,1,166.309,189.616)">
            <path d="M0,20.458L-20.171,20.458C-22.186,20.458 -23.819,18.825 -23.819,16.81L-23.819,3.648C-23.819,1.634 -22.186,0 -20.171,0L0,0C2.015,0 3.648,1.634 3.648,3.648L3.648,16.81C3.648,18.825 2.015,20.458 0,20.458Z" style="fill:rgb(23,169,230);fill-rule:nonzero;stroke:rgb(1,51,25);stroke-width:2.8px;"/>
        </g>
        <g transform="matrix(0,-1,-1,0,163.716,175.221)">
            <path d="M-7.493,7.493L7.493,7.493" style="fill:none;fill-rule:nonzero;stroke:rgb(1,51,25);stroke-width:2.8px;"/>
        </g>
    </g>
</svg>
