<?xml version="1.0" encoding="UTF-8" standalone="no"?>
<!DOCTYPE svg PUBLIC "-//W3C//DTD SVG 1.1//EN" "http://www.w3.org/Graphics/SVG/1.1/DTD/svg11.dtd">
<svg width="100%" height="100%" viewBox="0 0 100 100" version="1.1" xmlns="http://www.w3.org/2000/svg" xmlns:xlink="http://www.w3.org/1999/xlink" xml:space="preserve" xmlns:serif="http://www.serif.com/" style="fill-rule:evenodd;clip-rule:evenodd;stroke-linejoin:round;stroke-miterlimit:2;">
    <g transform="matrix(0.194589,0,0,0.194589,40.8788,41.7953)">
        <g transform="matrix(4.16667,0,0,4.16667,-835.833,-1391.46)">
            <rect x="201.909" y="356.441" width="21.304" height="11.205" style="fill:rgb(236,183,158);fill-rule:nonzero;"/>
        </g>
        <g transform="matrix(4.16667,0,0,4.16667,-835.833,-1391.46)">
            <path d="M207.559,365.04L201.909,362.071L201.909,356.441L223.213,356.441L223.213,356.837C222.954,357.246 222.673,357.628 222.419,357.965C221.123,359.684 219.399,361.158 217.263,362.396C214.629,363.921 211.294,364.927 207.867,365.031C207.764,365.035 207.662,365.037 207.559,365.04Z" style="fill:rgb(195,153,133);fill-rule:nonzero;"/>
        </g>
        <g transform="matrix(4.16667,0,0,4.16667,-835.833,-1391.46)">
            <path d="M212.568,293.532L212.553,293.532C198.94,293.916 188.553,299.509 188.603,318.793C188.632,330.227 189.675,333.6 193.006,346.648C195.312,355.673 207.575,360.436 212.251,360.745C212.35,360.738 212.455,360.729 212.561,360.719C212.667,360.729 212.772,360.738 212.871,360.745C217.547,360.436 229.811,355.673 232.116,346.648C235.447,333.6 236.49,330.227 236.52,318.793C236.569,299.509 226.181,293.916 212.568,293.532Z" style="fill:rgb(236,183,158);fill-rule:nonzero;"/>
        </g>
        <g transform="matrix(4.16667,0,0,4.16667,-835.833,-1391.46)">
            <path d="M201.478,356.804C205.565,359.379 209.761,360.584 212.208,360.745C212.308,360.738 212.412,360.729 212.519,360.719C212.625,360.729 212.729,360.738 212.829,360.745C215.275,360.584 219.8,359.2 223.889,356.628C223.889,356.628 214.514,361.104 201.478,356.804Z" style="fill:rgb(33,9,1);fill-rule:nonzero;"/>
        </g>
        <g transform="matrix(4.16667,0,0,4.16667,-835.833,-1391.46)">
            <path d="M233.915,326.726L232.427,338.113C238.27,340.686 239.183,327.285 239.183,327.285C237.833,323.944 233.915,326.726 233.915,326.726Z" style="fill:rgb(236,183,158);fill-rule:nonzero;"/>
        </g>
        <g transform="matrix(4.16667,0,0,4.16667,-835.833,-1391.46)">
            <path d="M185.224,327.285C185.224,327.285 186.137,340.686 191.98,338.113L190.493,326.726C190.493,326.726 186.573,323.944 185.224,327.285Z" style="fill:rgb(236,183,158);fill-rule:nonzero;"/>
        </g>
        <g transform="matrix(4.16667,0,0,4.16667,-835.833,-1391.46)">
            <path d="M223.397,367.646L252.169,375.136C252.169,375.136 261.987,376.639 264.492,385.461L268.786,401.453L156.414,401.453L160.708,385.461C163.213,376.639 173.03,375.136 173.03,375.136L201.719,367.646L223.397,367.646Z" style="fill:rgb(236,183,158);fill-rule:nonzero;"/>
        </g>
        <g transform="matrix(4.16667,0,0,4.16667,-835.833,-1391.46)">
            <path d="M156.414,401.453L160.708,385.461C163.213,376.639 173.03,375.136 173.03,375.136L201.719,367.646L223.397,367.646L252.169,375.136C252.169,375.136 261.987,376.639 264.492,385.461L268.786,401.453L156.414,401.453Z" style="fill:white;fill-rule:nonzero;"/>
        </g>
        <g transform="matrix(4.16667,0,0,4.16667,-835.833,-1391.46)">
            <path d="M214.45,367.646L210.749,367.646L205.48,375.951L210.192,381.256L215.008,381.256L219.721,375.951L214.45,367.646Z" style="fill:rgb(132,42,50);fill-rule:nonzero;"/>
        </g>
        <g transform="matrix(4.16667,0,0,4.16667,-835.833,-1391.46)">
            <path d="M215.008,381.256L210.192,381.256L206.384,376.969L211.432,369.297C211.181,373.266 212.513,377.396 215.219,380.244C215.336,380.366 215.459,380.487 215.586,380.605L215.008,381.256Z" style="fill:rgb(102,26,33);fill-rule:nonzero;"/>
        </g>
        <g transform="matrix(4.16667,0,0,4.16667,-835.833,-1391.46)">
            <path d="M231.037,369.635L231.016,369.629L223.247,362.401L223.213,362.418L223.247,362.401L231.037,369.635Z" style="fill:rgb(188,190,192);fill-rule:nonzero;"/>
        </g>
        <g transform="matrix(4.16667,0,0,4.16667,-835.833,-1391.46)">
            <path d="M219.589,378.651L218.62,377.191L219.185,376.554L219.718,377.238L231.723,370.286L231.016,369.629L231.037,369.635L232.427,370.925L219.589,378.651Z" style="fill:rgb(188,190,192);fill-rule:nonzero;"/>
        </g>
        <g transform="matrix(4.16667,0,0,4.16667,-835.833,-1391.46)">
            <path d="M218.62,377.191L212.519,368.002L219.185,376.554L218.62,377.191Z" style="fill:rgb(102,26,33);fill-rule:nonzero;"/>
        </g>
        <g transform="matrix(4.16667,0,0,4.16667,-835.833,-1391.46)">
            <path d="M223.247,362.401L212.519,368.002L219.718,377.238L231.723,370.286L223.247,362.401Z" style="fill:white;fill-rule:nonzero;"/>
        </g>
        <g transform="matrix(4.16667,0,0,4.16667,-835.833,-1391.46)">
            <path d="M193.515,369.788L201.854,362.042L201.909,362.071L201.909,367.646L212.519,367.646L201.719,367.646L193.515,369.788Z" style="fill:rgb(188,190,192);fill-rule:nonzero;"/>
        </g>
        <g transform="matrix(4.16667,0,0,4.16667,-835.833,-1391.46)">
            <path d="M212.519,367.646L201.909,367.646L201.909,362.071L201.909,364.824C203.454,364.97 205.014,365.051 206.562,365.051C206.895,365.051 207.227,365.047 207.559,365.04L212.519,367.646Z" style="fill:rgb(176,138,121);fill-rule:nonzero;"/>
        </g>
        <g transform="matrix(4.16667,0,0,4.16667,-835.833,-1391.46)">
            <path d="M206.562,365.051C205.014,365.051 203.454,364.97 201.909,364.824L201.909,362.071L207.559,365.04C207.227,365.047 206.895,365.051 206.562,365.051Z" style="fill:rgb(149,117,102);fill-rule:nonzero;"/>
        </g>
        <g transform="matrix(4.16667,0,0,4.16667,-835.833,-1391.46)">
            <path d="M205.513,378.293L192.674,370.569L193.515,369.788L201.719,367.646L212.519,367.646L210.749,367.646L205.48,375.951L206.384,376.969L205.513,378.293Z" style="fill:rgb(188,190,192);fill-rule:nonzero;"/>
        </g>
        <g transform="matrix(4.16667,0,0,4.16667,-835.833,-1391.46)">
            <path d="M205.48,375.951L210.749,367.646L212.519,367.646L211.432,369.297C211.467,368.742 211.533,368.19 211.631,367.646L210.749,367.646L205.48,375.951Z" style="fill:rgb(102,26,33);fill-rule:nonzero;"/>
        </g>
        <g transform="matrix(4.16667,0,0,4.16667,-835.833,-1391.46)">
            <path d="M206.384,376.969L205.48,375.951L210.749,367.646L211.631,367.646C211.533,368.19 211.467,368.742 211.432,369.297L206.384,376.969Z" style="fill:rgb(82,11,19);fill-rule:nonzero;"/>
        </g>
        <g transform="matrix(4.16667,0,0,4.16667,-835.833,-1391.46)">
            <path d="M201.854,362.042L212.582,367.646L205.384,376.88L193.379,369.93L201.854,362.042Z" style="fill:white;fill-rule:nonzero;"/>
        </g>
        <g transform="matrix(4.16667,0,0,4.16667,-835.833,-1391.46)">
            <path d="M193.516,369.802L173.03,375.136C173.03,375.136 163.213,376.639 160.708,385.461L156.414,401.453L268.786,401.453L264.492,385.461C261.987,376.639 252.169,375.136 252.169,375.136L230.718,368.981L212.519,400.657L193.516,369.802Z" style="fill:rgb(10,19,30);fill-rule:nonzero;"/>
        </g>
        <g transform="matrix(4.16667,0,0,4.16667,-835.833,-1391.46)">
            <path d="M210.11,381.256L207.546,392.583L212.519,400.657L217.16,392.579L214.926,381.256L210.11,381.256Z" style="fill:rgb(132,42,50);fill-rule:nonzero;"/>
        </g>
        <g transform="matrix(4.16667,0,0,4.16667,-835.833,-1391.46)">
            <path d="M193.516,369.802L183.812,372.329L189.285,374.452L185.906,378.293L205.48,401.453L213.085,401.453L193.516,369.802Z" style="fill-rule:nonzero;"/>
        </g>
        <g transform="matrix(4.16667,0,0,4.16667,-835.833,-1391.46)">
            <path d="M230.718,368.981L241.395,372.044L235.921,374.452L239.3,378.293L219.726,401.453L212.12,401.453L230.718,368.981Z" style="fill-rule:nonzero;"/>
        </g>
        <g transform="matrix(4.16667,0,0,4.16667,-835.833,-1391.46)">
            <path d="M187.574,311.667C187.574,311.667 187.819,317.708 188.919,326.78L191.045,339.581L192.813,340.73L191.045,322.761L194.079,315.589L194.677,309.772L194.9,308.975L194.9,299.12C187.822,300.048 187.574,311.667 187.574,311.667Z" style="fill:rgb(33,9,1);fill-rule:nonzero;"/>
        </g>
        <g transform="matrix(4.16667,0,0,4.16667,-835.833,-1391.46)">
            <path d="M192.918,300.746C193.09,302.378 194.052,303.626 193.964,305.395C193.893,306.825 193.438,309.288 192.241,310.177C192.253,313.935 192.438,319.922 189.866,323.011C189.432,321.854 189.319,320.266 188.626,319.259C189.024,319.491 189.446,319.718 189.88,319.784C189.66,318.135 188.583,315.946 188.869,314.259C189.458,314.793 189.981,315.325 190.576,315.812C190.688,314.727 189.729,313.836 189.456,312.814C189.174,311.757 188.596,309.311 188.753,308.186C189.534,308.606 190.136,309.467 190.804,310.029C190.634,308.917 190.681,307.624 190.723,306.456C191.197,306.544 191.587,306.875 192.088,307.008C192.241,306.176 191.592,305.471 191.407,304.691C191.261,304.071 191.275,303.407 191.31,302.762C191.824,303.037 192.315,303.429 192.78,303.754C192.47,303.094 191.934,301.443 192.569,300.863" style="fill:rgb(54,31,15);fill-rule:nonzero;"/>
        </g>
        <g transform="matrix(4.16667,0,0,4.16667,-835.833,-1391.46)">
            <path d="M237.345,303.397C234.711,288.528 210.27,290.541 210.27,290.541C185.829,294.104 194.9,308.975 194.9,308.975C195.594,306.55 197.773,304.998 200.416,304.005C201.208,305.286 205.163,310.757 215.586,311.878C215.586,311.878 212.577,308.332 213.085,306.886C213.085,306.886 222.435,316.949 229.979,318.934L229.979,314.899C229.979,314.899 232.165,320.582 233.89,323.184L232.164,340.73L233.932,339.581L236.058,326.78C239.271,319.743 237.345,303.397 237.345,303.397Z" style="fill:rgb(33,9,1);fill-rule:nonzero;"/>
        </g>
        <g transform="matrix(4.16667,0,0,4.16667,-835.833,-1391.46)">
            <path d="M196.055,300.281C196.497,300.944 197.416,301.763 197.681,302.276C197.776,301.361 197.275,300.585 197.345,299.709C198.679,300.385 200.37,300.565 201.728,301.079C201.691,300.335 201.535,299.388 201.292,298.672C203.535,298.483 204.993,300.457 207.079,300.499C207.148,299.337 206.597,298.427 206.522,297.394C208.737,297.31 210.716,299.338 212.889,299.102C212.814,298.383 212.546,297.357 212.361,296.582C214.39,296.463 217.607,299.049 219.156,300.244C219.213,299.261 219.109,298.247 219.305,297.274C222.171,298.363 224.475,300.571 227.056,302.143C227.142,301.259 226.821,300.45 226.851,299.589C229.867,301.058 231.545,304.779 233.678,307.221C233.694,306.515 233.118,305.978 233.139,305.28C233.685,306.007 234.197,306.818 234.758,307.561C233.536,305.922 232.624,303.634 231.823,301.706C232.137,302.392 232.434,303.066 232.784,303.73C231.56,301.946 229.459,300.228 228.904,298.076C228.729,298.562 229.05,299.14 229.414,299.547C228.422,298.241 226.286,296.269 224.761,295.7C224.848,296.452 225.647,296.949 225.786,297.689C224.632,297.036 223.389,295.517 222.097,295.296C222.17,295.489 222.104,295.873 222.185,296.081C220.724,296.338 218.897,294.937 217.685,294.251C217.657,294.735 217.906,295.164 217.997,295.619C216.892,295.342 215.78,294.401 214.633,294.249C214.496,294.612 214.504,295.018 214.639,295.387C213.035,295.457 211.459,294.817 209.897,294.954C209.959,295.134 209.907,295.571 209.964,295.716C209.16,295.309 207.22,294.711 206.328,295.055C205.539,295.36 205.709,295.372 205.804,296.315C204.468,296.392 203.104,296.298 201.768,296.34C201.739,296.73 201.598,297.086 201.621,297.478C200.661,297.566 199.708,297.318 198.747,297.394C198.749,297.623 198.58,297.82 198.594,298.057C197.643,298.106 196.017,297.738 196.27,299.221C196.145,299.191 195.981,299.177 195.84,299.131C195.727,299.622 195.854,300.034 196.287,300.165" style="fill:rgb(54,31,15);fill-rule:nonzero;"/>
        </g>
    </g>
</svg>
