<?xml version="1.0" encoding="UTF-8" standalone="no"?>
<!DOCTYPE svg PUBLIC "-//W3C//DTD SVG 1.1//EN" "http://www.w3.org/Graphics/SVG/1.1/DTD/svg11.dtd">
<svg width="100%" height="100%" viewBox="0 0 100 100" version="1.1" xmlns="http://www.w3.org/2000/svg" xmlns:xlink="http://www.w3.org/1999/xlink" xml:space="preserve" xmlns:serif="http://www.serif.com/" style="fill-rule:evenodd;clip-rule:evenodd;stroke-linejoin:round;stroke-miterlimit:2;">
    <g transform="matrix(0.194442,0,0,0.194442,40.1854,40.7875)">
        <g transform="matrix(4.16667,0,0,4.16667,-1345.36,-296.916)">
            <path d="M305.714,73.444C305.714,73.444 301.954,100.965 323.032,101.328L345.343,101.328C345.343,101.328 365.179,96.231 361.278,73.444L305.714,73.444Z" style="fill:rgb(50,19,0);fill-rule:nonzero;"/>
        </g>
        <g transform="matrix(4.16667,0,0,4.16667,-1345.36,-296.916)">
            <rect x="324.847" y="94.52" width="20.496" height="11.842" style="fill:rgb(236,183,158);fill-rule:nonzero;"/>
        </g>
        <g transform="matrix(4.16667,0,0,4.16667,-1345.36,-296.916)">
            <path d="M329.332,103.619C327.84,103.619 326.337,103.534 324.847,103.381L324.847,94.52L345.343,94.52L345.343,94.94C345.093,95.371 344.825,95.777 344.579,96.133C343.333,97.949 341.675,99.504 339.618,100.813C337.085,102.426 333.876,103.488 330.579,103.599C330.165,103.613 329.749,103.619 329.332,103.619Z" style="fill:rgb(195,153,133);fill-rule:nonzero;"/>
        </g>
        <g transform="matrix(4.16667,0,0,4.16667,-1345.36,-296.916)">
            <path d="M360.476,62.281C360.476,43.296 349.101,32.385 335.034,32.295L334.913,32.294L334.87,32.294L334.739,32.295C320.671,32.385 309.298,43.296 309.298,62.281C309.298,86.905 327.022,101.263 334.86,101.327L334.862,101.328L334.913,101.328L334.915,101.327C342.751,101.263 360.476,86.905 360.476,62.281Z" style="fill:rgb(236,183,158);fill-rule:nonzero;"/>
        </g>
        <g transform="matrix(4.16667,0,0,4.16667,-1345.36,-296.916)">
            <path d="M357.954,69.31L356.493,80.499C362.233,83.027 363.132,69.86 363.132,69.86C361.804,66.577 357.954,69.31 357.954,69.31Z" style="fill:rgb(236,183,158);fill-rule:nonzero;"/>
        </g>
        <g transform="matrix(4.16667,0,0,4.16667,-1345.36,-296.916)">
            <path d="M307.29,69.86C307.29,69.86 308.187,83.027 313.929,80.499L312.468,69.31C312.468,69.31 308.616,66.577 307.29,69.86Z" style="fill:rgb(236,183,158);fill-rule:nonzero;"/>
        </g>
        <g transform="matrix(4.16667,0,0,4.16667,-1345.36,-296.916)">
            <path d="M324.767,105.461L300.116,113.083C300.116,113.083 291.489,114.614 289.288,123.595L285.515,139.876L384.259,139.876L380.485,123.595C378.284,114.614 369.657,113.083 369.657,113.083L345.005,105.461L324.767,105.461Z" style="fill:rgb(236,183,158);fill-rule:nonzero;"/>
        </g>
        <g transform="matrix(4.16667,0,0,4.16667,-1345.36,-296.916)">
            <path d="M356.493,109.013L369.657,113.083C369.657,113.083 378.284,114.614 380.485,123.595L384.259,139.876L285.515,139.876L289.288,123.595C291.489,114.614 300.116,113.083 300.116,113.083L313.19,109.04C313.19,109.04 331.624,121.357 356.493,109.013Z" style="fill:rgb(13,111,140);fill-rule:nonzero;"/>
        </g>
        <g transform="matrix(4.16667,0,0,4.16667,-1345.36,-296.916)">
            <path d="M334.186,114.506L334.183,114.506L334.186,114.506ZM334.189,114.506C340.556,114.506 348.068,113.156 356.288,109.115C348.066,113.156 340.557,114.506 334.189,114.506ZM356.43,109.044C356.451,109.034 356.472,109.024 356.493,109.013C356.472,109.024 356.451,109.034 356.43,109.044Z" style="fill:rgb(176,138,121);fill-rule:nonzero;"/>
        </g>
        <g transform="matrix(4.16667,0,0,4.16667,-1345.36,-296.916)">
            <path d="M384.259,139.876L383.425,139.876L380.485,127.184C378.284,118.204 369.657,116.674 369.657,116.674L356.493,112.602C348.19,116.724 340.606,118.097 334.184,118.097C321.371,118.097 313.19,112.631 313.19,112.631L300.116,116.674C300.116,116.674 291.489,118.204 289.288,127.184L286.347,139.876L285.515,139.876L289.288,123.595C291.489,114.614 300.116,113.083 300.116,113.083L313.19,109.04C313.19,109.04 321.37,114.505 334.183,114.506L334.189,114.506C340.557,114.506 348.066,113.156 356.288,109.115C356.335,109.091 356.383,109.068 356.43,109.044C356.451,109.034 356.472,109.024 356.493,109.013L369.657,113.083C369.657,113.083 378.284,114.614 380.485,123.595L384.259,139.876Z" style="fill:rgb(4,88,113);fill-rule:nonzero;"/>
        </g>
        <g transform="matrix(4.16667,0,0,4.16667,-1345.36,-296.916)">
            <path d="M303.608,59.943C301.735,100.441 310.608,103.954 310.608,103.954C322.446,106.371 323.032,101.328 323.032,101.328C307.44,97.198 310.374,60.177 310.374,60.177C310.374,60.177 319.937,53.364 321.476,45.143L321.849,32.294C321.849,32.294 309.298,33.254 303.608,59.943Z" style="fill:rgb(59,35,20);fill-rule:nonzero;"/>
        </g>
        <g transform="matrix(4.16667,0,0,4.16667,-1345.36,-296.916)">
            <path d="M320.854,44.257C320.854,44.257 331.155,60.333 358.001,60.177C358.001,60.177 360.935,97.198 345.343,101.328C345.343,101.328 346.319,107.025 358.155,104.611C358.155,104.611 367.21,106.362 365.806,61.893C365.806,61.893 365.952,19.44 328.345,27.713C328.345,27.713 314.3,33.644 320.854,44.257Z" style="fill:rgb(59,35,20);fill-rule:nonzero;"/>
        </g>
        <g transform="matrix(4.16667,0,0,4.16667,-1345.36,-296.916)">
            <path d="M321.591,37.704C321.263,39.442 323.644,44.442 325.335,44.919C327.515,45.534 326.845,43.54 327.198,42.001C328.413,44.024 330.231,46.656 332.56,47.511C332.524,46.622 332.64,45.648 332.862,44.798C334.821,46.73 338.013,49.211 340.495,50.321C341.028,49.104 340.89,47.597 340.333,46.397C343.796,47.064 346.474,50.678 349.882,51.492C349.858,50.573 349.847,49.579 350.202,48.732C353.229,49.379 356.493,52.174 359.247,53.786C359.399,52.72 359.122,51.649 359.085,50.599C360.286,51.191 361.31,52.34 362.522,52.902C362.38,50.216 360.325,46.016 357.212,46.167C357.294,46.725 357.142,47.429 357.368,47.934C355.632,45.45 352.573,42.053 350.202,40.298C350.13,41.272 350.616,42.128 350.884,43.016C349.438,41.452 347.37,39.106 345.272,38.654C345.062,40.374 345.651,42.059 345.431,43.776C343.679,43.119 343.165,40.287 341.304,39.345C341.304,39.996 340.894,40.724 340.993,41.434C338.765,40.465 336.835,38.241 334.731,37.004C334.776,38.619 335.665,40.117 336.612,41.388C335.614,40.057 334.657,38.075 333.099,37.525C332.894,38.672 333.132,39.888 333.882,40.796C332.274,40.243 331.515,38.678 330.237,37.781C330.239,38.028 329.972,38.673 329.981,39.072C328.112,39.266 326.479,36.906 324.425,36.792C324.562,37.288 324.382,37.852 324.61,38.375C323.644,38.097 322.065,37.192 321.591,37.704Z" style="fill:rgb(72,46,31);fill-rule:nonzero;"/>
        </g>
    </g>
</svg>
