<?xml version="1.0" encoding="UTF-8" standalone="no"?>
<!DOCTYPE svg PUBLIC "-//W3C//DTD SVG 1.1//EN" "http://www.w3.org/Graphics/SVG/1.1/DTD/svg11.dtd">
<svg width="100%" height="100%" viewBox="0 0 880 780" version="1.1" xmlns="http://www.w3.org/2000/svg" xmlns:xlink="http://www.w3.org/1999/xlink" xml:space="preserve" xmlns:serif="http://www.serif.com/" style="fill-rule:evenodd;clip-rule:evenodd;stroke-linecap:round;stroke-miterlimit:10;">
    <g transform="matrix(3.92015,0,0,3.92015,-154.039,-75.3309)">
        <g transform="matrix(1,0,0,1,252.637,31.3161)">
            <path d="M0,165.353C0,165.353 -8.443,133.978 2.472,118.964C13.387,103.95 11.879,77.009 -20.241,67.437C-52.361,57.866 -40.064,29.106 -64.534,14.553C-89.004,0 -119.115,7.069 -133.944,37.318C-148.774,67.567 -183.414,44.565 -198.15,67.437C-210.625,86.798 -182.962,96.446 -187.958,111.373C-192.953,126.299 -205.63,150.475 -196.05,165.353L0,165.353Z" style="fill:rgb(212,216,219);fill-rule:nonzero;"/>
        </g>
        <g transform="matrix(-1,0.000744546,0.000744546,1,241.861,153.747)">
            <path d="M0.477,-13.431C0.477,-13.431 -0.061,-7.83 6.806,-6.51C6.806,-6.51 0.584,-6.023 0.477,-0C0.477,-0 0.422,-5.3 -6.324,-6.711C-6.324,-6.711 -0.18,-7.227 0.477,-13.431" style="fill:white;fill-rule:nonzero;"/>
        </g>
        <g transform="matrix(-1,0.000744546,0.000744546,1,68.4432,171.289)">
            <path d="M0.477,-13.431C0.477,-13.431 -0.061,-7.83 6.806,-6.51C6.806,-6.51 0.584,-6.023 0.477,-0C0.477,-0 0.422,-5.301 -6.324,-6.711C-6.324,-6.711 -0.18,-7.228 0.477,-13.431" style="fill:white;fill-rule:nonzero;"/>
        </g>
        <g transform="matrix(-1,0.000744546,0.000744546,1,68.4432,59.8943)">
            <path d="M0.477,-13.431C0.477,-13.431 -0.061,-7.83 6.806,-6.51C6.806,-6.51 0.584,-6.023 0.477,-0C0.477,-0 0.422,-5.3 -6.324,-6.711C-6.324,-6.711 -0.18,-7.227 0.477,-13.431" style="fill:rgb(23,169,230);fill-rule:nonzero;"/>
        </g>
        <g transform="matrix(-1,0.000819001,0.000819001,1,228.634,73.0349)">
            <path d="M0.477,-13.431C0.477,-13.431 -0.061,-7.83 6.806,-6.51C6.806,-6.51 0.584,-6.023 0.477,-0C0.477,-0 0.423,-5.3 -6.323,-6.711C-6.323,-6.711 -0.18,-7.227 0.477,-13.431" style="fill:rgb(0,204,102);fill-rule:nonzero;"/>
        </g>
        <g transform="matrix(-1,0,0,1,43.2641,196.669)">
            <path d="M-2.071,0L0,0" style="fill:none;fill-rule:nonzero;stroke:rgb(1,51,25);stroke-width:2px;"/>
        </g>
        <g transform="matrix(-1,0,0,1,319.522,-17.477)">
            <rect x="93.907" y="100.351" width="131.708" height="83.353" style="fill:white;"/>
        </g>
        <g transform="matrix(-1,0,0,1,322.89,91.93)">
            <rect x="142.693" y="69.909" width="37.504" height="34.83" style="fill:white;stroke:rgb(1,51,25);stroke-width:2px;"/>
        </g>
        <g transform="matrix(1,0,0,1,228.387,176.549)">
            <path d="M0,-18.435L0,-5.604C0,-2.511 -2.511,0 -5.604,0L-132.268,0C-135.361,0 -137.872,-2.511 -137.872,-5.604L-137.872,-18.435L0,-18.435Z" style="fill:rgb(0,204,102);fill-rule:nonzero;"/>
        </g>
        <g transform="matrix(1,0,0,1,0,-30.555)">
            <path d="M221.475,116.871L97.428,116.871L97.428,181.51L221.475,181.51L221.475,116.871ZM228.387,114.069L228.387,188.669L90.515,188.669L90.515,114.069C90.515,110.971 93.025,108.464 96.119,108.464L222.782,108.464C225.876,108.464 228.387,110.971 228.387,114.069" style="fill:rgb(231,233,237);fill-rule:nonzero;"/>
        </g>
        <g transform="matrix(1,0,0,1,228.387,96.3439)">
            <path d="M0,-12.83L0,74.601C0,77.694 -2.511,80.205 -5.604,80.205L-132.268,80.205C-135.361,80.205 -137.872,77.694 -137.872,74.601L-137.872,-12.83C-137.872,-15.928 -135.361,-18.435 -132.268,-18.435L-5.604,-18.435C-2.511,-18.435 0,-15.928 0,-12.83Z" style="fill:none;fill-rule:nonzero;stroke:rgb(1,51,25);stroke-width:2px;"/>
        </g>
        <g transform="matrix(1,0,0,1,90.5148,158.114)">
            <path d="M0,0L137.872,0" style="fill:none;fill-rule:nonzero;stroke:rgb(1,51,25);stroke-width:2px;"/>
        </g>
        <g transform="matrix(0,-1,-1,0,161.445,160.587)">
            <path d="M-3.987,-3.987C-6.189,-3.987 -7.973,-2.203 -7.973,-0.001C-7.973,2.2 -6.189,3.987 -3.987,3.987C-1.785,3.987 -0.001,2.2 -0.001,-0.001C-0.001,-2.203 -1.785,-3.987 -3.987,-3.987" style="fill:white;fill-rule:nonzero;"/>
        </g>
        <g opacity="0.19">
            <g transform="matrix(-1,0,0,1,322.344,92.448)">
                <rect x="142.147" y="83.624" width="38.05" height="6.882"/>
            </g>
        </g>
        <g transform="matrix(1,0,0,1,51.2198,196.677)">
            <path d="M0,0L206.66,0" style="fill:none;fill-rule:nonzero;stroke:rgb(1,51,25);stroke-width:2px;"/>
        </g>
        <g transform="matrix(1,0,0,1,191.172,99.6878)">
            <path d="M0,13.013L-73.026,13.013C-74.451,13.013 -75.606,11.858 -75.606,10.432L-75.606,2.58C-75.606,1.155 -74.451,0 -73.026,0L0,0C1.426,0 2.581,1.155 2.581,2.58L2.581,10.432C2.581,11.858 1.426,13.013 0,13.013" style="fill:rgb(0,204,102);fill-rule:nonzero;"/>
        </g>
        <g transform="matrix(1,0,0,1,141.515,116.19)">
            <path d="M0,1.392L-25.515,1.392C-25.755,1.392 -25.949,1.198 -25.949,0.957L-25.949,0.434C-25.949,0.195 -25.755,0 -25.515,0L0,0C0.239,0 0.434,0.195 0.434,0.434L0.434,0.957C0.434,1.198 0.239,1.392 0,1.392" style="fill:rgb(0,204,102);fill-rule:nonzero;"/>
        </g>
        <g transform="matrix(1,0,0,1,167.834,119.768)">
            <path d="M0,1.392L-51.653,1.392C-51.993,1.392 -52.269,1.117 -52.269,0.777L-52.269,0.615C-52.269,0.276 -51.993,0 -51.653,0L0,0C0.34,0 0.615,0.276 0.615,0.615L0.615,0.777C0.615,1.117 0.34,1.392 0,1.392" style="fill:rgb(0,204,102);fill-rule:nonzero;"/>
        </g>
        <g transform="matrix(1,0,0,1,167.205,123.346)">
            <path d="M0,5.694L-50.396,5.694C-51.082,5.694 -51.64,5.137 -51.64,4.45L-51.64,1.244C-51.64,0.557 -51.082,0 -50.396,0L0,0C0.687,0 1.244,0.557 1.244,1.244L1.244,4.45C1.244,5.137 0.687,5.694 0,5.694" style="fill:rgb(0,204,102);fill-rule:nonzero;"/>
        </g>
        <g opacity="0.56">
            <g transform="matrix(1,0,0,1,147.798,131.226)">
                <path d="M0,9.559L-11.581,9.559C-12.026,9.559 -12.387,9.199 -12.387,8.754L-12.387,0.805C-12.387,0.36 -12.026,0 -11.581,0L0,0C0.444,0 0.806,0.36 0.806,0.805L0.806,8.754C0.806,9.199 0.444,9.559 0,9.559" style="fill:rgb(0,204,102);fill-rule:nonzero;"/>
            </g>
        </g>
        <g opacity="0.56">
            <g transform="matrix(1,0,0,1,128.407,131.226)">
                <path d="M0,9.559L-11.581,9.559C-12.025,9.559 -12.386,9.199 -12.386,8.754L-12.386,0.805C-12.386,0.36 -12.025,0 -11.581,0L0,0C0.445,0 0.806,0.36 0.806,0.805L0.806,8.754C0.806,9.199 0.445,9.559 0,9.559" style="fill:rgb(0,204,102);fill-rule:nonzero;"/>
            </g>
        </g>
        <g opacity="0.56">
            <g transform="matrix(1,0,0,1,166.862,131.226)">
                <path d="M0,9.559L-11.581,9.559C-12.025,9.559 -12.386,9.199 -12.386,8.754L-12.386,0.805C-12.386,0.36 -12.025,0 -11.581,0L0,0C0.445,0 0.806,0.36 0.806,0.805L0.806,8.754C0.806,9.199 0.445,9.559 0,9.559" style="fill:rgb(0,204,102);fill-rule:nonzero;"/>
            </g>
        </g>
        <g opacity="0.56">
            <g transform="matrix(1,0,0,1,185.928,131.226)">
                <path d="M0,9.559L-11.582,9.559C-12.026,9.559 -12.387,9.199 -12.387,8.754L-12.387,0.805C-12.387,0.36 -12.026,0 -11.582,0L0,0C0.444,0 0.805,0.36 0.805,0.805L0.805,8.754C0.805,9.199 0.444,9.559 0,9.559" style="fill:rgb(0,204,102);fill-rule:nonzero;"/>
            </g>
        </g>
        <g opacity="0.15">
            <g transform="matrix(1,0,0,1,133.189,82.1441)">
                <path d="M0,-4.289C-0.029,-4.074 -0.078,-3.868 -0.166,-3.672L-0.695,-2.879L-0.715,-2.859C-1.165,-2.252 -1.654,-1.675 -2.124,-1.087C-2.398,-0.715 -2.644,-0.324 -2.907,0.058C-3.23,0.528 -3.515,0.998 -3.73,1.527C-3.789,1.674 -3.848,1.821 -3.906,1.967L-5.835,4.876L-9.311,2.575L-8.293,1.027L-11.25,-0.931L-10.153,-2.585L-6.599,-7.96L-5.796,-9.165L-2.839,-7.197L-1.812,-8.744L1.665,-6.443L0.167,-4.181C0.118,-4.221 0.059,-4.25 0,-4.289" style="fill:rgb(1,51,25);fill-rule:nonzero;"/>
            </g>
            <g transform="matrix(1,0,0,1,104.949,79.4187)">
                <path d="M0,-19.151L21.472,-5.483L21.639,-5.375L18.084,0L-3.671,-12.934C-1.479,-14.148 0,-16.478 0,-19.151" style="fill:rgb(1,51,25);fill-rule:nonzero;"/>
            </g>
            <g transform="matrix(0.730173,-0.683263,-0.683263,-0.730173,69.9044,103.778)">
                <path d="M-2.253,17.353L45.136,17.353C42.46,14.493 42.616,10.003 45.468,7.334L-1.808,4.172C1.711,7.932 1.515,13.828 -2.253,17.353" style="fill:rgb(1,51,25);fill-rule:nonzero;"/>
            </g>
            <g transform="matrix(1,0,0,1,65.7335,154.203)">
                <path d="M0,-50.424L41.23,-7.167L41.22,-7.05C40.691,-7.128 40.153,-7.167 39.604,-7.167C34.827,-7.167 30.734,-4.181 29.108,0.029L28.345,-0.265L-8.097,-42.904L-8.106,-42.983C-4.112,-43.502 -0.92,-46.547 -0.166,-50.453L0,-50.424Z" style="fill:rgb(1,51,25);fill-rule:nonzero;"/>
            </g>
            <g transform="matrix(1,0,0,1,135.733,182.94)">
                <path d="M0,13.729L-61.254,13.729L-61.254,2.75C-61.254,1.231 -60.022,0 -58.504,0L-2.75,0C-1.231,0 0,1.231 0,2.75L0,13.729Z" style="fill:rgb(1,51,25);fill-rule:nonzero;"/>
            </g>
            <g transform="matrix(1,0,0,1,135.733,182.94)">
                <path d="M0,13.729L-61.254,13.729L-61.254,2.75C-61.254,1.231 -60.022,0 -58.504,0L-2.75,0C-1.231,0 0,1.231 0,2.75L0,13.729Z" style="fill:rgb(1,51,25);fill-rule:nonzero;"/>
            </g>
            <g transform="matrix(1,0,0,1,128.517,182.94)">
                <path d="M0,-6.601L-46.82,-6.601C-47.89,-6.601 -48.757,-5.734 -48.757,-4.665L-48.757,0L1.937,0L1.937,-4.665C1.937,-5.734 1.069,-6.601 0,-6.601" style="fill:rgb(1,51,25);fill-rule:nonzero;"/>
            </g>
            <g transform="matrix(1,0,0,1,128.517,182.94)">
                <path d="M0,-6.601L-46.82,-6.601C-47.89,-6.601 -48.757,-5.734 -48.757,-4.665L-48.757,0L1.937,0L1.937,-4.665C1.937,-5.734 1.069,-6.601 0,-6.601" style="fill:rgb(1,51,25);fill-rule:nonzero;"/>
            </g>
            <g transform="matrix(-1,0,0,1,210.214,71.314)">
                <rect x="91.026" y="90.239" width="28.162" height="14.786" style="fill:rgb(1,51,25);"/>
            </g>
            <g transform="matrix(-1,0,0,1,210.214,71.314)">
                <rect x="91.026" y="90.239" width="28.162" height="14.786" style="fill:rgb(1,51,25);"/>
            </g>
            <g transform="matrix(0,-1,-1,0,105.107,147.031)">
                <path d="M-11.266,-11.266C-17.488,-11.266 -22.531,-6.222 -22.531,0C-22.531,6.221 -17.488,11.266 -11.266,11.266C-5.044,11.266 -0.001,6.221 -0.001,0C-0.001,-6.222 -5.044,-11.266 -11.266,-11.266" style="fill:rgb(1,51,25);fill-rule:nonzero;"/>
            </g>
            <g transform="matrix(0,-1,-1,0,105.107,150.64)">
                <path d="M-7.657,-7.657C-11.886,-7.657 -15.314,-4.228 -15.314,-0C-15.314,4.229 -11.886,7.657 -7.657,7.657C-3.428,7.657 -0,4.229 -0,-0C-0,-4.228 -3.428,-7.657 -7.657,-7.657" style="fill:rgb(1,51,25);fill-rule:nonzero;"/>
            </g>
            <g transform="matrix(0,-1,-1,0,105.107,147.031)">
                <path d="M-11.266,-11.266C-17.488,-11.266 -22.531,-6.222 -22.531,0C-22.531,6.221 -17.488,11.266 -11.266,11.266C-5.044,11.266 -0.001,6.221 -0.001,0C-0.001,-6.222 -5.044,-11.266 -11.266,-11.266" style="fill:rgb(1,51,25);fill-rule:nonzero;"/>
            </g>
            <g transform="matrix(0,-1,-1,0,56.1736,92.6428)">
                <path d="M-9.329,-9.329C-14.481,-9.329 -18.658,-5.152 -18.658,-0.001C-18.658,5.151 -14.481,9.329 -9.329,9.329C-4.177,9.329 0,5.151 0,-0.001C0,-5.152 -4.177,-9.329 -9.329,-9.329" style="fill:rgb(1,51,25);fill-rule:nonzero;"/>
            </g>
            <g transform="matrix(0,-1,-1,0,56.1734,95.6788)">
                <path d="M-6.293,-6.293C-9.768,-6.293 -12.585,-3.476 -12.585,-0.001C-12.585,3.475 -9.768,6.293 -6.293,6.293C-2.817,6.293 -0.001,3.475 -0.001,-0.001C-0.001,-3.476 -2.817,-6.293 -6.293,-6.293" style="fill:rgb(1,51,25);fill-rule:nonzero;"/>
            </g>
            <g transform="matrix(0,-1,-1,0,56.1736,92.6428)">
                <path d="M-9.329,-9.329C-14.481,-9.329 -18.658,-5.152 -18.658,-0.001C-18.658,5.151 -14.481,9.329 -9.329,9.329C-4.177,9.329 0,5.151 0,-0.001C0,-5.152 -4.177,-9.329 -9.329,-9.329" style="fill:rgb(1,51,25);fill-rule:nonzero;"/>
            </g>
            <g transform="matrix(0,-1,-1,0,97.8638,53.1792)">
                <path d="M-7.089,-7.089C-11.003,-7.089 -14.178,-3.915 -14.178,0.001C-14.178,3.915 -11.003,7.089 -7.089,7.089C-3.174,7.089 0.001,3.915 0.001,0.001C0.001,-3.915 -3.174,-7.089 -7.089,-7.089" style="fill:rgb(1,51,25);fill-rule:nonzero;"/>
            </g>
            <g transform="matrix(0,-1,-1,0,97.8635,56.1497)">
                <path d="M-4.118,-4.119C-6.392,-4.119 -8.237,-2.275 -8.237,0C-8.237,2.275 -6.392,4.118 -4.118,4.118C-1.844,4.118 0,2.275 0,0C0,-2.275 -1.844,-4.119 -4.118,-4.119" style="fill:rgb(1,51,25);fill-rule:nonzero;"/>
            </g>
            <g transform="matrix(0,-1,-1,0,97.8638,53.1792)">
                <path d="M-7.089,-7.089C-11.003,-7.089 -14.178,-3.915 -14.178,0.001C-14.178,3.915 -11.003,7.089 -7.089,7.089C-3.174,7.089 0.001,3.915 0.001,0.001C0.001,-3.915 -3.174,-7.089 -7.089,-7.089" style="fill:rgb(1,51,25);fill-rule:nonzero;"/>
            </g>
            <g transform="matrix(0.649634,0.760247,0.760247,-0.649634,79.9969,104.92)">
                <path d="M-9.826,-21.32L46.262,-21.32" style="fill:none;fill-rule:nonzero;"/>
            </g>
            <g transform="matrix(0.689969,0.723839,0.723839,-0.689969,87.5489,95.5582)">
                <path d="M-9.264,-21.628L50.496,-21.628" style="fill:none;fill-rule:nonzero;"/>
            </g>
            <g transform="matrix(0.730215,-0.683218,-0.683218,-0.730215,71.901,100.095)">
                <path d="M-6.392,16.188L40.994,16.188" style="fill:none;fill-rule:nonzero;"/>
            </g>
            <g transform="matrix(0.682923,-0.73049,-0.73049,-0.682923,83.2755,108.303)">
                <path d="M-7.512,17.308L39.873,17.308" style="fill:none;fill-rule:nonzero;"/>
            </g>
            <g transform="matrix(0.859542,0.511064,0.511064,-0.859542,106.113,61.8298)">
                <path d="M-1.778,-6.469L23.538,-6.469" style="fill:none;fill-rule:nonzero;"/>
            </g>
            <g transform="matrix(0.843493,0.53714,0.53714,-0.843493,110.303,55.5725)">
                <path d="M-1.991,-6.835L23.456,-6.834" style="fill:none;fill-rule:nonzero;"/>
            </g>
            <g transform="matrix(1,0,0,1,134.854,84.1533)">
                <path d="M0,-8.596L-7.5,2.722L-10.976,0.422L-9.958,-1.125L-12.915,-3.083L-7.461,-11.318L-4.504,-9.35L-3.477,-10.897L0,-8.596Z" style="fill:rgb(1,51,25);fill-rule:nonzero;"/>
            </g>
            <g transform="matrix(1,0,0,1,133.189,85.2934)">
                <path d="M0,-7.576C-0.075,-7.034 -0.318,-6.522 -0.723,-6.154C-1.168,-5.544 -1.653,-4.963 -2.129,-4.376C-2.4,-4.003 -2.649,-3.615 -2.911,-3.236C-3.236,-2.766 -3.514,-2.294 -3.736,-1.767C-3.895,-1.383 -4.05,-0.998 -4.22,-0.619C-3.597,-0.233 -2.869,0 -2.082,0C0.173,0 2,-1.827 2,-4.082C2,-5.573 1.192,-6.864 0,-7.576" style="fill:rgb(1,51,25);fill-rule:nonzero;"/>
            </g>
            <g transform="matrix(1,0,0,1,130.871,94.1053)">
                <path d="M0,-9.175L-0.727,-1.485L12.541,0.924L13.531,-1.023L2.277,-3.663L2.476,-10.099L0,-9.175Z" style="fill:rgb(1,51,25);fill-rule:nonzero;"/>
            </g>
            <g transform="matrix(1,0,0,1,134.747,82.9081)">
                <path d="M0,-3.991L6.475,-8.203L14.766,2.431L13.501,4.212L5.938,-4.532L0.33,-1.369L0,-3.991Z" style="fill:rgb(1,51,25);fill-rule:nonzero;"/>
            </g>
            <g transform="matrix(0.665137,0.746721,0.746721,-0.665137,82.1254,106.601)">
                <path d="M-7.134,-15.907L35.473,-15.908" style="fill:none;fill-rule:nonzero;"/>
            </g>
            <g transform="matrix(0.706925,-0.707289,-0.707289,-0.706925,78.1478,97.8745)">
                <path d="M-5.239,12.643L30.512,12.643" style="fill:none;fill-rule:nonzero;"/>
            </g>
        </g>
        <g transform="matrix(1,0,0,1,128.189,82.1441)">
            <path d="M0,-4.289C-0.029,-4.074 -0.078,-3.868 -0.166,-3.672L-0.695,-2.879L-0.715,-2.859C-1.165,-2.252 -1.654,-1.675 -2.124,-1.087C-2.398,-0.715 -2.644,-0.324 -2.907,0.058C-3.23,0.528 -3.515,0.998 -3.73,1.527C-3.789,1.674 -3.848,1.821 -3.906,1.967L-5.835,4.876L-9.311,2.575L-8.293,1.027L-11.25,-0.931L-10.153,-2.585L-6.599,-7.96L-5.796,-9.165L-2.839,-7.197L-1.812,-8.744L1.665,-6.443L0.167,-4.181C0.118,-4.221 0.059,-4.25 0,-4.289" style="fill:rgb(23,169,230);fill-rule:nonzero;"/>
        </g>
        <g transform="matrix(1,0,0,1,99.9493,79.4187)">
            <path d="M0,-19.151L21.472,-5.483L21.639,-5.375L18.084,0L-3.671,-12.934C-1.479,-14.148 0,-16.478 0,-19.151" style="fill:rgb(175,179,177);fill-rule:nonzero;"/>
        </g>
        <g transform="matrix(0.730173,-0.683263,-0.683263,-0.730173,64.9044,103.778)">
            <path d="M-2.253,17.353L45.136,17.353C42.46,14.493 42.616,10.003 45.468,7.334L-1.808,4.172C1.711,7.932 1.515,13.828 -2.253,17.353" style="fill:rgb(175,179,177);fill-rule:nonzero;"/>
        </g>
        <g transform="matrix(1,0,0,1,60.7335,154.203)">
            <path d="M0,-50.424L41.23,-7.167L41.22,-7.05C40.691,-7.128 40.153,-7.167 39.604,-7.167C34.827,-7.167 30.734,-4.181 29.108,0.029L28.345,-0.265L-8.097,-42.904L-8.106,-42.983C-4.112,-43.502 -0.92,-46.547 -0.166,-50.453L0,-50.424Z" style="fill:rgb(175,179,177);fill-rule:nonzero;"/>
        </g>
        <g transform="matrix(1,0,0,1,130.733,182.94)">
            <path d="M0,13.729L-61.254,13.729L-61.254,2.75C-61.254,1.231 -60.022,0 -58.504,0L-2.75,0C-1.231,0 0,1.231 0,2.75L0,13.729Z" style="fill:rgb(23,169,230);fill-rule:nonzero;stroke:rgb(1,51,25);stroke-width:2px;"/>
        </g>
        <g transform="matrix(1,0,0,1,123.517,182.94)">
            <path d="M0,-6.601L-46.82,-6.601C-47.89,-6.601 -48.757,-5.734 -48.757,-4.665L-48.757,0L1.937,0L1.937,-4.665C1.937,-5.734 1.069,-6.601 0,-6.601Z" style="fill:rgb(128,217,255);fill-rule:nonzero;stroke:rgb(1,51,25);stroke-width:2px;"/>
        </g>
        <g transform="matrix(-1,0,0,1,200.214,71.314)">
            <rect x="86.026" y="90.239" width="28.162" height="14.786" style="fill:rgb(175,179,177);stroke:rgb(1,51,25);stroke-width:2px;"/>
        </g>
        <g transform="matrix(0,-1,-1,0,100.107,147.031)">
            <path d="M-11.266,-11.266C-17.488,-11.266 -22.531,-6.222 -22.531,0C-22.531,6.221 -17.488,11.266 -11.266,11.266C-5.044,11.266 -0.001,6.221 -0.001,0C-0.001,-6.222 -5.044,-11.266 -11.266,-11.266" style="fill:white;fill-rule:nonzero;"/>
        </g>
        <g transform="matrix(0,-1,-1,0,100.107,150.64)">
            <path d="M-7.657,-7.657C-11.886,-7.657 -15.314,-4.228 -15.314,-0C-15.314,4.229 -11.886,7.657 -7.657,7.657C-3.428,7.657 -0,4.229 -0,-0C-0,-4.228 -3.428,-7.657 -7.657,-7.657" style="fill:rgb(175,179,177);fill-rule:nonzero;"/>
        </g>
        <g transform="matrix(0,-1,-1,0,100.107,147.031)">
            <ellipse cx="-11.266" cy="0" rx="11.265" ry="11.266" style="fill:none;stroke:rgb(1,51,25);stroke-width:2px;"/>
        </g>
        <g transform="matrix(0,-1,-1,0,51.1736,92.6428)">
            <path d="M-9.329,-9.329C-14.481,-9.329 -18.658,-5.152 -18.658,-0.001C-18.658,5.151 -14.481,9.329 -9.329,9.329C-4.177,9.329 0,5.151 0,-0.001C0,-5.152 -4.177,-9.329 -9.329,-9.329" style="fill:white;fill-rule:nonzero;"/>
        </g>
        <g transform="matrix(0,-1,-1,0,51.1734,95.6788)">
            <path d="M-6.293,-6.293C-9.768,-6.293 -12.585,-3.476 -12.585,-0.001C-12.585,3.475 -9.768,6.293 -6.293,6.293C-2.817,6.293 -0.001,3.475 -0.001,-0.001C-0.001,-3.476 -2.817,-6.293 -6.293,-6.293" style="fill:rgb(175,179,177);fill-rule:nonzero;"/>
        </g>
        <g transform="matrix(0,-1,-1,0,51.1736,92.6428)">
            <ellipse cx="-9.329" cy="0" rx="9.329" ry="9.329" style="fill:none;stroke:rgb(1,51,25);stroke-width:2px;"/>
        </g>
        <g transform="matrix(0,-1,-1,0,92.8638,53.1792)">
            <path d="M-7.089,-7.089C-11.003,-7.089 -14.178,-3.915 -14.178,0.001C-14.178,3.915 -11.003,7.089 -7.089,7.089C-3.174,7.089 0.001,3.915 0.001,0.001C0.001,-3.915 -3.174,-7.089 -7.089,-7.089" style="fill:white;fill-rule:nonzero;"/>
        </g>
        <g transform="matrix(0,-1,-1,0,92.8635,56.1497)">
            <path d="M-4.118,-4.119C-6.392,-4.119 -8.237,-2.275 -8.237,0C-8.237,2.275 -6.392,4.118 -4.118,4.118C-1.844,4.118 0,2.275 0,0C0,-2.275 -1.844,-4.119 -4.118,-4.119" style="fill:rgb(175,179,177);fill-rule:nonzero;"/>
        </g>
        <g transform="matrix(0,-1,-1,0,92.8638,53.1792)">
            <ellipse cx="-7.089" cy="0" rx="7.089" ry="7.089" style="fill:none;stroke:rgb(1,51,25);stroke-width:2px;"/>
        </g>
        <g transform="matrix(0.649634,0.760247,0.760247,-0.649634,74.9969,104.92)">
            <path d="M-9.826,-21.32L46.262,-21.32" style="fill:none;fill-rule:nonzero;stroke:rgb(1,51,25);stroke-width:2px;"/>
        </g>
        <g transform="matrix(0.689969,0.723839,0.723839,-0.689969,82.5489,95.5582)">
            <path d="M-9.264,-21.628L50.496,-21.628" style="fill:none;fill-rule:nonzero;stroke:rgb(1,51,25);stroke-width:2px;"/>
        </g>
        <g transform="matrix(0.730215,-0.683218,-0.683218,-0.730215,66.901,100.095)">
            <path d="M-6.392,16.188L40.994,16.188" style="fill:none;fill-rule:nonzero;stroke:rgb(1,51,25);stroke-width:2px;"/>
        </g>
        <g transform="matrix(0.682923,-0.73049,-0.73049,-0.682923,78.2755,108.303)">
            <path d="M-7.512,17.308L39.873,17.308" style="fill:none;fill-rule:nonzero;stroke:rgb(1,51,25);stroke-width:2px;"/>
        </g>
        <g transform="matrix(0.859542,0.511064,0.511064,-0.859542,101.113,61.8298)">
            <path d="M-1.778,-6.469L23.538,-6.469" style="fill:none;fill-rule:nonzero;stroke:rgb(1,51,25);stroke-width:2px;"/>
        </g>
        <g transform="matrix(0.843493,0.53714,0.53714,-0.843493,105.303,55.5725)">
            <path d="M-1.991,-6.835L23.456,-6.834" style="fill:none;fill-rule:nonzero;stroke:rgb(1,51,25);stroke-width:2px;"/>
        </g>
        <g transform="matrix(1,0,0,1,129.854,84.1533)">
            <path d="M0,-8.596L-7.5,2.722L-10.976,0.422L-9.958,-1.125L-12.915,-3.083L-7.461,-11.318L-4.504,-9.35L-3.477,-10.897L0,-8.596Z" style="fill:none;fill-rule:nonzero;stroke:rgb(1,51,25);stroke-width:2px;"/>
        </g>
        <g transform="matrix(1,0,0,1,128.189,85.2934)">
            <path d="M0,-7.576C-0.075,-7.034 -0.318,-6.522 -0.723,-6.154C-1.168,-5.544 -1.653,-4.963 -2.129,-4.376C-2.4,-4.003 -2.649,-3.615 -2.911,-3.236C-3.236,-2.766 -3.514,-2.294 -3.736,-1.767C-3.895,-1.383 -4.05,-0.998 -4.22,-0.619C-3.597,-0.233 -2.869,0 -2.082,0C0.173,0 2,-1.827 2,-4.082C2,-5.573 1.192,-6.864 0,-7.576" style="fill:rgb(1,51,25);fill-rule:nonzero;"/>
        </g>
        <g transform="matrix(1,0,0,1,125.871,94.1053)">
            <path d="M0,-9.175L-0.727,-1.485L12.541,0.924L13.531,-1.023L2.277,-3.663L2.476,-10.099L0,-9.175Z" style="fill:rgb(1,51,25);fill-rule:nonzero;"/>
        </g>
        <g transform="matrix(1,0,0,1,129.747,82.9081)">
            <path d="M0,-3.991L6.475,-8.203L14.766,2.431L13.501,4.212L5.938,-4.532L0.33,-1.369L0,-3.991Z" style="fill:rgb(1,51,25);fill-rule:nonzero;"/>
        </g>
        <g transform="matrix(0.665137,0.746721,0.746721,-0.665137,77.1254,106.601)">
            <path d="M-7.134,-15.907L35.473,-15.908" style="fill:none;fill-rule:nonzero;stroke:rgb(134,132,136);stroke-width:2px;"/>
        </g>
        <g transform="matrix(0.706925,-0.707289,-0.707289,-0.706925,73.1478,97.8745)">
            <path d="M-5.239,12.643L30.512,12.643" style="fill:none;fill-rule:nonzero;stroke:rgb(134,132,136);stroke-width:2px;"/>
        </g>
        <g transform="matrix(1,0,0,1,159.457,97.7516)">
            <path d="M0,10.376C-2.893,10.376 -5.235,8.055 -5.235,5.183C-5.235,2.318 -2.893,0.002 0,0.002C2.888,0.002 5.229,2.318 5.229,5.183C5.229,8.055 2.888,10.376 0,10.376M14.026,2.632L11.478,2.622C11.176,1.307 10.654,0.078 9.952,-1.024L11.756,-2.814C12.402,-3.451 12.405,-4.488 11.761,-5.125L10.411,-6.465C9.769,-7.102 8.725,-7.107 8.081,-6.47L6.273,-4.68C5.163,-5.377 3.924,-5.894 2.604,-6.192L2.604,-8.72C2.604,-9.623 1.863,-10.356 0.95,-10.356L-0.955,-10.356C-1.868,-10.356 -2.605,-9.623 -2.605,-8.72L-2.605,-6.192C-3.908,-5.901 -5.124,-5.391 -6.225,-4.715L-8.018,-6.51C-8.66,-7.15 -9.705,-7.163 -10.351,-6.521L-11.708,-5.191C-12.352,-4.559 -12.359,-3.52 -11.72,-2.879L-9.927,-1.08C-10.634,0.018 -11.161,1.247 -11.466,2.556L-14.014,2.546C-14.927,2.538 -15.666,3.272 -15.666,4.179L-15.679,6.071C-15.684,6.971 -14.948,7.706 -14.036,7.714L-11.492,7.722C-11.193,9.039 -10.678,10.265 -9.976,11.365L-11.789,13.157C-12.433,13.79 -12.436,14.823 -11.793,15.465L-10.454,16.806C-9.808,17.453 -8.762,17.453 -8.12,16.815L-6.31,15.036C-5.198,15.733 -3.964,16.259 -2.635,16.561L-2.646,19.084C-2.649,19.986 -1.912,20.725 -1.002,20.725L0.906,20.732C1.817,20.732 2.558,20.006 2.558,19.106L2.565,16.575C3.891,16.28 5.131,15.761 6.245,15.069L8.044,16.866C8.685,17.503 9.732,17.503 10.383,16.866L11.728,15.531C12.375,14.897 12.379,13.857 11.729,13.223L9.939,11.428C10.642,10.323 11.167,9.099 11.468,7.782L14.015,7.79C14.926,7.79 15.662,7.059 15.666,6.156L15.666,4.26C15.666,3.362 14.933,2.632 14.026,2.632" style="fill:white;fill-rule:nonzero;"/>
        </g>
        <g transform="matrix(1,0,0,1,159.457,97.7516)">
            <path d="M0,10.376C-2.893,10.376 -5.235,8.055 -5.235,5.183C-5.235,2.318 -2.893,0.002 0,0.002C2.888,0.002 5.229,2.318 5.229,5.183C5.229,8.055 2.888,10.376 0,10.376M14.026,2.632L11.478,2.622C11.176,1.307 10.654,0.078 9.952,-1.024L11.756,-2.814C12.402,-3.451 12.405,-4.488 11.761,-5.125L10.411,-6.465C9.769,-7.102 8.725,-7.107 8.081,-6.47L6.273,-4.68C5.163,-5.377 3.924,-5.894 2.604,-6.192L2.604,-8.72C2.604,-9.623 1.863,-10.356 0.95,-10.356L-0.955,-10.356C-1.868,-10.356 -2.605,-9.623 -2.605,-8.72L-2.605,-6.192C-3.908,-5.901 -5.124,-5.391 -6.225,-4.715L-8.018,-6.51C-8.66,-7.15 -9.705,-7.163 -10.351,-6.521L-11.708,-5.191C-12.352,-4.559 -12.359,-3.52 -11.72,-2.879L-9.927,-1.08C-10.634,0.018 -11.161,1.247 -11.466,2.556L-14.014,2.546C-14.927,2.538 -15.666,3.272 -15.666,4.179L-15.679,6.071C-15.684,6.971 -14.948,7.706 -14.036,7.714L-11.492,7.722C-11.193,9.039 -10.678,10.265 -9.976,11.365L-11.789,13.157C-12.433,13.79 -12.436,14.823 -11.793,15.465L-10.454,16.806C-9.808,17.453 -8.762,17.453 -8.12,16.815L-6.31,15.036C-5.198,15.733 -3.964,16.259 -2.635,16.561L-2.646,19.084C-2.649,19.986 -1.912,20.725 -1.002,20.725L0.906,20.732C1.817,20.732 2.558,20.006 2.558,19.106L2.565,16.575C3.891,16.28 5.131,15.761 6.245,15.069L8.044,16.866C8.685,17.503 9.732,17.503 10.383,16.866L11.728,15.531C12.375,14.897 12.379,13.857 11.729,13.223L9.939,11.428C10.642,10.323 11.167,9.099 11.468,7.782L14.015,7.79C14.926,7.79 15.662,7.059 15.666,6.156L15.666,4.26C15.666,3.362 14.933,2.632 14.026,2.632" style="fill:rgb(23,169,230);fill-rule:nonzero;"/>
        </g>
        <g transform="matrix(1,0,0,1,159.457,97.7516)">
            <path d="M0,10.376C-2.893,10.376 -5.235,8.055 -5.235,5.183C-5.235,2.318 -2.893,0.002 0,0.002C2.888,0.002 5.229,2.318 5.229,5.183C5.229,8.055 2.888,10.376 0,10.376ZM14.026,2.632L11.478,2.622C11.176,1.307 10.654,0.078 9.952,-1.024L11.756,-2.814C12.402,-3.451 12.405,-4.488 11.761,-5.125L10.411,-6.465C9.769,-7.102 8.725,-7.107 8.081,-6.47L6.273,-4.68C5.163,-5.377 3.924,-5.894 2.604,-6.192L2.604,-8.72C2.604,-9.623 1.863,-10.356 0.95,-10.356L-0.955,-10.356C-1.868,-10.356 -2.605,-9.623 -2.605,-8.72L-2.605,-6.192C-3.908,-5.901 -5.124,-5.391 -6.225,-4.715L-8.018,-6.51C-8.66,-7.15 -9.705,-7.163 -10.351,-6.521L-11.708,-5.191C-12.352,-4.559 -12.359,-3.52 -11.72,-2.879L-9.927,-1.08C-10.634,0.018 -11.161,1.247 -11.466,2.556L-14.014,2.546C-14.927,2.538 -15.666,3.272 -15.666,4.179L-15.679,6.071C-15.684,6.971 -14.948,7.706 -14.036,7.714L-11.492,7.722C-11.193,9.039 -10.678,10.265 -9.976,11.365L-11.789,13.157C-12.433,13.79 -12.436,14.823 -11.793,15.465L-10.454,16.806C-9.808,17.453 -8.762,17.453 -8.12,16.815L-6.31,15.036C-5.198,15.733 -3.964,16.259 -2.635,16.561L-2.646,19.084C-2.649,19.986 -1.912,20.725 -1.002,20.725L0.906,20.732C1.817,20.732 2.558,20.006 2.558,19.106L2.565,16.575C3.891,16.28 5.131,15.761 6.245,15.069L8.044,16.866C8.685,17.503 9.732,17.503 10.383,16.866L11.728,15.531C12.375,14.897 12.379,13.857 11.729,13.223L9.939,11.428C10.642,10.323 11.167,9.099 11.468,7.782L14.015,7.79C14.926,7.79 15.662,7.059 15.666,6.156L15.666,4.26C15.666,3.362 14.933,2.632 14.026,2.632Z" style="fill:none;fill-rule:nonzero;stroke:rgb(1,51,25);stroke-width:2px;stroke-linejoin:round;"/>
        </g>
        <g transform="matrix(1,0,0,1,159.457,97.7516)">
            <path d="M0,10.376C-2.893,10.376 -5.235,8.055 -5.235,5.183C-5.235,2.318 -2.893,0.002 0,0.002C2.888,0.002 5.229,2.318 5.229,5.183C5.229,8.055 2.888,10.376 0,10.376ZM14.026,2.632L11.478,2.622C11.176,1.307 10.654,0.078 9.952,-1.024L11.756,-2.814C12.402,-3.451 12.405,-4.488 11.761,-5.125L10.411,-6.465C9.769,-7.102 8.725,-7.107 8.081,-6.47L6.273,-4.68C5.163,-5.377 3.924,-5.894 2.604,-6.192L2.604,-8.72C2.604,-9.623 1.863,-10.356 0.95,-10.356L-0.955,-10.356C-1.868,-10.356 -2.605,-9.623 -2.605,-8.72L-2.605,-6.192C-3.908,-5.901 -5.124,-5.391 -6.225,-4.715L-8.018,-6.51C-8.66,-7.15 -9.705,-7.163 -10.351,-6.521L-11.708,-5.191C-12.352,-4.559 -12.359,-3.52 -11.72,-2.879L-9.927,-1.08C-10.634,0.018 -11.161,1.247 -11.466,2.556L-14.014,2.546C-14.927,2.538 -15.666,3.272 -15.666,4.179L-15.679,6.071C-15.684,6.971 -14.948,7.706 -14.036,7.714L-11.492,7.722C-11.193,9.039 -10.678,10.265 -9.976,11.365L-11.789,13.157C-12.433,13.79 -12.436,14.823 -11.793,15.465L-10.454,16.806C-9.808,17.453 -8.762,17.453 -8.12,16.815L-6.31,15.036C-5.198,15.733 -3.964,16.259 -2.635,16.561L-2.646,19.084C-2.649,19.986 -1.912,20.725 -1.002,20.725L0.906,20.732C1.817,20.732 2.558,20.006 2.558,19.106L2.565,16.575C3.891,16.28 5.131,15.761 6.245,15.069L8.044,16.866C8.685,17.503 9.732,17.503 10.383,16.866L11.728,15.531C12.375,14.897 12.379,13.857 11.729,13.223L9.939,11.428C10.642,10.323 11.167,9.099 11.468,7.782L14.015,7.79C14.926,7.79 15.662,7.059 15.666,6.156L15.666,4.26C15.666,3.362 14.933,2.632 14.026,2.632Z" style="fill:none;fill-rule:nonzero;stroke:rgb(1,51,25);stroke-width:2px;stroke-linejoin:round;"/>
        </g>
        <g transform="matrix(1,0,0,1,188.821,127.428)">
            <path d="M0,13.66C-3.809,13.66 -6.893,10.605 -6.893,6.823C-6.893,3.052 -3.809,0.002 0,0.002C3.803,0.002 6.884,3.052 6.884,6.823C6.884,10.605 3.803,13.66 0,13.66M18.467,3.465L15.112,3.451C14.714,1.721 14.027,0.102 13.103,-1.349L15.478,-3.706C16.329,-4.545 16.334,-5.909 15.484,-6.748L13.707,-8.512C12.861,-9.351 11.486,-9.358 10.64,-8.519L8.26,-6.162C6.798,-7.081 5.167,-7.76 3.429,-8.152L3.429,-11.482C3.429,-12.67 2.453,-13.635 1.252,-13.635L-1.257,-13.635C-2.459,-13.635 -3.431,-12.67 -3.431,-11.482L-3.431,-8.152C-5.146,-7.77 -6.747,-7.098 -8.195,-6.209L-10.556,-8.572C-11.402,-9.414 -12.778,-9.431 -13.627,-8.586L-15.415,-6.835C-16.262,-6.003 -16.271,-4.634 -15.43,-3.792L-13.07,-1.423C-14,0.022 -14.695,1.64 -15.096,3.365L-18.45,3.351C-19.652,3.341 -20.625,4.307 -20.625,5.502L-20.642,7.992C-20.648,9.177 -19.681,10.145 -18.48,10.155L-15.131,10.165C-14.736,11.9 -14.059,13.514 -13.134,14.962L-15.521,17.322C-16.368,18.155 -16.373,19.516 -15.527,20.361L-13.764,22.126C-12.912,22.977 -11.536,22.977 -10.69,22.139L-8.308,19.795C-6.844,20.714 -5.22,21.406 -3.47,21.803L-3.482,25.125C-3.487,26.313 -2.518,27.285 -1.319,27.285L1.193,27.295C2.393,27.295 3.368,26.34 3.368,25.155L3.378,21.823C5.123,21.433 6.756,20.751 8.223,19.839L10.591,22.205C11.435,23.044 12.814,23.044 13.67,22.205L15.441,20.448C16.293,19.612 16.298,18.243 15.442,17.409L13.086,15.045C14.011,13.59 14.702,11.979 15.099,10.245L18.452,10.255C19.651,10.255 20.621,9.293 20.626,8.105L20.626,5.608C20.626,4.426 19.661,3.465 18.467,3.465" style="fill:white;fill-rule:nonzero;"/>
        </g>
        <g transform="matrix(1,0,0,1,188.821,127.428)">
            <path d="M0,13.66C-3.809,13.66 -6.893,10.605 -6.893,6.823C-6.893,3.052 -3.809,0.002 0,0.002C3.803,0.002 6.884,3.052 6.884,6.823C6.884,10.605 3.803,13.66 0,13.66M18.467,3.465L15.112,3.451C14.714,1.721 14.027,0.102 13.103,-1.349L15.478,-3.706C16.329,-4.545 16.334,-5.909 15.484,-6.748L13.707,-8.512C12.861,-9.351 11.486,-9.358 10.64,-8.519L8.26,-6.162C6.798,-7.081 5.167,-7.76 3.429,-8.152L3.429,-11.482C3.429,-12.67 2.453,-13.635 1.252,-13.635L-1.257,-13.635C-2.459,-13.635 -3.431,-12.67 -3.431,-11.482L-3.431,-8.152C-5.146,-7.77 -6.747,-7.098 -8.195,-6.209L-10.556,-8.572C-11.402,-9.414 -12.778,-9.431 -13.627,-8.586L-15.415,-6.835C-16.262,-6.003 -16.271,-4.634 -15.43,-3.792L-13.07,-1.423C-14,0.022 -14.695,1.64 -15.096,3.365L-18.45,3.351C-19.652,3.341 -20.625,4.307 -20.625,5.502L-20.642,7.992C-20.648,9.177 -19.681,10.145 -18.48,10.155L-15.131,10.165C-14.736,11.9 -14.059,13.514 -13.134,14.962L-15.521,17.322C-16.368,18.155 -16.373,19.516 -15.527,20.361L-13.764,22.126C-12.912,22.977 -11.536,22.977 -10.69,22.139L-8.308,19.795C-6.844,20.714 -5.22,21.406 -3.47,21.803L-3.482,25.125C-3.487,26.313 -2.518,27.285 -1.319,27.285L1.193,27.295C2.393,27.295 3.368,26.34 3.368,25.155L3.378,21.823C5.123,21.433 6.756,20.751 8.223,19.839L10.591,22.205C11.435,23.044 12.814,23.044 13.67,22.205L15.441,20.448C16.293,19.612 16.298,18.243 15.442,17.409L13.086,15.045C14.011,13.59 14.702,11.979 15.099,10.245L18.452,10.255C19.651,10.255 20.621,9.293 20.626,8.105L20.626,5.608C20.626,4.426 19.661,3.465 18.467,3.465" style="fill:white;fill-rule:nonzero;"/>
        </g>
        <g transform="matrix(1,0,0,1,188.821,127.428)">
            <path d="M0,13.66C-3.809,13.66 -6.893,10.605 -6.893,6.823C-6.893,3.052 -3.809,0.002 0,0.002C3.803,0.002 6.884,3.052 6.884,6.823C6.884,10.605 3.803,13.66 0,13.66ZM18.467,3.465L15.112,3.451C14.714,1.721 14.027,0.102 13.103,-1.349L15.478,-3.706C16.329,-4.545 16.334,-5.909 15.484,-6.748L13.707,-8.512C12.861,-9.351 11.486,-9.358 10.64,-8.519L8.26,-6.162C6.798,-7.081 5.167,-7.76 3.429,-8.152L3.429,-11.482C3.429,-12.67 2.453,-13.635 1.252,-13.635L-1.257,-13.635C-2.459,-13.635 -3.431,-12.67 -3.431,-11.482L-3.431,-8.152C-5.146,-7.77 -6.747,-7.098 -8.195,-6.209L-10.556,-8.572C-11.402,-9.414 -12.778,-9.431 -13.627,-8.586L-15.415,-6.835C-16.262,-6.003 -16.271,-4.634 -15.43,-3.792L-13.07,-1.423C-14,0.022 -14.695,1.64 -15.096,3.365L-18.45,3.351C-19.652,3.341 -20.625,4.307 -20.625,5.502L-20.642,7.992C-20.648,9.177 -19.681,10.145 -18.48,10.155L-15.131,10.165C-14.736,11.9 -14.059,13.514 -13.134,14.962L-15.521,17.322C-16.368,18.155 -16.373,19.516 -15.527,20.361L-13.764,22.126C-12.912,22.977 -11.536,22.977 -10.69,22.139L-8.308,19.795C-6.844,20.714 -5.22,21.406 -3.47,21.803L-3.482,25.125C-3.487,26.313 -2.518,27.285 -1.319,27.285L1.193,27.295C2.393,27.295 3.368,26.34 3.368,25.155L3.378,21.823C5.123,21.433 6.756,20.751 8.223,19.839L10.591,22.205C11.435,23.044 12.814,23.044 13.67,22.205L15.441,20.448C16.293,19.612 16.298,18.243 15.442,17.409L13.086,15.045C14.011,13.59 14.702,11.979 15.099,10.245L18.452,10.255C19.651,10.255 20.621,9.293 20.626,8.105L20.626,5.608C20.626,4.426 19.661,3.465 18.467,3.465Z" style="fill:none;fill-rule:nonzero;stroke:rgb(1,51,25);stroke-width:2px;stroke-linejoin:round;"/>
        </g>
        <g transform="matrix(1,0,0,1,188.821,127.428)">
            <path d="M0,13.66C-3.809,13.66 -6.893,10.605 -6.893,6.823C-6.893,3.052 -3.809,0.002 0,0.002C3.803,0.002 6.884,3.052 6.884,6.823C6.884,10.605 3.803,13.66 0,13.66ZM18.467,3.465L15.112,3.451C14.714,1.721 14.027,0.102 13.103,-1.349L15.478,-3.706C16.329,-4.545 16.334,-5.909 15.484,-6.748L13.707,-8.512C12.861,-9.351 11.486,-9.358 10.64,-8.519L8.26,-6.162C6.798,-7.081 5.167,-7.76 3.429,-8.152L3.429,-11.482C3.429,-12.67 2.453,-13.635 1.252,-13.635L-1.257,-13.635C-2.459,-13.635 -3.431,-12.67 -3.431,-11.482L-3.431,-8.152C-5.146,-7.77 -6.747,-7.098 -8.195,-6.209L-10.556,-8.572C-11.402,-9.414 -12.778,-9.431 -13.627,-8.586L-15.415,-6.835C-16.262,-6.003 -16.271,-4.634 -15.43,-3.792L-13.07,-1.423C-14,0.022 -14.695,1.64 -15.096,3.365L-18.45,3.351C-19.652,3.341 -20.625,4.307 -20.625,5.502L-20.642,7.992C-20.648,9.177 -19.681,10.145 -18.48,10.155L-15.131,10.165C-14.736,11.9 -14.059,13.514 -13.134,14.962L-15.521,17.322C-16.368,18.155 -16.373,19.516 -15.527,20.361L-13.764,22.126C-12.912,22.977 -11.536,22.977 -10.69,22.139L-8.308,19.795C-6.844,20.714 -5.22,21.406 -3.47,21.803L-3.482,25.125C-3.487,26.313 -2.518,27.285 -1.319,27.285L1.193,27.295C2.393,27.295 3.368,26.34 3.368,25.155L3.378,21.823C5.123,21.433 6.756,20.751 8.223,19.839L10.591,22.205C11.435,23.044 12.814,23.044 13.67,22.205L15.441,20.448C16.293,19.612 16.298,18.243 15.442,17.409L13.086,15.045C14.011,13.59 14.702,11.979 15.099,10.245L18.452,10.255C19.651,10.255 20.621,9.293 20.626,8.105L20.626,5.608C20.626,4.426 19.661,3.465 18.467,3.465Z" style="fill:none;fill-rule:nonzero;stroke:rgb(1,51,25);stroke-width:2px;stroke-linejoin:round;"/>
        </g>
    </g>
</svg>
