<?xml version="1.0" encoding="UTF-8" standalone="no"?>
<!DOCTYPE svg PUBLIC "-//W3C//DTD SVG 1.1//EN" "http://www.w3.org/Graphics/SVG/1.1/DTD/svg11.dtd">
<svg width="100%" height="100%" viewBox="0 0 100 100" version="1.1" xmlns="http://www.w3.org/2000/svg" xmlns:xlink="http://www.w3.org/1999/xlink" xml:space="preserve" xmlns:serif="http://www.serif.com/" style="fill-rule:evenodd;clip-rule:evenodd;stroke-linejoin:round;stroke-miterlimit:2;">
    <g transform="matrix(0.462022,0,0,0.462022,27.3367,-22.7551)">
        <g transform="matrix(1,0,0,1,-686.285,0)">
            <path d="M772.65,207.808L772.331,208.361L695.981,208.361L657.807,142.24L695.981,76.12L696.619,76.12L705.273,91.109L714.492,75.14L715.707,75.14L705.881,92.161L710.518,100.192L724.981,75.14L726.601,75.14L711.327,101.594L715.661,109.1L735.268,75.14L737.696,75.14L716.875,111.203L720.804,118.007L745.554,75.14L748.793,75.14L722.423,120.813L725.997,127.004L755.941,75.14L759.99,75.14L728.022,130.51L731.141,135.912L766.228,75.14L771.086,75.14L733.57,140.12L736.574,145.324L774.163,80.219L777.403,85.827L739.813,150.934L772.65,207.808ZM776.379,69.108L691.933,69.108L649.709,142.24L691.933,215.374L776.379,215.374L818.603,142.24L776.379,69.108Z" style="fill:rgb(246,178,23);fill-rule:nonzero;"/>
        </g>
        <g transform="matrix(1,0,0,1,-686.285,0)">
            <path d="M659.846,242.288C659.846,240.997 658.881,240.351 656.95,240.351L652.924,240.351L652.924,244.225L656.95,244.225C658.881,244.225 659.846,243.579 659.846,242.288ZM652.924,234.713L652.924,238.415L656.452,238.415C657.321,238.415 657.989,238.258 658.456,237.944C658.922,237.631 659.155,237.174 659.155,236.573C659.155,235.96 658.922,235.497 658.456,235.183C657.989,234.87 657.321,234.713 656.452,234.713L652.924,234.713ZM661.706,240.418C662.141,240.987 662.358,241.693 662.358,242.537C662.358,243.701 661.91,244.599 661.016,245.231C660.121,245.864 658.816,246.181 657.104,246.181L650.431,246.181L650.431,232.757L656.721,232.757C658.306,232.757 659.526,233.067 660.383,233.688C661.239,234.308 661.668,235.161 661.668,236.248C661.668,236.912 661.515,237.5 661.207,238.012C660.9,238.523 660.479,238.919 659.941,239.201C660.684,239.443 661.271,239.85 661.706,240.418Z" style="fill:rgb(246,178,23);fill-rule:nonzero;"/>
        </g>
        <g transform="matrix(1,0,0,1,-686.285,0)">
            <path d="M676.739,235.557C676.177,235.097 675.353,234.867 674.266,234.867L671.352,234.867L671.352,240.217L674.266,240.217C675.353,240.217 676.177,239.984 676.739,239.517C677.302,239.05 677.583,238.389 677.583,237.532C677.583,236.676 677.302,236.017 676.739,235.557ZM677.641,246.181L674.898,242.25C674.783,242.262 674.611,242.269 674.381,242.269L671.352,242.269L671.352,246.181L668.858,246.181L668.858,232.757L674.381,232.757C675.544,232.757 676.558,232.949 677.42,233.333C678.283,233.716 678.945,234.266 679.405,234.982C679.865,235.698 680.096,236.548 680.096,237.532C680.096,238.542 679.85,239.412 679.357,240.14C678.865,240.869 678.158,241.413 677.238,241.77L680.325,246.181L677.641,246.181Z" style="fill:rgb(246,178,23);fill-rule:nonzero;"/>
        </g>
        <g transform="matrix(1,0,0,1,-686.285,0)">
            <path d="M694.593,241.118L692.062,235.25L689.55,241.118L694.593,241.118ZM695.418,243.074L688.706,243.074L687.383,246.181L684.813,246.181L690.854,232.757L693.309,232.757L699.368,246.181L696.76,246.181L695.418,243.074Z" style="fill:rgb(246,178,23);fill-rule:nonzero;"/>
        </g>
        <g transform="matrix(1,0,0,1,-686.285,0)">
            <path d="M716.837,232.757L716.837,246.181L714.785,246.181L707.383,237.091L707.383,246.181L704.909,246.181L704.909,232.757L706.961,232.757L714.363,241.847L714.363,232.757L716.837,232.757Z" style="fill:rgb(246,178,23);fill-rule:nonzero;"/>
        </g>
        <g transform="matrix(1,0,0,1,-686.285,0)">
            <path d="M730.03,244.071C731.015,244.071 731.881,243.883 732.628,243.505C733.376,243.128 733.951,242.592 734.354,241.895C734.757,241.198 734.958,240.39 734.958,239.469C734.958,238.548 734.757,237.74 734.354,237.043C733.951,236.347 733.376,235.81 732.628,235.433C731.881,235.056 731.015,234.867 730.03,234.867L726.771,234.867L726.771,244.071L730.03,244.071ZM724.277,232.757L730.146,232.757C731.577,232.757 732.849,233.036 733.961,233.591C735.073,234.147 735.937,234.934 736.55,235.95C737.163,236.966 737.471,238.14 737.471,239.469C737.471,240.799 737.163,241.972 736.55,242.988C735.937,244.004 735.073,244.791 733.961,245.347C732.849,245.903 731.577,246.181 730.146,246.181L724.277,246.181L724.277,232.757Z" style="fill:rgb(246,178,23);fill-rule:nonzero;"/>
        </g>
        <g transform="matrix(1,0,0,1,-686.285,0)">
            <path d="M765.007,232.757L765.007,246.181L762.955,246.181L755.553,237.091L755.553,246.181L753.079,246.181L753.079,232.757L755.131,232.757L762.533,241.847L762.533,232.757L765.007,232.757Z" style="fill:rgb(246,178,23);fill-rule:nonzero;"/>
        </g>
        <g transform="matrix(1,0,0,1,-686.285,0)">
            <path d="M780.328,241.118L777.797,235.25L775.285,241.118L780.328,241.118ZM781.153,243.074L774.441,243.074L773.118,246.181L770.549,246.181L776.589,232.757L779.044,232.757L785.104,246.181L782.495,246.181L781.153,243.074Z" style="fill:rgb(246,178,23);fill-rule:nonzero;"/>
        </g>
        <g transform="matrix(1,0,0,1,-686.285,0)">
            <path d="M802.976,246.181L802.956,237.283L798.546,244.646L797.434,244.646L793.023,237.398L793.023,246.181L790.646,246.181L790.646,232.757L792.697,232.757L798.028,241.655L803.264,232.757L805.315,232.757L805.334,246.181L802.976,246.181Z" style="fill:rgb(246,178,23);fill-rule:nonzero;"/>
        </g>
        <g transform="matrix(1,0,0,1,-686.285,0)">
            <path d="M822.861,244.09L822.861,246.181L812.794,246.181L812.794,232.757L822.593,232.757L822.593,234.848L815.287,234.848L815.287,238.337L821.769,238.337L821.769,240.39L815.287,240.39L815.287,244.09L822.861,244.09Z" style="fill:rgb(246,178,23);fill-rule:nonzero;"/>
        </g>
    </g>
</svg>
