<?xml version="1.0" encoding="UTF-8" standalone="no"?>
<!DOCTYPE svg PUBLIC "-//W3C//DTD SVG 1.1//EN" "http://www.w3.org/Graphics/SVG/1.1/DTD/svg11.dtd">
<svg width="100%" height="100%" viewBox="0 0 100 100" version="1.1" xmlns="http://www.w3.org/2000/svg" xmlns:xlink="http://www.w3.org/1999/xlink" xml:space="preserve" xmlns:serif="http://www.serif.com/" style="fill-rule:evenodd;clip-rule:evenodd;stroke-linejoin:round;stroke-miterlimit:2;">
    <g transform="matrix(0.352038,0,0,0.352038,-18.0477,32.675)">
        <g transform="matrix(1,0,0,1,0,-601.121)">
            <path d="M197.474,704.56C198.128,704.025 198.455,703.246 198.455,702.222C198.455,701.197 198.122,700.407 197.458,699.852C196.793,699.296 195.85,699.018 194.63,699.018L190.281,699.018L190.281,705.36L194.662,705.36C195.883,705.36 196.82,705.094 197.474,704.56ZM190.281,695.716L194.434,695.716C195.589,695.716 196.466,695.46 197.065,694.947C197.664,694.436 197.965,693.7 197.965,692.74C197.965,691.782 197.67,691.041 197.082,690.518C196.493,689.994 195.589,689.732 194.368,689.732L190.281,689.732L190.281,695.716ZM201.904,699.197C202.742,700.233 203.162,701.448 203.162,702.843C203.162,704.783 202.514,706.313 201.218,707.437C199.92,708.559 198.04,709.12 195.578,709.12L185.672,709.12L185.672,686.038L195.382,686.038C197.714,686.038 199.506,686.551 200.76,687.575C202.013,688.6 202.64,690.038 202.64,691.891C202.64,693.329 202.264,694.506 201.512,695.422C200.76,696.337 199.773,696.937 198.553,697.22C199.947,697.503 201.064,698.162 201.904,699.197Z" style="fill:rgb(0,100,170);fill-rule:nonzero;"/>
        </g>
        <g transform="matrix(1,0,0,1,0,-601.121)">
            <path d="M214.278,696.958L218.07,696.958C220.707,696.958 222.026,695.792 222.026,693.46C222.026,692.349 221.704,691.481 221.062,690.86C220.419,690.239 219.422,689.929 218.07,689.929L214.278,689.929L214.278,696.958ZM221.699,709.12L216.305,700.129L214.278,700.129L214.278,709.12L209.668,709.12L209.668,686.038L218.463,686.038C221.144,686.038 223.187,686.692 224.593,688C225.999,689.308 226.701,691.03 226.701,693.166C226.701,694.909 226.216,696.369 225.247,697.547C224.276,698.724 222.876,699.508 221.046,699.9L226.8,709.12L221.699,709.12Z" style="fill:rgb(0,100,170);fill-rule:nonzero;"/>
        </g>
        <g transform="matrix(1,0,0,1,0,-601.121)">
            <path d="M245.893,700.979L242.492,691.236L239.092,700.979L245.893,700.979ZM247.135,704.478L237.883,704.478L236.248,709.12L231.376,709.12L239.877,686.3L245.141,686.3L253.607,709.12L248.736,709.12L247.135,704.478Z" style="fill:rgb(0,100,170);fill-rule:nonzero;"/>
        </g>
        <g transform="matrix(1,0,0,1,0,-601.121)">
            <path d="M278.912,709.12L274.303,709.12L263.972,693.427L263.972,709.12L259.361,709.12L259.361,686.038L263.972,686.038L274.303,701.862L274.303,686.038L278.912,686.038L278.912,709.12Z" style="fill:rgb(0,100,170);fill-rule:nonzero;"/>
        </g>
        <g transform="matrix(1,0,0,1,0,-601.121)">
            <path d="M299.95,703.039C301.312,701.731 301.993,699.9 301.993,697.547C301.993,695.171 301.312,693.329 299.95,692.021C298.588,690.714 296.664,690.06 294.18,690.06L290.976,690.06L290.976,705.001L294.18,705.001C296.664,705.001 298.588,704.347 299.95,703.039ZM305.23,703.595C304.271,705.339 302.881,706.695 301.062,707.665C299.241,708.635 297.078,709.12 294.572,709.12L286.366,709.12L286.366,686.038L294.572,686.038C297.078,686.038 299.241,686.513 301.062,687.461C302.881,688.409 304.271,689.749 305.23,691.481C306.188,693.215 306.669,695.236 306.669,697.547C306.669,699.835 306.188,701.852 305.23,703.595Z" style="fill:rgb(0,100,170);fill-rule:nonzero;"/>
        </g>
        <g transform="matrix(1,0,0,1,0,-601.121)">
            <path d="M153.913,685.103C144.738,685.103 135.7,682.672 127.777,678.074L137.878,660.669C142.736,663.487 148.281,664.978 153.913,664.978C171.571,664.978 185.938,650.612 185.938,632.954C185.938,615.296 171.571,600.93 153.913,600.93C148.282,600.93 142.737,602.421 137.878,605.24L127.777,587.834C135.701,583.236 144.739,580.806 153.913,580.806C182.668,580.806 206.063,604.199 206.063,632.954C206.063,661.709 182.668,685.103 153.913,685.103Z" style="fill:rgb(0,100,170);fill-rule:nonzero;"/>
        </g>
        <g transform="matrix(1,0,0,1,0,-601.121)">
            <path d="M111.604,669.456C111.604,657.733 121.105,648.231 132.828,648.231C144.55,648.231 154.053,657.733 154.053,669.456C154.053,681.178 144.55,690.681 132.828,690.681C121.105,690.681 111.604,681.178 111.604,669.456Z" style="fill:rgb(0,100,170);fill-rule:nonzero;"/>
        </g>
        <g transform="matrix(1,0,0,1,0,-601.121)">
            <path d="M131.486,721.436C102.778,721.436 79.421,698.08 79.421,669.372C79.421,640.663 102.778,617.308 131.486,617.308C147.081,617.308 161.722,624.212 171.657,636.249L156.137,649.06C150.038,641.67 141.054,637.432 131.486,637.432C113.875,637.432 99.546,651.76 99.546,669.372C99.546,686.983 113.875,701.311 131.486,701.311C140.395,701.311 148.662,697.734 154.766,691.238L169.431,705.021C159.628,715.452 145.798,721.436 131.486,721.436Z" style="fill:rgb(0,100,170);fill-rule:nonzero;"/>
        </g>
    </g>
</svg>
