<?xml version="1.0" encoding="UTF-8" standalone="no"?>
<!DOCTYPE svg PUBLIC "-//W3C//DTD SVG 1.1//EN" "http://www.w3.org/Graphics/SVG/1.1/DTD/svg11.dtd">
<svg width="100%" height="100%" viewBox="0 0 100 100" version="1.1" xmlns="http://www.w3.org/2000/svg" xmlns:xlink="http://www.w3.org/1999/xlink" xml:space="preserve" xmlns:serif="http://www.serif.com/" style="fill-rule:evenodd;clip-rule:evenodd;stroke-linejoin:round;stroke-miterlimit:2;">
    <g transform="matrix(0.411163,0,0,0.411163,29.3995,29.2998)">
        <g transform="matrix(1,0,0,1,-714.396,-602.174)">
            <path d="M725.247,711.111L725.247,720.549L730.437,720.549C732.541,720.549 734.119,720.16 735.172,719.382C736.224,718.604 736.75,717.392 736.75,715.746C736.75,714.033 736.182,712.833 735.046,712.145C733.909,711.455 732.138,711.111 729.73,711.111L725.247,711.111ZM725.247,708.777L730.57,708.777C732.306,708.777 733.615,708.475 734.5,707.87C735.385,707.266 735.827,706.191 735.827,704.646C735.827,703.09 735.298,702.018 734.24,701.43C733.182,700.843 731.539,700.549 729.311,700.549L725.247,700.549L725.247,708.777ZM722.342,698.097L729.462,698.097C732.652,698.097 735.018,698.584 736.558,699.558C738.097,700.531 738.866,702.082 738.866,704.209C738.866,704.522 738.847,704.834 738.808,705.142C738.769,705.449 738.667,705.844 738.505,706.325C738.343,706.807 738.121,707.246 737.842,707.644C737.562,708.041 737.15,708.438 736.607,708.836C736.064,709.233 735.429,709.55 734.701,709.784C736.369,710.099 737.635,710.804 738.497,711.9C739.358,712.998 739.79,714.318 739.79,715.863C739.79,718.114 739.054,719.854 737.582,721.086C736.109,722.318 733.918,722.934 731.007,722.934L722.342,722.934L722.342,698.097Z" style="fill:rgb(64,52,73);fill-rule:nonzero;"/>
        </g>
        <g transform="matrix(1,0,0,1,-714.396,-602.174)">
            <path d="M753.336,700.414L753.336,708.811C753.794,708.811 754.743,708.822 756.182,708.845C757.62,708.867 758.731,708.878 759.516,708.878C761.653,708.878 763.143,708.522 763.982,707.812C764.822,707.101 765.242,705.973 765.242,704.428C765.242,703.073 764.839,702.065 764.032,701.405C763.227,700.744 761.877,700.414 759.985,700.414L753.336,700.414ZM769.255,722.934L765.896,722.934L762.471,715.142C761.541,713.048 760.948,711.789 760.69,711.363C759.873,711.419 758.905,711.447 757.785,711.447L753.336,711.313L753.336,722.934L750.363,722.934L750.363,697.812L758.307,697.812C759.224,697.812 760.036,697.834 760.741,697.878C761.446,697.923 762.148,698.004 762.849,698.122C763.548,698.239 764.155,698.402 764.671,698.609C765.186,698.816 765.667,699.085 766.115,699.415C766.563,699.745 766.924,700.14 767.198,700.599C767.473,701.058 767.688,701.604 767.845,702.236C768.001,702.869 768.08,703.582 768.08,704.377C768.08,705.945 767.668,707.294 766.846,708.425C766.022,709.556 764.855,710.339 763.344,710.775C763.344,710.798 763.456,711 763.68,711.38C763.903,711.761 764.17,712.229 764.478,712.782C764.785,713.336 765.023,713.798 765.191,714.168L769.255,722.934Z" style="fill:rgb(64,52,73);fill-rule:nonzero;"/>
        </g>
        <g transform="matrix(1,0,0,1,-714.396,-602.174)">
            <path d="M792.238,712.623C789.876,705.76 788.571,701.903 788.325,701.053L784.245,712.623L792.238,712.623ZM796.084,722.934L793.179,715.058L783.271,715.058L780.265,722.934L777.31,722.934L786.848,698.046L789.82,698.046L799.073,722.934L796.084,722.934Z" style="fill:rgb(64,52,73);fill-rule:nonzero;"/>
        </g>
        <g transform="matrix(1,0,0,1,-714.396,-602.174)">
            <path d="M828.537,722.934L825.246,722.934L812.349,703.387L811.509,702.228C811.599,704.579 811.644,706.678 811.644,708.525L811.644,722.934L808.923,722.934L808.923,698.097L812.164,698.097L825.095,717.644L825.951,718.803C825.873,715.231 825.834,713.166 825.834,712.605L825.834,698.097L828.537,698.097L828.537,722.934Z" style="fill:rgb(64,52,73);fill-rule:nonzero;"/>
        </g>
        <g transform="matrix(1,0,0,1,-714.396,-602.174)">
            <path d="M858.573,710.574C858.573,707.104 857.678,704.579 855.887,703C854.096,701.422 851.487,700.633 848.062,700.633L844.165,700.633L844.165,720.397L848.548,720.397C851.817,720.397 854.305,719.572 856.013,717.921C857.72,716.27 858.573,713.82 858.573,710.574ZM861.681,710.49C861.681,714.531 860.532,717.616 858.237,719.743C855.942,721.87 852.74,722.934 848.632,722.934L841.26,722.934L841.26,698.097L848.145,698.097C850.216,698.097 852.068,698.34 853.703,698.827C855.338,699.314 856.757,700.053 857.961,701.044C859.164,702.035 860.085,703.328 860.723,704.923C861.361,706.519 861.681,708.374 861.681,710.49Z" style="fill:rgb(64,52,73);fill-rule:nonzero;"/>
        </g>
        <g transform="matrix(1,0,0,1,-714.396,-602.174)">
            <path d="M750.49,603.8L765.919,603.8L765.919,580.31L667.111,580.31L667.111,679.118L765.919,679.118L765.919,647.114L750.49,647.114L750.49,603.8Z" style="fill:rgb(64,52,73);fill-rule:nonzero;"/>
        </g>
        <g transform="matrix(1,0,0,1,-714.396,-602.174)">
            <rect x="774.873" y="603.8" width="27.886" height="43.314" style="fill:rgb(64,52,73);fill-rule:nonzero;"/>
        </g>
        <g transform="matrix(1,0,0,1,-714.396,-602.174)">
            <path d="M693.056,715.226L675.922,715.226L693.056,698.092L693.056,715.226ZM667.111,689.281L667.111,724.037L701.867,724.037L701.867,689.281L667.111,689.281Z" style="fill:rgb(64,52,73);fill-rule:nonzero;"/>
        </g>
    </g>
</svg>
