<?xml version="1.0" encoding="UTF-8" standalone="no"?>
<!DOCTYPE svg PUBLIC "-//W3C//DTD SVG 1.1//EN" "http://www.w3.org/Graphics/SVG/1.1/DTD/svg11.dtd">
<svg width="100%" height="100%" viewBox="0 0 73 100" version="1.1" xmlns="http://www.w3.org/2000/svg" xmlns:xlink="http://www.w3.org/1999/xlink" xml:space="preserve" xmlns:serif="http://www.serif.com/" style="fill-rule:evenodd;clip-rule:evenodd;stroke-linejoin:round;stroke-miterlimit:2;">
    <g transform="matrix(0.131664,0,0,0.131664,30.1168,43.4168)">
        <g transform="matrix(4.16667,0,0,4.16667,-544.194,-2504.95)">
            <path d="M190.677,625.728C188.965,628.747 186.939,631.588 184.636,634.197L184.699,634.261L182.563,636.407C173.038,645.989 160.352,651.27 146.844,651.27C133.392,651.27 120.741,646.029 111.229,636.516C101.717,627.005 96.475,614.355 96.475,600.902C96.475,599.91 96.505,598.901 96.566,597.9C96.572,597.764 96.582,597.625 96.59,597.482L96.593,597.443C96.599,597.352 96.606,597.261 96.612,597.167L96.615,597.121C96.629,596.915 96.648,596.706 96.667,596.497C96.681,596.327 96.697,596.145 96.714,595.964C96.742,595.697 96.769,595.424 96.799,595.151C96.818,594.993 96.836,594.818 96.86,594.645C96.884,594.424 96.918,594.175 96.952,593.926C96.972,593.787 96.991,593.654 97.012,593.517C97.043,593.29 97.082,593.038 97.124,592.786C97.145,592.653 97.169,592.505 97.194,592.359C97.214,592.238 97.236,592.111 97.26,591.986C97.288,591.826 97.321,591.641 97.354,591.462C97.384,591.305 97.418,591.131 97.452,590.959C97.491,590.762 97.53,590.565 97.576,590.365C97.864,588.991 98.218,587.612 98.625,586.269L98.636,586.233C98.688,586.057 98.743,585.878 98.8,585.703C98.845,585.554 98.894,585.399 98.946,585.245C99.231,584.366 99.549,583.477 99.885,582.617C99.931,582.498 99.979,582.371 100.031,582.247C100.083,582.113 100.138,581.977 100.195,581.838C100.262,581.671 100.338,581.489 100.416,581.304C100.474,581.164 100.54,581.01 100.607,580.855L100.638,580.786C100.731,580.577 100.822,580.367 100.916,580.158C100.986,580.004 101.056,579.852 101.129,579.697C102.398,576.957 103.938,574.307 105.703,571.822L105.988,571.428C106.188,571.152 106.389,570.882 106.588,570.616C106.686,570.491 106.785,570.355 106.889,570.224C107.109,569.94 107.331,569.658 107.555,569.379C107.686,569.218 107.818,569.051 107.955,568.891C108.076,568.739 108.216,568.578 108.353,568.415C108.485,568.254 108.625,568.094 108.765,567.936C108.919,567.757 109.077,567.575 109.237,567.396L103.323,561.479C93.51,572.286 88.121,586.236 88.121,600.902C88.121,616.589 94.229,631.333 105.321,642.424C116.413,653.516 131.157,659.624 146.844,659.624C162.58,659.624 177.36,653.48 188.458,642.328C191.626,639.148 194.418,635.619 196.773,631.824L190.677,625.728Z" style="fill:url(#_Linear1);"/>
        </g>
        <g transform="matrix(4.16667,0,0,4.16667,-544.194,-2504.95)">
            <path d="M115.527,632.218C123.891,640.582 135.013,645.189 146.844,645.189C147.214,645.189 147.584,645.183 147.956,645.174C148.142,645.171 148.32,645.165 148.502,645.159L148.529,645.159C148.803,645.147 149.072,645.135 149.345,645.119C149.563,645.107 149.778,645.095 149.993,645.08C150.105,645.071 150.2,645.065 150.291,645.059L150.439,645.047C150.637,645.032 150.84,645.013 151.039,644.992C151.219,644.977 151.385,644.962 151.555,644.943C151.679,644.932 151.785,644.919 151.889,644.907L152.112,644.883C152.258,644.865 152.403,644.847 152.552,644.826C153.098,644.759 153.638,644.68 154.162,644.592C154.311,644.568 154.456,644.54 154.602,644.516L154.649,644.507C154.768,644.486 154.88,644.467 154.995,644.446L155.053,644.434C155.204,644.407 155.356,644.377 155.505,644.346C155.905,644.268 156.293,644.189 156.681,644.101C156.941,644.043 157.202,643.98 157.46,643.916L157.493,643.907C157.56,643.892 157.623,643.876 157.69,643.858C157.884,643.81 158.057,643.765 158.229,643.719C158.381,643.679 158.523,643.643 158.663,643.604C158.788,643.57 158.894,643.54 159,643.51C159.103,643.48 159.185,643.458 159.264,643.434L159.324,643.416C159.434,643.385 159.543,643.352 159.651,643.319C159.833,643.264 159.994,643.216 160.151,643.164C160.279,643.125 160.395,643.089 160.513,643.052C160.885,642.931 161.252,642.807 161.619,642.676C161.722,642.64 161.818,642.606 161.913,642.57L161.985,642.546C162.116,642.5 162.231,642.458 162.343,642.412C162.525,642.346 162.688,642.285 162.853,642.218C162.992,642.167 163.11,642.121 163.229,642.073C163.456,641.982 163.659,641.9 163.865,641.815L164.48,641.552C164.675,641.47 164.862,641.388 165.044,641.303C165.153,641.255 165.244,641.212 165.338,641.169L165.426,641.13C165.574,641.06 165.729,640.988 165.881,640.915C166.812,640.472 167.73,639.994 168.618,639.49C168.715,639.435 168.806,639.381 168.896,639.329C169.104,639.211 169.307,639.09 169.51,638.972L170.521,638.347C170.971,638.063 171.432,637.756 171.932,637.414C172.067,637.317 172.207,637.22 172.344,637.123L172.401,637.083C172.505,637.011 172.607,636.938 172.707,636.862L172.737,636.841C172.813,636.786 172.89,636.732 172.962,636.677L172.989,636.656C173.117,636.565 173.244,636.471 173.368,636.377C173.511,636.271 173.647,636.168 173.78,636.065C173.874,635.992 173.953,635.928 174.035,635.865L174.129,635.792C174.269,635.683 174.408,635.571 174.548,635.459C174.693,635.343 174.832,635.228 174.972,635.113L175.008,635.083C175.275,634.864 175.539,634.64 175.802,634.41C175.881,634.34 175.963,634.27 176.045,634.201L170.122,628.277C163.638,633.804 155.417,636.832 146.844,636.832C127.031,636.832 110.914,620.714 110.914,600.902C110.914,591.247 114.69,582.183 121.548,575.387C124.767,572.198 128.619,569.609 132.782,567.833L126.501,561.552C122.496,563.628 118.841,566.296 115.625,569.494C107.197,577.869 102.557,589.022 102.557,600.902C102.557,612.733 107.164,623.855 115.527,632.218Z" style="fill:url(#_Linear2);"/>
        </g>
        <g transform="matrix(4.16667,0,0,4.16667,-544.194,-2504.95)">
            <path d="M197.091,589.88C197.091,574.195 190.983,559.451 179.892,548.359C168.8,537.268 154.056,531.16 138.368,531.16C122.633,531.16 107.853,537.301 96.754,548.456C93.586,551.633 90.794,555.165 88.439,558.96L94.535,565.056C96.248,562.037 98.276,559.197 100.577,556.587L100.514,556.523L102.65,554.377C112.175,544.791 124.86,539.514 138.368,539.514C151.821,539.514 164.472,544.755 173.983,554.267C183.496,563.78 188.737,576.427 188.737,589.88C188.737,590.877 188.706,591.886 188.646,592.884C188.641,593.017 188.631,593.16 188.622,593.302C188.616,593.402 188.606,593.505 188.601,593.611L188.598,593.66C188.582,593.869 188.564,594.078 188.546,594.284C188.531,594.457 188.516,594.642 188.497,594.824C188.471,595.084 188.443,595.36 188.413,595.633C188.395,595.791 188.376,595.964 188.353,596.139C188.328,596.361 188.295,596.609 188.261,596.858C188.24,596.997 188.222,597.13 188.2,597.264C188.17,597.495 188.131,597.746 188.088,597.997C188.067,598.131 188.043,598.276 188.019,598.425C187.997,598.549 187.976,598.673 187.952,598.797C187.928,598.958 187.892,599.143 187.857,599.322C187.828,599.48 187.794,599.653 187.758,599.825C187.722,600.019 187.683,600.219 187.637,600.419C187.346,601.793 186.994,603.175 186.588,604.515C186.53,604.703 186.476,604.891 186.412,605.082C186.367,605.23 186.318,605.382 186.267,605.539C185.979,606.424 185.663,607.31 185.327,608.168C185.281,608.286 185.232,608.41 185.185,608.534C185.13,608.671 185.075,608.807 185.018,608.946C184.951,609.113 184.872,609.298 184.796,609.48C184.738,609.62 184.672,609.774 184.605,609.929L184.575,609.998C184.481,610.207 184.391,610.417 184.296,610.623C184.227,610.777 184.157,610.932 184.084,611.084C182.813,613.824 181.274,616.476 179.51,618.959L179.228,619.353C179.024,619.632 178.824,619.902 178.624,620.166C178.527,620.293 178.428,620.429 178.324,620.56C178.104,620.844 177.882,621.126 177.657,621.405C177.527,621.566 177.394,621.733 177.258,621.893C177.143,622.036 177.015,622.187 176.888,622.339L176.863,622.366C176.724,622.527 176.588,622.691 176.448,622.848C176.294,623.027 176.136,623.209 175.975,623.388L181.89,629.305C191.701,618.498 197.091,604.548 197.091,589.88Z" style="fill:url(#_Linear3);"/>
        </g>
        <g transform="matrix(4.16667,0,0,4.16667,-544.194,-2504.95)">
            <path d="M152.431,622.951L158.712,629.232C162.716,627.156 166.372,624.488 169.588,621.29C178.015,612.915 182.656,601.759 182.656,589.88C182.656,578.051 178.049,566.929 169.686,558.566C161.321,550.203 150.2,545.595 138.368,545.595C137.999,545.595 137.629,545.601 137.256,545.61C137.071,545.613 136.89,545.616 136.71,545.625L136.684,545.625C136.41,545.637 136.141,545.65 135.868,545.665C135.649,545.677 135.435,545.689 135.219,545.704C135.106,545.71 135.013,545.719 134.922,545.725L134.771,545.737C134.576,545.753 134.373,545.771 134.173,545.789C133.994,545.807 133.827,545.822 133.658,545.841C133.533,545.853 133.428,545.865 133.321,545.877L133.148,545.895C133.127,545.898 133.109,545.901 133.091,545.904C132.945,545.919 132.806,545.937 132.661,545.956C132.115,546.026 131.575,546.104 131.05,546.192C130.901,546.216 130.757,546.241 130.61,546.268L130.563,546.277C130.448,546.295 130.339,546.317 130.229,546.338L130.156,546.35C130.011,546.377 129.865,546.404 129.72,546.435C129.308,546.513 128.92,546.595 128.532,546.683C128.271,546.741 128.011,546.805 127.753,546.868L127.72,546.877C127.652,546.889 127.589,546.908 127.522,546.923C127.328,546.971 127.155,547.017 126.982,547.062C126.834,547.102 126.691,547.138 126.55,547.18C126.425,547.214 126.319,547.244 126.21,547.274C126.106,547.305 126.028,547.326 125.949,547.35L125.889,547.369C125.779,547.399 125.67,547.429 125.562,547.465C125.379,547.517 125.219,547.568 125.062,547.62C124.934,547.659 124.818,547.695 124.7,547.732C124.327,547.853 123.961,547.977 123.594,548.108C123.494,548.141 123.402,548.175 123.309,548.208L123.224,548.238C123.1,548.284 122.99,548.323 122.879,548.366C122.688,548.435 122.523,548.499 122.36,548.563C122.224,548.614 122.105,548.663 121.984,548.711C121.757,548.799 121.554,548.884 121.348,548.969L120.732,549.233C120.538,549.315 120.354,549.396 120.168,549.481C120.063,549.529 119.969,549.572 119.874,549.615L119.786,549.654C119.638,549.724 119.483,549.797 119.332,549.869C118.401,550.312 117.479,550.79 116.595,551.294C116.494,551.349 116.406,551.4 116.315,551.455C116.122,551.567 115.928,551.679 115.736,551.794L115.097,552.182C114.967,552.264 114.827,552.352 114.69,552.437C114.239,552.721 113.778,553.028 113.284,553.37C113.157,553.458 113.029,553.546 112.905,553.634L112.823,553.692C112.708,553.774 112.605,553.846 112.502,553.922L112.46,553.952C112.391,554.004 112.32,554.056 112.251,554.107L112.224,554.128C112.096,554.219 111.969,554.313 111.845,554.407C111.702,554.513 111.568,554.616 111.436,554.719C111.338,554.792 111.26,554.856 111.181,554.916L111.084,554.992C110.944,555.101 110.805,555.21 110.665,555.326C110.508,555.45 110.356,555.577 110.204,555.701C109.935,555.92 109.674,556.144 109.41,556.374C109.328,556.444 109.249,556.514 109.168,556.584L115.091,562.507C121.575,556.981 129.796,553.949 138.368,553.949C158.182,553.949 174.299,570.07 174.299,589.88C174.299,599.537 170.521,608.598 163.665,615.397C160.446,618.586 156.593,621.175 152.431,622.951Z" style="fill:url(#_Linear4);"/>
        </g>
        <g transform="matrix(4.16667,0,0,4.16667,-544.194,-2504.95)">
            <path d="M94.077,680.615C93.858,681.599 93.439,682.346 92.838,682.856C92.218,683.348 91.472,683.603 90.58,683.603C89.85,683.603 89.176,683.421 88.539,683.056C87.919,682.692 87.464,682.127 87.172,681.38C86.863,680.634 86.717,679.741 86.717,678.739C86.717,677.956 86.844,677.191 87.1,676.462C87.355,675.733 87.793,675.151 88.393,674.713C89.012,674.294 89.795,674.076 90.707,674.076C91.508,674.076 92.164,674.258 92.692,674.659C93.22,675.041 93.622,675.66 93.895,676.517L93.931,676.608L95.752,676.189L95.716,676.079C95.37,674.95 94.769,674.057 93.913,673.42C93.056,672.801 92,672.491 90.744,672.491C89.65,672.491 88.629,672.728 87.701,673.219C86.791,673.729 86.061,674.458 85.57,675.405C85.078,676.353 84.823,677.482 84.823,678.739C84.823,679.905 85.042,681.016 85.478,682.018C85.916,683.038 86.572,683.84 87.427,684.368C88.266,684.914 89.377,685.188 90.725,685.188C92.018,685.188 93.129,684.823 94.041,684.131C94.952,683.439 95.571,682.401 95.917,681.071L95.953,680.962L94.114,680.506L94.077,680.615Z" style="fill:url(#_Linear5);"/>
        </g>
        <g transform="matrix(4.16667,0,0,4.16667,-544.194,-2504.95)">
            <path d="M110.563,682.364C109.799,683.184 108.797,683.603 107.612,683.603C106.447,683.603 105.463,683.184 104.68,682.382C103.915,681.563 103.514,680.433 103.514,679.012C103.514,677.245 103.933,675.952 104.734,675.205C105.536,674.458 106.52,674.076 107.631,674.076C108.433,674.076 109.143,674.276 109.78,674.659C110.399,675.041 110.892,675.606 111.22,676.316C111.548,677.027 111.711,677.883 111.711,678.848C111.711,680.36 111.329,681.544 110.563,682.364ZM110.764,673.292C109.835,672.746 108.778,672.472 107.631,672.472C105.863,672.472 104.406,673.056 103.295,674.203C102.185,675.351 101.619,676.972 101.619,678.994C101.619,680.069 101.856,681.089 102.348,682.055C102.821,683.02 103.532,683.785 104.461,684.35C105.39,684.914 106.447,685.188 107.612,685.188C108.706,685.188 109.726,684.932 110.654,684.423C111.603,683.931 112.331,683.165 112.858,682.182C113.369,681.216 113.624,680.087 113.624,678.848C113.624,677.628 113.369,676.535 112.896,675.569C112.403,674.604 111.693,673.839 110.764,673.292Z" style="fill:url(#_Linear6);"/>
        </g>
        <g transform="matrix(4.16667,0,0,4.16667,-544.194,-2504.95)">
            <path d="M129.546,673.001L126.613,681.362C126.376,682.036 126.193,682.565 126.066,682.984L125.574,681.526L122.642,672.892L122.441,672.892L122.441,677.355L125.155,685.188L126.776,685.188L129.546,677.373L129.546,673.001Z" style="fill:url(#_Linear7);"/>
        </g>
        <g transform="matrix(4.16667,0,0,4.16667,-544.194,-2504.95)">
            <rect x="120" y="672.892" width="1.785" height="12.296" style="fill:url(#_Linear8);"/>
        </g>
        <g transform="matrix(4.16667,0,0,4.16667,-544.194,-2504.95)">
            <rect x="130.201" y="672.892" width="1.768" height="12.296" style="fill:url(#_Linear9);"/>
        </g>
        <g transform="matrix(4.16667,0,0,4.16667,-544.194,-2504.95)">
            <rect x="138.345" y="672.892" width="1.84" height="12.296" style="fill:url(#_Linear10);"/>
        </g>
        <g transform="matrix(4.16667,0,0,4.16667,-544.194,-2504.95)">
            <path d="M147.58,674.804C147.307,674.294 146.979,673.875 146.542,673.602C146.123,673.31 145.595,673.11 144.993,673.019C144.557,672.928 143.919,672.892 143.1,672.892L140.84,672.892L140.84,674.531L143.227,674.531C143.955,674.531 144.447,674.568 144.721,674.641C145.121,674.75 145.449,674.968 145.686,675.314C145.94,675.66 146.05,676.061 146.05,676.553C146.05,677.209 145.85,677.719 145.431,678.083C145.012,678.448 144.283,678.63 143.263,678.63L140.84,678.63L140.84,680.287L143.244,680.287C144.993,680.287 146.251,679.905 146.925,679.176C147.617,678.448 147.963,677.555 147.963,676.498C147.963,675.879 147.835,675.314 147.58,674.804Z" style="fill:url(#_Linear11);"/>
        </g>
        <g transform="matrix(4.16667,0,0,4.16667,-544.194,-2504.95)">
            <path d="M159.148,672.892L154.339,685.188L156.288,685.188L156.835,683.749L156.816,683.749L158.201,680.014L158.492,679.249L159.513,676.535L159.531,676.535C159.749,675.934 159.932,675.314 160.077,674.713C160.26,675.296 160.515,676.007 160.824,676.808L162.063,680.014L158.911,680.014L158.347,681.526L162.646,681.526L164.085,685.188L166.18,685.188L161.043,672.892L159.148,672.892Z" style="fill:url(#_Linear12);"/>
        </g>
        <g transform="matrix(4.16667,0,0,4.16667,-544.194,-2504.95)">
            <rect x="172.374" y="672.892" width="1.712" height="12.296" style="fill:url(#_Linear13);"/>
        </g>
        <g transform="matrix(4.16667,0,0,4.16667,-544.194,-2504.95)">
            <path d="M180.498,682.127L180.462,682.073L180.462,685.188L182.283,685.188L182.283,672.892L180.498,672.892L180.498,682.127Z" style="fill:url(#_Linear14);"/>
        </g>
        <g transform="matrix(4.16667,0,0,4.16667,-544.194,-2504.95)">
            <path d="M174.742,676.826L179.806,684.259L179.806,681.107L174.742,673.693L174.742,676.826Z" style="fill:url(#_Linear15);"/>
        </g>
        <g transform="matrix(4.16667,0,0,4.16667,-544.194,-2504.95)">
            <path d="M198.205,672.892L195.782,676.498C195.309,677.209 194.89,677.883 194.525,678.466L194.525,678.448L193.505,679.996L193.505,685.188L195.363,685.188L195.363,679.996L200.373,672.892L198.205,672.892Z" style="fill:url(#_Linear16);"/>
        </g>
        <g transform="matrix(4.16667,0,0,4.16667,-544.194,-2504.95)">
            <path d="M194.143,677.81L193.378,676.589L190.918,672.892L188.659,672.892L193.104,679.413L194.143,677.81Z" style="fill:url(#_Linear17);"/>
        </g>
        <g transform="matrix(4.16667,0,0,4.16667,-544.194,-2504.95)">
            <path d="M84.823,691.321L86.043,691.321L86.043,695.177L86.721,695.177L86.721,691.321L87.942,691.321L87.942,690.718L84.823,690.718L84.823,691.321Z" style="fill:url(#_Linear18);"/>
        </g>
        <g transform="matrix(4.16667,0,0,4.16667,-544.194,-2504.95)">
            <path d="M92.501,693.581L93.146,691.633L93.158,691.633L93.803,693.581L92.501,693.581ZM92.868,690.718L91.247,695.177L91.962,695.177L92.305,694.18L93.996,694.18L94.341,695.177L95.054,695.177L93.433,690.718L92.868,690.718Z" style="fill:url(#_Linear19);"/>
        </g>
        <g transform="matrix(4.16667,0,0,4.16667,-544.194,-2504.95)">
            <path d="M100.622,693.36L101.53,693.36L101.53,693.593C101.526,693.872 101.438,694.097 101.268,694.268C101.097,694.448 100.879,694.537 100.616,694.537C100.457,694.537 100.32,694.504 100.206,694.437C100.09,694.38 99.996,694.305 99.924,694.214C99.836,694.118 99.779,693.992 99.75,693.837C99.717,693.682 99.701,693.386 99.701,692.947C99.701,692.509 99.717,692.211 99.75,692.052C99.779,691.901 99.836,691.777 99.924,691.682C99.996,691.59 100.09,691.513 100.206,691.452C100.32,691.393 100.457,691.361 100.616,691.357C100.832,691.361 101.016,691.424 101.166,691.544C101.311,691.67 101.411,691.823 101.466,692.003L102.182,692.003C102.11,691.63 101.938,691.317 101.668,691.064C101.397,690.813 101.046,690.686 100.616,690.682C100.266,690.686 99.972,690.769 99.738,690.932C99.5,691.093 99.326,691.277 99.218,691.483C99.151,691.591 99.1,691.732 99.068,691.908C99.038,692.083 99.022,692.43 99.022,692.947C99.022,693.457 99.038,693.802 99.068,693.981C99.085,694.077 99.105,694.156 99.129,694.22C99.156,694.281 99.185,694.345 99.218,694.412C99.326,694.618 99.5,694.8 99.738,694.956C99.972,695.12 100.266,695.205 100.616,695.214C101.07,695.205 101.447,695.051 101.748,694.752C102.045,694.45 102.198,694.076 102.206,693.63L102.206,692.721L100.622,692.721L100.622,693.36Z" style="fill:url(#_Linear20);"/>
        </g>
        <g transform="matrix(4.16667,0,0,4.16667,-544.194,-2504.95)">
            <path d="M107.428,690.718L106.753,690.718L106.753,695.177L109.6,695.177L109.6,694.537L107.428,694.537L107.428,690.718Z" style="fill:url(#_Linear21);"/>
        </g>
        <g transform="matrix(4.16667,0,0,4.16667,-544.194,-2504.95)">
            <rect x="113.993" y="690.718" width="0.676" height="4.459" style="fill:url(#_Linear22);"/>
        </g>
        <g transform="matrix(4.16667,0,0,4.16667,-544.194,-2504.95)">
            <path d="M122.032,693.886L122.02,693.886L120.001,690.718L119.365,690.718L119.365,695.177L120.041,695.177L120.041,692.009L120.053,692.009L122.068,695.177L122.707,695.177L122.707,690.718L122.032,690.718L122.032,693.886Z" style="fill:url(#_Linear23);"/>
        </g>
        <g transform="matrix(4.16667,0,0,4.16667,-544.194,-2504.95)">
            <path d="M127.406,695.177L130.254,695.177L130.254,694.537L128.082,694.537L128.082,693.229L129.936,693.229L129.936,692.629L128.082,692.629L128.082,691.357L130.254,691.357L130.254,690.718L127.406,690.718L127.406,695.177Z" style="fill:url(#_Linear24);"/>
        </g>
        <g transform="matrix(4.16667,0,0,4.16667,-544.194,-2504.95)">
            <path d="M141.353,693.36L142.261,693.36L142.261,693.593C142.257,693.872 142.169,694.097 141.998,694.268C141.827,694.448 141.609,694.537 141.347,694.537C141.188,694.537 141.051,694.504 140.937,694.437C140.82,694.38 140.727,694.305 140.655,694.214C140.567,694.118 140.51,693.992 140.481,693.837C140.448,693.682 140.433,693.386 140.433,692.947C140.433,692.509 140.448,692.211 140.481,692.052C140.51,691.901 140.567,691.777 140.655,691.682C140.727,691.59 140.82,691.513 140.937,691.452C141.051,691.393 141.188,691.361 141.347,691.357C141.563,691.361 141.746,691.424 141.897,691.544C142.042,691.67 142.142,691.823 142.196,692.003L142.912,692.003C142.841,691.63 142.67,691.317 142.398,691.064C142.128,690.813 141.777,690.686 141.347,690.682C140.996,690.686 140.703,690.769 140.469,690.932C140.23,691.093 140.058,691.277 139.949,691.483C139.882,691.591 139.832,691.732 139.8,691.908C139.769,692.083 139.754,692.43 139.754,692.947C139.754,693.457 139.769,693.802 139.8,693.981C139.815,694.077 139.836,694.156 139.86,694.22C139.887,694.281 139.916,694.345 139.949,694.412C140.058,694.618 140.23,694.8 140.469,694.956C140.703,695.12 140.996,695.205 141.347,695.214C141.802,695.205 142.178,695.051 142.479,694.752C142.775,694.45 142.929,694.076 142.937,693.63L142.937,692.721L141.353,692.721L141.353,693.36Z" style="fill:url(#_Linear25);"/>
        </g>
        <g transform="matrix(4.16667,0,0,4.16667,-544.194,-2504.95)">
            <path d="M149.792,693.837C149.759,693.992 149.699,694.118 149.611,694.214C149.544,694.305 149.454,694.38 149.343,694.437C149.225,694.504 149.085,694.537 148.924,694.537C148.765,694.537 148.628,694.504 148.514,694.437C148.397,694.38 148.304,694.305 148.232,694.214C148.145,694.118 148.086,693.992 148.058,693.837C148.025,693.682 148.009,693.386 148.009,692.947C148.009,692.509 148.025,692.211 148.058,692.052C148.086,691.901 148.145,691.777 148.232,691.682C148.304,691.59 148.397,691.513 148.514,691.452C148.628,691.393 148.765,691.361 148.924,691.357C149.085,691.361 149.225,691.393 149.343,691.452C149.454,691.513 149.544,691.59 149.611,691.682C149.699,691.777 149.759,691.901 149.792,692.052C149.822,692.211 149.838,692.509 149.838,692.947C149.838,693.386 149.822,693.682 149.792,693.837ZM150.317,691.483C150.214,691.277 150.044,691.093 149.811,690.932C149.573,690.769 149.278,690.686 148.924,690.682C148.572,690.686 148.28,690.769 148.046,690.932C147.808,691.093 147.634,691.277 147.525,691.483C147.459,691.591 147.408,691.732 147.376,691.908C147.346,692.083 147.33,692.43 147.33,692.947C147.33,693.457 147.346,693.802 147.376,693.981C147.393,694.077 147.413,694.156 147.438,694.22C147.464,694.281 147.493,694.345 147.525,694.412C147.634,694.618 147.808,694.8 148.046,694.956C148.28,695.12 148.572,695.205 148.924,695.214C149.278,695.205 149.573,695.12 149.811,694.956C150.044,694.8 150.214,694.618 150.317,694.412C150.394,694.304 150.445,694.16 150.474,693.981C150.5,693.802 150.514,693.457 150.514,692.947C150.514,692.43 150.5,692.083 150.474,691.908C150.445,691.732 150.394,691.591 150.317,691.483Z" style="fill:url(#_Linear26);"/>
        </g>
        <g transform="matrix(4.16667,0,0,4.16667,-544.194,-2504.95)">
            <path d="M155.06,695.177L157.906,695.177L157.906,694.537L155.735,694.537L155.735,693.229L157.589,693.229L157.589,692.629L155.735,692.629L155.735,691.357L157.906,691.357L157.906,690.718L155.06,690.718L155.06,695.177Z" style="fill:url(#_Linear27);"/>
        </g>
        <g transform="matrix(4.16667,0,0,4.16667,-544.194,-2504.95)">
            <path d="M163.958,692.635C163.746,692.609 163.579,692.586 163.456,692.565C163.236,692.525 163.076,692.451 162.977,692.345C162.876,692.241 162.826,692.125 162.826,691.996C162.83,691.782 162.905,691.621 163.05,691.513C163.188,691.41 163.361,691.357 163.569,691.357C163.972,691.366 164.339,691.48 164.674,691.7L165.05,691.143C164.64,690.848 164.158,690.694 163.604,690.682C163.143,690.686 162.787,690.806 162.536,691.042C162.277,691.281 162.147,691.595 162.147,691.984C162.147,692.308 162.251,692.584 162.456,692.81C162.656,693.03 162.948,693.172 163.331,693.235C163.545,693.266 163.742,693.293 163.922,693.317C164.313,693.385 164.506,693.585 164.502,693.917C164.494,694.322 164.2,694.529 163.621,694.537C163.132,694.533 162.71,694.386 162.355,694.094L161.912,694.602C162.387,695.009 162.955,695.214 163.615,695.214C164.637,695.201 165.159,694.769 165.181,693.917C165.181,693.601 165.082,693.324 164.885,693.085C164.685,692.842 164.376,692.693 163.958,692.635Z" style="fill:url(#_Linear28);"/>
        </g>
        <g transform="matrix(4.16667,0,0,4.16667,-544.194,-2504.95)">
            <path d="M177.351,692.629L175.586,692.629L175.586,690.718L174.91,690.718L174.91,695.177L175.586,695.177L175.586,693.229L177.351,693.229L177.351,695.177L178.026,695.177L178.026,690.718L177.351,690.718L177.351,692.629Z" style="fill:url(#_Linear29);"/>
        </g>
        <g transform="matrix(4.16667,0,0,4.16667,-544.194,-2504.95)">
            <path d="M182.726,695.177L185.572,695.177L185.572,694.537L183.401,694.537L183.401,693.229L185.255,693.229L185.255,692.629L183.401,692.629L183.401,691.357L185.572,691.357L185.572,690.718L182.726,690.718L182.726,695.177Z" style="fill:url(#_Linear30);"/>
        </g>
        <g transform="matrix(4.16667,0,0,4.16667,-544.194,-2504.95)">
            <path d="M190.642,692.672L190.642,691.321L191.7,691.321C191.916,691.321 192.081,691.367 192.195,691.458C192.34,691.562 192.414,691.73 192.418,691.963C192.418,692.156 192.356,692.319 192.232,692.452C192.105,692.595 191.916,692.668 191.663,692.672L190.642,692.672ZM193.058,691.963C193.045,691.551 192.897,691.234 192.614,691.012C192.38,690.816 192.077,690.718 191.706,690.718L189.966,690.718L189.966,695.177L190.642,695.177L190.642,693.272L191.504,693.272L192.424,695.177L193.229,695.177L192.195,693.198C192.762,692.98 193.049,692.568 193.058,691.963Z" style="fill:url(#_Linear31);"/>
        </g>
        <g transform="matrix(4.16667,0,0,4.16667,-544.194,-2504.95)">
            <path d="M197.543,695.177L200.39,695.177L200.39,694.537L198.219,694.537L198.219,693.229L200.071,693.229L200.071,692.629L198.219,692.629L198.219,691.357L200.39,691.357L200.39,690.718L197.543,690.718L197.543,695.177Z" style="fill:url(#_Linear32);"/>
        </g>
    </g>
    <defs>
        <linearGradient id="_Linear1" x1="0" y1="0" x2="1" y2="0" gradientUnits="userSpaceOnUse" gradientTransform="matrix(108.652,0,0,108.652,88.1211,610.552)"><stop offset="0" style="stop-color:rgb(3,4,4);stop-opacity:1"/><stop offset="1" style="stop-color:rgb(3,4,4);stop-opacity:1"/></linearGradient>
        <linearGradient id="_Linear2" x1="0" y1="0" x2="1" y2="0" gradientUnits="userSpaceOnUse" gradientTransform="matrix(73.4882,0,0,73.4882,102.556,603.37)"><stop offset="0" style="stop-color:rgb(3,4,4);stop-opacity:1"/><stop offset="1" style="stop-color:rgb(3,4,4);stop-opacity:1"/></linearGradient>
        <linearGradient id="_Linear3" x1="0" y1="0" x2="1" y2="0" gradientUnits="userSpaceOnUse" gradientTransform="matrix(108.652,0,0,108.652,88.4395,580.232)"><stop offset="0" style="stop-color:rgb(3,4,4);stop-opacity:1"/><stop offset="1" style="stop-color:rgb(3,4,4);stop-opacity:1"/></linearGradient>
        <linearGradient id="_Linear4" x1="0" y1="0" x2="1" y2="0" gradientUnits="userSpaceOnUse" gradientTransform="matrix(73.4885,0,0,73.4885,109.167,587.414)"><stop offset="0" style="stop-color:rgb(3,4,4);stop-opacity:1"/><stop offset="1" style="stop-color:rgb(3,4,4);stop-opacity:1"/></linearGradient>
        <linearGradient id="_Linear5" x1="0" y1="0" x2="1" y2="0" gradientUnits="userSpaceOnUse" gradientTransform="matrix(11.1305,0,0,11.1305,84.8223,678.839)"><stop offset="0" style="stop-color:rgb(3,4,4);stop-opacity:1"/><stop offset="1" style="stop-color:rgb(3,4,4);stop-opacity:1"/></linearGradient>
        <linearGradient id="_Linear6" x1="0" y1="0" x2="1" y2="0" gradientUnits="userSpaceOnUse" gradientTransform="matrix(12.0047,0,0,12.0047,101.619,678.83)"><stop offset="0" style="stop-color:rgb(3,4,4);stop-opacity:1"/><stop offset="1" style="stop-color:rgb(3,4,4);stop-opacity:1"/></linearGradient>
        <linearGradient id="_Linear7" x1="0" y1="0" x2="1" y2="0" gradientUnits="userSpaceOnUse" gradientTransform="matrix(7.1046,0,0,7.1046,122.44,679.04)"><stop offset="0" style="stop-color:rgb(3,4,4);stop-opacity:1"/><stop offset="1" style="stop-color:rgb(3,4,4);stop-opacity:1"/></linearGradient>
        <linearGradient id="_Linear8" x1="0" y1="0" x2="1" y2="0" gradientUnits="userSpaceOnUse" gradientTransform="matrix(1.7852,0,0,1.7852,120,679.04)"><stop offset="0" style="stop-color:rgb(3,4,4);stop-opacity:1"/><stop offset="1" style="stop-color:rgb(3,4,4);stop-opacity:1"/></linearGradient>
        <linearGradient id="_Linear9" x1="0" y1="0" x2="1" y2="0" gradientUnits="userSpaceOnUse" gradientTransform="matrix(1.7671,0,0,1.7671,130.201,679.04)"><stop offset="0" style="stop-color:rgb(3,4,4);stop-opacity:1"/><stop offset="1" style="stop-color:rgb(3,4,4);stop-opacity:1"/></linearGradient>
        <linearGradient id="_Linear10" x1="0" y1="0" x2="1" y2="0" gradientUnits="userSpaceOnUse" gradientTransform="matrix(1.8402,0,0,1.8402,138.344,679.04)"><stop offset="0" style="stop-color:rgb(3,4,4);stop-opacity:1"/><stop offset="1" style="stop-color:rgb(3,4,4);stop-opacity:1"/></linearGradient>
        <linearGradient id="_Linear11" x1="0" y1="0" x2="1" y2="0" gradientUnits="userSpaceOnUse" gradientTransform="matrix(7.1231,0,0,7.1231,140.84,676.589)"><stop offset="0" style="stop-color:rgb(3,4,4);stop-opacity:1"/><stop offset="1" style="stop-color:rgb(3,4,4);stop-opacity:1"/></linearGradient>
        <linearGradient id="_Linear12" x1="0" y1="0" x2="1" y2="0" gradientUnits="userSpaceOnUse" gradientTransform="matrix(11.8405,0,0,11.8405,154.339,679.04)"><stop offset="0" style="stop-color:rgb(3,4,4);stop-opacity:1"/><stop offset="1" style="stop-color:rgb(3,4,4);stop-opacity:1"/></linearGradient>
        <linearGradient id="_Linear13" x1="0" y1="0" x2="1" y2="0" gradientUnits="userSpaceOnUse" gradientTransform="matrix(1.7122,0,0,1.7122,172.373,679.04)"><stop offset="0" style="stop-color:rgb(3,4,4);stop-opacity:1"/><stop offset="1" style="stop-color:rgb(3,4,4);stop-opacity:1"/></linearGradient>
        <linearGradient id="_Linear14" x1="0" y1="0" x2="1" y2="0" gradientUnits="userSpaceOnUse" gradientTransform="matrix(1.8217,0,0,1.8217,180.461,679.04)"><stop offset="0" style="stop-color:rgb(3,4,4);stop-opacity:1"/><stop offset="1" style="stop-color:rgb(3,4,4);stop-opacity:1"/></linearGradient>
        <linearGradient id="_Linear15" x1="0" y1="0" x2="1" y2="0" gradientUnits="userSpaceOnUse" gradientTransform="matrix(5.0642,0,0,5.0642,174.741,678.976)"><stop offset="0" style="stop-color:rgb(3,4,4);stop-opacity:1"/><stop offset="1" style="stop-color:rgb(3,4,4);stop-opacity:1"/></linearGradient>
        <linearGradient id="_Linear16" x1="0" y1="0" x2="1" y2="0" gradientUnits="userSpaceOnUse" gradientTransform="matrix(6.8675,0,0,6.8675,193.505,679.04)"><stop offset="0" style="stop-color:rgb(3,4,4);stop-opacity:1"/><stop offset="1" style="stop-color:rgb(3,4,4);stop-opacity:1"/></linearGradient>
        <linearGradient id="_Linear17" x1="0" y1="0" x2="1" y2="0" gradientUnits="userSpaceOnUse" gradientTransform="matrix(5.4829,0,0,5.4829,188.659,676.152)"><stop offset="0" style="stop-color:rgb(3,4,4);stop-opacity:1"/><stop offset="1" style="stop-color:rgb(3,4,4);stop-opacity:1"/></linearGradient>
        <linearGradient id="_Linear18" x1="0" y1="0" x2="1" y2="0" gradientUnits="userSpaceOnUse" gradientTransform="matrix(3.1192,0,0,3.1192,84.8223,692.948)"><stop offset="0" style="stop-color:rgb(3,4,4);stop-opacity:1"/><stop offset="1" style="stop-color:rgb(3,4,4);stop-opacity:1"/></linearGradient>
        <linearGradient id="_Linear19" x1="0" y1="0" x2="1" y2="0" gradientUnits="userSpaceOnUse" gradientTransform="matrix(3.8068,0,0,3.8068,91.2471,692.948)"><stop offset="0" style="stop-color:rgb(3,4,4);stop-opacity:1"/><stop offset="1" style="stop-color:rgb(3,4,4);stop-opacity:1"/></linearGradient>
        <linearGradient id="_Linear20" x1="0" y1="0" x2="1" y2="0" gradientUnits="userSpaceOnUse" gradientTransform="matrix(3.1832,0,0,3.1832,99.0225,692.947)"><stop offset="0" style="stop-color:rgb(3,4,4);stop-opacity:1"/><stop offset="1" style="stop-color:rgb(3,4,4);stop-opacity:1"/></linearGradient>
        <linearGradient id="_Linear21" x1="0" y1="0" x2="1" y2="0" gradientUnits="userSpaceOnUse" gradientTransform="matrix(2.8466,0,0,2.8466,106.752,692.948)"><stop offset="0" style="stop-color:rgb(3,4,4);stop-opacity:1"/><stop offset="1" style="stop-color:rgb(3,4,4);stop-opacity:1"/></linearGradient>
        <linearGradient id="_Linear22" x1="0" y1="0" x2="1" y2="0" gradientUnits="userSpaceOnUse" gradientTransform="matrix(0.6755,0,0,0.6755,113.993,692.948)"><stop offset="0" style="stop-color:rgb(3,4,4);stop-opacity:1"/><stop offset="1" style="stop-color:rgb(3,4,4);stop-opacity:1"/></linearGradient>
        <linearGradient id="_Linear23" x1="0" y1="0" x2="1" y2="0" gradientUnits="userSpaceOnUse" gradientTransform="matrix(3.3423,0,0,3.3423,119.365,692.948)"><stop offset="0" style="stop-color:rgb(3,4,4);stop-opacity:1"/><stop offset="1" style="stop-color:rgb(3,4,4);stop-opacity:1"/></linearGradient>
        <linearGradient id="_Linear24" x1="0" y1="0" x2="1" y2="0" gradientUnits="userSpaceOnUse" gradientTransform="matrix(2.8469,0,0,2.8469,127.406,692.948)"><stop offset="0" style="stop-color:rgb(3,4,4);stop-opacity:1"/><stop offset="1" style="stop-color:rgb(3,4,4);stop-opacity:1"/></linearGradient>
        <linearGradient id="_Linear25" x1="0" y1="0" x2="1" y2="0" gradientUnits="userSpaceOnUse" gradientTransform="matrix(3.1829,0,0,3.1829,139.753,692.947)"><stop offset="0" style="stop-color:rgb(3,4,4);stop-opacity:1"/><stop offset="1" style="stop-color:rgb(3,4,4);stop-opacity:1"/></linearGradient>
        <linearGradient id="_Linear26" x1="0" y1="0" x2="1" y2="0" gradientUnits="userSpaceOnUse" gradientTransform="matrix(3.1833,0,0,3.1833,147.33,692.947)"><stop offset="0" style="stop-color:rgb(3,4,4);stop-opacity:1"/><stop offset="1" style="stop-color:rgb(3,4,4);stop-opacity:1"/></linearGradient>
        <linearGradient id="_Linear27" x1="0" y1="0" x2="1" y2="0" gradientUnits="userSpaceOnUse" gradientTransform="matrix(2.847,0,0,2.847,155.06,692.948)"><stop offset="0" style="stop-color:rgb(3,4,4);stop-opacity:1"/><stop offset="1" style="stop-color:rgb(3,4,4);stop-opacity:1"/></linearGradient>
        <linearGradient id="_Linear28" x1="0" y1="0" x2="1" y2="0" gradientUnits="userSpaceOnUse" gradientTransform="matrix(3.2689,0,0,3.2689,161.912,692.947)"><stop offset="0" style="stop-color:rgb(3,4,4);stop-opacity:1"/><stop offset="1" style="stop-color:rgb(3,4,4);stop-opacity:1"/></linearGradient>
        <linearGradient id="_Linear29" x1="0" y1="0" x2="1" y2="0" gradientUnits="userSpaceOnUse" gradientTransform="matrix(3.1163,0,0,3.1163,174.909,692.948)"><stop offset="0" style="stop-color:rgb(3,4,4);stop-opacity:1"/><stop offset="1" style="stop-color:rgb(3,4,4);stop-opacity:1"/></linearGradient>
        <linearGradient id="_Linear30" x1="0" y1="0" x2="1" y2="0" gradientUnits="userSpaceOnUse" gradientTransform="matrix(2.8466,0,0,2.8466,182.726,692.948)"><stop offset="0" style="stop-color:rgb(3,4,4);stop-opacity:1"/><stop offset="1" style="stop-color:rgb(3,4,4);stop-opacity:1"/></linearGradient>
        <linearGradient id="_Linear31" x1="0" y1="0" x2="1" y2="0" gradientUnits="userSpaceOnUse" gradientTransform="matrix(3.2629,0,0,3.2629,189.966,692.948)"><stop offset="0" style="stop-color:rgb(3,4,4);stop-opacity:1"/><stop offset="1" style="stop-color:rgb(3,4,4);stop-opacity:1"/></linearGradient>
        <linearGradient id="_Linear32" x1="0" y1="0" x2="1" y2="0" gradientUnits="userSpaceOnUse" gradientTransform="matrix(2.8469,0,0,2.8469,197.542,692.948)"><stop offset="0" style="stop-color:rgb(3,4,4);stop-opacity:1"/><stop offset="1" style="stop-color:rgb(3,4,4);stop-opacity:1"/></linearGradient>
    </defs>
</svg>
