<?xml version="1.0" encoding="UTF-8" standalone="no"?>
<!DOCTYPE svg PUBLIC "-//W3C//DTD SVG 1.1//EN" "http://www.w3.org/Graphics/SVG/1.1/DTD/svg11.dtd">
<svg width="100%" height="100%" viewBox="0 0 100 100" version="1.1" xmlns="http://www.w3.org/2000/svg" xmlns:xlink="http://www.w3.org/1999/xlink" xml:space="preserve" xmlns:serif="http://www.serif.com/" style="fill-rule:evenodd;clip-rule:evenodd;stroke-linejoin:round;stroke-miterlimit:2;">
    <g transform="matrix(0.289755,0,0,0.289755,36.8764,30.0765)">
        <g transform="matrix(1,0,0,1,-727.159,-349.576)">
            <path d="M778.715,395.074C777.524,393.476 776.93,391.215 776.93,388.291L776.93,378.465C776.93,375.45 777.519,373.161 778.698,371.597C779.876,370.033 781.905,369.25 784.784,369.25C787.481,369.25 789.396,369.931 790.53,371.291C791.663,372.651 792.229,374.611 792.229,377.173L792.229,379.485L787.401,379.485L787.401,377.104C787.401,376.13 787.356,375.365 787.266,374.81C787.175,374.254 786.942,373.801 786.569,373.45C786.195,373.099 785.611,372.923 784.817,372.923C784.002,372.923 783.39,373.11 782.981,373.484C782.574,373.858 782.308,374.356 782.183,374.979C782.058,375.604 781.996,376.414 781.996,377.411L781.996,389.345C781.996,390.909 782.2,392.037 782.607,392.728C783.016,393.419 783.752,393.765 784.817,393.765C785.588,393.765 786.161,393.583 786.535,393.221C786.909,392.858 787.146,392.376 787.249,391.776C787.351,391.175 787.401,390.376 787.401,389.379L787.401,386.896L792.229,386.896L792.229,389.106C792.229,391.759 791.674,393.816 790.563,395.278C789.453,396.74 787.526,397.471 784.784,397.471C781.928,397.471 779.905,396.672 778.715,395.074Z" style="fill:rgb(206,89,89);fill-rule:nonzero;"/>
        </g>
        <g transform="matrix(1,0,0,1,-727.159,-349.576)">
            <path d="M807.189,392.71C807.574,392.008 807.768,390.988 807.768,389.651L807.768,376.969C807.768,375.631 807.58,374.623 807.206,373.943C806.832,373.263 806.078,372.923 804.945,372.923C803.812,372.923 803.053,373.269 802.667,373.959C802.281,374.651 802.09,375.654 802.09,376.969L802.09,389.651C802.09,390.988 802.281,392.008 802.667,392.71C803.053,393.414 803.812,393.765 804.945,393.765C806.056,393.765 806.804,393.414 807.189,392.71ZM798.825,395.176C797.602,393.646 796.989,391.408 796.989,388.46L796.989,378.125C796.989,375.201 797.602,372.991 798.825,371.495C800.05,369.999 802.09,369.25 804.945,369.25C807.778,369.25 809.808,369.999 811.031,371.495C812.256,372.991 812.867,375.201 812.867,378.125L812.867,388.46C812.867,391.385 812.25,393.618 811.015,395.159C809.778,396.7 807.756,397.471 804.945,397.471C802.09,397.471 800.05,396.706 798.825,395.176Z" style="fill:rgb(206,89,89);fill-rule:nonzero;"/>
        </g>
        <g transform="matrix(1,0,0,1,-727.159,-349.576)">
            <path d="M818.682,369.557L823.883,369.557L827.793,388.631L831.839,369.557L836.905,369.557L837.415,397.097L833.675,397.097L833.268,377.955L829.357,397.097L826.331,397.097L822.354,377.887L821.979,397.097L818.205,397.097L818.682,369.557Z" style="fill:rgb(206,89,89);fill-rule:nonzero;"/>
        </g>
        <g transform="matrix(1,0,0,1,-727.159,-349.576)">
            <path d="M850.131,381.321C851.491,381.321 852.409,381.032 852.885,380.454C853.361,379.875 853.599,378.839 853.599,377.343C853.599,376.255 853.52,375.422 853.361,374.844C853.202,374.266 852.879,373.83 852.393,373.535C851.904,373.24 851.151,373.093 850.131,373.093L848.193,373.093L848.193,381.321L850.131,381.321ZM843.195,369.557L851.287,369.557C855.979,369.557 858.325,372.164 858.325,377.376C858.325,382.363 855.865,384.856 850.947,384.856L848.193,384.856L848.193,397.097L843.195,397.097L843.195,369.557Z" style="fill:rgb(206,89,89);fill-rule:nonzero;"/>
        </g>
        <g transform="matrix(1,0,0,1,-727.159,-349.576)">
            <path d="M870.09,387.542L868.22,375.983L866.35,387.542L870.09,387.542ZM865.5,369.557L870.871,369.557L876.38,397.097L871.722,397.097L870.634,390.739L865.84,390.739L864.718,397.097L859.991,397.097L865.5,369.557Z" style="fill:rgb(206,89,89);fill-rule:nonzero;"/>
        </g>
        <g transform="matrix(1,0,0,1,-727.159,-349.576)">
            <path d="M880.833,369.557L884.335,369.557L891.033,385.265L891.033,369.557L895.181,369.557L895.181,397.097L891.849,397.097L885.117,380.641L885.117,397.097L880.833,397.097L880.833,369.557Z" style="fill:rgb(206,89,89);fill-rule:nonzero;"/>
        </g>
        <g transform="matrix(1,0,0,1,-727.159,-349.576)">
            <path d="M904.904,386.591L899.328,369.557L904.021,369.557L907.42,380.471L910.616,369.557L915.206,369.557L909.698,386.591L909.698,397.097L904.904,397.097L904.904,386.591Z" style="fill:rgb(206,89,89);fill-rule:nonzero;"/>
        </g>
        <g transform="matrix(1,0,0,1,-727.159,-349.576)">
            <path d="M786.433,409.133L786.433,410.57L782.353,410.57L782.353,421.762L780.643,421.762L780.643,410.57L776.545,410.57L776.545,409.133L786.433,409.133Z" style="fill:rgb(206,89,89);fill-rule:nonzero;"/>
        </g>
        <g transform="matrix(1,0,0,1,-727.159,-349.576)">
            <path d="M790.944,417.073L795.659,417.073L793.676,411.936C793.547,411.618 793.421,411.222 793.297,410.746C793.232,410.987 793.17,411.208 793.107,411.411C793.046,411.614 792.985,411.792 792.927,411.944L790.944,417.073ZM799.22,421.762L797.897,421.762C797.745,421.762 797.621,421.724 797.527,421.647C797.434,421.571 797.363,421.474 797.315,421.356L796.135,418.307L790.469,418.307L789.287,421.356C789.246,421.462 789.176,421.556 789.076,421.638C788.977,421.721 788.853,421.762 788.706,421.762L787.384,421.762L792.434,409.133L794.17,409.133L799.22,421.762Z" style="fill:rgb(206,89,89);fill-rule:nonzero;"/>
        </g>
        <g transform="matrix(1,0,0,1,-727.159,-349.576)">
            <path d="M807.839,420.519C808.179,420.519 808.492,420.503 808.777,420.471C809.062,420.438 809.331,420.39 809.583,420.325C809.836,420.261 810.074,420.183 810.297,420.092C810.521,420 810.743,419.896 810.967,419.779L810.967,416.994L809.011,416.994C808.898,416.994 808.81,416.962 808.742,416.897C808.674,416.833 808.641,416.753 808.641,416.659L808.641,415.69L812.518,415.69L812.518,420.537C812.201,420.766 811.87,420.966 811.526,421.136C811.183,421.307 810.815,421.449 810.425,421.563C810.034,421.678 809.615,421.763 809.169,421.819C808.723,421.875 808.238,421.903 807.715,421.903C806.799,421.903 805.958,421.746 805.194,421.431C804.431,421.117 803.772,420.676 803.221,420.109C802.668,419.542 802.238,418.862 801.93,418.069C801.621,417.276 801.467,416.404 801.467,415.452C801.467,414.488 801.618,413.61 801.921,412.817C802.224,412.024 802.655,411.344 803.216,410.777C803.777,410.21 804.456,409.771 805.252,409.459C806.048,409.148 806.939,408.992 807.927,408.992C808.426,408.992 808.89,409.029 809.319,409.103C809.748,409.176 810.146,409.282 810.513,409.419C810.88,409.558 811.22,409.725 811.531,409.922C811.843,410.119 812.133,410.34 812.403,410.587L811.919,411.363C811.818,411.521 811.689,411.601 811.531,411.601C811.437,411.601 811.334,411.568 811.223,411.504C811.075,411.421 810.911,411.322 810.729,411.204C810.547,411.087 810.325,410.974 810.063,410.865C809.802,410.756 809.494,410.664 809.139,410.587C808.783,410.511 808.361,410.473 807.874,410.473C807.163,410.473 806.52,410.589 805.943,410.821C805.368,411.053 804.878,411.385 804.472,411.817C804.066,412.249 803.755,412.771 803.538,413.385C803.32,414 803.212,414.688 803.212,415.452C803.212,416.251 803.325,416.963 803.551,417.589C803.777,418.215 804.096,418.745 804.507,419.18C804.919,419.614 805.406,419.946 805.971,420.175C806.534,420.405 807.157,420.519 807.839,420.519Z" style="fill:rgb(206,89,89);fill-rule:nonzero;"/>
        </g>
        <g transform="matrix(1,0,0,1,-727.159,-349.576)">
            <path d="M823.78,420.325L829.244,420.325L829.244,421.762L822.07,421.762L822.07,409.133L823.78,409.133L823.78,420.325Z" style="fill:rgb(206,89,89);fill-rule:nonzero;"/>
        </g>
        <g transform="matrix(1,0,0,1,-727.159,-349.576)">
            <rect x="833.209" y="409.133" width="1.71" height="12.629" style="fill:rgb(206,89,89);fill-rule:nonzero;"/>
        </g>
        <g transform="matrix(1,0,0,1,-727.159,-349.576)">
            <path d="M841.286,409.19C841.359,409.229 841.443,409.307 841.537,409.424L848.852,418.942C848.834,418.789 848.822,418.641 848.816,418.497C848.811,418.353 848.808,418.213 848.808,418.078L848.808,409.133L850.306,409.133L850.306,421.762L849.442,421.762C849.307,421.762 849.194,421.738 849.103,421.691C849.012,421.644 848.922,421.565 848.834,421.453L841.528,411.944C841.54,412.091 841.549,412.235 841.555,412.376C841.561,412.517 841.563,412.646 841.563,412.764L841.563,421.762L840.065,421.762L840.065,409.133L840.947,409.133C841.1,409.133 841.213,409.152 841.286,409.19Z" style="fill:rgb(206,89,89);fill-rule:nonzero;"/>
        </g>
        <g transform="matrix(1,0,0,1,-727.159,-349.576)">
            <path d="M862.935,409.133L862.935,410.525L856.871,410.525L856.871,414.72L861.779,414.72L861.779,416.06L856.871,416.06L856.871,420.369L862.935,420.369L862.935,421.762L855.152,421.762L855.152,409.133L862.935,409.133Z" style="fill:rgb(206,89,89);fill-rule:nonzero;"/>
        </g>
        <g transform="matrix(1,0,0,1,-727.159,-349.576)">
            <path d="M678.869,324.692L678.869,410.359L764.535,434.703L764.535,349.036L678.869,324.692ZM683.737,331.138L759.667,352.714L759.667,428.258L683.737,406.681L683.737,331.138Z" style="fill:rgb(206,89,89);fill-rule:nonzero;"/>
        </g>
        <g transform="matrix(1,0,0,1,-727.159,-349.576)">
            <path d="M724.778,474.46L639.111,450.117L639.111,364.45L724.778,388.793L724.778,474.46Z" style="fill:rgb(206,89,89);fill-rule:nonzero;"/>
        </g>
        <g transform="matrix(1,0,0,1,-727.159,-349.576)">
            <path d="M678.869,324.692L639.111,364.45L724.778,388.793L764.535,349.036L678.869,324.692ZM680.289,330.158L755.232,351.454L723.357,383.329L648.414,362.032L680.289,330.158Z" style="fill:rgb(206,89,89);fill-rule:nonzero;"/>
        </g>
        <g transform="matrix(1,0,0,1,-727.159,-349.576)">
            <path d="M729.6,469.639L764.535,434.703L729.6,424.775L729.6,469.639Z" style="fill:rgb(206,89,89);fill-rule:nonzero;"/>
        </g>
    </g>
</svg>
