<?xml version="1.0" encoding="UTF-8" standalone="no"?>
<!DOCTYPE svg PUBLIC "-//W3C//DTD SVG 1.1//EN" "http://www.w3.org/Graphics/SVG/1.1/DTD/svg11.dtd">
<svg width="100%" height="100%" viewBox="0 0 100 100" version="1.1" xmlns="http://www.w3.org/2000/svg" xmlns:xlink="http://www.w3.org/1999/xlink" xml:space="preserve" xmlns:serif="http://www.serif.com/" style="fill-rule:evenodd;clip-rule:evenodd;stroke-linejoin:round;stroke-miterlimit:2;">
    <g transform="matrix(0.454791,0,0,0.454791,26.7504,27.1693)">
        <g transform="matrix(1,0,0,1,-980.877,-349.115)">
            <path d="M958.088,485.526C958.541,485.526 958.936,485.492 959.27,485.421C959.605,485.351 959.891,485.262 960.131,485.155C960.371,485.048 960.572,484.93 960.738,484.802C960.902,484.674 961.051,484.557 961.184,484.449C961.316,484.342 961.439,484.253 961.555,484.183C961.67,484.113 961.795,484.078 961.928,484.078C962.059,484.078 962.168,484.101 962.256,484.146C962.342,484.191 962.406,484.243 962.447,484.3L963.859,485.997C963.074,486.93 962.145,487.638 961.066,488.121C959.988,488.604 958.764,488.846 957.395,488.846C956.254,488.846 955.246,488.646 954.365,488.245C953.486,487.845 952.746,487.293 952.143,486.592C951.541,485.89 951.084,485.058 950.775,484.096C950.465,483.134 950.311,482.096 950.311,480.981C950.311,479.949 950.426,478.971 950.656,478.046C950.889,477.122 951.215,476.267 951.635,475.482C952.057,474.698 952.563,473.992 953.152,473.365C953.742,472.737 954.396,472.205 955.115,471.767C955.834,471.33 956.605,470.993 957.432,470.758C958.256,470.522 959.119,470.405 960.02,470.405C960.697,470.405 961.314,470.469 961.871,470.597C962.428,470.725 962.932,470.902 963.383,471.129C963.832,471.356 964.234,471.627 964.59,471.94C964.945,472.254 965.254,472.601 965.518,472.981L964.107,474.616C964.008,474.731 963.893,474.834 963.76,474.925C963.627,475.016 963.455,475.062 963.24,475.062C963.1,475.062 962.971,475.029 962.855,474.962C962.74,474.896 962.623,474.816 962.502,474.721C962.383,474.626 962.248,474.521 962.1,474.405C961.951,474.29 961.773,474.185 961.568,474.089C961.361,473.995 961.115,473.914 960.83,473.848C960.547,473.782 960.209,473.749 959.822,473.749C959.063,473.749 958.354,473.91 957.697,474.232C957.041,474.554 956.471,475.014 955.988,475.613C955.506,476.211 955.127,476.938 954.855,477.792C954.582,478.647 954.447,479.603 954.447,480.659C954.447,481.427 954.539,482.113 954.725,482.715C954.91,483.318 955.164,483.828 955.486,484.245C955.809,484.662 956.193,484.979 956.639,485.198C957.084,485.417 957.568,485.526 958.088,485.526Z" style="fill:rgb(0,100,170);fill-rule:nonzero;"/>
        </g>
        <g transform="matrix(1,0,0,1,-980.877,-349.115)">
            <path d="M984.566,478.566C984.566,477.823 984.477,477.148 984.301,476.542C984.123,475.935 983.861,475.415 983.52,474.981C983.178,474.547 982.758,474.213 982.262,473.978C981.768,473.743 981.205,473.625 980.578,473.625C979.752,473.625 979.014,473.796 978.361,474.139C977.709,474.481 977.154,474.962 976.695,475.582C976.238,476.201 975.887,476.946 975.643,477.817C975.398,478.688 975.277,479.652 975.277,480.709C975.277,481.452 975.365,482.125 975.537,482.728C975.711,483.331 975.965,483.847 976.299,484.276C976.633,484.705 977.049,485.037 977.545,485.272C978.039,485.508 978.605,485.625 979.24,485.625C980.066,485.625 980.807,485.457 981.463,485.118C982.121,484.779 982.678,484.3 983.135,483.681C983.594,483.062 983.947,482.319 984.195,481.452C984.441,480.585 984.566,479.624 984.566,478.566ZM988.703,478.467C988.703,479.441 988.59,480.375 988.361,481.266C988.135,482.158 987.813,482.988 987.396,483.755C986.979,484.523 986.475,485.221 985.885,485.849C985.295,486.476 984.633,487.011 983.896,487.452C983.162,487.894 982.365,488.237 981.508,488.48C980.648,488.724 979.744,488.846 978.795,488.846C977.605,488.846 976.539,488.637 975.594,488.22C974.648,487.803 973.846,487.234 973.186,486.511C972.523,485.789 972.018,484.938 971.668,483.96C971.316,482.981 971.141,481.927 971.141,480.795C971.141,479.821 971.254,478.886 971.482,477.991C971.709,477.095 972.031,476.263 972.447,475.495C972.865,474.727 973.371,474.03 973.965,473.402C974.559,472.774 975.225,472.24 975.959,471.798C976.693,471.356 977.49,471.014 978.35,470.771C979.207,470.527 980.115,470.405 981.074,470.405C982.254,470.405 983.316,470.614 984.262,471.03C985.207,471.447 986.01,472.019 986.666,472.746C987.322,473.472 987.826,474.327 988.176,475.309C988.527,476.292 988.703,477.345 988.703,478.467Z" style="fill:rgb(0,100,170);fill-rule:nonzero;"/>
        </g>
        <g transform="matrix(1,0,0,1,-980.877,-349.115)">
            <path d="M1005.57,482.319C1005.7,482.046 1005.84,481.778 1005.98,481.514C1006.13,481.25 1006.28,480.986 1006.44,480.721L1011.96,471.222C1012.13,470.942 1012.33,470.769 1012.58,470.702C1012.83,470.636 1013.07,470.603 1013.3,470.603L1016.47,470.603L1014.24,488.647L1010.7,488.647L1011.96,478.146C1011.99,477.922 1012.03,477.677 1012.08,477.408C1012.13,477.14 1012.19,476.862 1012.26,476.572L1006.83,485.886C1006.67,486.167 1006.45,486.375 1006.19,486.511C1005.93,486.647 1005.64,486.715 1005.32,486.715L1004.78,486.715C1004.46,486.715 1004.19,486.646 1003.95,486.505C1003.72,486.365 1003.55,486.158 1003.46,485.886L1000.29,476.548C1000.28,476.829 1000.26,477.101 1000.25,477.365C1000.24,477.629 1000.22,477.869 1000.2,478.083L998.957,488.647L995.391,488.647L997.619,470.615L1001.15,470.615C1001.28,470.615 1001.4,470.634 1001.5,470.671C1001.61,470.708 1001.69,470.769 1001.77,470.851C1001.84,470.934 1001.9,471.054 1001.95,471.21L1005.13,480.72C1005.3,481.241 1005.45,481.773 1005.57,482.319Z" style="fill:rgb(0,100,170);fill-rule:nonzero;"/>
        </g>
        <g transform="matrix(1,0,0,1,-980.877,-349.115)">
            <path d="M1028.9,473.613L1028.17,479.532L1030.12,479.532C1030.69,479.532 1031.18,479.448 1031.57,479.278C1031.96,479.109 1032.28,478.87 1032.53,478.56C1032.77,478.25 1032.94,477.881 1033.05,477.452C1033.16,477.022 1033.21,476.552 1033.21,476.04C1033.21,475.685 1033.16,475.359 1033.07,475.062C1032.97,474.764 1032.83,474.508 1032.63,474.294C1032.43,474.079 1032.18,473.912 1031.88,473.792C1031.58,473.672 1031.22,473.613 1030.81,473.613L1028.9,473.613ZM1027.79,482.566L1027.04,488.647L1023.03,488.647L1025.24,470.603L1031.21,470.603C1032.28,470.603 1033.2,470.733 1033.96,470.993C1034.72,471.253 1035.35,471.612 1035.84,472.071C1036.33,472.529 1036.7,473.07 1036.93,473.693C1037.16,474.316 1037.27,474.987 1037.27,475.706C1037.27,476.688 1037.12,477.599 1036.82,478.437C1036.52,479.274 1036.06,479.999 1035.44,480.61C1034.82,481.221 1034.04,481.7 1033.09,482.046C1032.14,482.393 1031.02,482.566 1029.72,482.566L1027.79,482.566Z" style="fill:rgb(0,100,170);fill-rule:nonzero;"/>
        </g>
        <g transform="matrix(1,0,0,1,-980.877,-349.115)">
            <path d="M1047.24,481.774L1051.78,481.774L1050.9,476.622C1050.82,476.193 1050.74,475.757 1050.66,475.315C1050.57,474.874 1050.5,474.471 1050.44,474.108C1050.37,474.306 1050.29,474.531 1050.18,474.783C1050.07,475.035 1049.97,475.28 1049.86,475.52C1049.76,475.759 1049.66,475.982 1049.57,476.188C1049.47,476.395 1049.4,476.548 1049.36,476.647L1047.24,481.774ZM1057.14,488.647L1054.02,488.647C1053.67,488.647 1053.39,488.567 1053.18,488.406C1052.97,488.245 1052.85,488.033 1052.8,487.768L1052.25,484.523L1046.12,484.523L1044.78,487.768C1044.69,488 1044.51,488.204 1044.25,488.381C1043.98,488.559 1043.69,488.647 1043.37,488.647L1040.2,488.647L1048.82,470.603L1052.95,470.603L1057.14,488.647Z" style="fill:rgb(0,100,170);fill-rule:nonzero;"/>
        </g>
        <g transform="matrix(1,0,0,1,-980.877,-349.115)">
            <path d="M1069.15,470.622C1069.27,470.634 1069.37,470.663 1069.47,470.708C1069.56,470.754 1069.65,470.818 1069.72,470.9C1069.8,470.983 1069.87,471.09 1069.95,471.222L1076.27,482.369C1076.29,482.08 1076.31,481.803 1076.35,481.539C1076.38,481.274 1076.41,481.027 1076.43,480.795L1077.65,470.603L1081.21,470.603L1078.99,488.647L1076.88,488.647C1076.57,488.647 1076.31,488.602 1076.1,488.511C1075.89,488.42 1075.72,488.243 1075.57,487.979L1069.26,476.845C1069.25,477.076 1069.23,477.299 1069.21,477.514C1069.19,477.729 1069.17,477.931 1069.15,478.121L1067.91,488.647L1064.35,488.647L1066.58,470.603L1068.71,470.603C1068.88,470.603 1069.03,470.609 1069.15,470.622Z" style="fill:rgb(0,100,170);fill-rule:nonzero;"/>
        </g>
        <g transform="matrix(1,0,0,1,-980.877,-349.115)">
            <path d="M1097.13,481.737L1096.28,488.647L1092.24,488.647L1093.09,481.774L1088.45,470.603L1092.04,470.603C1092.39,470.603 1092.66,470.684 1092.85,470.845C1093.04,471.005 1093.19,471.218 1093.28,471.482L1095.01,476.944C1095.13,477.308 1095.23,477.658 1095.33,477.997C1095.42,478.335 1095.5,478.662 1095.57,478.975C1095.72,478.662 1095.9,478.337 1096.09,478.003C1096.28,477.668 1096.48,477.315 1096.7,476.944L1099.77,471.482C1099.89,471.259 1100.07,471.057 1100.31,470.875C1100.55,470.694 1100.84,470.603 1101.18,470.603L1104.52,470.603L1097.13,481.737Z" style="fill:rgb(0,100,170);fill-rule:nonzero;"/>
        </g>
        <g transform="matrix(1,0,0,1,-980.877,-349.115)">
            <path d="M1118.83,451.496L1062.62,351.091L1027.42,413.954L1048.44,451.496L1118.83,451.496Z" style="fill:rgb(0,100,170);fill-rule:nonzero;"/>
        </g>
        <g transform="matrix(1,0,0,1,-980.877,-349.115)">
            <path d="M1041.04,451.496L1023.72,420.561L1006.4,451.496L1041.04,451.496Z" style="fill:rgb(0,100,170);fill-rule:nonzero;"/>
        </g>
        <g transform="matrix(1,0,0,1,-980.877,-349.115)">
            <path d="M1021.94,309.384L942.925,451.496L998.224,451.496L1049.59,358.768L1021.94,309.384Z" style="fill:rgb(0,100,170);fill-rule:nonzero;"/>
        </g>
    </g>
</svg>
