<?xml version="1.0" encoding="UTF-8" standalone="no"?>
<!DOCTYPE svg PUBLIC "-//W3C//DTD SVG 1.1//EN" "http://www.w3.org/Graphics/SVG/1.1/DTD/svg11.dtd">
<svg width="100%" height="100%" viewBox="0 0 100 100" version="1.1" xmlns="http://www.w3.org/2000/svg" xmlns:xlink="http://www.w3.org/1999/xlink" xml:space="preserve" xmlns:serif="http://www.serif.com/" style="fill-rule:evenodd;clip-rule:evenodd;stroke-linejoin:round;stroke-miterlimit:2;">
    <g transform="matrix(0.357192,0,0,0.357192,32.1492,-2.6582)">
        <g transform="matrix(1,0,0,1,-415.732,0)">
            <path d="M399.672,146.667C391.326,146.667 384.498,139.839 384.498,131.494C384.498,123.147 391.326,116.319 399.672,116.319C408.018,116.319 414.847,123.147 414.847,131.494C414.847,139.839 408.018,146.667 399.672,146.667Z" style="fill:rgb(0,100,170);fill-rule:nonzero;"/>
        </g>
        <g transform="matrix(1,0,0,1,-415.732,0)">
            <path d="M511.644,111.475C511.644,87.324 491.884,67.564 467.733,67.564L467.732,67.564C443.582,67.564 423.822,87.324 423.822,111.475L423.822,175.641C423.822,175.641 511.636,165.864 511.644,111.481L511.644,111.475Z" style="fill:rgb(0,100,170);fill-rule:nonzero;"/>
        </g>
        <g transform="matrix(1,0,0,1,-415.732,0)">
            <path d="M384.297,204.738C379.881,204.738 376.269,201.125 376.269,196.71C376.269,192.294 379.881,188.682 384.297,188.682C388.712,188.682 392.324,192.294 392.324,196.71C392.324,201.125 388.712,204.738 384.297,204.738ZM353.747,196.703L353.747,196.71C353.747,213.512 367.494,227.26 384.297,227.26C401.099,227.26 414.847,213.512 414.847,196.71L414.847,152.068C414.847,152.068 353.755,158.87 353.747,196.703Z" style="fill:rgb(0,100,170);fill-rule:nonzero;"/>
        </g>
        <g transform="matrix(1,0,0,1,-415.732,0)">
            <path d="M429.553,208.208C427.927,207.324 426.652,206.102 425.73,204.542C424.807,202.982 424.346,201.223 424.346,199.263C424.346,197.304 424.812,195.544 425.744,193.984C426.676,192.425 427.955,191.202 429.582,190.317C431.209,189.433 433.029,188.991 435.047,188.991C436.682,188.991 438.176,189.276 439.525,189.847C440.877,190.417 442.018,191.245 442.95,192.329L440.553,194.583C439.107,193.024 437.329,192.244 435.217,192.244C433.848,192.244 432.621,192.543 431.537,193.143C430.452,193.742 429.605,194.574 428.997,195.639C428.388,196.705 428.084,197.913 428.084,199.263C428.084,200.614 428.388,201.822 428.997,202.887C429.605,203.953 430.452,204.784 431.537,205.384C432.621,205.983 433.848,206.282 435.217,206.282C437.329,206.282 439.107,205.493 440.553,203.914L442.95,206.197C442.018,207.281 440.871,208.108 439.512,208.679C438.151,209.25 436.653,209.535 435.018,209.535C433.001,209.535 431.18,209.093 429.553,208.208Z" style="fill:rgb(0,100,170);fill-rule:nonzero;"/>
        </g>
        <g transform="matrix(1,0,0,1,-415.732,0)">
            <path d="M459.015,205.384C460.08,204.784 460.916,203.948 461.525,202.873C462.135,201.798 462.438,200.595 462.438,199.263C462.438,197.932 462.135,196.729 461.525,195.653C460.916,194.579 460.08,193.742 459.015,193.143C457.949,192.543 456.75,192.244 455.419,192.244C454.088,192.244 452.889,192.543 451.824,193.143C450.758,193.742 449.922,194.579 449.313,195.653C448.703,196.729 448.4,197.932 448.4,199.263C448.4,200.595 448.703,201.798 449.313,202.873C449.922,203.948 450.758,204.784 451.824,205.384C452.889,205.983 454.088,206.282 455.419,206.282C456.75,206.282 457.949,205.983 459.015,205.384ZM449.912,208.208C448.275,207.324 446.992,206.097 446.061,204.528C445.127,202.958 444.662,201.203 444.662,199.263C444.662,197.323 445.127,195.568 446.061,193.999C446.992,192.429 448.275,191.202 449.912,190.317C451.548,189.433 453.383,188.991 455.419,188.991C457.455,188.991 459.29,189.433 460.926,190.317C462.563,191.202 463.846,192.425 464.778,193.984C465.71,195.544 466.177,197.304 466.177,199.263C466.177,201.223 465.71,202.982 464.778,204.542C463.846,206.102 462.563,207.324 460.926,208.208C459.29,209.093 457.455,209.535 455.419,209.535C453.383,209.535 451.548,209.093 449.912,208.208Z" style="fill:rgb(0,100,170);fill-rule:nonzero;"/>
        </g>
        <g transform="matrix(1,0,0,1,-415.732,0)">
            <path d="M488.462,209.25L488.434,196.01L481.871,206.967L480.215,206.967L473.652,196.181L473.652,209.25L470.114,209.25L470.114,189.276L473.168,189.276L481.1,202.516L488.89,189.276L491.943,189.276L491.972,209.25L488.462,209.25Z" style="fill:rgb(0,100,170);fill-rule:nonzero;"/>
        </g>
        <g transform="matrix(1,0,0,1,-415.732,0)">
            <path d="M509.092,199.32C509.928,198.635 510.347,197.656 510.347,196.381C510.347,195.107 509.928,194.127 509.092,193.442C508.254,192.757 507.027,192.415 505.41,192.415L501.073,192.415L501.073,200.347L505.41,200.347C507.027,200.347 508.254,200.005 509.092,199.32ZM510.104,190.132C511.389,190.703 512.373,191.521 513.057,192.586C513.742,193.651 514.085,194.917 514.085,196.381C514.085,197.827 513.742,199.087 513.057,200.162C512.373,201.237 511.389,202.06 510.104,202.63C508.82,203.201 507.313,203.486 505.582,203.486L501.073,203.486L501.073,209.25L497.363,209.25L497.363,189.276L505.582,189.276C507.313,189.276 508.82,189.562 510.104,190.132Z" style="fill:rgb(0,100,170);fill-rule:nonzero;"/>
        </g>
        <g transform="matrix(1,0,0,1,-415.732,0)">
            <path d="M528.523,201.717L524.757,192.985L521.02,201.717L528.523,201.717ZM529.75,204.627L519.763,204.627L517.794,209.25L513.971,209.25L522.959,189.276L526.611,189.276L535.629,209.25L531.748,209.25L529.75,204.627Z" style="fill:rgb(0,100,170);fill-rule:nonzero;"/>
        </g>
        <g transform="matrix(1,0,0,1,-415.732,0)">
            <path d="M555.916,189.276L555.916,209.25L552.863,209.25L541.849,195.725L541.849,209.25L538.168,209.25L538.168,189.276L541.221,189.276L552.234,202.801L552.234,189.276L555.916,189.276Z" style="fill:rgb(0,100,170);fill-rule:nonzero;"/>
        </g>
        <g transform="matrix(1,0,0,1,-415.732,0)">
            <path d="M569.897,202.202L569.897,209.25L566.188,209.25L566.188,202.259L558.342,189.276L562.308,189.276L568.157,199.006L574.063,189.276L577.716,189.276L569.897,202.202Z" style="fill:rgb(0,100,170);fill-rule:nonzero;"/>
        </g>
    </g>
</svg>
