<?xml version="1.0" encoding="UTF-8" standalone="no"?>
<!DOCTYPE svg PUBLIC "-//W3C//DTD SVG 1.1//EN" "http://www.w3.org/Graphics/SVG/1.1/DTD/svg11.dtd">
<svg width="100%" height="100%" viewBox="0 0 216 158" version="1.1" xmlns="http://www.w3.org/2000/svg" xmlns:xlink="http://www.w3.org/1999/xlink" xml:space="preserve" xmlns:serif="http://www.serif.com/" style="fill-rule:evenodd;clip-rule:evenodd;stroke-linecap:round;stroke-miterlimit:10;">
    <g transform="matrix(0.995738,0,0,0.995738,-44.1107,-56.2322)">
        <g id="Layer-1" serif:id="Layer 1">
            <g>
                <g transform="matrix(1,0,0,1,252.637,49.2076)">
                    <path d="M0,165.353C0,165.353 -8.443,133.979 2.472,118.964C13.386,103.95 11.879,77.01 -20.241,67.437C-52.362,57.866 -40.064,29.106 -64.534,14.554C-89.004,0 -119.115,7.069 -133.945,37.318C-148.775,67.568 -183.414,44.565 -198.15,67.437C-210.625,86.798 -182.963,96.447 -187.958,111.373C-192.953,126.299 -205.631,150.476 -196.051,165.353L0,165.353Z" style="fill:rgb(212,216,219);fill-rule:nonzero;"/>
                </g>
                <g transform="matrix(-1,0.000819001,0.000819001,1,51.4703,160.708)">
                    <path d="M0.477,-13.431C0.477,-13.431 -0.06,-7.829 6.806,-6.51C6.806,-6.51 0.585,-6.023 0.477,-0C0.477,-0 0.423,-5.3 -6.323,-6.711C-6.323,-6.711 -0.18,-7.227 0.477,-13.431" style="fill:rgb(0,204,102);fill-rule:nonzero;"/>
                </g>
                <g transform="matrix(-1,0.000744546,0.000744546,1,159.825,74.652)">
                    <path d="M0.477,-13.431C0.477,-13.431 -0.061,-7.829 6.806,-6.51C6.806,-6.51 0.584,-6.023 0.477,-0C0.477,-0 0.422,-5.3 -6.324,-6.711C-6.324,-6.711 -0.18,-7.227 0.477,-13.431" style="fill:rgb(0,204,102);fill-rule:nonzero;"/>
                </g>
                <g transform="matrix(-1,0.000744546,0.000744546,1,202.328,108.485)">
                    <path d="M0.477,-13.431C0.477,-13.431 -0.061,-7.83 6.806,-6.51C6.806,-6.51 0.584,-6.023 0.477,-0C0.477,-0 0.422,-5.301 -6.324,-6.711C-6.324,-6.711 -0.18,-7.228 0.477,-13.431" style="fill:rgb(23,169,230);fill-rule:nonzero;"/>
                </g>
                <g transform="matrix(-1,0.000734035,0.000734035,1,116.606,106.091)">
                    <path d="M0.29,-8.174C0.29,-8.174 -0.037,-4.765 4.142,-3.962C4.142,-3.962 0.354,-3.665 0.29,-0C0.29,-0 0.257,-3.225 -3.849,-4.084C-3.849,-4.084 -0.11,-4.399 0.29,-8.174" style="fill:white;fill-rule:nonzero;"/>
                </g>
                <g transform="matrix(-1,0.000734035,0.000734035,1,234.942,203.497)">
                    <path d="M0.291,-8.174C0.291,-8.174 -0.036,-4.765 4.143,-3.962C4.143,-3.962 0.355,-3.666 0.291,-0C0.291,-0 0.258,-3.226 -3.849,-4.084C-3.849,-4.084 -0.109,-4.399 0.291,-8.174" style="fill:white;fill-rule:nonzero;"/>
                </g>
                <g transform="matrix(-1,0.000795545,0.000795545,1,137.782,84.9855)">
                    <path d="M0.312,-8.799C0.312,-8.799 -0.04,-5.13 4.459,-4.264C4.459,-4.264 0.381,-3.946 0.312,-0C0.312,-0 0.277,-3.472 -4.143,-4.397C-4.143,-4.397 -0.119,-4.735 0.312,-8.799" style="fill:rgb(175,179,177);fill-rule:nonzero;"/>
                </g>
                <g transform="matrix(1,0,0,1,138.539,197.968)">
                    <path d="M0,-8.399L2.79,11.66C3.107,13.945 1.333,15.984 -0.974,15.984L-25.658,15.984L-25.658,-24.383C-25.355,-24.147 -25.014,-23.949 -24.633,-23.805L-18.994,-21.662L-6.9,-17.075C-3.194,-15.655 -0.539,-12.329 0,-8.399" style="fill:rgb(23,169,230);fill-rule:nonzero;"/>
                </g>
                <g transform="matrix(1,0,0,1,112.881,213.953)">
                    <path d="M0,-27.683L0,0L-24.16,0L-23.963,-27.354L-23.871,-27.354C-23.871,-27.354 -19.849,-23.661 -11.738,-23.661C-3.615,-23.661 0,-27.683 0,-27.683" style="fill:white;fill-rule:nonzero;"/>
                </g>
                <g transform="matrix(1,0,0,1,89.0101,213.952)">
                    <path d="M0,-41.353L-0.092,-27.354L-0.289,0L-26.414,0C-28.279,0 -29.714,-1.648 -29.457,-3.496L-26.552,-24.383C-26.013,-28.313 -23.357,-31.639 -19.638,-33.059L-6.414,-38.08L-1.919,-39.789C-1.104,-40.091 -0.446,-40.656 0,-41.353" style="fill:rgb(23,169,230);fill-rule:nonzero;"/>
                </g>
                <g opacity="0.56">
                    <g transform="matrix(1,0,0,1,66.9408,197.272)">
                        <path d="M0,-7.993L-3.392,16.39L21.78,16.39L21.78,16.68L-3.576,16.68C-5.848,16.68 -7.595,14.673 -7.281,12.424L-4.482,-7.703C-3.943,-11.634 -1.288,-14.959 2.432,-16.379L15.655,-21.4L20.15,-23.109C20.966,-23.411 21.623,-23.976 22.07,-24.673L22.057,-22.412L20.138,-21.689L6.914,-16.668C3.194,-15.249 0.539,-11.923 0,-7.993" style="fill:white;fill-rule:nonzero;"/>
                    </g>
                </g>
                <g transform="matrix(1,0,0,1,105.113,161.518)">
                    <path d="M0,-33.335C-2.037,-17.456 -19.428,-18.981 -19.428,-18.981C-19.533,-20.111 -20.466,-21.557 -21.833,-21.557C-22.767,-21.557 -23.318,-19.533 -23.095,-17.232C-22.871,-14.932 -22.109,-12.737 -22.004,-10.937C-21.898,-9.123 -19.257,-8.741 -19.257,-8.741C-19.336,-6.112 -17.627,-3.378 -15.484,-1.064L-15.484,8.978C-15.484,9.74 -15.708,10.463 -16.103,11.081C-16.549,11.778 -17.206,12.343 -18.021,12.645L-22.517,14.354C-22.517,14.354 -30.167,4.785 -30.167,-13.184C-30.167,-31.14 -20.703,-48.123 -3.97,-48.123C12.776,-48.123 22.241,-31.14 22.241,-13.184C22.241,4.785 14.591,14.354 14.591,14.354L14.433,14.788L8.794,12.645C8.413,12.5 8.071,12.303 7.769,12.067C6.835,11.331 6.257,10.2 6.257,8.978L6.257,0.079C8.662,-2.576 10.949,-6.033 11.344,-9.306C14.17,-9.017 13.881,-12.79 14.013,-14.972C14.131,-17.154 15.773,-20.729 14.67,-21.623C13.552,-22.53 12.408,-20.361 9.688,-20.466C0.775,-20.821 0.014,-33.335 0.014,-33.335L0,-33.335Z" style="fill:rgb(1,51,25);fill-rule:nonzero;"/>
                </g>
                <g transform="matrix(1,0,0,1,89.6283,134.913)">
                    <path d="M0,25.541C-2.143,23.228 -3.852,20.493 -3.772,17.864C-3.772,17.864 -6.414,17.483 -6.52,15.669C-6.625,13.868 -7.387,11.673 -7.61,9.373C-7.834,7.073 -7.282,5.048 -6.349,5.048C-4.981,5.048 -4.049,6.494 -3.943,7.624C-3.943,7.624 13.447,9.149 15.484,-6.73L15.498,-6.73C15.498,-6.73 16.26,5.785 25.172,6.139C27.893,6.245 29.036,4.076 30.154,4.982C31.258,5.876 29.615,9.452 29.497,11.634C29.365,13.816 29.654,17.588 26.828,17.299C26.434,20.572 24.146,24.029 21.741,26.685C19.822,28.788 17.812,30.378 16.602,30.957C13.868,32.271 11.909,32.126 11.909,32.126L11.712,32.126C11.146,32.126 9.346,32.034 6.979,30.957C5.442,30.26 2.432,28.183 0,25.541" style="fill:rgb(202,160,120);fill-rule:nonzero;"/>
                </g>
                <g transform="matrix(1,0,0,1,112.881,177.161)">
                    <path d="M0,-3.576L0,9.109C0,9.109 -3.615,13.131 -11.738,13.131C-19.849,13.131 -23.871,9.437 -23.871,9.437L-23.963,9.437L-23.871,-4.562C-23.477,-5.18 -23.253,-5.903 -23.253,-6.665L-23.253,-16.707C-20.821,-14.065 -17.811,-11.989 -16.273,-11.292C-13.907,-10.214 -12.106,-10.122 -11.541,-10.122L-11.344,-10.122C-11.344,-10.122 -9.385,-9.977 -6.651,-11.292C-5.441,-11.87 -3.431,-13.461 -1.512,-15.564L-1.512,-6.665C-1.512,-5.443 -0.934,-4.312 0,-3.576" style="fill:rgb(202,160,120);fill-rule:nonzero;"/>
                </g>
                <g opacity="0.21">
                    <g transform="matrix(1,0,0,1,111.368,185.555)">
                        <path d="M0,-23.958L0,-18.914C-1.857,-16.896 -3.795,-15.374 -4.98,-14.813C-7.703,-13.5 -9.673,-13.645 -9.673,-13.645L-9.864,-13.645C-10.426,-13.645 -12.235,-13.741 -14.589,-14.813C-16.127,-15.518 -19.138,-17.584 -21.571,-20.227L-21.571,-10.186C-21.571,-9.433 -21.796,-8.712 -22.196,-8.087L-22.244,1.137C-22.324,1.073 -22.356,1.041 -22.356,1.041L-22.452,1.041L-22.356,-12.956C-21.956,-13.581 -21.732,-14.301 -21.732,-15.054L-21.732,-25.095C-19.313,-22.453 -16.303,-20.387 -14.766,-19.682C-12.396,-18.609 -10.586,-18.513 -10.025,-18.513L-9.833,-18.513C-9.833,-18.513 -7.879,-18.369 -5.141,-19.682C-3.923,-20.259 -1.922,-21.86 0,-23.958" style="fill-rule:nonzero;"/>
                    </g>
                </g>
                <g transform="matrix(1,0,0,1,111.37,212.808)">
                    <path d="M0,-51.211L0,-42.312C0,-41.09 0.578,-39.96 1.512,-39.223C1.814,-38.987 2.156,-38.79 2.537,-38.645L8.176,-36.503L20.27,-31.915C23.976,-30.495 26.631,-27.169 27.17,-23.239L30.056,-2.491C30.323,-0.57 28.831,1.144 26.892,1.144L-52.303,1.144L-48.911,-23.239C-48.372,-27.169 -45.717,-30.495 -41.997,-31.915L-28.773,-36.936L-24.278,-38.645C-23.463,-38.947 -22.806,-39.512 -22.359,-40.209C-21.965,-40.827 -21.741,-41.55 -21.741,-42.312L-21.741,-52.355" style="fill:none;fill-rule:nonzero;stroke:rgb(1,51,25);stroke-width:2.01px;"/>
                </g>
                <g transform="matrix(1,0,0,1,85.8559,127.119)">
                    <path d="M0,25.658C0,25.658 -2.642,25.277 -2.747,23.463C-2.853,21.662 -3.614,19.467 -3.838,17.167C-4.062,14.866 -3.51,12.842 -2.576,12.842C-1.209,12.842 -0.276,14.288 -0.171,15.418C-0.171,15.418 17.22,16.943 19.257,1.064C19.31,0.723 19.349,0.368 19.375,0" style="fill:none;fill-rule:nonzero;stroke:rgb(1,51,25);stroke-width:2.01px;"/>
                </g>
                <g transform="matrix(1,0,0,1,116.456,167.184)">
                    <path d="M0,-14.972C-0.395,-11.699 -2.682,-8.242 -5.087,-5.587C-7.006,-3.484 -9.017,-1.893 -10.227,-1.315C-12.96,0 -14.919,-0.145 -14.919,-0.145L-15.116,-0.145C-15.682,-0.145 -17.482,-0.237 -19.849,-1.315C-21.386,-2.012 -24.396,-4.088 -26.828,-6.73C-28.971,-9.044 -30.68,-11.778 -30.601,-14.407" style="fill:none;fill-rule:nonzero;stroke:rgb(1,51,25);stroke-width:2.01px;"/>
                </g>
                <g transform="matrix(-0.624279,0.781202,0.781202,0.624279,127.424,141.777)">
                    <path d="M3.301,-25.905C3.301,-25.905 12.601,-17.498 7.315,-10.314C5.698,-8.123 3.29,-8.584 3.301,-7.145C3.31,-5.724 7.128,-4.776 8.907,-3.506C10.694,-2.247 13.461,0.334 14.999,-2.054" style="fill:none;fill-rule:nonzero;stroke:rgb(1,51,25);stroke-width:2.01px;"/>
                </g>
                <g transform="matrix(1,0,0,1,82.5961,113.395)">
                    <path d="M0,62.477C0,62.477 -7.65,52.908 -7.65,34.939C-7.65,16.983 1.813,0 18.547,0" style="fill:none;fill-rule:nonzero;stroke:rgb(1,51,25);stroke-width:2.01px;"/>
                </g>
                <g transform="matrix(1,0,0,1,119.704,113.395)">
                    <path d="M0,62.477C0,62.477 7.65,52.908 7.65,34.939C7.65,16.983 -1.814,0 -18.561,0" style="fill:none;fill-rule:nonzero;stroke:rgb(1,51,25);stroke-width:2.01px;"/>
                </g>
                <g transform="matrix(1,0,0,1,89.0101,213.952)">
                    <path d="M0,-41.353L-0.092,-27.354L-0.289,0" style="fill:none;fill-rule:nonzero;stroke:rgb(1,51,25);stroke-width:2.01px;"/>
                </g>
                <g transform="matrix(1,0,0,1,112.881,173.585)">
                    <path d="M0,40.367L0,0" style="fill:none;fill-rule:nonzero;stroke:rgb(1,51,25);stroke-width:2.01px;"/>
                </g>
                <g transform="matrix(1,0,0,1,89.0101,189.962)">
                    <path d="M0,-3.364C0,-3.364 4.022,0.329 12.133,0.329C20.256,0.329 23.871,-3.693 23.871,-3.693" style="fill:none;fill-rule:nonzero;stroke:rgb(1,51,25);stroke-width:2.01px;"/>
                </g>
                <g transform="matrix(1,0,0,1,51.223,214.567)">
                    <path d="M0,0L206.653,0" style="fill:none;fill-rule:nonzero;stroke:rgb(1,51,25);stroke-width:2.01px;"/>
                </g>
                <g transform="matrix(1,0,0,1,149.323,164.659)">
                    <path d="M0,-21.331L0,-15.275L12.882,0L25.521,-15.275L25.421,-21.331C25.421,-21.331 21.063,-15.465 12.76,-15.58C4.456,-15.694 0,-21.331 0,-21.331" style="fill:rgb(255,190,157);fill-rule:nonzero;"/>
                </g>
                <g transform="matrix(1,0,0,1,162.37,214.406)">
                    <path d="M0,-49.033L-5.131,-43.459L-2.23,-37.145L-7.492,0.343L10.34,0.001L10.34,-49.376" style="fill:white;fill-rule:nonzero;"/>
                </g>
                <g transform="matrix(1,0,0,1,187.121,130.051)">
                    <path d="M0,-8.833C0.19,-7.86 -1.83,-0.319 -3.342,0.67C-3.484,0.766 -3.644,0.861 -3.787,0.941C-2.212,-0.893 -0.573,-5.676 -0.35,-8.1C-0.286,-8.753 -0.382,-9.312 -0.573,-9.774C-0.271,-9.423 -0.048,-9.072 0,-8.833" style="fill:white;fill-rule:nonzero;"/>
                </g>
                <g transform="matrix(1,0,0,1,184.082,118.332)">
                    <path d="M0,-0.415C0.111,-0.335 0.286,-0.192 0.493,0C0.19,-0.128 0,-0.192 0,-0.192L0,-0.415Z" style="fill:white;fill-rule:nonzero;"/>
                </g>
                <g transform="matrix(1,0,0,1,183.637,110.95)">
                    <path d="M0,3.253C-0.716,2.838 -2.053,1.802 -2.275,0C-1.592,1.356 -0.398,2.711 0,3.253" style="fill:rgb(52,120,247);fill-rule:nonzero;"/>
                </g>
                <g transform="matrix(1,0,0,1,216.367,194.484)">
                    <path d="M0,-19.612C0.111,-19.245 0.175,-18.879 0.254,-18.512L1.178,19.499L-11.425,20.01L-46.668,20.01L-51.998,-17.508L-48.911,-24.029L-43.613,-18.926L-36.119,-39.112L-36.373,-39.447L-36.119,-39.622L-18.346,-33.006L-8.975,-29.529C-5.569,-28.238 -2.801,-25.767 -1.178,-22.61C-0.669,-21.669 -0.271,-20.664 0,-19.612" style="fill:rgb(0,204,102);fill-rule:nonzero;"/>
                </g>
                <g transform="matrix(1,0,0,1,175.331,175.509)">
                    <path d="M0,-25.655C0.445,-25.639 0.891,-25.416 1.177,-25.033L4.662,-20.473L4.916,-20.138L-2.578,0.048L-7.876,-5.054L-13.127,-10.125L-1.368,-25.033C-1.034,-25.48 -0.51,-25.703 0,-25.655" style="fill:white;fill-rule:nonzero;"/>
                </g>
                <g transform="matrix(1,0,0,1,171.719,142.903)">
                    <path d="M0,3.651C1.305,2.535 2.403,1.291 3.342,0C2.578,1.402 1.909,2.455 1.48,2.726C1.146,2.933 0.637,3.268 0,3.651" style="fill-rule:nonzero;"/>
                </g>
                <g transform="matrix(1,0,0,1,174.027,105.61)">
                    <path d="M0,-1.532C-1.782,-1.436 -2.88,-0.735 -3.962,0.111C-2.832,-0.91 -1.83,-1.643 0,-1.532" style="fill:rgb(52,120,247);fill-rule:nonzero;"/>
                </g>
                <g transform="matrix(1,0,0,1,162.411,150.429)">
                    <path d="M0,0.382C0.668,0.286 1.32,0.159 1.941,0C1.32,0.223 0.748,0.366 0.286,0.382L0,0.382Z" style="fill-rule:nonzero;"/>
                </g>
                <g transform="matrix(1,0,0,1,157.463,107.745)">
                    <path d="M0,-0.175C1.113,0.287 2.147,0.654 3.118,0.909C0.7,0.654 -0.732,-0.191 -1.926,-1.084C-1.385,-0.797 -0.748,-0.494 0,-0.175" style="fill:rgb(52,120,247);fill-rule:nonzero;"/>
                </g>
                <g transform="matrix(1,0,0,1,149.937,150.795)">
                    <path d="M0,-7.127C2.689,-3.747 6.54,-0.797 11.997,0C9.038,-0.175 3.596,-1.993 0.08,-7.015C0.048,-7.047 0.032,-7.095 0,-7.127" style="fill-rule:nonzero;"/>
                </g>
                <g opacity="0.21">
                    <g transform="matrix(1,0,0,1,175.331,153.299)">
                        <path d="M0,-10.683L0,-7.032L-0.032,-7.063C-2.769,-3.189 -6.953,0.367 -13.127,1.196C-19.316,0.367 -23.469,-3.189 -26.206,-7.063L-26.254,-7.032L-26.254,-10.683L-26.206,-10.715C-25.951,-10.348 -25.681,-9.981 -25.395,-9.631C-25.362,-9.599 -25.347,-9.551 -25.314,-9.519C-21.799,-4.497 -16.356,-2.679 -13.397,-2.503C-13.317,-2.488 -13.223,-2.472 -13.127,-2.456C-13.063,-2.472 -13,-2.472 -12.936,-2.488L-12.634,-2.488C-12.172,-2.503 -11.6,-2.647 -10.979,-2.87C-10.932,-2.886 -10.867,-2.902 -10.819,-2.918C-7.939,-3.667 -5.569,-5.055 -3.612,-6.745C-2.976,-7.127 -2.467,-7.462 -2.132,-7.669C-1.703,-7.94 -1.034,-8.993 -0.271,-10.396C-0.191,-10.508 -0.111,-10.603 -0.032,-10.715L0,-10.683Z" style="fill-rule:nonzero;"/>
                    </g>
                </g>
                <g transform="matrix(1,0,0,1,150.462,174.888)">
                    <path d="M0,-24.411L11.742,-9.503L6.491,-4.432L1.177,0.67L-6.285,-19.516L-6.047,-19.851L-2.562,-24.411C-2.26,-24.794 -1.83,-25.017 -1.385,-25.033C-0.875,-25.081 -0.351,-24.873 0,-24.411" style="fill:white;fill-rule:nonzero;"/>
                </g>
                <g transform="matrix(1,0,0,1,147.853,105.289)">
                    <path d="M0,-0.845C-0.573,-0.637 -1.114,-0.35 -1.623,0C-1.146,-0.383 -0.604,-0.685 0,-0.845" style="fill:rgb(52,120,247);fill-rule:nonzero;"/>
                </g>
                <g transform="matrix(1,0,0,1,154.71,154.862)">
                    <path d="M0,59.632L-47.319,59.632L-46.922,21.11C-45.999,16.071 -42.499,11.894 -37.678,10.092L-10.533,0L-10.295,0.175L-10.533,0.51L-3.071,20.695L2.243,15.593L5.314,22.114L0,59.632Z" style="fill:rgb(0,204,102);fill-rule:nonzero;"/>
                </g>
                <g transform="matrix(1,0,0,1,181.329,92.4855)">
                    <path d="M0,17.954C0,15.1 -3.262,11.577 -6.825,11.577C-6.984,11.577 -7.128,11.577 -7.271,11.592L-7.303,11.592C-9.133,11.481 -10.135,12.214 -11.265,13.235C-11.28,13.25 -11.313,13.267 -11.345,13.298C-13.063,14.622 -14.749,16.248 -19.125,16.248C-19.714,16.248 -20.255,16.216 -20.748,16.168C-21.719,15.913 -22.753,15.547 -23.866,15.084C-24.614,14.765 -25.251,14.462 -25.792,14.175C-25.808,14.16 -25.823,14.143 -25.84,14.143C-27.479,12.9 -28.672,11.577 -31.424,11.577C-32.029,11.577 -32.617,11.672 -33.19,11.879C-33.286,11.895 -33.382,11.927 -33.477,11.959C-34.081,12.119 -34.622,12.421 -35.1,12.804C-35.115,12.82 -35.132,12.836 -35.147,12.836C-36.978,14.127 -38.234,16.168 -38.234,17.954C-38.234,19.533 -39.077,20.585 -39.825,21.223C-39.841,21.223 -39.857,21.239 -39.873,21.255C-40.478,21.605 -41.003,21.717 -41.003,21.717L-41.003,12.198C-41.003,1.26 -29.896,-4.002 -19.125,-3.332C-8.369,-4.002 2.753,1.26 2.753,12.198L2.753,21.956C2.753,21.956 2.578,21.892 2.323,21.733C2.323,21.733 2.308,21.733 2.308,21.717C1.909,21.175 0.716,19.82 0.032,18.464C0.017,18.305 0,18.13 0,17.954" style="fill:rgb(1,51,25);fill-rule:nonzero;"/>
                </g>
                <g transform="matrix(1,0,0,1,180.247,123.115)">
                    <path d="M0,8.658C0,8.658 -0.159,9.025 -0.413,9.631C-1.305,11.703 -3.469,16.646 -5.187,19.787C-6.125,21.079 -7.224,22.323 -8.528,23.439C-10.453,24.65 -13.461,26.436 -15.735,27.265C-15.783,27.281 -15.848,27.297 -15.895,27.313C-16.516,27.472 -17.168,27.6 -17.836,27.696L-17.852,27.696C-17.995,27.696 -18.154,27.696 -18.313,27.68C-23.771,26.883 -27.621,23.933 -30.311,20.553C-33.779,15.514 -35.721,9.056 -36.038,7.989C-36.055,7.877 -36.07,7.829 -36.07,7.829C-36.07,7.829 -36.818,9.104 -38.075,8.626L-38.106,8.626C-38.823,8.339 -39.682,7.175 -40.366,5.963C-40.51,5.708 -40.637,5.421 -40.78,5.134C-40.971,4.688 -41.162,4.209 -41.353,3.731C-41.369,3.652 -41.416,3.556 -41.433,3.46C-41.544,2.982 -41.798,2.312 -42.053,1.578C-42.116,1.324 -42.196,1.053 -42.275,0.797C-42.403,0.223 -42.515,-0.335 -42.563,-0.797C-42.609,-1.435 -42.546,-2.057 -42.292,-2.631C-41.56,-4.257 -40.844,-4.082 -40.318,-4.831C-40.08,-4.927 -39.921,-4.975 -39.921,-4.975L-39.921,-5.772C-39.57,-7 -39.762,-8.211 -39.873,-8.69C-39.746,-8.754 -39.3,-8.977 -38.791,-9.375C-38.775,-9.391 -38.759,-9.407 -38.743,-9.407C-38.123,-9.79 -37.454,-10.427 -37.248,-11.464C-36.93,-12.979 -36.038,-16.136 -34.065,-17.794C-34.05,-17.794 -34.033,-17.81 -34.018,-17.826C-33.509,-18.176 -32.968,-18.464 -32.395,-18.671C-32.3,-18.703 -32.204,-18.735 -32.108,-18.751C-31.886,-18.799 -31.647,-18.815 -31.408,-18.83C-28.21,-18.942 -27.398,-17.874 -24.758,-16.487C-24.741,-16.487 -24.726,-16.47 -24.71,-16.455C-23.517,-15.562 -22.084,-14.717 -19.666,-14.462C-16.85,-13.696 -14.606,-13.904 -12.569,-15.355C-11.615,-16.04 -10.915,-16.726 -10.263,-17.332C-10.23,-17.363 -10.198,-17.38 -10.183,-17.395C-9.101,-18.24 -8.003,-18.942 -6.221,-19.038L-6.189,-19.038C-6.078,-19.038 -5.95,-19.038 -5.823,-19.022C-2.546,-18.655 0.621,-15.593 0.621,-13.856C0.621,-13.329 0.828,-12.756 1.114,-12.166C1.337,-10.364 2.674,-9.327 3.39,-8.913C3.39,-8.897 3.405,-8.897 3.405,-8.897C3.962,-8.084 3.708,-5.309 3.708,-5.309C3.708,-5.309 3.756,-5.278 3.835,-5.198L3.835,-4.975C3.835,-4.975 4.025,-4.911 4.328,-4.783C4.901,-4.289 5.729,-3.524 6.285,-2.854L6.301,-2.838C6.492,-2.376 6.588,-1.818 6.524,-1.164C6.301,1.26 4.662,6.043 3.087,7.877C2.578,8.196 2.037,8.467 1.575,8.658L1.56,8.658C0.717,8.993 0.064,9.089 0,8.658" style="fill:rgb(255,190,157);fill-rule:nonzero;"/>
                </g>
                <g transform="matrix(1,0,0,1,141.456,114.426)">
                    <path d="M0,-0.686C-0.509,-0.288 -0.955,-0.064 -1.082,0C-1.114,-0.144 -1.13,-0.224 -1.13,-0.224C-1.13,-0.224 -0.604,-0.335 0,-0.686" style="fill:rgb(52,120,247);fill-rule:nonzero;"/>
                </g>
                <g transform="matrix(1,0,0,1,149.077,142.615)">
                    <path d="M0,7.239L0,0" style="fill:none;fill-rule:nonzero;stroke:rgb(1,51,25);stroke-width:2.01px;"/>
                </g>
                <g transform="matrix(1,0,0,1,121.44,214.494)">
                    <path d="M0,-30.167L0,0" style="fill:none;fill-rule:nonzero;stroke:rgb(1,51,25);stroke-width:2.01px;"/>
                </g>
                <g transform="matrix(1,0,0,1,156.953,176.976)">
                    <path d="M0,-6.521L3.071,0L5.251,0" style="fill:none;fill-rule:nonzero;stroke:rgb(1,51,25);stroke-width:2.01px;"/>
                </g>
                <g transform="matrix(1,0,0,1,160.025,214.494)">
                    <path d="M0,-37.518L-5.314,0L-3.39,-13.92" style="fill:none;fill-rule:nonzero;stroke:rgb(1,51,25);stroke-width:2.01px;"/>
                </g>
                <g transform="matrix(1,0,0,1,175.331,175.509)">
                    <path d="M0,-25.655C0.445,-25.639 0.891,-25.416 1.177,-25.033L4.662,-20.473L4.916,-20.138L-2.578,0.048L-7.876,-5.054L-13.127,-10.125L-1.368,-25.033C-1.034,-25.48 -0.51,-25.703 0,-25.655Z" style="fill:none;fill-rule:nonzero;stroke:rgb(1,51,25);stroke-width:2.01px;"/>
                </g>
                <g transform="matrix(1,0,0,1,175.331,142.615)">
                    <path d="M0,7.239L0,0" style="fill:none;fill-rule:nonzero;stroke:rgb(1,51,25);stroke-width:2.01px;"/>
                </g>
                <g transform="matrix(1,0,0,1,180.247,150.843)">
                    <path d="M0,-19.899C0,-19.899 -0.111,-19.213 -0.413,-18.097C-1.018,-15.881 -2.354,-11.927 -4.948,-8.259C-5.027,-8.148 -5.107,-8.052 -5.187,-7.941C-6.125,-6.649 -7.224,-5.405 -8.528,-4.289C-10.485,-2.599 -12.855,-1.212 -15.735,-0.462C-15.783,-0.447 -15.848,-0.431 -15.895,-0.415C-16.516,-0.255 -17.168,-0.128 -17.836,-0.032L-17.852,-0.032C-17.916,-0.016 -17.979,-0.016 -18.043,0C-18.139,-0.016 -18.233,-0.032 -18.313,-0.048C-23.771,-0.845 -27.621,-3.795 -30.311,-7.175C-30.597,-7.526 -30.867,-7.893 -31.122,-8.259C-34.654,-13.234 -35.848,-18.751 -36.038,-19.739C-36.055,-19.851 -36.07,-19.899 -36.07,-19.899" style="fill:none;fill-rule:nonzero;stroke:rgb(1,51,25);stroke-width:2.01px;"/>
                </g>
                <g transform="matrix(1,0,0,1,179.913,90.5733)">
                    <path d="M0,39.207C0,39.207 0.128,39.749 0.478,40.259C0.764,40.69 1.226,41.136 1.894,41.2L1.909,41.2C2.037,41.2 2.18,41.184 2.339,41.168C2.689,41.121 3.039,40.85 3.421,40.419C4.996,38.585 6.635,33.802 6.858,31.378C6.922,30.725 6.826,30.166 6.635,29.704L6.619,29.688C6.174,28.62 5.235,28.03 4.662,27.759C4.359,27.631 4.169,27.567 4.169,27.567L4.169,14.11C4.169,3.172 -6.953,-2.089 -17.709,-1.419C-28.48,-2.089 -39.587,3.172 -39.587,14.11L-39.587,27.567C-39.587,27.567 -39.746,27.615 -39.984,27.711C-40.78,28.078 -42.482,29.098 -42.275,31.378C-42.26,31.49 -42.26,31.618 -42.229,31.745C-42.181,32.207 -42.069,32.766 -41.941,33.339C-41.862,33.595 -41.782,33.866 -41.719,34.121C-41.544,34.743 -41.337,35.38 -41.099,36.002C-41.082,36.098 -41.035,36.194 -41.019,36.273C-40.828,36.751 -40.637,37.23 -40.446,37.676C-40.303,37.963 -40.176,38.25 -40.032,38.505C-39.301,39.973 -38.489,41.073 -37.772,41.168L-37.741,41.168C-36.818,41.296 -36.229,40.786 -35.88,40.259C-35.529,39.749 -35.402,39.207 -35.402,39.207" style="fill:none;fill-rule:nonzero;stroke:rgb(1,51,25);stroke-width:2.01px;"/>
                </g>
                <g transform="matrix(1,0,0,1,167.456,176.976)">
                    <path d="M0,-6.521L-3.087,0L-5.251,0" style="fill:none;fill-rule:nonzero;stroke:rgb(1,51,25);stroke-width:2.01px;"/>
                </g>
                <g transform="matrix(1,0,0,1,164.369,214.494)">
                    <path d="M0,-37.518L5.33,0L3.405,-13.92" style="fill:none;fill-rule:nonzero;stroke:rgb(1,51,25);stroke-width:2.01px;"/>
                </g>
                <g transform="matrix(1,0,0,1,184.082,104.062)">
                    <path d="M0,10.38C0,10.38 -0.175,10.316 -0.43,10.156C-0.43,10.156 -0.445,10.156 -0.445,10.141C-1.161,9.726 -2.498,8.69 -2.721,6.888C-2.736,6.729 -2.753,6.553 -2.753,6.378C-2.753,3.524 -6.015,0 -9.578,0C-9.737,0 -9.881,0 -10.024,0.016L-10.056,0.016C-11.838,0.111 -12.936,0.813 -14.018,1.658C-14.033,1.674 -14.065,1.69 -14.098,1.722C-15.815,3.046 -17.502,4.672 -21.878,4.672C-22.467,4.672 -23.008,4.64 -23.501,4.592C-25.919,4.337 -27.352,3.492 -28.545,2.599C-28.561,2.583 -28.576,2.567 -28.593,2.567C-30.231,1.323 -31.425,0 -34.177,0C-34.782,0 -35.37,0.096 -35.943,0.303C-36.039,0.319 -36.135,0.351 -36.229,0.382C-36.803,0.59 -37.344,0.877 -37.853,1.228C-37.868,1.244 -37.885,1.259 -37.9,1.259C-39.73,2.551 -40.987,4.592 -40.987,6.378C-40.987,7.956 -41.83,9.008 -42.578,9.647C-42.594,9.647 -42.61,9.662 -42.626,9.678C-43.135,10.077 -43.581,10.3 -43.708,10.364C-43.74,10.38 -43.756,10.38 -43.756,10.38" style="fill:none;fill-rule:nonzero;stroke:rgb(1,51,25);stroke-width:2.01px;"/>
                </g>
                <g transform="matrix(-1,0,0,1,379.319,128.064)">
                    <rect x="179.554" y="66.726" width="20.211" height="5.062" style="fill:white;"/>
                </g>
                <g transform="matrix(1,0,0,1,143.892,213.533)">
                    <path d="M0,-55.576C0,-55.576 -23.283,-45.346 -27.021,-38.779C-30.761,-32.211 -29.71,-18.022 -29.973,-11.453C-30.235,-4.884 -30.546,1.774 -30.546,1.774L-37.444,1.765L-36.458,-35.752C-36.458,-35.752 -34.627,-44.801 -29.956,-46.756C-25.286,-48.71 -3.457,-56.826 -3.457,-56.826L-1.036,-57.35L-0.1,-55.845L0,-55.576Z" style="fill:rgb(0,204,102);fill-rule:nonzero;"/>
                </g>
                <g transform="matrix(1,0,0,1,144.177,214.502)">
                    <path d="M0,-59.641L-27.145,-49.548C-31.966,-47.746 -35.466,-43.569 -36.389,-38.531L-36.771,-14.678L-36.786,-0.009L60.765,-0.009L73.923,0L73.111,-14.669L72.443,-38.531C72.364,-38.897 72.301,-39.264 72.189,-39.631C71.919,-40.683 71.521,-41.687 71.012,-42.628C69.389,-45.786 66.62,-48.257 63.215,-49.548L53.844,-53.024L36.07,-59.641" style="fill:none;fill-rule:nonzero;stroke:rgb(1,51,25);stroke-width:2.01px;"/>
                </g>
                <g transform="matrix(1,0,0,1,149.077,175.509)">
                    <path d="M0,-25.655C-0.445,-25.639 -0.875,-25.416 -1.177,-25.033L-4.662,-20.473L-4.9,-20.138L2.562,0.048L7.876,-5.054L13.127,-10.125L1.385,-25.033C1.034,-25.495 0.51,-25.703 0,-25.655Z" style="fill:none;fill-rule:nonzero;stroke:rgb(1,51,25);stroke-width:2.01px;"/>
                </g>
                <g opacity="0.15">
                    <g transform="matrix(0,-1,-1,0,218.043,118.262)">
                        <path d="M-37.515,-37.515C-58.234,-37.515 -75.03,-20.719 -75.03,0.001C-75.03,20.719 -58.234,37.515 -37.515,37.515C-16.796,37.515 0,20.719 0,0.001C0,-20.719 -16.796,-37.515 -37.515,-37.515" style="fill:rgb(1,51,25);fill-rule:nonzero;"/>
                    </g>
                </g>
                <g transform="matrix(0,-1,-1,0,223.043,115.262)">
                    <path d="M-37.515,-37.515C-58.234,-37.515 -75.03,-20.719 -75.03,0.001C-75.03,20.719 -58.234,37.515 -37.515,37.515C-16.796,37.515 0,20.719 0,0.001C0,-20.719 -16.796,-37.515 -37.515,-37.515" style="fill:white;fill-rule:nonzero;"/>
                </g>
                <g transform="matrix(0,-1,-1,0,223.043,120.734)">
                    <path d="M-32.042,-32.042C-49.74,-32.042 -64.084,-17.696 -64.084,0.001C-64.084,17.697 -49.74,32.042 -32.042,32.042C-14.345,32.042 -0,17.697 -0,0.001C-0,-17.696 -14.345,-32.042 -32.042,-32.042" style="fill:rgb(212,216,219);fill-rule:nonzero;"/>
                </g>
                <g transform="matrix(0,-1,-1,0,223.043,115.262)">
                    <circle cx="-37.515" cy="0" r="37.515" style="fill:none;stroke:rgb(1,51,25);stroke-width:2.01px;"/>
                </g>
                <g transform="matrix(1.00428,0,0,1.00428,-0.0259339,-1.20453)">
                    <text x="198.129px" y="158.502px" style="font-family:'Montserrat-ExtraBold', 'Montserrat';font-weight:800;font-size:17.941px;fill:rgb(1,51,25);">2<tspan x="208.373px 215.136px 219.711px 229.919px " y="158.502px 158.502px 158.502px 158.502px ">1.5%</tspan></text>
                </g>
            </g>
        </g>
    </g>
</svg>
