<?xml version="1.0" encoding="UTF-8" standalone="no"?>
<!DOCTYPE svg PUBLIC "-//W3C//DTD SVG 1.1//EN" "http://www.w3.org/Graphics/SVG/1.1/DTD/svg11.dtd">
<svg width="100%" height="100%" viewBox="0 0 216 158" version="1.1" xmlns="http://www.w3.org/2000/svg" xmlns:xlink="http://www.w3.org/1999/xlink" xml:space="preserve" xmlns:serif="http://www.serif.com/" style="fill-rule:evenodd;clip-rule:evenodd;stroke-linecap:round;stroke-miterlimit:10;">
    <g transform="matrix(0.995738,0,0,0.995738,-45.1107,-56.2322)">
        <g id="Layer-1" serif:id="Layer 1">
            <g>
                <g transform="matrix(1,0,0,1,252.637,49.2076)">
                    <path d="M0,165.353C0,165.353 -8.443,133.979 2.472,118.964C13.386,103.95 11.879,77.01 -20.241,67.437C-52.362,57.866 -40.064,29.106 -64.534,14.554C-89.004,0 -119.115,7.069 -133.945,37.318C-148.775,67.568 -183.414,44.565 -198.151,67.437C-210.625,86.798 -182.963,96.447 -187.958,111.373C-192.953,126.299 -205.631,150.476 -196.051,165.353L0,165.353Z" style="fill:rgb(212,216,219);fill-rule:nonzero;"/>
                </g>
                <g transform="matrix(-1,0.000744546,0.000744546,1,128.747,81.3674)">
                    <path d="M0.477,-13.431C0.477,-13.431 -0.061,-7.829 6.806,-6.51C6.806,-6.51 0.584,-6.023 0.477,-0C0.477,-0 0.423,-5.3 -6.324,-6.711C-6.324,-6.711 -0.18,-7.227 0.477,-13.431" style="fill:rgb(0,204,102);fill-rule:nonzero;"/>
                </g>
                <g transform="matrix(-1,0.000744546,0.000744546,1,161.382,132.35)">
                    <path d="M0.477,-13.431C0.477,-13.431 -0.061,-7.83 6.806,-6.51C6.806,-6.51 0.584,-6.023 0.477,-0C0.477,-0 0.423,-5.3 -6.324,-6.711C-6.324,-6.711 -0.18,-7.227 0.477,-13.431" style="fill:rgb(23,169,230);fill-rule:nonzero;"/>
                </g>
                <g transform="matrix(-1,0.000734035,0.000734035,1,76.0064,148.938)">
                    <path d="M0.29,-8.174C0.29,-8.174 -0.037,-4.765 4.142,-3.962C4.142,-3.962 0.355,-3.665 0.29,-0C0.29,-0 0.258,-3.226 -3.849,-4.084C-3.849,-4.084 -0.11,-4.399 0.29,-8.174" style="fill:white;fill-rule:nonzero;"/>
                </g>
                <g transform="matrix(-1,0.000734035,0.000734035,1,225.433,174.34)">
                    <path d="M0.29,-8.174C0.29,-8.174 -0.036,-4.765 4.142,-3.962C4.142,-3.962 0.355,-3.665 0.29,-0C0.29,-0 0.258,-3.225 -3.849,-4.084C-3.849,-4.084 -0.11,-4.399 0.29,-8.174" style="fill:white;fill-rule:nonzero;"/>
                </g>
                <g transform="matrix(-1,0.00077386,0.00077386,1,221.501,148.399)">
                    <path d="M0.412,-11.63C0.412,-11.63 -0.054,-6.78 5.894,-5.636C5.894,-5.636 0.504,-5.215 0.412,-0C0.412,-0 0.366,-4.589 -5.477,-5.811C-5.477,-5.811 -0.156,-6.258 0.412,-11.63" style="fill:rgb(175,179,177);fill-rule:nonzero;"/>
                </g>
                <g transform="matrix(-1,0.000795635,0.000795635,1,87.7574,164.852)">
                    <path d="M0.312,-8.798C0.312,-8.798 -0.04,-5.129 4.459,-4.264C4.459,-4.264 0.381,-3.945 0.312,-0C0.312,-0 0.277,-3.472 -4.143,-4.396C-4.143,-4.396 -0.119,-4.734 0.312,-8.798" style="fill:rgb(175,179,177);fill-rule:nonzero;"/>
                </g>
                <g transform="matrix(1,0,0,1,51.2231,214.567)">
                    <path d="M0,0L206.653,0" style="fill:none;fill-rule:nonzero;stroke:rgb(1,51,25);stroke-width:2.01px;"/>
                </g>
                <g transform="matrix(-1,0,0,1,238,139.457)">
                    <rect x="111.085" y="51.986" width="15.83" height="23.149" style="fill:white;"/>
                </g>
                <g transform="matrix(-1,0,0,1,287.137,120.904)">
                    <rect x="135.654" y="51.986" width="15.829" height="41.702" style="fill:rgb(0,204,102);"/>
                </g>
                <g transform="matrix(-1,0,0,1,336.272,105.018)">
                    <rect x="160.221" y="51.986" width="15.83" height="57.588" style="fill:rgb(23,169,230);"/>
                </g>
                <g transform="matrix(-1,0,0,1,385.41,85.925)">
                    <rect x="184.79" y="51.986" width="15.83" height="76.681" style="fill:rgb(0,204,102);"/>
                </g>
                <g transform="matrix(-1,0,0,1,238,139.457)">
                    <rect x="111.085" y="51.986" width="15.83" height="23.149" style="fill:none;stroke:rgb(1,51,25);stroke-width:2.01px;"/>
                </g>
                <g transform="matrix(-1,0,0,1,287.137,120.904)">
                    <rect x="135.654" y="51.986" width="15.829" height="41.702" style="fill:none;stroke:rgb(1,51,25);stroke-width:2.01px;"/>
                </g>
                <g transform="matrix(-1,0,0,1,336.272,105.018)">
                    <rect x="160.221" y="51.986" width="15.83" height="57.588" style="fill:none;stroke:rgb(1,51,25);stroke-width:2.01px;"/>
                </g>
                <g transform="matrix(-1,0,0,1,385.41,85.925)">
                    <rect x="184.79" y="51.986" width="15.83" height="76.681" style="fill:none;stroke:rgb(1,51,25);stroke-width:2.01px;"/>
                </g>
                <g transform="matrix(1,0,0,1,87.5961,104.465)">
                    <path d="M0,84.085L23.489,61.957L34.872,73.34L121.872,0" style="fill:none;fill-rule:nonzero;stroke:rgb(1,51,25);stroke-width:2.01px;"/>
                </g>
                <g transform="matrix(1,0,0,1,196.958,116.72)">
                    <path d="M0,-13.702L13.702,-13.276L13.106,0" style="fill:none;fill-rule:nonzero;stroke:rgb(1,51,25);stroke-width:2.01px;"/>
                </g>
                <g transform="matrix(0,-1,-1,0,119,90.8477)">
                    <path d="M-29.957,-29.958C-46.502,-29.958 -59.915,-16.546 -59.915,-0.001C-59.915,16.544 -46.502,29.957 -29.957,29.957C-13.412,29.957 0,16.544 0,-0.001C0,-16.546 -13.412,-29.958 -29.957,-29.958" style="fill:white;fill-rule:nonzero;"/>
                </g>
                <g transform="matrix(0,-1,-1,0,119,96.2362)">
                    <path d="M-24.569,-24.569C-38.138,-24.569 -49.137,-13.569 -49.137,-0.001C-49.137,13.569 -38.138,24.569 -24.569,24.569C-11.001,24.569 -0.001,13.569 -0.001,-0.001C-0.001,-13.569 -11.001,-24.569 -24.569,-24.569" style="fill:rgb(23,169,230);fill-rule:nonzero;"/>
                </g>
                <g transform="matrix(0,-1,-1,0,119,90.8477)">
                    <circle cx="-29.958" cy="-0" r="29.958" style="fill:none;stroke:rgb(1,51,25);stroke-width:2.01px;"/>
                </g>
                <g transform="matrix(0,-1,-1,0,87.5965,183.358)">
                    <path d="M-5.192,-5.191C-8.059,-5.191 -10.383,-2.867 -10.383,-0C-10.383,2.868 -8.059,5.192 -5.192,5.192C-2.325,5.192 -0,2.868 -0,-0C-0,-2.867 -2.325,-5.191 -5.192,-5.191" style="fill:rgb(1,51,25);fill-rule:nonzero;"/>
                </g>
                <g transform="matrix(0,-1,-1,0,111.085,160.975)">
                    <path d="M-5.192,-5.192C-8.059,-5.192 -10.383,-2.868 -10.383,-0.001C-10.383,2.868 -8.059,5.192 -5.192,5.192C-2.325,5.192 -0.001,2.868 -0.001,-0.001C-0.001,-2.868 -2.325,-5.192 -5.192,-5.192" style="fill:rgb(1,51,25);fill-rule:nonzero;"/>
                </g>
                <g transform="matrix(0,-1,-1,0,123,172.89)">
                    <path d="M-5.192,-5.192C-8.059,-5.192 -10.383,-2.868 -10.383,-0.001C-10.383,2.868 -8.059,5.192 -5.192,5.192C-2.325,5.192 -0.001,2.868 -0.001,-0.001C-0.001,-2.868 -2.325,-5.192 -5.192,-5.192" style="fill:rgb(1,51,25);fill-rule:nonzero;"/>
                </g>
                <g transform="matrix(0,-1,-1,0,87.5965,183.358)">
                    <circle cx="-5.191" cy="0" r="5.191" style="fill:none;stroke:rgb(1,51,25);stroke-width:2.01px;"/>
                </g>
                <g transform="matrix(0,-1,-1,0,111.085,160.975)">
                    <ellipse cx="-5.192" cy="0" rx="5.191" ry="5.192" style="fill:none;stroke:rgb(1,51,25);stroke-width:2.01px;"/>
                </g>
                <g transform="matrix(0,-1,-1,0,123,172.89)">
                    <ellipse cx="-5.192" cy="0" rx="5.191" ry="5.192" style="fill:none;stroke:rgb(1,51,25);stroke-width:2.01px;"/>
                </g>
                <g opacity="0.15">
                    <g transform="matrix(0,-1,-1,0,168.696,66.3875)">
                        <path d="M-23.511,-23.511C-36.495,-23.511 -47.022,-12.985 -47.022,0C-47.022,12.985 -36.495,23.511 -23.511,23.511C-10.526,23.511 0,12.985 0,0C0,-12.985 -10.526,-23.511 -23.511,-23.511" style="fill:rgb(1,51,25);fill-rule:nonzero;"/>
                    </g>
                </g>
                <g transform="matrix(0,-1,-1,0,171.83,64.5076)">
                    <path d="M-23.511,-23.511C-36.496,-23.511 -47.022,-12.986 -47.022,0.001C-47.022,12.985 -36.496,23.511 -23.511,23.511C-10.525,23.511 0.001,12.985 0.001,0.001C0.001,-12.986 -10.525,-23.511 -23.511,-23.511" style="fill:white;fill-rule:nonzero;"/>
                </g>
                <g transform="matrix(0,-1,-1,0,171.83,67.9366)">
                    <path d="M-20.082,-20.082C-31.173,-20.082 -40.164,-11.091 -40.164,0C-40.164,11.092 -31.173,20.082 -20.082,20.082C-8.992,20.082 0,11.092 0,0C0,-11.091 -8.992,-20.082 -20.082,-20.082" style="fill:rgb(212,216,219);fill-rule:nonzero;"/>
                </g>
                <g transform="matrix(0,-1,-1,0,171.83,64.5076)">
                    <ellipse cx="-23.511" cy="0" rx="23.511" ry="23.511" style="fill:none;stroke:rgb(1,51,25);stroke-width:2.01px;"/>
                </g>
                <g transform="matrix(1.00428,0,0,1.00428,-0.459915,-0.449011)">
                    <text x="107.442px" y="134.113px" style="font-family:'Roboto-Bold', 'Roboto';font-weight:700;font-size:38.957px;fill:white;">$</text>
                </g>
                <g transform="matrix(1.00428,0,0,1.00428,-0.672526,-0.334062)">
                    <text x="160.589px" y="85.859px" style="font-family:'Montserrat-BoldItalic', 'Montserrat';font-weight:700;font-style:italic;font-size:10.536px;fill:rgb(1,51,25);">1<tspan x="163.911px 169.236px " y="85.859px 85.859px ">3X</tspan></text>
                    <text x="157.111px" y="95.039px" style="font-family:'Montserrat-BoldItalic', 'Montserrat';font-weight:700;font-style:italic;font-size:8.599px;fill:rgb(1,51,25);">3</text>
                    <text x="163.094px" y="95.039px" style="font-family:'Montserrat-BoldItalic', 'Montserrat';font-weight:700;font-style:italic;font-size:8.599px;fill:rgb(1,51,25);">y<tspan x="167.817px 172.926px 178.569px 181.967px " y="95.039px 95.039px 95.039px 95.039px ">ears</tspan></text>
                </g>
            </g>
        </g>
    </g>
</svg>
