<?xml version="1.0" encoding="UTF-8" standalone="no"?>
<!DOCTYPE svg PUBLIC "-//W3C//DTD SVG 1.1//EN" "http://www.w3.org/Graphics/SVG/1.1/DTD/svg11.dtd">
<svg width="100%" height="100%" viewBox="0 0 216 158" version="1.1" xmlns="http://www.w3.org/2000/svg" xmlns:xlink="http://www.w3.org/1999/xlink" xml:space="preserve" xmlns:serif="http://www.serif.com/" style="fill-rule:evenodd;clip-rule:evenodd;stroke-linecap:round;stroke-miterlimit:10;">
    <g transform="matrix(0.995739,0,0,0.995739,-46.111,-56.2323)">
        <g id="Layer-1" serif:id="Layer 1">
            <g>
                <g transform="matrix(1,0,0,1,252.637,49.2076)">
                    <path d="M0,165.353C0,165.353 -8.443,133.979 2.471,118.964C13.386,103.95 11.879,77.01 -20.242,67.437C-52.362,57.866 -40.065,29.106 -64.535,14.554C-89.004,0 -119.115,7.069 -133.945,37.318C-148.775,67.568 -183.414,44.565 -198.151,67.437C-210.625,86.798 -182.963,96.447 -187.958,111.373C-192.954,126.299 -205.631,150.476 -196.051,165.353L0,165.353Z" style="fill:rgb(212,216,219);fill-rule:nonzero;"/>
                </g>
                <g transform="matrix(-1,0.000819001,0.000819001,1,161.837,73.1027)">
                    <path d="M0.477,-13.431C0.477,-13.431 -0.06,-7.829 6.806,-6.51C6.806,-6.51 0.584,-6.023 0.477,-0C0.477,-0 0.423,-5.3 -6.323,-6.711C-6.323,-6.711 -0.18,-7.227 0.477,-13.431" style="fill:rgb(0,204,102);fill-rule:nonzero;"/>
                </g>
                <g transform="matrix(-1,0.000744546,0.000744546,1,112.921,107.093)">
                    <path d="M0.478,-13.431C0.478,-13.431 -0.06,-7.83 6.806,-6.51C6.806,-6.51 0.585,-6.023 0.478,-0C0.478,-0 0.423,-5.3 -6.323,-6.711C-6.323,-6.711 -0.18,-7.227 0.478,-13.431" style="fill:rgb(23,169,230);fill-rule:nonzero;"/>
                </g>
                <g transform="matrix(-1,0.000734035,0.000734035,1,62.7137,130.603)">
                    <path d="M0.29,-8.174C0.29,-8.174 -0.037,-4.765 4.142,-3.962C4.142,-3.962 0.355,-3.665 0.29,-0C0.29,-0 0.258,-3.225 -3.849,-4.084C-3.849,-4.084 -0.11,-4.399 0.29,-8.174" style="fill:white;fill-rule:nonzero;"/>
                </g>
                <g transform="matrix(-1,0.000856374,0.000856374,1,199.756,108.551)">
                    <path d="M0.29,-8.174C0.29,-8.174 -0.037,-4.765 4.143,-3.962C4.143,-3.962 0.355,-3.665 0.29,-0C0.29,-0 0.258,-3.226 -3.849,-4.084C-3.849,-4.084 -0.109,-4.399 0.29,-8.174" style="fill:white;fill-rule:nonzero;"/>
                </g>
                <g transform="matrix(-1,0.00077386,0.00077386,1,231.88,199.556)">
                    <path d="M0.413,-11.63C0.413,-11.63 -0.053,-6.78 5.894,-5.636C5.894,-5.636 0.505,-5.215 0.413,-0C0.413,-0 0.366,-4.589 -5.476,-5.811C-5.476,-5.811 -0.156,-6.258 0.413,-11.63" style="fill:rgb(175,179,177);fill-rule:nonzero;"/>
                </g>
                <g transform="matrix(1,0,0,1,51.2234,214.567)">
                    <path d="M0,0L206.653,0" style="fill:none;fill-rule:nonzero;stroke:rgb(1,51,25);stroke-width:2.01px;"/>
                </g>
                <g opacity="0.53">
                    <g>
                        <clipPath id="_clip1">
                            <rect x="90.874" y="81.343" width="130.532" height="134.224" clip-rule="nonzero"/>
                        </clipPath>
                        <g clip-path="url(#_clip1)">
                            <g transform="matrix(1,0,0,1,133.475,122.676)">
                                <path d="M0,91.891L-41.602,91.891L-41.602,1.464C-41.602,0.656 -40.945,0 -40.137,0L-1.465,0C-0.656,0 0,0.656 0,1.464L0,91.891Z" style="fill:white;fill-rule:nonzero;stroke:rgb(1,51,25);stroke-width:2.01px;"/>
                            </g>
                            <g transform="matrix(1,0,0,1,103.196,130.147)">
                                <path d="M0,6.517L-4.986,6.517C-5.409,6.517 -5.752,6.174 -5.752,5.752L-5.752,0.766C-5.752,0.343 -5.409,0 -4.986,0L0,0C0.422,0 0.765,0.343 0.765,0.766L0.765,5.752C0.765,6.174 0.422,6.517 0,6.517" style="fill:rgb(0,204,102);fill-rule:nonzero;"/>
                            </g>
                            <g transform="matrix(1,0,0,1,115.168,130.147)">
                                <path d="M0,6.517L-4.986,6.517C-5.409,6.517 -5.752,6.174 -5.752,5.752L-5.752,0.766C-5.752,0.343 -5.409,0 -4.986,0L0,0C0.423,0 0.765,0.343 0.765,0.766L0.765,5.752C0.765,6.174 0.423,6.517 0,6.517" style="fill:rgb(0,204,102);fill-rule:nonzero;"/>
                            </g>
                            <g transform="matrix(1,0,0,1,127.139,130.147)">
                                <path d="M0,6.517L-4.986,6.517C-5.409,6.517 -5.752,6.174 -5.752,5.752L-5.752,0.766C-5.752,0.343 -5.409,0 -4.986,0L0,0C0.423,0 0.765,0.343 0.765,0.766L0.765,5.752C0.765,6.174 0.423,6.517 0,6.517" style="fill:rgb(0,204,102);fill-rule:nonzero;"/>
                            </g>
                            <g transform="matrix(1,0,0,1,103.196,143.279)">
                                <path d="M0,6.517L-4.986,6.517C-5.409,6.517 -5.752,6.174 -5.752,5.752L-5.752,0.766C-5.752,0.343 -5.409,0 -4.986,0L0,0C0.422,0 0.765,0.343 0.765,0.766L0.765,5.752C0.765,6.174 0.422,6.517 0,6.517" style="fill:rgb(0,204,102);fill-rule:nonzero;"/>
                            </g>
                            <g transform="matrix(1,0,0,1,115.168,143.279)">
                                <path d="M0,6.517L-4.986,6.517C-5.409,6.517 -5.752,6.174 -5.752,5.752L-5.752,0.766C-5.752,0.343 -5.409,0 -4.986,0L0,0C0.423,0 0.765,0.343 0.765,0.766L0.765,5.752C0.765,6.174 0.423,6.517 0,6.517" style="fill:rgb(0,204,102);fill-rule:nonzero;"/>
                            </g>
                            <g transform="matrix(1,0,0,1,127.139,143.279)">
                                <path d="M0,6.517L-4.986,6.517C-5.409,6.517 -5.752,6.174 -5.752,5.752L-5.752,0.766C-5.752,0.343 -5.409,0 -4.986,0L0,0C0.423,0 0.765,0.343 0.765,0.766L0.765,5.752C0.765,6.174 0.423,6.517 0,6.517" style="fill:rgb(0,204,102);fill-rule:nonzero;"/>
                            </g>
                            <g transform="matrix(1,0,0,1,103.196,156.411)">
                                <path d="M0,6.517L-4.986,6.517C-5.409,6.517 -5.752,6.175 -5.752,5.752L-5.752,0.766C-5.752,0.343 -5.409,0 -4.986,0L0,0C0.422,0 0.765,0.343 0.765,0.766L0.765,5.752C0.765,6.175 0.422,6.517 0,6.517" style="fill:rgb(0,204,102);fill-rule:nonzero;"/>
                            </g>
                            <g transform="matrix(1,0,0,1,115.168,156.411)">
                                <path d="M0,6.517L-4.986,6.517C-5.409,6.517 -5.752,6.175 -5.752,5.752L-5.752,0.766C-5.752,0.343 -5.409,0 -4.986,0L0,0C0.423,0 0.765,0.343 0.765,0.766L0.765,5.752C0.765,6.175 0.423,6.517 0,6.517" style="fill:rgb(0,204,102);fill-rule:nonzero;"/>
                            </g>
                            <g transform="matrix(1,0,0,1,127.139,156.411)">
                                <path d="M0,6.517L-4.986,6.517C-5.409,6.517 -5.752,6.175 -5.752,5.752L-5.752,0.766C-5.752,0.343 -5.409,0 -4.986,0L0,0C0.423,0 0.765,0.343 0.765,0.766L0.765,5.752C0.765,6.175 0.423,6.517 0,6.517" style="fill:rgb(0,204,102);fill-rule:nonzero;"/>
                            </g>
                            <g transform="matrix(1,0,0,1,103.196,169.543)">
                                <path d="M0,6.517L-4.986,6.517C-5.409,6.517 -5.752,6.174 -5.752,5.751L-5.752,0.766C-5.752,0.343 -5.409,0 -4.986,0L0,0C0.422,0 0.765,0.343 0.765,0.766L0.765,5.751C0.765,6.174 0.422,6.517 0,6.517" style="fill:rgb(0,204,102);fill-rule:nonzero;"/>
                            </g>
                            <g transform="matrix(1,0,0,1,115.168,169.543)">
                                <path d="M0,6.517L-4.986,6.517C-5.409,6.517 -5.752,6.174 -5.752,5.751L-5.752,0.766C-5.752,0.343 -5.409,0 -4.986,0L0,0C0.423,0 0.765,0.343 0.765,0.766L0.765,5.751C0.765,6.174 0.423,6.517 0,6.517" style="fill:rgb(0,204,102);fill-rule:nonzero;"/>
                            </g>
                            <g transform="matrix(1,0,0,1,127.139,169.543)">
                                <path d="M0,6.517L-4.986,6.517C-5.409,6.517 -5.752,6.174 -5.752,5.751L-5.752,0.766C-5.752,0.343 -5.409,0 -4.986,0L0,0C0.423,0 0.765,0.343 0.765,0.766L0.765,5.751C0.765,6.174 0.423,6.517 0,6.517" style="fill:rgb(0,204,102);fill-rule:nonzero;"/>
                            </g>
                            <g transform="matrix(1,0,0,1,103.196,182.675)">
                                <path d="M0,6.517L-4.986,6.517C-5.409,6.517 -5.752,6.174 -5.752,5.752L-5.752,0.766C-5.752,0.343 -5.409,0 -4.986,0L0,0C0.422,0 0.765,0.343 0.765,0.766L0.765,5.752C0.765,6.174 0.422,6.517 0,6.517" style="fill:rgb(0,204,102);fill-rule:nonzero;"/>
                            </g>
                            <g transform="matrix(1,0,0,1,115.168,182.675)">
                                <path d="M0,6.517L-4.986,6.517C-5.409,6.517 -5.752,6.174 -5.752,5.752L-5.752,0.766C-5.752,0.343 -5.409,0 -4.986,0L0,0C0.423,0 0.765,0.343 0.765,0.766L0.765,5.752C0.765,6.174 0.423,6.517 0,6.517" style="fill:rgb(0,204,102);fill-rule:nonzero;"/>
                            </g>
                            <g transform="matrix(1,0,0,1,127.139,182.675)">
                                <path d="M0,6.517L-4.986,6.517C-5.409,6.517 -5.752,6.174 -5.752,5.752L-5.752,0.766C-5.752,0.343 -5.409,0 -4.986,0L0,0C0.423,0 0.765,0.343 0.765,0.766L0.765,5.752C0.765,6.174 0.423,6.517 0,6.517" style="fill:rgb(0,204,102);fill-rule:nonzero;"/>
                            </g>
                            <g transform="matrix(1,0,0,1,103.196,195.807)">
                                <path d="M0,6.517L-4.986,6.517C-5.409,6.517 -5.752,6.175 -5.752,5.752L-5.752,0.766C-5.752,0.343 -5.409,0 -4.986,0L0,0C0.422,0 0.765,0.343 0.765,0.766L0.765,5.752C0.765,6.175 0.422,6.517 0,6.517" style="fill:rgb(0,204,102);fill-rule:nonzero;"/>
                            </g>
                            <g transform="matrix(1,0,0,1,115.168,195.807)">
                                <path d="M0,6.517L-4.986,6.517C-5.409,6.517 -5.752,6.175 -5.752,5.752L-5.752,0.766C-5.752,0.343 -5.409,0 -4.986,0L0,0C0.423,0 0.765,0.343 0.765,0.766L0.765,5.752C0.765,6.175 0.423,6.517 0,6.517" style="fill:rgb(0,204,102);fill-rule:nonzero;"/>
                            </g>
                            <g transform="matrix(1,0,0,1,127.139,195.807)">
                                <path d="M0,6.517L-4.986,6.517C-5.409,6.517 -5.752,6.175 -5.752,5.752L-5.752,0.766C-5.752,0.343 -5.409,0 -4.986,0L0,0C0.423,0 0.765,0.343 0.765,0.766L0.765,5.752C0.765,6.175 0.423,6.517 0,6.517" style="fill:rgb(0,204,102);fill-rule:nonzero;"/>
                            </g>
                            <g transform="matrix(1,0,0,1,103.196,130.147)">
                                <path d="M0,6.517L-4.986,6.517C-5.409,6.517 -5.752,6.174 -5.752,5.752L-5.752,0.766C-5.752,0.343 -5.409,0 -4.986,0L0,0C0.422,0 0.765,0.343 0.765,0.766L0.765,5.752C0.765,6.174 0.422,6.517 0,6.517Z" style="fill:none;fill-rule:nonzero;stroke:rgb(1,51,25);stroke-width:2.01px;"/>
                            </g>
                            <g transform="matrix(1,0,0,1,115.168,130.147)">
                                <path d="M0,6.517L-4.986,6.517C-5.409,6.517 -5.752,6.174 -5.752,5.752L-5.752,0.766C-5.752,0.343 -5.409,0 -4.986,0L0,0C0.423,0 0.765,0.343 0.765,0.766L0.765,5.752C0.765,6.174 0.423,6.517 0,6.517Z" style="fill:none;fill-rule:nonzero;stroke:rgb(1,51,25);stroke-width:2.01px;"/>
                            </g>
                            <g transform="matrix(1,0,0,1,127.139,130.147)">
                                <path d="M0,6.517L-4.986,6.517C-5.409,6.517 -5.752,6.174 -5.752,5.752L-5.752,0.766C-5.752,0.343 -5.409,0 -4.986,0L0,0C0.423,0 0.765,0.343 0.765,0.766L0.765,5.752C0.765,6.174 0.423,6.517 0,6.517Z" style="fill:none;fill-rule:nonzero;stroke:rgb(1,51,25);stroke-width:2.01px;"/>
                            </g>
                            <g transform="matrix(1,0,0,1,103.196,143.279)">
                                <path d="M0,6.517L-4.986,6.517C-5.409,6.517 -5.752,6.174 -5.752,5.752L-5.752,0.766C-5.752,0.343 -5.409,0 -4.986,0L0,0C0.422,0 0.765,0.343 0.765,0.766L0.765,5.752C0.765,6.174 0.422,6.517 0,6.517Z" style="fill:none;fill-rule:nonzero;stroke:rgb(1,51,25);stroke-width:2.01px;"/>
                            </g>
                            <g transform="matrix(1,0,0,1,115.168,143.279)">
                                <path d="M0,6.517L-4.986,6.517C-5.409,6.517 -5.752,6.174 -5.752,5.752L-5.752,0.766C-5.752,0.343 -5.409,0 -4.986,0L0,0C0.423,0 0.765,0.343 0.765,0.766L0.765,5.752C0.765,6.174 0.423,6.517 0,6.517Z" style="fill:none;fill-rule:nonzero;stroke:rgb(1,51,25);stroke-width:2.01px;"/>
                            </g>
                            <g transform="matrix(1,0,0,1,127.139,143.279)">
                                <path d="M0,6.517L-4.986,6.517C-5.409,6.517 -5.752,6.174 -5.752,5.752L-5.752,0.766C-5.752,0.343 -5.409,0 -4.986,0L0,0C0.423,0 0.765,0.343 0.765,0.766L0.765,5.752C0.765,6.174 0.423,6.517 0,6.517Z" style="fill:none;fill-rule:nonzero;stroke:rgb(1,51,25);stroke-width:2.01px;"/>
                            </g>
                            <g transform="matrix(1,0,0,1,103.196,156.411)">
                                <path d="M0,6.517L-4.986,6.517C-5.409,6.517 -5.752,6.175 -5.752,5.752L-5.752,0.766C-5.752,0.343 -5.409,0 -4.986,0L0,0C0.422,0 0.765,0.343 0.765,0.766L0.765,5.752C0.765,6.175 0.422,6.517 0,6.517Z" style="fill:none;fill-rule:nonzero;stroke:rgb(1,51,25);stroke-width:2.01px;"/>
                            </g>
                            <g transform="matrix(1,0,0,1,115.168,156.411)">
                                <path d="M0,6.517L-4.986,6.517C-5.409,6.517 -5.752,6.175 -5.752,5.752L-5.752,0.766C-5.752,0.343 -5.409,0 -4.986,0L0,0C0.423,0 0.765,0.343 0.765,0.766L0.765,5.752C0.765,6.175 0.423,6.517 0,6.517Z" style="fill:none;fill-rule:nonzero;stroke:rgb(1,51,25);stroke-width:2.01px;"/>
                            </g>
                            <g transform="matrix(1,0,0,1,127.139,156.411)">
                                <path d="M0,6.517L-4.986,6.517C-5.409,6.517 -5.752,6.175 -5.752,5.752L-5.752,0.766C-5.752,0.343 -5.409,0 -4.986,0L0,0C0.423,0 0.765,0.343 0.765,0.766L0.765,5.752C0.765,6.175 0.423,6.517 0,6.517Z" style="fill:none;fill-rule:nonzero;stroke:rgb(1,51,25);stroke-width:2.01px;"/>
                            </g>
                            <g transform="matrix(1,0,0,1,103.196,169.543)">
                                <path d="M0,6.517L-4.986,6.517C-5.409,6.517 -5.752,6.174 -5.752,5.751L-5.752,0.766C-5.752,0.343 -5.409,0 -4.986,0L0,0C0.422,0 0.765,0.343 0.765,0.766L0.765,5.751C0.765,6.174 0.422,6.517 0,6.517Z" style="fill:none;fill-rule:nonzero;stroke:rgb(1,51,25);stroke-width:2.01px;"/>
                            </g>
                            <g transform="matrix(1,0,0,1,115.168,169.543)">
                                <path d="M0,6.517L-4.986,6.517C-5.409,6.517 -5.752,6.174 -5.752,5.751L-5.752,0.766C-5.752,0.343 -5.409,0 -4.986,0L0,0C0.423,0 0.765,0.343 0.765,0.766L0.765,5.751C0.765,6.174 0.423,6.517 0,6.517Z" style="fill:none;fill-rule:nonzero;stroke:rgb(1,51,25);stroke-width:2.01px;"/>
                            </g>
                            <g transform="matrix(1,0,0,1,127.139,169.543)">
                                <path d="M0,6.517L-4.986,6.517C-5.409,6.517 -5.752,6.174 -5.752,5.751L-5.752,0.766C-5.752,0.343 -5.409,0 -4.986,0L0,0C0.423,0 0.765,0.343 0.765,0.766L0.765,5.751C0.765,6.174 0.423,6.517 0,6.517Z" style="fill:none;fill-rule:nonzero;stroke:rgb(1,51,25);stroke-width:2.01px;"/>
                            </g>
                            <g transform="matrix(1,0,0,1,103.196,182.675)">
                                <path d="M0,6.517L-4.986,6.517C-5.409,6.517 -5.752,6.174 -5.752,5.752L-5.752,0.766C-5.752,0.343 -5.409,0 -4.986,0L0,0C0.422,0 0.765,0.343 0.765,0.766L0.765,5.752C0.765,6.174 0.422,6.517 0,6.517Z" style="fill:none;fill-rule:nonzero;stroke:rgb(1,51,25);stroke-width:2.01px;"/>
                            </g>
                            <g transform="matrix(1,0,0,1,115.168,182.675)">
                                <path d="M0,6.517L-4.986,6.517C-5.409,6.517 -5.752,6.174 -5.752,5.752L-5.752,0.766C-5.752,0.343 -5.409,0 -4.986,0L0,0C0.423,0 0.765,0.343 0.765,0.766L0.765,5.752C0.765,6.174 0.423,6.517 0,6.517Z" style="fill:none;fill-rule:nonzero;stroke:rgb(1,51,25);stroke-width:2.01px;"/>
                            </g>
                            <g transform="matrix(1,0,0,1,127.139,182.675)">
                                <path d="M0,6.517L-4.986,6.517C-5.409,6.517 -5.752,6.174 -5.752,5.752L-5.752,0.766C-5.752,0.343 -5.409,0 -4.986,0L0,0C0.423,0 0.765,0.343 0.765,0.766L0.765,5.752C0.765,6.174 0.423,6.517 0,6.517Z" style="fill:none;fill-rule:nonzero;stroke:rgb(1,51,25);stroke-width:2.01px;"/>
                            </g>
                            <g transform="matrix(1,0,0,1,103.196,195.807)">
                                <path d="M0,6.517L-4.986,6.517C-5.409,6.517 -5.752,6.175 -5.752,5.752L-5.752,0.766C-5.752,0.343 -5.409,0 -4.986,0L0,0C0.422,0 0.765,0.343 0.765,0.766L0.765,5.752C0.765,6.175 0.422,6.517 0,6.517Z" style="fill:none;fill-rule:nonzero;stroke:rgb(1,51,25);stroke-width:2.01px;"/>
                            </g>
                            <g transform="matrix(1,0,0,1,115.168,195.807)">
                                <path d="M0,6.517L-4.986,6.517C-5.409,6.517 -5.752,6.175 -5.752,5.752L-5.752,0.766C-5.752,0.343 -5.409,0 -4.986,0L0,0C0.423,0 0.765,0.343 0.765,0.766L0.765,5.752C0.765,6.175 0.423,6.517 0,6.517Z" style="fill:none;fill-rule:nonzero;stroke:rgb(1,51,25);stroke-width:2.01px;"/>
                            </g>
                            <g transform="matrix(1,0,0,1,127.139,195.807)">
                                <path d="M0,6.517L-4.986,6.517C-5.409,6.517 -5.752,6.175 -5.752,5.752L-5.752,0.766C-5.752,0.343 -5.409,0 -4.986,0L0,0C0.423,0 0.765,0.343 0.765,0.766L0.765,5.752C0.765,6.175 0.423,6.517 0,6.517Z" style="fill:none;fill-rule:nonzero;stroke:rgb(1,51,25);stroke-width:2.01px;"/>
                            </g>
                            <g transform="matrix(1,0,0,1,220.406,122.676)">
                                <path d="M0,91.891L-41.601,91.891L-41.601,1.464C-41.601,0.656 -40.945,0 -40.137,0L-1.465,0C-0.655,0 0,0.656 0,1.464L0,91.891Z" style="fill:rgb(23,169,230);fill-rule:nonzero;stroke:rgb(1,51,25);stroke-width:2.01px;"/>
                            </g>
                            <g transform="matrix(1,0,0,1,190.127,130.147)">
                                <path d="M0,6.517L-4.986,6.517C-5.408,6.517 -5.751,6.174 -5.751,5.752L-5.751,0.766C-5.751,0.343 -5.408,0 -4.986,0L0,0C0.423,0 0.766,0.343 0.766,0.766L0.766,5.752C0.766,6.174 0.423,6.517 0,6.517" style="fill:rgb(0,204,102);fill-rule:nonzero;"/>
                            </g>
                            <g transform="matrix(1,0,0,1,202.098,130.147)">
                                <path d="M0,6.517L-4.985,6.517C-5.408,6.517 -5.751,6.174 -5.751,5.752L-5.751,0.766C-5.751,0.343 -5.408,0 -4.985,0L0,0C0.423,0 0.766,0.343 0.766,0.766L0.766,5.752C0.766,6.174 0.423,6.517 0,6.517" style="fill:white;fill-rule:nonzero;"/>
                            </g>
                            <g transform="matrix(1,0,0,1,214.071,130.147)">
                                <path d="M0,6.517L-4.986,6.517C-5.409,6.517 -5.752,6.174 -5.752,5.752L-5.752,0.766C-5.752,0.343 -5.409,0 -4.986,0L0,0C0.422,0 0.765,0.343 0.765,0.766L0.765,5.752C0.765,6.174 0.422,6.517 0,6.517" style="fill:white;fill-rule:nonzero;"/>
                            </g>
                            <g transform="matrix(1,0,0,1,190.127,143.279)">
                                <path d="M0,6.517L-4.986,6.517C-5.408,6.517 -5.751,6.174 -5.751,5.752L-5.751,0.766C-5.751,0.343 -5.408,0 -4.986,0L0,0C0.423,0 0.766,0.343 0.766,0.766L0.766,5.752C0.766,6.174 0.423,6.517 0,6.517" style="fill:rgb(0,204,102);fill-rule:nonzero;"/>
                            </g>
                            <g transform="matrix(1,0,0,1,202.098,143.279)">
                                <path d="M0,6.517L-4.985,6.517C-5.408,6.517 -5.751,6.174 -5.751,5.752L-5.751,0.766C-5.751,0.343 -5.408,0 -4.985,0L0,0C0.423,0 0.766,0.343 0.766,0.766L0.766,5.752C0.766,6.174 0.423,6.517 0,6.517" style="fill:white;fill-rule:nonzero;"/>
                            </g>
                            <g transform="matrix(1,0,0,1,214.071,143.279)">
                                <path d="M0,6.517L-4.986,6.517C-5.409,6.517 -5.752,6.174 -5.752,5.752L-5.752,0.766C-5.752,0.343 -5.409,0 -4.986,0L0,0C0.422,0 0.765,0.343 0.765,0.766L0.765,5.752C0.765,6.174 0.422,6.517 0,6.517" style="fill:white;fill-rule:nonzero;"/>
                            </g>
                            <g transform="matrix(1,0,0,1,190.127,156.411)">
                                <path d="M0,6.517L-4.986,6.517C-5.408,6.517 -5.751,6.175 -5.751,5.752L-5.751,0.766C-5.751,0.343 -5.408,0 -4.986,0L0,0C0.423,0 0.766,0.343 0.766,0.766L0.766,5.752C0.766,6.175 0.423,6.517 0,6.517" style="fill:rgb(0,204,102);fill-rule:nonzero;"/>
                            </g>
                            <g transform="matrix(1,0,0,1,202.098,156.411)">
                                <path d="M0,6.517L-4.985,6.517C-5.408,6.517 -5.751,6.175 -5.751,5.752L-5.751,0.766C-5.751,0.343 -5.408,0 -4.985,0L0,0C0.423,0 0.766,0.343 0.766,0.766L0.766,5.752C0.766,6.175 0.423,6.517 0,6.517" style="fill:white;fill-rule:nonzero;"/>
                            </g>
                            <g transform="matrix(1,0,0,1,214.071,156.411)">
                                <path d="M0,6.517L-4.986,6.517C-5.409,6.517 -5.752,6.175 -5.752,5.752L-5.752,0.766C-5.752,0.343 -5.409,0 -4.986,0L0,0C0.422,0 0.765,0.343 0.765,0.766L0.765,5.752C0.765,6.175 0.422,6.517 0,6.517" style="fill:white;fill-rule:nonzero;"/>
                            </g>
                            <g transform="matrix(1,0,0,1,190.127,169.543)">
                                <path d="M0,6.517L-4.986,6.517C-5.408,6.517 -5.751,6.174 -5.751,5.751L-5.751,0.766C-5.751,0.343 -5.408,0 -4.986,0L0,0C0.423,0 0.766,0.343 0.766,0.766L0.766,5.751C0.766,6.174 0.423,6.517 0,6.517" style="fill:rgb(0,204,102);fill-rule:nonzero;"/>
                            </g>
                            <g transform="matrix(1,0,0,1,202.098,169.543)">
                                <path d="M0,6.517L-4.985,6.517C-5.408,6.517 -5.751,6.174 -5.751,5.751L-5.751,0.766C-5.751,0.343 -5.408,0 -4.985,0L0,0C0.423,0 0.766,0.343 0.766,0.766L0.766,5.751C0.766,6.174 0.423,6.517 0,6.517" style="fill:white;fill-rule:nonzero;"/>
                            </g>
                            <g transform="matrix(1,0,0,1,214.071,169.543)">
                                <path d="M0,6.517L-4.986,6.517C-5.409,6.517 -5.752,6.174 -5.752,5.751L-5.752,0.766C-5.752,0.343 -5.409,0 -4.986,0L0,0C0.422,0 0.765,0.343 0.765,0.766L0.765,5.751C0.765,6.174 0.422,6.517 0,6.517" style="fill:white;fill-rule:nonzero;"/>
                            </g>
                            <g transform="matrix(1,0,0,1,190.127,182.675)">
                                <path d="M0,6.517L-4.986,6.517C-5.408,6.517 -5.751,6.174 -5.751,5.752L-5.751,0.766C-5.751,0.343 -5.408,0 -4.986,0L0,0C0.423,0 0.766,0.343 0.766,0.766L0.766,5.752C0.766,6.174 0.423,6.517 0,6.517" style="fill:rgb(0,204,102);fill-rule:nonzero;"/>
                            </g>
                            <g transform="matrix(1,0,0,1,202.098,182.675)">
                                <path d="M0,6.517L-4.985,6.517C-5.408,6.517 -5.751,6.174 -5.751,5.752L-5.751,0.766C-5.751,0.343 -5.408,0 -4.985,0L0,0C0.423,0 0.766,0.343 0.766,0.766L0.766,5.752C0.766,6.174 0.423,6.517 0,6.517" style="fill:white;fill-rule:nonzero;"/>
                            </g>
                            <g transform="matrix(1,0,0,1,214.071,182.675)">
                                <path d="M0,6.517L-4.986,6.517C-5.409,6.517 -5.752,6.174 -5.752,5.752L-5.752,0.766C-5.752,0.343 -5.409,0 -4.986,0L0,0C0.422,0 0.765,0.343 0.765,0.766L0.765,5.752C0.765,6.174 0.422,6.517 0,6.517" style="fill:white;fill-rule:nonzero;"/>
                            </g>
                            <g transform="matrix(1,0,0,1,190.127,195.807)">
                                <path d="M0,6.517L-4.986,6.517C-5.408,6.517 -5.751,6.175 -5.751,5.752L-5.751,0.766C-5.751,0.343 -5.408,0 -4.986,0L0,0C0.423,0 0.766,0.343 0.766,0.766L0.766,5.752C0.766,6.175 0.423,6.517 0,6.517" style="fill:rgb(0,204,102);fill-rule:nonzero;"/>
                            </g>
                            <g transform="matrix(1,0,0,1,202.098,195.807)">
                                <path d="M0,6.517L-4.985,6.517C-5.408,6.517 -5.751,6.175 -5.751,5.752L-5.751,0.766C-5.751,0.343 -5.408,0 -4.985,0L0,0C0.423,0 0.766,0.343 0.766,0.766L0.766,5.752C0.766,6.175 0.423,6.517 0,6.517" style="fill:white;fill-rule:nonzero;"/>
                            </g>
                            <g transform="matrix(1,0,0,1,214.071,195.807)">
                                <path d="M0,6.517L-4.986,6.517C-5.409,6.517 -5.752,6.175 -5.752,5.752L-5.752,0.766C-5.752,0.343 -5.409,0 -4.986,0L0,0C0.422,0 0.765,0.343 0.765,0.766L0.765,5.752C0.765,6.175 0.422,6.517 0,6.517" style="fill:white;fill-rule:nonzero;"/>
                            </g>
                            <g transform="matrix(1,0,0,1,190.127,130.147)">
                                <path d="M0,6.517L-4.986,6.517C-5.408,6.517 -5.751,6.174 -5.751,5.752L-5.751,0.766C-5.751,0.343 -5.408,0 -4.986,0L0,0C0.423,0 0.766,0.343 0.766,0.766L0.766,5.752C0.766,6.174 0.423,6.517 0,6.517Z" style="fill:none;fill-rule:nonzero;stroke:rgb(1,51,25);stroke-width:2.01px;"/>
                            </g>
                            <g transform="matrix(1,0,0,1,202.098,130.147)">
                                <path d="M0,6.517L-4.985,6.517C-5.408,6.517 -5.751,6.174 -5.751,5.752L-5.751,0.766C-5.751,0.343 -5.408,0 -4.985,0L0,0C0.423,0 0.766,0.343 0.766,0.766L0.766,5.752C0.766,6.174 0.423,6.517 0,6.517Z" style="fill:none;fill-rule:nonzero;stroke:rgb(1,51,25);stroke-width:2.01px;"/>
                            </g>
                            <g transform="matrix(1,0,0,1,214.071,130.147)">
                                <path d="M0,6.517L-4.986,6.517C-5.409,6.517 -5.752,6.174 -5.752,5.752L-5.752,0.766C-5.752,0.343 -5.409,0 -4.986,0L0,0C0.422,0 0.765,0.343 0.765,0.766L0.765,5.752C0.765,6.174 0.422,6.517 0,6.517Z" style="fill:none;fill-rule:nonzero;stroke:rgb(1,51,25);stroke-width:2.01px;"/>
                            </g>
                            <g transform="matrix(1,0,0,1,190.127,143.279)">
                                <path d="M0,6.517L-4.986,6.517C-5.408,6.517 -5.751,6.174 -5.751,5.752L-5.751,0.766C-5.751,0.343 -5.408,0 -4.986,0L0,0C0.423,0 0.766,0.343 0.766,0.766L0.766,5.752C0.766,6.174 0.423,6.517 0,6.517Z" style="fill:none;fill-rule:nonzero;stroke:rgb(1,51,25);stroke-width:2.01px;"/>
                            </g>
                            <g transform="matrix(1,0,0,1,202.098,143.279)">
                                <path d="M0,6.517L-4.985,6.517C-5.408,6.517 -5.751,6.174 -5.751,5.752L-5.751,0.766C-5.751,0.343 -5.408,0 -4.985,0L0,0C0.423,0 0.766,0.343 0.766,0.766L0.766,5.752C0.766,6.174 0.423,6.517 0,6.517Z" style="fill:none;fill-rule:nonzero;stroke:rgb(1,51,25);stroke-width:2.01px;"/>
                            </g>
                            <g transform="matrix(1,0,0,1,214.071,143.279)">
                                <path d="M0,6.517L-4.986,6.517C-5.409,6.517 -5.752,6.174 -5.752,5.752L-5.752,0.766C-5.752,0.343 -5.409,0 -4.986,0L0,0C0.422,0 0.765,0.343 0.765,0.766L0.765,5.752C0.765,6.174 0.422,6.517 0,6.517Z" style="fill:none;fill-rule:nonzero;stroke:rgb(1,51,25);stroke-width:2.01px;"/>
                            </g>
                            <g transform="matrix(1,0,0,1,190.127,156.411)">
                                <path d="M0,6.517L-4.986,6.517C-5.408,6.517 -5.751,6.175 -5.751,5.752L-5.751,0.766C-5.751,0.343 -5.408,0 -4.986,0L0,0C0.423,0 0.766,0.343 0.766,0.766L0.766,5.752C0.766,6.175 0.423,6.517 0,6.517Z" style="fill:none;fill-rule:nonzero;stroke:rgb(1,51,25);stroke-width:2.01px;"/>
                            </g>
                            <g transform="matrix(1,0,0,1,202.098,156.411)">
                                <path d="M0,6.517L-4.985,6.517C-5.408,6.517 -5.751,6.175 -5.751,5.752L-5.751,0.766C-5.751,0.343 -5.408,0 -4.985,0L0,0C0.423,0 0.766,0.343 0.766,0.766L0.766,5.752C0.766,6.175 0.423,6.517 0,6.517Z" style="fill:none;fill-rule:nonzero;stroke:rgb(1,51,25);stroke-width:2.01px;"/>
                            </g>
                            <g transform="matrix(1,0,0,1,214.071,156.411)">
                                <path d="M0,6.517L-4.986,6.517C-5.409,6.517 -5.752,6.175 -5.752,5.752L-5.752,0.766C-5.752,0.343 -5.409,0 -4.986,0L0,0C0.422,0 0.765,0.343 0.765,0.766L0.765,5.752C0.765,6.175 0.422,6.517 0,6.517Z" style="fill:none;fill-rule:nonzero;stroke:rgb(1,51,25);stroke-width:2.01px;"/>
                            </g>
                            <g transform="matrix(1,0,0,1,190.127,169.543)">
                                <path d="M0,6.517L-4.986,6.517C-5.408,6.517 -5.751,6.174 -5.751,5.751L-5.751,0.766C-5.751,0.343 -5.408,0 -4.986,0L0,0C0.423,0 0.766,0.343 0.766,0.766L0.766,5.751C0.766,6.174 0.423,6.517 0,6.517Z" style="fill:none;fill-rule:nonzero;stroke:rgb(1,51,25);stroke-width:2.01px;"/>
                            </g>
                            <g transform="matrix(1,0,0,1,202.098,169.543)">
                                <path d="M0,6.517L-4.985,6.517C-5.408,6.517 -5.751,6.174 -5.751,5.751L-5.751,0.766C-5.751,0.343 -5.408,0 -4.985,0L0,0C0.423,0 0.766,0.343 0.766,0.766L0.766,5.751C0.766,6.174 0.423,6.517 0,6.517Z" style="fill:none;fill-rule:nonzero;stroke:rgb(1,51,25);stroke-width:2.01px;"/>
                            </g>
                            <g transform="matrix(1,0,0,1,214.071,169.543)">
                                <path d="M0,6.517L-4.986,6.517C-5.409,6.517 -5.752,6.174 -5.752,5.751L-5.752,0.766C-5.752,0.343 -5.409,0 -4.986,0L0,0C0.422,0 0.765,0.343 0.765,0.766L0.765,5.751C0.765,6.174 0.422,6.517 0,6.517Z" style="fill:none;fill-rule:nonzero;stroke:rgb(1,51,25);stroke-width:2.01px;"/>
                            </g>
                            <g transform="matrix(1,0,0,1,190.127,182.675)">
                                <path d="M0,6.517L-4.986,6.517C-5.408,6.517 -5.751,6.174 -5.751,5.752L-5.751,0.766C-5.751,0.343 -5.408,0 -4.986,0L0,0C0.423,0 0.766,0.343 0.766,0.766L0.766,5.752C0.766,6.174 0.423,6.517 0,6.517Z" style="fill:none;fill-rule:nonzero;stroke:rgb(1,51,25);stroke-width:2.01px;"/>
                            </g>
                            <g transform="matrix(1,0,0,1,202.098,182.675)">
                                <path d="M0,6.517L-4.985,6.517C-5.408,6.517 -5.751,6.174 -5.751,5.752L-5.751,0.766C-5.751,0.343 -5.408,0 -4.985,0L0,0C0.423,0 0.766,0.343 0.766,0.766L0.766,5.752C0.766,6.174 0.423,6.517 0,6.517Z" style="fill:none;fill-rule:nonzero;stroke:rgb(1,51,25);stroke-width:2.01px;"/>
                            </g>
                            <g transform="matrix(1,0,0,1,214.071,182.675)">
                                <path d="M0,6.517L-4.986,6.517C-5.409,6.517 -5.752,6.174 -5.752,5.752L-5.752,0.766C-5.752,0.343 -5.409,0 -4.986,0L0,0C0.422,0 0.765,0.343 0.765,0.766L0.765,5.752C0.765,6.174 0.422,6.517 0,6.517Z" style="fill:none;fill-rule:nonzero;stroke:rgb(1,51,25);stroke-width:2.01px;"/>
                            </g>
                            <g transform="matrix(1,0,0,1,190.127,195.807)">
                                <path d="M0,6.517L-4.986,6.517C-5.408,6.517 -5.751,6.175 -5.751,5.752L-5.751,0.766C-5.751,0.343 -5.408,0 -4.986,0L0,0C0.423,0 0.766,0.343 0.766,0.766L0.766,5.752C0.766,6.175 0.423,6.517 0,6.517Z" style="fill:none;fill-rule:nonzero;stroke:rgb(1,51,25);stroke-width:2.01px;"/>
                            </g>
                            <g transform="matrix(1,0,0,1,202.098,195.807)">
                                <path d="M0,6.517L-4.985,6.517C-5.408,6.517 -5.751,6.175 -5.751,5.752L-5.751,0.766C-5.751,0.343 -5.408,0 -4.985,0L0,0C0.423,0 0.766,0.343 0.766,0.766L0.766,5.752C0.766,6.175 0.423,6.517 0,6.517Z" style="fill:none;fill-rule:nonzero;stroke:rgb(1,51,25);stroke-width:2.01px;"/>
                            </g>
                            <g transform="matrix(1,0,0,1,214.071,195.807)">
                                <path d="M0,6.517L-4.986,6.517C-5.409,6.517 -5.752,6.175 -5.752,5.752L-5.752,0.766C-5.752,0.343 -5.409,0 -4.986,0L0,0C0.422,0 0.765,0.343 0.765,0.766L0.765,5.752C0.765,6.175 0.422,6.517 0,6.517Z" style="fill:none;fill-rule:nonzero;stroke:rgb(1,51,25);stroke-width:2.01px;"/>
                            </g>
                            <g transform="matrix(1,0,0,1,191.501,82.3434)">
                                <path d="M0,132.139L-59.822,132.139L-59.822,2.106C-59.822,0.943 -58.879,0 -57.716,0L-2.106,0C-0.942,0 0,0.943 0,2.106L0,132.139Z" style="fill:white;fill-rule:nonzero;stroke:rgb(1,51,25);stroke-width:2.01px;"/>
                            </g>
                            <g transform="matrix(1,0,0,1,147.96,93.0865)">
                                <path d="M0,9.371L-7.171,9.371C-7.778,9.371 -8.271,8.878 -8.271,8.27L-8.271,1.1C-8.271,0.493 -7.778,0 -7.171,0L0,0C0.607,0 1.1,0.493 1.1,1.1L1.1,8.27C1.1,8.878 0.607,9.371 0,9.371" style="fill:rgb(0,204,102);fill-rule:nonzero;"/>
                            </g>
                            <g transform="matrix(1,0,0,1,165.174,93.0865)">
                                <path d="M0,9.371L-7.17,9.371C-7.777,9.371 -8.271,8.878 -8.271,8.27L-8.271,1.1C-8.271,0.493 -7.777,0 -7.17,0L0,0C0.608,0 1.101,0.493 1.101,1.1L1.101,8.27C1.101,8.878 0.608,9.371 0,9.371" style="fill:rgb(0,204,102);fill-rule:nonzero;"/>
                            </g>
                            <g transform="matrix(1,0,0,1,182.39,93.0865)">
                                <path d="M0,9.371L-7.17,9.371C-7.778,9.371 -8.271,8.878 -8.271,8.27L-8.271,1.1C-8.271,0.493 -7.778,0 -7.17,0L0,0C0.607,0 1.101,0.493 1.101,1.1L1.101,8.27C1.101,8.878 0.607,9.371 0,9.371" style="fill:rgb(0,204,102);fill-rule:nonzero;"/>
                            </g>
                            <g transform="matrix(1,0,0,1,147.96,111.97)">
                                <path d="M0,9.371L-7.171,9.371C-7.778,9.371 -8.271,8.878 -8.271,8.27L-8.271,1.1C-8.271,0.493 -7.778,0 -7.171,0L0,0C0.607,0 1.1,0.493 1.1,1.1L1.1,8.27C1.1,8.878 0.607,9.371 0,9.371" style="fill:rgb(0,204,102);fill-rule:nonzero;"/>
                            </g>
                            <g transform="matrix(1,0,0,1,165.174,111.97)">
                                <path d="M0,9.371L-7.17,9.371C-7.777,9.371 -8.271,8.878 -8.271,8.27L-8.271,1.1C-8.271,0.493 -7.777,0 -7.17,0L0,0C0.608,0 1.101,0.493 1.101,1.1L1.101,8.27C1.101,8.878 0.608,9.371 0,9.371" style="fill:rgb(0,204,102);fill-rule:nonzero;"/>
                            </g>
                            <g transform="matrix(1,0,0,1,182.39,111.97)">
                                <path d="M0,9.371L-7.17,9.371C-7.778,9.371 -8.271,8.878 -8.271,8.27L-8.271,1.1C-8.271,0.493 -7.778,0 -7.17,0L0,0C0.607,0 1.101,0.493 1.101,1.1L1.101,8.27C1.101,8.878 0.607,9.371 0,9.371" style="fill:rgb(0,204,102);fill-rule:nonzero;"/>
                            </g>
                            <g transform="matrix(1,0,0,1,147.96,130.854)">
                                <path d="M0,9.371L-7.171,9.371C-7.778,9.371 -8.271,8.878 -8.271,8.27L-8.271,1.1C-8.271,0.493 -7.778,0 -7.171,0L0,0C0.607,0 1.1,0.493 1.1,1.1L1.1,8.27C1.1,8.878 0.607,9.371 0,9.371" style="fill:rgb(0,204,102);fill-rule:nonzero;"/>
                            </g>
                            <g transform="matrix(1,0,0,1,165.174,130.854)">
                                <path d="M0,9.371L-7.17,9.371C-7.777,9.371 -8.271,8.878 -8.271,8.27L-8.271,1.1C-8.271,0.493 -7.777,0 -7.17,0L0,0C0.608,0 1.101,0.493 1.101,1.1L1.101,8.27C1.101,8.878 0.608,9.371 0,9.371" style="fill:rgb(0,204,102);fill-rule:nonzero;"/>
                            </g>
                            <g transform="matrix(1,0,0,1,182.39,130.854)">
                                <path d="M0,9.371L-7.17,9.371C-7.778,9.371 -8.271,8.878 -8.271,8.27L-8.271,1.1C-8.271,0.493 -7.778,0 -7.17,0L0,0C0.607,0 1.101,0.493 1.101,1.1L1.101,8.27C1.101,8.878 0.607,9.371 0,9.371" style="fill:rgb(0,204,102);fill-rule:nonzero;"/>
                            </g>
                            <g transform="matrix(1,0,0,1,147.96,149.738)">
                                <path d="M0,9.371L-7.171,9.371C-7.778,9.371 -8.271,8.878 -8.271,8.27L-8.271,1.1C-8.271,0.493 -7.778,0 -7.171,0L0,0C0.607,0 1.1,0.493 1.1,1.1L1.1,8.27C1.1,8.878 0.607,9.371 0,9.371" style="fill:rgb(0,204,102);fill-rule:nonzero;"/>
                            </g>
                            <g transform="matrix(1,0,0,1,165.174,149.738)">
                                <path d="M0,9.371L-7.17,9.371C-7.777,9.371 -8.271,8.878 -8.271,8.27L-8.271,1.1C-8.271,0.493 -7.777,0 -7.17,0L0,0C0.608,0 1.101,0.493 1.101,1.1L1.101,8.27C1.101,8.878 0.608,9.371 0,9.371" style="fill:rgb(0,204,102);fill-rule:nonzero;"/>
                            </g>
                            <g transform="matrix(1,0,0,1,182.39,149.738)">
                                <path d="M0,9.371L-7.17,9.371C-7.778,9.371 -8.271,8.878 -8.271,8.27L-8.271,1.1C-8.271,0.493 -7.778,0 -7.17,0L0,0C0.607,0 1.101,0.493 1.101,1.1L1.101,8.27C1.101,8.878 0.607,9.371 0,9.371" style="fill:rgb(0,204,102);fill-rule:nonzero;"/>
                            </g>
                            <g transform="matrix(1,0,0,1,147.96,168.622)">
                                <path d="M0,9.371L-7.171,9.371C-7.778,9.371 -8.271,8.878 -8.271,8.27L-8.271,1.1C-8.271,0.493 -7.778,0 -7.171,0L0,0C0.607,0 1.1,0.493 1.1,1.1L1.1,8.27C1.1,8.878 0.607,9.371 0,9.371" style="fill:rgb(0,204,102);fill-rule:nonzero;"/>
                            </g>
                            <g transform="matrix(1,0,0,1,165.174,168.622)">
                                <path d="M0,9.371L-7.17,9.371C-7.777,9.371 -8.271,8.878 -8.271,8.27L-8.271,1.1C-8.271,0.493 -7.777,0 -7.17,0L0,0C0.608,0 1.101,0.493 1.101,1.1L1.101,8.27C1.101,8.878 0.608,9.371 0,9.371" style="fill:rgb(0,204,102);fill-rule:nonzero;"/>
                            </g>
                            <g transform="matrix(1,0,0,1,182.39,168.622)">
                                <path d="M0,9.371L-7.17,9.371C-7.778,9.371 -8.271,8.878 -8.271,8.27L-8.271,1.1C-8.271,0.493 -7.778,0 -7.17,0L0,0C0.607,0 1.101,0.493 1.101,1.1L1.101,8.27C1.101,8.878 0.607,9.371 0,9.371" style="fill:rgb(0,204,102);fill-rule:nonzero;"/>
                            </g>
                            <g transform="matrix(1,0,0,1,147.96,187.505)">
                                <path d="M0,9.371L-7.171,9.371C-7.778,9.371 -8.271,8.878 -8.271,8.27L-8.271,1.1C-8.271,0.493 -7.778,0 -7.171,0L0,0C0.607,0 1.1,0.493 1.1,1.1L1.1,8.27C1.1,8.878 0.607,9.371 0,9.371" style="fill:rgb(0,204,102);fill-rule:nonzero;"/>
                            </g>
                            <g transform="matrix(1,0,0,1,165.174,187.505)">
                                <path d="M0,9.371L-7.17,9.371C-7.777,9.371 -8.271,8.878 -8.271,8.27L-8.271,1.1C-8.271,0.493 -7.777,0 -7.17,0L0,0C0.608,0 1.101,0.493 1.101,1.1L1.101,8.27C1.101,8.878 0.608,9.371 0,9.371" style="fill:rgb(0,204,102);fill-rule:nonzero;"/>
                            </g>
                            <g transform="matrix(1,0,0,1,182.39,187.505)">
                                <path d="M0,9.371L-7.17,9.371C-7.778,9.371 -8.271,8.878 -8.271,8.27L-8.271,1.1C-8.271,0.493 -7.778,0 -7.17,0L0,0C0.607,0 1.101,0.493 1.101,1.1L1.101,8.27C1.101,8.878 0.607,9.371 0,9.371" style="fill:rgb(0,204,102);fill-rule:nonzero;"/>
                            </g>
                            <g transform="matrix(1,0,0,1,147.96,93.0865)">
                                <path d="M0,9.371L-7.171,9.371C-7.778,9.371 -8.271,8.878 -8.271,8.27L-8.271,1.1C-8.271,0.493 -7.778,0 -7.171,0L0,0C0.607,0 1.1,0.493 1.1,1.1L1.1,8.27C1.1,8.878 0.607,9.371 0,9.371Z" style="fill:none;fill-rule:nonzero;stroke:rgb(1,51,25);stroke-width:2.01px;"/>
                            </g>
                            <g transform="matrix(1,0,0,1,165.174,93.0865)">
                                <path d="M0,9.371L-7.17,9.371C-7.777,9.371 -8.271,8.878 -8.271,8.27L-8.271,1.1C-8.271,0.493 -7.777,0 -7.17,0L0,0C0.608,0 1.101,0.493 1.101,1.1L1.101,8.27C1.101,8.878 0.608,9.371 0,9.371Z" style="fill:none;fill-rule:nonzero;stroke:rgb(1,51,25);stroke-width:2.01px;"/>
                            </g>
                            <g transform="matrix(1,0,0,1,182.39,93.0865)">
                                <path d="M0,9.371L-7.17,9.371C-7.778,9.371 -8.271,8.878 -8.271,8.27L-8.271,1.1C-8.271,0.493 -7.778,0 -7.17,0L0,0C0.607,0 1.101,0.493 1.101,1.1L1.101,8.27C1.101,8.878 0.607,9.371 0,9.371Z" style="fill:none;fill-rule:nonzero;stroke:rgb(1,51,25);stroke-width:2.01px;"/>
                            </g>
                            <g transform="matrix(1,0,0,1,147.96,111.97)">
                                <path d="M0,9.371L-7.171,9.371C-7.778,9.371 -8.271,8.878 -8.271,8.27L-8.271,1.1C-8.271,0.493 -7.778,0 -7.171,0L0,0C0.607,0 1.1,0.493 1.1,1.1L1.1,8.27C1.1,8.878 0.607,9.371 0,9.371Z" style="fill:none;fill-rule:nonzero;stroke:rgb(1,51,25);stroke-width:2.01px;"/>
                            </g>
                            <g transform="matrix(1,0,0,1,165.174,111.97)">
                                <path d="M0,9.371L-7.17,9.371C-7.777,9.371 -8.271,8.878 -8.271,8.27L-8.271,1.1C-8.271,0.493 -7.777,0 -7.17,0L0,0C0.608,0 1.101,0.493 1.101,1.1L1.101,8.27C1.101,8.878 0.608,9.371 0,9.371Z" style="fill:none;fill-rule:nonzero;stroke:rgb(1,51,25);stroke-width:2.01px;"/>
                            </g>
                            <g transform="matrix(1,0,0,1,182.39,111.97)">
                                <path d="M0,9.371L-7.17,9.371C-7.778,9.371 -8.271,8.878 -8.271,8.27L-8.271,1.1C-8.271,0.493 -7.778,0 -7.17,0L0,0C0.607,0 1.101,0.493 1.101,1.1L1.101,8.27C1.101,8.878 0.607,9.371 0,9.371Z" style="fill:none;fill-rule:nonzero;stroke:rgb(1,51,25);stroke-width:2.01px;"/>
                            </g>
                            <g transform="matrix(1,0,0,1,147.96,130.854)">
                                <path d="M0,9.371L-7.171,9.371C-7.778,9.371 -8.271,8.878 -8.271,8.27L-8.271,1.1C-8.271,0.493 -7.778,0 -7.171,0L0,0C0.607,0 1.1,0.493 1.1,1.1L1.1,8.27C1.1,8.878 0.607,9.371 0,9.371Z" style="fill:none;fill-rule:nonzero;stroke:rgb(1,51,25);stroke-width:2.01px;"/>
                            </g>
                            <g transform="matrix(1,0,0,1,165.174,130.854)">
                                <path d="M0,9.371L-7.17,9.371C-7.777,9.371 -8.271,8.878 -8.271,8.27L-8.271,1.1C-8.271,0.493 -7.777,0 -7.17,0L0,0C0.608,0 1.101,0.493 1.101,1.1L1.101,8.27C1.101,8.878 0.608,9.371 0,9.371Z" style="fill:none;fill-rule:nonzero;stroke:rgb(1,51,25);stroke-width:2.01px;"/>
                            </g>
                            <g transform="matrix(1,0,0,1,182.39,130.854)">
                                <path d="M0,9.371L-7.17,9.371C-7.778,9.371 -8.271,8.878 -8.271,8.27L-8.271,1.1C-8.271,0.493 -7.778,0 -7.17,0L0,0C0.607,0 1.101,0.493 1.101,1.1L1.101,8.27C1.101,8.878 0.607,9.371 0,9.371Z" style="fill:none;fill-rule:nonzero;stroke:rgb(1,51,25);stroke-width:2.01px;"/>
                            </g>
                            <g transform="matrix(1,0,0,1,147.96,149.738)">
                                <path d="M0,9.371L-7.171,9.371C-7.778,9.371 -8.271,8.878 -8.271,8.27L-8.271,1.1C-8.271,0.493 -7.778,0 -7.171,0L0,0C0.607,0 1.1,0.493 1.1,1.1L1.1,8.27C1.1,8.878 0.607,9.371 0,9.371Z" style="fill:none;fill-rule:nonzero;stroke:rgb(1,51,25);stroke-width:2.01px;"/>
                            </g>
                            <g transform="matrix(1,0,0,1,165.174,149.738)">
                                <path d="M0,9.371L-7.17,9.371C-7.777,9.371 -8.271,8.878 -8.271,8.27L-8.271,1.1C-8.271,0.493 -7.777,0 -7.17,0L0,0C0.608,0 1.101,0.493 1.101,1.1L1.101,8.27C1.101,8.878 0.608,9.371 0,9.371Z" style="fill:none;fill-rule:nonzero;stroke:rgb(1,51,25);stroke-width:2.01px;"/>
                            </g>
                            <g transform="matrix(1,0,0,1,182.39,149.738)">
                                <path d="M0,9.371L-7.17,9.371C-7.778,9.371 -8.271,8.878 -8.271,8.27L-8.271,1.1C-8.271,0.493 -7.778,0 -7.17,0L0,0C0.607,0 1.101,0.493 1.101,1.1L1.101,8.27C1.101,8.878 0.607,9.371 0,9.371Z" style="fill:none;fill-rule:nonzero;stroke:rgb(1,51,25);stroke-width:2.01px;"/>
                            </g>
                            <g transform="matrix(1,0,0,1,147.96,168.622)">
                                <path d="M0,9.371L-7.171,9.371C-7.778,9.371 -8.271,8.878 -8.271,8.27L-8.271,1.1C-8.271,0.493 -7.778,0 -7.171,0L0,0C0.607,0 1.1,0.493 1.1,1.1L1.1,8.27C1.1,8.878 0.607,9.371 0,9.371Z" style="fill:none;fill-rule:nonzero;stroke:rgb(1,51,25);stroke-width:2.01px;"/>
                            </g>
                            <g transform="matrix(1,0,0,1,165.174,168.622)">
                                <path d="M0,9.371L-7.17,9.371C-7.777,9.371 -8.271,8.878 -8.271,8.27L-8.271,1.1C-8.271,0.493 -7.777,0 -7.17,0L0,0C0.608,0 1.101,0.493 1.101,1.1L1.101,8.27C1.101,8.878 0.608,9.371 0,9.371Z" style="fill:none;fill-rule:nonzero;stroke:rgb(1,51,25);stroke-width:2.01px;"/>
                            </g>
                            <g transform="matrix(1,0,0,1,182.39,168.622)">
                                <path d="M0,9.371L-7.17,9.371C-7.778,9.371 -8.271,8.878 -8.271,8.27L-8.271,1.1C-8.271,0.493 -7.778,0 -7.17,0L0,0C0.607,0 1.101,0.493 1.101,1.1L1.101,8.27C1.101,8.878 0.607,9.371 0,9.371Z" style="fill:none;fill-rule:nonzero;stroke:rgb(1,51,25);stroke-width:2.01px;"/>
                            </g>
                            <g transform="matrix(1,0,0,1,147.96,187.505)">
                                <path d="M0,9.371L-7.171,9.371C-7.778,9.371 -8.271,8.878 -8.271,8.27L-8.271,1.1C-8.271,0.493 -7.778,0 -7.171,0L0,0C0.607,0 1.1,0.493 1.1,1.1L1.1,8.27C1.1,8.878 0.607,9.371 0,9.371Z" style="fill:none;fill-rule:nonzero;stroke:rgb(1,51,25);stroke-width:2.01px;"/>
                            </g>
                            <g transform="matrix(1,0,0,1,165.174,187.505)">
                                <path d="M0,9.371L-7.17,9.371C-7.777,9.371 -8.271,8.878 -8.271,8.27L-8.271,1.1C-8.271,0.493 -7.777,0 -7.17,0L0,0C0.608,0 1.101,0.493 1.101,1.1L1.101,8.27C1.101,8.878 0.608,9.371 0,9.371Z" style="fill:none;fill-rule:nonzero;stroke:rgb(1,51,25);stroke-width:2.01px;"/>
                            </g>
                            <g transform="matrix(1,0,0,1,182.39,187.505)">
                                <path d="M0,9.371L-7.17,9.371C-7.778,9.371 -8.271,8.878 -8.271,8.27L-8.271,1.1C-8.271,0.493 -7.778,0 -7.17,0L0,0C0.607,0 1.101,0.493 1.101,1.1L1.101,8.27C1.101,8.878 0.607,9.371 0,9.371Z" style="fill:none;fill-rule:nonzero;stroke:rgb(1,51,25);stroke-width:2.01px;"/>
                            </g>
                        </g>
                    </g>
                </g>
                <g transform="matrix(1,0,0,1,81.0847,148.046)">
                    <path d="M0,-9.211C5.786,-12.117 9.634,-18.155 9.604,-24.627C12.359,-20.669 17.545,-18.57 22.279,-19.497C23.644,-19.761 24.955,-20.254 26.319,-20.515C27.685,-20.778 29.165,-20.79 30.391,-20.138C32.124,-19.222 32.961,-17.243 33.617,-15.396C34.269,-13.549 34.97,-11.552 36.583,-10.443C37.077,-10.105 37.691,-9.863 38.268,-10.025C38.275,-10.025 38.279,-10.029 38.286,-10.033C39.587,-8.823 40.228,-6.908 39.843,-5.167C39.402,-3.15 37.548,-1.458 35.505,-1.168C34.208,2.718 32.572,6.566 29.935,9.702C29.836,9.815 29.738,9.932 29.641,10.041C27.024,13.008 23.384,15.212 19.445,15.416C15.479,15.212 11.828,12.985 9.204,9.996C9.121,9.898 9.035,9.8 8.952,9.702C6.313,6.566 4.678,2.718 3.381,-1.168C1.338,-1.458 -0.513,-3.15 -0.957,-5.167C-1.296,-6.709 -0.836,-8.386 0.182,-9.592L0.237,-9.513L0,-9.211Z" style="fill:rgb(255,190,157);fill-rule:nonzero;"/>
                </g>
                <g transform="matrix(1,0,0,1,119.781,168.514)">
                    <path d="M0,2.962L0,2.966C-4.184,9.396 -11.857,13.429 -19.523,13.267C-27.194,13.429 -34.868,9.396 -39.052,2.966C-37.348,2.246 -35.734,1.375 -34.303,0.211C-32.248,-1.467 -30.39,-6.28 -29.765,-10.467C-27.142,-7.478 -23.489,-5.251 -19.523,-5.047C-15.585,-5.251 -11.944,-7.456 -9.328,-10.422C-8.673,-6.246 -6.796,-1.459 -4.749,0.211C-3.316,1.375 -1.704,2.246 0,2.962" style="fill:rgb(255,190,157);fill-rule:nonzero;"/>
                </g>
                <g transform="matrix(1,0,0,1,141.984,166.141)">
                    <path d="M0,48.084L-83.458,48.084L-83.458,33.362C-83.458,26.295 -83.782,18.15 -78.31,12.81C-75.411,9.982 -70.07,8.99 -66.884,6.491C-64.377,4.524 -58.928,1.95 -56.899,1.098C-52.716,7.528 -49.397,15.802 -41.727,15.64C-34.061,15.802 -31.11,6.43 -26.927,0L-20.726,3.325C-18.698,4.181 -16.398,6.296 -14.292,6.937C-10.417,8.113 -8.047,9.982 -5.148,12.81C0.328,18.15 0,26.295 0,33.362L0,48.084Z" style="fill:rgb(0,204,102);fill-rule:nonzero;"/>
                </g>
                <g transform="matrix(1,0,0,1,80.9939,106.916)">
                    <path d="M0,31.543C-2.104,28.735 -3.216,25.192 -3.095,21.687C-2.975,18.147 -1.606,14.661 0.72,11.989C1.401,11.201 2.182,10.474 3.132,10.052C4.187,9.585 5.076,9.765 6.136,9.95C7.982,5.876 10.546,2.529 14.959,1.028C19.105,-0.381 23.907,0.305 27.491,2.826C29.157,3.999 30.574,5.536 32.376,6.49C34.178,7.443 36.624,7.651 38.09,6.23C38.316,8.778 37.814,11.017 36.277,13.063C38.267,15.072 39.466,17.443 39.85,20.243C40.238,23.047 39.967,25.9 39.529,28.693C39.375,29.67 39.047,30.827 38.104,31.102C38.098,31.106 38.094,31.109 38.086,31.109C37.51,31.272 36.896,31.03 36.401,30.691C34.788,29.583 34.087,27.585 33.435,25.739C32.779,23.892 31.942,21.913 30.209,20.997C28.983,20.345 27.503,20.356 26.138,20.62C24.773,20.88 23.462,21.374 22.098,21.638C17.363,22.565 12.178,20.466 9.422,16.508C9.452,22.98 5.604,29.018 -0.182,31.924L0.056,31.622L0,31.543Z" style="fill:rgb(1,51,25);fill-rule:nonzero;"/>
                </g>
                <g opacity="0.07">
                    <g transform="matrix(1,0,0,1,104.838,158.707)">
                        <path d="M0,10.709C0.098,10.84 0.177,10.98 0.254,11.12C1.201,10.531 2.162,9.96 3.127,9.417C3.651,9.122 5.398,8.328 5.445,8.245C6.044,7.189 6.834,6.509 7.703,6.135C6.955,4.382 6.395,2.55 6.047,0.676C3.747,3.357 0.284,5.005 -3.247,5.101C-6.778,5.196 -10.324,3.736 -12.767,1.183L-14.149,-0.411C-11.947,3.562 -8.325,6.728 -4.094,8.38C-2.609,8.96 -0.952,9.431 0,10.709" style="fill-rule:nonzero;"/>
                    </g>
                </g>
                <g transform="matrix(1,0,0,1,90.0671,214.56)">
                    <path d="M0,-56.177C-0.055,-55.813 -0.118,-55.449 -0.188,-55.087C-0.525,-53.353 -0.932,-51.275 -1.809,-49.72C-2.192,-49.041 -3.019,-48.757 -3.673,-48.42C-8.466,-45.959 -13.13,-43.26 -17.829,-40.629C-21.689,-38.468 -26.117,-36.445 -28.532,-32.54C-31.793,-27.266 -31.491,-20.681 -31.491,-14.721L-31.491,0L10.461,0" style="fill:none;fill-rule:nonzero;stroke:rgb(1,51,25);stroke-width:2.01px;"/>
                </g>
                <g transform="matrix(1,0,0,1,111.385,214.56)">
                    <path d="M0,-56.177C0.055,-55.813 0.117,-55.449 0.188,-55.087C0.525,-53.353 0.932,-51.275 1.809,-49.72C2.192,-49.041 3.019,-48.757 3.673,-48.42C8.466,-45.959 13.13,-43.26 17.829,-40.629C21.689,-38.468 26.117,-36.445 28.532,-32.54C31.793,-27.266 31.491,-20.681 31.491,-14.721L31.491,0L-10.461,0" style="fill:none;fill-rule:nonzero;stroke:rgb(1,51,25);stroke-width:2.01px;"/>
                </g>
                <g transform="matrix(0,1,1,0,81.6556,207.935)">
                    <path d="M-6.005,-6.005L6.005,-6.005" style="fill:none;fill-rule:nonzero;stroke:rgb(1,51,25);stroke-width:2.01px;"/>
                </g>
                <g transform="matrix(0,1,1,0,130.964,207.935)">
                    <path d="M-6.005,-6.005L6.005,-6.005" style="fill:none;fill-rule:nonzero;stroke:rgb(1,51,25);stroke-width:2.01px;"/>
                </g>
                <g transform="matrix(1,0,0,1,119.238,153.715)">
                    <path d="M0,-15.875C1.732,-14.755 2.656,-12.51 2.213,-10.495C1.77,-8.479 -0.081,-6.788 -2.124,-6.498C-3.421,-2.611 -5.06,1.238 -7.696,4.374C-10.333,7.509 -14.096,9.878 -18.187,10.087C-22.278,9.878 -26.042,7.509 -28.679,4.374C-31.315,1.238 -32.954,-2.611 -34.25,-6.498C-36.293,-6.788 -38.145,-8.479 -38.588,-10.495C-39.031,-12.51 -38.107,-14.755 -36.375,-15.875C-32.918,-18.111 -30.559,-21.85 -30.382,-25.962" style="fill:none;fill-rule:nonzero;stroke:rgb(1,51,25);stroke-width:2.01px;"/>
                </g>
                <g transform="matrix(1,0,0,1,112.404,176.235)">
                    <path d="M0,-10.767L-0.177,-3.302L-0.207,-3.288L-7.376,0.188L-7.486,0.13L-7.405,-0.029L-10.994,-5.054C-11.061,-5.148 -11.164,-5.206 -11.274,-5.221C-6.971,-7.125 -3.287,-9.131 0.007,-10.955L0,-10.767Z" style="fill:white;fill-rule:nonzero;"/>
                </g>
                <g transform="matrix(1,0,0,1,100.68,170.522)">
                    <path d="M0,0.659L-3.434,5.474L-3.441,5.467L-11.826,2.115L-11.826,2.107L-12.048,-4.815C-8.216,-3.055 -4.192,-0.593 0.243,0.5C0.147,0.514 0.066,0.572 0,0.659" style="fill:white;fill-rule:nonzero;"/>
                </g>
                <g transform="matrix(1,0,0,1,88.8542,201.593)">
                    <path d="M0,-28.956L8.385,-25.603L8.393,-25.596L8.245,-25.386L9.667,-22.591C9.667,-22.591 9.814,-22.584 10.051,-22.57L10.08,-22.498C10.228,-22.498 10.382,-22.526 10.529,-22.548L6.786,0C2.999,-9.167 0.044,-18.522 0,-28.956" style="fill:white;fill-rule:nonzero;"/>
                </g>
                <g transform="matrix(1,0,0,1,105.028,195.307)">
                    <path d="M0,-18.884L7.169,-22.36C7.081,-13.113 4.716,-4.714 1.525,3.462L1.525,3.44L1.511,3.476L-1.85,-16.147L-1.982,-16.154C-1.96,-16.19 -1.938,-16.234 -1.924,-16.27L-1.459,-16.306L-0.11,-18.942L0,-18.884Z" style="fill:white;fill-rule:nonzero;"/>
                </g>
                <g transform="matrix(1,0,0,1,100.526,167.148)">
                    <path d="M0,45.588L1.341,46.211C1.083,46.421 0.825,46.624 0.56,46.826C0.375,46.971 0.191,47.116 0,47.254C-0.192,47.116 -0.376,46.971 -0.561,46.826C-8.953,40.367 -14.848,31.374 -17.552,21.187L-14.273,17.088L-20.227,14.836C-19.91,8.645 -17.08,2.607 -12.497,-1.666L-11.894,-1.441L-11.672,5.481L-11.672,5.488C-11.628,15.922 -8.673,25.277 -4.886,34.444L-4.9,34.531L-4.038,36.45C-2.749,39.499 -1.371,42.525 0,45.581L0,45.588Z" style="fill:white;fill-rule:nonzero;"/>
                </g>
                <g transform="matrix(1,0,0,1,113.022,213.345)">
                    <path d="M0,-47.863C4.584,-43.591 7.413,-37.552 7.737,-31.361L1.783,-29.109L5.062,-25.01C2.432,-15.141 -3.176,-6.394 -11.155,0.014L-12.496,-0.609L-12.496,-0.616C-10.396,-5.265 -8.304,-9.87 -6.483,-14.54L-6.469,-14.468L-6.469,-14.576C-3.278,-22.752 -0.913,-31.151 -0.825,-40.398L-0.795,-40.412L-0.618,-47.877L0,-47.863Z" style="fill:white;fill-rule:nonzero;"/>
                </g>
                <g transform="matrix(1,0,0,1,106.553,198.877)">
                    <path d="M0,-0.108L0,0L-0.015,-0.072C-0.008,-0.087 0,-0.094 0,-0.108" style="fill:rgb(0,79,40);fill-rule:nonzero;"/>
                </g>
                <g transform="matrix(0,1,1,0,106.575,198.784)">
                    <rect x="-0.037" y="-0.037" width="0.058" height="0.015" style="fill:rgb(0,79,40);"/>
                </g>
                <g transform="matrix(1,0,0,1,103.178,212.367)">
                    <path d="M0,-33.206L3.36,-13.583L-2.719,0.116L-6.69,-8.768C-6.979,-9.435 -7.258,-10.108 -7.538,-10.774L-3.795,-33.322L-3.787,-33.322C-3.257,-33.293 -2.594,-33.264 -2.13,-33.235C-1.791,-33.221 -1.555,-33.206 -1.555,-33.206L-1.12,-33.242L-0.133,-33.206L-0.133,-33.213L0,-33.206Z" style="fill:rgb(0,79,40);fill-rule:nonzero;"/>
                </g>
                <g transform="matrix(1,0,0,1,104.63,174.165)">
                    <path d="M0,1.933L-1.061,3.953C-1.216,4.257 -1.37,4.569 -1.525,4.873L-2.401,4.945L-5.231,4.801L-5.246,4.88C-5.431,4.873 -5.593,4.866 -5.725,4.858L-7.088,1.477L-3.905,-2.426L-3.44,-3.012L-0.397,1.086C-0.191,1.332 -0.051,1.629 0,1.933" style="fill:rgb(0,79,40);fill-rule:nonzero;"/>
                </g>
                <g transform="matrix(1,0,0,1,103.104,179.154)">
                    <path d="M0,-0.116C-0.015,-0.08 -0.036,-0.036 -0.059,0L-0.876,-0.044L0,-0.116Z" style="fill:rgb(0,79,40);fill-rule:nonzero;"/>
                </g>
                <g transform="matrix(0,1,1,0,102.534,179.629)">
                    <path d="M-0.475,0.511L-0.468,0.511L-0.504,-0.476L-0.519,-0.306L-0.475,0.511Z" style="fill:rgb(0,79,40);fill-rule:nonzero;"/>
                </g>
                <g transform="matrix(1,0,0,1,102.058,179.066)">
                    <path d="M0,0.058L-0.435,0.094C-0.435,0.094 -0.671,0.079 -1.01,0.065C-1.474,0.036 -2.137,0.007 -2.667,-0.022C-2.646,-0.029 -2.616,-0.036 -2.594,-0.036L0,0.058Z" style="fill:rgb(0,79,40);fill-rule:nonzero;"/>
                </g>
                <g transform="matrix(1,0,0,1,99.3982,179.124)">
                    <path d="M0,-0.159L2.83,-0.014L2.66,0L0.066,-0.094C0.044,-0.094 0.015,-0.087 -0.007,-0.079L-0.015,-0.079L0,-0.159Z" style="fill:rgb(0,79,40);fill-rule:nonzero;"/>
                </g>
                <g transform="matrix(1,0,0,1,99.3835,179.073)">
                    <path d="M0,-0.028C-0.147,-0.007 -0.302,0.022 -0.449,0.022L-0.479,-0.05C-0.347,-0.043 -0.185,-0.035 0,-0.028" style="fill:rgb(0,79,40);fill-rule:nonzero;"/>
                </g>
                <g transform="matrix(1,0,0,1,96.488,201.593)">
                    <path d="M0,2.006L-0.862,0.087L-0.848,0C-0.567,0.666 -0.288,1.339 0,2.006" style="fill:rgb(0,79,40);fill-rule:nonzero;"/>
                </g>
                <g transform="matrix(1,0,0,1,101.046,170.651)">
                    <path d="M0,0.403C4.347,-1.517 8.051,-3.529 11.368,-5.37L11.182,2.283L3.98,5.773" style="fill:none;fill-rule:nonzero;stroke:rgb(1,51,25);stroke-width:2.01px;stroke-linejoin:round;"/>
                </g>
                <g transform="matrix(1,0,0,1,101.048,170.962)">
                    <path d="M0,8.167C0.34,8.185 0.574,8.196 0.574,8.196L2.521,8.039L3.947,5.241L0.363,0.22C0.186,-0.029 -0.189,-0.029 -0.367,0.22L-3.951,5.241L-2.524,8.039C-2.524,8.039 -0.896,8.122 0,8.167Z" style="fill:none;fill-rule:nonzero;stroke:rgb(1,51,25);stroke-width:2.01px;stroke-linejoin:round;"/>
                </g>
                <g transform="matrix(1,0,0,1,101.046,170.643)">
                    <path d="M0,0.411C-4.487,-0.669 -8.545,-3.163 -12.409,-4.932L-12.192,1.991L-3.805,5.343" style="fill:none;fill-rule:nonzero;stroke:rgb(1,51,25);stroke-width:2.01px;stroke-linejoin:round;"/>
                </g>
                <g transform="matrix(1,0,0,1,100.528,165.485)">
                    <path d="M0,48.919C-0.191,48.782 -0.376,48.637 -0.561,48.492C-8.953,42.033 -14.848,33.04 -17.552,22.852L-14.272,18.754L-20.227,16.502C-19.91,10.311 -17.08,4.272 -12.497,0" style="fill:none;fill-rule:nonzero;stroke:rgb(1,51,25);stroke-width:2.01px;stroke-linejoin:round;"/>
                </g>
                <g transform="matrix(1,0,0,1,88.8562,212.738)">
                    <path d="M0,-40.107C0.059,-25.43 5.88,-12.896 11.672,-0.007L11.672,0" style="fill:none;fill-rule:nonzero;stroke:rgb(1,51,25);stroke-width:2.01px;stroke-linejoin:round;"/>
                </g>
                <g transform="matrix(1,0,0,1,113.025,214.404)">
                    <path d="M0,-48.919C4.583,-44.647 7.412,-38.608 7.736,-32.417L1.783,-30.165L5.062,-26.067C2.351,-15.879 -3.545,-6.886 -11.938,-0.427C-12.121,-0.282 -12.306,-0.137 -12.497,0" style="fill:none;fill-rule:nonzero;stroke:rgb(1,51,25);stroke-width:2.01px;stroke-linejoin:round;"/>
                </g>
                <g transform="matrix(0.279584,-0.960121,-0.960121,-0.279584,123.989,203.899)">
                    <path d="M-15.047,20.054C-1.051,18.089 12.609,16.012 26.726,20.054" style="fill:none;fill-rule:nonzero;stroke:rgb(1,51,25);stroke-width:2.01px;stroke-linejoin:round;"/>
                </g>
                <g transform="matrix(1,0,0,1,99.3991,212.483)">
                    <path d="M0,-33.52L-3.775,-10.805L1.06,0L7.153,-13.734L7.153,-13.603L3.775,-33.325L0,-33.52Z" style="fill:rgb(1,51,25);fill-rule:nonzero;"/>
                </g>
                <g transform="matrix(1,0,0,1,101.187,179.158)">
                    <path d="M0,-8.005L-0.463,-7.42L-3.643,-3.514L-2.252,-0.065C-2.073,-0.065 -1.898,-0.109 -1.722,-0.13L1.855,0C2.031,-0.347 2.208,-0.694 2.385,-1.041L3.444,-3.059C3.388,-3.368 3.249,-3.662 3.047,-3.905L0,-8.005Z" style="fill:rgb(1,51,25);fill-rule:nonzero;"/>
                </g>
                <g opacity="0.15">
                    <g transform="matrix(0,-1,-1,0,205.819,114.748)">
                        <path d="M-37.515,-37.515C-58.234,-37.515 -75.03,-20.719 -75.03,0.001C-75.03,20.719 -58.234,37.515 -37.515,37.515C-16.795,37.515 0.001,20.719 0.001,0.001C0.001,-20.719 -16.795,-37.515 -37.515,-37.515" style="fill:rgb(1,51,25);fill-rule:nonzero;"/>
                    </g>
                </g>
                <g transform="matrix(0,-1,-1,0,210.819,111.748)">
                    <path d="M-37.515,-37.515C-58.234,-37.515 -75.03,-20.719 -75.03,0.001C-75.03,20.719 -58.234,37.515 -37.515,37.515C-16.795,37.515 0.001,20.719 0.001,0.001C0.001,-20.719 -16.795,-37.515 -37.515,-37.515" style="fill:white;fill-rule:nonzero;"/>
                </g>
                <g transform="matrix(0,-1,-1,0,210.82,117.22)">
                    <path d="M-32.042,-32.042C-49.74,-32.042 -64.084,-17.695 -64.084,0.001C-64.084,17.697 -49.74,32.042 -32.042,32.042C-14.346,32.042 -0,17.697 -0,0.001C-0,-17.695 -14.346,-32.042 -32.042,-32.042" style="fill:rgb(212,216,219);fill-rule:nonzero;"/>
                </g>
                <g transform="matrix(0,-1,-1,0,210.819,111.748)">
                    <ellipse cx="-37.515" cy="0" rx="37.515" ry="37.515" style="fill:none;stroke:rgb(1,51,25);stroke-width:2.01px;"/>
                </g>
                <g transform="matrix(1.00428,0,0,1.00428,-3.80885,-0.592469)">
                    <text x="186.832px" y="147.858px" style="font-family:'Montserrat-ExtraBold', 'Montserrat';font-weight:800;font-size:12.671px;fill:rgb(1,51,25);">1<tspan x="191.53px 196.228px 199.203px 207.449px 215.695px 223.966px " y="147.858px 147.858px 147.858px 147.858px 147.858px 147.858px ">1,000+</tspan></text>
                    <text x="186.023px" y="157.063px" style="font-family:'Montserrat-ExtraBold', 'Montserrat';font-weight:800;font-size:6.364px;fill:rgb(1,51,25);">s<tspan x="189.326px 191.992px 195.81px 198.215px 203.121px 207.422px " y="157.063px 157.063px 157.063px 157.063px 157.063px 157.063px ">tafng</tspan></text>
                    <text x="212.578px" y="157.063px" style="font-family:'Montserrat-ExtraBold', 'Montserrat';font-weight:800;font-size:6.364px;fill:rgb(1,51,25);">a<tspan x="216.446px 220.754px 224.661px 228.963px 232.622px 234.435px 238.342px " y="157.063px 157.063px 157.063px 157.063px 157.063px 157.063px 157.063px ">gencies</tspan></text>
                </g>
            </g>
        </g>
    </g>
</svg>
