<?xml version="1.0" encoding="UTF-8" standalone="no"?>
<!DOCTYPE svg PUBLIC "-//W3C//DTD SVG 1.1//EN" "http://www.w3.org/Graphics/SVG/1.1/DTD/svg11.dtd">
<svg width="100%" height="100%" viewBox="0 0 216 158" version="1.1" xmlns="http://www.w3.org/2000/svg" xmlns:xlink="http://www.w3.org/1999/xlink" xml:space="preserve" xmlns:serif="http://www.serif.com/" style="fill-rule:evenodd;clip-rule:evenodd;stroke-linecap:round;stroke-miterlimit:10;">
    <g transform="matrix(0.995736,0,0,0.995736,-47.1103,-56.2321)">
        <g id="Layer-1" serif:id="Layer 1">
            <g>
                <g transform="matrix(1,0,0,1,252.637,49.2076)">
                    <path d="M0,165.353C0,165.353 -8.443,133.979 2.472,118.964C13.387,103.95 11.879,77.01 -20.241,67.437C-52.361,57.866 -40.064,29.106 -64.534,14.554C-89.004,0 -119.115,7.069 -133.944,37.318C-148.774,67.568 -183.414,44.565 -198.15,67.437C-210.625,86.798 -182.962,96.447 -187.958,111.373C-192.953,126.299 -205.63,150.476 -196.05,165.353L0,165.353Z" style="fill:rgb(212,216,219);fill-rule:nonzero;"/>
                </g>
                <g transform="matrix(-1,0.000744546,0.000744546,1,202.958,116.584)">
                    <path d="M0.477,-13.431C0.477,-13.431 -0.061,-7.83 6.806,-6.51C6.806,-6.51 0.584,-6.023 0.477,-0C0.477,-0 0.423,-5.3 -6.324,-6.711C-6.324,-6.711 -0.18,-7.227 0.477,-13.431" style="fill:rgb(0,204,102);fill-rule:nonzero;"/>
                </g>
                <g transform="matrix(-1,0.000782035,0.000782035,1,185.213,209.297)">
                    <path d="M0.316,-8.951C0.316,-8.951 -0.042,-5.218 4.535,-4.338C4.535,-4.338 0.387,-4.014 0.316,-0C0.316,-0 0.281,-3.532 -4.215,-4.472C-4.215,-4.472 -0.121,-4.817 0.316,-8.951" style="fill:rgb(23,169,230);fill-rule:nonzero;"/>
                </g>
                <g transform="matrix(-1,0.000744546,0.000744546,1,82.3006,129.001)">
                    <path d="M0.477,-13.431C0.477,-13.431 -0.061,-7.83 6.806,-6.51C6.806,-6.51 0.584,-6.023 0.477,-0C0.477,-0 0.422,-5.301 -6.324,-6.711C-6.324,-6.711 -0.18,-7.228 0.477,-13.431" style="fill:rgb(23,169,230);fill-rule:nonzero;"/>
                </g>
                <g transform="matrix(-1,0.000856374,0.000856374,1,164.879,204.12)">
                    <path d="M0.29,-8.174C0.29,-8.174 -0.037,-4.765 4.143,-3.962C4.143,-3.962 0.355,-3.666 0.29,-0C0.29,-0 0.258,-3.226 -3.849,-4.084C-3.849,-4.084 -0.109,-4.399 0.29,-8.174" style="fill:white;fill-rule:nonzero;"/>
                </g>
                <g transform="matrix(-1,0.000734035,0.000734035,1,88.7688,139.701)">
                    <path d="M0.29,-8.174C0.29,-8.174 -0.037,-4.765 4.142,-3.962C4.142,-3.962 0.355,-3.666 0.29,-0C0.29,-0 0.258,-3.226 -3.849,-4.084C-3.849,-4.084 -0.11,-4.399 0.29,-8.174" style="fill:white;fill-rule:nonzero;"/>
                </g>
                <g transform="matrix(-1,0.00077386,0.00077386,1,76.6218,187.6)">
                    <path d="M0.413,-11.63C0.413,-11.63 -0.053,-6.78 5.894,-5.636C5.894,-5.636 0.505,-5.215 0.413,-0C0.413,-0 0.367,-4.589 -5.476,-5.811C-5.476,-5.811 -0.156,-6.258 0.413,-11.63" style="fill:rgb(175,179,177);fill-rule:nonzero;"/>
                </g>
                <g transform="matrix(0.859771,0.510679,0.510679,-0.859771,80.3705,101.067)">
                    <path d="M10.247,-39.016L50.528,-39.016L85.492,14.291L113.05,14.39L131.58,55.003" style="fill:none;fill-rule:nonzero;stroke:rgb(1,51,25);stroke-width:2.01px;"/>
                </g>
                <g transform="matrix(-1,0,0,1,44.2992,214.561)">
                    <path d="M-2.072,0L0,0" style="fill:none;fill-rule:nonzero;stroke:rgb(1,51,25);stroke-width:2.01px;"/>
                </g>
                <g transform="matrix(1,0,0,1,51.2228,214.567)">
                    <path d="M0,0L206.653,0" style="fill:none;fill-rule:nonzero;stroke:rgb(1,51,25);stroke-width:2.01px;"/>
                </g>
                <g opacity="0.15">
                    <g transform="matrix(0,-1,-1,0,217.877,141.793)">
                        <path d="M-32.827,-32.827C-50.957,-32.827 -65.654,-18.13 -65.654,0C-65.654,18.13 -50.957,32.827 -32.827,32.827C-14.697,32.827 0,18.13 0,0C0,-18.13 -14.697,-32.827 -32.827,-32.827" style="fill:rgb(1,51,25);fill-rule:nonzero;"/>
                    </g>
                </g>
                <g transform="matrix(0,-1,-1,0,222.252,139.168)">
                    <path d="M-32.827,-32.827C-50.957,-32.827 -65.654,-18.13 -65.654,0C-65.654,18.13 -50.957,32.827 -32.827,32.827C-14.697,32.827 0,18.13 0,0C0,-18.13 -14.697,-32.827 -32.827,-32.827" style="fill:white;fill-rule:nonzero;"/>
                </g>
                <g transform="matrix(0,-1,-1,0,222.253,143.956)">
                    <path d="M-28.039,-28.039C-43.524,-28.039 -56.078,-15.484 -56.078,0.001C-56.078,15.486 -43.524,28.039 -28.039,28.039C-12.553,28.039 0.001,15.486 0.001,0.001C0.001,-15.484 -12.553,-28.039 -28.039,-28.039" style="fill:rgb(212,216,219);fill-rule:nonzero;"/>
                </g>
                <g transform="matrix(0,-1,-1,0,222.252,139.168)">
                    <circle cx="-32.827" cy="0" r="32.827" style="fill:none;stroke:rgb(1,51,25);stroke-width:2.01px;"/>
                </g>
                <g transform="matrix(1.00428,0,0,1.00428,-2.85677,-1.68808)">
                    <text x="205.836px" y="168.685px" style="font-family:'Montserrat-ExtraBold', 'Montserrat';font-weight:800;font-size:12.151px;fill:rgb(1,51,25);">15,<tspan x="221.419px " y="168.685px ">0</tspan>00</text>
                    <text x="198.058px" y="177.655px" style="font-family:'Montserrat-ExtraBold', 'Montserrat';font-weight:800;font-size:5.37px;fill:rgb(1,51,25);">a<tspan x="201.248px 204.803px 208.359px 211.893px 215.083px " y="177.655px 177.655px 177.655px 177.655px 177.655px ">nnual</tspan></text>
                    <text x="217.252px" y="177.655px" style="font-family:'Montserrat-ExtraBold', 'Montserrat';font-weight:800;font-size:5.37px;fill:rgb(1,51,25);">p<tspan x="220.802px 222.3px 225.534px 228.557px 231.823px 237.295px 240.561px 244.116px 246.335px " y="177.655px 177.655px 177.655px 177.655px 177.655px 177.655px 177.655px 177.655px 177.655px ">lacements</tspan></text>
                    <text x="209.313px" y="184.095px" style="font-family:'Montserrat-ExtraBold', 'Montserrat';font-weight:800;font-size:5.37px;fill:rgb(1,51,25);">p<tspan x="212.901px 216.203px 218.438px 219.855px 222.648px 224.904px 228.131px 230.167px 232.17px 235.473px " y="184.095px 184.095px 184.095px 184.095px 184.095px 184.095px 184.095px 184.095px 184.095px 184.095px ">er staffer</tspan></text>
                </g>
                <g opacity="0.42">
                    <g transform="matrix(-0.0394739,0.999221,0.999221,0.0394739,136.192,117.57)">
                        <path d="M32.87,-34.194C51.037,-34.194 65.765,-19.466 65.765,-1.298C65.764,16.87 51.037,31.596 32.87,31.597C14.702,31.597 -0.026,16.869 -0.026,-1.298C-0.026,-19.466 14.702,-34.193 32.87,-34.194" style="fill:white;fill-rule:nonzero;"/>
                    </g>
                </g>
                <g transform="matrix(1,0,0,1,107.944,203.21)">
                    <path d="M0,-15.446L-23.836,9.736C-24.834,10.79 -26.497,10.835 -27.551,9.838L-34.019,3.716C-35.072,2.718 -35.118,1.054 -34.12,0L-10.284,-25.181C-9.287,-26.235 -7.623,-26.281 -6.569,-25.283L-0.102,-19.161C0.952,-18.163 0.998,-16.5 0,-15.446Z" style="fill:rgb(0,204,102);fill-rule:nonzero;stroke:rgb(1,51,25);stroke-width:2.01px;"/>
                </g>
                <g transform="matrix(0.687406,-0.726274,-0.726274,-0.687406,112.13,182.06)">
                    <rect x="-4.392" y="2.196" width="9.494" height="8.008" style="fill:rgb(134,132,136);"/>
                </g>
                <g transform="matrix(0.687406,-0.726274,-0.726274,-0.687406,112.13,182.06)">
                    <rect x="-4.392" y="2.196" width="9.494" height="8.008" style="fill:rgb(1,51,25);"/>
                </g>
                <g transform="matrix(1,0,0,1,97.7999,150.362)">
                    <path d="M0,0C0,19.771 16.027,35.798 35.798,35.798C55.568,35.798 71.595,19.771 71.595,0C71.595,-19.771 55.568,-35.798 35.798,-35.798C16.027,-35.798 0,-19.771 0,0M35.798,-29.708C52.205,-29.708 65.506,-16.408 65.506,0C65.506,16.408 52.205,29.709 35.798,29.709C19.39,29.709 6.089,16.408 6.089,0C6.089,-16.408 19.39,-29.708 35.798,-29.708" style="fill:rgb(0,204,102);fill-rule:nonzero;"/>
                </g>
                <g transform="matrix(1,0,0,1,97.7999,150.362)">
                    <path d="M0,0C0,19.771 16.027,35.798 35.798,35.798C55.568,35.798 71.595,19.771 71.595,0C71.595,-19.771 55.568,-35.798 35.798,-35.798C16.027,-35.798 0,-19.771 0,0ZM35.798,-29.708C52.205,-29.708 65.506,-16.408 65.506,0C65.506,16.408 52.205,29.709 35.798,29.709C19.39,29.709 6.089,16.408 6.089,0C6.089,-16.408 19.39,-29.708 35.798,-29.708Z" style="fill:none;fill-rule:nonzero;stroke:rgb(1,51,25);stroke-width:2.01px;"/>
                </g>
                <g transform="matrix(1,0,0,1,146.375,136.592)">
                    <path d="M0,28.625C-3.663,32.288 -8.723,34.553 -14.313,34.553C-25.491,34.553 -34.553,25.491 -34.553,14.313C-34.553,3.134 -25.491,-5.928 -14.313,-5.928L-14.313,14.313L0,28.625Z" style="fill:rgb(23,169,230);fill-rule:nonzero;"/>
                </g>
                <g transform="matrix(0.911496,-0.41131,-0.41131,-0.911496,160.083,159.747)">
                    <path d="M-8.314,-1.039C-4.534,1.447 -1.392,5 0.606,9.428C5.669,20.649 1.658,33.658 -8.314,40.21L-17.708,19.391L-8.314,-1.039Z" style="fill:white;fill-rule:nonzero;"/>
                </g>
                <g transform="matrix(0,-1,-1,0,68.7452,135.614)">
                    <path d="M-4.231,-4.232C-6.568,-4.232 -8.462,-2.337 -8.462,-0C-8.462,2.335 -6.568,4.231 -4.231,4.231C-1.895,4.231 -0.001,2.335 -0.001,-0C-0.001,-2.337 -1.895,-4.232 -4.231,-4.232" style="fill:white;fill-rule:nonzero;"/>
                </g>
                <g transform="matrix(0,-1,-1,0,68.7452,135.614)">
                    <ellipse cx="-4.231" cy="-0" rx="4.231" ry="4.231" style="fill:none;stroke:rgb(1,51,25);stroke-width:2.01px;"/>
                </g>
                <g transform="matrix(0,-1,-1,0,184.916,141.083)">
                    <path d="M-4.232,-4.231C-6.568,-4.231 -8.462,-2.336 -8.462,-0C-8.462,2.336 -6.568,4.232 -4.232,4.232C-1.896,4.232 -0.001,2.336 -0.001,-0C-0.001,-2.336 -1.896,-4.231 -4.232,-4.231" style="fill:white;fill-rule:nonzero;"/>
                </g>
                <g transform="matrix(0,-1,-1,0,184.916,141.083)">
                    <ellipse cx="-4.231" cy="0.001" rx="4.231" ry="4.231" style="fill:none;stroke:rgb(1,51,25);stroke-width:2.01px;"/>
                </g>
                <g transform="matrix(0,-1,-1,0,220.065,118.054)">
                    <path d="M-4.231,-4.23C-6.567,-4.23 -8.461,-2.336 -8.461,0C-8.461,2.336 -6.567,4.231 -4.231,4.231C-1.895,4.231 0,2.336 0,0C0,-2.336 -1.895,-4.23 -4.231,-4.23" style="fill:white;fill-rule:nonzero;"/>
                </g>
                <g transform="matrix(0,-1,-1,0,220.065,118.054)">
                    <circle cx="-4.231" cy="0.001" r="4.231" style="fill:none;stroke:rgb(1,51,25);stroke-width:2.01px;"/>
                </g>
                <g transform="matrix(0,-1,-1,0,164.728,65.728)">
                    <path d="M-24.418,-24.418C-37.905,-24.418 -48.837,-13.485 -48.837,-0C-48.837,13.485 -37.905,24.418 -24.418,24.418C-10.932,24.418 -0,13.485 -0,-0C-0,-13.485 -10.932,-24.418 -24.418,-24.418" style="fill:white;fill-rule:nonzero;"/>
                </g>
                <g>
                    <clipPath id="_clip1">
                        <path d="M140.31,90.146C140.31,103.632 151.242,114.564 164.729,114.564C178.214,114.564 189.147,103.632 189.147,90.146C189.147,76.661 178.214,65.728 164.729,65.728C151.242,65.728 140.31,76.661 140.31,90.146Z" clip-rule="nonzero"/>
                    </clipPath>
                    <g clip-path="url(#_clip1)">
                        <g opacity="0.15">
                            <g transform="matrix(1,0,0,1,174.996,120.6)">
                                <path d="M0,-20.298C7.632,-15.88 15.265,-16.985 15.265,-5.94L15.265,0L-32.71,0L-32.71,-5.94C-32.71,-16.985 -25.078,-15.88 -17.445,-20.298L0,-20.298Z" style="fill-rule:nonzero;"/>
                            </g>
                            <g transform="matrix(1,0,0,1,170.635,92.5712)">
                                <path d="M0,12.149L-4.361,9.94L-8.723,12.149L-13.084,7.731L-10.903,4.418L-9.813,4.418L-9.813,0L-4.361,1.104L1.09,0L1.09,4.418L2.181,4.418L4.361,7.731L0,12.149Z" style="fill-rule:nonzero;"/>
                            </g>
                            <g transform="matrix(1,0,0,1,174.996,120.6)">
                                <path d="M0,-20.298C7.632,-15.88 15.265,-16.985 15.265,-5.94L15.265,0L-32.71,0L-32.71,-5.94C-32.71,-16.985 -25.078,-15.88 -17.445,-20.298" style="fill-rule:nonzero;"/>
                            </g>
                            <g transform="matrix(1,0,0,1,170.635,96.9892)">
                                <path d="M0,7.731L-4.361,5.522L-8.723,7.731L-13.084,3.313L-10.903,0L-4.361,1.104L2.181,0L4.361,3.313L0,7.731Z" style="fill-rule:nonzero;"/>
                            </g>
                            <g transform="matrix(1,0,0,1,176.086,91.4664)">
                                <path d="M0,-13.254L0,-8.836C-1.09,-1.105 -4.361,1.104 -4.361,1.104C-6.542,2.209 -9.813,2.209 -9.813,2.209C-9.813,2.209 -13.084,2.209 -15.265,1.104C-15.265,1.104 -18.535,-1.105 -19.626,-8.836L-19.626,-13.254L-15.265,-15.463L-4.361,-11.045L0,-13.254Z" style="fill-rule:nonzero;"/>
                            </g>
                            <g transform="matrix(1,0,0,1,156.46,70.4814)">
                                <path d="M0,7.731C0,1.021 3.189,-2.209 9.813,-2.209C16.437,-2.209 19.626,1.021 19.626,7.731L15.265,9.94L4.361,5.522L0,7.731Z" style="fill-rule:nonzero;"/>
                            </g>
                            <g transform="matrix(1,0,0,1,176.086,93.6754)">
                                <path d="M0,-15.463L0,-11.045C-1.09,-3.314 -4.361,-1.105 -4.361,-1.105C-6.542,0 -9.813,0 -9.813,0C-9.813,0 -13.084,0 -15.265,-1.105C-15.265,-1.105 -18.535,-3.314 -19.626,-11.045L-19.626,-15.463" style="fill-rule:nonzero;"/>
                            </g>
                            <g transform="matrix(1,0,0,1,156.46,68.2724)">
                                <path d="M0,9.94C0,3.23 3.189,0 9.813,0C16.437,0 19.626,3.23 19.626,9.94" style="fill-rule:nonzero;"/>
                            </g>
                            <g transform="matrix(0.892083,-0.451871,-0.451871,-0.892083,157.519,82.6466)">
                                <path d="M1.059,4.434L5.948,4.434L13.678,-4.434L18.567,-4.434" style="fill-rule:nonzero;"/>
                            </g>
                        </g>
                        <g transform="matrix(1,0,0,1,173.394,120.6)">
                            <path d="M0,-20.038C7.632,-15.677 15.265,-16.767 15.265,-5.864L15.265,0L-32.71,0L-32.71,-5.864C-32.71,-16.767 -25.078,-15.677 -17.445,-20.038L0,-20.038Z" style="fill:rgb(0,204,102);fill-rule:nonzero;"/>
                        </g>
                        <g transform="matrix(1,0,0,1,160.397,120.602)">
                            <path d="M0,-20.037C-7.633,-15.679 -15.267,-16.768 -15.267,-5.866L-15.267,0L-19.714,0L-19.714,-5.866C-19.714,-16.768 -12.08,-15.679 -4.447,-20.037L0,-20.037Z" style="fill:rgb(133,237,165);fill-rule:nonzero;"/>
                        </g>
                        <g transform="matrix(0,-1,-1,0,166.471,89.3073)">
                            <path d="M-6.953,-3.651L-3.623,-3.651L-4.713,1.8L-3.682,6.953C-6.393,4.16 -6.981,0.213 -6.953,-3.651" style="fill:rgb(209,165,132);fill-rule:nonzero;"/>
                        </g>
                        <g transform="matrix(1,0,0,1,159.518,98.1768)">
                            <path d="M0,-5.187L-0.299,-5.247L-0.299,-1.24C-0.289,-1.236 -0.28,-1.236 -0.271,-1.23C0.383,-0.815 1.369,-0.768 2.115,-0.66C2.983,-0.534 3.844,-0.365 4.71,-0.235C6.669,0.06 8.746,-0.524 10.604,-1.181L10.604,-1.916C6.74,-1.889 2.794,-2.477 0,-5.187" style="fill:rgb(232,193,160);fill-rule:nonzero;"/>
                        </g>
                        <g transform="matrix(1,0,0,1,171.213,104.923)">
                            <path d="M0,-7.632L-0.553,-7.632C-0.581,-7.583 -0.623,-7.54 -0.688,-7.517C-2.546,-6.848 -4.687,-6.183 -6.681,-6.415C-7.839,-6.549 -8.993,-6.791 -10.147,-6.963C-10.817,-7.062 -11.645,-7.155 -12.229,-7.527C-12.275,-7.555 -12.303,-7.592 -12.322,-7.632L-13.084,-7.632L-15.265,-4.361L-10.903,0L-6.542,-2.18L-2.181,0L2.181,-4.361L0,-7.632Z" style="fill:white;fill-rule:nonzero;"/>
                        </g>
                        <g transform="matrix(1,0,0,1,173.394,120.6)">
                            <path d="M0,-20.038C7.632,-15.677 15.265,-16.767 15.265,-5.864L15.265,0L-32.71,0L-32.71,-5.864C-32.71,-16.767 -25.078,-15.677 -17.445,-20.038" style="fill:none;fill-rule:nonzero;stroke:rgb(1,51,25);stroke-width:2.01px;"/>
                        </g>
                        <g transform="matrix(1,0,0,1,169.032,97.2919)">
                            <path d="M0,7.632L-4.361,5.451L-8.723,7.632L-13.084,3.271L-10.903,0L-4.361,1.09L2.181,0L4.361,3.271L0,7.632Z" style="fill:none;fill-rule:nonzero;stroke:rgb(1,51,25);stroke-width:2.01px;"/>
                        </g>
                        <g transform="matrix(0,1,1,0,172.303,95.1107)">
                            <path d="M-2.181,-2.181L2.181,-2.181" style="fill:none;fill-rule:nonzero;stroke:rgb(1,51,25);stroke-width:2.01px;"/>
                        </g>
                        <g transform="matrix(1,0,0,1,174.483,91.8399)">
                            <path d="M0,-13.084L0,-8.723C-1.09,-1.09 -4.361,1.09 -4.361,1.09C-6.542,2.181 -9.813,2.181 -9.813,2.181C-9.813,2.181 -13.084,2.181 -15.265,1.09C-15.265,1.09 -18.535,-1.09 -19.626,-8.723L-19.626,-13.084L-15.265,-15.265L-4.361,-10.903L0,-13.084Z" style="fill:rgb(232,193,160);fill-rule:nonzero;"/>
                        </g>
                        <g transform="matrix(1,0,0,1,154.858,71.1239)">
                            <path d="M0,7.632C0,1.008 3.189,-2.181 9.813,-2.181C16.437,-2.181 19.626,1.008 19.626,7.632L15.265,9.813L4.361,5.451L0,7.632Z" style="fill:rgb(1,51,25);fill-rule:nonzero;"/>
                        </g>
                        <g transform="matrix(1,0,0,1,174.483,94.0209)">
                            <path d="M0,-15.265L0,-10.904C-1.09,-3.271 -4.361,-1.091 -4.361,-1.091C-6.542,0 -9.813,0 -9.813,0C-9.813,0 -13.084,0 -15.265,-1.091C-15.265,-1.091 -18.535,-3.271 -19.626,-10.904L-19.626,-15.265" style="fill:none;fill-rule:nonzero;stroke:rgb(1,51,25);stroke-width:2.01px;"/>
                        </g>
                        <g transform="matrix(1,0,0,1,154.858,68.9429)">
                            <path d="M0,9.813C0,3.189 3.189,0 9.813,0C16.437,0 19.626,3.189 19.626,9.813" style="fill:none;fill-rule:nonzero;stroke:rgb(1,51,25);stroke-width:2.01px;"/>
                        </g>
                        <g transform="matrix(0.894386,-0.447296,-0.447296,-0.894386,155.894,83.1452)">
                            <path d="M1.036,4.389L5.912,4.389L13.714,-4.389L18.59,-4.389" style="fill:none;fill-rule:nonzero;stroke:rgb(1,51,25);stroke-width:2.01px;"/>
                        </g>
                        <g transform="matrix(0,1,1,0,183.137,116.209)">
                            <path d="M-4.388,-4.388L4.388,-4.388" style="fill:none;fill-rule:nonzero;stroke:rgb(1,51,25);stroke-width:2.01px;"/>
                        </g>
                        <g transform="matrix(0,-1,-1,0,164.671,105.686)">
                            <path d="M-1.182,-1.182C-1.835,-1.182 -2.364,-0.653 -2.364,0.001C-2.364,0.653 -1.835,1.182 -1.182,1.182C-0.529,1.182 0.001,0.653 0.001,0.001C0.001,-0.653 -0.529,-1.182 -1.182,-1.182" style="fill:white;fill-rule:nonzero;"/>
                        </g>
                        <g transform="matrix(0,-1,-1,0,164.671,109.311)">
                            <path d="M-1.182,-1.182C-1.835,-1.182 -2.364,-0.653 -2.364,0.001C-2.364,0.653 -1.835,1.182 -1.182,1.182C-0.529,1.182 0.001,0.653 0.001,0.001C0.001,-0.653 -0.529,-1.182 -1.182,-1.182" style="fill:white;fill-rule:nonzero;"/>
                        </g>
                        <g transform="matrix(0,-1,-1,0,164.671,112.936)">
                            <path d="M-1.182,-1.182C-1.835,-1.182 -2.364,-0.653 -2.364,0.001C-2.364,0.653 -1.835,1.182 -1.182,1.182C-0.53,1.182 0.001,0.653 0.001,0.001C0.001,-0.653 -0.53,-1.182 -1.182,-1.182" style="fill:white;fill-rule:nonzero;"/>
                        </g>
                        <g transform="matrix(0,-1,-1,0,161.399,95.111)">
                            <path d="M-2.181,2.181L2.181,2.181" style="fill:none;fill-rule:nonzero;stroke:rgb(1,51,25);stroke-width:2.01px;"/>
                        </g>
                        <g transform="matrix(0,1,1,0,155.947,116.209)">
                            <path d="M-4.388,-4.388L4.388,-4.388" style="fill:none;fill-rule:nonzero;stroke:rgb(1,51,25);stroke-width:2.01px;"/>
                        </g>
                    </g>
                </g>
                <g transform="matrix(0,-1,-1,0,164.728,65.728)">
                    <ellipse cx="-24.419" cy="0" rx="24.418" ry="24.418" style="fill:none;stroke:rgb(1,51,25);stroke-width:2.01px;"/>
                </g>
                <g transform="matrix(0,-1,-1,0,106.473,65.7285)">
                    <path d="M-24.418,-24.418C-37.904,-24.418 -48.836,-13.485 -48.836,0C-48.836,13.486 -37.904,24.418 -24.418,24.418C-10.932,24.418 0,13.486 0,0C0,-13.485 -10.932,-24.418 -24.418,-24.418" style="fill:white;fill-rule:nonzero;"/>
                </g>
                <g>
                    <clipPath id="_clip2">
                        <path d="M82.055,90.146C82.055,103.632 92.986,114.564 106.473,114.564C119.958,114.564 130.891,103.632 130.891,90.146C130.891,76.661 119.958,65.728 106.473,65.728C92.986,65.728 82.055,76.661 82.055,90.146Z" clip-rule="nonzero"/>
                    </clipPath>
                    <g clip-path="url(#_clip2)">
                        <g opacity="0.15">
                            <g transform="matrix(1,0,0,1,116.74,120.6)">
                                <path d="M0,-20.298C7.633,-15.88 15.265,-16.985 15.265,-5.94L15.265,0L-32.71,0L-32.71,-5.94C-32.71,-16.985 -25.077,-15.88 -17.445,-20.298L0,-20.298Z" style="fill-rule:nonzero;"/>
                            </g>
                            <g transform="matrix(1,0,0,1,112.379,92.5712)">
                                <path d="M0,12.149L-4.361,9.94L-8.723,12.149L-13.084,7.731L-10.903,4.418L-9.813,4.418L-9.813,0L-4.361,1.104L1.091,0L1.091,4.418L2.181,4.418L4.361,7.731L0,12.149Z" style="fill-rule:nonzero;"/>
                            </g>
                            <g transform="matrix(1,0,0,1,116.74,120.6)">
                                <path d="M0,-20.298C7.633,-15.88 15.265,-16.985 15.265,-5.94L15.265,0L-32.71,0L-32.71,-5.94C-32.71,-16.985 -25.077,-15.88 -17.445,-20.298" style="fill-rule:nonzero;"/>
                            </g>
                            <g transform="matrix(1,0,0,1,112.379,96.9892)">
                                <path d="M0,7.731L-4.361,5.522L-8.723,7.731L-13.084,3.313L-10.903,0L-4.361,1.104L2.181,0L4.361,3.313L0,7.731Z" style="fill-rule:nonzero;"/>
                            </g>
                            <g transform="matrix(1,0,0,1,117.831,91.4664)">
                                <path d="M0,-13.254L0,-8.836C-1.091,-1.105 -4.361,1.104 -4.361,1.104C-6.542,2.209 -9.813,2.209 -9.813,2.209C-9.813,2.209 -13.084,2.209 -15.265,1.104C-15.265,1.104 -18.536,-1.105 -19.626,-8.836L-19.626,-13.254L-15.265,-15.463L-4.361,-11.045L0,-13.254Z" style="fill-rule:nonzero;"/>
                            </g>
                            <g transform="matrix(1,0,0,1,98.2052,70.4814)">
                                <path d="M0,7.731C0,1.021 3.188,-2.209 9.813,-2.209C16.437,-2.209 19.626,1.021 19.626,7.731L15.265,9.94L4.361,5.522L0,7.731Z" style="fill-rule:nonzero;"/>
                            </g>
                            <g transform="matrix(1,0,0,1,117.831,93.6754)">
                                <path d="M0,-15.463L0,-11.045C-1.091,-3.314 -4.361,-1.105 -4.361,-1.105C-6.542,0 -9.813,0 -9.813,0C-9.813,0 -13.084,0 -15.265,-1.105C-15.265,-1.105 -18.536,-3.314 -19.626,-11.045L-19.626,-15.463" style="fill-rule:nonzero;"/>
                            </g>
                            <g transform="matrix(1,0,0,1,98.2052,68.2724)">
                                <path d="M0,9.94C0,3.23 3.188,0 9.813,0C16.437,0 19.626,3.23 19.626,9.94" style="fill-rule:nonzero;"/>
                            </g>
                            <g transform="matrix(0.892083,-0.451871,-0.451871,-0.892083,99.2642,82.6466)">
                                <path d="M1.059,4.434L5.948,4.434L13.678,-4.434L18.567,-4.434" style="fill-rule:nonzero;"/>
                            </g>
                        </g>
                        <g transform="matrix(1,0,0,1,115.138,120.6)">
                            <path d="M0,-20.038C7.633,-15.677 15.265,-16.767 15.265,-5.864L15.265,0L-32.71,0L-32.71,-5.864C-32.71,-16.767 -25.077,-15.677 -17.445,-20.038L0,-20.038Z" style="fill:rgb(23,169,230);fill-rule:nonzero;"/>
                        </g>
                        <g transform="matrix(1,0,0,1,102.141,120.602)">
                            <path d="M0,-20.037C-7.633,-15.679 -15.266,-16.768 -15.266,-5.866L-15.266,0L-19.713,0L-19.713,-5.866C-19.713,-16.768 -12.08,-15.679 -4.447,-20.037L0,-20.037Z" style="fill:white;fill-rule:nonzero;"/>
                        </g>
                        <g transform="matrix(0,-1,-1,0,108.216,89.3073)">
                            <path d="M-6.953,-3.651L-3.623,-3.651L-4.713,1.801L-3.682,6.953C-6.393,4.161 -6.981,0.214 -6.953,-3.651" style="fill:rgb(209,165,132);fill-rule:nonzero;"/>
                        </g>
                        <g transform="matrix(1,0,0,1,101.263,98.1768)">
                            <path d="M0,-5.187L-0.299,-5.247L-0.299,-1.24C-0.29,-1.236 -0.281,-1.236 -0.272,-1.23C0.382,-0.815 1.368,-0.768 2.114,-0.66C2.982,-0.534 3.843,-0.365 4.709,-0.235C6.669,0.06 8.745,-0.524 10.604,-1.181L10.604,-1.916C6.739,-1.889 2.793,-2.477 0,-5.187" style="fill:rgb(232,193,160);fill-rule:nonzero;"/>
                        </g>
                        <g transform="matrix(1,0,0,1,112.957,104.923)">
                            <path d="M0,-7.632L-0.552,-7.632C-0.581,-7.583 -0.623,-7.54 -0.688,-7.517C-2.546,-6.848 -4.687,-6.183 -6.681,-6.415C-7.838,-6.549 -8.993,-6.791 -10.147,-6.963C-10.817,-7.062 -11.645,-7.155 -12.229,-7.527C-12.275,-7.555 -12.303,-7.592 -12.322,-7.632L-13.084,-7.632L-15.265,-4.361L-10.903,0L-6.542,-2.18L-2.181,0L2.181,-4.361L0,-7.632Z" style="fill:white;fill-rule:nonzero;"/>
                        </g>
                        <g transform="matrix(1,0,0,1,115.138,120.6)">
                            <path d="M0,-20.038C7.633,-15.677 15.265,-16.767 15.265,-5.864L15.265,0L-32.71,0L-32.71,-5.864C-32.71,-16.767 -25.077,-15.677 -17.445,-20.038" style="fill:none;fill-rule:nonzero;stroke:rgb(1,51,25);stroke-width:2.01px;"/>
                        </g>
                        <g transform="matrix(1,0,0,1,110.776,97.2919)">
                            <path d="M0,7.632L-4.361,5.451L-8.723,7.632L-13.084,3.271L-10.903,0L-4.361,1.09L2.181,0L4.361,3.271L0,7.632Z" style="fill:none;fill-rule:nonzero;stroke:rgb(1,51,25);stroke-width:2.01px;"/>
                        </g>
                        <g transform="matrix(0,1,1,0,114.048,95.1107)">
                            <path d="M-2.181,-2.181L2.181,-2.181" style="fill:none;fill-rule:nonzero;stroke:rgb(1,51,25);stroke-width:2.01px;"/>
                        </g>
                        <g transform="matrix(1,0,0,1,116.229,91.8399)">
                            <path d="M0,-13.084L0,-8.723C-1.091,-1.09 -4.361,1.09 -4.361,1.09C-6.542,2.181 -9.813,2.181 -9.813,2.181C-9.813,2.181 -13.084,2.181 -15.265,1.09C-15.265,1.09 -18.536,-1.09 -19.626,-8.723L-19.626,-13.084L-15.265,-15.265L-4.361,-10.903L0,-13.084Z" style="fill:rgb(232,193,160);fill-rule:nonzero;"/>
                        </g>
                        <g transform="matrix(1,0,0,1,96.6027,71.1239)">
                            <path d="M0,7.632C0,1.008 3.188,-2.181 9.813,-2.181C16.437,-2.181 19.626,1.008 19.626,7.632L15.265,9.813L4.361,5.451L0,7.632Z" style="fill:rgb(1,51,25);fill-rule:nonzero;"/>
                        </g>
                        <g transform="matrix(1,0,0,1,116.229,94.0209)">
                            <path d="M0,-15.265L0,-10.904C-1.091,-3.271 -4.361,-1.091 -4.361,-1.091C-6.542,0 -9.813,0 -9.813,0C-9.813,0 -13.084,0 -15.265,-1.091C-15.265,-1.091 -18.536,-3.271 -19.626,-10.904L-19.626,-15.265" style="fill:none;fill-rule:nonzero;stroke:rgb(1,51,25);stroke-width:2.01px;"/>
                        </g>
                        <g transform="matrix(1,0,0,1,96.6027,68.9429)">
                            <path d="M0,9.813C0,3.189 3.188,0 9.813,0C16.437,0 19.626,3.189 19.626,9.813" style="fill:none;fill-rule:nonzero;stroke:rgb(1,51,25);stroke-width:2.01px;"/>
                        </g>
                        <g transform="matrix(0.894386,-0.447296,-0.447296,-0.894386,97.6391,83.1452)">
                            <path d="M1.036,4.389L5.912,4.389L13.714,-4.389L18.59,-4.389" style="fill:none;fill-rule:nonzero;stroke:rgb(1,51,25);stroke-width:2.01px;"/>
                        </g>
                        <g transform="matrix(0,1,1,0,124.881,116.209)">
                            <path d="M-4.388,-4.388L4.388,-4.388" style="fill:none;fill-rule:nonzero;stroke:rgb(1,51,25);stroke-width:2.01px;"/>
                        </g>
                        <g transform="matrix(0,-1,-1,0,106.415,105.686)">
                            <path d="M-1.182,-1.182C-1.835,-1.182 -2.364,-0.654 -2.364,0.001C-2.364,0.653 -1.835,1.182 -1.182,1.182C-0.529,1.182 0.001,0.653 0.001,0.001C0.001,-0.654 -0.529,-1.182 -1.182,-1.182" style="fill:white;fill-rule:nonzero;"/>
                        </g>
                        <g transform="matrix(0,-1,-1,0,106.415,109.311)">
                            <path d="M-1.182,-1.182C-1.835,-1.182 -2.364,-0.654 -2.364,0.001C-2.364,0.653 -1.835,1.182 -1.182,1.182C-0.529,1.182 0.001,0.653 0.001,0.001C0.001,-0.654 -0.529,-1.182 -1.182,-1.182" style="fill:white;fill-rule:nonzero;"/>
                        </g>
                        <g transform="matrix(0,-1,-1,0,106.415,112.936)">
                            <path d="M-1.182,-1.182C-1.835,-1.182 -2.364,-0.654 -2.364,0.001C-2.364,0.653 -1.835,1.182 -1.182,1.182C-0.53,1.182 0.001,0.653 0.001,0.001C0.001,-0.654 -0.53,-1.182 -1.182,-1.182" style="fill:white;fill-rule:nonzero;"/>
                        </g>
                        <g transform="matrix(0,-1,-1,0,103.145,95.111)">
                            <path d="M-2.181,2.181L2.181,2.181" style="fill:none;fill-rule:nonzero;stroke:rgb(1,51,25);stroke-width:2.01px;"/>
                        </g>
                        <g transform="matrix(0,1,1,0,97.6923,116.209)">
                            <path d="M-4.388,-4.388L4.388,-4.388" style="fill:none;fill-rule:nonzero;stroke:rgb(1,51,25);stroke-width:2.01px;"/>
                        </g>
                    </g>
                </g>
                <g transform="matrix(0,-1,-1,0,106.473,65.7285)">
                    <circle cx="-24.418" cy="0" r="24.418" style="fill:none;stroke:rgb(1,51,25);stroke-width:2.01px;"/>
                </g>
            </g>
        </g>
    </g>
</svg>
