<?xml version="1.0" encoding="UTF-8" standalone="no"?>
<!DOCTYPE svg PUBLIC "-//W3C//DTD SVG 1.1//EN" "http://www.w3.org/Graphics/SVG/1.1/DTD/svg11.dtd">
<svg width="100%" height="100%" viewBox="0 0 694 713" version="1.1" xmlns="http://www.w3.org/2000/svg" xmlns:xlink="http://www.w3.org/1999/xlink" xml:space="preserve" xmlns:serif="http://www.serif.com/" style="fill-rule:evenodd;clip-rule:evenodd;stroke-linejoin:round;stroke-miterlimit:2;">
    <g id="a7e0d23c-0c47-41f1-93b9-87dfccd4c0f5-106" transform="matrix(1,0,0,1,-253.014,-93.7135)">
        <path d="M752.758,262.605L748.858,262.605L748.858,155.628C748.858,121.663 720.908,93.713 686.943,93.713L460.292,93.713C426.326,93.713 398.377,121.662 398.377,155.627L398.377,742.511C398.377,776.477 426.326,804.426 460.292,804.426L686.94,804.426C720.905,804.426 748.855,776.477 748.855,742.511L748.855,338.753L752.755,338.753L752.758,262.605Z" style="fill:rgb(63,61,86);fill-rule:nonzero;"/>
    </g>
    <g id="a1ad11fc-8226-4675-bbe0-e36020d9de96-107" transform="matrix(1,0,0,1,-253.014,-93.7135)">
        <path d="M736.158,151.472L736.158,746.656C736.154,772.408 714.967,793.599 689.216,793.608L457.916,793.608C432.153,793.612 410.95,772.419 410.943,746.656L410.943,151.481C410.95,125.72 432.152,104.527 457.914,104.53L485.972,104.53C484.885,107.202 484.327,110.058 484.327,112.942C484.327,125.18 494.389,135.255 506.628,135.27L638.496,135.27C650.734,135.255 660.796,125.18 660.796,112.942C660.796,110.058 660.238,107.202 659.152,104.53L689.207,104.53C714.958,104.535 736.148,125.721 736.158,151.472Z" style="fill:white;fill-rule:nonzero;"/>
    </g>
    <g id="a71e44ec-7616-4081-86af-b6db32cd39f3-108" transform="matrix(1,0,0,1,-253.014,-93.7135)">
        <path d="M678.824,494.309L473.287,494.309C471.199,494.307 469.483,492.591 469.481,490.503L469.481,439.519C469.483,437.433 471.2,435.716 473.287,435.713L678.824,435.713C680.91,435.716 682.627,437.433 682.63,439.519L682.63,490.504C682.627,492.591 680.91,494.308 678.824,494.31L678.824,494.309ZM473.287,437.235C472.034,437.237 471.004,438.267 471.003,439.519L471.003,490.504C471.004,491.757 472.034,492.787 473.287,492.788L678.824,492.788C680.076,492.787 681.106,491.757 681.108,490.504L681.108,439.519C681.106,438.267 680.076,437.237 678.824,437.235L473.287,437.235Z" style="fill:rgb(230,230,230);fill-rule:nonzero;"/>
    </g>
    <g id="a3f57aef-fb20-4553-8f82-b751eb5ec42c-109" transform="matrix(1,0,0,1,-253.014,-93.7135)">
        <path d="M536.852,454.074C535.39,454.074 534.187,455.277 534.187,456.739C534.187,458.201 535.39,459.403 536.852,459.403L662.457,459.403C662.491,459.405 662.525,459.405 662.559,459.405C664.021,459.405 665.224,458.202 665.224,456.74C665.224,455.317 664.083,454.132 662.661,454.077C662.622,454.076 662.583,454.075 662.544,454.075L536.852,454.075L536.852,454.074Z" style="fill:rgb(230,230,230);fill-rule:nonzero;"/>
    </g>
    <g id="a617e1da-1a45-4bf0-a146-8b20186fa5b6-110" transform="matrix(1,0,0,1,-253.014,-93.7135)">
        <path d="M536.852,470.058C535.39,470.058 534.187,471.261 534.187,472.723C534.187,474.185 535.39,475.387 536.852,475.387L662.457,475.387C662.491,475.389 662.525,475.389 662.559,475.389C664.021,475.389 665.224,474.186 665.224,472.724C665.224,471.301 664.083,470.116 662.661,470.061C662.622,470.06 662.583,470.059 662.544,470.059L536.852,470.059L536.852,470.058Z" style="fill:rgb(230,230,230);fill-rule:nonzero;"/>
    </g>
    <g id="f83fafa3-5270-49ac-8952-eedc3d6c92ed-111" transform="matrix(1,0,0,1,-253.014,-93.7135)">
        <path d="M678.824,579.289L473.287,579.289C471.199,579.287 469.483,577.571 469.481,575.483L469.481,524.499C469.483,522.413 471.2,520.696 473.287,520.693L678.824,520.693C680.91,520.696 682.627,522.413 682.63,524.499L682.63,575.484C682.626,577.571 680.91,579.287 678.824,579.289ZM473.287,522.215C472.034,522.217 471.004,523.247 471.003,524.499L471.003,575.484C471.004,576.737 472.034,577.767 473.287,577.768L678.824,577.768C680.076,577.767 681.106,576.737 681.108,575.484L681.108,524.499C681.106,523.247 680.076,522.217 678.824,522.215L473.287,522.215Z" style="fill:rgb(230,230,230);fill-rule:nonzero;"/>
    </g>
    <g id="b1e095e5-1d51-47f4-b1e9-85a21efab4ec-112" transform="matrix(1,0,0,1,-253.014,-93.7135)">
        <path d="M536.852,539.33C535.39,539.33 534.187,540.533 534.187,541.995C534.187,543.457 535.39,544.659 536.852,544.659L662.457,544.659C663.913,544.651 665.106,543.451 665.106,541.995C665.106,540.571 663.966,539.386 662.544,539.331L536.852,539.331L536.852,539.33Z" style="fill:rgb(230,230,230);fill-rule:nonzero;"/>
    </g>
    <g id="e7ccabbb-2f45-40c9-adc9-a92013dc0f4d-113" transform="matrix(1,0,0,1,-253.014,-93.7135)">
        <path d="M536.852,555.319C535.39,555.319 534.187,556.521 534.187,557.983C534.187,559.445 535.39,560.647 536.852,560.647L662.457,560.647C663.913,560.639 665.106,559.439 665.106,557.983C665.106,556.559 663.966,555.374 662.544,555.319L536.852,555.319L536.852,555.319Z" style="fill:rgb(230,230,230);fill-rule:nonzero;"/>
    </g>
    <g id="ec532991-8ec8-4eba-a86f-87c70c278f41-114" transform="matrix(1,0,0,1,-253.014,-93.7135)">
        <path d="M678.824,664.547L473.287,664.547C471.199,664.545 469.483,662.829 469.481,660.741L469.481,609.758C469.483,607.671 471.2,605.954 473.287,605.952L678.824,605.952C680.91,605.954 682.627,607.671 682.63,609.758L682.63,660.743C682.627,662.829 680.91,664.546 678.824,664.549L678.824,664.547ZM473.287,607.473C472.034,607.475 471.004,608.505 471.003,609.757L471.003,660.742C471.004,661.995 472.034,663.025 473.287,663.026L678.824,663.026C680.076,663.025 681.106,661.995 681.108,660.742L681.108,609.757C681.106,608.505 680.076,607.475 678.824,607.473L473.287,607.473Z" style="fill:rgb(230,230,230);fill-rule:nonzero;"/>
    </g>
    <g id="a788f10e-f95b-4590-bad9-be702445c232-115" transform="matrix(1,0,0,1,-253.014,-93.7135)">
        <path d="M536.852,624.591C535.39,624.591 534.187,625.794 534.187,627.256C534.187,628.718 535.39,629.92 536.852,629.92L662.457,629.92C662.491,629.922 662.525,629.922 662.559,629.922C664.021,629.922 665.224,628.719 665.224,627.257C665.224,625.834 664.083,624.649 662.661,624.594C662.622,624.593 662.583,624.592 662.544,624.592L536.852,624.592L536.852,624.591Z" style="fill:rgb(230,230,230);fill-rule:nonzero;"/>
    </g>
    <g id="f15a5014-9b42-4c0b-a546-80766b911601-116" transform="matrix(1,0,0,1,-253.014,-93.7135)">
        <path d="M536.852,640.578C535.39,640.578 534.187,641.781 534.187,643.243C534.187,644.705 535.39,645.907 536.852,645.907L662.457,645.907C662.491,645.909 662.525,645.909 662.559,645.909C664.021,645.909 665.224,644.706 665.224,643.244C665.224,641.821 664.083,640.636 662.661,640.581C662.622,640.58 662.583,640.579 662.544,640.579L536.852,640.579L536.852,640.578Z" style="fill:rgb(230,230,230);fill-rule:nonzero;"/>
    </g>
    <g id="b97f850c-7352-4ff9-8496-0f681ff3b244-117" transform="matrix(1,0,0,1,-253.014,-93.7135)">
        <path d="M945.173,806.287L254.826,806.287C253.826,806.287 253.014,805.819 253.014,805.242C253.014,804.665 253.826,804.196 254.826,804.196L945.174,804.196C946.174,804.196 946.986,804.664 946.986,805.241C946.986,805.818 946.173,806.287 945.173,806.287Z" style="fill:rgb(230,230,230);fill-rule:nonzero;"/>
    </g>
    <g id="ac055b4e-9afd-48c4-86db-12c8e2993e8d">
        <g id="b77ebe88-e0c7-4a9a-a2fb-b51dce897c46-118" transform="matrix(1,0,0,1,-253.014,-93.7135)">
            <path d="M282.086,765.522C288.495,767.776 295.638,766.517 300.892,762.209C307.479,756.681 309.544,747.572 311.224,739.139L316.194,714.194L305.789,721.359C298.306,726.511 290.655,731.829 285.473,739.292C280.291,746.755 278.03,756.943 282.193,765.019" style="fill:rgb(230,230,230);fill-rule:nonzero;"/>
        </g>
        <g id="a8a7bc76-ff28-4167-bc9c-ebff63445848-119" transform="matrix(1,0,0,1,-253.014,-93.7135)">
            <path d="M283.693,797.459C282.383,787.917 281.036,778.253 281.955,768.609C282.771,760.044 285.384,751.679 290.704,744.82C293.527,741.186 296.963,738.073 300.857,735.62C301.872,734.979 302.807,736.588 301.796,737.226C295.058,741.482 289.845,747.771 286.911,755.181C283.671,763.422 283.151,772.405 283.711,781.159C284.049,786.453 284.764,791.712 285.485,796.965C285.602,797.455 285.316,797.958 284.835,798.109C284.343,798.241 283.829,797.949 283.691,797.459L283.693,797.459Z" style="fill:rgb(242,242,242);fill-rule:nonzero;"/>
        </g>
        <g id="abfc2b94-a38f-4778-bd11-bd0282c86570-120" transform="matrix(1,0,0,1,-253.014,-93.7135)">
            <path d="M293.12,782.15C295.869,786.328 300.612,788.776 305.611,788.597C311.934,788.297 317.206,783.884 321.951,779.697L335.987,767.305L326.698,766.861C320.018,766.54 313.165,766.242 306.798,768.303C300.431,770.363 294.567,775.321 293.404,781.903" style="fill:rgb(230,230,230);fill-rule:nonzero;"/>
        </g>
        <g id="ba99c695-899d-4604-b38e-601ed41861fa-121" transform="matrix(1,0,0,1,-253.014,-93.7135)">
            <path d="M279.991,802.944C286.291,791.788 293.609,779.389 306.676,775.426C310.309,774.328 314.119,773.935 317.9,774.267C319.092,774.367 318.794,776.207 317.6,776.104C311.263,775.578 304.935,777.253 299.688,780.843C294.637,784.281 290.705,789.06 287.377,794.129C285.338,797.229 283.512,800.47 281.686,803.702C281.104,804.735 279.404,803.989 279.991,802.944Z" style="fill:rgb(242,242,242);fill-rule:nonzero;"/>
        </g>
    </g>
    <g id="bf60e786-3805-43a5-8cdd-bbea060079bf">
        <circle id="a323e3dd-8f2c-40f7-a0c1-7a235f78e8b7" cx="245.915" cy="370.985" r="15.986" style="fill:rgb(175,215,255);"/>
        <g id="b21d221e-9b86-4bff-9dca-a61a27263db1-122" transform="matrix(1,0,0,1,-253.014,-93.7135)">
            <path d="M491.276,461.712C491.092,461.712 490.943,462.905 490.943,464.376C490.943,465.847 491.092,467.041 491.276,467.041L506.995,467.041C507.179,467.065 507.331,465.892 507.334,464.421C507.436,463.506 507.323,462.578 507.006,461.713L491.276,461.713L491.276,461.712Z" style="fill:rgb(230,230,230);fill-rule:nonzero;"/>
        </g>
    </g>
    <g id="b51141dd-8175-4f5a-b697-41b89601b37f">
        <circle id="e363222e-d569-47a6-8bf5-edbaac636a07" cx="245.915" cy="456.278" r="15.986" style="fill:rgb(175,215,255);"/>
        <g id="bf4b9d9b-b2cd-48cd-bc0b-2e6b007ef33d-123" transform="matrix(1,0,0,1,-253.014,-93.7135)">
            <path d="M491.276,547.005C491.092,547.005 490.943,548.198 490.943,549.669C490.943,551.14 491.092,552.334 491.276,552.334L506.995,552.334C507.179,552.358 507.331,551.185 507.334,549.714C507.436,548.799 507.323,547.871 507.006,547.006L491.276,547.006L491.276,547.005Z" style="fill:rgb(230,230,230);fill-rule:nonzero;"/>
        </g>
    </g>
    <g id="b35aa588-fd9e-4429-8570-fee6b5da93cc">
        <circle id="b896a996-d737-41ee-9642-d5eaf8a9fd6b" cx="245.915" cy="541.536" r="15.986" style="fill:rgb(175,215,255);"/>
        <g id="f0c90521-3626-484d-9767-39f7327e6a31-124" transform="matrix(1,0,0,1,-253.014,-93.7135)">
            <path d="M491.276,632.263C491.092,632.263 490.943,633.456 490.943,634.927C490.943,636.398 491.092,637.592 491.276,637.592L506.995,637.592C507.179,637.616 507.331,636.443 507.334,634.972C507.436,634.057 507.323,633.129 507.006,632.264L491.276,632.264L491.276,632.263Z" style="fill:rgb(230,230,230);fill-rule:nonzero;"/>
        </g>
    </g>
    <g transform="matrix(1,0,0,1,-253.014,-93.7135)">
        <path d="M625.2,350.382C623.51,350.388 621.955,349.438 621.187,347.932C614.712,335.272 603.394,325.744 589.815,321.521C587.062,320.686 584.252,320.049 581.407,319.617L580.828,319.529L610.747,225.983L611.253,226.001C669.381,241.796 702.638,288.382 711.446,302.284C711.9,303.002 712.141,303.834 712.141,304.684C712.141,306.386 711.174,307.949 709.65,308.707L627.219,349.904C626.592,350.218 625.901,350.382 625.2,350.382Z" style="fill:rgb(230,230,230);fill-rule:nonzero;"/>
    </g>
    <g id="e0f3bbc9-2b9f-408e-80ac-e1d5d48fdbc4-125" transform="matrix(1,0,0,1,-253.014,-93.7135)">
        <path d="M804.637,549.706C805.621,545.534 809.377,542.561 813.665,542.561C814.931,542.561 816.185,542.82 817.348,543.323L839.631,519.03L843.795,535.646L821.995,556.167C820.4,559.274 817.189,561.235 813.697,561.235C808.581,561.235 804.371,557.025 804.371,551.909C804.371,551.167 804.46,550.427 804.636,549.705L804.637,549.706Z" style="fill:rgb(254,184,184);fill-rule:nonzero;"/>
    </g>
    <g id="b7278a0b-1b02-42c5-a26a-5568eba21726-126" transform="matrix(1,0,0,1,-253.014,-93.7135)">
        <path d="M852.495,792.044L838.882,792.044L832.404,739.527L852.504,739.527L852.495,792.044Z" style="fill:rgb(254,184,184);fill-rule:nonzero;"/>
    </g>
    <g id="ae5e3f59-c07c-4936-a848-b4ed4a22f493-127" transform="matrix(1,0,0,1,-253.014,-93.7135)">
        <path d="M855.968,787.598L829.153,787.598C819.779,787.599 812.066,795.312 812.065,804.685L812.065,805.242L855.965,805.242L855.968,787.598Z" style="fill:rgb(187,109,62);fill-rule:nonzero;"/>
    </g>
    <g id="e2dcac65-80ca-45a3-9c58-68329f82aa19-128" transform="matrix(1,0,0,1,-253.014,-93.7135)">
        <path d="M930.684,778.556L917.955,783.388L893.262,736.588L912.049,729.458L930.684,778.556Z" style="fill:rgb(254,184,184);fill-rule:nonzero;"/>
    </g>
    <g id="e33efd2e-5dad-4e18-8ce5-ea4b13e613d2-129" transform="matrix(1,0,0,1,-253.014,-93.7135)">
        <path d="M932.355,773.167L907.286,782.682C898.523,786.01 894.049,795.958 897.375,804.721L897.575,805.24L938.62,789.662L932.355,773.167Z" style="fill:rgb(187,109,62);fill-rule:nonzero;"/>
    </g>
    <g id="aea1be6b-88fd-4404-a4b2-fdb70dea932e-130" transform="matrix(1,0,0,1,-253.014,-93.7135)">
        <path d="M885.865,617.36L897.148,678.075C897.148,678.075 927.773,763.503 925.624,765.652C923.475,767.801 893.924,775.323 895.536,770.488C897.148,765.653 860.075,693.119 860.075,693.119L885.865,617.36Z" style="fill:rgb(175,215,233);fill-rule:nonzero;"/>
    </g>
    <g id="a45d4c0e-5c31-49a4-b00c-14ea50dd8cbe-131" transform="matrix(1,0,0,1,-253.014,-93.7135)">
        <path d="M840.109,507.03C840.109,507.03 817.332,536.804 820.317,538.43C823.302,540.056 834.864,548.666 834.864,548.666L846.628,516.382L840.109,507.03Z" style="fill:rgb(228,228,228);fill-rule:nonzero;"/>
    </g>
    <g id="ababf4ae-7dbc-4717-bb50-ecd0b5fac405-132" transform="matrix(1,0,0,1,-253.014,-93.7135)">
        <path d="M833.748,537.083C833.748,537.083 829.987,565.021 831.599,570.932C833.211,576.842 832.136,744.475 831.062,747.161C829.988,749.847 826.762,758.981 828.376,763.279C829.99,767.577 852.016,778.323 855.24,774.562C858.464,770.801 882.106,633.794 882.106,633.794C882.106,633.794 915.418,551.052 907.896,542.994C900.374,534.936 833.748,537.083 833.748,537.083Z" style="fill:rgb(175,215,255);fill-rule:nonzero;"/>
    </g>
    <circle id="a4a0a325-f198-46ef-8204-e1264a7da486" cx="629.072" cy="237.482" r="26.327" style="fill:rgb(254,184,184);"/>
    <g id="f1bcc5ff-8c37-42ba-ac71-fb7b653723a6-133" transform="matrix(1,0,0,1,-253.014,-93.7135)">
        <path d="M854.576,390.696C855.239,386.435 857.36,382.532 860.576,379.656L865.376,364.981L893.585,364.981L901.446,377.316C909.946,380.977 916.246,386.783 916.485,393.627C917.785,398.172 912.185,542.455 910.575,547.827C910.102,549.391 903.675,550.227 894.639,550.599C886.354,550.937 875.883,550.889 865.83,550.658C849.185,550.271 833.668,549.379 831.057,548.901C825.152,547.828 853.991,394.086 854.576,390.696Z" style="fill:rgb(228,228,228);fill-rule:nonzero;"/>
    </g>
    <g id="f2ae932d-f3ee-421e-b804-f39bdd3d1485-134" transform="matrix(1,0,0,1,-253.014,-93.7135)">
        <path d="M879.516,582.026C882.181,580.324 883.798,577.372 883.798,574.209C883.798,571.879 882.921,569.633 881.342,567.92L896.911,538.864L879.852,540.422L867.684,567.774C866.036,569.507 865.116,571.81 865.116,574.201C865.116,579.317 869.326,583.527 874.442,583.527C876.243,583.527 878.006,583.006 879.517,582.025L879.516,582.026Z" style="fill:rgb(254,184,184);fill-rule:nonzero;"/>
    </g>
    <g id="a13bc27c-3d22-450d-9b6a-4857ac9e22b6-135" transform="matrix(1,0,0,1,-253.014,-93.7135)">
        <path d="M882.104,374.823C882.104,374.823 857.389,385.031 866.523,410.823C875.657,436.615 885.865,467.238 885.865,467.238C885.865,467.238 872.97,536.548 872.97,539.238C872.97,541.928 864.911,556.431 868.134,559.118C871.357,561.805 892.849,567.177 893.386,564.491C895.032,558.302 897.005,552.204 899.296,546.223C900.371,544.074 925.623,476.913 922.396,471.003C920.024,466.654 917.942,426.803 917.008,406.064C916.569,394.038 909.797,383.102 899.227,377.349C894.223,374.687 888.391,373.251 882.104,374.823Z" style="fill:rgb(228,228,228);fill-rule:nonzero;"/>
    </g>
    <g id="a3aad1c3-1778-4515-92de-8de9e018032c-136" transform="matrix(1,0,0,1,-253.014,-93.7135)">
        <path d="M892.219,342.962C890.219,342.04 887.902,341.849 885.74,341.276C878.006,339.224 872.824,331.587 874.479,324.676C874.783,323.798 874.92,322.87 874.885,321.94C874.596,319.893 872.198,318.572 869.899,318.103C867.6,317.634 865.153,317.703 862.956,316.948C859.721,315.802 857.362,312.971 856.82,309.582C856.479,306.347 857.305,303.093 859.147,300.411L859.978,302.499C861.209,301.609 862.153,300.376 862.692,298.954C864.522,299.174 866.124,300.299 866.952,301.946C868.285,302.633 868.477,299.813 869.952,299.397C870.591,299.326 871.237,299.467 871.79,299.797C874.757,301.006 878.204,299.972 881.39,299.302C886.919,298.148 892.628,298.142 898.161,299.285C901.824,300.048 905.451,301.378 908.073,303.74C910.083,305.714 911.662,308.085 912.709,310.7C915.521,316.882 917.378,323.571 916.45,330.173C915.606,335.712 912.997,340.834 909.014,344.773C906.891,346.91 899.964,354.364 896.166,353.094C891.388,351.494 897.842,345.56 892.219,342.962Z" style="fill:rgb(187,109,62);fill-rule:nonzero;"/>
    </g>
    <circle cx="321.979" cy="266.459" r="8" style="fill:rgb(63,61,86);"/>
    <g transform="matrix(1,0,0,1,-253.014,-93.7135)">
        <path d="M521.305,350.265C520.572,350.264 519.851,350.084 519.205,349.741L437.252,306.506C435.777,305.729 434.851,304.193 434.851,302.526C434.851,301.699 435.079,300.888 435.51,300.182C446.457,282.635 460.321,267.087 476.501,254.207C504.803,231.776 536.995,220.523 572.179,220.712C585.375,220.77 598.507,222.548 611.243,226L611.748,226.137L581.821,319.678L581.4,319.614C578.704,319.208 575.986,318.967 573.261,318.893C542.811,318.033 529.615,338.769 525.354,347.722C524.835,348.819 523.887,349.655 522.733,350.032C522.273,350.186 521.79,350.265 521.305,350.265Z" style="fill:rgb(175,215,255);fill-rule:nonzero;"/>
    </g>
    <g transform="matrix(1,0,0,1,-253.014,-93.7135)">
        <path d="M611.122,226.483L589.962,321.043C587.185,320.2 584.351,319.558 581.482,319.123L611.112,226.483L611.122,226.483Z" style="fill:rgb(63,61,86);fill-rule:nonzero;"/>
    </g>
</svg>
