<?xml version="1.0" encoding="UTF-8" standalone="no"?>
<!DOCTYPE svg PUBLIC "-//W3C//DTD SVG 1.1//EN" "http://www.w3.org/Graphics/SVG/1.1/DTD/svg11.dtd">
<svg width="100%" height="100%" viewBox="0 0 819 696" version="1.1" xmlns="http://www.w3.org/2000/svg" xmlns:xlink="http://www.w3.org/1999/xlink" xml:space="preserve" xmlns:serif="http://www.serif.com/" style="fill-rule:evenodd;clip-rule:evenodd;stroke-linejoin:round;stroke-miterlimit:2;">
    <g transform="matrix(1,0,0,1,-190.5,-102.16)">
        <path d="M258.252,774.45C299.553,800.942 351.15,799.598 400.759,793.39C407.686,792.524 414.56,791.575 421.367,790.584C421.407,790.571 421.462,790.572 421.503,790.559C421.83,790.51 422.158,790.461 422.472,790.426C423.876,790.217 425.282,790.009 426.673,789.801L426.377,790.449L425.445,792.461C425.783,791.786 426.121,791.125 426.458,790.45C426.557,790.248 426.669,790.045 426.767,789.843C438.456,766.697 449.994,742.732 451.873,716.921C453.81,690.131 442.702,660.514 418.577,648.701C415.414,647.157 412.088,645.97 408.661,645.164C407.238,644.814 405.8,644.545 404.348,644.317C389.157,642.068 372.888,646.645 361.585,657.128C346.633,671.022 341.405,694.397 349.001,713.341C328.047,694.055 329.967,660.828 335.325,632.856C340.696,604.884 347.344,573.722 332.049,549.684C323.545,536.304 309.44,528.479 293.942,525.857C293.467,525.781 292.993,525.705 292.517,525.643C274.53,522.98 254.851,527.229 239.912,537.816C211.632,557.846 198.485,593.638 195.455,628.166C190.57,683.73 211.295,744.326 258.252,774.45Z" style="fill:rgb(242,242,242);fill-rule:nonzero;"/>
    </g>
    <g transform="matrix(1,0,0,1,-190.5,-102.16)">
        <path d="M266.314,685.367C268.125,697.467 271.691,709.239 276.899,720.309C281.676,730.097 287.89,739.116 295.334,747.066C310.551,763.482 330.142,775.384 351.125,782.886C367.161,788.465 383.838,791.994 400.759,793.39C407.686,792.524 414.56,791.575 421.367,790.584C421.407,790.571 421.462,790.572 421.503,790.559C421.83,790.51 422.158,790.461 422.472,790.426C423.876,790.217 425.282,790.009 426.673,789.801L426.377,790.449L425.445,792.461C425.783,791.786 426.121,791.125 426.458,790.45C426.557,790.248 426.669,790.045 426.768,789.843C399.864,765.785 386.266,730.094 390.342,694.233C392.497,676.663 398.774,659.847 408.661,645.164C407.238,644.814 405.8,644.545 404.348,644.317C400.599,650.069 397.367,656.141 394.688,662.462C385.069,685.004 382.964,710.056 388.684,733.887C393.971,755.448 405.302,775.06 421.342,790.407C420.009,790.385 418.662,790.35 417.343,790.301C392.371,789.537 367.275,785.533 344.138,775.804C324.595,767.605 306.649,754.981 293.258,738.459C278.585,720.364 271.345,698.037 269.068,675.07C266.641,650.481 268.484,625.227 272.815,600.954C277.232,576.07 284.677,551.82 294.984,528.745C295.459,527.665 294.998,526.385 293.942,525.857C293.514,525.601 293.002,525.524 292.517,525.643C292.039,525.797 291.657,526.162 291.48,526.633C290.209,529.483 288.964,532.334 287.774,535.213C277.863,559.194 270.969,584.313 267.251,609.993C263.633,634.769 262.38,660.549 266.314,685.367Z" style="fill:white;fill-rule:nonzero;"/>
    </g>
    <g id="fe7ea4cb-bc3a-4b8d-a4ea-d66dad23bcdf-248" transform="matrix(1,0,0,1,-190.5,-102.16)">
        <path d="M757.927,267.442L754.106,267.442L754.106,162.753C754.106,129.513 726.753,102.16 693.512,102.16L471.706,102.16C438.465,102.16 411.112,129.512 411.112,162.753L411.112,737.097C411.112,770.337 438.465,797.69 471.706,797.69L693.512,797.69C726.752,797.69 754.105,770.337 754.105,737.097L754.105,341.962L757.926,341.962L757.927,267.442Z" style="fill:rgb(63,61,86);fill-rule:nonzero;"/>
    </g>
    <g id="eacd08e9-88f4-437e-9f6d-ef6f76b30d28-249" transform="matrix(1,0,0,1,-190.5,-102.16)">
        <path d="M695.957,117.918L667.006,117.918C668.058,120.496 668.598,123.253 668.598,126.037C668.598,137.831 658.894,147.535 647.1,147.535C647.1,147.535 647.1,147.535 647.099,147.535L520.029,147.535C508.236,147.535 498.532,137.83 498.532,126.037C498.532,123.253 499.073,120.496 500.124,117.918L473.083,117.918C448.259,117.918 427.832,138.345 427.832,163.169L427.832,736.678C427.832,761.502 448.259,781.929 473.083,781.929L695.957,781.929C720.781,781.929 741.208,761.502 741.208,736.678L741.208,163.168C741.207,138.344 720.78,117.918 695.957,117.918L695.957,117.918Z" style="fill:white;fill-rule:nonzero;"/>
    </g>
    <g transform="matrix(1,0,0,1,-190.5,-102.16)">
        <path d="M986.339,785.672C970.265,797.251 949.435,797.833 929.301,796.41C926.489,796.212 923.698,795.979 920.932,795.728C920.915,795.723 920.893,795.725 920.876,795.721C920.743,795.708 920.61,795.695 920.483,795.688C919.912,795.634 919.341,795.581 918.775,795.527L918.909,795.782L919.328,796.573C919.178,796.309 919.027,796.049 918.876,795.785C918.832,795.705 918.782,795.626 918.738,795.546C913.522,786.47 908.349,777.06 907.029,766.695C905.665,755.937 909.499,743.756 918.967,738.468C920.209,737.777 921.524,737.226 922.888,736.826C923.454,736.654 924.028,736.515 924.608,736.391C926.066,736.067 927.554,735.904 929.048,735.904C940.282,735.904 949.526,745.149 949.526,756.383C949.526,758.638 949.154,760.878 948.424,763.012C956.451,754.781 954.954,741.428 952.185,730.268C949.41,719.108 946.052,706.69 951.694,696.666C954.831,691.087 960.347,687.626 966.538,686.231C966.728,686.19 966.917,686.149 967.108,686.114C974.481,684.62 982.154,685.965 988.58,689.876C1000.42,697.335 1006.5,711.478 1008.47,725.332C1011.65,747.625 1004.61,772.506 986.339,785.672Z" style="fill:rgb(242,242,242);fill-rule:nonzero;"/>
    </g>
    <g transform="matrix(1,0,0,1,-190.5,-102.16)">
        <path d="M981.149,749.935C980.683,754.852 979.501,759.675 977.643,764.252C975.93,768.302 973.621,772.073 970.793,775.44C964.914,782.321 957.467,787.691 949.081,791.095C942.738,793.693 936.092,795.479 929.301,796.41C926.489,796.212 923.698,795.979 920.932,795.728C920.915,795.724 920.893,795.725 920.876,795.721C920.743,795.708 920.61,795.695 920.483,795.688C919.912,795.634 919.341,795.581 918.775,795.527L918.909,795.782L919.328,796.573C919.178,796.309 919.027,796.049 918.876,795.785C918.832,795.705 918.782,795.626 918.738,795.547C929.061,785.262 933.765,770.577 931.341,756.209C930.09,749.173 927.193,742.531 922.888,736.826C923.454,736.654 924.028,736.515 924.608,736.391C926.245,738.628 927.68,741.006 928.898,743.495C933.266,752.374 934.66,762.427 932.873,772.159C931.211,780.967 927.07,789.119 920.938,795.656C921.475,795.618 922.017,795.574 922.548,795.526C932.598,794.674 942.628,792.514 951.744,788.088C959.536,784.397 966.301,778.846 971.443,771.925C976.964,764.311 979.397,755.152 979.815,745.843C980.136,735.815 979.085,725.789 976.69,716.046C974.368,706.11 970.839,696.496 966.181,687.418C965.966,686.993 966.124,686.467 966.538,686.231C966.705,686.118 966.91,686.076 967.108,686.114C967.304,686.166 967.466,686.304 967.547,686.49C968.122,687.612 968.686,688.734 969.228,689.869C973.746,699.32 977.072,709.297 979.13,719.569C981.128,729.478 982.195,739.844 981.149,749.935Z" style="fill:white;fill-rule:nonzero;"/>
    </g>
    <g transform="matrix(1,0,0,1,-190.5,-102.16)">
        <path d="M1008.5,797.767L191.5,797.767C190.951,797.767 190.5,797.316 190.5,796.767C190.5,796.219 190.951,795.767 191.5,795.767L1008.5,795.767C1009.05,795.767 1009.5,796.219 1009.5,796.767C1009.5,797.316 1009.05,797.767 1008.5,797.767Z" style="fill:rgb(63,61,86);fill-rule:nonzero;"/>
    </g>
    <path d="M639.613,684.297L627.354,684.296L621.521,637.008L639.616,637.009L639.613,684.297Z" style="fill:rgb(255,184,184);fill-rule:nonzero;"/>
    <path d="M618.596,680.793L642.24,680.793L642.24,695.68L603.71,695.68C603.71,695.68 603.71,695.68 603.71,695.68C603.71,687.513 610.43,680.793 618.596,680.793Z" style="fill:rgb(47,46,65);fill-rule:nonzero;"/>
    <path d="M685.613,684.297L673.354,684.296L667.521,637.008L685.616,637.009L685.613,684.297Z" style="fill:rgb(255,184,184);fill-rule:nonzero;"/>
    <path d="M664.596,680.793L688.24,680.793L688.24,695.68L649.71,695.68C649.71,695.68 649.71,695.68 649.71,695.68C649.71,687.513 656.43,680.793 664.596,680.793Z" style="fill:rgb(47,46,65);fill-rule:nonzero;"/>
    <g transform="matrix(1,0,0,1,-190.5,-102.16)">
        <path d="M874.616,645.618C871.546,643.643 869.685,640.233 869.685,636.583C869.685,633.873 870.71,631.261 872.554,629.275L864.481,514.717L887.734,516.972L888.373,629.159C890.264,631.163 891.319,633.816 891.319,636.572C891.319,642.497 886.443,647.373 880.518,647.373C878.422,647.373 876.371,646.763 874.616,645.618L874.616,645.618Z" style="fill:rgb(255,184,184);fill-rule:nonzero;"/>
    </g>
    <g transform="matrix(1,0,0,1,-190.5,-102.16)">
        <path d="M829.534,762.633L816.038,761.99C813.664,761.877 811.768,759.903 811.752,757.527L810.81,620.97C810.81,620.96 810.81,620.95 810.81,620.94C810.81,618.47 812.842,616.438 815.311,616.438C815.527,616.438 815.743,616.454 815.957,616.485L869.95,624.323C872.146,624.63 873.798,626.526 873.804,628.743L880.748,755.277C880.748,755.288 880.748,755.299 880.748,755.311C880.748,757.779 878.717,759.811 876.248,759.811L861.698,759.811C859.489,759.82 857.587,758.194 857.253,756.01L848.276,698.943C848.009,697.248 846.534,695.986 844.818,695.986C843.054,695.986 841.552,697.32 841.343,699.071L834.217,758.673C833.94,760.922 832.013,762.632 829.748,762.639C829.677,762.639 829.606,762.637 829.534,762.633Z" style="fill:rgb(47,46,65);fill-rule:nonzero;"/>
    </g>
    <g transform="matrix(1,0,0,1,-190.5,-102.16)">
        <path d="M839.035,628.749C827.136,622.137 817.838,620.4 813.355,619.953C812.152,619.837 811.047,619.232 810.302,618.28C809.54,617.322 809.203,616.091 809.371,614.879L822.308,518.828C823.821,507.415 831.163,497.573 841.672,492.871C851.844,488.195 863.748,489.128 873.067,495.332C873.511,495.627 873.946,495.928 874.372,496.235C885.156,504.136 890.156,517.816 887.009,530.808C879.075,563.263 876.35,616.47 875.884,626.807C875.81,628.605 874.655,630.19 872.966,630.812C868.085,632.586 862.934,633.503 857.741,633.523C851.2,633.563 844.757,631.918 839.035,628.749Z" style="fill:rgb(175,215,255);fill-rule:nonzero;"/>
    </g>
    <g transform="matrix(1,0,0,1,-190.5,-102.16)">
        <path d="M869.745,553.21C868.643,552.417 867.958,551.165 867.886,549.809L866.183,518.933C866.17,518.706 866.164,518.478 866.164,518.251C866.164,511.449 871.761,505.852 878.562,505.852C884.143,505.852 889.069,509.62 890.529,515.006L898.013,542.611C898.657,544.993 897.229,547.483 894.848,548.132L873.557,553.904C872.248,554.262 870.844,554.006 869.745,553.21Z" style="fill:rgb(175,215,255);fill-rule:nonzero;"/>
    </g>
    <circle cx="659.357" cy="353.108" r="24.561" style="fill:rgb(255,184,184);"/>
    <g transform="matrix(1,0,0,1,-190.5,-102.16)">
        <path d="M803.652,551.942C800.868,551.948 798.162,551.015 795.973,549.295L754.185,516.328C753.846,516.448 753.5,516.55 753.149,516.634C750.104,517.347 746.896,516.731 744.331,514.942C741.748,513.152 740.061,510.331 739.705,507.209C739.655,506.783 739.63,506.354 739.63,505.925C739.63,499.89 744.596,494.924 750.631,494.924C755.719,494.924 760.176,498.455 761.34,503.408C761.45,503.886 761.526,504.371 761.569,504.86L804.05,529.368L814.622,523.281L826.334,538.613L810.839,549.657C808.74,551.147 806.227,551.946 803.652,551.942Z" style="fill:rgb(255,184,184);fill-rule:nonzero;"/>
    </g>
    <g transform="matrix(1,0,0,1,-190.5,-102.16)">
        <path d="M805.584,527.837C805.439,526.487 805.915,525.142 806.877,524.184L828.741,502.315C831.065,499.991 834.221,498.684 837.508,498.684C844.31,498.684 849.907,504.28 849.907,511.082C849.907,513.478 849.213,515.822 847.909,517.832L832.339,541.824C830.993,543.892 828.186,544.49 826.114,543.149L807.61,531.14C806.47,530.404 805.724,529.188 805.584,527.837Z" style="fill:rgb(175,215,255);fill-rule:nonzero;"/>
    </g>
    <g transform="matrix(1,0,0,1,-190.5,-102.16)">
        <path d="M856.758,478.24C857.513,479.111 858.61,479.612 859.762,479.612C860.757,479.612 861.716,479.239 862.449,478.567C867.925,474.133 872.269,468.461 875.121,462.018C878.314,454.407 878.782,445.119 875.148,437.985C872.076,431.954 866.561,428.115 861.056,424.977C858.945,423.648 856.633,422.67 854.208,422.083C851.733,421.521 849.132,422.033 847.054,423.49C844.834,425.178 843.724,427.965 844.176,430.717C841.658,427.4 838.263,424.852 834.374,423.361C831.988,422.334 829.322,422.155 826.82,422.855C823.285,424.035 820.668,427.605 819.211,431.441C818.034,434.377 817.602,437.56 817.956,440.704C818.268,443.737 819.812,446.513 822.225,448.376C825.109,450.366 828.824,450.164 832.178,449.283C835.532,448.402 838.787,446.909 842.2,446.493C845.612,446.076 849.394,446.979 851.427,450.023C852.859,452.166 853.196,454.99 853.488,457.681L855.008,471.68C855.115,473.682 855.547,475.655 856.285,477.519C856.41,477.779 856.569,478.022 856.758,478.24Z" style="fill:rgb(47,46,65);fill-rule:nonzero;"/>
    </g>
    <g>
        <g transform="matrix(1,0,0,1,-190.5,-102.16)">
            <path d="M467.814,574.842L501.697,574.842L501.697,581.473L474.69,581.473L474.69,601.527L499.081,601.527L499.081,608.074L474.69,608.074L474.69,633.444L467.814,633.444L467.814,574.842Z" style="fill:rgb(63,61,86);fill-rule:nonzero;"/>
        </g>
        <g transform="matrix(1,0,0,1,-190.5,-102.16)">
            <rect x="509.881" y="574.842" width="6.953" height="58.596" style="fill:rgb(63,61,86);fill-rule:nonzero;"/>
        </g>
        <g transform="matrix(1,0,0,1,-190.5,-102.16)">
            <path d="M530.792,630.326C528.144,627.381 526.82,623.261 526.823,617.966L526.823,591.7L533.776,591.7L533.776,616.909C533.776,620.891 534.676,623.811 536.476,625.667C538.404,627.574 541.049,628.585 543.758,628.45C545.988,628.487 548.175,627.829 550.015,626.569C551.832,625.326 553.298,623.635 554.268,621.658C555.27,619.679 555.789,617.491 555.782,615.272L555.782,591.7L562.742,591.7L562.742,633.438L556.111,633.438L556.111,627.381L555.782,627.381C554.48,629.605 552.58,631.421 550.298,632.62C547.857,634.019 545.09,634.753 542.275,634.746C537.268,634.746 533.441,633.273 530.792,630.326Z" style="fill:rgb(63,61,86);fill-rule:nonzero;"/>
        </g>
        <g transform="matrix(1,0,0,1,-190.5,-102.16)">
            <path d="M584.806,633.915C583.454,633.418 582.215,632.653 581.166,631.666C580.09,630.637 579.252,629.385 578.71,627.999C578.123,626.37 577.846,624.646 577.892,622.915L577.892,598.002L570.61,598.002L570.61,591.7L577.892,591.7L577.892,579.914L584.845,579.914L584.845,591.7L594.995,591.7L594.995,598.002L584.845,598.002L584.845,621.259C584.704,623.084 585.164,624.906 586.153,626.446C587.291,627.719 588.954,628.4 590.658,628.289C592.287,628.276 593.878,627.793 595.239,626.897L595.239,633.689C594.445,634.064 593.607,634.339 592.746,634.508C591.677,634.688 590.594,634.77 589.511,634.753C587.905,634.763 586.31,634.479 584.806,633.915Z" style="fill:rgb(63,61,86);fill-rule:nonzero;"/>
        </g>
        <g transform="matrix(1,0,0,1,-190.5,-102.16)">
            <path d="M614.346,633.915C612.993,633.418 611.755,632.653 610.705,631.666C609.63,630.637 608.792,629.385 608.25,627.999C607.663,626.37 607.385,624.646 607.432,622.915L607.432,598.002L600.15,598.002L600.15,591.7L607.432,591.7L607.432,579.914L614.385,579.914L614.385,591.7L624.534,591.7L624.534,598.002L614.385,598.002L614.385,621.259C614.244,623.084 614.703,624.906 615.693,626.446C616.831,627.719 618.494,628.4 620.197,628.289C621.827,628.276 623.418,627.793 624.779,626.897L624.779,633.689C623.985,634.064 623.147,634.339 622.285,634.508C621.217,634.688 620.134,634.77 619.05,634.753C617.444,634.762 615.85,634.478 614.346,633.915Z" style="fill:rgb(63,61,86);fill-rule:nonzero;"/>
        </g>
        <g transform="matrix(1,0,0,1,-190.5,-102.16)">
            <path d="M639.027,631.879C635.876,629.983 633.313,627.25 631.623,623.985C629.815,620.484 628.901,616.589 628.961,612.649C628.92,608.797 629.774,604.987 631.455,601.521C633.037,598.228 635.486,595.428 638.537,593.42C641.701,591.37 645.407,590.315 649.176,590.392C652.908,590.299 656.593,591.247 659.816,593.13C662.799,594.939 665.199,597.568 666.73,600.702C668.391,604.145 669.219,607.931 669.147,611.754C669.158,612.47 669.075,613.185 668.902,613.88L635.921,613.88C635.984,616.707 636.775,619.47 638.215,621.903C639.467,623.982 641.263,625.68 643.409,626.814C645.438,627.889 647.699,628.451 649.995,628.45C655.343,628.45 659.463,625.941 662.355,620.924L668.244,623.791C666.549,627.062 664.022,629.83 660.918,631.814C654.157,635.714 645.81,635.738 639.027,631.879L639.027,631.879ZM661.775,608.145C661.643,606.317 661.141,604.534 660.299,602.906C659.352,601.083 657.923,599.554 656.168,598.485C654.03,597.218 651.57,596.594 649.086,596.687C646.013,596.611 643.029,597.743 640.78,599.839C638.45,602.063 636.887,604.974 636.32,608.145L661.775,608.145Z" style="fill:rgb(63,61,86);fill-rule:nonzero;"/>
        </g>
        <g transform="matrix(1,0,0,1,-190.5,-102.16)">
            <path d="M677.24,591.7L683.871,591.7L683.871,598.408L684.2,598.408C685.094,596.019 686.768,594.001 688.949,592.679C691.124,591.204 693.687,590.405 696.315,590.385C697.996,590.343 699.668,590.65 701.225,591.287L701.225,598.737C699.391,597.846 697.374,597.398 695.335,597.428C693.348,597.42 691.404,598.02 689.768,599.149C688.05,600.329 686.656,601.923 685.714,603.782C684.705,605.719 684.185,607.875 684.2,610.059L684.2,633.438L677.247,633.438L677.247,591.7L677.24,591.7Z" style="fill:rgb(63,61,86);fill-rule:nonzero;"/>
        </g>
    </g>
    <path d="M415.712,337.858L506.765,429.34L420.765,428.34L388.765,396.34L415.712,337.858Z" style="fill:rgb(1,87,155);fill-rule:nonzero;"/>
    <path d="M452.618,374.938L388.765,396.34L427.832,349.833L452.618,374.938Z" style="fill:url(#_Linear1);fill-rule:nonzero;"/>
    <path d="M506.155,149.89L324.125,331.94L281.275,289.1L420.495,149.89L506.155,149.89Z" style="fill:rgb(84,197,248);fill-rule:nonzero;"/>
    <path d="M345.265,353.84L420.265,278.84L506.265,278.84L388.265,395.84L345.265,353.84Z" style="fill:rgb(84,197,248);fill-rule:nonzero;"/>
    <path d="M388.361,310.52L431.21,353.349L388.765,396.34L345.765,354.34L388.361,310.52Z" style="fill:rgb(41,182,246);fill-rule:nonzero;"/>
    <defs>
        <linearGradient id="_Linear1" x1="0" y1="0" x2="1" y2="0" gradientUnits="userSpaceOnUse" gradientTransform="matrix(31.8758,-31.8758,31.8758,31.8758,399.625,402.985)"><stop offset="0" style="stop-color:rgb(26,35,126);stop-opacity:0.4"/><stop offset="1" style="stop-color:rgb(26,35,126);stop-opacity:0"/></linearGradient>
    </defs>
</svg>
