<?xml version="1.0" encoding="utf-8"?>
<!-- Generator: Adobe Illustrator 16.0.0, SVG Export Plug-In . SVG Version: 6.00 Build 0)  -->
<!DOCTYPE svg PUBLIC "-//W3C//DTD SVG 1.1//EN" "http://www.w3.org/Graphics/SVG/1.1/DTD/svg11.dtd">
<svg version="1.1" id="Layer_1" xmlns="http://www.w3.org/2000/svg" xmlns:xlink="http://www.w3.org/1999/xlink" x="0px" y="0px"
	 width="264px" height="102.5px" viewBox="0 0 264 102.5" enable-background="new 0 0 264 102.5" xml:space="preserve">
<g>
	<g>
		<path fill="#3FA9F5" d="M112.052,4.739h41.915v16.559h-7.912v-9.881h-20.88v18.797h20.108v6.484h-20.108v19.916h5.866v6.64
			h-18.989v-6.64h5.558V11.417h-5.558V4.739z"/>
		<path fill="#3FA9F5" d="M153.545,43.259c0.023-3.166,0.531-6.047,1.523-8.646c0.99-2.599,2.373-4.831,4.148-6.696
			s3.887-3.3,6.33-4.304c2.445-1.003,5.133-1.505,8.066-1.505c2.959,0,5.668,0.502,8.125,1.505s4.561,2.426,6.311,4.266
			c1.75,1.839,3.113,4.059,4.092,6.657c0.977,2.6,1.467,5.481,1.467,8.646c0,3.113-0.49,5.977-1.467,8.587
			c-0.979,2.612-2.342,4.857-4.092,6.735s-3.854,3.339-6.311,4.38c-2.457,1.043-5.166,1.564-8.125,1.564
			c-3.01,0-5.738-0.516-8.182-1.544c-2.445-1.029-4.543-2.477-6.291-4.343c-1.75-1.864-3.115-4.097-4.092-6.696
			C154.07,49.268,153.568,46.398,153.545,43.259z M161.148,43.259c0,2.29,0.328,4.361,0.982,6.213
			c0.656,1.853,1.557,3.43,2.701,4.729c1.146,1.3,2.471,2.303,3.977,3.011s3.107,1.062,4.805,1.062c1.775,0,3.43-0.348,4.961-1.043
			c1.529-0.694,2.861-1.69,3.994-2.99c1.131-1.299,2.02-2.876,2.664-4.729c0.643-1.853,0.963-3.937,0.963-6.252
			c0-2.419-0.32-4.567-0.963-6.446c-0.645-1.878-1.525-3.447-2.645-4.708s-2.451-2.213-3.996-2.856
			c-1.543-0.643-3.203-0.965-4.979-0.965c-1.697,0-3.299,0.322-4.805,0.965c-1.506,0.644-2.83,1.596-3.977,2.856
			c-1.145,1.261-2.045,2.83-2.701,4.708C161.477,38.692,161.148,40.84,161.148,43.259z"/>
		<path fill="#3FA9F5" d="M230.119,31.719h-7.332v-2.47c-0.85,0-1.719,0.161-2.607,0.482c-0.887,0.322-1.717,0.811-2.488,1.467
			s-1.447,1.492-2.027,2.509c-0.578,1.017-0.996,2.219-1.254,3.608v19.298h6.793v6.64h-19.838v-6.64h5.52l0.039-26.708h-5.559
			v-6.639h12.775v5.519c0.463-0.823,0.984-1.588,1.562-2.296c0.578-0.708,1.223-1.325,1.93-1.853
			c0.709-0.527,1.492-0.938,2.354-1.236c0.863-0.295,1.797-0.443,2.801-0.443c1.336,0,2.598,0,3.781,0s2.367,0.026,3.551,0.077
			V31.719z"/>
		<path fill="#3FA9F5" d="M249.996,23.266h9.379v5.828h-9.455l-0.115,23.081c0,1.57,0.178,2.844,0.539,3.821
			s0.939,1.653,1.736,2.026c0.799,0.373,1.699,0.56,2.701,0.56c1.082,0,2.033-0.097,2.857-0.289
			c0.822-0.193,1.725-0.521,2.701-0.985l1.66,4.825c-1.234,0.644-2.535,1.151-3.898,1.525c-1.365,0.372-2.971,0.559-4.824,0.559
			c-1.75,0-3.275-0.212-4.574-0.636c-1.299-0.425-2.393-1.14-3.279-2.143c-0.889-1.004-1.551-2.348-1.988-4.034
			c-0.438-1.685-0.656-3.788-0.656-6.31l0.115-22h-6.369v-5.828h6.445v-9.573l7.025-3.319V23.266z"/>
	</g>
	<g>
		<path fill="#3FA9F5" d="M111.498,90.448h2.066V73.906h-2.066v-2.74h6.887l6.9,18.779l6.987-18.779h6.527v2.74h-2.051v16.542h2.051
			v2.467h-7.059v-2.467h2.326V73.749l-7.604,19.166h-2.439l-7.704-19.21v16.743h2.238v2.467h-7.059V90.448z"/>
		<path fill="#3FA9F5" d="M151.023,91.538c-0.564,0.526-1.189,0.956-1.873,1.291s-1.461,0.502-2.332,0.502
			c-0.727,0-1.393-0.114-2-0.344s-1.131-0.542-1.57-0.94c-0.441-0.396-0.783-0.857-1.027-1.384
			c-0.244-0.525-0.365-1.086-0.365-1.679c0-0.631,0.094-1.19,0.279-1.678c0.188-0.488,0.436-0.912,0.746-1.271
			s0.674-0.66,1.09-0.904c0.418-0.243,0.852-0.438,1.307-0.587c0.453-0.148,0.918-0.254,1.391-0.316
			c0.475-0.062,0.926-0.093,1.355-0.093c0.689,0,1.268,0.021,1.736,0.064s0.895,0.103,1.277,0.18l0.014-1.22
			c0-0.526-0.076-0.983-0.229-1.37c-0.154-0.388-0.367-0.708-0.646-0.961c-0.277-0.254-0.609-0.443-0.996-0.567
			c-0.389-0.124-0.82-0.187-1.299-0.187c-0.449,0-0.881,0.031-1.291,0.094c-0.412,0.062-0.797,0.144-1.154,0.244
			c-0.359,0.1-0.689,0.214-0.99,0.344c-0.303,0.129-0.557,0.266-0.768,0.409l-0.875-1.852c0.354-0.229,0.74-0.441,1.162-0.638
			c0.42-0.196,0.863-0.363,1.326-0.502c0.465-0.139,0.938-0.249,1.42-0.33c0.484-0.081,0.959-0.122,1.428-0.122
			c0.861,0,1.635,0.104,2.324,0.308c0.689,0.207,1.273,0.524,1.752,0.954c0.477,0.431,0.846,0.979,1.104,1.643
			c0.258,0.665,0.387,1.462,0.387,2.39l-0.014,7.432h1.65v2.467h-4.318V91.538z M147.408,91.093c0.354,0,0.707-0.042,1.061-0.128
			c0.354-0.087,0.689-0.203,1.004-0.352c0.316-0.148,0.607-0.32,0.875-0.517c0.27-0.196,0.494-0.399,0.676-0.609l0.014-3.357h-3.1
			c-0.516,0-0.986,0.058-1.412,0.172s-0.795,0.282-1.105,0.502c-0.311,0.221-0.551,0.493-0.725,0.817
			c-0.172,0.326-0.258,0.699-0.258,1.119c0,0.393,0.072,0.734,0.215,1.026c0.145,0.292,0.348,0.536,0.609,0.731
			c0.264,0.195,0.578,0.344,0.941,0.445C146.566,91.044,146.967,91.093,147.408,91.093z"/>
		<path fill="#3FA9F5" d="M169.041,81.194h-2.725v-0.918c-0.316,0-0.639,0.061-0.969,0.179c-0.33,0.12-0.639,0.302-0.926,0.546
			c-0.287,0.243-0.537,0.555-0.752,0.932c-0.215,0.379-0.371,0.825-0.467,1.342v7.174h2.525v2.467h-7.375v-2.467h2.053l0.014-9.928
			h-2.066v-2.468h4.75v2.051c0.172-0.306,0.365-0.59,0.58-0.854c0.215-0.263,0.455-0.492,0.719-0.688
			c0.262-0.196,0.553-0.349,0.875-0.459c0.32-0.109,0.666-0.165,1.039-0.165c0.496,0,0.965,0,1.406,0
			c0.439,0,0.879,0.01,1.318,0.029V81.194z"/>
		<path fill="#3FA9F5" d="M172.012,70.592h5.236v2.469h-0.029v11.104h2.582l3.529-3.644h-0.889v-2.468h5.639v2.468h-1.881
			l-4.518,4.662l4.936,5.266h1.791v2.467h-3.141l-6.082-6.642h-1.967v4.175h1.234v2.467h-6.355v-2.467h2.439V73.061h-2.525V70.592z"
			/>
		<path fill="#3FA9F5" d="M193.102,85.828c0,0.422,0.029,0.806,0.092,1.155c0.062,0.349,0.15,0.682,0.266,0.996
			c0.354,0.957,0.92,1.677,1.699,2.159c0.781,0.484,1.662,0.726,2.648,0.726c0.773,0,1.527-0.108,2.26-0.323
			c0.73-0.215,1.498-0.552,2.303-1.012l1.074,1.822c-0.975,0.67-1.955,1.167-2.939,1.492c-0.986,0.325-2.01,0.487-3.07,0.487
			c-1.004,0-1.936-0.167-2.791-0.502s-1.592-0.832-2.209-1.492c-0.617-0.659-1.1-1.481-1.449-2.467s-0.523-2.134-0.523-3.443
			c0-1.062,0.148-2.063,0.445-3.006c0.295-0.942,0.738-1.764,1.326-2.468c0.588-0.703,1.318-1.26,2.188-1.671
			c0.871-0.411,1.885-0.617,3.041-0.617c1.119,0,2.055,0.17,2.807,0.51c0.75,0.339,1.361,0.789,1.836,1.349
			c0.473,0.56,0.832,1.197,1.076,1.915c0.242,0.717,0.412,1.448,0.508,2.194c0.049,0.364,0.08,0.732,0.094,1.105
			c0.014,0.372,0.021,0.736,0.021,1.09H193.102z M197.275,79.903c-0.623,0-1.164,0.089-1.629,0.266
			c-0.463,0.177-0.857,0.43-1.184,0.761c-0.324,0.33-0.586,0.733-0.781,1.212c-0.197,0.479-0.342,1.014-0.438,1.606h7.703
			c-0.037-0.555-0.125-1.066-0.266-1.535c-0.139-0.469-0.352-0.875-0.637-1.219c-0.287-0.345-0.656-0.612-1.105-0.805
			C198.49,79.999,197.936,79.903,197.275,79.903z"/>
		<path fill="#3FA9F5" d="M211.736,78.053h3.486v2.167h-3.514l-0.045,8.578c0,0.583,0.068,1.058,0.203,1.42
			c0.133,0.364,0.348,0.615,0.645,0.754s0.631,0.207,1.004,0.207c0.402,0,0.756-0.035,1.062-0.106
			c0.305-0.072,0.641-0.194,1.004-0.366l0.617,1.794c-0.461,0.238-0.943,0.428-1.449,0.566c-0.508,0.138-1.105,0.208-1.793,0.208
			c-0.652,0-1.217-0.079-1.701-0.237c-0.482-0.157-0.889-0.423-1.219-0.796s-0.576-0.873-0.738-1.5
			c-0.164-0.626-0.244-1.408-0.244-2.345l0.043-8.177h-2.367v-2.167h2.395v-3.559l2.611-1.233V78.053z"/>
		<path fill="#3FA9F5" d="M218.25,78.053h4.85v12.396h2.238v2.467h-7.059v-2.467h2.123v-9.928h-2.152V78.053z"/>
		<path fill="#3FA9F5" d="M237.574,90.448h2.096v-6.787c0-1.137-0.289-2.001-0.869-2.589c-0.578-0.588-1.408-0.883-2.488-0.883
			c-0.621,0-1.248,0.148-1.879,0.445c-0.633,0.297-1.229,0.665-1.793,1.104v8.709h2.094v2.467h-6.943v-2.467h2.066v-9.928h-2.066
			v-2.468h4.734v1.75h0.029c0.314-0.277,0.652-0.54,1.012-0.789c0.357-0.249,0.732-0.464,1.125-0.646s0.801-0.325,1.227-0.431
			c0.426-0.104,0.873-0.158,1.342-0.158c0.793,0,1.51,0.11,2.152,0.33c0.641,0.221,1.186,0.555,1.635,1.005
			c0.449,0.449,0.797,1.026,1.039,1.729c0.244,0.703,0.367,1.533,0.367,2.489v7.116h2.064v2.467h-6.943V90.448z"/>
		<path fill="#3FA9F5" d="M258.262,91.609c-0.486,0.517-1.053,0.919-1.699,1.205c-0.646,0.288-1.379,0.431-2.201,0.431
			c-1.006,0-1.939-0.174-2.805-0.523c-0.867-0.349-1.617-0.861-2.252-1.535c-0.637-0.674-1.135-1.502-1.494-2.481
			c-0.357-0.98-0.537-2.103-0.537-3.364c0-1.147,0.172-2.193,0.516-3.135c0.346-0.942,0.834-1.745,1.465-2.41
			s1.391-1.181,2.279-1.55c0.891-0.368,1.881-0.553,2.971-0.553c0.746,0,1.418,0.085,2.016,0.251
			c0.598,0.168,1.178,0.458,1.742,0.868v-0.76h2.67v14.274c0,2.354-0.559,4.132-1.672,5.337c-1.115,1.205-2.848,1.808-5.199,1.808
			c-0.518,0-1.059-0.038-1.623-0.114c-0.564-0.077-1.121-0.199-1.67-0.366c-0.551-0.168-1.086-0.381-1.607-0.639
			c-0.521-0.259-1.002-0.573-1.441-0.947l1.434-2.166c0.287,0.249,0.615,0.479,0.982,0.688c0.369,0.21,0.764,0.39,1.184,0.538
			c0.422,0.149,0.857,0.267,1.307,0.353s0.898,0.128,1.348,0.128c0.736,0,1.375-0.076,1.916-0.229
			c0.541-0.152,0.984-0.423,1.334-0.811c0.35-0.387,0.609-0.91,0.781-1.57s0.258-1.497,0.258-2.511V91.609z M254.705,90.921
			c0.439,0,0.842-0.043,1.205-0.129s0.693-0.198,0.99-0.337s0.557-0.299,0.781-0.481c0.225-0.181,0.418-0.372,0.58-0.573v-8.134
			c-0.486-0.431-1.049-0.742-1.684-0.933c-0.637-0.192-1.289-0.287-1.959-0.287c-0.631,0-1.225,0.117-1.779,0.352
			s-1.041,0.576-1.455,1.025c-0.418,0.45-0.744,1-0.984,1.65c-0.238,0.649-0.357,1.396-0.357,2.237c0,0.918,0.113,1.727,0.344,2.425
			s0.551,1.284,0.961,1.758c0.412,0.473,0.904,0.83,1.477,1.068C253.398,90.802,254.025,90.921,254.705,90.921z"/>
	</g>
	<g>
		<path fill="#3FA9F5" d="M73.442,52.375h4.428l9.917-9.916V28.438l-9.917-9.914H63.846l-9.916,9.914v2.37
			c6.449,5.028,10.639,12.813,10.774,21.567h3.464c0.445,0,0.83,0.294,0.953,0.724c0.261,0.925,1.026,2.973,2.093,4.368
			c-0.289-2.259,0.732-4.031,1.543-4.814C72.939,52.477,73.186,52.375,73.442,52.375z"/>
		<path fill="#3FA9F5" d="M39.394,76.16c0.12-0.428,0.505-0.726,0.952-0.726h5.806l13.225-13.221V43.516L46.152,30.298H27.455
			L14.232,43.516v18.698l13.223,13.221h5.95c0.257,0,0.503,0.103,0.691,0.282c1.141,1.11,2.628,3.795,1.713,7.176
			C37.651,81.128,38.96,77.708,39.394,76.16z"/>
		<path fill="#3FA9F5" d="M73.8,56.674c-0.097,0.344-0.115,1.511,1.062,3.729c0.158,0.308,0.155,0.73-0.026,1.026
			c-0.094,0.155-0.377,0.517-0.986,0.517c-1.21,0-5.178-1.61-6.306-5.33c-1.037-0.16-2.032-0.419-3.005-0.727
			c-0.001,0.012-0.002,0.025-0.002,0.037c-1.389,12.466-11.038,22.642-23.615,24.505c-1.353,4.789-6.549,6.973-8.046,6.973
			c-0.624,0-0.918-0.335-1.037-0.528c-0.189-0.323-0.198-0.711-0.021-1.046c1.856-3.507,1.509-5.087,1.328-5.337
			C19.32,78.684,8.9,66.798,8.9,52.823c0-15.387,12.517-27.905,27.905-27.905c4.99,0,9.671,1.321,13.726,3.624
			c0-0.002,0.001-0.003,0.001-0.004C53.407,20.07,61.431,13.96,70.859,13.96c0.974,0,1.933,0.071,2.872,0.198l-9.8-9.801H27.653
			L2,30.01v36.278L27.653,91.94h36.278l25.653-25.652V45.835C86.387,51.562,80.653,55.733,73.8,56.674z"/>
	</g>
	<path fill="#3FA9F5" d="M223.389,72.767l0.459-2.682l-2.406,1.265l-2.408-1.265l0.461,2.682l-1.949,1.899l2.693,0.391l1.203,2.441
		l1.205-2.441l2.691-0.391L223.389,72.767z M221.449,74.979c-0.904,0-1.637-0.729-1.637-1.635c0-0.902,0.732-1.633,1.637-1.633
		c0.902,0,1.635,0.73,1.635,1.633C223.084,74.251,222.352,74.979,221.449,74.979z"/>
</g>
</svg>
