<?xml version="1.0" encoding="UTF-8" standalone="no"?>
<!DOCTYPE svg PUBLIC "-//W3C//DTD SVG 1.1//EN" "http://www.w3.org/Graphics/SVG/1.1/DTD/svg11.dtd">
<svg width="100%" height="100%" viewBox="0 0 264 103" version="1.1" xmlns="http://www.w3.org/2000/svg" xmlns:xlink="http://www.w3.org/1999/xlink" xml:space="preserve" xmlns:serif="http://www.serif.com/" style="fill-rule:evenodd;clip-rule:evenodd;stroke-linejoin:round;stroke-miterlimit:2;">
    <g>
        <g>
            <path d="M112.052,4.739L153.967,4.739L153.967,21.298L146.055,21.298L146.055,11.417L125.175,11.417L125.175,30.214L145.283,30.214L145.283,36.698L125.175,36.698L125.175,56.614L131.041,56.614L131.041,63.254L112.052,63.254L112.052,56.614L117.61,56.614L117.61,11.417L112.052,11.417L112.052,4.739Z" style="fill:white;fill-rule:nonzero;"/>
            <path d="M153.545,43.259C153.568,40.093 154.076,37.212 155.068,34.613C156.058,32.014 157.441,29.782 159.216,27.917C160.991,26.052 163.103,24.617 165.546,23.613C167.991,22.61 170.679,22.108 173.612,22.108C176.571,22.108 179.28,22.61 181.737,23.613C184.194,24.616 186.298,26.039 188.048,27.879C189.798,29.718 191.161,31.938 192.14,34.536C193.117,37.136 193.607,40.017 193.607,43.182C193.607,46.295 193.117,49.159 192.14,51.769C191.161,54.381 189.798,56.626 188.048,58.504C186.298,60.382 184.194,61.843 181.737,62.884C179.28,63.927 176.571,64.448 173.612,64.448C170.602,64.448 167.874,63.932 165.43,62.904C162.985,61.875 160.887,60.427 159.139,58.561C157.389,56.697 156.024,54.464 155.047,51.865C154.07,49.268 153.568,46.398 153.545,43.259ZM161.148,43.259C161.148,45.549 161.476,47.62 162.13,49.472C162.786,51.325 163.687,52.902 164.831,54.201C165.977,55.501 167.302,56.504 168.808,57.212C170.314,57.92 171.915,58.274 173.613,58.274C175.388,58.274 177.043,57.926 178.574,57.231C180.103,56.537 181.435,55.541 182.568,54.241C183.699,52.942 184.588,51.365 185.232,49.512C185.875,47.659 186.195,45.575 186.195,43.26C186.195,40.841 185.875,38.693 185.232,36.814C184.587,34.936 183.707,33.367 182.587,32.106C181.467,30.845 180.136,29.893 178.591,29.25C177.048,28.607 175.388,28.285 173.612,28.285C171.915,28.285 170.313,28.607 168.807,29.25C167.301,29.894 165.977,30.846 164.83,32.106C163.685,33.367 162.785,34.936 162.129,36.814C161.477,38.692 161.148,40.84 161.148,43.259Z" style="fill:white;fill-rule:nonzero;"/>
            <path d="M230.12,31.719L222.787,31.719L222.787,29.249C221.937,29.249 221.068,29.41 220.18,29.731C219.293,30.053 218.463,30.542 217.692,31.198C216.921,31.854 216.245,32.69 215.665,33.707C215.087,34.724 214.669,35.926 214.411,37.315L214.411,56.613L221.204,56.613L221.204,63.253L201.366,63.253L201.366,56.613L206.886,56.613L206.925,29.905L201.366,29.905L201.366,23.266L214.141,23.266L214.141,28.785C214.604,27.962 215.125,27.197 215.703,26.489C216.281,25.781 216.926,25.164 217.633,24.636C218.342,24.109 219.125,23.698 219.987,23.4C220.85,23.105 221.784,22.957 222.788,22.957L226.569,22.957C227.752,22.957 228.936,22.983 230.12,23.034L230.12,31.719Z" style="fill:white;fill-rule:nonzero;"/>
            <path d="M249.996,23.266L259.375,23.266L259.375,29.094L249.92,29.094L249.805,52.175C249.805,53.745 249.983,55.019 250.344,55.996C250.705,56.973 251.283,57.649 252.08,58.022C252.879,58.395 253.779,58.582 254.781,58.582C255.863,58.582 256.814,58.485 257.638,58.293C258.46,58.1 259.363,57.772 260.339,57.308L261.999,62.133C260.765,62.777 259.464,63.284 258.101,63.658C256.736,64.03 255.13,64.217 253.277,64.217C251.527,64.217 250.002,64.005 248.703,63.581C247.404,63.156 246.31,62.441 245.424,61.438C244.535,60.434 243.873,59.09 243.436,57.404C242.998,55.719 242.78,53.616 242.78,51.094L242.895,29.094L236.526,29.094L236.526,23.266L242.971,23.266L242.971,13.693L249.996,10.374L249.996,23.266Z" style="fill:white;fill-rule:nonzero;"/>
        </g>
        <g>
            <path d="M111.498,90.448L113.564,90.448L113.564,73.906L111.498,73.906L111.498,71.166L118.385,71.166L125.285,89.945L132.272,71.166L138.799,71.166L138.799,73.906L136.748,73.906L136.748,90.448L138.799,90.448L138.799,92.915L131.74,92.915L131.74,90.448L134.066,90.448L134.066,73.749L126.462,92.915L124.023,92.915L116.319,73.705L116.319,90.448L118.557,90.448L118.557,92.915L111.498,92.915L111.498,90.448Z" style="fill:white;fill-rule:nonzero;"/>
            <path d="M151.023,91.538C150.459,92.064 149.834,92.494 149.15,92.829C148.466,93.164 147.689,93.331 146.818,93.331C146.091,93.331 145.425,93.217 144.818,92.987C144.211,92.757 143.687,92.445 143.248,92.047C142.807,91.651 142.465,91.19 142.221,90.663C141.977,90.138 141.856,89.577 141.856,88.984C141.856,88.353 141.95,87.794 142.135,87.306C142.323,86.818 142.571,86.394 142.881,86.035C143.191,85.676 143.555,85.375 143.971,85.131C144.389,84.888 144.823,84.693 145.278,84.544C145.731,84.396 146.196,84.29 146.669,84.228C147.144,84.166 147.595,84.135 148.024,84.135C148.713,84.135 149.292,84.156 149.76,84.199C150.228,84.242 150.655,84.302 151.037,84.379L151.051,83.159C151.051,82.633 150.975,82.176 150.822,81.789C150.668,81.401 150.455,81.081 150.176,80.828C149.899,80.574 149.567,80.385 149.18,80.261C148.791,80.137 148.36,80.074 147.881,80.074C147.432,80.074 147,80.105 146.59,80.168C146.178,80.23 145.793,80.312 145.436,80.412C145.077,80.512 144.747,80.626 144.446,80.756C144.143,80.885 143.889,81.022 143.678,81.165L142.803,79.313C143.157,79.084 143.543,78.872 143.965,78.675C144.385,78.479 144.828,78.312 145.291,78.173C145.756,78.034 146.229,77.924 146.711,77.843C147.195,77.762 147.67,77.721 148.139,77.721C149,77.721 149.774,77.825 150.463,78.029C151.152,78.236 151.736,78.553 152.215,78.983C152.692,79.414 153.061,79.962 153.319,80.626C153.577,81.291 153.706,82.088 153.706,83.016L153.692,90.448L155.342,90.448L155.342,92.915L151.024,92.915L151.024,91.538L151.023,91.538ZM147.408,91.093C147.762,91.093 148.115,91.051 148.469,90.965C148.823,90.878 149.158,90.762 149.473,90.613C149.789,90.465 150.08,90.293 150.348,90.096C150.618,89.9 150.842,89.697 151.024,89.487L151.038,86.13L147.938,86.13C147.422,86.13 146.952,86.188 146.526,86.302C146.1,86.416 145.731,86.584 145.421,86.804C145.11,87.025 144.87,87.297 144.696,87.621C144.524,87.947 144.438,88.32 144.438,88.74C144.438,89.133 144.51,89.474 144.653,89.766C144.798,90.058 145.001,90.302 145.262,90.497C145.526,90.692 145.84,90.841 146.203,90.942C146.566,91.044 146.967,91.093 147.408,91.093Z" style="fill:white;fill-rule:nonzero;"/>
            <path d="M169.041,81.194L166.316,81.194L166.316,80.276C166,80.276 165.677,80.337 165.347,80.455C165.017,80.575 164.708,80.757 164.421,81.001C164.134,81.244 163.884,81.556 163.669,81.933C163.454,82.312 163.298,82.758 163.202,83.275L163.202,90.449L165.727,90.449L165.727,92.916L158.352,92.916L158.352,90.449L160.405,90.449L160.419,80.521L158.353,80.521L158.353,78.053L163.103,78.053L163.103,80.104C163.275,79.798 163.468,79.514 163.683,79.25C163.898,78.987 164.138,78.758 164.402,78.562C164.664,78.366 164.955,78.213 165.277,78.103C165.597,77.994 165.943,77.938 166.316,77.938L167.722,77.938C168.161,77.938 168.601,77.948 169.04,77.967L169.04,81.194L169.041,81.194Z" style="fill:white;fill-rule:nonzero;"/>
            <path d="M172.011,70.592L177.248,70.592L177.248,73.061L177.219,73.061L177.219,84.165L179.801,84.165L183.33,80.521L182.441,80.521L182.441,78.053L188.08,78.053L188.08,80.521L186.199,80.521L181.681,85.183L186.617,90.449L188.408,90.449L188.408,92.916L185.267,92.916L179.185,86.274L177.218,86.274L177.218,90.449L178.452,90.449L178.452,92.916L172.097,92.916L172.097,90.449L174.536,90.449L174.536,73.061L172.011,73.061L172.011,70.592Z" style="fill:white;fill-rule:nonzero;"/>
            <path d="M193.102,85.828C193.102,86.25 193.131,86.634 193.194,86.983C193.256,87.332 193.344,87.665 193.46,87.979C193.814,88.936 194.38,89.656 195.159,90.138C195.94,90.622 196.821,90.864 197.807,90.864C198.58,90.864 199.334,90.756 200.067,90.541C200.797,90.326 201.565,89.989 202.37,89.529L203.444,91.351C202.469,92.021 201.489,92.518 200.505,92.843C199.519,93.168 198.495,93.33 197.435,93.33C196.431,93.33 195.499,93.163 194.644,92.828C193.789,92.493 193.052,91.996 192.435,91.336C191.818,90.677 191.335,89.855 190.986,88.869C190.637,87.883 190.463,86.735 190.463,85.426C190.463,84.364 190.611,83.363 190.908,82.42C191.203,81.478 191.646,80.656 192.234,79.952C192.822,79.249 193.552,78.692 194.422,78.281C195.293,77.87 196.307,77.664 197.463,77.664C198.582,77.664 199.518,77.834 200.27,78.174C201.02,78.513 201.631,78.963 202.106,79.523C202.579,80.083 202.938,80.72 203.182,81.438C203.424,82.155 203.594,82.886 203.69,83.632C203.739,83.996 203.77,84.364 203.784,84.737C203.798,85.109 203.805,85.473 203.805,85.827L193.102,85.827L193.102,85.828ZM197.275,79.903C196.652,79.903 196.111,79.992 195.646,80.169C195.183,80.346 194.789,80.599 194.462,80.93C194.138,81.26 193.876,81.663 193.681,82.142C193.484,82.621 193.339,83.156 193.243,83.748L200.946,83.748C200.909,83.193 200.821,82.682 200.68,82.213C200.541,81.744 200.328,81.338 200.043,80.994C199.756,80.649 199.387,80.382 198.938,80.189C198.49,79.999 197.936,79.903 197.275,79.903Z" style="fill:white;fill-rule:nonzero;"/>
            <path d="M211.736,78.053L215.222,78.053L215.222,80.22L211.708,80.22L211.663,88.798C211.663,89.381 211.731,89.856 211.866,90.218C211.999,90.582 212.214,90.833 212.511,90.972C212.808,91.111 213.142,91.179 213.515,91.179C213.917,91.179 214.271,91.144 214.577,91.073C214.882,91.001 215.218,90.879 215.581,90.707L216.198,92.501C215.737,92.739 215.255,92.929 214.749,93.067C214.241,93.205 213.644,93.275 212.956,93.275C212.304,93.275 211.739,93.196 211.255,93.038C210.773,92.881 210.366,92.615 210.036,92.242C209.706,91.869 209.46,91.369 209.298,90.742C209.134,90.116 209.054,89.334 209.054,88.397L209.097,80.22L206.73,80.22L206.73,78.053L209.125,78.053L209.125,74.494L211.736,73.261L211.736,78.053Z" style="fill:white;fill-rule:nonzero;"/>
            <path d="M218.25,78.053L223.1,78.053L223.1,90.449L225.338,90.449L225.338,92.916L218.279,92.916L218.279,90.449L220.402,90.449L220.402,80.521L218.25,80.521L218.25,78.053Z" style="fill:white;fill-rule:nonzero;"/>
            <path d="M237.574,90.448L239.67,90.448L239.67,83.661C239.67,82.524 239.381,81.66 238.801,81.072C238.223,80.484 237.393,80.189 236.313,80.189C235.692,80.189 235.065,80.337 234.434,80.634C233.801,80.931 233.205,81.299 232.641,81.738L232.641,90.447L234.735,90.447L234.735,92.914L227.792,92.914L227.792,90.447L229.858,90.447L229.858,80.519L227.792,80.519L227.792,78.051L232.526,78.051L232.526,79.801L232.555,79.801C232.869,79.524 233.207,79.261 233.567,79.012C233.924,78.763 234.299,78.548 234.692,78.366C235.085,78.184 235.493,78.041 235.919,77.935C236.345,77.831 236.792,77.777 237.261,77.777C238.054,77.777 238.771,77.887 239.413,78.107C240.054,78.328 240.599,78.662 241.048,79.112C241.497,79.561 241.845,80.138 242.087,80.841C242.331,81.544 242.454,82.374 242.454,83.33L242.454,90.446L244.518,90.446L244.518,92.913L237.575,92.913L237.575,90.448L237.574,90.448Z" style="fill:white;fill-rule:nonzero;"/>
            <path d="M258.262,91.609C257.776,92.126 257.209,92.528 256.563,92.814C255.917,93.102 255.184,93.245 254.362,93.245C253.356,93.245 252.423,93.071 251.557,92.722C250.69,92.373 249.94,91.861 249.305,91.187C248.668,90.513 248.17,89.685 247.811,88.706C247.454,87.726 247.274,86.603 247.274,85.342C247.274,84.195 247.446,83.149 247.79,82.207C248.136,81.265 248.624,80.462 249.255,79.797C249.886,79.132 250.646,78.616 251.534,78.247C252.425,77.879 253.415,77.694 254.505,77.694C255.251,77.694 255.923,77.779 256.521,77.945C257.119,78.113 257.699,78.403 258.263,78.813L258.263,78.053L260.933,78.053L260.933,92.327C260.933,94.681 260.374,96.459 259.261,97.664C258.146,98.869 256.413,99.472 254.062,99.472C253.544,99.472 253.003,99.434 252.439,99.358C251.875,99.281 251.318,99.159 250.769,98.992C250.218,98.824 249.683,98.611 249.162,98.353C248.641,98.094 248.16,97.78 247.721,97.406L249.155,95.24C249.442,95.489 249.77,95.719 250.137,95.928C250.506,96.138 250.901,96.318 251.321,96.466C251.743,96.615 252.178,96.733 252.628,96.819C253.078,96.905 253.526,96.947 253.976,96.947C254.712,96.947 255.351,96.871 255.892,96.718C256.433,96.566 256.876,96.295 257.226,95.907C257.576,95.52 257.835,94.997 258.007,94.337C258.179,93.677 258.265,92.84 258.265,91.826L258.265,91.609L258.262,91.609ZM254.705,90.921C255.144,90.921 255.547,90.878 255.91,90.792C256.273,90.706 256.603,90.594 256.9,90.455C257.197,90.316 257.457,90.156 257.681,89.974C257.906,89.793 258.099,89.602 258.261,89.401L258.261,81.267C257.775,80.836 257.212,80.525 256.577,80.334C255.94,80.142 255.288,80.047 254.618,80.047C253.987,80.047 253.393,80.164 252.839,80.399C252.285,80.634 251.798,80.975 251.384,81.424C250.966,81.874 250.64,82.424 250.4,83.074C250.162,83.723 250.043,84.47 250.043,85.311C250.043,86.229 250.156,87.038 250.387,87.736C250.618,88.434 250.938,89.02 251.348,89.494C251.76,89.967 252.252,90.324 252.825,90.562C253.398,90.802 254.025,90.921 254.705,90.921Z" style="fill:white;fill-rule:nonzero;"/>
        </g>
        <g>
            <path d="M73.442,52.375L77.87,52.375L87.787,42.459L87.787,28.438L77.87,18.524L63.846,18.524L53.93,28.438L53.93,30.808C60.379,35.836 64.569,43.621 64.704,52.375L68.168,52.375C68.613,52.375 68.998,52.669 69.121,53.099C69.382,54.024 70.147,56.072 71.214,57.467C70.925,55.208 71.946,53.436 72.757,52.653C72.939,52.477 73.186,52.375 73.442,52.375Z" style="fill:white;fill-rule:nonzero;"/>
            <path d="M39.394,76.16C39.514,75.732 39.899,75.434 40.346,75.434L46.152,75.434L59.377,62.213L59.377,43.516L46.152,30.298L27.455,30.298L14.232,43.516L14.232,62.214L27.455,75.435L33.405,75.435C33.662,75.435 33.908,75.538 34.096,75.717C35.237,76.827 36.724,79.512 35.809,82.893C37.651,81.128 38.96,77.708 39.394,76.16Z" style="fill:white;fill-rule:nonzero;"/>
            <path d="M73.8,56.674C73.703,57.018 73.685,58.185 74.862,60.403C75.02,60.711 75.017,61.133 74.836,61.429C74.742,61.584 74.459,61.946 73.85,61.946C72.64,61.946 68.672,60.336 67.544,56.616C66.507,56.456 65.512,56.197 64.539,55.889C64.538,55.901 64.537,55.914 64.537,55.926C63.148,68.392 53.499,78.568 40.922,80.431C39.569,85.22 34.373,87.404 32.876,87.404C32.252,87.404 31.958,87.069 31.839,86.876C31.65,86.553 31.641,86.165 31.818,85.83C33.674,82.323 33.327,80.743 33.146,80.493C19.32,78.684 8.9,66.798 8.9,52.823C8.9,37.436 21.417,24.918 36.805,24.918C41.795,24.918 46.476,26.239 50.531,28.542C50.531,28.54 50.532,28.539 50.532,28.538C53.407,20.07 61.431,13.96 70.859,13.96C71.833,13.96 72.792,14.031 73.731,14.158L63.931,4.357L27.653,4.357L2,30.01L2,66.288L27.653,91.94L63.931,91.94L89.584,66.288L89.584,45.835C86.387,51.562 80.653,55.733 73.8,56.674Z" style="fill:white;fill-rule:nonzero;"/>
        </g>
        <path d="M223.389,72.767L223.848,70.085L221.442,71.35L219.034,70.085L219.495,72.767L217.546,74.666L220.239,75.057L221.442,77.498L222.647,75.057L225.338,74.666L223.389,72.767ZM221.449,74.979C220.545,74.979 219.812,74.25 219.812,73.344C219.812,72.442 220.544,71.711 221.449,71.711C222.351,71.711 223.084,72.441 223.084,73.344C223.084,74.251 222.352,74.979 221.449,74.979Z" style="fill:white;fill-rule:nonzero;"/>
    </g>
</svg>
