<?xml version="1.0" encoding="UTF-8" standalone="no"?>
<!DOCTYPE svg PUBLIC "-//W3C//DTD SVG 1.1//EN" "http://www.w3.org/Graphics/SVG/1.1/DTD/svg11.dtd">
<svg width="100%" height="100%" viewBox="0 0 155 155" version="1.1" xmlns="http://www.w3.org/2000/svg" xmlns:xlink="http://www.w3.org/1999/xlink" xml:space="preserve" xmlns:serif="http://www.serif.com/" style="fill-rule:evenodd;clip-rule:evenodd;stroke-linejoin:round;stroke-miterlimit:2;">
    <g transform="matrix(0.988855,0,0,0.988855,-110.343,-111.193)">
        <g id="LOGO">
            <g>
                <path d="M265.3,174.4L265.1,173.8L243.9,118.5C243.5,117.4 242.7,116.5 241.7,115.9C240.7,115.3 239.6,115 238.4,115C237.2,115 236.1,115.5 235.2,116.2C234.3,116.9 233.6,117.9 233.3,119.1L219,162.9L161.1,162.9L146.8,119.1C146.5,118 145.8,117 144.9,116.2C144,115.5 142.9,115 141.7,115C140.5,115 139.4,115.2 138.4,115.9C137.4,116.5 136.6,117.4 136.2,118.5L115,173.8L114.8,174.4C108.5,190.8 113.9,209.3 127.9,219.9L128.1,219.9C128.1,220 160.4,244.2 160.4,244.2L176.4,256.3L186.1,263.6C188.4,265.4 191.7,265.4 194,263.6L203.7,256.3L219.7,244.2L252.2,219.9C266.2,209.3 271.5,190.8 265.2,174.4L265.3,174.4Z" style="fill:rgb(226,67,41);fill-rule:nonzero;"/>
                <path d="M265.3,174.4L265.1,173.8C254.6,176 244.9,180.4 236.6,186.6C236.5,186.6 211.4,205.7 190,221.8C205.8,233.8 219.6,244.2 219.6,244.2L252.1,219.9C266.1,209.3 271.4,190.8 265.1,174.4L265.3,174.4Z" style="fill:rgb(252,109,38);fill-rule:nonzero;"/>
                <path d="M160.3,244.2L176.3,256.3L186,263.6C188.3,265.4 191.6,265.4 193.9,263.6L203.6,256.3L219.6,244.2C219.6,244.2 205.8,233.8 190,221.8C174.1,233.8 160.3,244.2 160.3,244.2Z" style="fill:rgb(252,163,38);fill-rule:nonzero;"/>
                <path d="M143.4,186.6C135.1,180.4 125.4,175.9 114.9,173.8L114.7,174.4C108.4,190.8 113.8,209.3 127.8,219.9L128,219.9C128,220 160.3,244.2 160.3,244.2C160.3,244.2 174.1,233.8 190,221.8C168.7,205.7 143.6,186.7 143.4,186.6Z" style="fill:rgb(252,109,38);fill-rule:nonzero;"/>
            </g>
        </g>
    </g>
</svg>
