<?xml version="1.0" encoding="utf-8"?>
<!-- Generator: Adobe Illustrator 16.0.0, SVG Export Plug-In . SVG Version: 6.00 Build 0)  -->
<!DOCTYPE svg PUBLIC "-//W3C//DTD SVG 1.1//EN" "http://www.w3.org/Graphics/SVG/1.1/DTD/svg11.dtd">
<svg version="1.1" id="Layer_1" xmlns="http://www.w3.org/2000/svg" xmlns:xlink="http://www.w3.org/1999/xlink" x="0px" y="0px"
	 width="24px" height="24px" viewBox="0 0 24 24" enable-background="new 0 0 24 24" xml:space="preserve">
<g>
	<path fill-rule="evenodd" clip-rule="evenodd" fill="#FF5E15" d="M11.992,6.142c-2.041,0-3.699,1.658-3.699,3.7
		c0,2.041,1.658,3.698,3.699,3.698c2.042,0,3.7-1.644,3.7-3.698C15.692,7.787,14.034,6.142,11.992,6.142z"/>
	<path fill-rule="evenodd" clip-rule="evenodd" fill="#FF5E15" d="M12,0.504C5.651,0.504,0.503,5.651,0.503,12
		S5.651,23.496,12,23.496c6.35,0,11.497-5.146,11.497-11.496S18.35,0.504,12,0.504z M15.967,15.596
		c-0.96,1.534-2.098,2.974-3.385,4.248c-0.329,0.329-0.85,0.329-1.165,0c-1.466-1.507-2.727-3.206-3.781-5.029
		c-0.863-1.465-1.74-3.055-1.74-4.808c0-3.371,2.728-6.098,6.097-6.098c3.371,0,6.098,2.74,6.112,6.098
		C18.104,12.02,16.994,13.938,15.967,15.596z"/>
</g>
</svg>
