<svg width="14" height="13" viewBox="0 0 14 13" fill="none" xmlns="http://www.w3.org/2000/svg">
<path id="Vector" d="M12.8567 5.10149H8.67054C8.57166 5.10149 8.37169 5.00306 8.37169 4.90246L7.07739 0.935C6.9785 0.637552 6.47968 0.637552 6.3808 0.935L5.08649 4.90246C5.08649 5.00089 4.88653 5.10149 4.78764 5.10149H0.601503C0.302652 5.10149 0.102683 5.49736 0.401535 5.69639L3.79001 8.1766C3.88889 8.27503 3.98998 8.37563 3.88889 8.57248L2.59459 12.5399C2.49571 12.8374 2.89344 13.1348 3.09341 12.9358L6.48188 10.4556C6.58077 10.3572 6.78073 10.3572 6.87962 10.4556L10.2681 12.9358C10.5669 13.1348 10.8658 12.8374 10.7669 12.5399L9.47261 8.57247C9.47261 8.47405 9.47261 8.27502 9.5715 8.1766L12.96 5.69639C13.3555 5.49954 13.2544 5.10149 12.8567 5.10149Z" fill="#00AEEF"/>
</svg>
