<?xml version="1.0" encoding="UTF-8" standalone="no"?><!DOCTYPE svg PUBLIC "-//W3C//DTD SVG 1.1//EN" "http://www.w3.org/Graphics/SVG/1.1/DTD/svg11.dtd"><svg width="100%" height="100%" viewBox="0 0 16 16" version="1.1" xmlns="http://www.w3.org/2000/svg" xmlns:xlink="http://www.w3.org/1999/xlink" xml:space="preserve" xmlns:serif="http://www.serif.com/" style="fill-rule:evenodd;clip-rule:evenodd;stroke-linejoin:round;stroke-miterlimit:2;"><path d="M9.333,11.666c-0.666,0 -2.333,-1.332 -3,-1.999c-0.666,-0.667 -2,-2.334 -2,-3.001c0,-0.666 1.667,-1.333 1.667,-1.666l-1.334,-4l-1.333,0c-0.666,0 -2.333,2 -2.333,3.333c-0,1.333 0.667,4 3.666,7c3.001,3 5.667,3.667 7,3.667c1.334,-0 3.334,-1.667 3.334,-2.334l-0,-1.333l-4,-1.333c-0.334,-0 -1,1.666 -1.667,1.666Z" style="fill:#fff;fill-rule:nonzero;"/></svg>