<?xml version="1.0" encoding="UTF-8" standalone="no"?><!DOCTYPE svg PUBLIC "-//W3C//DTD SVG 1.1//EN" "http://www.w3.org/Graphics/SVG/1.1/DTD/svg11.dtd"><svg width="100%" height="100%" viewBox="0 0 32 32" version="1.1" xmlns="http://www.w3.org/2000/svg" xmlns:xlink="http://www.w3.org/1999/xlink" xml:space="preserve" xmlns:serif="http://www.serif.com/" style="fill-rule:evenodd;clip-rule:evenodd;stroke-linejoin:round;stroke-miterlimit:2;"><path d="M27.929,2l-23.864,-0c-1.139,-0 -2.065,0.904 -2.065,2.019l-0,23.961c-0,1.115 0.926,2.02 2.065,2.02l23.864,0c1.141,0 2.071,-0.905 2.071,-2.02l-0,-23.961c-0,-1.115 -0.93,-2.019 -2.071,-2.019Zm-21.78,10.497l4.157,-0l-0,13.362l-4.157,0l-0,-13.362Zm6.762,-0l3.981,-0l0,1.827l0.057,-0c0.554,-1.051 1.909,-2.159 3.929,-2.159c4.205,0 4.982,2.767 4.982,6.366l0,7.328l-4.152,0l-0,-6.498c-0,-1.549 -0.027,-3.543 -2.158,-3.543c-2.161,0 -2.491,1.689 -2.491,3.432l0,6.609l-4.148,0l0,-13.362Zm-4.683,-6.643c1.329,0 2.408,1.079 2.408,2.409c-0,1.329 -1.079,2.408 -2.408,2.408c-1.333,0 -2.409,-1.079 -2.409,-2.408c0,-1.33 1.076,-2.409 2.409,-2.409Z" style="fill:#0e76a8;fill-rule:nonzero;"/></svg>