<?xml version="1.0" encoding="UTF-8" standalone="no"?>
<!DOCTYPE svg PUBLIC "-//W3C//DTD SVG 1.1//EN" "http://www.w3.org/Graphics/SVG/1.1/DTD/svg11.dtd">
<svg width="100%" height="100%" viewBox="0 0 100 100" version="1.1" xmlns="http://www.w3.org/2000/svg" xmlns:xlink="http://www.w3.org/1999/xlink" xml:space="preserve" xmlns:serif="http://www.serif.com/" style="fill-rule:evenodd;clip-rule:evenodd;stroke-linejoin:round;stroke-miterlimit:2;">
    <g transform="matrix(205.822,0,0,205.822,-3.16778,168.025)">
        <g id="_">
            <path d="M0.231,-0.48C0.231,-0.46 0.223,-0.441 0.206,-0.426C0.189,-0.41 0.169,-0.402 0.146,-0.402C0.111,-0.402 0.083,-0.414 0.064,-0.438C0.045,-0.462 0.035,-0.495 0.035,-0.537C0.035,-0.576 0.052,-0.615 0.085,-0.655C0.118,-0.694 0.158,-0.725 0.204,-0.745L0.226,-0.71C0.189,-0.693 0.16,-0.672 0.139,-0.648C0.118,-0.624 0.106,-0.595 0.103,-0.562L0.13,-0.562C0.151,-0.562 0.167,-0.559 0.18,-0.555C0.192,-0.55 0.203,-0.544 0.21,-0.536C0.218,-0.528 0.223,-0.519 0.226,-0.51C0.229,-0.5 0.231,-0.491 0.231,-0.48ZM0.472,-0.48C0.472,-0.46 0.463,-0.441 0.447,-0.426C0.43,-0.41 0.41,-0.402 0.387,-0.402C0.351,-0.402 0.324,-0.414 0.305,-0.438C0.285,-0.462 0.276,-0.495 0.276,-0.537C0.276,-0.576 0.292,-0.615 0.325,-0.655C0.358,-0.694 0.398,-0.725 0.445,-0.745L0.466,-0.71C0.43,-0.693 0.401,-0.672 0.38,-0.648C0.359,-0.624 0.347,-0.595 0.344,-0.562L0.371,-0.562C0.391,-0.562 0.408,-0.559 0.42,-0.555C0.433,-0.55 0.443,-0.544 0.451,-0.536C0.459,-0.528 0.464,-0.519 0.467,-0.51C0.47,-0.5 0.472,-0.491 0.472,-0.48Z" style="fill:rgb(23,169,230);fill-rule:nonzero;"/>
        </g>
    </g>
</svg>
