<?xml version="1.0" encoding="UTF-8" standalone="no"?><!DOCTYPE svg PUBLIC "-//W3C//DTD SVG 1.1//EN" "http://www.w3.org/Graphics/SVG/1.1/DTD/svg11.dtd"><svg width="100%" height="100%" viewBox="0 0 32 32" version="1.1" xmlns="http://www.w3.org/2000/svg" xmlns:xlink="http://www.w3.org/1999/xlink" xml:space="preserve" xmlns:serif="http://www.serif.com/" style="fill-rule:evenodd;clip-rule:evenodd;stroke-linejoin:round;stroke-miterlimit:2;"><path d="M22.273,2l-12.546,0c-4.261,0 -7.727,3.466 -7.727,7.727l0,12.546c0,4.261 3.466,7.727 7.727,7.727l12.546,-0c4.261,-0 7.727,-3.466 7.727,-7.727l-0,-12.546c0,-4.261 -3.466,-7.727 -7.727,-7.727Zm5.243,20.273c-0,2.891 -2.352,5.243 -5.243,5.243l-12.546,-0c-2.891,-0 -5.243,-2.352 -5.243,-5.243l0,-12.546c0,-2.891 2.352,-5.243 5.243,-5.243l12.546,0c2.891,0 5.243,2.352 5.243,5.243l-0,12.546l-0,0Z" style="fill:#ee0a69;fill-rule:nonzero;"/><path d="M16,8.785c-3.978,0 -7.215,3.237 -7.215,7.215c0,3.979 3.237,7.215 7.215,7.215c3.978,-0 7.215,-3.236 7.215,-7.215c-0,-3.978 -3.237,-7.215 -7.215,-7.215Zm-0,11.945c-2.608,0 -4.731,-2.121 -4.731,-4.73c0,-2.608 2.122,-4.73 4.731,-4.73c2.609,-0 4.731,2.122 4.731,4.73c-0,2.609 -2.123,4.73 -4.731,4.73Z" style="fill:#ee0a69;fill-rule:nonzero;"/><path d="M23.517,6.679c-0.478,-0 -0.948,0.194 -1.286,0.533c-0.34,0.338 -0.535,0.808 -0.535,1.289c-0,0.479 0.195,0.949 0.535,1.288c0.337,0.338 0.808,0.534 1.286,0.534c0.481,-0 0.949,-0.196 1.289,-0.534c0.34,-0.339 0.533,-0.81 0.533,-1.288c0,-0.481 -0.193,-0.951 -0.533,-1.289c-0.338,-0.339 -0.808,-0.533 -1.289,-0.533Z" style="fill:#ee0a69;fill-rule:nonzero;"/></svg>