<?xml version="1.0" encoding="utf-8"?>
<!-- Generator: Adobe Illustrator 16.0.0, SVG Export Plug-In . SVG Version: 6.00 Build 0)  -->
<!DOCTYPE svg PUBLIC "-//W3C//DTD SVG 1.1//EN" "http://www.w3.org/Graphics/SVG/1.1/DTD/svg11.dtd">
<svg version="1.1" id="Layer_1" xmlns="http://www.w3.org/2000/svg" xmlns:xlink="http://www.w3.org/1999/xlink" x="0px" y="0px"
	 width="24px" height="24px" viewBox="0 0 24 24" enable-background="new 0 0 24 24" xml:space="preserve">
<g>
	<circle fill-rule="evenodd" clip-rule="evenodd" fill="#009DDC" cx="12" cy="12" r="11.496"/>
	<g>
		<polygon fill="#FFFFFF" points="18.323,15.467 18.323,9.33 14.634,12.398 		"/>
		<path fill="#FFFFFF" d="M13.19,13.598c-0.042,0.035-0.086,0.068-0.131,0.1c-0.039,0.027-0.08,0.053-0.121,0.076
			c-0.004,0.004-0.01,0.006-0.014,0.01c-0.141,0.08-0.287,0.139-0.439,0.18c-0.002,0.002-0.004,0.002-0.006,0.002
			c-0.045,0.012-0.09,0.021-0.135,0.031c-0.008,0-0.016,0.002-0.023,0.004c-0.039,0.008-0.077,0.012-0.115,0.016
			c-0.016,0.002-0.031,0.004-0.046,0.006c-0.034,0.002-0.069,0.004-0.103,0.004c-0.02,0.002-0.039,0.004-0.057,0.004
			c-0.02,0-0.039-0.002-0.058-0.004c-0.034,0-0.069-0.002-0.103-0.004c-0.016-0.002-0.03-0.004-0.045-0.006
			c-0.039-0.004-0.078-0.008-0.116-0.016c-0.007,0-0.015-0.002-0.021-0.004c-0.046-0.01-0.092-0.018-0.138-0.031l0,0
			c-0.154-0.041-0.303-0.102-0.444-0.182c-0.001,0-0.001,0-0.001,0c-0.046-0.027-0.091-0.057-0.135-0.086
			c-0.045-0.031-0.088-0.064-0.13-0.1l-0.657-0.545l-4.325,3.596h12.345l-4.326-3.596L13.19,13.598z"/>
		<path fill="#FFFFFF" d="M5.677,7.352v0.671l4.477,3.722l0,0l1.3,1.081c0.307,0.254,0.788,0.254,1.095,0l1.299-1.081l0,0
			l4.477-3.722V7.352H5.677z"/>
		<polygon fill="#FFFFFF" points="5.677,9.33 5.677,15.467 9.367,12.398 		"/>
	</g>
</g>
</svg>
