<?xml version="1.0" encoding="UTF-8" standalone="no"?><!DOCTYPE svg PUBLIC "-//W3C//DTD SVG 1.1//EN" "http://www.w3.org/Graphics/SVG/1.1/DTD/svg11.dtd"><svg width="100%" height="100%" viewBox="0 0 32 32" version="1.1" xmlns="http://www.w3.org/2000/svg" xmlns:xlink="http://www.w3.org/1999/xlink" xml:space="preserve" xmlns:serif="http://www.serif.com/" style="fill-rule:evenodd;clip-rule:evenodd;stroke-linejoin:round;stroke-miterlimit:2;"><path d="M30,16c0,-7.732 -6.268,-14 -14,-14c-7.732,0 -14,6.268 -14,14c0,6.988 5.12,12.78 11.813,13.83l-0.001,-9.783l-3.554,-0l-0,-4.047l3.554,0l0,-3.084c0,-3.509 2.091,-5.447 5.289,-5.447c1.531,-0 3.133,0.273 3.133,0.273l0,3.446l-1.765,-0c-1.739,-0 -2.281,1.079 -2.281,2.186l-0,2.626l3.882,0l-0.62,4.047l-3.262,-0l-0,9.783c6.692,-1.05 11.812,-6.842 11.812,-13.83Z" style="fill:#1877f2;fill-rule:nonzero;"/></svg>