<?xml version="1.0" encoding="utf-8"?>
<!-- Generator: Adobe Illustrator 16.0.0, SVG Export Plug-In . SVG Version: 6.00 Build 0)  -->
<!DOCTYPE svg PUBLIC "-//W3C//DTD SVG 1.1//EN" "http://www.w3.org/Graphics/SVG/1.1/DTD/svg11.dtd">
<svg version="1.1" id="Layer_1" xmlns="http://www.w3.org/2000/svg" xmlns:xlink="http://www.w3.org/1999/xlink" x="0px" y="0px"
	 width="24px" height="24px" viewBox="0 0 24 24" enable-background="new 0 0 24 24" xml:space="preserve">
<g>
	<rect fill="#3B5998" width="24" height="24"/>
	<path fill-rule="evenodd" clip-rule="evenodd" fill="#FFFFFF" d="M14.017,7.72c0.402-0.013,0.806-0.004,1.21-0.004
		c0.049,0,0.098,0,0.166,0V5.622c-0.216-0.021-0.44-0.052-0.666-0.064c-0.413-0.018-0.826-0.039-1.239-0.03
		c-0.631,0.015-1.228,0.168-1.75,0.541c-0.598,0.431-0.926,1.036-1.051,1.75c-0.052,0.293-0.066,0.599-0.072,0.899
		c-0.012,0.469-0.002,0.939-0.002,1.409v0.177H8.607v2.338h1.992v5.88h2.436v-5.87h1.986c0.1-0.777,0.2-1.548,0.305-2.351
		c-0.159,0-0.303,0-0.446,0c-0.565,0.003-1.86,0-1.86,0s0.005-1.159,0.019-1.663C13.057,7.949,13.465,7.738,14.017,7.72z"/>
</g>
</svg>
