<?xml version="1.0" encoding="UTF-8" standalone="no"?>
<!DOCTYPE svg PUBLIC "-//W3C//DTD SVG 1.1//EN" "http://www.w3.org/Graphics/SVG/1.1/DTD/svg11.dtd">
<svg width="100%" height="100%" viewBox="0 0 16 16" version="1.1" xmlns="http://www.w3.org/2000/svg" xmlns:xlink="http://www.w3.org/1999/xlink" xml:space="preserve" xmlns:serif="http://www.serif.com/" style="fill-rule:evenodd;clip-rule:evenodd;stroke-linejoin:round;stroke-miterlimit:2;">
    <path d="M9.333,11.666C8.667,11.666 7,10.334 6.333,9.667C5.667,9 4.333,7.333 4.333,6.666C4.333,6 6,5.333 6,5L4.666,1L3.333,1C2.667,1 1,3 1,4.333C1,5.666 1.667,8.333 4.666,11.333C7.667,14.333 10.333,15 11.666,15C13,15 15,13.333 15,12.666L15,11.333L11,10C10.666,10 10,11.666 9.333,11.666Z" style="fill:rgb(23,169,230);fill-rule:nonzero;"/>
</svg>
