<?xml version="1.0" encoding="UTF-8" standalone="no"?><!DOCTYPE svg PUBLIC "-//W3C//DTD SVG 1.1//EN" "http://www.w3.org/Graphics/SVG/1.1/DTD/svg11.dtd"><svg width="100%" height="100%" viewBox="0 0 16 16" version="1.1" xmlns="http://www.w3.org/2000/svg" xmlns:xlink="http://www.w3.org/1999/xlink" xml:space="preserve" xmlns:serif="http://www.serif.com/" style="fill-rule:evenodd;clip-rule:evenodd;stroke-linejoin:round;stroke-miterlimit:2;"><path d="M13.964,1l-11.931,-0c-0.57,-0 -1.033,0.452 -1.033,1.009l0,11.981c0,0.557 0.463,1.01 1.033,1.01l11.931,0c0.571,0 1.036,-0.453 1.036,-1.01l0,-11.981c0,-0.557 -0.465,-1.009 -1.036,-1.009Zm-10.89,5.248l2.079,0l-0,6.682l-2.079,-0l0,-6.682Zm3.382,0l1.99,0l0,0.914l0.029,-0c0.276,-0.525 0.954,-1.079 1.964,-1.079c2.103,-0 2.491,1.383 2.491,3.182l0,3.665l-2.076,-0l-0,-3.249c-0,-0.775 -0.013,-1.772 -1.079,-1.772c-1.081,0 -1.245,0.845 -1.245,1.716l-0,3.305l-2.074,-0l-0,-6.682Zm-2.342,-3.321c0.664,0 1.204,0.54 1.204,1.204c-0,0.665 -0.54,1.205 -1.204,1.205c-0.667,-0 -1.204,-0.54 -1.204,-1.205c-0,-0.664 0.537,-1.204 1.204,-1.204Z" style="fill:#fff;fill-rule:nonzero;"/></svg>