<?xml version="1.0" encoding="utf-8"?>
<!-- Generator: Adobe Illustrator 16.0.0, SVG Export Plug-In . SVG Version: 6.00 Build 0)  -->
<!DOCTYPE svg PUBLIC "-//W3C//DTD SVG 1.1//EN" "http://www.w3.org/Graphics/SVG/1.1/DTD/svg11.dtd">
<svg version="1.1" id="Layer_1" xmlns="http://www.w3.org/2000/svg" xmlns:xlink="http://www.w3.org/1999/xlink" x="0px" y="0px"
	 width="24px" height="24px" viewBox="0 0 24 24" enable-background="new 0 0 24 24" xml:space="preserve">
<g>
	<rect y="0" fill="#1DA1F2" width="24" height="24"/>
	<path fill-rule="evenodd" clip-rule="evenodd" fill="#FFFFFF" d="M9.76,15.054c-1.417-0.051-2.304-1.068-2.54-1.895
		c0.394,0.074,0.784,0.059,1.171-0.036c0.01-0.002,0.019-0.008,0.039-0.017c-0.767-0.18-1.36-0.59-1.772-1.253
		c-0.272-0.439-0.404-0.921-0.399-1.451c0.383,0.207,0.784,0.32,1.214,0.331c-0.578-0.415-0.964-0.959-1.123-1.654
		C6.19,8.383,6.294,7.724,6.642,7.102C8.12,8.841,9.99,9.796,12.27,9.952c-0.015-0.107-0.032-0.202-0.043-0.298
		c-0.076-0.642,0.052-1.241,0.399-1.784c0.433-0.681,1.054-1.105,1.85-1.235c0.919-0.15,1.719,0.112,2.39,0.761
		c0.046,0.043,0.082,0.058,0.146,0.043c0.56-0.122,1.089-0.323,1.586-0.61c0.014-0.007,0.022-0.014,0.036-0.019
		c0.002,0,0.008,0,0.019,0c-0.217,0.633-0.608,1.123-1.169,1.484c0.528-0.058,1.034-0.199,1.521-0.41
		c0.004,0.005,0.007,0.009,0.011,0.012c-0.104,0.137-0.206,0.278-0.314,0.411c-0.288,0.356-0.62,0.669-0.991,0.942
		c-0.032,0.024-0.047,0.045-0.045,0.085c0.014,0.406,0,0.809-0.052,1.211c-0.105,0.85-0.341,1.656-0.703,2.431
		c-0.374,0.797-0.861,1.519-1.476,2.151c-1.038,1.074-2.292,1.769-3.749,2.09c-0.501,0.11-1.009,0.166-1.52,0.181
		c-1.574,0.047-3.029-0.345-4.368-1.173c-0.018-0.009-0.034-0.021-0.063-0.041c0.953,0.103,1.857-0.02,2.729-0.375
		C8.925,15.62,9.354,15.372,9.76,15.054z"/>
</g>
</svg>
