<?xml version="1.0" encoding="utf-8"?>
<!-- Generator: Adobe Illustrator 16.0.0, SVG Export Plug-In . SVG Version: 6.00 Build 0)  -->
<!DOCTYPE svg PUBLIC "-//W3C//DTD SVG 1.1//EN" "http://www.w3.org/Graphics/SVG/1.1/DTD/svg11.dtd">
<svg version="1.1" id="Layer_1" xmlns="http://www.w3.org/2000/svg" xmlns:xlink="http://www.w3.org/1999/xlink" x="0px" y="0px"
	 width="24px" height="24px" viewBox="0 0 24 24" enable-background="new 0 0 24 24" xml:space="preserve">
<path fill="#43BDEF" d="M12,0.504C5.651,0.504,0.504,5.651,0.504,12c0,6.35,5.147,11.496,11.497,11.496S23.496,18.35,23.496,12
	C23.496,5.651,18.35,0.504,12,0.504z M17.416,9.916c0.006,0.118,0.008,0.237,0.008,0.356c0,0.547-0.064,1.105-0.191,1.66
	c-0.707,3.14-3.391,6.165-7.759,6.165c-1.576,0-3.046-0.455-4.283-1.236C5.41,16.888,5.632,16.9,5.858,16.9
	c1.31,0,2.514-0.439,3.47-1.178c-1.222-0.021-2.254-0.817-2.61-1.91c0.171,0.033,0.346,0.051,0.525,0.051
	c0.256,0,0.502-0.035,0.737-0.098c-0.941-0.186-1.709-0.838-2.051-1.7c-0.122-0.31-0.19-0.645-0.19-0.997c0-0.011,0-0.022,0-0.034
	c0.377,0.206,0.809,0.33,1.265,0.344c-0.748-0.493-1.243-1.335-1.243-2.289c0-0.504,0.138-0.977,0.378-1.382
	c1.377,1.663,3.437,2.759,5.758,2.873c-0.046-0.201-0.071-0.41-0.071-0.626c0-1.52,1.25-2.751,2.792-2.751
	c0.805,0,1.531,0.334,2.039,0.869c0.637-0.124,1.236-0.353,1.775-0.669c-0.209,0.644-0.652,1.182-1.229,1.522
	c0.564-0.066,1.104-0.214,1.604-0.433C18.436,9.045,17.961,9.528,17.416,9.916z"/>
</svg>
