<?xml version="1.0" encoding="UTF-8" standalone="no"?><!DOCTYPE svg PUBLIC "-//W3C//DTD SVG 1.1//EN" "http://www.w3.org/Graphics/SVG/1.1/DTD/svg11.dtd"><svg width="100%" height="100%" viewBox="0 0 100 100" version="1.1" xmlns="http://www.w3.org/2000/svg" xmlns:xlink="http://www.w3.org/1999/xlink" xml:space="preserve" xmlns:serif="http://www.serif.com/" style="fill-rule:evenodd;clip-rule:evenodd;stroke-linejoin:round;stroke-miterlimit:2;"><circle cx="50" cy="50" r="40" style="fill:#008099;"/><g id="XMLID_833_"><g><path id="XMLID_834_" d="M67.655,49.873c4.198,-7.271 1.697,-16.601 -5.573,-20.799c-7.271,-4.198 -16.602,-1.698 -20.8,5.573c-3.511,6.081 -2.335,13.603 2.397,18.357l-7.214,12.496c-1.097,1.9 -0.446,4.329 1.453,5.426c1.9,1.097 4.329,0.446 5.426,-1.454l7.215,-12.496c6.484,1.721 13.585,-1.022 17.096,-7.103Zm-22.933,-13.24c3.103,-5.374 9.999,-7.222 15.374,-4.119c5.374,3.103 7.222,9.999 4.119,15.373c-3.103,5.374 -9.999,7.222 -15.374,4.12c-5.374,-3.103 -7.222,-10 -4.119,-15.374Z" style="fill:#fff;fill-rule:nonzero;"/><path id="XMLID_837_" d="M53.613,39.065c0.855,-0.229 1.747,-0.112 2.511,0.329c1.58,0.912 2.124,2.941 1.211,4.521c-0.912,1.581 -2.941,2.124 -4.521,1.212l-1.986,3.44c3.477,2.007 7.939,0.812 9.947,-2.666c2.008,-3.477 0.812,-7.94 -2.665,-9.947c-1.683,-0.972 -3.645,-1.229 -5.525,-0.725c-1.881,0.503 -3.451,1.708 -4.423,3.391l3.44,1.985c0.441,-0.763 1.155,-1.31 2.011,-1.54Z" style="fill:#fff;fill-rule:nonzero;"/></g></g></svg>