<?xml version="1.0" encoding="utf-8"?>
<!-- Generator: Adobe Illustrator 16.0.0, SVG Export Plug-In . SVG Version: 6.00 Build 0)  -->
<!DOCTYPE svg PUBLIC "-//W3C//DTD SVG 1.1//EN" "http://www.w3.org/Graphics/SVG/1.1/DTD/svg11.dtd">
<svg version="1.1" id="Layer_1" xmlns="http://www.w3.org/2000/svg" xmlns:xlink="http://www.w3.org/1999/xlink" x="0px" y="0px"
	 width="24px" height="24px" viewBox="0 0 24 24" enable-background="new 0 0 24 24" xml:space="preserve">
<g>
	<rect fill="#0077B5" width="24" height="24"/>
	<path fill="#FFFFFF" d="M6.67,9.975h2.505v8.046H6.67V9.975z M7.923,5.978c0.801,0,1.449,0.649,1.449,1.45
		c0,0.8-0.648,1.451-1.449,1.451c-0.803,0-1.451-0.651-1.451-1.451C6.472,6.627,7.12,5.978,7.923,5.978"/>
	<path fill="#FFFFFF" d="M10.745,9.975h2.398v1.101h0.033c0.333-0.633,1.15-1.3,2.365-1.3c2.533,0,3.001,1.666,3.001,3.833v4.412
		h-2.499V14.11c0-0.935-0.02-2.133-1.301-2.133c-1.302,0-1.499,1.014-1.499,2.064v3.98h-2.499V9.975z"/>
</g>
</svg>
