<?xml version="1.0" encoding="UTF-8" standalone="no"?>
<!DOCTYPE svg PUBLIC "-//W3C//DTD SVG 1.1//EN" "http://www.w3.org/Graphics/SVG/1.1/DTD/svg11.dtd">
<svg width="100%" height="100%" viewBox="0 0 100 100" version="1.1" xmlns="http://www.w3.org/2000/svg" xmlns:xlink="http://www.w3.org/1999/xlink" xml:space="preserve" xmlns:serif="http://www.serif.com/" style="fill-rule:evenodd;clip-rule:evenodd;stroke-linejoin:round;stroke-miterlimit:2;">
    <g transform="matrix(1.28826,0,0,1.28826,-15.5722,-15.7959)">
        <g transform="matrix(0.707107,-0.707107,0.707107,0.707107,-16.3257,45.819)">
            <path d="M49.13,13.476C49.13,11.935 47.881,10.687 46.341,10.687C46.022,10.687 45.697,10.687 45.379,10.687C43.846,10.687 42.603,11.929 42.603,13.463C42.603,25.942 42.603,76.778 42.603,89.222C42.603,90.746 43.838,91.981 45.362,91.981C45.692,91.981 46.029,91.981 46.358,91.981C47.889,91.981 49.13,90.74 49.13,89.21C49.13,76.749 49.13,25.973 49.13,13.476Z" style="fill:white;"/>
        </g>
        <g transform="matrix(0.707107,0.707107,-0.707107,0.707107,56.2715,-19.0459)">
            <path d="M49.13,13.484C49.13,12.742 48.835,12.03 48.311,11.506C47.786,10.981 47.075,10.687 46.333,10.687C46.03,10.687 45.721,10.687 45.418,10.687C44.671,10.687 43.955,10.983 43.427,11.511C42.899,12.039 42.603,12.755 42.603,13.502L42.603,89.214C42.603,89.948 42.894,90.652 43.413,91.171C43.932,91.69 44.636,91.981 45.37,91.981C45.695,91.981 46.027,91.981 46.351,91.981C47.088,91.981 47.795,91.689 48.316,91.167C48.837,90.646 49.13,89.94 49.13,89.203C49.13,76.732 49.13,25.993 49.13,13.484Z" style="fill:white;"/>
        </g>
    </g>
</svg>
