<?xml version="1.0" encoding="UTF-8" standalone="no"?>
<!DOCTYPE svg PUBLIC "-//W3C//DTD SVG 1.1//EN" "http://www.w3.org/Graphics/SVG/1.1/DTD/svg11.dtd">
<svg width="100%" height="100%" viewBox="0 0 64 64" version="1.1" xmlns="http://www.w3.org/2000/svg" xmlns:xlink="http://www.w3.org/1999/xlink" xml:space="preserve" xmlns:serif="http://www.serif.com/" style="fill-rule:evenodd;clip-rule:evenodd;stroke-linejoin:round;stroke-miterlimit:2;">
    <g transform="matrix(1.9905,0,0,1.99715,0.245797,-0.090388)">
        <path d="M32.029,1.327C32.029,0.62 31.453,0.045 30.743,0.045L1.163,0.045C0.453,0.045 -0.123,0.62 -0.123,1.327L-0.123,30.809C-0.123,31.517 0.453,32.091 1.163,32.091L30.743,32.091C31.453,32.091 32.029,31.517 32.029,30.809L32.029,1.327Z" style="fill:rgb(122,152,174);"/>
    </g>
    <g transform="matrix(2.28571,0,0,2.28571,13.7143,13.7143)">
        <path d="M5.403,13.689C10.686,13.689 13.575,9.312 13.575,5.517C13.575,5.392 13.573,5.268 13.567,5.145C14.128,4.74 14.615,4.234 15,3.658C14.485,3.887 13.931,4.041 13.35,4.11C13.944,3.755 14.399,3.192 14.613,2.521C14.058,2.85 13.444,3.09 12.79,3.218C12.266,2.66 11.519,2.311 10.693,2.311C9.107,2.311 7.82,3.597 7.82,5.183C7.82,5.409 7.846,5.628 7.895,5.838C5.508,5.718 3.391,4.575 1.974,2.837C1.727,3.261 1.585,3.755 1.585,4.281C1.585,5.277 2.093,6.157 2.864,6.672C2.392,6.657 1.95,6.528 1.563,6.312C1.562,6.324 1.562,6.336 1.562,6.349C1.562,7.74 2.552,8.901 3.866,9.165C3.625,9.23 3.371,9.266 3.109,9.266C2.924,9.266 2.744,9.248 2.569,9.214C2.935,10.355 3.995,11.186 5.253,11.209C4.269,11.979 3.031,12.439 1.685,12.439C1.453,12.439 1.225,12.425 1,12.399C2.271,13.213 3.781,13.689 5.403,13.689Z" style="fill:white;fill-rule:nonzero;"/>
    </g>
</svg>
