<?xml version="1.0" encoding="utf-8"?>
<!-- Generator: Adobe Illustrator 16.0.0, SVG Export Plug-In . SVG Version: 6.00 Build 0)  -->
<!DOCTYPE svg PUBLIC "-//W3C//DTD SVG 1.1//EN" "http://www.w3.org/Graphics/SVG/1.1/DTD/svg11.dtd">
<svg version="1.1" id="Layer_1" xmlns="http://www.w3.org/2000/svg" xmlns:xlink="http://www.w3.org/1999/xlink" x="0px" y="0px"
	 width="16px" height="16px" viewBox="0 0 16 16" enable-background="new 0 0 16 16" xml:space="preserve">
<path fill="#FFFFFF" d="M14.485,12.736c-0.071,0.3-0.158,1.188,1.164,1.617c0,0-3.017,0.171-3.077-1.615H8.236
	c-0.825,0-1.502-0.653-1.544-1.468H9.41c1.378,0,2.5-1.122,2.5-2.501v-3.46h2.543C15.304,5.309,16,6.005,16,6.856v4.333
	C16,12.031,15.321,12.718,14.485,12.736z M0,8.77V3.518c0-1.032,0.844-1.875,1.875-1.875H9.41c1.031,0,1.875,0.844,1.875,1.875V8.77
	c0,1.031-0.844,1.875-1.875,1.875H4.154c-0.074,2.165-3.729,1.957-3.729,1.957c1.602-0.519,1.497-1.597,1.411-1.959
	C0.823,10.622,0,9.788,0,8.77z M10.16,8.77V3.518c0-0.407-0.344-0.75-0.75-0.75H1.875c-0.407,0-0.75,0.344-0.75,0.75V8.77
	c0,0.406,0.344,0.75,0.75,0.75H9.41C9.816,9.52,10.16,9.176,10.16,8.77z M7.377,6.144c0,0.542,0.439,0.981,0.981,0.981
	S9.34,6.686,9.34,6.144c0-0.542-0.439-0.981-0.981-0.981S7.377,5.602,7.377,6.144z M1.895,6.144c0,0.542,0.439,0.981,0.981,0.981
	s0.981-0.439,0.981-0.981c0-0.542-0.439-0.981-0.981-0.981S1.895,5.602,1.895,6.144z M4.636,6.144c0,0.542,0.439,0.981,0.981,0.981
	c0.542,0,0.981-0.439,0.981-0.981c0-0.542-0.439-0.981-0.981-0.981C5.076,5.163,4.636,5.602,4.636,6.144z"/>
</svg>
