<?xml version="1.0" encoding="UTF-8" standalone="no"?><!DOCTYPE svg PUBLIC "-//W3C//DTD SVG 1.1//EN" "http://www.w3.org/Graphics/SVG/1.1/DTD/svg11.dtd"><svg width="100%" height="100%" viewBox="0 0 16 16" version="1.1" xmlns="http://www.w3.org/2000/svg" xmlns:xlink="http://www.w3.org/1999/xlink" xml:space="preserve" xmlns:serif="http://www.serif.com/" style="fill-rule:evenodd;clip-rule:evenodd;stroke-linejoin:round;stroke-miterlimit:2;"><path d="M13.564,4.815l-9.671,0l0,0.745c-0.21,0.103 -0.409,0.226 -0.595,0.366l0,-4.034c0,-0.492 0.401,-0.892 0.893,-0.892l9.075,-0c0.492,-0 0.892,0.4 0.892,0.892l0,10.673l-2.435,2.435l-7.532,-0c-0.492,-0 -0.893,-0.4 -0.893,-0.892l0,-2.339c0.186,0.14 0.385,0.262 0.595,0.365l0,1.974c0,0.164 0.134,0.297 0.298,0.297l6.937,0l0,-2.138c0,-0.163 0.134,-0.297 0.298,-0.297l2.138,0l-0,-7.155Zm-9.671,-0.571l9.671,0l-0,-2.352c-0,-0.164 -0.134,-0.297 -0.298,-0.297l-9.075,-0c-0.164,-0 -0.298,0.133 -0.298,0.297l0,2.352Zm7.83,8.321l0,1.594l1.594,-1.594l-1.594,-0Z" style="fill:#fff;"/><path d="M9.55,7.551l0.797,-0c0.098,-0 0.178,0.08 0.178,0.178l0,0.232c0,0.098 -0.08,0.179 -0.178,0.179l-0.654,-0c-0.034,-0.202 -0.082,-0.398 -0.143,-0.589Zm1.848,-0l0.969,-0c0.098,-0 0.178,0.08 0.178,0.178l0,0.232c0,0.098 -0.08,0.179 -0.178,0.179l-0.969,-0c-0.099,-0 -0.179,-0.081 -0.179,-0.179l0,-0.232c0,-0.098 0.08,-0.178 0.179,-0.178Zm-1.648,1.415l0.173,0c0.098,0 0.178,0.081 0.178,0.179l0,0.232c0,0.098 -0.08,0.178 -0.178,0.178l-0.23,0c0.032,-0.192 0.051,-0.389 0.057,-0.589Zm1.136,0l1.481,0c0.098,0 0.178,0.081 0.178,0.179l0,0.232c0,0.098 -0.08,0.178 -0.178,0.178l-1.481,0c-0.098,0 -0.178,-0.08 -0.178,-0.178l-0,-0.232c-0,-0.098 0.08,-0.179 0.178,-0.179Zm-1.42,1.416l2.901,-0c0.098,-0 0.178,0.08 0.178,0.178l0,0.232c0,0.098 -0.08,0.179 -0.178,0.179l-3.183,-0c0.108,-0.188 0.203,-0.385 0.282,-0.589Zm-0.692,-4.247l3.593,0c0.098,0 0.178,0.081 0.178,0.179l0,0.232c0,0.098 -0.08,0.178 -0.178,0.178l-3.183,0c-0.12,-0.208 -0.257,-0.405 -0.41,-0.589Z" style="fill:#fff;"/><path d="M5.499,5.784c-1.691,0 -3.063,1.372 -3.063,3.063c0,1.692 1.372,3.063 3.063,3.063c1.692,0 3.063,-1.371 3.063,-3.063c0,-1.691 -1.371,-3.063 -3.063,-3.063Zm0,-0.594c2.02,-0 3.658,1.637 3.658,3.657c-0,2.02 -1.638,3.658 -3.658,3.658c-2.02,-0 -3.657,-1.638 -3.657,-3.658c-0,-2.02 1.637,-3.657 3.657,-3.657Z" style="fill:#fff;"/><path d="M7.234,7.019l0.513,0.514l-3.142,3.142l-1.354,-1.353l0.513,-0.514l0.841,0.841l2.629,-2.63Z" style="fill:#fff;"/></svg>