<?xml version="1.0" encoding="UTF-8" standalone="no"?>
<!DOCTYPE svg PUBLIC "-//W3C//DTD SVG 1.1//EN" "http://www.w3.org/Graphics/SVG/1.1/DTD/svg11.dtd">
<svg width="100%" height="100%" viewBox="0 0 64 64" version="1.1" xmlns="http://www.w3.org/2000/svg" xmlns:xlink="http://www.w3.org/1999/xlink" xml:space="preserve" xmlns:serif="http://www.serif.com/" style="fill-rule:evenodd;clip-rule:evenodd;stroke-linejoin:round;stroke-miterlimit:2;">
    <g transform="matrix(1.9905,0,0,1.99715,0.245797,-0.090388)">
        <path d="M32.029,1.327C32.029,0.62 31.453,0.045 30.743,0.045L1.163,0.045C0.453,0.045 -0.123,0.62 -0.123,1.327L-0.123,30.809C-0.123,31.517 0.453,32.091 1.163,32.091L30.743,32.091C31.453,32.091 32.029,31.517 32.029,30.809L32.029,1.327Z" style="fill:rgb(122,152,174);"/>
    </g>
    <g transform="matrix(2.28571,0,0,2.28571,13.704,13.7143)">
        <path d="M11.136,1L4.863,1C2.733,1 1,2.733 1,4.863L1,11.137C1,13.267 2.733,15 4.863,15L11.136,15C13.267,15 15,13.267 15,11.137L15,4.863C15,2.733 13.267,1 11.136,1ZM13.758,11.137C13.758,12.582 12.582,13.758 11.137,13.758L4.863,13.758C3.418,13.758 2.242,12.582 2.242,11.137L2.242,4.863C2.242,3.418 3.418,2.242 4.863,2.242L11.136,2.242C12.582,2.242 13.758,3.418 13.758,4.863L13.758,11.137Z" style="fill:white;fill-rule:nonzero;"/>
    </g>
    <g transform="matrix(2.28571,0,0,2.28571,13.704,13.7143)">
        <path d="M8,4.393C6.011,4.393 4.393,6.011 4.393,8C4.393,9.989 6.011,11.607 8,11.607C9.989,11.607 11.607,9.989 11.607,8C11.607,6.011 9.989,4.393 8,4.393ZM8,10.365C6.696,10.365 5.635,9.304 5.635,8C5.635,6.696 6.696,5.635 8,5.635C9.304,5.635 10.365,6.696 10.365,8C10.365,9.304 9.304,10.365 8,10.365Z" style="fill:white;fill-rule:nonzero;"/>
    </g>
    <g transform="matrix(2.28571,0,0,2.28571,13.704,13.7143)">
        <path d="M11.759,3.339C11.519,3.339 11.284,3.436 11.115,3.606C10.945,3.775 10.848,4.01 10.848,4.25C10.848,4.49 10.946,4.725 11.115,4.895C11.284,5.064 11.519,5.161 11.759,5.161C11.999,5.161 12.233,5.064 12.403,4.895C12.573,4.725 12.67,4.49 12.67,4.25C12.67,4.01 12.573,3.775 12.403,3.606C12.234,3.436 11.999,3.339 11.759,3.339Z" style="fill:white;fill-rule:nonzero;"/>
    </g>
</svg>
