<?xml version="1.0" encoding="UTF-8" standalone="no"?>
<!DOCTYPE svg PUBLIC "-//W3C//DTD SVG 1.1//EN" "http://www.w3.org/Graphics/SVG/1.1/DTD/svg11.dtd">
<svg width="100%" height="100%" viewBox="0 0 80 80" version="1.1" xmlns="http://www.w3.org/2000/svg" xmlns:xlink="http://www.w3.org/1999/xlink" xml:space="preserve" xmlns:serif="http://www.serif.com/" style="fill-rule:evenodd;clip-rule:evenodd;stroke-linejoin:round;stroke-miterlimit:2;">
    <g transform="matrix(0.021227,0,0,0.021227,-34.2764,-34.2947)">
        <path d="M2091.54,3424.46L2091.54,2518.94C2091.54,2389.76 2196.63,2284.67 2325.81,2284.67L4674.19,2284.67C4803.36,2284.67 4908.46,2389.76 4908.46,2518.94L4908.46,3424.46C4927.56,3411.33 5340.5,3127.52 5361.13,3113.34L5058.54,2862.17L5058.54,2518.94C5058.54,2306.73 4886.55,2134.59 4674.19,2134.59L4182.02,2134.59L3600.51,1651.89C3542.23,1603.52 3457.77,1603.52 3399.49,1651.89L2817.98,2134.59L2325.81,2134.59C2113.5,2134.59 1941.46,2306.68 1941.46,2518.94L1941.46,2862.17L1638.87,3113.34C1646.38,3118.5 2088.53,3422.38 2091.54,3424.46Z" style="fill:white;fill-rule:nonzero;"/>
    </g>
    <g transform="matrix(0.021227,0,0,0.021227,-34.2764,-34.2947)">
        <path d="M3589.13,4471.3C3535.44,4508.2 3464.56,4508.2 3410.87,4471.3C3379.08,4449.45 1639.14,3253.61 1614.75,3236.84L1614.75,5160.31C1614.75,5284.06 1715.07,5384.39 1838.83,5384.39L5161.17,5384.39C5284.93,5384.39 5385.25,5284.06 5385.25,5160.31L5385.25,3236.84C5287.11,3304.29 3687.44,4403.73 3589.13,4471.3Z" style="fill:white;fill-rule:nonzero;"/>
    </g>
    <g transform="matrix(0.021227,0,0,0.021227,-34.2764,-34.2947)">
        <path d="M3273.5,3347.75C3273.5,3405.96 3285.29,3448.8 3308.9,3476.3C3332.5,3503.79 3361.71,3517.54 3396.55,3517.54C3422.67,3517.54 3447.18,3511.13 3470.1,3498.29C3487.51,3489.13 3504.69,3474.7 3521.65,3454.99C3545.94,3427.04 3566.9,3386.25 3584.55,3332.63C3602.19,3279.01 3611.02,3229.07 3611.02,3182.77C3611.02,3130.99 3598.99,3091.24 3574.93,3063.51C3550.87,3035.79 3520.5,3021.92 3483.85,3021.92C3444.43,3021.92 3408,3037.16 3374.55,3067.64C3341.09,3098.12 3315.88,3141.53 3298.94,3197.9C3281.98,3254.26 3273.5,3304.22 3273.5,3347.75ZM4016.58,3630.27L4163,3630.27C4117.17,3723.3 4046.83,3796.16 3951.97,3848.87C3843.36,3909.36 3710.91,3939.6 3554.65,3939.6C3403.42,3939.6 3272.81,3914.05 3162.83,3862.96C3052.85,3811.86 2971.04,3736.48 2917.43,3636.8C2863.81,3537.13 2837,3428.64 2837,3311.32C2837,3182.55 2867.47,3062.6 2928.43,2951.46C2989.37,2840.34 3072.78,2756.93 3178.64,2701.25C3284.5,2645.57 3405.48,2617.73 3541.59,2617.73C3657.07,2617.73 3759.72,2640.19 3849.54,2685.1C3939.36,2730.01 4007.99,2793.82 4055.42,2876.54C4102.85,2959.26 4126.57,3049.66 4126.57,3147.72C4126.57,3264.58 4090.58,3370.21 4018.64,3464.61C3928.36,3583.77 3812.65,3643.33 3671.51,3643.33C3633.46,3643.33 3604.83,3636.7 3585.58,3623.4C3566.33,3610.11 3553.5,3590.64 3547.09,3564.97C3493.01,3617.21 3430.68,3643.33 3360.11,3643.33C3284.04,3643.33 3220.92,3617.11 3170.73,3564.63C3120.55,3512.16 3095.46,3442.39 3095.46,3355.31C3095.46,3247.63 3125.71,3149.33 3186.2,3060.42C3259.52,2952.27 3353.47,2898.19 3468.04,2898.19C3549.6,2898.19 3609.87,2929.36 3648.82,2991.68L3666.01,2915.38L3847.48,2915.38L3743.68,3408.24C3737.26,3439.41 3734.06,3459.57 3734.06,3468.73C3734.06,3480.19 3736.69,3488.79 3741.97,3494.51C3747.23,3500.25 3753.53,3503.1 3760.87,3503.1C3782.87,3503.1 3811.27,3489.82 3846.11,3463.23C3892.85,3428.41 3930.66,3381.67 3959.53,3323C3988.4,3264.35 4002.83,3203.63 4002.83,3140.84C4002.83,3028.11 3962.04,2933.83 3880.48,2857.98C3798.9,2782.14 3685.02,2744.21 3538.84,2744.21C3414.64,2744.21 3309.35,2769.54 3222.98,2820.17C3136.59,2870.81 3071.51,2942.08 3027.76,3033.95C2983.99,3125.84 2962.11,3221.51 2962.11,3320.94C2962.11,3417.64 2986.51,3505.63 3035.32,3584.91C3084.12,3664.18 3152.63,3722.04 3240.85,3758.47C3329.06,3794.91 3429.99,3813.12 3543.65,3813.12C3653.17,3813.12 3747.35,3797.88 3826.17,3767.41C3904.99,3736.93 3968.46,3691.22 4016.58,3630.27Z" style="fill:white;fill-rule:nonzero;"/>
    </g>
</svg>
