<?xml version="1.0" encoding="UTF-8" standalone="no"?><!DOCTYPE svg PUBLIC "-//W3C//DTD SVG 1.1//EN" "http://www.w3.org/Graphics/SVG/1.1/DTD/svg11.dtd"><svg width="100%" height="100%" viewBox="0 0 16 16" version="1.1" xmlns="http://www.w3.org/2000/svg" xmlns:xlink="http://www.w3.org/1999/xlink" xml:space="preserve" xmlns:serif="http://www.serif.com/" style="fill-rule:evenodd;clip-rule:evenodd;stroke-linejoin:round;stroke-miterlimit:2;"><path d="M5.403,13.689c5.283,-0 8.172,-4.377 8.172,-8.172c0,-0.125 -0.002,-0.249 -0.008,-0.372c0.561,-0.405 1.048,-0.911 1.433,-1.487c-0.515,0.229 -1.069,0.383 -1.65,0.452c0.594,-0.355 1.049,-0.918 1.263,-1.589c-0.555,0.329 -1.169,0.569 -1.823,0.697c-0.524,-0.558 -1.271,-0.907 -2.097,-0.907c-1.586,0 -2.873,1.286 -2.873,2.872c0,0.226 0.026,0.445 0.075,0.655c-2.387,-0.12 -4.504,-1.263 -5.921,-3.001c-0.247,0.424 -0.389,0.918 -0.389,1.444c0,0.996 0.508,1.876 1.279,2.391c-0.472,-0.015 -0.914,-0.144 -1.301,-0.36c-0.001,0.012 -0.001,0.024 -0.001,0.037c0,1.391 0.99,2.552 2.304,2.816c-0.241,0.065 -0.495,0.101 -0.757,0.101c-0.185,-0 -0.365,-0.018 -0.54,-0.052c0.366,1.141 1.426,1.972 2.684,1.995c-0.984,0.77 -2.222,1.23 -3.568,1.23c-0.232,-0 -0.46,-0.014 -0.685,-0.04c1.271,0.814 2.781,1.29 4.403,1.29Z" style="fill:#fff;fill-rule:nonzero;"/></svg>