<?xml version="1.0" encoding="utf-8"?>
<!-- Generator: Adobe Illustrator 16.0.0, SVG Export Plug-In . SVG Version: 6.00 Build 0)  -->
<!DOCTYPE svg PUBLIC "-//W3C//DTD SVG 1.1//EN" "http://www.w3.org/Graphics/SVG/1.1/DTD/svg11.dtd">
<svg version="1.1" id="Layer_1" xmlns="http://www.w3.org/2000/svg" xmlns:xlink="http://www.w3.org/1999/xlink" x="0px" y="0px"
	 width="24px" height="24px" viewBox="0 0 24 24" enable-background="new 0 0 24 24" xml:space="preserve">
<path fill="#009DDC" d="M12,0.504C5.651,0.504,0.504,5.652,0.504,12c0,6.348,5.147,11.496,11.497,11.496
	c6.347,0,11.496-5.147,11.496-11.496C23.496,5.652,18.348,0.504,12,0.504z M18.099,16.921c-0.508,0.449-1.016,0.899-1.524,1.348
	c-0.672,0.595-1.971,0.848-2.837,0.451c-3.896-1.775-6.86-5.127-8.145-9.211C5.306,8.601,5.716,7.343,6.388,6.748
	C6.896,6.299,7.404,5.85,7.912,5.4c0.675-0.597,1.356-0.304,1.645,0.604c0.259,0.825,0.587,1.621,0.978,2.379
	c-0.503,0.445-1.007,0.891-1.51,1.336c-0.358,0.317-0.411,1.053-0.066,1.608c0.902,1.459,2.049,2.755,3.386,3.829
	c0.51,0.411,1.246,0.448,1.604,0.131c0.504-0.444,1.007-0.89,1.511-1.335c0.705,0.48,1.454,0.903,2.241,1.263
	C18.567,15.612,18.773,16.325,18.099,16.921z"/>
</svg>
