<?xml version="1.0" encoding="UTF-8" standalone="no"?><!DOCTYPE svg PUBLIC "-//W3C//DTD SVG 1.1//EN" "http://www.w3.org/Graphics/SVG/1.1/DTD/svg11.dtd"><svg width="100%" height="100%" viewBox="0 0 16 16" version="1.1" xmlns="http://www.w3.org/2000/svg" xmlns:xlink="http://www.w3.org/1999/xlink" xml:space="preserve" xmlns:serif="http://www.serif.com/" style="fill-rule:evenodd;clip-rule:evenodd;stroke-linejoin:round;stroke-miterlimit:2;"><path d="M8.957,10.768c-0.256,0.256 -0.596,0.396 -0.957,0.396c-0.361,0 -0.701,-0.14 -0.957,-0.395l-2.253,-2.253l-3.79,3.79l-0,0.069c-0,0.322 0.261,0.583 0.583,0.583l12.834,0c0.322,0 0.583,-0.261 0.583,-0.583l0,-0.068l-3.791,-3.791l-2.252,2.252Zm-7.957,-6.043l-0,6.55l3.275,-3.275l-3.275,-3.275Zm13.417,-1.683l-12.834,-0c-0.322,-0 -0.583,0.261 -0.583,0.583l-0,0.069l6.559,6.559c0.122,0.121 0.281,0.182 0.441,0.182c0.159,0 0.319,-0.061 0.441,-0.183l6.559,-6.558l0,-0.069c0,-0.322 -0.261,-0.583 -0.583,-0.583Zm0.583,8.234l0,-6.551l-3.276,3.275l3.276,3.276Z" style="fill:#fff;fill-rule:nonzero;"/></svg>