<?xml version="1.0" encoding="UTF-8" standalone="no"?><!DOCTYPE svg PUBLIC "-//W3C//DTD SVG 1.1//EN" "http://www.w3.org/Graphics/SVG/1.1/DTD/svg11.dtd"><svg width="100%" height="100%" viewBox="0 0 16 16" version="1.1" xmlns="http://www.w3.org/2000/svg" xmlns:xlink="http://www.w3.org/1999/xlink" xml:space="preserve" xmlns:serif="http://www.serif.com/" style="fill-rule:evenodd;clip-rule:evenodd;stroke-linejoin:round;stroke-miterlimit:2;"><path d="M11.136,1l-6.273,0c-2.13,0 -3.863,1.733 -3.863,3.863l-0,6.274c-0,2.13 1.733,3.863 3.863,3.863l6.273,-0c2.131,-0 3.864,-1.733 3.864,-3.863l-0,-6.274c0,-2.13 -1.733,-3.863 -3.864,-3.863Zm2.622,10.137c-0,1.445 -1.176,2.621 -2.621,2.621l-6.274,-0c-1.445,-0 -2.621,-1.176 -2.621,-2.621l0,-6.274c0,-1.445 1.176,-2.621 2.621,-2.621l6.273,0c1.446,0 2.622,1.176 2.622,2.621l-0,6.274l-0,-0Z" style="fill:#fff;fill-rule:nonzero;"/><path d="M8,4.393c-1.989,-0 -3.607,1.618 -3.607,3.607c-0,1.989 1.618,3.607 3.607,3.607c1.989,0 3.607,-1.618 3.607,-3.607c0,-1.989 -1.618,-3.607 -3.607,-3.607Zm-0,5.972c-1.304,0 -2.365,-1.061 -2.365,-2.365c-0,-1.304 1.061,-2.365 2.365,-2.365c1.304,-0 2.365,1.061 2.365,2.365c0,1.304 -1.061,2.365 -2.365,2.365Z" style="fill:#fff;fill-rule:nonzero;"/><path d="M11.759,3.339c-0.24,0 -0.475,0.097 -0.644,0.267c-0.17,0.169 -0.267,0.404 -0.267,0.644c-0,0.24 0.098,0.475 0.267,0.645c0.169,0.169 0.404,0.266 0.644,0.266c0.24,0 0.474,-0.097 0.644,-0.266c0.17,-0.17 0.267,-0.405 0.267,-0.645c-0,-0.24 -0.097,-0.475 -0.267,-0.644c-0.169,-0.17 -0.404,-0.267 -0.644,-0.267Z" style="fill:#fff;fill-rule:nonzero;"/></svg>