<?xml version="1.0" encoding="UTF-8" standalone="no"?>
<!DOCTYPE svg PUBLIC "-//W3C//DTD SVG 1.1//EN" "http://www.w3.org/Graphics/SVG/1.1/DTD/svg11.dtd">
<svg width="100%" height="100%" viewBox="0 0 26 35" version="1.1" xmlns="http://www.w3.org/2000/svg" xmlns:xlink="http://www.w3.org/1999/xlink" xml:space="preserve" xmlns:serif="http://www.serif.com/" style="fill-rule:evenodd;clip-rule:evenodd;stroke-linejoin:round;stroke-miterlimit:2;">
    <g transform="matrix(9.91271e-17,-1.75381,-1.46562,-9.69247e-17,35.4128,41.6234)">
        <path d="M13.539,7.551C13.646,7.369 13.82,7.26 14.007,7.26C14.193,7.26 14.367,7.369 14.474,7.551C16.117,10.346 21.629,19.728 23.56,23.014C23.691,23.236 23.707,23.528 23.603,23.769C23.498,24.011 23.289,24.162 23.062,24.162C19.485,24.162 8.736,24.162 5.041,24.162C4.797,24.162 4.572,23.999 4.459,23.739C4.346,23.479 4.364,23.165 4.505,22.925C6.48,19.563 11.911,10.322 13.539,7.551Z" style="fill:white;"/>
    </g>
</svg>
