<svg width="68" height="20" viewBox="0 0 68 20" fill="none" xmlns="http://www.w3.org/2000/svg">
<g id="logo">
<path id="Vector" d="M20.8661 0.299805H17.7461V19.698H20.8661V0.299805Z" fill="white"/>
<path id="Vector_2" d="M31.7019 19.6984H34.822V6.55762H31.7595L31.7582 13.4975C31.7582 16.3991 29.2624 16.6826 28.5819 16.6826C26.7666 16.6826 26.3701 14.9188 26.3701 13.8387V6.55762H23.25V13.9529C23.25 15.7731 23.8743 17.2522 24.7813 18.3335C25.6319 19.1866 26.9931 19.6984 28.5256 19.6984C29.6039 19.6984 31.0214 19.4137 31.7019 18.6171L31.7019 19.6984Z" fill="white"/>
<path id="Vector_3" d="M37.8237 19.6986H40.9438V9.68647H43.2131V6.55776H40.9438V1.89355H37.8237V6.55776H35.498V9.68647H37.8237V19.6986Z" fill="white"/>
<path id="Vector_4" d="M50.4787 19.6416C52.2376 19.6416 53.8827 19.0157 55.13 17.8778L55.5841 17.4225L53.4286 15.261L52.9745 15.8292C52.2939 16.4552 51.4432 16.7965 50.4787 16.7965C48.3232 16.7965 46.7344 15.261 46.7344 12.9853C46.7344 10.7097 48.2656 9.23061 50.4787 9.23061C51.4432 9.23061 52.2939 9.51538 52.9745 10.1978L53.4286 10.5955L55.4703 8.54817L55.0161 8.09278C53.7113 7.01141 52.1801 6.32897 50.4774 6.32897C46.6205 6.27251 43.7832 9.06 43.7832 12.9841C43.7844 16.6836 46.6781 19.6416 50.4787 19.6416Z" fill="white"/>
<path id="Vector_5" d="M60.1776 12.3599C60.1776 9.45831 62.3331 9.17479 63.0137 9.17479C64.8289 9.17479 64.8289 10.9386 64.8289 12.0187V19.6987H67.949V11.9623C68.0053 10.2562 67.6087 8.71941 66.5878 7.69574C65.7371 6.84269 64.6025 6.33086 63.1838 6.33086C62.1054 6.33086 60.972 6.61563 60.1201 7.41223V0.301758H57V19.7H60.1773L60.1776 12.3599Z" fill="white"/>
<path id="Vector_6" d="M48.0938 12.9845C48.0938 14.2365 49.1146 15.2025 50.3056 15.2025C51.5541 15.2025 52.5174 14.1788 52.5174 12.9845C52.5174 11.7326 51.4965 10.7666 50.3056 10.7666C49.1146 10.7666 48.0938 11.7338 48.0938 12.9845Z" fill="white"/>
<path id="Vector_7" d="M8.95096 19.6417C11.4467 19.6417 13.83 18.6744 15.4175 16.9106L15.8601 16.4431L13.8873 14.3545L13.4334 14.862C12.2987 15.9999 10.5973 16.6823 8.95221 16.6823C5.43558 16.6823 2.93854 13.9513 2.93854 10.2543C2.93854 6.49958 5.43433 3.82626 8.89466 3.82626C10.5398 3.82626 12.071 4.5087 13.3758 5.64653L13.8299 6.10191L15.8716 4.05458L15.4175 3.5992C13.7161 1.77893 11.3892 0.868164 8.95095 0.868164C3.84553 0.924618 0.0449219 4.90763 0.0449219 10.2543C0.0449219 15.6009 3.84554 19.6417 8.95096 19.6417Z" fill="white"/>
</g>
</svg>
