<?xml version="1.0" encoding="UTF-8" standalone="no"?><!DOCTYPE svg PUBLIC "-//W3C//DTD SVG 1.1//EN" "http://www.w3.org/Graphics/SVG/1.1/DTD/svg11.dtd"><svg width="100%" height="100%" viewBox="0 0 100 100" version="1.1" xmlns="http://www.w3.org/2000/svg" xmlns:xlink="http://www.w3.org/1999/xlink" xml:space="preserve" xmlns:serif="http://www.serif.com/" style="fill-rule:evenodd;clip-rule:evenodd;stroke-linejoin:round;stroke-miterlimit:2;"><circle cx="50" cy="50" r="40" style="fill:#008099;"/><g><path d="M62,29.179c-5.729,-3.308 -13.084,-1.338 -16.392,4.392c-0.829,1.435 -0.338,3.269 1.098,4.098c1.436,0.829 3.27,0.337 4.098,-1.098c1.654,-2.865 5.329,-3.851 8.196,-2.196c2.867,1.655 3.851,5.331 2.196,8.196l-4.5,7.795c-1.654,2.865 -5.329,3.851 -8.196,2.196l-2.598,-1.5l-3,5.196l2.598,1.5c5.729,3.307 13.084,1.338 16.392,-4.392l4.5,-7.795c3.309,-5.73 1.337,-13.084 -4.392,-16.392Z" style="fill:#fff;fill-rule:nonzero;"/><path d="M53.294,62.258c-1.436,-0.829 -3.27,-0.337 -4.098,1.098c-1.654,2.865 -5.329,3.851 -8.196,2.196c-2.867,-1.655 -3.851,-5.331 -2.196,-8.196l4.5,-7.794c1.654,-2.866 5.329,-3.852 8.196,-2.196l2.598,1.5l3,-5.197l-2.598,-1.5c-5.729,-3.307 -13.084,-1.338 -16.392,4.393l-4.5,7.794c-3.309,5.73 -1.337,13.085 4.392,16.392c5.729,3.308 13.084,1.338 16.392,-4.392c0.829,-1.435 0.338,-3.269 -1.098,-4.098Z" style="fill:#fff;fill-rule:nonzero;"/></g></svg>