<?xml version="1.0" encoding="utf-8"?>
<!-- Generator: Adobe Illustrator 16.0.0, SVG Export Plug-In . SVG Version: 6.00 Build 0)  -->
<!DOCTYPE svg PUBLIC "-//W3C//DTD SVG 1.1//EN" "http://www.w3.org/Graphics/SVG/1.1/DTD/svg11.dtd">
<svg version="1.1" id="Layer_1" xmlns="http://www.w3.org/2000/svg" xmlns:xlink="http://www.w3.org/1999/xlink" x="0px" y="0px"
	 width="70px" height="42.014px" viewBox="0 0 70 42.014" enable-background="new 0 0 70 42.014" xml:space="preserve">
<g>
	<path fill="#FFFFFF" d="M52.059,18.417c2.552,0.957,5.128,1.89,7.697,2.814c2.561,0.924,5.123,1.857,7.707,2.788
		c0.044,0.363,0.086,0.726,0.128,1.085c-0.904,0.296-1.802,0.582-2.687,0.863c-2.454-0.901-4.921-1.804-7.374-2.695
		c-2.461-0.893-4.933-1.779-7.401-2.672C50.774,19.877,51.424,19.152,52.059,18.417 M41.379,23.393
		c-2.078,2.343-4.145,4.705-6.206,7.027c-2.102,2.367-4.194,4.719-6.273,7.054c-0.891,0.283-1.782,0.567-2.68,0.858
		c-0.043-0.358-0.085-0.719-0.127-1.08c2.177-2.449,4.334-4.901,6.511-7.35c2.185-2.458,4.354-4.902,6.508-7.366
		C39.875,22.825,40.63,23.109,41.379,23.393z M65.031,3.823c-1.534,1.727-3.067,3.45-4.592,5.161
		c-1.526,1.715-3.05,3.431-4.571,5.143c-1.527,1.719-3.046,3.441-4.556,5.146c-1.538,1.737-3.068,3.449-4.589,5.167
		c-0.199,0.224-0.396,0.445-0.581,0.664c-0.24-0.078-0.474-0.163-0.708-0.247c-1.817-0.659-3.632-1.318-5.441-1.983
		c-1.802-0.663-3.601-1.334-5.393-1.993c-1.82-0.669-3.653-1.327-5.455-1.992c-1.803-0.666-3.605-1.332-5.407-1.997
		c0.21,1.781,0.404,3.571,0.612,5.361c0.207,1.786,0.421,3.572,0.631,5.354c0.212,1.796,0.406,3.595,0.613,5.379
		c0.208,1.79,0.415,3.574,0.624,5.347c3.444-1.098,6.894-2.203,10.358-3.309c3.422-1.093,6.881-2.201,10.346-3.306
		c3.436-1.097,6.906-2.213,10.338-3.307c3.437-1.097,6.893-2.205,10.329-3.307c-0.218-1.779-0.431-3.564-0.645-5.334
		c-0.211-1.766-0.417-3.543-0.633-5.313c-0.214-1.763-0.432-3.533-0.64-5.302C65.465,7.381,65.248,5.603,65.031,3.823z
		 M45.788,22.109c2.726-3.091,5.48-6.17,8.2-9.248c2.728-3.083,5.48-6.175,8.22-9.271c-2.993,0.949-6.006,1.9-8.99,2.849
		c-2.979,0.946-5.993,1.895-8.978,2.838c-2.985,0.945-5.984,1.899-8.969,2.845c-2.966,0.941-5.993,1.895-8.984,2.844
		c3.238,1.194,6.515,2.376,9.749,3.578C39.264,19.745,42.523,20.924,45.788,22.109z M23.027,13.412
		c3.485-1.109,6.982-2.222,10.487-3.336c3.465-1.102,6.95-2.211,10.427-3.317c3.472-1.105,6.963-2.216,10.44-3.322
		c3.5-1.112,6.99-2.223,10.51-3.343c0.573-0.182,1.131-0.089,1.553,0.208c0.432,0.283,0.754,0.751,0.825,1.363
		c0.229,1.933,0.456,3.857,0.683,5.773c0.225,1.91,0.451,3.821,0.675,5.724c0.227,1.913,0.451,3.826,0.677,5.738
		c0.227,1.915,0.455,3.845,0.681,5.77c0.072,0.612-0.119,1.249-0.436,1.759c-0.332,0.521-0.803,0.923-1.372,1.104
		c-3.482,1.108-6.982,2.221-10.475,3.331c-3.477,1.105-6.995,2.226-10.487,3.337c-3.511,1.117-7.017,2.232-10.495,3.339
		c-3.512,1.117-7.01,2.229-10.501,3.342c-0.567,0.18-1.095,0.104-1.504-0.157c-0.411-0.271-0.684-0.748-0.754-1.344
		c-0.22-1.92-0.446-3.846-0.674-5.772c-0.228-1.931-0.449-3.865-0.678-5.806c-0.228-1.927-0.452-3.86-0.676-5.79
		c-0.224-1.924-0.455-3.851-0.675-5.777c-0.07-0.595,0.082-1.202,0.4-1.713C21.99,14.004,22.466,13.591,23.027,13.412z"/>
	<path fill-rule="evenodd" clip-rule="evenodd" fill="#FFFFFF" d="M1.024,23.854c4.957-1.575,9.928-3.153,14.905-4.734
		c0.648-0.205,1.241,0.189,1.323,0.875l0,0c0.08,0.687-0.393,1.421-1.035,1.625c-4.979,1.578-9.942,3.152-14.9,4.726
		c-0.649,0.205-1.229-0.192-1.309-0.877l0,0C-0.071,24.782,0.375,24.059,1.024,23.854z"/>
	<path fill-rule="evenodd" clip-rule="evenodd" fill="#FFFFFF" d="M6.394,31.657c3.526-1.121,7.058-2.245,10.604-3.372
		c0.642-0.205,1.242,0.186,1.321,0.866l0,0c0.082,0.691-0.384,1.429-1.04,1.638c-3.539,1.126-7.064,2.249-10.589,3.373
		c-0.649,0.206-1.243-0.192-1.325-0.889l0,0C5.285,32.592,5.746,31.863,6.394,31.657z"/>
	<path fill-rule="evenodd" clip-rule="evenodd" fill="#FFFFFF" d="M11.778,39.458c2.081-0.662,4.181-1.332,6.28-2
		c0.642-0.205,1.243,0.188,1.323,0.874l0,0c0.082,0.686-0.386,1.416-1.027,1.621c-2.114,0.672-4.201,1.337-6.294,2.007
		c-0.634,0.203-1.228-0.19-1.31-0.879l0,0C10.671,40.397,11.129,39.664,11.778,39.458z"/>
</g>
</svg>
