<?xml version="1.0" encoding="UTF-8" standalone="no"?>
<!DOCTYPE svg PUBLIC "-//W3C//DTD SVG 1.1//EN" "http://www.w3.org/Graphics/SVG/1.1/DTD/svg11.dtd">
<svg width="100%" height="100%" viewBox="0 0 16 16" version="1.1" xmlns="http://www.w3.org/2000/svg" xmlns:xlink="http://www.w3.org/1999/xlink" xml:space="preserve" xmlns:serif="http://www.serif.com/" style="fill-rule:evenodd;clip-rule:evenodd;stroke-linejoin:round;stroke-miterlimit:2;">
    <path d="M14.485,12.736C14.414,13.036 14.327,13.924 15.649,14.353C15.649,14.353 12.632,14.524 12.572,12.738L8.236,12.738C7.411,12.738 6.734,12.085 6.692,11.27L9.41,11.27C10.788,11.27 11.91,10.148 11.91,8.769L11.91,5.309L14.453,5.309C15.304,5.309 16,6.005 16,6.856L16,11.189C16,12.031 15.321,12.718 14.485,12.736ZM0,8.77L0,3.518C0,2.486 0.844,1.643 1.875,1.643L9.41,1.643C10.441,1.643 11.285,2.487 11.285,3.518L11.285,8.77C11.285,9.801 10.441,10.645 9.41,10.645L4.154,10.645C4.08,12.81 0.425,12.602 0.425,12.602C2.027,12.083 1.922,11.005 1.836,10.643C0.823,10.622 0,9.788 0,8.77ZM10.16,8.77L10.16,3.518C10.16,3.111 9.816,2.768 9.41,2.768L1.875,2.768C1.468,2.768 1.125,3.112 1.125,3.518L1.125,8.77C1.125,9.176 1.469,9.52 1.875,9.52L9.41,9.52C9.816,9.52 10.16,9.176 10.16,8.77ZM7.377,6.144C7.377,6.686 7.816,7.125 8.358,7.125C8.9,7.125 9.34,6.686 9.34,6.144C9.34,5.602 8.901,5.163 8.359,5.163C7.817,5.163 7.377,5.602 7.377,6.144ZM1.895,6.144C1.895,6.686 2.334,7.125 2.876,7.125C3.418,7.125 3.857,6.686 3.857,6.144C3.857,5.602 3.418,5.163 2.876,5.163C2.334,5.163 1.895,5.602 1.895,6.144ZM4.636,6.144C4.636,6.686 5.075,7.125 5.617,7.125C6.159,7.125 6.598,6.686 6.598,6.144C6.598,5.602 6.159,5.163 5.617,5.163C5.076,5.163 4.636,5.602 4.636,6.144Z" style="fill:rgb(181,48,39);fill-rule:nonzero;"/>
</svg>
