<?xml version="1.0" encoding="UTF-8" standalone="no"?>
<!DOCTYPE svg PUBLIC "-//W3C//DTD SVG 1.1//EN" "http://www.w3.org/Graphics/SVG/1.1/DTD/svg11.dtd">
<svg width="100%" height="100%" viewBox="0 0 100 100" version="1.1" xmlns="http://www.w3.org/2000/svg" xmlns:xlink="http://www.w3.org/1999/xlink" xml:space="preserve" xmlns:serif="http://www.serif.com/" style="fill-rule:evenodd;clip-rule:evenodd;stroke-linejoin:round;stroke-miterlimit:2;">
    <g transform="matrix(0.13589,0,0,0.13589,-88.6587,-77.5795)">
        <path d="M1316.62,874.793L722.607,874.793L722.607,1211.88C722.607,1224.76 727.867,1236.49 736.326,1244.97C744.807,1253.43 756.533,1258.69 769.414,1258.69L1269.81,1258.69C1282.66,1258.69 1294.36,1253.42 1302.85,1244.93C1311.34,1236.44 1316.62,1224.73 1316.62,1211.88L1316.62,874.793ZM1019.61,578.258C996.503,578.258 977.599,597.162 977.599,620.268L977.599,708.105C977.599,731.211 996.503,750.115 1019.61,750.115L1019.62,750.115C1042.72,750.115 1061.63,731.211 1061.63,708.105L1061.63,620.268C1061.63,597.162 1042.72,578.258 1019.62,578.258L1019.61,578.258ZM1191.47,578.258C1168.36,578.258 1149.46,597.162 1149.46,620.268L1149.46,708.105C1149.46,731.211 1168.36,750.115 1191.47,750.115L1191.48,750.115C1214.58,750.115 1233.49,731.211 1233.49,708.105L1233.49,620.268C1233.49,597.162 1214.58,578.258 1191.48,578.258L1191.47,578.258ZM847.748,578.258C824.642,578.258 805.737,597.162 805.737,620.268L805.737,708.105C805.737,731.211 824.642,750.115 847.748,750.115L847.754,750.115C870.86,750.115 889.762,731.211 889.762,708.105L889.762,620.268C889.762,597.162 870.86,578.258 847.754,578.258L847.748,578.258ZM769.414,657.567L781.344,657.567L781.344,708.105C781.344,744.681 811.182,774.509 847.754,774.509C884.323,774.509 914.157,744.675 914.157,708.105L914.157,657.567L953.206,657.567L953.206,708.105C953.206,744.681 983.043,774.509 1019.62,774.509C1056.19,774.509 1086.02,744.675 1086.02,708.105L1086.02,657.567L1125.07,657.567L1125.07,708.105C1125.07,744.681 1154.91,774.509 1191.48,774.509C1228.05,774.509 1257.88,744.675 1257.88,708.105L1257.88,657.567L1269.81,657.567C1293.8,657.567 1315.69,667.417 1331.57,683.272L1331.65,683.354C1347.51,699.237 1357.36,721.119 1357.36,745.115L1357.36,1211.88C1357.36,1235.98 1347.51,1257.88 1331.65,1273.73C1315.8,1289.58 1293.9,1299.43 1269.81,1299.43L769.414,1299.43C745.379,1299.43 723.508,1289.58 707.646,1273.73L707.565,1273.65C691.716,1257.79 681.866,1235.92 681.866,1211.88L681.866,745.115C681.866,721.021 691.716,699.121 707.565,683.272C723.42,667.417 745.32,657.567 769.414,657.567Z" style="fill:rgb(35,25,22);"/>
    </g>
</svg>
