<?xml version="1.0" encoding="UTF-8" standalone="no"?><!DOCTYPE svg PUBLIC "-//W3C//DTD SVG 1.1//EN" "http://www.w3.org/Graphics/SVG/1.1/DTD/svg11.dtd"><svg width="100%" height="100%" viewBox="0 0 16 16" version="1.1" xmlns="http://www.w3.org/2000/svg" xmlns:xlink="http://www.w3.org/1999/xlink" xml:space="preserve" xmlns:serif="http://www.serif.com/" style="fill-rule:evenodd;clip-rule:evenodd;stroke-linejoin:round;stroke-miterlimit:2;"><path d="M12.667,5.667c-0,-2.577 -2.09,-4.667 -4.667,-4.667c-2.577,0 -4.667,2.09 -4.667,4.667c0,0.85 0.231,1.644 0.628,2.33l-0.002,0l4.041,7.003l4.04,-7.003l-0.001,0c0.397,-0.686 0.628,-1.48 0.628,-2.33Zm-4.667,2.406c-1.329,-0 -2.406,-1.078 -2.406,-2.406c-0,-1.329 1.077,-2.407 2.406,-2.407c1.329,0 2.406,1.078 2.406,2.407c0,1.328 -1.077,2.406 -2.406,2.406Z" style="fill:#fff;fill-rule:nonzero;"/></svg>