<?xml version="1.0" encoding="UTF-8" standalone="no"?><!DOCTYPE svg PUBLIC "-//W3C//DTD SVG 1.1//EN" "http://www.w3.org/Graphics/SVG/1.1/DTD/svg11.dtd"><svg width="100%" height="100%" viewBox="0 0 16 16" version="1.1" xmlns="http://www.w3.org/2000/svg" xmlns:xlink="http://www.w3.org/1999/xlink" xml:space="preserve" xmlns:serif="http://www.serif.com/" style="fill-rule:evenodd;clip-rule:evenodd;stroke-linejoin:round;stroke-miterlimit:2;"><path d="M15,8c0,-3.866 -3.134,-7 -7,-7c-3.866,0 -7,3.134 -7,7c0,3.494 2.56,6.39 5.906,6.915l0,-4.892l-1.777,0l-0,-2.023l1.777,0l0,-1.542c0,-1.755 1.045,-2.724 2.644,-2.724c0.766,0 1.567,0.137 1.567,0.137l0,1.723l-0.882,-0c-0.87,-0 -1.141,0.539 -1.141,1.093l-0,1.313l1.941,0l-0.31,2.023l-1.631,0l-0,4.892c3.346,-0.525 5.906,-3.421 5.906,-6.915Z" style="fill:#fff;fill-rule:nonzero;"/></svg>