<?xml version="1.0" encoding="UTF-8" standalone="no"?><!DOCTYPE svg PUBLIC "-//W3C//DTD SVG 1.1//EN" "http://www.w3.org/Graphics/SVG/1.1/DTD/svg11.dtd"><svg width="100%" height="100%" viewBox="0 0 14 14" version="1.1" xmlns="http://www.w3.org/2000/svg" xmlns:xlink="http://www.w3.org/1999/xlink" xml:space="preserve" xmlns:serif="http://www.serif.com/" style="fill-rule:evenodd;clip-rule:evenodd;stroke-linejoin:round;stroke-miterlimit:2;"><path d="M238.068,310.212l-148.661,0c-14.65,0 -26.569,-11.92 -26.569,-26.569l-0,-136.454l-101.691,0l-0,136.453c-0,14.649 -11.919,26.569 -26.569,26.569l-148.662,0c-14.91,0 -27.04,-12.129 -27.04,-27.038l0,-223.722l-63.547,0c-9.7,0 -18.464,-4.697 -23.441,-12.566c-7.008,-11.11 -5.077,-25.58 4.579,-34.424l315.61,-292.503c5.047,-4.637 11.539,-7.166 18.328,-7.166c6.715,0 13.16,2.479 18.148,6.983l67.837,62.25l0,-36.941l141.17,0l0,166.488l109.924,100.854c9.67,8.757 11.656,23.251 4.648,34.394c-4.939,7.896 -13.719,12.631 -23.463,12.631l-63.562,0l-0,223.723c0,14.909 -12.128,27.038 -27.039,27.038Zm-143.942,-31.289l139.693,0l-0,-250.76l84.536,0l-112.084,-102.836l-0,-148.955l-78.593,0l-0,76.83l-117.248,-107.594l-304.876,282.555l84.612,0l0,250.76l139.693,0l0,-133.605c0,-16.221 13.197,-29.417 29.418,-29.417l105.431,0c16.222,0 29.418,13.196 29.418,29.417l0,133.605Z" style="fill:#404148;fill-rule:nonzero;"/><path d="M11.596,13.072l-3.022,-0c-0.298,-0 -0.54,-0.242 -0.54,-0.54l0,-2.773l-2.068,0l0,2.773c0,0.298 -0.242,0.54 -0.54,0.54l-3.023,0c-0.303,0 -0.549,-0.246 -0.549,-0.549l0,-4.548l-1.292,0c-0.197,0 -0.375,-0.095 -0.477,-0.255c-0.143,-0.226 -0.104,-0.521 0.093,-0.7l6.417,-5.947c0.103,-0.094 0.235,-0.145 0.373,-0.145c0.136,0 0.268,0.05 0.369,0.141l1.379,1.267l0,-0.752l2.87,0l0,3.385l2.235,2.051c0.196,0.178 0.236,0.472 0.094,0.698c-0.101,0.161 -0.278,0.257 -0.477,0.257l-1.292,0l0,4.549c0,0.302 -0.247,0.548 -0.55,0.548Zm-2.926,-0.635l2.84,-0l0,-5.098l1.719,-0l-2.279,-2.091l0,-3.028l-1.598,-0l0,1.562l-2.384,-2.187l-6.198,5.744l1.72,0l0,5.098l2.84,0l0,-2.716c0,-0.33 0.269,-0.599 0.598,-0.599l2.144,0c0.329,0 0.598,0.269 0.598,0.599l0,2.716Z" style="fill:#008099;fill-rule:nonzero;"/></svg>