<?xml version="1.0" encoding="utf-8"?>
<!-- Generator: Adobe Illustrator 16.0.0, SVG Export Plug-In . SVG Version: 6.00 Build 0)  -->
<!DOCTYPE svg PUBLIC "-//W3C//DTD SVG 1.1//EN" "http://www.w3.org/Graphics/SVG/1.1/DTD/svg11.dtd">
<svg version="1.1" id="Layer_1" xmlns="http://www.w3.org/2000/svg" xmlns:xlink="http://www.w3.org/1999/xlink" x="0px" y="0px"
	 width="82.376px" height="67.138px" viewBox="0 0 82.376 67.138" enable-background="new 0 0 82.376 67.138" xml:space="preserve">
<path fill="#0567A7" d="M43.422,37.485v-0.636v-0.104c0-1.468,0.066-2.709,0.189-3.998c0.117-1.225,0.271-2.352,0.461-3.723
	c0.016-0.271,0.068-0.562,0.109-0.805l0.027-0.152l0.006,0.001l0.002-0.011l0.027-0.168v-0.017l0.035-0.22l0.064-0.402v-0.009
	l0.031-0.196v-0.025l0.037-0.206l0.035-0.208v-0.015l0.035-0.202l0.074-0.42h0.006l0.002-0.019l0.08-0.427v-0.01l0,0l0.037-0.199
	V25.3l0.043-0.228l0.012-0.058l0.029-0.163v-0.016l0.045-0.222l0.09-0.443h0.006l0.002-0.01l0.041-0.193v-0.025l0.053-0.251
	l0.096-0.455l0.002-0.009h-0.002l0.102-0.462l0.004,0.001l0.006-0.02l0.041-0.19v-0.019l0.062-0.267l0.109-0.472l0.002-0.01h-0.002
	l0.072-0.307l0.025-0.104v-0.001l0.016-0.064h0.004l0.006-0.02l0.117-0.48l0.006-0.018l-0.006-0.001l0.121-0.486l0.029-0.089
	l0.027-0.102v-0.027l0.078-0.301l0.125-0.469l-0.002-0.001V19.32l0.01-0.035l0.135-0.5l0.004,0.002l0.004-0.02l0.141-0.505
	l0.006-0.017l-0.006-0.002l0.145-0.508l0.164-0.57l0.008-0.008l0.143-0.48l0.004,0.002l0.006-0.02l0.053-0.174v-0.018l0.107-0.338
	l0.164-0.524l0.104-0.327l0.004-0.007l0.072-0.222l0.086-0.268v-0.006l0.088-0.267l0.1-0.298l0.01-0.016l0.082-0.24l0.004,0.003
	l0.004-0.012l0.178-0.514l0.008-0.042l0.096-0.27l0.098-0.272l0.004,0.003l0.004-0.012l0.1-0.271v-0.01l0.098-0.271l0.004-0.008
	l-0.004-0.002l0.102-0.273l0.008-0.008l0.041-0.11l0.008-0.032l0.055-0.142l0.104-0.274v-0.008l0.104-0.275l0.176-0.459l0.008-0.008
	l0.041-0.104v-0.001l0.109-0.276l0.008-0.02l0.111-0.276v-0.001l0.113-0.277l0.01-0.01l0.09-0.223l0.023-0.065l0.115-0.28V9.148
	l0.117-0.28l0.004,0.003l0.004-0.012l0.119-0.281V8.57l0.119-0.282l0.004-0.008l-0.002-0.001l0.121-0.281l0.008-0.01l0.123-0.281
	l0.004-0.008l-0.004-0.002l0.125-0.283l0.01-0.008l0.092-0.207l0.012-0.037l0.021-0.049l0.129-0.283l0.008-0.01l0.131-0.283
	l0.004-0.008l-0.004-0.002l0.131-0.283v-0.01l0.133-0.285l0.17-0.363l0.006-0.006l0.104-0.219l0.17-0.354l0.012-0.013l0.105-0.215
	l0.088-0.18l0.004-0.008l0.059-0.117l0.141-0.286l0.002-0.001l0,0l0.031-0.064c0.062-0.125,0.166-0.332,0.285-0.541l-0.01-0.005
	l0.148-0.287V3.281l0.15-0.288l0.006,0.003l0.002-0.003c1.768-3.387,3.666-3.384,5.391-2.483c0.58,0.303,0.963,0.654,1.312,0.977
	c0.088,0.082,0.174,0.158,0.195,0.178l-0.002,0.002l4.608,3.65c0.141,0.11,0.584,0.446,0.955,0.729
	c1.203,0.912,1.752,1.326,1.986,2.488c0.193,0.969-0.043,1.503-0.48,2.479c-0.189,0.424-0.451,1.006-0.721,1.785l0.008,0.003
	c-0.477,1.386-1.02,3.146-1.459,5.098c-0.443,1.972-0.799,4.18-0.908,6.479c-0.018,0.369-0.02,0.717-0.012,1.045l0,0
	c0.01,0.354,0.031,0.696,0.062,1.027c0.031,0.347,0.035,0.399,0.037,0.443c0.039,0.547,0.09,1.293,1.545,1.293h11.816
	c1.561,0,2.98,0.637,4.006,1.664c1.027,1.026,1.666,2.445,1.666,4.008v27.609c0,1.562-0.639,2.981-1.666,4.008
	c-1.025,1.026-2.445,1.664-4.006,1.664h-27.61c-1.555,0-2.971-0.64-4.004-1.669l-0.004,0.005c-1.027-1.027-1.664-2.445-1.664-4.008
	V37.485L43.422,37.485z M47.959,36.849v0.636v23.981c0,0.31,0.129,0.594,0.334,0.8v0.01c0.201,0.2,0.484,0.326,0.801,0.326h27.61
	c0.309,0,0.592-0.129,0.799-0.336c0.207-0.206,0.336-0.49,0.336-0.8V33.857c0-0.311-0.129-0.594-0.336-0.801
	s-0.49-0.335-0.799-0.335H64.888c-5.685,0-5.903-3.187-6.063-5.528c-0.016-0.227-0.012-0.238-0.02-0.336
	c-0.041-0.432-0.068-0.869-0.08-1.311v-0.009c-0.012-0.463-0.01-0.923,0.012-1.374c0.123-2.589,0.52-5.061,1.014-7.259
	c0.498-2.217,1.08-4.116,1.583-5.575h0.01c0.26-0.752,0.486-1.305,0.674-1.734c-0.166-0.125-0.4-0.308-0.942-0.735l-4.678-3.706
	l-0.035-0.027l-0.127,0.245L56.231,5.37l-0.145,0.28l-0.152,0.295l-0.146,0.152l0.051,0.024c0.008-0.003,0.01-0.003,0.008,0.003
	l-0.033,0.064v0.002l0,0L55.67,6.477l-0.133,0.27l-0.139,0.286l-0.004-0.002l-0.133,0.276L55.27,7.31l-0.137,0.285l-0.004-0.002
	l-0.125,0.269l0.004,0.002l-0.133,0.284l-0.004-0.002l-0.127,0.277l-0.02,0.034l-0.105,0.23l0.004,0.002l-0.127,0.284l-0.004-0.002
	l-0.119,0.265l0.004,0.002l-0.125,0.283l-0.086,0.196l-0.008,0.014l-0.023,0.053l0.004,0.002l-0.121,0.281l-0.02,0.034l-0.102,0.239
	l-0.002-0.002l-0.088,0.207l-0.02,0.058l-0.117,0.28l-0.004-0.002l-0.111,0.272l-0.002-0.001l-0.107,0.262l0.004,0.002l-0.111,0.277
	v0.001l-0.104,0.259l0,0l-0.109,0.277v0.002l-0.107,0.275l-0.004-0.001l-0.1,0.258l0.006,0.002l-0.105,0.275l-0.004-0.001
	l-0.1,0.267l-0.002-0.001l-0.096,0.256l0.004,0.002l-0.1,0.272l-0.025,0.066l-0.01,0.022l-0.021,0.055v0.002l-0.133,0.373
	l-0.096,0.271l-0.096,0.27l-0.006-0.002l-0.047,0.138v0.012l-0.125,0.364l-0.09,0.268h-0.004l-0.084,0.249l0.006,0.002L51.7,16.194
	l-0.004-0.001l-0.082,0.258l-0.033,0.102l-0.055,0.162l0,0l-0.016,0.049l-0.01,0.014l-0.055,0.174l0.006,0.002l-0.166,0.523h-0.002
	l-0.121,0.396l0,0v0.002l-0.027,0.098l-0.154,0.516l-0.102,0.338l-0.004,0.008l-0.041,0.141l0.004,0.002l-0.145,0.508l-0.047,0.166
	l-0.004,0.009v0.001l-0.08,0.295l-0.135,0.5l-0.004-0.001l-0.129,0.488l-0.004-0.001l-0.119,0.465l0.006,0.002l-0.121,0.486
	l-0.016,0.049l-0.031,0.126v0.011l-0.062,0.262l-0.111,0.477l-0.1,0.412l0,0l-0.012,0.052v-0.001l-0.041,0.184v0.016l-0.055,0.242
	l-0.1,0.461l-0.055,0.252l-0.002,0.002l-0.041,0.195l-0.004-0.001l-0.035,0.175v0.029l-0.045,0.221l-0.088,0.445L49.256,25.5
	l-0.082,0.424h-0.002l-0.08,0.425l-0.035,0.183v0.018l-0.035,0.201l-0.074,0.422V27.17l-0.07,0.407h-0.004l-0.064,0.392
	l-0.002-0.001l-0.062,0.394l0,0l-0.025,0.159v0.045l-0.027,0.174c-0.012,0.076-0.027,0.164-0.043,0.26
	c-0.02,0.109-0.043,0.105-0.043,0.176v0.119l-0.027,0.191c-0.203,1.454-0.365,2.626-0.465,3.688c-0.1,1.048-0.154,2.144-0.154,3.571
	V36.849L47.959,36.849z M55.735,6.152l0.035,0.018l0,0L55.735,6.152L55.735,6.152L55.735,6.152z M55.758,6.177L55.725,6.16
	l-0.029,0.031C55.551,6.341,55.667,6.248,55.758,6.177L55.758,6.177z M55.77,6.169l-0.035-0.019l0.053-0.054l0.051,0.024
	C55.825,6.127,55.799,6.146,55.77,6.169L55.77,6.169z M62.361,9.313L62.33,9.355c0.059,0.16,0.105,0.32,0.055,0.064
	C62.375,9.374,62.367,9.338,62.361,9.313L62.361,9.313z M62.361,9.313c-0.023-0.09-0.033-0.062-0.043,0.01l0.012,0.032L62.361,9.313
	L62.361,9.313z"/>
<path fill="#0567A7" d="M0,37.485v-0.636v-0.104c0-1.468,0.067-2.709,0.19-3.998c0.117-1.225,0.271-2.352,0.461-3.723
	c0.014-0.271,0.066-0.562,0.109-0.805l0.026-0.152l0.008,0.001l0.001-0.011l0.026-0.168v-0.017l0.035-0.22l0.065-0.402v-0.009
	l0.033-0.196v-0.025l0.035-0.206l0.036-0.208v-0.015l0.035-0.202l0.075-0.42h0.005l0.003-0.019l0.079-0.427l0.001-0.01H1.223
	l0.038-0.199V25.3l0.044-0.228l0.011-0.058l0.03-0.163v-0.016l0.044-0.222l0.089-0.443h0.007l0.002-0.01l0.04-0.193v-0.025
	l0.053-0.251l0.097-0.455l0.002-0.009H1.677l0.101-0.462l0.004,0.001l0.004-0.02l0.043-0.19v-0.019l0.062-0.267L2,21.8l0.003-0.01H2
	l0.073-0.307l0.024-0.104l0.001-0.001l0.015-0.064h0.004l0.005-0.02l0.118-0.48l0.005-0.018l-0.004-0.001l0.121-0.486l0.03-0.089
	l0.026-0.102v-0.027l0.08-0.301l0.124-0.469l-0.002-0.001V19.32l0.009-0.035l0.135-0.5l0.004,0.002l0.005-0.02l0.14-0.505
	l0.005-0.017l-0.005-0.002l0.145-0.508l0.162-0.57l0.008-0.008l0.143-0.48l0.003,0.002l0.005-0.02l0.054-0.174v-0.018L3.54,16.13
	l0.165-0.524l0.104-0.327l0.004-0.007l0.072-0.222l0.086-0.268v-0.006l0.088-0.267l0.099-0.298l0.011-0.016l0.081-0.24l0.005,0.003
	l0.003-0.012l0.178-0.514l0.009-0.042l0.095-0.27l0.097-0.272l0.004,0.003l0.004-0.012l0.098-0.271v-0.01l0.099-0.271l0.004-0.008
	l-0.003-0.002l0.101-0.273l0.009-0.008l0.04-0.11l0.009-0.032l0.053-0.142l0.104-0.274v-0.008l0.104-0.275l0.175-0.459l0.008-0.008
	l0.041-0.104v-0.001l0.109-0.276l0.008-0.02l0.112-0.276v-0.001l0.113-0.277l0.008-0.01l0.091-0.223l0.023-0.065l0.114-0.28V9.148
	l0.117-0.28l0.005,0.003l0.004-0.012l0.119-0.281V8.57l0.12-0.282L6.435,8.28L6.431,8.279l0.122-0.281l0.009-0.01l0.123-0.281
	l0.004-0.008L6.685,7.697l0.124-0.283l0.009-0.008L6.91,7.199l0.012-0.037l0.022-0.049L7.073,6.83l0.009-0.01L7.21,6.537
	l0.004-0.008L7.211,6.527l0.131-0.283v-0.01l0.133-0.285l0.17-0.363L7.65,5.58l0.104-0.219l0.169-0.354l0.014-0.013L8.04,4.779
	l0.089-0.18l0.005-0.008l0.057-0.117l0.142-0.286l0-0.001l0,0l0.032-0.064c0.062-0.125,0.166-0.332,0.286-0.541L8.642,3.577
	L8.79,3.29V3.281l0.149-0.288l0.007,0.003l0.002-0.003c1.767-3.387,3.666-3.384,5.39-2.483c0.581,0.303,0.964,0.654,1.312,0.977
	c0.089,0.082,0.173,0.158,0.195,0.178l-0.001,0.002l4.608,3.65c0.14,0.11,0.583,0.446,0.954,0.729
	c1.205,0.912,1.752,1.326,1.986,2.488c0.195,0.969-0.043,1.503-0.48,2.479c-0.189,0.424-0.451,1.006-0.72,1.785l0.008,0.003
	c-0.478,1.386-1.021,3.146-1.46,5.098c-0.443,1.972-0.797,4.18-0.906,6.479c-0.019,0.369-0.021,0.717-0.013,1.045l0,0
	c0.01,0.354,0.031,0.696,0.062,1.027c0.031,0.347,0.035,0.399,0.038,0.443c0.037,0.547,0.088,1.293,1.544,1.293h11.815
	c1.562,0,2.98,0.637,4.007,1.664c1.027,1.026,1.665,2.445,1.665,4.008v27.609c0,1.562-0.638,2.981-1.665,4.008
	c-1.026,1.026-2.445,1.664-4.007,1.664H5.672c-1.554,0-2.971-0.64-4.003-1.669l-0.004,0.005C0.638,64.447,0,63.029,0,61.466V37.485
	L0,37.485z M4.537,36.849v0.636v23.981c0,0.31,0.128,0.594,0.335,0.8v0.01c0.201,0.2,0.484,0.326,0.8,0.326h27.61
	c0.31,0,0.593-0.129,0.8-0.336c0.206-0.206,0.334-0.49,0.334-0.8V33.857c0-0.311-0.128-0.594-0.334-0.801
	c-0.207-0.207-0.491-0.335-0.8-0.335H21.466c-5.686,0-5.903-3.187-6.063-5.528c-0.015-0.227-0.012-0.238-0.021-0.336
	c-0.039-0.432-0.067-0.869-0.079-1.311v-0.009c-0.013-0.463-0.01-0.923,0.012-1.374c0.123-2.589,0.52-5.061,1.013-7.259
	c0.499-2.217,1.08-4.116,1.584-5.575h0.009c0.258-0.752,0.485-1.305,0.673-1.734c-0.165-0.125-0.4-0.308-0.941-0.735l-4.678-3.706
	l-0.037-0.027l-0.127,0.245L12.808,5.37l-0.144,0.28l-0.152,0.295l-0.146,0.152l0.049,0.024c0.008-0.003,0.011-0.003,0.008,0.003
	l-0.032,0.064l-0.001,0.002l0,0l-0.142,0.286l-0.133,0.27l-0.14,0.286l-0.003-0.002l-0.132,0.276l0.006,0.003l-0.135,0.285
	l-0.004-0.002l-0.126,0.269l0.004,0.002l-0.133,0.284l-0.002-0.002l-0.128,0.277l-0.02,0.034l-0.105,0.23l0.005,0.002l-0.128,0.284
	l-0.003-0.002l-0.119,0.265l0.004,0.002l-0.125,0.283l-0.086,0.196l-0.009,0.014l-0.023,0.053l0.004,0.002l-0.122,0.281
	l-0.018,0.034l-0.102,0.239l-0.003-0.002l-0.087,0.207l-0.02,0.058l-0.117,0.28l-0.003-0.002l-0.113,0.272l-0.002-0.001
	l-0.106,0.262l0.004,0.002l-0.113,0.277v0.001l-0.104,0.259h0.001l-0.109,0.277v0.002l-0.108,0.275l-0.002-0.001l-0.1,0.258
	l0.005,0.002l-0.105,0.275L9.39,13.042L9.29,13.309l-0.002-0.001l-0.096,0.256l0.005,0.002l-0.101,0.272l-0.025,0.066L9.06,13.927
	L9.04,13.982v0.002l-0.132,0.373L8.81,14.628l-0.095,0.27L8.71,14.896l-0.048,0.138v0.012L8.538,15.41l-0.091,0.268H8.444
	L8.36,15.926l0.005,0.002l-0.087,0.266l-0.003-0.001l-0.083,0.258l-0.033,0.102l-0.053,0.162h0l-0.016,0.049l-0.009,0.014
	l-0.056,0.174l0.006,0.002l-0.165,0.523H7.862L7.74,17.873l0,0v0.002l-0.027,0.098l-0.153,0.516l-0.102,0.338l-0.005,0.008
	l-0.041,0.141l0.006,0.002l-0.145,0.508L7.225,19.65l-0.004,0.009v0.001l-0.08,0.295l-0.136,0.5l-0.002-0.001l-0.129,0.488
	L6.87,20.941L6.75,21.406l0.006,0.002l-0.121,0.486l-0.017,0.049l-0.031,0.126v0.011l-0.062,0.262l-0.113,0.477L6.315,23.23l0,0
	l-0.012,0.052l-0.001-0.001l-0.042,0.184v0.016l-0.054,0.242l-0.1,0.461l-0.055,0.252l0,0.002L6.01,24.632l-0.003-0.001L5.97,24.806
	v0.029l-0.044,0.221l-0.088,0.445L5.834,25.5l-0.082,0.424H5.75l-0.08,0.425l-0.034,0.183v0.018L5.6,26.75l-0.074,0.422L5.525,27.17
	l-0.07,0.407H5.453l-0.065,0.392l-0.001-0.001l-0.063,0.394H5.321l-0.025,0.159v0.045L5.27,28.74
	C5.259,28.816,5.243,28.904,5.227,29c-0.019,0.109-0.044,0.105-0.044,0.176v0.119l-0.026,0.191
	c-0.202,1.454-0.365,2.626-0.465,3.688c-0.101,1.048-0.155,2.144-0.155,3.571V36.849L4.537,36.849z M12.312,6.152l0.035,0.018h0
	L12.312,6.152L12.312,6.152L12.312,6.152z M12.337,6.177L12.304,6.16l-0.029,0.031C12.128,6.341,12.244,6.248,12.337,6.177
	L12.337,6.177z M12.348,6.169l-0.035-0.019l0.053-0.054l0.049,0.024C12.402,6.127,12.377,6.146,12.348,6.169L12.348,6.169z
	 M18.939,9.313l-0.032,0.042c0.061,0.16,0.107,0.32,0.056,0.064C18.954,9.374,18.945,9.338,18.939,9.313L18.939,9.313z
	 M18.939,9.313c-0.023-0.09-0.033-0.062-0.044,0.01l0.012,0.032L18.939,9.313L18.939,9.313z"/>
</svg>
