<svg width="74" height="24" viewBox="0 0 74 24" fill="none" xmlns="http://www.w3.org/2000/svg">
<g id="logo">
<path id="Vector" d="M31.72 12.6301C31.72 16.0829 29.006 18.6273 25.6754 18.6273C22.3448 18.6273 19.6309 16.0829 19.6309 12.6301C19.6309 9.15284 22.3448 6.63281 25.6754 6.63281C29.006 6.63281 31.72 9.15284 31.72 12.6301ZM29.0739 12.6301C29.0739 10.4723 27.501 8.99602 25.6754 8.99602C23.8498 8.99602 22.2769 10.4723 22.2769 12.6301C22.2769 14.7661 23.8498 16.2641 25.6754 16.2641C27.501 16.2641 29.0739 14.7634 29.0739 12.6301Z" fill="white"/>
<path id="Vector_2" d="M44.761 12.6301C44.761 16.0829 42.047 18.6273 38.7164 18.6273C35.3858 18.6273 32.6719 16.0829 32.6719 12.6301C32.6719 9.15555 35.3858 6.63281 38.7164 6.63281C42.047 6.63281 44.761 9.15284 44.761 12.6301ZM42.1149 12.6301C42.1149 10.4723 40.542 8.99602 38.7164 8.99602C36.8908 8.99602 35.3179 10.4723 35.3179 12.6301C35.3179 14.7661 36.8908 16.2641 38.7164 16.2641C40.542 16.2641 42.1149 14.7634 42.1149 12.6301Z" fill="white"/>
<path id="Vector_3" d="M57.2582 6.99513V17.762C57.2582 22.191 54.6339 23.9999 51.5315 23.9999C48.6111 23.9999 46.8535 22.0558 46.1906 20.4659L48.4943 19.5115C48.9045 20.4876 49.9097 21.6394 51.5288 21.6394C53.5147 21.6394 54.7453 20.42 54.7453 18.1244V17.2618H54.653C54.0607 17.9892 52.9197 18.6246 51.4799 18.6246C48.4671 18.6246 45.707 16.0126 45.707 12.6517C45.707 9.26641 48.4671 6.63281 51.4799 6.63281C52.917 6.63281 54.058 7.26823 54.653 7.97395H54.7453V6.99784H57.2582L57.2582 6.99513ZM54.9328 12.6517C54.9328 10.5399 53.5174 8.99601 51.7163 8.99601C49.8907 8.99601 48.3612 10.5399 48.3612 12.6517C48.3612 14.7418 49.8907 16.2641 51.7163 16.2641C53.5174 16.2641 54.9328 14.7418 54.9328 12.6517Z" fill="white"/>
<path id="Vector_4" d="M61.3992 0.68457V18.2599H58.8184V0.68457H61.3992Z" fill="white"/>
<path id="Vector_5" d="M71.4557 14.6037L73.5095 15.9664C72.8466 16.9425 71.2492 18.6244 68.4891 18.6244C65.0661 18.6244 62.5098 15.9908 62.5098 12.6271C62.5098 9.06069 65.0879 6.62988 68.193 6.62988C71.3199 6.62988 72.8493 9.10665 73.3492 10.4451L73.6236 11.1265L65.5687 14.4468C66.1854 15.6501 67.1444 16.2639 68.4891 16.2639C69.8366 16.2639 70.7711 15.6041 71.4557 14.6037ZM65.134 12.446L70.5184 10.2207C70.2223 9.47168 69.3313 8.94983 68.2826 8.94983C66.9379 8.94983 65.0661 10.1314 65.134 12.446Z" fill="white"/>
<path id="Vector_6" d="M9.86231 11.0698V8.52539H18.4768C18.561 8.96883 18.6045 9.49338 18.6045 10.0612C18.6045 11.9702 18.0802 14.3307 16.3904 16.0125C14.7468 17.7159 12.6469 18.6244 9.86502 18.6244C4.70882 18.6244 0.373047 14.4442 0.373047 9.31222C0.373047 4.18023 4.70882 0 9.86502 0C12.7175 0 14.7496 1.11401 16.2763 2.566L14.4725 4.36139C13.3777 3.33931 11.8944 2.54437 9.86231 2.54437C6.09703 2.54437 3.15218 5.56462 3.15218 9.31222C3.15218 13.0598 6.09703 16.0801 9.86231 16.0801C12.3046 16.0801 13.6955 15.104 14.5866 14.2171C15.3092 13.4979 15.7846 12.4704 15.9721 11.067L9.86231 11.0698Z" fill="white"/>
</g>
</svg>
