<?xml version="1.0" encoding="UTF-8" standalone="no"?><!DOCTYPE svg PUBLIC "-//W3C//DTD SVG 1.1//EN" "http://www.w3.org/Graphics/SVG/1.1/DTD/svg11.dtd"><svg width="100%" height="100%" viewBox="0 0 32 32" version="1.1" xmlns="http://www.w3.org/2000/svg" xmlns:xlink="http://www.w3.org/1999/xlink" xml:space="preserve" xmlns:serif="http://www.serif.com/" style="fill-rule:evenodd;clip-rule:evenodd;stroke-linejoin:round;stroke-miterlimit:2;"><path d="M10.806,27.378c10.566,-0 16.345,-8.754 16.345,-16.345c-0,-0.249 -0.005,-0.496 -0.017,-0.743c1.122,-0.81 2.097,-1.822 2.866,-2.974c-1.029,0.457 -2.137,0.765 -3.299,0.904c1.186,-0.711 2.097,-1.836 2.526,-3.177c-1.11,0.658 -2.339,1.136 -3.648,1.394c-1.048,-1.117 -2.541,-1.815 -4.193,-1.815c-3.173,0 -5.745,2.573 -5.745,5.744c-0,0.451 0.05,0.889 0.149,1.31c-4.775,-0.24 -9.008,-2.526 -11.841,-6.002c-0.494,0.849 -0.778,1.835 -0.778,2.887c-0,1.994 1.014,3.753 2.556,4.782c-0.942,-0.029 -1.827,-0.288 -2.602,-0.719c-0.001,0.024 -0.001,0.049 -0.001,0.074c0,2.782 1.981,5.105 4.609,5.632c-0.483,0.131 -0.99,0.202 -1.515,0.202c-0.37,-0 -0.73,-0.037 -1.079,-0.104c0.731,2.282 2.852,3.943 5.366,3.99c-1.966,1.541 -4.443,2.459 -7.135,2.459c-0.463,0 -0.92,-0.026 -1.37,-0.079c2.542,1.629 5.561,2.58 8.806,2.58Z" style="fill:#419bd6;fill-rule:nonzero;"/></svg>