<?xml version="1.0" encoding="UTF-8" standalone="no"?>
<!DOCTYPE svg PUBLIC "-//W3C//DTD SVG 1.1//EN" "http://www.w3.org/Graphics/SVG/1.1/DTD/svg11.dtd">
<svg width="100%" height="100%" viewBox="0 0 100 40" version="1.1" xmlns="http://www.w3.org/2000/svg" xmlns:xlink="http://www.w3.org/1999/xlink" xml:space="preserve" xmlns:serif="http://www.serif.com/" style="fill-rule:evenodd;clip-rule:evenodd;stroke-linejoin:round;stroke-miterlimit:2;">
    <g>
        <path d="M11.953,33.518C11.977,33.379 12.307,33.205 12.945,32.996C13.584,32.787 14.378,32.538 15.33,32.248C16.281,31.958 17.337,31.621 18.497,31.238C19.658,30.855 20.777,30.42 21.856,29.933C22.935,29.446 23.904,28.906 24.763,28.314C25.621,27.723 26.248,27.067 26.643,26.348C26.643,25.976 26.387,25.686 25.877,25.477C25.366,25.269 24.693,25.094 23.858,24.955C23.022,24.816 22.071,24.7 21.004,24.607C19.936,24.514 18.84,24.387 17.714,24.224C16.589,24.062 15.492,23.853 14.425,23.598C13.357,23.342 12.406,22.989 11.57,22.536C10.735,22.084 10.062,21.515 9.552,20.83C9.041,20.146 8.786,19.293 8.786,18.272C8.786,17.274 9.012,16.259 9.465,15.226C9.917,14.194 10.515,13.19 11.257,12.215C12,11.241 12.853,10.324 13.816,9.465C14.779,8.607 15.782,7.853 16.827,7.203C17.871,6.553 18.903,6.043 19.924,5.671C20.946,5.3 21.897,5.114 22.779,5.114C23.011,5.114 23.255,5.109 23.51,5.097C23.765,5.085 23.991,5.103 24.189,5.149C24.386,5.196 24.548,5.294 24.676,5.445C24.803,5.596 24.867,5.822 24.867,6.124C24.867,6.866 24.624,7.4 24.136,7.725C23.649,8.05 23.057,8.212 22.361,8.212L20.864,7.725C20.284,7.725 19.629,7.893 18.898,8.23C18.167,8.566 17.43,9.019 16.687,9.587C15.945,10.156 15.22,10.806 14.512,11.537C13.804,12.268 13.177,13.022 12.632,13.799C12.087,14.576 11.646,15.354 11.309,16.131C10.973,16.909 10.805,17.611 10.805,18.237C10.805,19.026 11.06,19.67 11.57,20.169C12.081,20.668 12.754,21.068 13.589,21.37C14.425,21.672 15.382,21.898 16.461,22.049C17.54,22.2 18.637,22.333 19.75,22.449C20.864,22.565 21.961,22.693 23.04,22.832C24.119,22.971 25.076,23.163 25.912,23.406C26.747,23.65 27.42,23.986 27.93,24.416C28.441,24.845 28.696,25.419 28.696,26.139C28.696,26.835 28.418,27.531 27.861,28.227C27.304,28.923 26.573,29.591 25.668,30.229C24.763,30.867 23.724,31.459 22.553,32.004C21.381,32.549 20.203,33.013 19.019,33.396C17.836,33.779 16.681,34.075 15.556,34.284C14.431,34.493 13.462,34.586 12.65,34.562C12.417,34.562 12.22,34.481 12.058,34.319C11.895,34.156 11.861,33.889 11.953,33.518Z" style="fill:white;fill-rule:nonzero;"/>
        <path d="M44.186,34.145C44.256,33.356 44.314,32.358 44.36,31.151C44.407,29.944 44.424,28.657 44.412,27.287C44.401,25.918 44.36,24.543 44.29,23.163C44.221,21.782 44.111,20.535 43.96,19.421C43.809,18.307 43.612,17.384 43.368,16.653C43.124,15.922 42.829,15.522 42.48,15.453C41.738,15.22 41.024,15.284 40.34,15.644C39.655,16.004 39.011,16.572 38.408,17.35C37.804,18.127 37.248,19.055 36.737,20.134C36.226,21.213 35.757,22.35 35.327,23.545C34.898,24.741 34.515,25.936 34.179,27.131C33.842,28.326 33.569,29.422 33.361,30.42C33.152,31.418 32.995,32.271 32.891,32.979C32.786,33.686 32.746,34.145 32.769,34.354C32.606,34.354 32.403,34.383 32.16,34.441C31.916,34.499 31.678,34.545 31.446,34.58C31.214,34.615 31.011,34.603 30.837,34.545C30.663,34.487 30.576,34.342 30.576,34.11L29.984,5.462C29.984,5.254 30.077,5.12 30.263,5.062C30.448,5.004 30.657,4.987 30.889,5.01C31.121,5.033 31.342,5.091 31.551,5.184C31.759,5.277 31.899,5.37 31.968,5.462L32.142,27.461C32.282,27.067 32.461,26.429 32.682,25.547C32.902,24.665 33.187,23.679 33.535,22.588C33.883,21.498 34.312,20.378 34.823,19.229C35.333,18.081 35.954,17.048 36.685,16.131C37.416,15.215 38.286,14.489 39.295,13.956C40.305,13.422 41.471,13.213 42.794,13.329C43.211,13.561 43.589,13.857 43.925,14.217C44.261,14.576 44.563,15.075 44.83,15.714C45.097,16.352 45.329,17.158 45.526,18.133C45.723,19.107 45.892,20.326 46.031,21.788C46.17,23.25 46.28,25.002 46.362,27.044C46.443,29.086 46.495,31.476 46.518,34.214C46.449,34.377 46.309,34.533 46.101,34.684C45.892,34.835 45.665,34.934 45.422,34.98C45.178,35.027 44.94,34.992 44.708,34.876C44.476,34.76 44.302,34.516 44.186,34.145Z" style="fill:white;fill-rule:nonzero;"/>
        <path d="M59.815,34.214C59.49,33.727 59.287,33.089 59.206,32.3C59.125,31.511 59.078,30.681 59.067,29.811C59.055,28.941 59.055,28.082 59.067,27.235C59.078,26.388 59.014,25.663 58.875,25.06C57.785,27.45 56.758,29.312 55.795,30.646C54.832,31.981 53.95,32.932 53.149,33.501C52.349,34.069 51.623,34.325 50.974,34.267C50.324,34.209 49.773,33.976 49.32,33.57C48.868,33.164 48.514,32.665 48.259,32.074C48.003,31.482 47.864,30.919 47.841,30.385C47.679,29.504 47.673,28.442 47.824,27.2C47.974,25.959 48.241,24.677 48.624,23.354C49.007,22.031 49.494,20.738 50.086,19.473C50.678,18.208 51.351,17.112 52.105,16.183C52.859,15.255 53.666,14.565 54.524,14.112C55.383,13.66 56.276,13.584 57.204,13.886C57.669,13.84 58.057,13.857 58.371,13.938C58.684,14.02 58.945,14.188 59.154,14.443C59.363,14.698 59.513,15.052 59.606,15.505C59.699,15.957 59.769,16.532 59.815,17.228C59.769,19.479 59.833,21.393 60.007,22.971C60.181,24.549 60.384,25.941 60.616,27.148C60.848,28.355 61.074,29.446 61.294,30.42C61.515,31.395 61.648,32.404 61.695,33.449C61.695,33.82 61.602,34.104 61.416,34.301C61.231,34.499 61.022,34.626 60.79,34.684C60.558,34.742 60.343,34.725 60.146,34.632C59.949,34.539 59.838,34.4 59.815,34.214ZM57.796,16.636C57.239,15.893 56.636,15.58 55.986,15.696C55.336,15.812 54.692,16.212 54.054,16.897C53.416,17.582 52.807,18.475 52.227,19.577C51.647,20.68 51.148,21.857 50.73,23.11C50.312,24.364 50.005,25.611 49.808,26.852C49.61,28.094 49.57,29.19 49.686,30.142C50.011,31.186 50.405,31.813 50.869,32.021C51.333,32.23 51.832,32.155 52.366,31.795C52.9,31.435 53.445,30.861 54.002,30.072C54.559,29.283 55.093,28.43 55.603,27.514C56.114,26.597 56.572,25.68 56.978,24.764C57.384,23.847 57.715,23.076 57.97,22.449L57.796,16.636Z" style="fill:white;fill-rule:nonzero;"/>
        <path d="M63.47,33.901C63.4,30.699 63.342,27.984 63.296,25.756C63.25,23.528 63.215,21.683 63.192,20.221C63.168,18.759 63.151,17.616 63.139,16.793C63.128,15.969 63.116,15.36 63.105,14.965C63.093,14.571 63.087,14.333 63.087,14.252L63.087,14.095C63.11,13.886 63.215,13.712 63.4,13.573C63.586,13.434 63.789,13.347 64.01,13.312C64.23,13.277 64.445,13.306 64.653,13.399C64.862,13.492 65.013,13.642 65.106,13.851L65.21,21.857C65.559,20.256 66.121,18.922 66.899,17.854C67.676,16.787 68.552,15.946 69.527,15.331C70.501,14.716 71.517,14.315 72.572,14.13C73.628,13.944 74.609,13.933 75.514,14.095C75.815,14.165 76.042,14.292 76.193,14.478C76.343,14.664 76.425,14.867 76.436,15.087C76.448,15.307 76.39,15.516 76.262,15.714C76.135,15.911 75.966,16.056 75.757,16.149C74.713,16.079 73.733,16.166 72.816,16.41C71.899,16.653 71.064,17.013 70.31,17.489C69.556,17.965 68.894,18.527 68.326,19.177C67.757,19.827 67.311,20.511 66.986,21.231C66.498,22.275 66.168,23.371 65.994,24.52C65.82,25.669 65.715,26.812 65.68,27.949C65.646,29.086 65.646,30.165 65.68,31.186C65.715,32.207 65.721,33.1 65.698,33.866C65.675,34.121 65.564,34.313 65.367,34.441C65.17,34.568 64.949,34.638 64.706,34.649C64.462,34.661 64.218,34.603 63.975,34.475C63.731,34.348 63.563,34.156 63.47,33.901Z" style="fill:white;fill-rule:nonzero;"/>
        <path d="M77.219,25.269C77.057,25.408 76.773,25.46 76.367,25.425C75.96,25.39 75.589,25.303 75.253,25.164C74.916,25.025 74.69,24.833 74.574,24.59C74.458,24.346 74.597,24.062 74.992,23.737C75.154,23.598 75.334,23.499 75.531,23.441C75.728,23.383 75.926,23.325 76.123,23.267C76.32,23.209 76.483,23.122 76.61,23.006C76.738,22.89 76.813,22.704 76.836,22.449C76.86,21.405 76.947,20.337 77.098,19.247C77.248,18.156 77.533,17.181 77.95,16.323C78.368,15.464 78.966,14.78 79.743,14.269C80.52,13.758 81.547,13.561 82.824,13.677C83.288,13.677 83.81,13.788 84.39,14.008C84.97,14.228 85.527,14.518 86.061,14.878C86.594,15.238 87.059,15.667 87.453,16.166C87.848,16.665 88.091,17.205 88.184,17.785C88.347,18.017 88.254,18.307 87.906,18.655C87.558,19.003 87.07,19.392 86.444,19.821C85.817,20.25 85.109,20.685 84.32,21.126C83.531,21.567 82.771,21.985 82.04,22.379C81.309,22.774 80.665,23.122 80.108,23.424C79.552,23.725 79.192,23.934 79.029,24.05C79.169,24.955 79.319,25.907 79.482,26.905C79.644,27.902 79.876,28.819 80.178,29.654C80.48,30.49 80.857,31.18 81.309,31.726C81.762,32.271 82.336,32.544 83.032,32.544C84.053,32.613 84.929,32.462 85.66,32.091C86.391,31.72 87.001,31.232 87.488,30.629C87.975,30.026 88.364,29.364 88.654,28.645C88.944,27.926 89.165,27.241 89.315,26.591C89.466,25.941 89.571,25.39 89.629,24.938C89.687,24.485 89.739,24.236 89.785,24.189C90.041,24.05 90.331,24.044 90.655,24.172C90.98,24.3 91.166,24.642 91.212,25.199C91.236,26.104 91.038,27.137 90.621,28.297C90.203,29.457 89.629,30.525 88.898,31.499C88.167,32.474 87.296,33.257 86.287,33.849C85.278,34.441 84.204,34.644 83.067,34.458C81.884,34.435 80.944,34.092 80.248,33.431C79.552,32.77 79,31.969 78.594,31.029C78.188,30.09 77.892,29.097 77.707,28.053C77.521,27.009 77.359,26.081 77.219,25.269ZM86.339,17.785C85.597,16.764 84.842,16.114 84.077,15.835C83.311,15.557 82.522,15.476 81.71,15.592C81.222,15.661 80.793,15.888 80.422,16.271C80.05,16.653 79.749,17.141 79.517,17.732C79.285,18.324 79.122,18.986 79.029,19.717C78.937,20.448 78.925,21.196 78.995,21.962L86.339,17.785Z" style="fill:white;fill-rule:nonzero;"/>
    </g>
</svg>
