<?xml version="1.0" encoding="UTF-8" standalone="no"?><!DOCTYPE svg PUBLIC "-//W3C//DTD SVG 1.1//EN" "http://www.w3.org/Graphics/SVG/1.1/DTD/svg11.dtd"><svg width="100%" height="100%" viewBox="0 0 100 40" version="1.1" xmlns="http://www.w3.org/2000/svg" xmlns:xlink="http://www.w3.org/1999/xlink" xml:space="preserve" xmlns:serif="http://www.serif.com/" style="fill-rule:evenodd;clip-rule:evenodd;stroke-linejoin:round;stroke-miterlimit:2;"><g><path d="M11.953,33.518c0.024,-0.139 0.354,-0.313 0.992,-0.522c0.639,-0.209 1.433,-0.458 2.385,-0.748c0.951,-0.29 2.007,-0.627 3.167,-1.01c1.161,-0.383 2.28,-0.818 3.359,-1.305c1.079,-0.487 2.048,-1.027 2.907,-1.619c0.858,-0.591 1.485,-1.247 1.88,-1.966c-0,-0.372 -0.256,-0.662 -0.766,-0.871c-0.511,-0.208 -1.184,-0.383 -2.019,-0.522c-0.836,-0.139 -1.787,-0.255 -2.854,-0.348c-1.068,-0.093 -2.164,-0.22 -3.29,-0.383c-1.125,-0.162 -2.222,-0.371 -3.289,-0.626c-1.068,-0.256 -2.019,-0.609 -2.855,-1.062c-0.835,-0.452 -1.508,-1.021 -2.018,-1.706c-0.511,-0.684 -0.766,-1.537 -0.766,-2.558c-0,-0.998 0.226,-2.013 0.679,-3.046c0.452,-1.032 1.05,-2.036 1.792,-3.011c0.743,-0.974 1.596,-1.891 2.559,-2.75c0.963,-0.858 1.966,-1.612 3.011,-2.262c1.044,-0.65 2.076,-1.16 3.097,-1.532c1.022,-0.371 1.973,-0.557 2.855,-0.557c0.232,0 0.476,-0.005 0.731,-0.017c0.255,-0.012 0.481,0.006 0.679,0.052c0.197,0.047 0.359,0.145 0.487,0.296c0.127,0.151 0.191,0.377 0.191,0.679c0,0.742 -0.243,1.276 -0.731,1.601c-0.487,0.325 -1.079,0.487 -1.775,0.487l-1.497,-0.487c-0.58,0 -1.235,0.168 -1.966,0.505c-0.731,0.336 -1.468,0.789 -2.211,1.357c-0.742,0.569 -1.467,1.219 -2.175,1.95c-0.708,0.731 -1.335,1.485 -1.88,2.262c-0.545,0.777 -0.986,1.555 -1.323,2.332c-0.336,0.778 -0.504,1.48 -0.504,2.106c-0,0.789 0.255,1.433 0.765,1.932c0.511,0.499 1.184,0.899 2.019,1.201c0.836,0.302 1.793,0.528 2.872,0.679c1.079,0.151 2.176,0.284 3.289,0.4c1.114,0.116 2.211,0.244 3.29,0.383c1.079,0.139 2.036,0.331 2.872,0.574c0.835,0.244 1.508,0.58 2.018,1.01c0.511,0.429 0.766,1.003 0.766,1.723c0,0.696 -0.278,1.392 -0.835,2.088c-0.557,0.696 -1.288,1.364 -2.193,2.002c-0.905,0.638 -1.944,1.23 -3.115,1.775c-1.172,0.545 -2.35,1.009 -3.534,1.392c-1.183,0.383 -2.338,0.679 -3.463,0.888c-1.125,0.209 -2.094,0.302 -2.906,0.278c-0.233,0 -0.43,-0.081 -0.592,-0.243c-0.163,-0.163 -0.197,-0.43 -0.105,-0.801Z" style="fill:#08c;fill-rule:nonzero;"/><path d="M44.186,34.145c0.07,-0.789 0.128,-1.787 0.174,-2.994c0.047,-1.207 0.064,-2.494 0.052,-3.864c-0.011,-1.369 -0.052,-2.744 -0.122,-4.124c-0.069,-1.381 -0.179,-2.628 -0.33,-3.742c-0.151,-1.114 -0.348,-2.037 -0.592,-2.768c-0.244,-0.731 -0.539,-1.131 -0.888,-1.2c-0.742,-0.233 -1.456,-0.169 -2.14,0.191c-0.685,0.36 -1.329,0.928 -1.932,1.706c-0.604,0.777 -1.16,1.705 -1.671,2.784c-0.511,1.079 -0.98,2.216 -1.41,3.411c-0.429,1.196 -0.812,2.391 -1.148,3.586c-0.337,1.195 -0.61,2.291 -0.818,3.289c-0.209,0.998 -0.366,1.851 -0.47,2.559c-0.105,0.707 -0.145,1.166 -0.122,1.375c-0.163,-0 -0.366,0.029 -0.609,0.087c-0.244,0.058 -0.482,0.104 -0.714,0.139c-0.232,0.035 -0.435,0.023 -0.609,-0.035c-0.174,-0.058 -0.261,-0.203 -0.261,-0.435l-0.592,-28.648c0,-0.208 0.093,-0.342 0.279,-0.4c0.185,-0.058 0.394,-0.075 0.626,-0.052c0.232,0.023 0.453,0.081 0.662,0.174c0.208,0.093 0.348,0.186 0.417,0.278l0.174,21.999c0.14,-0.394 0.319,-1.032 0.54,-1.914c0.22,-0.882 0.505,-1.868 0.853,-2.959c0.348,-1.09 0.777,-2.21 1.288,-3.359c0.51,-1.148 1.131,-2.181 1.862,-3.098c0.731,-0.916 1.601,-1.642 2.61,-2.175c1.01,-0.534 2.176,-0.743 3.499,-0.627c0.417,0.232 0.795,0.528 1.131,0.888c0.336,0.359 0.638,0.858 0.905,1.497c0.267,0.638 0.499,1.444 0.696,2.419c0.197,0.974 0.366,2.193 0.505,3.655c0.139,1.462 0.249,3.214 0.331,5.256c0.081,2.042 0.133,4.432 0.156,7.17c-0.069,0.163 -0.209,0.319 -0.417,0.47c-0.209,0.151 -0.436,0.25 -0.679,0.296c-0.244,0.047 -0.482,0.012 -0.714,-0.104c-0.232,-0.116 -0.406,-0.36 -0.522,-0.731Z" style="fill:#08c;fill-rule:nonzero;"/><path d="M59.815,34.214c-0.325,-0.487 -0.528,-1.125 -0.609,-1.914c-0.081,-0.789 -0.128,-1.619 -0.139,-2.489c-0.012,-0.87 -0.012,-1.729 -0,-2.576c0.011,-0.847 -0.053,-1.572 -0.192,-2.175c-1.09,2.39 -2.117,4.252 -3.08,5.586c-0.963,1.335 -1.845,2.286 -2.646,2.855c-0.8,0.568 -1.526,0.824 -2.175,0.766c-0.65,-0.058 -1.201,-0.291 -1.654,-0.697c-0.452,-0.406 -0.806,-0.905 -1.061,-1.496c-0.256,-0.592 -0.395,-1.155 -0.418,-1.689c-0.162,-0.881 -0.168,-1.943 -0.017,-3.185c0.15,-1.241 0.417,-2.523 0.8,-3.846c0.383,-1.323 0.87,-2.616 1.462,-3.881c0.592,-1.265 1.265,-2.361 2.019,-3.29c0.754,-0.928 1.561,-1.618 2.419,-2.071c0.859,-0.452 1.752,-0.528 2.68,-0.226c0.465,-0.046 0.853,-0.029 1.167,0.052c0.313,0.082 0.574,0.25 0.783,0.505c0.209,0.255 0.359,0.609 0.452,1.062c0.093,0.452 0.163,1.027 0.209,1.723c-0.046,2.251 0.018,4.165 0.192,5.743c0.174,1.578 0.377,2.97 0.609,4.177c0.232,1.207 0.458,2.298 0.678,3.272c0.221,0.975 0.354,1.984 0.401,3.029c-0,0.371 -0.093,0.655 -0.279,0.852c-0.185,0.198 -0.394,0.325 -0.626,0.383c-0.232,0.058 -0.447,0.041 -0.644,-0.052c-0.197,-0.093 -0.308,-0.232 -0.331,-0.418Zm-2.019,-17.578c-0.557,-0.743 -1.16,-1.056 -1.81,-0.94c-0.65,0.116 -1.294,0.516 -1.932,1.201c-0.638,0.685 -1.247,1.578 -1.827,2.68c-0.58,1.103 -1.079,2.28 -1.497,3.533c-0.418,1.254 -0.725,2.501 -0.922,3.742c-0.198,1.242 -0.238,2.338 -0.122,3.29c0.325,1.044 0.719,1.671 1.183,1.879c0.464,0.209 0.963,0.134 1.497,-0.226c0.534,-0.36 1.079,-0.934 1.636,-1.723c0.557,-0.789 1.091,-1.642 1.601,-2.558c0.511,-0.917 0.969,-1.834 1.375,-2.75c0.406,-0.917 0.737,-1.688 0.992,-2.315l-0.174,-5.813Z" style="fill:#08c;fill-rule:nonzero;"/><path d="M63.47,33.901c-0.07,-3.202 -0.128,-5.917 -0.174,-8.145c-0.046,-2.228 -0.081,-4.073 -0.104,-5.535c-0.024,-1.462 -0.041,-2.605 -0.053,-3.428c-0.011,-0.824 -0.023,-1.433 -0.034,-1.828c-0.012,-0.394 -0.018,-0.632 -0.018,-0.713l0,-0.157c0.023,-0.209 0.128,-0.383 0.313,-0.522c0.186,-0.139 0.389,-0.226 0.61,-0.261c0.22,-0.035 0.435,-0.006 0.643,0.087c0.209,0.093 0.36,0.243 0.453,0.452l0.104,8.006c0.349,-1.601 0.911,-2.935 1.689,-4.003c0.777,-1.067 1.653,-1.908 2.628,-2.523c0.974,-0.615 1.99,-1.016 3.045,-1.201c1.056,-0.186 2.037,-0.197 2.942,-0.035c0.301,0.07 0.528,0.197 0.679,0.383c0.15,0.186 0.232,0.389 0.243,0.609c0.012,0.22 -0.046,0.429 -0.174,0.627c-0.127,0.197 -0.296,0.342 -0.505,0.435c-1.044,-0.07 -2.024,0.017 -2.941,0.261c-0.917,0.243 -1.752,0.603 -2.506,1.079c-0.754,0.476 -1.416,1.038 -1.984,1.688c-0.569,0.65 -1.015,1.334 -1.34,2.054c-0.488,1.044 -0.818,2.14 -0.992,3.289c-0.174,1.149 -0.279,2.292 -0.314,3.429c-0.034,1.137 -0.034,2.216 0,3.237c0.035,1.021 0.041,1.914 0.018,2.68c-0.023,0.255 -0.134,0.447 -0.331,0.575c-0.197,0.127 -0.418,0.197 -0.661,0.208c-0.244,0.012 -0.488,-0.046 -0.731,-0.174c-0.244,-0.127 -0.412,-0.319 -0.505,-0.574Z" style="fill:#08c;fill-rule:nonzero;"/><path d="M77.219,25.269c-0.162,0.139 -0.446,0.191 -0.852,0.156c-0.407,-0.035 -0.778,-0.122 -1.114,-0.261c-0.337,-0.139 -0.563,-0.331 -0.679,-0.574c-0.116,-0.244 0.023,-0.528 0.418,-0.853c0.162,-0.139 0.342,-0.238 0.539,-0.296c0.197,-0.058 0.395,-0.116 0.592,-0.174c0.197,-0.058 0.36,-0.145 0.487,-0.261c0.128,-0.116 0.203,-0.302 0.226,-0.557c0.024,-1.044 0.111,-2.112 0.262,-3.202c0.15,-1.091 0.435,-2.066 0.852,-2.924c0.418,-0.859 1.016,-1.543 1.793,-2.054c0.777,-0.511 1.804,-0.708 3.081,-0.592c0.464,0 0.986,0.111 1.566,0.331c0.58,0.22 1.137,0.51 1.671,0.87c0.533,0.36 0.998,0.789 1.392,1.288c0.395,0.499 0.638,1.039 0.731,1.619c0.163,0.232 0.07,0.522 -0.278,0.87c-0.348,0.348 -0.836,0.737 -1.462,1.166c-0.627,0.429 -1.335,0.864 -2.124,1.305c-0.789,0.441 -1.549,0.859 -2.28,1.253c-0.731,0.395 -1.375,0.743 -1.932,1.045c-0.556,0.301 -0.916,0.51 -1.079,0.626c0.14,0.905 0.29,1.857 0.453,2.855c0.162,0.997 0.394,1.914 0.696,2.749c0.302,0.836 0.679,1.526 1.131,2.072c0.453,0.545 1.027,0.818 1.723,0.818c1.021,0.069 1.897,-0.082 2.628,-0.453c0.731,-0.371 1.341,-0.859 1.828,-1.462c0.487,-0.603 0.876,-1.265 1.166,-1.984c0.29,-0.719 0.511,-1.404 0.661,-2.054c0.151,-0.65 0.256,-1.201 0.314,-1.653c0.058,-0.453 0.11,-0.702 0.156,-0.749c0.256,-0.139 0.546,-0.145 0.87,-0.017c0.325,0.128 0.511,0.47 0.557,1.027c0.024,0.905 -0.174,1.938 -0.591,3.098c-0.418,1.16 -0.992,2.228 -1.723,3.202c-0.731,0.975 -1.602,1.758 -2.611,2.35c-1.009,0.592 -2.083,0.795 -3.22,0.609c-1.183,-0.023 -2.123,-0.366 -2.819,-1.027c-0.696,-0.661 -1.248,-1.462 -1.654,-2.402c-0.406,-0.939 -0.702,-1.932 -0.887,-2.976c-0.186,-1.044 -0.348,-1.972 -0.488,-2.784Zm9.12,-7.484c-0.742,-1.021 -1.497,-1.671 -2.262,-1.95c-0.766,-0.278 -1.555,-0.359 -2.367,-0.243c-0.488,0.069 -0.917,0.296 -1.288,0.679c-0.372,0.382 -0.673,0.87 -0.905,1.461c-0.232,0.592 -0.395,1.254 -0.488,1.985c-0.092,0.731 -0.104,1.479 -0.034,2.245l7.344,-4.177Z" style="fill:#08c;fill-rule:nonzero;"/></g></svg>