<svg width="73" height="70" viewBox="0 0 73 70" fill="none" xmlns="http://www.w3.org/2000/svg">
<g clip-path="url(#clip0)">
<path d="M4.89077 56.5447L3.73208 56.061C2.93918 55.7289 2.53721 55.2944 2.53721 54.7696C2.53721 54.3819 2.68194 54.0685 2.97977 53.8121C3.27937 53.5497 3.66259 53.417 4.11883 53.417C4.4919 53.417 4.79833 53.4935 5.03351 53.6467C5.2559 53.7792 5.49814 54.0751 5.75317 54.5266L5.80943 54.6254L7.42083 53.6512L7.36656 53.5547C6.59638 52.1944 5.50895 51.5047 4.13405 51.5047C3.117 51.5047 2.25482 51.8185 1.57156 52.4374C0.88257 53.055 0.53333 53.8343 0.53333 54.7538C0.53333 56.117 1.35822 57.1631 2.98617 57.8648L4.10559 58.3398C4.38953 58.4649 4.63706 58.5974 4.84069 58.733C5.0419 58.8676 5.2067 59.0127 5.33201 59.1648C5.4549 59.3133 5.54645 59.4788 5.6047 59.6566C5.66294 59.8357 5.69272 60.0366 5.69272 60.2539C5.69272 60.7941 5.5213 61.2449 5.18354 61.5939C4.84533 61.9435 4.4138 62.1203 3.90086 62.1203C3.24054 62.1203 2.7532 61.8848 2.40903 61.397C2.22173 61.1484 2.08737 60.6823 2.00971 60.0109L1.99537 59.8872L0.000976562 60.3351L0.0161993 60.4388C0.179457 61.5642 0.597971 62.4511 1.26203 63.0761C1.93669 63.7008 2.80195 64.0178 3.83313 64.0178C4.921 64.0178 5.84561 63.6455 6.58072 62.9116C7.31163 62.1818 7.68205 61.2465 7.68205 60.1315C7.68205 59.2957 7.4537 58.5789 7.00342 58.0014C6.55843 57.4297 5.84782 56.9395 4.89077 56.5447Z" fill="#F9F9F9"/>
<path d="M15.2418 51.505C13.3057 51.505 11.7055 52.2488 10.4859 53.7155L10.4855 53.7159C9.49578 54.9117 8.99365 56.2928 8.99365 57.8227C8.99365 59.5285 9.59396 61.0057 10.7787 62.2139C11.9674 63.4112 13.4235 64.0182 15.1057 64.0182C16.2229 64.0182 17.3044 63.7217 18.3197 63.1369L18.3759 63.1045V60.6403L18.1941 60.7967C17.9139 61.0374 17.6432 61.2467 17.3884 61.4181C17.1374 61.5871 16.8914 61.7229 16.6538 61.8242C16.2394 62.021 15.7261 62.1209 15.1286 62.1209C13.9713 62.1209 12.9807 61.7009 12.1842 60.8734C11.3865 60.0457 10.9819 59.0144 10.9819 57.8074C10.9819 56.5853 11.3865 55.538 12.1851 54.6946C12.9763 53.8471 13.964 53.4174 15.1213 53.4174C16.1726 53.4174 17.2064 53.8448 18.1946 54.6876L18.3759 54.8424V52.4198L18.321 52.3874C17.3355 51.8018 16.2995 51.505 15.2418 51.505Z" fill="#F9F9F9"/>
<path d="M20.3669 64.0184H22.3402V51.5055H20.3669V64.0184Z" fill="#F9F9F9"/>
<path d="M29.2072 56.5447L28.0489 56.061C27.256 55.7289 26.8536 55.2944 26.8536 54.7696C26.8536 54.3819 26.9981 54.069 27.2964 53.8121C27.5958 53.5497 27.979 53.417 28.4357 53.417C28.8083 53.417 29.1147 53.4935 29.3504 53.6467C29.5728 53.7797 29.815 54.0755 30.07 54.5266L30.1263 54.6254L31.7372 53.6512L31.683 53.5547C30.9132 52.1944 29.8258 51.5047 28.4509 51.5047C27.4339 51.5047 26.5717 51.8185 25.8884 52.4374C25.199 53.055 24.8497 53.8348 24.8497 54.7538C24.8497 56.1165 25.6746 57.1631 27.303 57.8648L28.4218 58.3398C28.7073 58.4658 28.9546 58.5978 29.1575 58.733C29.3588 58.8676 29.5236 59.0127 29.6486 59.1648C29.7718 59.3133 29.8633 59.4788 29.9216 59.6566C29.9798 59.8357 30.0096 60.0366 30.0096 60.2539C30.0096 60.7941 29.8382 61.2449 29.5004 61.5939C29.1622 61.9435 28.7307 62.1203 28.2177 62.1203C27.557 62.1203 27.0696 61.8848 26.7254 61.397C26.5381 61.1484 26.4038 60.6818 26.3266 60.0109L26.3122 59.8872L24.3174 60.3351L24.3326 60.4393C24.4961 61.5642 24.9148 62.4511 25.5784 63.0761C26.2531 63.7008 27.1186 64.0178 28.15 64.0178C29.2379 64.0178 30.1625 63.6455 30.8971 62.9116C31.628 62.1822 31.9989 61.2465 31.9989 60.1315C31.9989 59.2959 31.7706 58.5794 31.3203 58.0014C30.8748 57.4293 30.1634 56.9391 29.2072 56.5447Z" fill="#F9F9F9"/>
<path d="M38.1886 56.5447L37.0304 56.061C36.2375 55.7289 35.8351 55.2944 35.8351 54.7696C35.8351 54.3819 35.9796 54.069 36.2778 53.8121C36.577 53.5497 36.9604 53.417 37.4171 53.417C37.7898 53.417 38.0962 53.4935 38.3318 53.6467C38.5542 53.7797 38.7964 54.0755 39.0515 54.5266L39.1077 54.6254L40.7191 53.6512L40.6646 53.5547C39.8945 52.1944 38.8073 51.5047 37.4324 51.5047C36.4153 51.5047 35.5531 51.8185 34.8699 52.4374C34.1804 53.055 33.8312 53.8348 33.8312 54.7538C33.8312 56.1165 34.6561 57.1631 36.2845 57.8648L37.4032 58.3398C37.6883 58.4653 37.9356 58.5978 38.139 58.733C38.3402 58.8676 38.505 59.0127 38.6299 59.1648C38.7532 59.3142 38.8452 59.4793 38.903 59.6566C38.9612 59.8357 38.991 60.0366 38.991 60.2539C38.991 60.7941 38.8196 61.2449 38.4816 61.5939C38.1436 61.9435 37.7119 62.1203 37.1992 62.1203C36.5384 62.1203 36.0508 61.8848 35.7069 61.397C35.5194 61.1484 35.3852 60.6823 35.3076 60.0109L35.2932 59.8872L33.2988 60.3351L33.3141 60.4393C33.4775 61.5642 33.8963 62.4511 34.5599 63.0761C35.2345 63.7008 36.0996 64.0178 37.131 64.0178C38.2193 64.0178 39.1439 63.6455 39.8786 62.9116C40.6095 62.1822 40.9803 61.2465 40.9803 60.1315C40.9803 59.2957 40.752 58.5789 40.3017 58.0014C39.8563 57.4293 39.1448 56.9391 38.1886 56.5447Z" fill="#F9F9F9"/>
<path d="M52.6657 57.7685C52.6657 58.9801 52.2538 60.0222 51.4415 60.8652C50.6298 61.6981 49.6189 62.1206 48.4366 62.1206C47.3481 62.1206 46.3743 61.7055 45.5417 60.8856C44.706 60.0674 44.2821 59.0089 44.2821 57.7382C44.2821 56.5276 44.6912 55.4962 45.4989 54.6726C46.3061 53.8397 47.3099 53.417 48.4814 53.417C49.6582 53.417 50.6591 53.8393 51.4569 54.6726C52.2591 55.5012 52.6657 56.5426 52.6657 57.7685ZM48.5039 51.5123C46.8069 51.5123 45.3336 52.1269 44.1244 53.3389C42.9097 54.5516 42.2937 56.0241 42.2937 57.715C42.2937 59.6384 42.9692 61.215 44.3022 62.402C45.5106 63.4743 46.8941 64.0178 48.4141 64.0178C50.1303 64.0178 51.6166 63.4061 52.8311 62.1984C54.041 60.9959 54.655 59.5106 54.655 57.7838C54.655 56.0684 54.0441 54.5783 52.8398 53.3551C51.6396 52.1321 50.1808 51.5123 48.5039 51.5123Z" fill="#F9F9F9"/>
<path d="M61.4354 55.3454C61.4354 56.5754 60.657 57.1732 59.056 57.1732H58.6101V53.5096H59.1237C60.6791 53.5096 61.4354 54.1978 61.4354 55.3454ZM62.6325 57.5554C63.118 56.9349 63.3643 56.1842 63.3643 55.3225C63.3643 54.2194 62.9713 53.1881 62.1965 52.5136C61.4972 51.9104 60.3546 51.6047 58.8005 51.6047H56.6365V64.0182H58.6101V58.9557H58.7573L62.2389 64.0182H64.6573L60.8682 58.7141C61.5878 58.5226 62.1809 58.1334 62.6325 57.5554Z" fill="#F9F9F9"/>
<path d="M72.3206 58.0025C71.8756 57.4308 71.1645 56.9402 70.2079 56.5458L69.0492 56.0621C68.2563 55.73 67.8544 55.2958 67.8544 54.7709C67.8544 54.383 67.9991 54.0699 68.2969 53.8132C68.5965 53.5511 68.9798 53.4181 69.4367 53.4181C69.8091 53.4181 70.1151 53.4948 70.3509 53.648C70.5739 53.7808 70.8162 54.0773 71.0703 54.5279L71.1266 54.6265L72.738 53.6523L72.6837 53.5558C71.914 52.1956 70.8266 51.5058 69.4512 51.5058C68.4342 51.5058 67.5722 51.8198 66.8887 52.4388C66.1997 53.0563 65.8505 53.8359 65.8505 54.7549C65.8505 56.1181 66.6756 57.1642 68.3033 57.8662L69.4223 58.3411C69.7076 58.4669 69.9549 58.5989 70.1579 58.7341C70.3599 58.8694 70.5247 59.0147 70.6492 59.1661C70.7725 59.3153 70.8645 59.4804 70.9221 59.6577C70.9808 59.8377 71.0106 60.0386 71.0106 60.2552C71.0106 60.7947 70.8391 61.2456 70.5007 61.5952C70.1627 61.9446 69.731 62.1217 69.218 62.1217C68.5577 62.1217 68.0701 61.8861 67.7262 61.3984C67.5389 61.1504 67.4045 60.6838 67.3269 60.0123L67.3128 59.8885L65.3184 60.3362L65.3334 60.4399C65.4966 61.5648 65.9154 62.4517 66.5788 63.0774C67.2541 63.7019 68.1196 64.0189 69.1503 64.0189C70.2382 64.0189 71.1628 63.6466 71.8979 62.9127C72.6288 62.1829 72.9992 61.2478 72.9992 60.1328C72.9992 59.2968 72.7709 58.58 72.3206 58.0025Z" fill="#F9F9F9"/>
<path d="M70.2776 38.8657L40.6881 25.078L38.8567 25.9314L34.0532 28.172L29.521 30.2836L66.4196 47.4766C68.7515 48.5633 71.5053 47.5164 72.5709 45.1384C73.6363 42.7606 72.61 39.9521 70.278 38.8657" fill="#00CC66"/>
<path d="M26.4053 18.4218L6.57229 9.18075C4.24035 8.0941 1.48658 9.14093 0.420988 11.5187C-0.644382 13.8968 0.381938 16.705 2.71388 17.7916L14.1029 23.0985L15.9352 23.952L27.1042 18.7476L26.4053 18.4218Z" fill="#00CC66"/>
<path d="M72.5699 2.76765C71.5043 0.389612 68.7506 -0.657221 66.4186 0.429208L27.1042 18.7484L38.2709 23.9518L40.4859 22.9196C40.4925 22.9166 40.4994 22.9155 40.506 22.9126L58.8887 14.3472L70.2777 9.04032C72.6096 7.95389 73.6359 5.14546 72.5706 2.76765" fill="#17A9E6"/>
<path d="M38.2703 23.9518L38.2729 23.9529L40.5054 22.9126C40.499 22.9155 40.4919 22.9164 40.4855 22.9196L38.2703 23.9518Z" fill="#17A9E6"/>
<path d="M27.105 29.1579L26.0456 28.6643L15.9361 23.9534L2.71486 30.1138C0.382915 31.2005 -0.643406 34.0089 0.421965 36.3867C1.48756 38.7645 4.24132 39.8116 6.57327 38.7249L27.1052 29.1579H27.105Z" fill="#17A9E6"/>
<path d="M27.1025 25.8911C26.0601 25.8911 25.2151 25.0294 25.2151 23.9662C25.2151 22.9034 26.0601 22.0417 27.1025 22.0417C28.1449 22.0417 28.9899 22.9034 28.9899 23.9662C28.9899 25.0294 28.1449 25.8911 27.1025 25.8911ZM36.1936 24.9181L38.27 23.9504L27.1034 18.7471L15.9341 23.9515L26.0437 28.6622L27.1029 29.156L31.39 27.1584L36.1936 24.9181Z" fill="#008036"/>
<path d="M38.2701 23.9518L36.1936 24.9194L31.3899 27.1598L27.103 29.1573H27.1035L38.2728 23.9529L38.2701 23.9518Z" fill="#008036"/>
<circle cx="27" cy="24" r="2" fill="#F4F4F4"/>
</g>
<defs>
<clipPath id="clip0">
<rect width="73" height="70" fill="white"/>
</clipPath>
</defs>
</svg>
