<svg width="73" height="70" viewBox="0 0 73 70" fill="none" xmlns="http://www.w3.org/2000/svg">
<ellipse cx="27.1471" cy="24.1772" rx="2.14706" ry="2.17721" fill="white"/>
<path d="M4.89077 56.5448L3.73208 56.0611C2.93918 55.729 2.53721 55.2946 2.53721 54.7697C2.53721 54.382 2.68194 54.0687 2.97977 53.8122C3.27937 53.5498 3.66259 53.4171 4.11883 53.4171C4.4919 53.4171 4.79833 53.4936 5.03351 53.6468C5.2559 53.7793 5.49814 54.0752 5.75317 54.5267L5.80943 54.6255L7.42083 53.6513L7.36656 53.5548C6.59638 52.1946 5.50895 51.5048 4.13405 51.5048C3.117 51.5048 2.25482 51.8186 1.57156 52.4375C0.88257 53.0551 0.53333 53.8344 0.53333 54.7539C0.53333 56.1171 1.35822 57.1633 2.98617 57.865L4.10559 58.3399C4.38953 58.465 4.63706 58.5975 4.84069 58.7332C5.0419 58.8677 5.2067 59.0128 5.33201 59.1649C5.4549 59.3134 5.54645 59.479 5.6047 59.6567C5.66294 59.8358 5.69272 60.0367 5.69272 60.254C5.69272 60.7942 5.5213 61.2451 5.18354 61.594C4.84533 61.9436 4.4138 62.1205 3.90086 62.1205C3.24054 62.1205 2.7532 61.8849 2.40903 61.3972C2.22173 61.1485 2.08737 60.6824 2.00971 60.011L1.99537 59.8873L0.000976562 60.3352L0.0161993 60.439C0.179457 61.5643 0.597971 62.4512 1.26203 63.0762C1.93669 63.7009 2.80195 64.0179 3.83313 64.0179C4.921 64.0179 5.84561 63.6456 6.58072 62.9117C7.31163 62.1819 7.68205 61.2466 7.68205 60.1316C7.68205 59.2958 7.4537 58.5791 7.00342 58.0015C6.55843 57.4299 5.84782 56.9396 4.89077 56.5448Z" fill="#6A6A6A"/>
<path d="M15.2418 51.505C13.3057 51.505 11.7055 52.2488 10.4859 53.7155L10.4855 53.7159C9.49578 54.9117 8.99365 56.2928 8.99365 57.8227C8.99365 59.5285 9.59396 61.0057 10.7787 62.2139C11.9674 63.4112 13.4235 64.0182 15.1057 64.0182C16.2229 64.0182 17.3044 63.7217 18.3197 63.1369L18.3759 63.1045V60.6403L18.1941 60.7967C17.9139 61.0374 17.6432 61.2467 17.3884 61.4181C17.1374 61.5871 16.8914 61.7229 16.6538 61.8242C16.2394 62.021 15.7261 62.1209 15.1286 62.1209C13.9713 62.1209 12.9807 61.7009 12.1842 60.8734C11.3865 60.0457 10.9819 59.0144 10.9819 57.8074C10.9819 56.5853 11.3865 55.538 12.1851 54.6946C12.9763 53.8471 13.964 53.4174 15.1213 53.4174C16.1726 53.4174 17.2064 53.8448 18.1946 54.6876L18.3759 54.8424V52.4198L18.321 52.3874C17.3355 51.8018 16.2995 51.505 15.2418 51.505Z" fill="#6A6A6A"/>
<path d="M20.3672 64.0187H22.3404V51.5057H20.3672V64.0187Z" fill="#6A6A6A"/>
<path d="M29.2072 56.5448L28.0489 56.0611C27.256 55.729 26.8536 55.2946 26.8536 54.7697C26.8536 54.382 26.9981 54.0691 27.2964 53.8122C27.5958 53.5498 27.979 53.4171 28.4357 53.4171C28.8083 53.4171 29.1147 53.4936 29.3504 53.6468C29.5728 53.7798 29.815 54.0756 30.07 54.5267L30.1263 54.6255L31.7372 53.6513L31.683 53.5548C30.9132 52.1946 29.8258 51.5048 28.4509 51.5048C27.4339 51.5048 26.5717 51.8186 25.8884 52.4375C25.199 53.0551 24.8497 53.8349 24.8497 54.7539C24.8497 56.1166 25.6746 57.1633 27.303 57.865L28.4218 58.3399C28.7073 58.4659 28.9546 58.598 29.1575 58.7332C29.3588 58.8677 29.5236 59.0128 29.6486 59.1649C29.7718 59.3134 29.8633 59.479 29.9216 59.6567C29.9798 59.8358 30.0096 60.0367 30.0096 60.254C30.0096 60.7942 29.8382 61.2451 29.5004 61.594C29.1622 61.9436 28.7307 62.1205 28.2177 62.1205C27.557 62.1205 27.0696 61.8849 26.7254 61.3972C26.5381 61.1485 26.4038 60.6819 26.3266 60.011L26.3122 59.8873L24.3174 60.3352L24.3326 60.4394C24.4961 61.5643 24.9148 62.4512 25.5784 63.0762C26.2531 63.7009 27.1186 64.0179 28.15 64.0179C29.2379 64.0179 30.1625 63.6456 30.8971 62.9117C31.628 62.1823 31.9989 61.2466 31.9989 60.1316C31.9989 59.2961 31.7706 58.5795 31.3203 58.0015C30.8748 57.4294 30.1634 56.9392 29.2072 56.5448Z" fill="#6A6A6A"/>
<path d="M38.1886 56.5448L37.0304 56.0611C36.2375 55.729 35.8351 55.2946 35.8351 54.7697C35.8351 54.382 35.9796 54.0691 36.2778 53.8122C36.577 53.5498 36.9604 53.4171 37.4171 53.4171C37.7898 53.4171 38.0962 53.4936 38.3318 53.6468C38.5542 53.7798 38.7964 54.0756 39.0515 54.5267L39.1077 54.6255L40.7191 53.6513L40.6646 53.5548C39.8945 52.1946 38.8073 51.5048 37.4324 51.5048C36.4153 51.5048 35.5531 51.8186 34.8699 52.4375C34.1804 53.0551 33.8312 53.8349 33.8312 54.7539C33.8312 56.1166 34.6561 57.1633 36.2845 57.865L37.4032 58.3399C37.6883 58.4654 37.9356 58.598 38.139 58.7332C38.3402 58.8677 38.505 59.0128 38.6299 59.1649C38.7532 59.3143 38.8452 59.4794 38.903 59.6567C38.9612 59.8358 38.991 60.0367 38.991 60.254C38.991 60.7942 38.8196 61.2451 38.4816 61.594C38.1436 61.9436 37.7119 62.1205 37.1992 62.1205C36.5384 62.1205 36.0508 61.8849 35.7069 61.3972C35.5194 61.1485 35.3852 60.6824 35.3076 60.011L35.2932 59.8873L33.2988 60.3352L33.3141 60.4394C33.4775 61.5643 33.8963 62.4512 34.5599 63.0762C35.2345 63.7009 36.0996 64.0179 37.131 64.0179C38.2193 64.0179 39.1439 63.6456 39.8786 62.9117C40.6095 62.1823 40.9803 61.2466 40.9803 60.1316C40.9803 59.2958 40.752 58.5791 40.3017 58.0015C39.8563 57.4294 39.1448 56.9392 38.1886 56.5448Z" fill="#6A6A6A"/>
<path d="M52.6659 57.7687C52.6659 58.9802 52.254 60.0223 51.4417 60.8653C50.6301 61.6982 49.6192 62.1207 48.4369 62.1207C47.3483 62.1207 46.3745 61.7056 45.5419 60.8858C44.7062 60.0675 44.2824 59.009 44.2824 57.7383C44.2824 56.5277 44.6914 55.4964 45.4991 54.6727C46.3064 53.8398 47.3102 53.4171 48.4817 53.4171C49.6584 53.4171 50.6594 53.8394 51.4572 54.6727C52.2593 55.5013 52.6659 56.5428 52.6659 57.7687ZM48.5042 51.5124C46.8072 51.5124 45.3339 52.1271 44.1246 53.339C42.9099 54.5517 42.2939 56.0242 42.2939 57.7151C42.2939 59.6385 42.9695 61.2151 44.3025 62.4021C45.5108 63.4744 46.8943 64.0179 48.4144 64.0179C50.1306 64.0179 51.6169 63.4062 52.8314 62.1985C54.0413 60.996 54.6553 59.5107 54.6553 57.784C54.6553 56.0685 54.0444 54.5784 52.84 53.3552C51.6398 52.1322 50.1811 51.5124 48.5042 51.5124Z" fill="#6A6A6A"/>
<path d="M61.4356 55.3454C61.4356 56.5754 60.6573 57.1732 59.0562 57.1732H58.6104V53.5096H59.124C60.6793 53.5096 61.4356 54.1978 61.4356 55.3454ZM62.6327 57.5554C63.1183 56.9349 63.3645 56.1842 63.3645 55.3225C63.3645 54.2194 62.9716 53.1881 62.1968 52.5136C61.4974 51.9104 60.3548 51.6047 58.8008 51.6047H56.6367V64.0182H58.6104V58.9557H58.7575L62.2391 64.0182H64.6575L60.8684 58.7141C61.5881 58.5226 62.1811 58.1334 62.6327 57.5554Z" fill="#6A6A6A"/>
<path d="M72.3206 58.0028C71.8756 57.4311 71.1645 56.9404 70.2079 56.546L69.0492 56.0623C68.2563 55.7302 67.8544 55.296 67.8544 54.7711C67.8544 54.3833 67.9991 54.0701 68.2969 53.8134C68.5965 53.5513 68.9798 53.4183 69.4367 53.4183C69.8091 53.4183 70.1151 53.4951 70.3509 53.6483C70.5739 53.781 70.8162 54.0775 71.0703 54.5282L71.1266 54.6267L72.738 53.6525L72.6837 53.556C71.914 52.1958 70.8266 51.506 69.4512 51.506C68.4342 51.506 67.5722 51.8201 66.8887 52.439C66.1997 53.0566 65.8505 53.8361 65.8505 54.7552C65.8505 56.1183 66.6756 57.1645 68.3033 57.8664L69.4223 58.3413C69.7076 58.4671 69.9549 58.5992 70.1579 58.7344C70.3599 58.8696 70.5247 59.0149 70.6492 59.1664C70.7725 59.3155 70.8645 59.4806 70.9221 59.6579C70.9808 59.8379 71.0106 60.0388 71.0106 60.2555C71.0106 60.795 70.8391 61.2458 70.5007 61.5955C70.1627 61.9449 69.731 62.1219 69.218 62.1219C68.5577 62.1219 68.0701 61.8864 67.7262 61.3986C67.5389 61.1507 67.4045 60.6841 67.3269 60.0125L67.3128 59.8888L65.3184 60.3365L65.3334 60.4402C65.4966 61.5651 65.9154 62.452 66.5788 63.0776C67.2541 63.7022 68.1196 64.0192 69.1503 64.0192C70.2382 64.0192 71.1628 63.6468 71.8979 62.9129C72.6288 62.1831 72.9992 61.2481 72.9992 60.1331C72.9992 59.2971 72.7709 58.5803 72.3206 58.0028Z" fill="#6A6A6A"/>
<path d="M70.2776 38.8658L40.6881 25.0782L38.8567 25.9315L34.0532 28.1721L29.521 30.2838L66.4196 47.4767C68.7515 48.5634 71.5053 47.5165 72.5709 45.1385C73.6363 42.7607 72.61 39.9523 70.278 38.8658" fill="#00CC66"/>
<path d="M26.4053 18.422L6.57229 9.18099C4.24035 8.09434 1.48658 9.14117 0.420988 11.519C-0.644382 13.897 0.381938 16.7052 2.71388 17.7919L14.1029 23.0987L15.9352 23.9523L27.1042 18.7478L26.4053 18.422Z" fill="#00CC66"/>
<path d="M72.5702 2.76766C71.5046 0.389618 68.7508 -0.657215 66.4188 0.429214L27.1045 18.7484L38.2711 23.9518L40.4862 22.9196C40.4928 22.9166 40.4996 22.9155 40.5062 22.9126L58.8889 14.3472L70.2779 9.04033C72.6099 7.9539 73.6362 5.14547 72.5708 2.76766" fill="#17A9E6"/>
<path d="M38.2705 23.9519L38.2732 23.953L40.5056 22.9127C40.4992 22.9156 40.4921 22.9165 40.4857 22.9197L38.2705 23.9519Z" fill="#17A9E6"/>
<path d="M27.105 29.158L26.0456 28.6644L15.9361 23.9535L2.71486 30.1139C0.382915 31.2006 -0.643406 34.009 0.421965 36.3868C1.48756 38.7646 4.24132 39.8117 6.57327 38.725L27.1052 29.158H27.105Z" fill="#17A9E6"/>
<path d="M27.1025 25.8912C26.0601 25.8912 25.2151 25.0295 25.2151 23.9663C25.2151 22.9035 26.0601 22.0418 27.1025 22.0418C28.1449 22.0418 28.9899 22.9035 28.9899 23.9663C28.9899 25.0295 28.1449 25.8912 27.1025 25.8912ZM36.1936 24.9182L38.27 23.9505L27.1034 18.7472L15.9341 23.9517L26.0437 28.6623L27.1029 29.1561L31.39 27.1585L36.1936 24.9182Z" fill="#008036"/>
<path d="M38.2701 23.9518L36.1936 24.9194L31.3899 27.1598L27.103 29.1573H27.1035L38.2728 23.9529L38.2701 23.9518Z" fill="#008036"/>
</svg>
