<?xml version="1.0" encoding="UTF-8" standalone="no"?>
<!DOCTYPE svg PUBLIC "-//W3C//DTD SVG 1.1//EN" "http://www.w3.org/Graphics/SVG/1.1/DTD/svg11.dtd">
<svg width="100%" height="100%" viewBox="0 0 100 60" version="1.1" xmlns="http://www.w3.org/2000/svg" xmlns:xlink="http://www.w3.org/1999/xlink" xml:space="preserve" xmlns:serif="http://www.serif.com/" style="fill-rule:evenodd;clip-rule:evenodd;stroke-linejoin:round;stroke-miterlimit:2;">
    <g transform="matrix(0.550809,0,0,0.550809,32.7473,7.96763)">
        <g transform="matrix(0.15,0,0,0.15,-58.6775,-20)">
            <path d="M504.235,133.341C501.538,133.425 498.633,134.421 495.339,137.02C487.269,133.909 479.444,132.828 472.448,139.163C461.643,137.762 458.132,140.653 455.471,144.029C453.099,143.981 437.722,141.592 430.671,152.11C412.95,150.014 407.349,162.533 413.695,174.209C410.076,179.812 406.326,185.347 414.79,196.028C411.795,201.978 413.652,208.431 420.704,216.24C418.843,224.603 422.501,230.504 429.065,235.102C427.837,246.546 439.559,253.2 443.06,255.571C444.403,262.239 447.205,268.532 460.594,272.011C462.802,281.949 470.849,283.664 478.641,285.75C452.887,300.72 430.8,320.418 430.95,368.747L427.178,375.476C397.647,393.435 371.078,451.155 412.625,498.071C415.339,512.757 419.89,523.305 423.942,534.98C430.003,582.023 469.56,604.051 479.993,606.656C495.281,618.301 511.564,629.351 533.598,637.091C554.37,658.513 576.874,666.678 599.5,666.665C599.831,666.665 600.169,666.668 600.501,666.665C623.127,666.679 645.63,658.514 666.402,637.091C688.435,629.351 704.719,618.301 720.007,606.656C730.44,604.05 769.997,582.023 776.058,534.98C780.11,523.305 784.661,512.756 787.375,498.071C828.921,451.152 802.353,393.428 772.822,375.469L769.043,368.74C769.193,320.414 747.108,300.718 721.353,285.743C729.145,283.659 737.192,281.942 739.4,272.005C752.789,268.525 755.591,262.232 756.935,255.565C760.435,253.194 772.156,246.54 770.93,235.096C777.492,230.497 781.151,224.597 779.289,216.234C786.343,208.425 788.199,201.971 785.204,196.021C793.67,185.345 789.914,179.81 786.299,174.207C792.641,162.532 787.045,150.012 769.318,152.109C762.268,141.589 746.896,143.979 744.518,144.028C741.858,140.652 738.348,137.759 727.543,139.161C720.546,132.825 712.722,133.906 704.652,137.019C695.069,129.457 688.727,135.518 681.485,137.81C669.883,134.019 667.23,139.212 661.529,141.327C648.876,138.653 645.031,144.474 638.966,150.618L631.91,150.478C612.825,161.725 603.344,184.626 599.984,196.399C596.622,184.624 587.163,161.723 568.082,150.478L561.026,150.618C554.953,144.474 551.108,138.653 538.456,141.327C532.755,139.212 530.109,134.019 518.5,137.81C513.746,136.306 509.374,133.18 504.226,133.339L504.235,133.341Z" style="fill-rule:nonzero;"/>
        </g>
        <g transform="matrix(0.15,0,0,0.15,-58.6775,-20)">
            <path d="M466.239,182.82C516.871,208.924 546.307,230.04 562.432,248.025C554.174,281.123 511.093,282.634 495.341,281.706C498.566,280.204 501.257,278.406 502.211,275.643C498.259,272.834 484.243,275.347 474.459,269.85C478.217,269.071 479.975,268.313 481.733,265.539C472.489,262.591 462.532,260.05 456.675,255.166C459.835,255.205 462.786,255.872 466.913,253.01C458.633,248.548 449.798,245.011 442.934,238.191C447.214,238.086 451.83,238.149 453.172,236.574C445.594,231.879 439.2,226.658 433.907,220.947C439.898,221.67 442.427,221.047 443.876,220.004C438.148,214.136 430.897,209.182 427.44,201.951C431.888,203.484 435.958,204.072 438.892,201.816C436.945,197.425 428.604,194.835 423.802,184.572C428.486,185.026 433.453,185.594 434.446,184.572C432.273,175.716 428.543,170.738 424.885,165.58C434.907,165.431 450.092,165.619 449.405,164.772L443.208,158.44C452.997,155.804 463.014,158.863 470.287,161.134C473.552,158.557 470.229,155.3 466.245,151.973C474.565,153.084 482.083,154.997 488.878,157.631C492.509,154.353 486.52,151.075 483.623,147.797C496.477,150.235 501.923,153.662 507.334,157.092C511.262,153.329 507.56,150.13 504.91,146.854C514.601,150.444 519.593,155.078 524.849,159.652C526.631,157.248 529.376,155.485 526.061,149.683C532.942,153.649 538.125,158.323 541.959,163.559C546.216,160.848 544.495,157.141 544.519,153.725C551.669,159.542 556.208,165.732 561.763,171.777C562.882,170.962 563.862,168.199 564.727,163.828C581.787,180.38 605.894,222.069 570.924,238.598C541.162,214.052 505.618,196.211 466.229,182.827L466.239,182.82ZM734.893,182.82C684.266,208.926 654.833,230.037 638.707,248.025C646.965,281.123 690.046,282.634 705.799,281.706C702.573,280.204 699.882,278.406 698.928,275.643C702.881,272.834 716.896,275.347 726.681,269.85C722.922,269.071 721.164,268.313 719.406,265.539C728.65,262.591 738.608,260.05 744.465,255.166C741.304,255.205 738.353,255.872 734.226,253.01C742.506,248.548 751.341,245.011 758.206,238.191C753.925,238.086 749.309,238.149 747.967,236.574C755.545,231.879 761.939,226.658 767.233,220.947C761.241,221.67 758.712,221.047 757.263,220.004C762.992,214.136 770.243,209.182 773.699,201.951C769.251,203.484 765.181,204.072 762.248,201.816C764.194,197.425 772.535,194.835 777.337,184.572C772.653,185.026 767.687,185.594 766.694,184.572C768.871,175.713 772.6,170.734 776.258,165.576C766.236,165.427 751.051,165.615 751.739,164.768L757.936,158.436C748.146,155.8 738.128,158.86 730.857,161.13C727.591,158.554 730.914,155.296 734.898,151.969C726.579,153.08 719.06,154.993 712.265,157.628C708.634,154.35 714.623,151.071 717.519,147.793C704.666,150.232 699.22,153.658 693.808,157.089C689.882,153.326 693.584,150.127 696.233,146.85C686.542,150.44 681.55,155.075 676.294,159.649C674.512,157.244 671.768,155.481 675.081,149.679C668.201,153.645 663.018,158.319 659.184,163.556C654.927,160.845 656.648,157.138 656.625,153.721C649.473,159.537 644.935,165.729 639.38,171.773C638.261,170.959 637.281,168.195 636.416,163.825C619.356,180.376 595.249,222.065 630.219,238.595C659.966,214.043 695.507,196.203 734.9,182.819L734.893,182.82Z" style="fill:rgb(117,169,40);fill-rule:nonzero;"/>
        </g>
        <g transform="matrix(0.15,0,0,0.15,-58.6775,-20)">
            <path d="M661.883,519.862C661.883,519.943 661.883,520.024 661.883,520.105C661.883,550.785 634.506,576.031 601.235,576.031C567.964,576.031 540.586,550.785 540.586,520.105C540.586,520.024 540.586,519.943 540.587,519.862C540.586,519.78 540.586,519.699 540.586,519.618C540.586,488.938 567.964,463.692 601.235,463.692C634.506,463.692 661.883,488.938 661.883,519.618C661.883,519.699 661.883,519.78 661.883,519.862ZM566.142,360.103C566.351,360.239 566.56,360.377 566.767,360.517C591.496,377.219 595.63,414.972 575.924,444.149C556.354,473.127 520.129,483.489 495.375,467.192C495.166,467.055 494.957,466.917 494.75,466.777C470.021,450.075 465.887,412.323 485.593,383.145C505.163,354.168 541.388,343.805 566.142,360.103Z" style="fill:rgb(188,34,66);fill-rule:nonzero;"/>
        </g>
        <g transform="matrix(0.15,0,0,0.15,-58.6775,-20)">
            <path d="M633.969,357.122C633.789,357.24 633.61,357.359 633.431,357.479C608.702,374.181 604.568,411.934 624.274,441.112C643.819,470.05 679.978,480.431 704.736,464.211C704.916,464.093 705.095,463.974 705.274,463.853C730.003,447.152 734.137,409.399 714.431,380.221C694.887,351.283 658.727,340.901 633.969,357.122ZM440.546,387.02C467.677,379.747 449.705,499.265 427.63,489.458C403.347,469.927 395.525,412.729 440.546,387.02Z" style="fill:rgb(188,34,66);fill-rule:nonzero;"/>
        </g>
        <g transform="matrix(0.15,0,0,0.15,-58.6775,-20)">
            <path d="M754.088,385.53C726.954,378.259 744.929,497.782 767.004,487.975C791.287,468.442 799.108,411.239 754.088,385.53ZM661.904,296.528C708.727,288.621 747.687,316.44 746.115,367.212C744.575,386.677 644.654,299.426 661.904,296.528L661.904,296.528ZM532.536,295.037C485.71,287.131 446.753,314.956 448.325,365.724C449.865,385.187 549.787,297.936 532.536,295.037ZM599.794,283.197C571.849,282.47 545.029,303.938 544.964,316.389C544.886,331.519 567.059,347.01 599.984,347.403C633.609,347.644 655.064,335.003 655.172,319.39C655.295,301.699 624.592,282.923 599.794,283.196L599.794,283.197ZM601.501,593.454C625.865,592.39 658.559,601.301 658.623,613.123C659.027,624.601 628.973,650.538 599.885,650.036C569.76,651.336 540.22,625.359 540.607,616.356C540.156,603.155 577.288,592.847 601.501,593.453L601.501,593.454ZM511.508,523.393C528.854,544.292 536.762,581.008 522.285,591.832C508.59,600.094 475.331,596.691 451.692,562.731C435.749,534.234 437.804,505.236 448.997,496.718C465.737,486.521 491.601,500.294 511.509,523.393L511.508,523.393ZM688.022,516.769C669.254,538.752 658.803,578.848 672.494,591.761C685.585,601.794 720.728,600.392 746.687,564.372C765.537,540.181 759.221,499.78 748.454,489.051C732.46,476.68 709.499,492.512 688.022,516.762L688.022,516.769Z" style="fill:rgb(188,34,66);fill-rule:nonzero;"/>
        </g>
    </g>
</svg>
