<?xml version="1.0" encoding="UTF-8" standalone="no"?>
<!DOCTYPE svg PUBLIC "-//W3C//DTD SVG 1.1//EN" "http://www.w3.org/Graphics/SVG/1.1/DTD/svg11.dtd">
<svg width="100%" height="100%" viewBox="0 0 746 100" version="1.1" xmlns="http://www.w3.org/2000/svg" xmlns:xlink="http://www.w3.org/1999/xlink" xml:space="preserve" xmlns:serif="http://www.serif.com/" style="fill-rule:evenodd;clip-rule:evenodd;stroke-linejoin:round;stroke-miterlimit:2;">
    <g transform="matrix(3.85048,0,0,3.85048,-1.85924e-15,2.76263e-07)">
        <path d="M43.282,13.56C43.282,10.012 46.197,7.096 49.873,7.096C53.422,7.096 55.07,9.631 55.07,9.631L52.915,11.786C52.915,11.786 51.775,10.266 49.873,10.266C48.099,10.266 46.703,11.659 46.703,13.561C46.703,15.463 48.097,16.856 49.873,16.856C51.775,16.856 52.915,15.336 52.915,15.336L55.07,17.49C55.07,17.49 53.422,20.026 49.873,20.026C46.197,20.026 43.283,17.109 43.283,13.561L43.282,13.56ZM57.353,2.026L60.776,2.026L60.776,19.773L57.353,19.773L57.353,2.026ZM63.436,13.56C63.436,10.012 66.35,7.096 70.026,7.096C73.703,7.096 76.617,10.01 76.617,13.561C76.617,17.111 73.703,20.026 70.027,20.026C66.35,20.026 63.436,17.109 63.436,13.561L63.436,13.56ZM73.196,13.56C73.196,11.659 71.802,10.265 70.026,10.265C68.251,10.265 66.856,11.659 66.856,13.561C66.856,15.463 68.251,16.856 70.026,16.856C71.802,16.856 73.196,15.462 73.196,13.561L73.196,13.56ZM79.155,14.829L79.155,7.35L82.578,7.35L82.578,14.321C82.578,15.842 83.465,16.729 84.858,16.729C86.38,16.729 87.52,15.589 87.52,13.94L87.52,7.35L90.943,7.35L90.943,19.772L87.52,19.772L87.52,17.997L87.393,17.997C87.393,17.997 86.125,20.025 83.716,20.025C81.182,20.025 79.155,17.997 79.155,14.828L79.155,14.829ZM93.477,13.56C93.477,9.759 96.138,7.096 99.055,7.096C101.716,7.096 102.984,9.123 102.984,9.123L103.112,9.123L103.112,2.026L106.535,2.026L106.535,19.773L103.112,19.773L103.112,17.998L102.984,17.998C102.984,17.998 101.716,20.026 99.054,20.026C96.138,20.026 93.477,17.364 93.477,13.561L93.477,13.56ZM103.238,13.56C103.238,11.659 101.844,10.265 100.068,10.265C98.292,10.265 96.898,11.659 96.898,13.561C96.898,15.463 98.292,16.856 100.068,16.856C101.844,16.856 103.238,15.462 103.238,13.561L103.238,13.56ZM109.194,13.56C109.194,10.012 112.109,7.096 115.785,7.096C119.334,7.096 120.983,9.631 120.983,9.631L118.828,11.786C118.828,11.786 117.687,10.266 115.785,10.266C114.011,10.266 112.616,11.659 112.616,13.561C112.616,15.463 114.009,16.856 115.785,16.856C117.687,16.856 118.828,15.336 118.828,15.336L120.983,17.49C120.983,17.49 119.334,20.026 115.785,20.026C112.111,20.026 109.194,17.109 109.194,13.561L109.194,13.56ZM122.504,16.477C122.504,14.45 123.897,12.902 126.18,12.497L130.109,11.787C129.982,10.899 129.222,10.137 127.954,10.137C126.18,10.137 125.165,11.531 125.165,11.531L123.138,9.504C123.138,9.504 124.912,7.096 128.207,7.096C131.377,7.096 133.532,9.251 133.532,12.04L133.532,19.773L130.109,19.773L130.109,18.252L129.982,18.252C129.982,18.252 128.714,20.026 126.306,20.026C124.025,20.026 122.504,18.505 122.504,16.477ZM130.109,14.447L130.109,14.195L127.32,14.701C126.433,14.853 125.927,15.335 125.927,15.969C125.927,16.73 126.433,17.237 127.448,17.237C128.969,17.237 130.109,16.097 130.109,14.447ZM136.828,7.35L140.25,7.35L140.25,9.125L140.378,9.125C140.378,9.125 141.646,7.097 144.054,7.097C146.59,7.097 148.617,9.125 148.617,12.294L148.617,19.773L145.194,19.773L145.194,12.8C145.194,11.279 144.307,10.392 142.912,10.392C141.391,10.392 140.25,11.532 140.25,13.181L140.25,19.771L136.828,19.771L136.828,7.35ZM151.911,7.35L155.334,7.35L155.334,9.125L155.462,9.125C155.462,9.125 156.729,7.097 159.138,7.097C161.673,7.097 163.701,9.125 163.701,12.294L163.701,19.773L160.278,19.773L160.278,12.8C160.278,11.279 159.391,10.392 157.996,10.392C156.474,10.392 155.334,11.532 155.334,13.181L155.334,19.771L151.911,19.771L151.911,7.35ZM166.235,13.56C166.235,10.012 169.15,7.096 172.826,7.096C176.502,7.096 179.417,10.01 179.417,13.561C179.417,17.111 176.502,20.026 172.826,20.026C169.15,20.026 166.235,17.109 166.235,13.561L166.235,13.56ZM175.996,13.56C175.996,11.659 174.602,10.265 172.826,10.265C171.05,10.265 169.656,11.659 169.656,13.561C169.656,15.463 171.05,16.856 172.826,16.856C174.602,16.856 175.996,15.462 175.996,13.561L175.996,13.56ZM181.953,7.35L185.375,7.35L185.375,9.125L185.503,9.125C185.503,9.125 186.771,7.097 189.179,7.097C191.715,7.097 193.742,9.125 193.742,12.294L193.742,19.773L190.319,19.773L190.319,12.8C190.319,11.279 189.432,10.392 188.037,10.392C186.516,10.392 185.375,11.532 185.375,13.181L185.375,19.771L181.953,19.771L181.953,7.35Z" style="fill:rgb(3,74,216);fill-rule:nonzero;"/>
    </g>
    <g transform="matrix(3.85048,0,0,3.85048,-1.85924e-15,2.76263e-07)">
        <path d="M14.813,21.342C14.993,21.445 15.187,21.548 15.381,21.639C16.826,22.309 17.497,22.749 17.497,23.677C17.497,24.671 16.684,25.484 15.69,25.484C14.916,25.484 14.271,24.994 14.013,24.31C13.046,25.3 11.719,25.859 10.335,25.858C7.504,25.858 5.175,23.529 5.175,20.698C5.175,20.698 5.175,20.697 5.175,20.697C5.175,20.426 5.213,20.155 5.252,19.884C2.606,19.11 0.568,16.904 0.103,14.142C0.039,13.742 0,13.342 0,12.929C0,12.516 0.039,12.116 0.103,11.716C0.581,8.968 2.606,6.748 5.252,5.974L5.247,5.94C5.21,5.682 5.174,5.433 5.174,5.161C5.174,5.161 5.174,5.16 5.174,5.16C5.174,2.329 7.503,-0 10.334,-0C10.334,-0 10.335,-0 10.335,0C11.768,0 13.071,0.594 14.013,1.548C14.271,0.846 14.942,0.376 15.69,0.374C16.684,0.374 17.497,1.187 17.497,2.181C17.497,3.187 16.826,3.626 15.381,4.297C15.239,4.365 15.099,4.437 14.961,4.513L14.813,4.593C14.697,4.658 14.581,4.723 14.477,4.787C14.387,4.839 14.31,4.89 14.232,4.942C14.208,4.955 14.184,4.97 14.162,4.987C14.139,5.004 14.115,5.019 14.09,5.032C13.652,5.316 13.252,5.652 12.864,6C12.852,6.007 12.841,6.016 12.832,6.026C12.822,6.036 12.812,6.046 12.8,6.052C12.645,6.206 12.49,6.362 12.348,6.516L12.29,6.581C12.271,6.603 12.252,6.626 12.232,6.645C12.171,6.721 12.109,6.795 12.046,6.869C11.949,6.983 11.854,7.096 11.768,7.213C10.517,8.871 9.837,10.891 9.832,12.968C9.831,15.046 10.511,17.068 11.768,18.723C11.928,18.945 12.103,19.156 12.29,19.355C12.31,19.377 12.329,19.4 12.348,19.419C12.455,19.545 12.568,19.656 12.683,19.769L12.8,19.884C12.812,19.891 12.823,19.9 12.832,19.91C12.842,19.92 12.852,19.929 12.864,19.936C13.246,20.29 13.656,20.614 14.09,20.903C14.116,20.916 14.139,20.933 14.161,20.948C14.183,20.965 14.207,20.981 14.232,20.994L14.355,21.071L14.477,21.148L14.645,21.245C14.7,21.277 14.755,21.31 14.813,21.342ZM32.748,6.026C35.394,6.8 37.432,9.006 37.897,11.768C38.034,12.597 38.034,13.442 37.897,14.271C37.419,17.019 35.394,19.239 32.748,20.013L32.753,20.047C32.79,20.305 32.826,20.554 32.826,20.826C32.826,20.826 32.826,20.827 32.826,20.827C32.826,23.658 30.497,25.987 27.666,25.987C27.665,25.987 27.665,25.987 27.664,25.987C26.281,25.985 24.955,25.427 23.987,24.439C23.729,25.141 23.058,25.611 22.31,25.613C21.32,25.61 20.506,24.797 20.503,23.807C20.503,22.8 21.174,22.361 22.619,21.69C22.762,21.624 22.899,21.55 23.039,21.474L23.187,21.394C23.303,21.329 23.419,21.264 23.523,21.2C23.613,21.148 23.69,21.097 23.768,21.045C23.792,21.032 23.816,21.017 23.838,21C23.861,20.983 23.885,20.968 23.91,20.955C24.344,20.665 24.754,20.342 25.136,19.987C25.148,19.98 25.159,19.971 25.168,19.961C25.178,19.951 25.188,19.942 25.2,19.936C25.355,19.781 25.51,19.626 25.652,19.471L25.71,19.407C25.729,19.384 25.748,19.361 25.768,19.342C25.828,19.266 25.892,19.192 25.954,19.118C26.051,19.004 26.146,18.892 26.232,18.774C27.432,17.174 28.168,15.174 28.168,13.019C28.169,10.941 27.488,8.92 26.232,7.265C26.072,7.043 25.897,6.832 25.71,6.632C25.69,6.61 25.671,6.587 25.652,6.568C25.511,6.404 25.36,6.248 25.2,6.103C25.188,6.096 25.177,6.087 25.168,6.077C25.159,6.067 25.148,6.059 25.136,6.052C24.75,5.701 24.341,5.378 23.91,5.084C23.885,5.071 23.861,5.056 23.839,5.039C23.816,5.023 23.794,5.007 23.768,4.994C23.729,4.968 23.688,4.942 23.645,4.916C23.604,4.891 23.563,4.865 23.523,4.839L23.355,4.742C23.117,4.598 22.872,4.466 22.62,4.348C21.187,3.665 20.503,3.226 20.503,2.232C20.503,1.239 21.316,0.426 22.31,0.426C23.084,0.426 23.729,0.916 23.987,1.6C24.954,0.61 26.281,0.051 27.665,0.052C30.496,0.052 32.825,2.381 32.825,5.212C32.825,5.212 32.825,5.213 32.825,5.213C32.825,5.483 32.787,5.755 32.748,6.026Z" style="fill:rgb(3,74,216);"/>
    </g>
    <g transform="matrix(3.85048,0,0,3.85048,-1.85924e-15,2.76263e-07)">
        <path d="M24.632,12.984L24.632,12.977C24.632,9.893 22.094,7.355 19.01,7.355L19.003,7.355C15.919,7.355 13.381,9.893 13.381,12.977L13.381,12.984C13.381,16.068 15.919,18.606 19.003,18.606L19.01,18.606C22.094,18.606 24.632,16.068 24.632,12.984Z" style="fill:rgb(3,74,216);fill-rule:nonzero;"/>
    </g>
</svg>
