<?xml version="1.0" encoding="UTF-8" standalone="no"?>
<!DOCTYPE svg PUBLIC "-//W3C//DTD SVG 1.1//EN" "http://www.w3.org/Graphics/SVG/1.1/DTD/svg11.dtd">
<svg width="100%" height="100%" viewBox="0 0 100 60" version="1.1" xmlns="http://www.w3.org/2000/svg" xmlns:xlink="http://www.w3.org/1999/xlink" xml:space="preserve" xmlns:serif="http://www.serif.com/" style="fill-rule:evenodd;clip-rule:evenodd;stroke-linejoin:round;stroke-miterlimit:2;">
    <g transform="matrix(1,0,0,1,2.53016,-18.3542)">
        <g transform="matrix(0.186495,0,0,0.186495,47.4698,48.3542)">
            <g transform="matrix(1,0,0,1,-214.483,-82.2849)">
                <g transform="matrix(1,0,0,1,1.72141,-146.748)">
                    <path d="M35.731,175.099C30.7,175.094 26.621,179.174 26.625,184.204L26.625,262.743C26.621,267.773 30.7,271.853 35.731,271.849L39.275,271.849C41.024,278.405 46.96,282.968 53.745,282.971C60.526,282.963 66.456,278.401 68.203,271.849L83.629,271.849C86.943,271.849 89.629,269.162 89.629,265.849L89.629,181.099L83.629,175.099L35.731,175.099Z" style="fill:rgb(66,133,244);fill-rule:nonzero;"/>
                    <path d="M80.631,175.094C80.623,188.371 80.625,201.646 80.625,214.931L68.152,207.882C66.354,206.867 64.129,208.164 64.125,210.228L64.125,240.694C64.129,242.759 66.354,244.055 68.152,243.041L80.625,235.991L80.625,271.849L114.735,271.849C119.507,271.848 123.375,267.98 123.375,263.209L123.375,183.709C123.359,178.949 119.495,175.099 114.735,175.099L80.631,175.094Z" style="fill:rgb(200,209,219);fill-rule:nonzero;"/>
                    <g>
                        <path d="M160.45,252.353L160.45,195.073L181.17,195.073C185.65,195.073 189.517,196.566 192.77,199.553C196.077,202.486 197.73,206.193 197.73,210.673C197.73,213.393 197.01,215.793 195.57,217.873C194.184,219.953 192.317,221.526 189.97,222.593L189.97,222.913C192.797,223.873 195.117,225.526 196.93,227.873C198.744,230.22 199.65,232.94 199.65,236.033C199.65,240.726 197.917,244.62 194.45,247.713C191.037,250.806 186.984,252.353 182.29,252.353L160.45,252.353ZM167.81,219.633L181.17,219.633C183.944,219.633 186.157,218.726 187.81,216.913C189.517,215.046 190.37,213.02 190.37,210.833C190.37,208.646 189.544,206.646 187.89,204.833C186.29,203.02 184.157,202.113 181.49,202.113L167.81,202.113L167.81,219.633ZM167.81,245.313L182.61,245.313C185.437,245.313 187.73,244.326 189.49,242.353C191.25,240.38 192.13,238.22 192.13,235.873C192.13,233.526 191.224,231.393 189.41,229.473C187.597,227.5 185.224,226.513 182.29,226.513L167.81,226.513L167.81,245.313Z" style="fill:rgb(95,99,104);fill-rule:nonzero;"/>
                        <rect x="206.67" y="195.073" width="7.36" height="57.28" style="fill:rgb(95,99,104);fill-rule:nonzero;"/>
                        <path d="M225.892,217.873C229.678,213.873 234.505,211.873 240.372,211.873C246.238,211.873 251.065,213.873 254.852,217.873C258.638,221.82 260.532,226.78 260.532,232.753C260.532,238.726 258.638,243.713 254.852,247.713C251.065,251.66 246.238,253.633 240.372,253.633C234.505,253.633 229.678,251.66 225.892,247.713C222.105,243.713 220.212,238.726 220.212,232.753C220.212,226.78 222.105,221.82 225.892,217.873ZM231.332,243.073C233.892,245.633 236.905,246.913 240.372,246.913C243.838,246.913 246.825,245.633 249.332,243.073C251.892,240.46 253.172,237.02 253.172,232.753C253.172,228.486 251.892,225.073 249.332,222.513C246.825,219.9 243.838,218.593 240.372,218.593C236.905,218.593 233.892,219.9 231.332,222.513C228.825,225.073 227.572,228.486 227.572,232.753C227.572,237.02 228.825,240.46 231.332,243.073Z" style="fill:rgb(95,99,104);fill-rule:nonzero;"/>
                        <path d="M285.215,253.633C279.349,253.633 274.522,251.66 270.735,247.713C266.949,243.713 265.055,238.726 265.055,232.753C265.055,226.78 266.949,221.82 270.735,217.873C274.522,213.873 279.349,211.873 285.215,211.873C289.589,211.873 293.215,212.94 296.095,215.073C298.975,217.206 301.082,219.9 302.415,223.153L295.695,225.953C293.669,221.046 290.015,218.593 284.735,218.593C281.482,218.593 278.602,219.926 276.095,222.593C273.642,225.26 272.415,228.646 272.415,232.753C272.415,236.86 273.642,240.246 276.095,242.913C278.602,245.58 281.482,246.913 284.735,246.913C290.229,246.913 294.015,244.46 296.095,239.553L302.655,242.353C301.322,245.553 299.162,248.246 296.175,250.433C293.242,252.566 289.589,253.633 285.215,253.633Z" style="fill:rgb(95,99,104);fill-rule:nonzero;"/>
                        <path d="M316.374,195.073L316.374,230.353L333.334,213.153L342.774,213.153L342.774,213.473L327.494,228.753L343.494,252.033L343.494,252.353L334.614,252.353L322.294,233.873L316.374,239.793L316.374,252.353L309.014,252.353L309.014,195.073L316.374,195.073Z" style="fill:rgb(95,99,104);fill-rule:nonzero;"/>
                        <rect x="347.608" y="195.073" width="7.36" height="57.28" style="fill:rgb(95,99,104);fill-rule:nonzero;"/>
                        <path d="M374.338,269.633L366.738,269.633L375.858,249.873L359.698,213.153L367.698,213.153L379.378,241.313L379.538,241.313L390.898,213.153L398.898,213.153L374.338,269.633Z" style="fill:rgb(95,99,104);fill-rule:nonzero;"/>
                    </g>
                </g>
            </g>
        </g>
    </g>
</svg>
