<?xml version="1.0" encoding="UTF-8" standalone="no"?><!DOCTYPE svg PUBLIC "-//W3C//DTD SVG 1.1//EN" "http://www.w3.org/Graphics/SVG/1.1/DTD/svg11.dtd"><svg width="100%" height="100%" viewBox="0 0 162 100" version="1.1" xmlns="http://www.w3.org/2000/svg" xmlns:xlink="http://www.w3.org/1999/xlink" xml:space="preserve" xmlns:serif="http://www.serif.com/" style="fill-rule:evenodd;clip-rule:evenodd;stroke-linejoin:round;stroke-miterlimit:1.41421;"><path id="path3773" d="M43.954,27.077c4.909,-15.683 19.564,-27.077 36.859,-27.077c17.295,0 31.949,11.394 36.858,27.077l0.001,0.001c0.125,0.402 0.245,0.806 0.357,1.213c5.479,16.606 28.432,10.181 28.432,10.181l15.165,39.171l-57.589,22.295l-9.736,-25.149l-0.04,0.016l-5.39,-14.043c0.41,-0.157 0.813,-0.326 1.209,-0.505c1.774,-0.863 3.318,-1.818 4.659,-2.838c3.658,-2.893 6.341,-6.868 7.654,-11.348c1.881,-7.263 -0.433,-13.891 -0.499,-14.076c-3.193,-8.551 -11.474,-14.708 -21.081,-14.708c-9.607,0 -17.888,6.157 -21.081,14.707c-0.066,0.185 -2.38,6.814 -0.5,14.077c1.313,4.48 3.997,8.455 7.654,11.348c1.342,1.02 2.886,1.975 4.66,2.838c0.396,0.179 0.799,0.348 1.208,0.505l-0.017,0.046l-5.372,13.997l-0.041,-0.016l-9.735,25.149l-57.589,-22.295l15.164,-39.171c0,0 22.954,6.425 28.432,-10.181c0.113,-0.407 0.232,-0.811 0.358,-1.213l0,-0.001Z" style="fill:#fff;fill-rule:nonzero;"/></svg>