<?xml version="1.0" encoding="UTF-8" standalone="no"?>
<!DOCTYPE svg PUBLIC "-//W3C//DTD SVG 1.1//EN" "http://www.w3.org/Graphics/SVG/1.1/DTD/svg11.dtd">
<svg width="100%" height="100%" viewBox="0 0 162 100" version="1.1" xmlns="http://www.w3.org/2000/svg" xmlns:xlink="http://www.w3.org/1999/xlink" xml:space="preserve" xmlns:serif="http://www.serif.com/" style="fill-rule:evenodd;clip-rule:evenodd;stroke-linejoin:round;stroke-miterlimit:2;">
    <path id="path3773" d="M43.954,27.077C48.863,11.394 63.518,0 80.813,0C98.108,0 112.762,11.394 117.671,27.077L117.672,27.078C117.797,27.48 117.917,27.884 118.029,28.291C123.508,44.897 146.461,38.472 146.461,38.472L161.626,77.643L104.037,99.938L94.301,74.789L94.261,74.805L88.871,60.762C89.281,60.605 89.684,60.436 90.08,60.257C91.854,59.394 93.398,58.439 94.739,57.419C98.397,54.526 101.08,50.551 102.393,46.071C104.274,38.808 101.96,32.18 101.894,31.995C98.701,23.444 90.42,17.287 80.813,17.287C71.206,17.287 62.925,23.444 59.732,31.994C59.666,32.179 57.352,38.808 59.232,46.071C60.545,50.551 63.229,54.526 66.886,57.419C68.228,58.439 69.772,59.394 71.546,60.257C71.942,60.436 72.345,60.605 72.754,60.762L72.737,60.808L67.365,74.805L67.324,74.789L57.589,99.938L-0,77.643L15.164,38.472C15.164,38.472 38.118,44.897 43.596,28.291C43.709,27.884 43.828,27.48 43.954,27.078L43.954,27.077Z" style="fill:rgb(197,36,127);fill-rule:nonzero;"/>
</svg>
