<?xml version="1.0" encoding="UTF-8" standalone="no"?>
<!DOCTYPE svg PUBLIC "-//W3C//DTD SVG 1.1//EN" "http://www.w3.org/Graphics/SVG/1.1/DTD/svg11.dtd">
<svg width="100%" height="100%" viewBox="0 0 73 70" version="1.1" xmlns="http://www.w3.org/2000/svg" xmlns:xlink="http://www.w3.org/1999/xlink" xml:space="preserve" xmlns:serif="http://www.serif.com/" style="fill-rule:evenodd;clip-rule:evenodd;stroke-linejoin:round;stroke-miterlimit:2;">
    <g>
        <path d="M4.891,56.545L3.732,56.061C2.939,55.729 2.537,55.294 2.537,54.77C2.537,54.382 2.682,54.069 2.98,53.812C3.279,53.55 3.663,53.417 4.119,53.417C4.492,53.417 4.798,53.493 5.034,53.647C5.256,53.779 5.498,54.075 5.753,54.527L5.809,54.625L7.421,53.651L7.367,53.555C6.596,52.194 5.509,51.505 4.134,51.505C3.117,51.505 2.255,51.819 1.572,52.437C0.883,53.055 0.533,53.834 0.533,54.754C0.533,56.117 1.358,57.163 2.986,57.865L4.106,58.34C4.39,58.465 4.637,58.597 4.841,58.733C5.042,58.868 5.207,59.013 5.332,59.165C5.455,59.313 5.546,59.479 5.605,59.657C5.663,59.836 5.693,60.037 5.693,60.254C5.693,60.794 5.521,61.245 5.184,61.594C4.845,61.944 4.414,62.12 3.901,62.12C3.241,62.12 2.753,61.885 2.409,61.397C2.222,61.148 2.087,60.682 2.01,60.011L1.995,59.887L0.001,60.335L0.016,60.439C0.179,61.564 0.598,62.451 1.262,63.076C1.937,63.701 2.802,64.018 3.833,64.018C4.921,64.018 5.846,63.646 6.581,62.912C7.312,62.182 7.682,61.246 7.682,60.132C7.682,59.296 7.454,58.579 7.003,58.001C6.558,57.43 5.848,56.94 4.891,56.545Z" style="fill:rgb(249,249,249);fill-rule:nonzero;"/>
        <path d="M15.242,51.505C13.306,51.505 11.706,52.249 10.486,53.716L10.486,53.716C9.496,54.912 8.994,56.293 8.994,57.823C8.994,59.529 9.594,61.006 10.779,62.214C11.967,63.411 13.424,64.018 15.106,64.018C16.223,64.018 17.304,63.722 18.32,63.137L18.376,63.105L18.376,60.64L18.194,60.797C17.914,61.037 17.643,61.247 17.388,61.418C17.137,61.587 16.891,61.723 16.654,61.824C16.239,62.021 15.726,62.121 15.129,62.121C13.971,62.121 12.981,61.701 12.184,60.873C11.387,60.046 10.982,59.014 10.982,57.807C10.982,56.585 11.387,55.538 12.185,54.695C12.976,53.847 13.964,53.417 15.121,53.417C16.173,53.417 17.206,53.845 18.195,54.688L18.376,54.842L18.376,52.42L18.321,52.387C17.336,51.802 16.299,51.505 15.242,51.505Z" style="fill:rgb(249,249,249);fill-rule:nonzero;"/>
        <rect x="20.367" y="51.506" width="1.973" height="12.513" style="fill:rgb(249,249,249);fill-rule:nonzero;"/>
        <path d="M29.207,56.545L28.049,56.061C27.256,55.729 26.854,55.294 26.854,54.77C26.854,54.382 26.998,54.069 27.296,53.812C27.596,53.55 27.979,53.417 28.436,53.417C28.808,53.417 29.115,53.493 29.35,53.647C29.573,53.78 29.815,54.076 30.07,54.527L30.126,54.625L31.737,53.651L31.683,53.555C30.913,52.194 29.826,51.505 28.451,51.505C27.434,51.505 26.572,51.819 25.888,52.437C25.199,53.055 24.85,53.835 24.85,54.754C24.85,56.117 25.675,57.163 27.303,57.865L28.422,58.34C28.707,58.466 28.955,58.598 29.158,58.733C29.359,58.868 29.524,59.013 29.649,59.165C29.772,59.313 29.863,59.479 29.922,59.657C29.98,59.836 30.01,60.037 30.01,60.254C30.01,60.794 29.838,61.245 29.5,61.594C29.162,61.944 28.731,62.12 28.218,62.12C27.557,62.12 27.07,61.885 26.725,61.397C26.538,61.148 26.404,60.682 26.327,60.011L26.312,59.887L24.317,60.335L24.333,60.439C24.496,61.564 24.915,62.451 25.578,63.076C26.253,63.701 27.119,64.018 28.15,64.018C29.238,64.018 30.163,63.646 30.897,62.912C31.628,62.182 31.999,61.246 31.999,60.132C31.999,59.296 31.771,58.579 31.32,58.001C30.875,57.429 30.163,56.939 29.207,56.545Z" style="fill:rgb(249,249,249);fill-rule:nonzero;"/>
        <path d="M38.189,56.545L37.03,56.061C36.238,55.729 35.835,55.294 35.835,54.77C35.835,54.382 35.98,54.069 36.278,53.812C36.577,53.55 36.96,53.417 37.417,53.417C37.79,53.417 38.096,53.493 38.332,53.647C38.554,53.78 38.796,54.076 39.052,54.527L39.108,54.625L40.719,53.651L40.665,53.555C39.895,52.194 38.807,51.505 37.432,51.505C36.415,51.505 35.553,51.819 34.87,52.437C34.18,53.055 33.831,53.835 33.831,54.754C33.831,56.117 34.656,57.163 36.285,57.865L37.403,58.34C37.688,58.465 37.936,58.598 38.139,58.733C38.34,58.868 38.505,59.013 38.63,59.165C38.753,59.314 38.845,59.479 38.903,59.657C38.961,59.836 38.991,60.037 38.991,60.254C38.991,60.794 38.82,61.245 38.482,61.594C38.144,61.944 37.712,62.12 37.199,62.12C36.538,62.12 36.051,61.885 35.707,61.397C35.519,61.148 35.385,60.682 35.308,60.011L35.293,59.887L33.299,60.335L33.314,60.439C33.478,61.564 33.896,62.451 34.56,63.076C35.234,63.701 36.1,64.018 37.131,64.018C38.219,64.018 39.144,63.646 39.879,62.912C40.609,62.182 40.98,61.246 40.98,60.132C40.98,59.296 40.752,58.579 40.302,58.001C39.856,57.429 39.145,56.939 38.189,56.545Z" style="fill:rgb(249,249,249);fill-rule:nonzero;"/>
        <path d="M52.666,57.769C52.666,58.98 52.254,60.022 51.442,60.865C50.63,61.698 49.619,62.121 48.437,62.121C47.348,62.121 46.374,61.706 45.542,60.886C44.706,60.067 44.282,59.009 44.282,57.738C44.282,56.528 44.691,55.496 45.499,54.673C46.306,53.84 47.31,53.417 48.481,53.417C49.658,53.417 50.659,53.839 51.457,54.673C52.259,55.501 52.666,56.543 52.666,57.769ZM48.504,51.512C46.807,51.512 45.334,52.127 44.124,53.339C42.91,54.552 42.294,56.024 42.294,57.715C42.294,59.638 42.969,61.215 44.302,62.402C45.511,63.474 46.894,64.018 48.414,64.018C50.13,64.018 51.617,63.406 52.831,62.198C54.041,60.996 54.655,59.511 54.655,57.784C54.655,56.068 54.044,54.578 52.84,53.355C51.64,52.132 50.181,51.512 48.504,51.512Z" style="fill:rgb(249,249,249);fill-rule:nonzero;"/>
        <path d="M61.435,55.345C61.435,56.575 60.657,57.173 59.056,57.173L58.61,57.173L58.61,53.51L59.124,53.51C60.679,53.51 61.435,54.198 61.435,55.345ZM62.633,57.555C63.118,56.935 63.364,56.184 63.364,55.323C63.364,54.219 62.971,53.188 62.197,52.514C61.497,51.91 60.355,51.605 58.801,51.605L56.637,51.605L56.637,64.018L58.61,64.018L58.61,58.956L58.757,58.956L62.239,64.018L64.657,64.018L60.868,58.714C61.588,58.523 62.181,58.133 62.633,57.555Z" style="fill:rgb(249,249,249);fill-rule:nonzero;"/>
        <path d="M72.321,58.003C71.876,57.431 71.165,56.94 70.208,56.546L69.049,56.062C68.256,55.73 67.854,55.296 67.854,54.771C67.854,54.383 67.999,54.07 68.297,53.813C68.597,53.551 68.98,53.418 69.437,53.418C69.809,53.418 70.115,53.495 70.351,53.648C70.574,53.781 70.816,54.077 71.07,54.528L71.127,54.627L72.738,53.652L72.684,53.556C71.914,52.196 70.827,51.506 69.451,51.506C68.434,51.506 67.572,51.82 66.889,52.439C66.2,53.056 65.851,53.836 65.851,54.755C65.851,56.118 66.676,57.164 68.303,57.866L69.422,58.341C69.708,58.467 69.955,58.599 70.158,58.734C70.36,58.869 70.525,59.015 70.649,59.166C70.772,59.315 70.865,59.48 70.922,59.658C70.981,59.838 71.011,60.039 71.011,60.255C71.011,60.795 70.839,61.246 70.501,61.595C70.163,61.945 69.731,62.122 69.218,62.122C68.558,62.122 68.07,61.886 67.726,61.398C67.539,61.15 67.405,60.684 67.327,60.012L67.313,59.889L65.318,60.336L65.333,60.44C65.497,61.565 65.915,62.452 66.579,63.077C67.254,63.702 68.12,64.019 69.15,64.019C70.238,64.019 71.163,63.647 71.898,62.913C72.629,62.183 72.999,61.248 72.999,60.133C72.999,59.297 72.771,58.58 72.321,58.003Z" style="fill:rgb(249,249,249);fill-rule:nonzero;"/>
        <path d="M70.278,38.866L40.688,25.078L38.857,25.931L34.053,28.172L29.521,30.284L66.42,47.477C68.751,48.563 71.505,47.516 72.571,45.138C73.636,42.761 72.61,39.952 70.278,38.866" style="fill:rgb(0,204,102);fill-rule:nonzero;"/>
        <path d="M26.405,18.422L6.572,9.181C4.24,8.094 1.487,9.141 0.421,11.519C-0.644,13.897 0.382,16.705 2.714,17.792L14.103,23.099L15.935,23.952L27.104,18.748L26.405,18.422Z" style="fill:rgb(0,204,102);fill-rule:nonzero;"/>
        <path d="M72.57,2.768C71.504,0.39 68.751,-0.657 66.419,0.429L27.104,18.748L38.271,23.952L40.486,22.92C40.493,22.917 40.499,22.916 40.506,22.913L58.889,14.347L70.278,9.04C72.61,7.954 73.636,5.145 72.571,2.768" style="fill:rgb(244,244,244);fill-rule:nonzero;"/>
        <path d="M38.27,23.952L38.273,23.953L40.505,22.913C40.499,22.916 40.492,22.916 40.486,22.92L38.27,23.952Z" style="fill:rgb(23,169,230);fill-rule:nonzero;"/>
        <path d="M27.105,29.158L26.046,28.664L15.936,23.953L2.715,30.114C0.383,31.201 -0.643,34.009 0.422,36.387C1.488,38.765 4.241,39.812 6.573,38.725L27.105,29.158L27.105,29.158Z" style="fill:rgb(244,244,244);fill-rule:nonzero;"/>
        <path d="M27.103,25.891C26.06,25.891 25.215,25.029 25.215,23.966C25.215,22.903 26.06,22.042 27.103,22.042C28.145,22.042 28.99,22.903 28.99,23.966C28.99,25.029 28.145,25.891 27.103,25.891ZM36.194,24.918L38.27,23.95L27.103,18.747L15.934,23.952L26.044,28.662L27.103,29.156L31.39,27.158L36.194,24.918Z" style="fill:rgb(0,128,54);fill-rule:nonzero;"/>
        <path d="M38.27,23.952L36.194,24.919L31.39,27.16L27.103,29.157L27.104,29.157L38.273,23.953L38.27,23.952Z" style="fill:rgb(0,128,54);fill-rule:nonzero;"/>
        <circle cx="27" cy="24" r="2" style="fill:rgb(244,244,244);"/>
    </g>
</svg>
