<?xml version="1.0" encoding="UTF-8" standalone="no"?>
<!DOCTYPE svg PUBLIC "-//W3C//DTD SVG 1.1//EN" "http://www.w3.org/Graphics/SVG/1.1/DTD/svg11.dtd">
<svg width="100%" height="100%" viewBox="0 0 72 100" version="1.1" xmlns="http://www.w3.org/2000/svg" xmlns:xlink="http://www.w3.org/1999/xlink" xml:space="preserve" xmlns:serif="http://www.serif.com/" style="fill-rule:evenodd;clip-rule:evenodd;stroke-miterlimit:10;">
    <g transform="matrix(0.0457368,0,0,0.0457368,0,0)">
        <g transform="matrix(1.00083,0,0,1.00033,-0.340007,-5.58867)">
            <rect x="0.34" y="5.587" width="1568.09" height="2185.28" style="fill:rgb(34,34,34);"/>
        </g>
        <path d="M562.2,1410.1C553.2,1410.1 548.7,1398.1 548.7,1374L548.7,778.9C548.7,767.4 546.4,762 541.7,762.7C513.3,769.9 499,773.5 498.6,773.5C490.7,774.2 486.8,766.3 486.8,749.8L486.8,698.1C486.8,683.8 491.1,675.7 499.7,673.9L641.9,637.3C643,637 644.6,636.8 646.7,636.8C654.6,636.8 658.5,645.2 658.5,662.1L658.5,1374.1C658.5,1398.2 653.8,1410.2 644.5,1410.2L562.2,1410.1ZM930.5,1411.2C916.1,1411.2 903.7,1410.2 893.1,1408.2C882.5,1406.2 871.5,1401.7 860,1394.7C848.5,1387.7 839.1,1378.1 831.7,1365.9C824.3,1353.7 818.3,1336.6 813.7,1314.7C809.1,1292.8 806.7,1266.8 806.7,1236.6L806.7,960.4C806.7,953.2 804.7,949.6 800.8,949.6L767.4,949.6C758.4,949.6 753.9,941 753.9,923.8L753.9,894.7C753.9,877.1 758.4,868.3 767.4,868.3L800.8,868.3C804.7,868.3 806.7,863.5 806.7,853.8L816.4,644.3C817.5,625.3 822.1,615.8 830.4,615.8L884.3,615.8C893.3,615.8 897.8,625.3 897.8,644.3L897.8,853.8C897.8,863.5 899.9,868.3 904.3,868.3L973,868.3C982,868.3 986.5,877.1 986.5,894.7L986.5,923.8C986.5,941 982,949.6 973,949.6L904.1,949.6C901.6,949.6 899.9,950.2 899,951.5C898.1,952.7 897.7,955.7 897.7,960.4L897.7,1238.3C897.7,1259.1 899,1276.5 901.7,1290.3C904.4,1304.1 908.3,1314.3 913.5,1320.7C918.7,1327.1 923.9,1331.5 929.1,1333.6C934.3,1335.8 940.7,1336.8 948.2,1336.8L986.4,1336.8C996.1,1336.8 1000.9,1343.5 1000.9,1356.7L1000.9,1389C1000.9,1403.7 995.7,1411.1 985.3,1411.1L930.5,1411.2ZM1137.2,1475.8C1145.4,1475.8 1152.6,1469.1 1158.7,1455.6C1164.8,1442.1 1167.9,1423 1167.9,1398.2C1167.9,1392.4 1164.3,1372.5 1157.1,1338.4L1051.5,899.5C1050.8,894.5 1050.4,890.5 1050.4,887.6C1050.4,874.7 1053.1,868.2 1058.5,868.2L1123.7,868.2C1128.7,868.2 1132.8,869.9 1136.1,873.3C1139.4,876.7 1141.9,883.6 1143.6,894L1213.6,1264.5C1215,1268.8 1215.9,1271 1216.3,1271C1217.7,1271 1218.5,1269 1218.5,1265.1L1273.4,895.6C1274.8,884.8 1277.1,877.6 1280.1,873.8C1283.1,870 1287,868.1 1291.7,868.1L1336.9,868.1C1343,868.1 1346.1,875.1 1346.1,889.1C1346.1,892.3 1345.7,896.5 1345,901.5L1249.1,1400.8C1241.6,1442.1 1233.3,1473.7 1224.3,1495.6C1215.3,1517.5 1205.3,1532.4 1194.1,1540.3C1183,1548.2 1168.3,1552.3 1149.9,1552.7L1144.5,1552.7C1115.4,1552.7 1095.7,1545 1085.3,1529.5C1082.4,1526.3 1081,1518 1081,1504.7C1081,1478.1 1085.3,1464.8 1093.9,1464.8C1094.6,1464.8 1101.1,1466.6 1113.3,1470.2C1125.7,1474 1133.6,1475.8 1137.2,1475.8Z" style="fill:white;fill-rule:nonzero;stroke:white;stroke-width:28px;"/>
        <g>
            <path d="M291.2,1411.1C282.2,1411.1 277.7,1399.1 277.7,1375L277.7,779.9C277.7,768.4 275.4,763 270.7,763.7C242.3,770.9 228,774.5 227.6,774.5C219.7,775.2 215.8,767.3 215.8,750.8L215.8,699.1C215.8,684.8 220.1,676.7 228.7,674.9L371,638.2C372.1,637.9 373.7,637.7 375.8,637.7C383.7,637.7 387.6,646.1 387.6,663L387.6,1375C387.6,1399.1 382.9,1411.1 373.6,1411.1L291.2,1411.1Z" style="fill:white;fill-rule:nonzero;stroke:white;stroke-width:28px;"/>
        </g>
    </g>
</svg>
