<?xml version="1.0" encoding="UTF-8" standalone="no"?>
<!DOCTYPE svg PUBLIC "-//W3C//DTD SVG 1.1//EN" "http://www.w3.org/Graphics/SVG/1.1/DTD/svg11.dtd">
<svg width="100%" height="100%" viewBox="0 0 100 60" version="1.1" xmlns="http://www.w3.org/2000/svg" xmlns:xlink="http://www.w3.org/1999/xlink" xml:space="preserve" xmlns:serif="http://www.serif.com/" style="fill-rule:evenodd;clip-rule:evenodd;stroke-linejoin:round;stroke-miterlimit:2;">
    <g transform="matrix(1,0,0,1,10,21.3537)">
        <g transform="matrix(0.115322,0,0,0.115322,-17.159,-13.2621)">
            <path d="M428.8,171.5L451.7,171.5C447.9,147.3 426.9,130.4 399.6,130.4C372.3,130.4 343.1,154.1 343.1,193.9C343.1,233.7 366.2,257.2 400.3,257.2C434.4,257.2 452.7,237.6 452.7,205.7L452.7,190.9L402.6,190.9L402.6,208.4L431,208.4C430.6,226 418.9,237.1 400.3,237.1C381.7,237.1 365.5,221.6 365.5,193.7C365.5,165.8 379.9,150.5 399.8,150.5C419.7,150.5 424.8,158.5 428.8,171.5Z" style="fill:rgb(23,19,33);fill-rule:nonzero;"/>
        </g>
        <g transform="matrix(0.115322,0,0,0.115322,-17.159,-13.2621)">
            <path d="M467.8,255.5L489.6,255.5L489.6,163L467.8,163L467.8,255.5ZM478.7,148.3C485.6,148.3 491.3,143 491.3,136.5C491.3,130 485.6,124.6 478.7,124.6C471.8,124.6 466,129.9 466,136.5C466,143.1 471.7,148.3 478.7,148.3Z" style="fill:rgb(23,19,33);fill-rule:nonzero;"/>
        </g>
        <g transform="matrix(0.115322,0,0,0.115322,-17.159,-13.2621)">
            <path d="M554.9,163L536.6,163L536.6,140.8L514.8,140.8L514.8,163L501.7,163L501.7,179.9L514.8,179.9L514.8,231.4C514.8,248.8 527.3,257.4 543.7,256.9C549.9,256.7 554.2,255.5 556.5,254.7L552.8,237.6C551.6,237.9 549.1,238.4 546.4,238.4C540.9,238.4 536.5,236.5 536.5,227.7L536.5,179.9L554.8,179.9L554.8,163L554.9,163Z" style="fill:rgb(23,19,33);fill-rule:nonzero;"/>
        </g>
        <g transform="matrix(0.115322,0,0,0.115322,-17.159,-13.2621)">
            <path d="M571.8,255.5L648.5,255.5L648.5,236.8L594.2,236.8L594.2,132.1L571.8,132.1L571.8,255.5Z" style="fill:rgb(23,19,33);fill-rule:nonzero;"/>
        </g>
        <g transform="matrix(0.115322,0,0,0.115322,-17.159,-13.2621)">
            <path d="M690.3,257.4C704.8,257.4 713.5,250.6 717.5,242.8L718.2,242.8L718.2,255.5L739.2,255.5L739.2,193.6C739.2,169.1 719.3,161.8 701.6,161.8C683.9,161.8 667.2,170.5 662.4,187.3L682.8,190.2C685,183.9 691.1,178.5 701.8,178.5C712.5,178.5 717.5,183.7 717.5,192.8L717.5,193.2C717.5,199.5 710.9,199.8 694.6,201.5C676.6,203.4 659.5,208.8 659.5,229.6C659.5,250.4 672.8,257.4 690.5,257.4L690.3,257.4ZM697.4,241.3C688.3,241.3 681.8,237.1 681.8,229.1C681.8,221.1 689.1,217.2 698.9,215.8C704.6,215 716.1,213.6 718.9,211.3L718.9,222.2C718.9,232.5 710.6,241.2 697.4,241.2L697.4,241.3Z" style="fill:rgb(23,19,33);fill-rule:nonzero;"/>
        </g>
        <g transform="matrix(0.115322,0,0,0.115322,-17.159,-13.2621)">
            <path d="M755.2,255.5L776.6,255.5L776.6,240.9L777.9,240.9C781.3,247.6 788.5,257.1 804.4,257.1C820.3,257.1 842.5,239.8 842.5,209.3C842.5,178.8 825.7,161.7 804.3,161.7C782.9,161.7 781.2,171.5 777.8,178.2L776.9,178.2L776.9,132L755.1,132L755.1,255.4L755.2,255.4L755.2,255.5ZM776.6,209.2C776.6,191.2 784.3,179.6 798.4,179.6C812.5,179.6 820.4,192 820.4,209.2C820.4,226.4 812.8,239.2 798.4,239.2C784,239.2 776.6,227.1 776.6,209.2Z" style="fill:rgb(23,19,33);fill-rule:nonzero;"/>
        </g>
        <g transform="matrix(0.115322,0,0,0.115322,-17.159,-13.2621)">
            <path d="M302,174.4L301.8,173.8L280.6,118.5C280.2,117.4 279.4,116.5 278.4,115.9C277.4,115.3 276.3,115 275.1,115C273.9,115 272.8,115.5 271.9,116.2C271,116.9 270.3,117.9 270,119.1L255.7,162.9L197.8,162.9L183.5,119.1C183.2,118 182.5,117 181.6,116.2C180.7,115.5 179.6,115 178.4,115C177.2,115 176.1,115.2 175.1,115.9C174.1,116.5 173.3,117.4 172.9,118.5L151.7,173.8L151.5,174.4C145.2,190.8 150.6,209.3 164.6,219.9L164.8,219.9C164.8,220 197.1,244.2 197.1,244.2L213.1,256.3L222.8,263.6C225.1,265.4 228.4,265.4 230.7,263.6L240.4,256.3L256.4,244.2L288.9,219.9C302.9,209.3 308.2,190.8 301.9,174.4L302,174.4Z" style="fill:rgb(226,67,41);fill-rule:nonzero;"/>
        </g>
        <g transform="matrix(0.115322,0,0,0.115322,-17.159,-13.2621)">
            <path d="M302,174.4L301.8,173.8C291.3,176 281.6,180.4 273.3,186.6C273.2,186.6 248.1,205.7 226.7,221.8C242.5,233.8 256.3,244.2 256.3,244.2L288.8,219.9C302.8,209.3 308.1,190.8 301.8,174.4L302,174.4Z" style="fill:rgb(252,109,38);fill-rule:nonzero;"/>
        </g>
        <g transform="matrix(0.115322,0,0,0.115322,-17.159,-13.2621)">
            <path d="M197,244.2L213,256.3L222.7,263.6C225,265.4 228.3,265.4 230.6,263.6L240.3,256.3L256.3,244.2C256.3,244.2 242.5,233.8 226.7,221.8C210.8,233.8 197,244.2 197,244.2Z" style="fill:rgb(252,163,38);fill-rule:nonzero;"/>
        </g>
        <g transform="matrix(0.115322,0,0,0.115322,-17.159,-13.2621)">
            <path d="M180.1,186.6C171.8,180.4 162.1,175.9 151.6,173.8L151.4,174.4C145.1,190.8 150.5,209.3 164.5,219.9L164.7,219.9C164.7,220 197,244.2 197,244.2C197,244.2 210.8,233.8 226.7,221.8C205.4,205.7 180.3,186.7 180.1,186.6Z" style="fill:rgb(252,109,38);fill-rule:nonzero;"/>
        </g>
    </g>
</svg>
