<?xml version="1.0" encoding="UTF-8" standalone="no"?>
<!DOCTYPE svg PUBLIC "-//W3C//DTD SVG 1.1//EN" "http://www.w3.org/Graphics/SVG/1.1/DTD/svg11.dtd">
<svg width="100%" height="100%" viewBox="0 0 200 50" version="1.1" xmlns="http://www.w3.org/2000/svg" xmlns:xlink="http://www.w3.org/1999/xlink" xml:space="preserve" xmlns:serif="http://www.serif.com/" style="fill-rule:evenodd;clip-rule:evenodd;stroke-linejoin:round;stroke-miterlimit:2;">
    <g transform="matrix(0.28063,0,0,0.28063,-1.34292e-07,7.93781e-08)">
        <g id="path2" transform="matrix(0.598566,0,0,0.598566,-78.2248,-25.19)">
            <path d="M261.964,122.954C276.625,76.113 320.393,42.084 372.047,42.084C423.702,42.084 467.469,76.113 482.131,122.954L482.132,122.957C482.507,124.157 482.863,125.365 483.2,126.58C499.562,176.175 568.117,156.986 568.117,156.986L613.407,273.978L441.41,340.563L412.333,265.454L412.21,265.499L396.115,223.559C397.338,223.09 398.541,222.587 399.724,222.052C405.024,219.472 409.635,216.621 413.641,213.575C424.565,204.935 432.58,193.064 436.501,179.683C442.118,157.99 435.206,138.194 435.01,137.641C425.473,112.102 400.739,93.714 372.047,93.714C343.355,93.714 318.621,112.102 309.085,137.641C308.889,138.192 301.976,157.99 307.594,179.683C311.515,193.064 319.53,204.935 330.454,213.575C334.46,216.621 339.071,219.472 344.371,222.052C345.554,222.587 346.757,223.09 347.98,223.559L347.927,223.696L331.884,265.499L331.762,265.454L302.685,340.563L130.687,273.978L175.978,156.986C175.978,156.986 244.533,176.175 260.894,126.58C261.231,125.365 261.588,124.157 261.963,122.957L261.964,122.954Z" style="fill:rgb(197,45,127);fill-rule:nonzero;"/>
        </g>
        <g transform="matrix(0.598566,0,0,0.598566,313.978,73.1781)">
            <g id="text5">
                <g>
                    <path d="M65.234,-31.119C65.234,-25.942 64.541,-21.356 63.154,-17.362C61.767,-13.369 59.752,-9.994 57.108,-7.239C54.463,-4.484 51.283,-2.404 47.566,-0.998C43.85,0.407 39.662,1.109 35.002,1.109C30.639,1.109 26.635,0.407 22.993,-0.998C19.35,-2.404 16.188,-4.484 13.507,-7.239C10.826,-9.994 8.755,-13.369 7.294,-17.362C5.834,-21.356 5.103,-25.942 5.103,-31.119C5.103,-37.998 6.324,-43.822 8.764,-48.593C11.205,-53.363 14.681,-56.987 19.193,-59.465C23.705,-61.943 29.085,-63.182 35.335,-63.182C41.141,-63.182 46.291,-61.943 50.784,-59.465C55.277,-56.987 58.809,-53.363 61.379,-48.593C63.949,-43.822 65.234,-37.998 65.234,-31.119ZM22.355,-31.119C22.355,-27.051 22.799,-23.631 23.686,-20.857C24.574,-18.084 25.96,-15.994 27.847,-14.589C29.733,-13.184 32.192,-12.481 35.224,-12.481C38.22,-12.481 40.651,-13.184 42.519,-14.589C44.386,-15.994 45.754,-18.084 46.623,-20.857C47.493,-23.631 47.927,-27.051 47.927,-31.119C47.927,-35.224 47.493,-38.636 46.623,-41.354C45.754,-44.072 44.377,-46.115 42.491,-47.483C40.605,-48.852 38.146,-49.536 35.113,-49.536C30.639,-49.536 27.393,-48.001 25.378,-44.932C23.363,-41.862 22.355,-37.258 22.355,-31.119Z" style="fill:white;fill-rule:nonzero;"/>
                    <path d="M113.716,-63.182C120.705,-63.182 126.354,-60.464 130.662,-55.027C134.97,-49.591 137.125,-41.622 137.125,-31.119C137.125,-24.093 136.108,-18.185 134.074,-13.396C132.04,-8.607 129.229,-4.992 125.642,-2.552C122.055,-0.111 117.932,1.109 113.272,1.109C110.277,1.109 107.706,0.73 105.562,-0.028C103.417,-0.786 101.586,-1.766 100.07,-2.968C98.554,-4.17 97.241,-5.455 96.131,-6.823L95.244,-6.823C95.54,-5.344 95.762,-3.828 95.91,-2.274C96.057,-0.721 96.131,0.795 96.131,2.274L96.131,27.292L79.213,27.292L79.213,-62.017L92.97,-62.017L95.355,-53.973L96.131,-53.973C97.241,-55.638 98.591,-57.172 100.181,-58.578C101.771,-59.983 103.685,-61.101 105.922,-61.934C108.159,-62.766 110.757,-63.182 113.716,-63.182ZM108.28,-49.647C105.321,-49.647 102.973,-49.036 101.235,-47.816C99.497,-46.596 98.23,-44.765 97.435,-42.324C96.64,-39.884 96.205,-36.796 96.131,-33.061L96.131,-31.23C96.131,-27.236 96.511,-23.853 97.269,-21.079C98.027,-18.305 99.303,-16.198 101.096,-14.755C102.89,-13.313 105.358,-12.592 108.502,-12.592C111.09,-12.592 113.217,-13.313 114.881,-14.755C116.545,-16.198 117.793,-18.315 118.625,-21.107C119.457,-23.899 119.873,-27.31 119.873,-31.341C119.873,-37.406 118.93,-41.973 117.044,-45.043C115.158,-48.112 112.237,-49.647 108.28,-49.647Z" style="fill:white;fill-rule:nonzero;"/>
                    <path d="M176.676,-63.182C182.408,-63.182 187.344,-62.081 191.486,-59.881C195.628,-57.681 198.827,-54.491 201.083,-50.312C203.339,-46.133 204.467,-41.03 204.467,-35.002L204.467,-26.793L164.472,-26.793C164.657,-22.022 166.09,-18.278 168.771,-15.56C171.452,-12.842 175.178,-11.483 179.948,-11.483C183.905,-11.483 187.529,-11.889 190.821,-12.703C194.112,-13.516 197.496,-14.737 200.972,-16.364L200.972,-3.273C197.902,-1.757 194.694,-0.647 191.348,0.055C188.001,0.758 183.942,1.109 179.172,1.109C172.959,1.109 167.458,-0.037 162.669,-2.33C157.88,-4.623 154.127,-8.117 151.408,-12.814C148.69,-17.51 147.331,-23.427 147.331,-30.565C147.331,-37.813 148.561,-43.85 151.02,-48.676C153.479,-53.502 156.909,-57.126 161.31,-59.548C165.711,-61.97 170.833,-63.182 176.676,-63.182ZM176.786,-51.144C173.495,-51.144 170.768,-50.09 168.604,-47.983C166.441,-45.875 165.193,-42.565 164.86,-38.053L188.602,-38.053C188.565,-40.568 188.112,-42.805 187.243,-44.765C186.374,-46.725 185.079,-48.278 183.36,-49.425C181.64,-50.571 179.449,-51.144 176.786,-51.144Z" style="fill:white;fill-rule:nonzero;"/>
                    <path d="M253.448,-63.182C260.067,-63.182 265.392,-61.379 269.423,-57.773C273.454,-54.168 275.47,-48.389 275.47,-40.438L275.47,0L258.551,0L258.551,-36.223C258.551,-40.66 257.747,-44.007 256.138,-46.263C254.529,-48.519 252.005,-49.647 248.566,-49.647C243.389,-49.647 239.857,-47.89 237.971,-44.377C236.085,-40.864 235.142,-35.797 235.142,-29.178L235.142,0L218.223,0L218.223,-62.017L231.148,-62.017L233.422,-54.084L234.365,-54.084C235.697,-56.229 237.352,-57.967 239.33,-59.299C241.309,-60.63 243.509,-61.61 245.931,-62.239C248.353,-62.867 250.859,-63.182 253.448,-63.182Z" style="fill:white;fill-rule:nonzero;"/>
                    <path d="M324.007,-51.477L309.085,-51.477L309.085,0L296.049,0L296.049,-51.477L286.009,-51.477L286.009,-57.745L296.049,-61.573L296.049,-65.844C296.049,-71.059 296.872,-75.2 298.518,-78.27C300.163,-81.339 302.53,-83.549 305.618,-84.899C308.706,-86.248 312.395,-86.923 316.685,-86.923C319.495,-86.923 322.065,-86.692 324.395,-86.23C326.725,-85.768 328.685,-85.241 330.275,-84.649L326.891,-74.775C325.634,-75.182 324.229,-75.561 322.675,-75.912C321.122,-76.264 319.458,-76.439 317.683,-76.439C314.725,-76.439 312.552,-75.515 311.165,-73.666C309.778,-71.817 309.085,-69.117 309.085,-65.567L309.085,-61.407L324.007,-61.407L324.007,-51.477ZM347.527,0L334.435,0L334.435,-86.313L347.527,-86.313L347.527,0Z" style="fill:white;fill-rule:nonzero;"/>
                    <path d="M390.572,-62.571C396.045,-62.571 400.742,-61.444 404.662,-59.188C408.582,-56.932 411.596,-53.733 413.704,-49.591C415.812,-45.449 416.865,-40.494 416.865,-34.725L416.865,-27.736L375.872,-27.736C376.02,-21.782 377.62,-17.196 380.671,-13.979C383.721,-10.761 388.002,-9.153 393.512,-9.153C397.432,-9.153 400.954,-9.532 404.079,-10.29C407.204,-11.048 410.431,-12.167 413.759,-13.646L413.759,-3.051C410.69,-1.609 407.565,-0.555 404.384,0.111C401.204,0.777 397.395,1.109 392.957,1.109C386.93,1.109 381.632,-0.065 377.065,-2.413C372.498,-4.761 368.929,-8.265 366.359,-12.925C363.789,-17.584 362.504,-23.372 362.504,-30.287C362.504,-37.166 363.669,-43.009 365.998,-47.816C368.328,-52.624 371.601,-56.285 375.817,-58.799C380.033,-61.314 384.951,-62.571 390.572,-62.571ZM390.572,-52.753C386.467,-52.753 383.148,-51.422 380.615,-48.759C378.082,-46.096 376.593,-42.195 376.15,-37.055L404.107,-37.055C404.07,-40.124 403.562,-42.842 402.582,-45.209C401.602,-47.576 400.122,-49.425 398.144,-50.756C396.165,-52.087 393.642,-52.753 390.572,-52.753Z" style="fill:white;fill-rule:nonzero;"/>
                    <path d="M445.156,-31.397L424.631,-61.407L439.498,-61.407L453.532,-39.828L467.622,-61.407L482.432,-61.407L461.797,-31.397L483.486,0L468.565,0L453.532,-23.021L438.444,0L423.633,0L445.156,-31.397Z" style="fill:white;fill-rule:nonzero;"/>
                    <path d="M547.666,-61.407L547.666,0L537.404,0L535.629,-8.265L534.908,-8.265C533.614,-6.157 531.968,-4.41 529.971,-3.023C527.974,-1.636 525.755,-0.601 523.315,0.083C520.874,0.767 518.304,1.109 515.604,1.109C510.981,1.109 507.034,0.324 503.761,-1.248C500.488,-2.82 497.983,-5.251 496.245,-8.543C494.507,-11.834 493.637,-16.087 493.637,-21.301L493.637,-61.407L506.729,-61.407L506.729,-23.742C506.729,-18.971 507.699,-15.402 509.641,-13.036C511.582,-10.669 514.606,-9.486 518.71,-9.486C522.667,-9.486 525.811,-10.299 528.141,-11.926C530.47,-13.553 532.125,-15.957 533.105,-19.138C534.085,-22.318 534.575,-26.219 534.575,-30.842L534.575,-61.407L547.666,-61.407Z" style="fill:white;fill-rule:nonzero;"/>
                    <path d="M597.424,-62.571C598.459,-62.571 599.587,-62.516 600.808,-62.405C602.028,-62.294 603.082,-62.146 603.97,-61.961L602.749,-49.758C601.973,-49.979 601.02,-50.146 599.892,-50.257C598.764,-50.368 597.757,-50.423 596.869,-50.423C594.539,-50.423 592.321,-50.044 590.213,-49.286C588.105,-48.528 586.237,-47.382 584.61,-45.847C582.983,-44.312 581.707,-42.398 580.783,-40.106C579.858,-37.813 579.396,-35.15 579.396,-32.118L579.396,0L566.305,0L566.305,-61.407L576.511,-61.407L578.286,-50.59L578.897,-50.59C580.117,-52.772 581.633,-54.768 583.445,-56.581C585.257,-58.393 587.337,-59.844 589.686,-60.935C592.034,-62.026 594.613,-62.571 597.424,-62.571Z" style="fill:white;fill-rule:nonzero;"/>
                    <path d="M639.804,-62.571C645.277,-62.571 649.974,-61.444 653.894,-59.188C657.814,-56.932 660.827,-53.733 662.935,-49.591C665.043,-45.449 666.097,-40.494 666.097,-34.725L666.097,-27.736L625.104,-27.736C625.252,-21.782 626.851,-17.196 629.902,-13.979C632.953,-10.761 637.234,-9.153 642.744,-9.153C646.664,-9.153 650.186,-9.532 653.311,-10.29C656.436,-11.048 659.663,-12.167 662.991,-13.646L662.991,-3.051C659.921,-1.609 656.797,-0.555 653.616,0.111C650.436,0.777 646.627,1.109 642.189,1.109C636.161,1.109 630.864,-0.065 626.297,-2.413C621.73,-4.761 618.161,-8.265 615.591,-12.925C613.021,-17.584 611.735,-23.372 611.735,-30.287C611.735,-37.166 612.9,-43.009 615.23,-47.816C617.56,-52.624 620.833,-56.285 625.049,-58.799C629.264,-61.314 634.183,-62.571 639.804,-62.571ZM639.804,-52.753C635.699,-52.753 632.38,-51.422 629.847,-48.759C627.314,-46.096 625.825,-42.195 625.381,-37.055L653.339,-37.055C653.302,-40.124 652.793,-42.842 651.813,-45.209C650.833,-47.576 649.354,-49.425 647.376,-50.756C645.397,-52.087 642.873,-52.753 639.804,-52.753Z" style="fill:white;fill-rule:nonzero;"/>
                </g>
            </g>
        </g>
        <g transform="matrix(0.598566,0,0,0.598566,313.978,141.178)">
            <g id="text13">
                <g>
                    <path d="M36.722,-61.462C44.488,-61.462 50.506,-58.855 54.778,-53.641C59.049,-48.426 61.185,-40.734 61.185,-30.565C61.185,-23.76 60.168,-18 58.134,-13.285C56.1,-8.57 53.206,-4.992 49.453,-2.552C45.699,-0.111 41.197,1.109 35.945,1.109C32.321,1.109 29.169,0.564 26.487,-0.527C23.806,-1.618 21.578,-3.097 19.803,-4.965C18.028,-6.832 16.66,-8.894 15.698,-11.15L15.31,-11.15C15.421,-9.042 15.513,-6.841 15.587,-4.549C15.661,-2.256 15.698,-0.092 15.698,1.941L15.698,26.682L10.04,26.682L10.04,-60.297L14.7,-60.297L15.365,-48.26L15.698,-48.26C16.697,-50.553 18.102,-52.716 19.914,-54.75C21.726,-56.784 24.019,-58.411 26.793,-59.631C29.566,-60.852 32.876,-61.462 36.722,-61.462ZM36.001,-56.525C31.452,-56.525 27.671,-55.536 24.657,-53.557C21.643,-51.579 19.406,-48.694 17.945,-44.904C16.484,-41.113 15.735,-36.482 15.698,-31.008L15.698,-30.065C15.698,-24.185 16.429,-19.295 17.889,-15.393C19.35,-11.492 21.551,-8.58 24.49,-6.657C27.43,-4.734 31.082,-3.772 35.446,-3.772C39.736,-3.772 43.36,-4.826 46.318,-6.934C49.277,-9.042 51.533,-12.093 53.086,-16.087C54.639,-20.081 55.416,-24.925 55.416,-30.62C55.416,-39.089 53.798,-45.523 50.562,-49.924C47.326,-54.325 42.472,-56.525 36.001,-56.525Z" style="fill:white;fill-rule:nonzero;"/>
                    <path d="M101.623,-61.351C103.213,-61.351 104.711,-61.259 106.116,-61.074C107.522,-60.889 108.834,-60.63 110.055,-60.297L109.167,-55.138C107.947,-55.471 106.708,-55.721 105.451,-55.887C104.193,-56.054 102.843,-56.137 101.401,-56.137C98.554,-56.137 96.011,-55.601 93.774,-54.528C91.537,-53.456 89.641,-51.921 88.088,-49.924C86.535,-47.927 85.352,-45.523 84.538,-42.713C83.724,-39.902 83.318,-36.759 83.318,-33.283L83.318,0L77.66,0L77.66,-60.297L82.486,-60.297L83.04,-48.926L83.373,-48.926C84.298,-51.255 85.601,-53.354 87.284,-55.221C88.966,-57.089 91.01,-58.578 93.413,-59.687C95.817,-60.796 98.554,-61.351 101.623,-61.351Z" style="fill:white;fill-rule:nonzero;"/>
                    <path d="M171.85,-30.232C171.85,-25.572 171.276,-21.329 170.13,-17.501C168.984,-13.674 167.282,-10.373 165.027,-7.6C162.771,-4.826 159.969,-2.681 156.623,-1.165C153.276,0.351 149.384,1.109 144.946,1.109C140.73,1.109 136.977,0.361 133.685,-1.137C130.394,-2.635 127.611,-4.771 125.337,-7.544C123.063,-10.318 121.334,-13.618 120.15,-17.446C118.967,-21.273 118.375,-25.535 118.375,-30.232C118.375,-36.703 119.457,-42.278 121.62,-46.956C123.784,-51.634 126.89,-55.221 130.94,-57.718C134.989,-60.214 139.843,-61.462 145.501,-61.462C151.344,-61.462 156.216,-60.14 160.117,-57.496C164.019,-54.852 166.95,-51.181 168.91,-46.485C170.87,-41.788 171.85,-36.371 171.85,-30.232ZM124.144,-30.232C124.144,-24.944 124.902,-20.321 126.419,-16.364C127.935,-12.407 130.237,-9.319 133.325,-7.1C136.413,-4.881 140.323,-3.772 145.057,-3.772C149.901,-3.772 153.877,-4.881 156.983,-7.1C160.09,-9.319 162.382,-12.426 163.862,-16.419C165.341,-20.413 166.081,-25.017 166.081,-30.232C166.081,-35.298 165.378,-39.81 163.973,-43.767C162.567,-47.724 160.349,-50.839 157.316,-53.114C154.284,-55.388 150.327,-56.525 145.445,-56.525C138.456,-56.525 133.158,-54.195 129.553,-49.536C125.947,-44.876 124.144,-38.441 124.144,-30.232Z" style="fill:white;fill-rule:nonzero;"/>
                    <path d="M180.17,27.292C178.543,27.292 177.101,27.172 175.843,26.931C174.586,26.691 173.495,26.386 172.571,26.016L172.571,21.19C173.717,21.634 174.873,21.939 176.038,22.105C177.202,22.272 178.432,22.355 179.726,22.355C182.537,22.355 184.691,21.486 186.189,19.748C187.687,18.01 188.435,15.347 188.435,11.76L188.435,-60.297L194.038,-60.297L194.038,11.926C194.038,15.255 193.474,18.065 192.346,20.358C191.218,22.651 189.619,24.38 187.548,25.544C185.477,26.709 183.018,27.292 180.17,27.292ZM187.326,-77.992C187.326,-79.398 187.659,-80.516 188.324,-81.348C188.99,-82.18 189.989,-82.596 191.32,-82.596C192.725,-82.596 193.761,-82.18 194.426,-81.348C195.092,-80.516 195.425,-79.398 195.425,-77.992C195.425,-76.587 195.092,-75.478 194.426,-74.664C193.761,-73.851 192.725,-73.444 191.32,-73.444C189.989,-73.444 188.99,-73.851 188.324,-74.664C187.659,-75.478 187.326,-76.587 187.326,-77.992Z" style="fill:white;fill-rule:nonzero;"/>
                    <path d="M236.973,-61.462C242.113,-61.462 246.393,-60.26 249.814,-57.856C253.235,-55.453 255.787,-52.161 257.469,-47.983C259.152,-43.804 259.993,-39.015 259.993,-33.615L259.993,-29.566L216.448,-29.566C216.448,-21.282 218.362,-14.922 222.19,-10.484C226.017,-6.046 231.499,-3.828 238.637,-3.828C242.372,-3.828 245.617,-4.133 248.372,-4.743C251.127,-5.353 254.187,-6.398 257.552,-7.877L257.552,-2.718C254.594,-1.387 251.635,-0.416 248.677,0.194C245.719,0.804 242.316,1.109 238.47,1.109C232.369,1.109 227.256,-0.157 223.133,-2.69C219.009,-5.224 215.903,-8.801 213.813,-13.424C211.724,-18.047 210.679,-23.446 210.679,-29.622C210.679,-35.649 211.687,-41.067 213.702,-45.875C215.718,-50.682 218.676,-54.482 222.578,-57.274C226.479,-60.066 231.278,-61.462 236.973,-61.462ZM236.917,-56.636C231.148,-56.636 226.479,-54.722 222.911,-50.895C219.342,-47.067 217.243,-41.548 216.615,-34.337L254.169,-34.337C254.169,-38.737 253.54,-42.62 252.283,-45.986C251.025,-49.351 249.13,-51.967 246.597,-53.835C244.064,-55.702 240.837,-56.636 236.917,-56.636Z" style="fill:white;fill-rule:nonzero;"/>
                    <path d="M300.709,1.109C294.718,1.109 289.661,-0.139 285.538,-2.635C281.414,-5.131 278.308,-8.7 276.218,-13.341C274.129,-17.982 273.084,-23.483 273.084,-29.843C273.084,-36.463 274.286,-42.13 276.69,-46.845C279.094,-51.56 282.477,-55.175 286.841,-57.69C291.205,-60.205 296.327,-61.462 302.207,-61.462C305.091,-61.462 307.772,-61.203 310.25,-60.685C312.728,-60.168 314.965,-59.447 316.962,-58.522L315.464,-53.585C313.393,-54.51 311.193,-55.212 308.863,-55.693C306.533,-56.174 304.296,-56.414 302.151,-56.414C297.196,-56.414 292.989,-55.332 289.532,-53.169C286.074,-51.006 283.43,-47.936 281.599,-43.961C279.769,-39.985 278.853,-35.298 278.853,-29.899C278.853,-24.833 279.63,-20.349 281.183,-16.447C282.736,-12.546 285.122,-9.476 288.339,-7.239C291.556,-5.002 295.68,-3.883 300.709,-3.883C303.63,-3.883 306.413,-4.179 309.057,-4.771C311.701,-5.362 314.114,-6.12 316.296,-7.045L316.296,-1.941C314.336,-1.054 312.071,-0.324 309.501,0.25C306.931,0.823 304,1.109 300.709,1.109Z" style="fill:white;fill-rule:nonzero;"/>
                    <path d="M346.805,-3.717C348.544,-3.717 350.161,-3.846 351.659,-4.105C353.157,-4.364 354.479,-4.697 355.625,-5.103L355.625,-0.444C354.442,-0.037 353.055,0.324 351.465,0.638C349.875,0.952 348.118,1.109 346.195,1.109C342.793,1.109 339.964,0.472 337.708,-0.804C335.452,-2.08 333.751,-4.022 332.605,-6.629C331.458,-9.236 330.885,-12.555 330.885,-16.586L330.885,-55.638L321.899,-55.638L321.899,-58.966L330.83,-60.685L332.771,-74.886L336.488,-74.886L336.488,-60.297L355.293,-60.297L355.293,-55.638L336.488,-55.638L336.488,-16.919C336.488,-12.592 337.292,-9.31 338.901,-7.073C340.509,-4.835 343.144,-3.717 346.805,-3.717Z" style="fill:white;fill-rule:nonzero;"/>
                </g>
            </g>
        </g>
    </g>
</svg>
