<?xml version="1.0" encoding="UTF-8" standalone="no"?>
<!DOCTYPE svg PUBLIC "-//W3C//DTD SVG 1.1//EN" "http://www.w3.org/Graphics/SVG/1.1/DTD/svg11.dtd">
<svg width="100%" height="100%" viewBox="0 0 60 60" version="1.1" xmlns="http://www.w3.org/2000/svg" xmlns:xlink="http://www.w3.org/1999/xlink" xml:space="preserve" xmlns:serif="http://www.serif.com/" style="fill-rule:evenodd;clip-rule:evenodd;stroke-linejoin:round;stroke-miterlimit:2;">
    <g transform="matrix(1.35873,0,0,1.35873,-8.42306,-8.24453)">
        <circle cx="28.279" cy="28.147" r="22.079" style="fill:rgb(254,155,177);"/>
    </g>
    <g transform="matrix(59.887,0,0,59.887,14.1007,47.3969)">
        <path d="M0.043,-0C0.043,-0.027 0.045,-0.052 0.05,-0.075C0.054,-0.098 0.062,-0.121 0.074,-0.142C0.085,-0.163 0.102,-0.184 0.123,-0.204C0.144,-0.223 0.172,-0.242 0.206,-0.261C0.226,-0.272 0.246,-0.283 0.267,-0.293C0.287,-0.303 0.306,-0.314 0.324,-0.325C0.341,-0.336 0.355,-0.349 0.366,-0.363C0.377,-0.376 0.382,-0.392 0.382,-0.41C0.382,-0.425 0.378,-0.44 0.369,-0.455C0.36,-0.469 0.346,-0.481 0.329,-0.49C0.311,-0.499 0.289,-0.503 0.263,-0.503C0.243,-0.503 0.225,-0.5 0.209,-0.495C0.192,-0.49 0.178,-0.483 0.165,-0.475C0.152,-0.466 0.14,-0.458 0.131,-0.449C0.121,-0.44 0.113,-0.431 0.106,-0.424L0.051,-0.486C0.056,-0.492 0.065,-0.5 0.078,-0.511C0.091,-0.521 0.107,-0.531 0.126,-0.542C0.145,-0.553 0.168,-0.562 0.194,-0.57C0.219,-0.577 0.247,-0.581 0.278,-0.581C0.319,-0.581 0.355,-0.574 0.385,-0.56C0.414,-0.545 0.437,-0.526 0.453,-0.502C0.469,-0.477 0.477,-0.45 0.477,-0.42C0.477,-0.394 0.472,-0.371 0.461,-0.352C0.45,-0.333 0.436,-0.316 0.419,-0.301C0.401,-0.286 0.384,-0.274 0.366,-0.264C0.347,-0.253 0.331,-0.244 0.316,-0.237C0.286,-0.222 0.26,-0.209 0.239,-0.197C0.218,-0.185 0.2,-0.173 0.187,-0.162C0.173,-0.15 0.162,-0.138 0.154,-0.125C0.145,-0.112 0.139,-0.097 0.135,-0.08L0.488,-0.08L0.488,-0L0.043,-0Z" style="fill:white;fill-rule:nonzero;"/>
    </g>
</svg>
