<?xml version="1.0" encoding="UTF-8" standalone="no"?>
<!DOCTYPE svg PUBLIC "-//W3C//DTD SVG 1.1//EN" "http://www.w3.org/Graphics/SVG/1.1/DTD/svg11.dtd">
<svg width="100%" height="100%" viewBox="0 0 60 60" version="1.1" xmlns="http://www.w3.org/2000/svg" xmlns:xlink="http://www.w3.org/1999/xlink" xml:space="preserve" xmlns:serif="http://www.serif.com/" style="fill-rule:evenodd;clip-rule:evenodd;stroke-linejoin:round;stroke-miterlimit:2;">
    <g transform="matrix(1.35873,0,0,1.35873,-8.42306,-8.24453)">
        <circle cx="28.279" cy="28.147" r="22.079" style="fill:rgb(254,155,177);"/>
    </g>
    <g transform="matrix(51.9993,0,0,51.9993,16.1685,41.1536)">
        <path d="M0.358,-0.236C0.387,-0.231 0.411,-0.221 0.432,-0.205C0.453,-0.188 0.469,-0.167 0.48,-0.143C0.491,-0.118 0.497,-0.089 0.497,-0.058C0.497,-0.017 0.487,0.019 0.468,0.05C0.448,0.081 0.42,0.105 0.384,0.122C0.348,0.138 0.306,0.147 0.258,0.147C0.207,0.147 0.163,0.137 0.125,0.119C0.086,0.099 0.056,0.073 0.035,0.038L0.094,-0.021C0.109,0.006 0.13,0.027 0.157,0.043C0.183,0.059 0.217,0.067 0.258,0.067C0.304,0.067 0.34,0.057 0.367,0.036C0.393,0.015 0.406,-0.017 0.406,-0.058C0.406,-0.1 0.392,-0.133 0.364,-0.159C0.335,-0.184 0.294,-0.196 0.24,-0.196L0.214,-0.196L0.214,-0.27L0.242,-0.27C0.29,-0.27 0.327,-0.282 0.353,-0.305C0.378,-0.328 0.391,-0.357 0.391,-0.392C0.391,-0.416 0.385,-0.436 0.374,-0.451C0.363,-0.466 0.347,-0.478 0.328,-0.486C0.309,-0.493 0.286,-0.497 0.261,-0.497C0.224,-0.497 0.192,-0.489 0.165,-0.474C0.137,-0.458 0.115,-0.436 0.1,-0.408L0.046,-0.464C0.058,-0.487 0.075,-0.506 0.098,-0.523C0.12,-0.54 0.146,-0.553 0.176,-0.562C0.205,-0.571 0.237,-0.576 0.27,-0.576C0.312,-0.576 0.349,-0.569 0.382,-0.554C0.414,-0.539 0.439,-0.519 0.457,-0.492C0.475,-0.465 0.484,-0.434 0.484,-0.398C0.484,-0.372 0.479,-0.347 0.469,-0.325C0.459,-0.302 0.444,-0.282 0.426,-0.267C0.407,-0.251 0.384,-0.241 0.358,-0.236Z" style="fill:white;fill-rule:nonzero;"/>
    </g>
</svg>
