<?xml version="1.0" encoding="UTF-8" standalone="no"?>
<!DOCTYPE svg PUBLIC "-//W3C//DTD SVG 1.1//EN" "http://www.w3.org/Graphics/SVG/1.1/DTD/svg11.dtd">
<svg width="100%" height="100%" viewBox="0 0 60 60" version="1.1" xmlns="http://www.w3.org/2000/svg" xmlns:xlink="http://www.w3.org/1999/xlink" xml:space="preserve" xmlns:serif="http://www.serif.com/" style="fill-rule:evenodd;clip-rule:evenodd;stroke-linejoin:round;stroke-miterlimit:2;">
    <g transform="matrix(1.35873,0,0,1.35873,-8.42306,-8.24453)">
        <circle cx="28.279" cy="28.147" r="22.079" style="fill:rgb(254,155,177);"/>
    </g>
    <g transform="matrix(59.887,0,0,59.887,15.8673,47.0975)">
        <path d="M0.426,-0.08L0.426,-0L0.067,-0L0.067,-0.08L0.209,-0.08L0.209,-0.47C0.203,-0.462 0.194,-0.454 0.181,-0.445C0.168,-0.436 0.154,-0.427 0.138,-0.419C0.122,-0.411 0.106,-0.405 0.09,-0.4C0.074,-0.395 0.059,-0.392 0.046,-0.392L0.046,-0.476C0.061,-0.476 0.077,-0.48 0.095,-0.489C0.112,-0.497 0.129,-0.507 0.146,-0.518C0.163,-0.529 0.177,-0.54 0.189,-0.55C0.2,-0.56 0.207,-0.567 0.209,-0.571L0.299,-0.571L0.299,-0.08L0.426,-0.08Z" style="fill:white;fill-rule:nonzero;"/>
    </g>
</svg>
