<?xml version="1.0" encoding="UTF-8" standalone="no"?>
<!DOCTYPE svg PUBLIC "-//W3C//DTD SVG 1.1//EN" "http://www.w3.org/Graphics/SVG/1.1/DTD/svg11.dtd">
<svg width="100%" height="100%" viewBox="0 0 101 79" version="1.1" xmlns="http://www.w3.org/2000/svg" xmlns:xlink="http://www.w3.org/1999/xlink" xml:space="preserve" xmlns:serif="http://www.serif.com/" style="fill-rule:evenodd;clip-rule:evenodd;stroke-linejoin:round;stroke-miterlimit:2;">
    <g transform="matrix(0.142977,0,0,0.142977,-337.178,-183.707)">
        <path d="M2675.03,1284.87L2675.03,1553.78C2675.03,1756.61 2504.11,1831.81 2504.11,1831.81L2490.44,1809.02C2490.44,1809.02 2592.99,1704.19 2574.76,1601.64L2358.26,1601.64L2358.26,1284.87L2675.03,1284.87Z" style="fill:rgb(222,84,30);fill-rule:nonzero;"/>
    </g>
    <g transform="matrix(0.142977,0,0,0.142977,-337.178,-183.707)">
        <path d="M3057.89,1284.87L3057.89,1553.78C3057.89,1756.61 2886.97,1831.81 2886.97,1831.81L2873.3,1809.02C2873.3,1809.02 2975.85,1704.19 2957.62,1601.64L2741.12,1601.64L2741.12,1284.87L3057.89,1284.87Z" style="fill:rgb(222,84,30);fill-rule:nonzero;"/>
    </g>
</svg>
