<?xml version="1.0" encoding="UTF-8" standalone="no"?>
<!DOCTYPE svg PUBLIC "-//W3C//DTD SVG 1.1//EN" "http://www.w3.org/Graphics/SVG/1.1/DTD/svg11.dtd">
<svg width="100%" height="100%" viewBox="0 0 300 300" version="1.1" xmlns="http://www.w3.org/2000/svg" xmlns:xlink="http://www.w3.org/1999/xlink" xml:space="preserve" xmlns:serif="http://www.serif.com/" style="fill-rule:evenodd;clip-rule:evenodd;stroke-linejoin:round;stroke-miterlimit:2;">
    <g id="Symbols">
    </g>
    <g transform="matrix(3.25046,0,0,3.25046,19.9519,75.381)">
        <g id="Layer_2">
            <path d="M24.123,41.554C24.123,44.032 22.347,45.776 19.906,45.776C17.465,45.776 15.69,44.032 15.69,41.554C15.69,39.246 17.722,37.622 19.906,37.622C22.091,37.622 24.123,39.246 24.123,41.554ZM17.738,41.554C17.738,42.87 18.711,43.844 19.89,43.844C21.067,43.844 22.04,42.887 22.04,41.554C22.04,40.494 21.067,39.537 19.889,39.537C18.711,39.537 17.738,40.494 17.738,41.554ZM26.547,37.878L28.528,37.878L32.164,42.562L32.181,42.562L32.181,37.878L34.162,37.878L34.162,45.536L32.181,45.536L28.545,40.853L28.528,40.853L28.528,45.536L26.547,45.536L26.547,37.878ZM40.563,45.536L38.566,45.536L38.566,39.57L36.926,39.57L36.926,37.878L42.202,37.878L42.202,39.57L40.563,39.57L40.563,45.536ZM46.914,39.571L46.914,40.853L49.15,40.853L49.15,42.545L46.914,42.545L46.914,43.862L49.27,43.862L49.27,45.554L44.917,45.554L44.917,37.896L49.27,37.896L49.27,39.588L46.914,39.588L46.914,39.571ZM66.923,37.622L55.86,37.622C53.556,37.742 51.985,39.349 51.985,41.742C51.985,44.134 53.658,45.776 56.065,45.776C57.345,45.776 58.473,45.314 59.223,44.272C59.906,43.314 59.991,42.357 60.009,41.246L56.065,41.246L56.065,42.802L57.687,42.802C57.602,43.69 56.953,44.134 56.082,44.134C54.767,44.134 54.068,42.921 54.068,41.742C54.068,40.682 54.631,39.554 55.706,39.349L63.423,39.349C62.962,39.985 62.717,40.752 62.723,41.537C62.723,44.015 64.499,45.758 66.939,45.758C69.382,45.758 71.157,44.014 71.157,41.537C71.157,39.229 69.125,37.605 66.94,37.605L66.923,37.622ZM66.923,43.862C65.745,43.862 64.771,42.904 64.771,41.57C64.771,40.511 65.745,39.554 66.923,39.554C68.101,39.554 69.074,40.511 69.074,41.57C69.074,42.887 68.101,43.862 66.922,43.862L66.923,43.862ZM12.958,43.862L12.873,43.862C11.694,43.862 10.721,42.904 10.721,41.571C10.721,40.511 11.694,39.554 12.873,39.554L12.958,39.554L12.958,37.622L12.873,37.622C10.67,37.622 8.656,39.246 8.656,41.554C8.656,44.032 10.431,45.776 12.872,45.776L12.958,45.776L12.958,43.844L12.958,43.862ZM32.42,13.692C32.42,17.623 35.237,20.41 39.13,20.41L39.266,20.41L39.266,17.35L39.13,17.35C37.251,17.35 35.698,15.811 35.698,13.726C35.698,12.05 37.251,10.512 39.13,10.512L39.266,10.512L39.266,7.453L39.13,7.453C35.63,7.453 32.42,10.034 32.42,13.709L32.42,13.692ZM40.836,7.436L40.7,7.436L40.7,10.495L40.836,10.495C42.714,10.495 44.268,12.034 44.268,13.709C44.268,15.811 42.714,17.333 40.836,17.333L40.7,17.333L40.7,20.392L40.836,20.392C44.729,20.392 47.546,17.623 47.546,13.674C47.546,9.999 44.319,7.418 40.837,7.418L40.837,7.435L40.836,7.436ZM25.489,12.871C23.747,10.649 21.289,8.53 17.499,7.983C11.404,7.111 3.978,8.325 0.154,5.538C0.068,5.538 0,5.555 0.018,5.674C1.418,7.265 2.202,8.683 3.944,9.743C9.56,13.162 19.855,9.503 25.488,12.871L25.489,12.871ZM56.697,13.418C55.578,13.706 54.519,14.192 53.572,14.854C53.606,14.478 53.623,14.119 53.623,13.743C53.623,13.094 53.572,12.461 53.487,11.846C54.801,10.636 56.243,9.576 57.79,8.683L58.062,8.683C55.86,8.171 54.341,8.752 52.992,9.623C51.25,4.12 46.095,0.137 40.016,0.137C33.938,0.137 28.8,4.119 27.042,9.623C25.693,8.751 24.174,8.17 21.971,8.683L22.244,8.683C23.78,9.572 25.214,10.649 26.546,11.846C26.461,12.462 26.41,13.11 26.41,13.743C26.41,14.119 26.41,14.495 26.461,14.854C25.514,14.193 24.456,13.706 23.337,13.418C19.427,12.358 14.476,13.418 10.328,12.871C8.074,12.581 4.66,11.35 3.277,10.564C4.933,14.017 8.433,16.222 12.77,16.529C16.986,16.837 23.013,16.17 26.461,17.213C26.614,17.264 26.768,17.315 26.922,17.384C27.11,18.085 27.366,18.752 27.656,19.401C23.627,18.102 18.557,18.751 13.726,18.307C12.206,18.17 10.754,17.658 9.798,17.35C8.45,16.922 6.896,16.495 6.145,16.256C8.091,19.128 10.874,21.572 15.501,21.965C20.264,22.358 25.488,21.554 29.568,22.443C30.013,22.991 30.504,23.5 31.036,23.965C30.388,25.195 31.361,26.323 31.838,27.264C31.446,26.99 30.763,26.973 30.524,26.563C30.524,25.075 30.098,23.982 29.38,23.144L27.88,23.144C27.794,23.93 27.88,24.837 28.136,25.384C27.778,25.144 27.334,24.99 27.078,24.682C27.231,24.204 27.299,23.674 27.316,23.144L25.182,23.144C25.182,23.144 25.216,23.23 25.234,23.264C25.148,23.23 25.062,23.195 24.994,23.144L24.175,23.144C24.499,23.366 24.79,23.572 24.431,23.726C23.679,23.213 21.119,22.888 20.47,23.726C21.666,24.905 24.482,26.478 26.821,25.144C26.906,25.691 27.641,25.674 27.88,26.084C26.343,26.05 24.79,26.016 23.919,26.563C24.926,28.153 28.716,28.785 30.27,27.264C30.355,27.81 31.43,27.486 31.584,27.965C29.792,27.93 28.443,28.306 27.88,29.383C29.706,30.135 33.36,30.153 34.23,28.682C35.374,29.314 37.321,29.23 38.464,29.862C37.423,30.341 36.416,30.87 35.818,31.742C38.482,32.238 38.191,30.084 40.308,30.084C41.606,30.426 42.357,32.494 44.269,31.503C43.318,30.851 42.35,30.224 41.366,29.623C43.057,29.469 44.558,29.161 45.857,28.682C47.086,30.204 50.483,30.374 52.207,29.161C51.422,28.289 49.749,28.221 48.503,27.742C49.169,27.777 49.322,27.366 49.818,27.264C51.422,28.819 55.058,28.067 56.168,26.563C55.314,25.896 53.249,26.341 52.208,25.845C53.044,25.965 52.907,25.213 53.522,25.144C55.742,26.478 58.661,24.819 59.6,23.486C58.37,23.025 56.373,23.264 55.366,23.726C55.519,23.503 55.69,23.315 55.878,23.144L52.874,23.144C52.822,24.238 52.702,25.195 51.661,25.384C52.139,24.939 52.276,23.982 52.157,23.144L50.602,23.144C49.783,23.948 49.425,25.162 49.544,26.802C48.93,26.597 48.4,27.622 48.23,27.042C48.981,26.46 49.151,25.35 49.032,23.982C49.565,23.513 50.062,23.005 50.518,22.461C54.598,21.589 59.838,22.392 64.585,21.982C69.211,21.589 71.977,19.144 73.94,16.273C73.172,16.513 71.636,16.939 70.286,17.366C69.33,17.674 67.88,18.17 66.36,18.324C61.546,18.768 56.458,18.118 52.43,19.418C52.719,18.769 52.976,18.102 53.163,17.402C53.317,17.333 53.47,17.282 53.624,17.23C57.073,16.187 63.082,16.854 67.316,16.546C71.652,16.238 75.152,14.034 76.808,10.581C75.426,11.367 72.028,12.598 69.758,12.888C65.609,13.418 60.658,12.376 56.749,13.435L56.698,13.418L56.697,13.418ZM34.195,27.965C34.127,27.007 33.837,26.255 33.376,25.64C34.612,26.333 35.948,26.829 37.337,27.11C37.542,27.418 37.815,27.759 38.105,28.102C38.327,28.392 38.566,28.666 38.805,28.905C37.23,28.827 35.675,28.51 34.195,27.965ZM45.566,28.204C44.143,28.563 42.693,28.798 41.23,28.905C41.451,28.682 41.673,28.426 41.895,28.135C42.186,27.777 42.458,27.418 42.68,27.11C44.049,26.835 45.368,26.351 46.59,25.674C46.112,26.392 45.805,27.264 45.566,28.204ZM40.017,23.879C34.434,23.879 29.894,19.333 29.894,13.743C29.894,8.154 34.418,3.607 40.017,3.607C45.617,3.607 50.141,8.154 50.141,13.743C50.141,19.333 45.617,23.879 40.017,23.879ZM79.864,5.538C76.04,8.324 68.614,7.11 62.519,7.982C58.729,8.53 56.254,10.649 54.53,12.871C60.163,9.521 70.458,13.162 76.074,9.743C77.833,8.683 78.618,7.247 80.001,5.675C80.018,5.555 79.95,5.555 79.865,5.538L79.864,5.538ZM75.322,40.562C74.601,40.562 74.007,39.968 74.007,39.246C74.007,38.511 74.588,37.93 75.322,37.93C76.056,37.93 76.637,38.511 76.637,39.246C76.637,39.982 76.056,40.562 75.322,40.562ZM75.322,38.084C74.69,38.084 74.178,38.614 74.178,39.246C74.178,39.878 74.69,40.409 75.322,40.409C75.954,40.409 76.466,39.878 76.466,39.246C76.466,38.614 75.954,38.084 75.322,38.084ZM75.322,39.366L75.083,39.366L75.083,39.964L74.913,39.964L74.913,38.512L75.374,38.512C75.613,38.512 75.818,38.7 75.818,38.939C75.818,39.162 75.681,39.298 75.493,39.35L75.851,39.966L75.664,39.966L75.305,39.366L75.322,39.366L75.322,39.366ZM75.374,38.665L75.083,38.665L75.083,39.212L75.374,39.212C75.544,39.212 75.681,39.092 75.681,38.938C75.681,38.785 75.545,38.665 75.374,38.665Z" style="fill:rgb(154,195,37);fill-rule:nonzero;"/>
        </g>
    </g>
</svg>
