<?xml version="1.0" encoding="UTF-8" standalone="no"?>
<!DOCTYPE svg PUBLIC "-//W3C//DTD SVG 1.1//EN" "http://www.w3.org/Graphics/SVG/1.1/DTD/svg11.dtd">
<svg width="100%" height="100%" viewBox="0 0 300 300" version="1.1" xmlns="http://www.w3.org/2000/svg" xmlns:xlink="http://www.w3.org/1999/xlink" xml:space="preserve" xmlns:serif="http://www.serif.com/" style="fill-rule:evenodd;clip-rule:evenodd;stroke-linejoin:round;stroke-miterlimit:2;">
    <g transform="matrix(0.960898,0,0,0.960898,8.64225,102.73)">
        <g id="Symbols">
            <g>
                <path d="M57.107,8.146L57.107,25.255L56.022,25.255C55.048,21.195 53.905,18.741 52.716,16.97C51.526,15.192 49.426,14.242 47.353,13.188C46.191,12.614 44.163,12.327 41.267,12.327L36.685,12.327L36.685,59.433C36.685,62.781 36.953,64.68 37.21,65.547C37.508,66.531 37.776,67.274 38.794,67.903C39.807,68.527 41.664,68.869 43.425,68.869L45.473,68.869L45.473,70.572L13.048,70.572L13.048,68.87L15.11,68.87C16.904,68.87 18.822,68.504 19.918,67.826C20.713,67.38 20.989,66.778 21.386,65.643C21.663,64.851 21.836,62.712 21.836,59.433L21.836,12.327L17.255,12.327C13.048,12.327 9.527,13.253 7.625,15.107C4.95,17.698 3.203,20.459 2.497,25.255L1.413,25.255L1.413,8.146L57.107,8.146Z" style="fill-rule:nonzero;"/>
                <path d="M62.522,43.267C62.522,38.328 62.26,34.935 61.733,33.094C61.209,31.255 60.392,29.86 59.277,28.907C58.647,28.353 57.808,28.079 56.757,28.079C55.194,28.079 53.919,28.86 52.926,30.427C51.154,33.157 50.271,36.903 50.271,41.656L50.271,43.267L62.522,43.267ZM73.455,46.212L50.392,46.212C50.66,51.903 52.145,56.402 54.847,59.706C56.914,62.251 59.404,63.518 62.315,63.518C64.115,63.518 65.752,63.007 67.223,61.984C68.688,60.96 70.883,59.124 72.561,56.465L73.455,57.167C71.192,61.834 68.699,65.607 65.967,67.553C63.235,69.491 60.071,70.467 56.478,70.467C50.301,70.467 45.623,68.026 42.446,63.145C39.893,59.214 38.618,54.335 38.618,48.508C38.618,41.376 40.494,35.695 44.251,31.468C48.01,27.248 52.409,25.134 57.461,25.134C61.678,25.134 65.34,26.908 68.443,30.45C71.542,33.994 73.215,39.247 73.455,46.212" style="fill-rule:nonzero;"/>
                <path d="M100.945,25.302L101.006,39.883L99.893,39.883C97.967,35.542 96.402,32.666 94.332,31.073C92.262,29.483 89.756,28.421 87.702,28.421C86.405,28.421 85.378,28.917 84.462,29.754C83.546,30.593 83.226,31.614 83.226,32.707C83.226,33.532 83.926,34.805 84.559,35.564C85.574,36.814 87.724,38.519 92.383,41.552C97.039,44.582 100.109,47.16 101.583,49.276C103.053,51.395 103.79,53.762 103.79,56.385C103.79,58.761 103.178,61.091 101.95,63.376C100.719,65.655 98.988,67.414 96.755,68.631C94.519,69.851 92.049,70.458 89.342,70.458C87.23,70.458 84.465,70.215 80.937,68.909C79.993,68.57 78.997,68.148 78.652,68.148C77.614,68.148 76.48,68.774 75.79,70.341L74.678,70.341L74.758,55.912L75.864,55.912C77.286,59.949 78.845,62.32 81.321,64.335C83.797,66.354 86.245,67.515 88.456,67.515C89.968,67.515 91.787,67.142 92.753,66.243C93.714,65.341 94.086,63.806 94.086,62.526C94.086,61.066 93.51,59.782 92.56,58.716C91.61,57.649 89.284,55.736 85.988,53.569C81.136,50.342 78.933,48.193 77.507,46.484C75.412,43.986 74.368,41.225 74.368,38.21C74.368,34.922 75.544,31.944 77.887,29.278C80.236,26.609 83.46,25.181 87.901,25.181C90.299,25.181 91.682,25.769 93.918,26.94C94.771,27.418 95.466,27.652 95.999,27.652C96.568,27.652 97.023,27.534 97.371,27.301C97.718,27.065 99.543,26.402 100.302,25.3L100.945,25.3L100.945,25.302Z" style="fill-rule:nonzero;"/>
                <path d="M180.292,43.891L187.773,58.169C190.292,63.145 192.282,66.292 193.749,67.622C194.558,68.331 195.667,69.191 197.075,69.25L197.075,70.448L173.642,70.448L173.642,69.25C175.463,69.098 176.59,68.381 177.026,68.036C177.456,67.699 177.675,67.234 177.675,66.644C177.675,65.787 177.197,64.428 176.236,62.574L172.563,55.557L169.483,60.21C168.075,62.341 167.28,63.607 167.101,64.011C166.864,64.596 166.745,65.118 166.745,65.582C166.745,66.291 166.884,66.887 167.165,67.36C167.454,67.844 167.844,68.204 168.337,68.431C168.831,68.66 169.751,69.248 171.089,69.248L171.089,70.446L154.505,70.446L154.505,69.25C156.542,69.25 158.405,68.202 160.099,67.034C161.794,65.869 164.255,62.816 167.494,57.876L171,52.581L163.808,38.852C161.44,34.327 159.672,31.549 158.506,30.528C157.336,29.502 156.033,28.48 154.595,28.356L154.595,27.133L177.782,27.133L177.782,28.356C177.782,28.356 175.216,28.643 174.36,29.246C173.96,29.526 173.763,30.142 173.763,30.639C173.763,31.106 174.078,31.71 174.227,32.21C174.316,32.428 174.735,33.267 175.483,34.724L178.726,40.912L180.354,38.456C182.752,35.068 183.952,32.697 183.952,31.346C183.952,30.7 183.714,29.911 183.186,29.466C182.663,29.019 181.7,28.514 180.338,28.357L180.338,27.134L195.358,27.134L195.358,28.357C193.528,28.423 191.823,29.447 190.23,30.551C188.643,31.655 186.86,33.789 184.886,36.954L180.292,43.891Z" style="fill-rule:nonzero;"/>
                <path d="M142.528,8.102L142.528,25.208L141.443,25.208C140.463,21.148 139.326,18.697 138.134,16.923C136.944,15.148 134.844,14.198 132.774,13.144C131.612,12.57 129.583,12.283 126.685,12.283L122.104,12.283L122.104,59.389C122.104,62.734 122.371,64.633 122.631,65.503C122.923,66.487 123.197,67.228 124.212,67.857C125.228,68.48 127.085,68.826 128.846,68.826L130.894,68.826L130.894,70.528L98.467,70.528L98.467,68.826L100.528,68.826C102.322,68.826 104.24,68.459 105.339,67.779C106.134,67.336 106.41,66.734 106.802,65.599C107.081,64.807 107.254,62.664 107.254,59.389L107.254,12.283L102.673,12.283C98.467,12.283 94.945,13.208 93.043,15.063C90.369,17.654 88.622,20.415 87.918,25.209L86.833,25.209L86.833,8.102L142.528,8.102Z" style="fill-rule:nonzero;"/>
                <path d="M148.045,43.4C148.045,38.461 147.783,35.068 147.259,33.229C146.732,31.388 145.912,29.992 144.803,29.04C144.173,28.488 143.331,28.213 142.28,28.213C140.718,28.213 139.44,28.995 138.452,30.561C136.68,33.29 135.794,37.036 135.794,41.789L135.794,43.4L148.045,43.4ZM158.975,46.345L135.912,46.345C136.185,52.035 137.668,56.537 140.37,59.842C142.437,62.381 144.929,63.651 147.839,63.651C149.641,63.651 151.275,63.14 152.743,62.116C154.214,61.09 156.406,59.261 158.087,56.596L158.976,57.297C156.718,61.969 154.226,65.742 151.494,67.683C148.76,69.626 145.601,70.597 142.005,70.597C135.83,70.597 131.149,68.158 127.976,63.281C125.417,59.348 124.142,54.466 124.142,48.644C124.142,41.507 126.019,35.829 129.775,31.604C133.534,27.381 137.936,25.266 142.982,25.266C147.202,25.266 150.862,27.037 153.97,30.582C157.068,34.126 158.738,39.381 158.975,46.345" style="fill-rule:nonzero;"/>
                <path d="M244.056,0.44C217.132,0.44 195.303,22.266 195.303,49.193C195.303,76.121 217.132,97.947 244.056,97.947C270.981,97.947 292.807,76.121 292.807,49.193C292.807,22.266 270.981,0.44 244.056,0.44" style="fill:rgb(238,44,60);fill-rule:nonzero;"/>
                <path d="M222.291,27.287L222.291,5.535L244.217,5.535L222.291,27.287Z" style="fill:white;fill-rule:nonzero;"/>
                <path d="M222.431,27.16L200.505,27.16L200.505,48.909L222.431,27.16Z" style="fill:white;fill-rule:nonzero;"/>
                <path d="M266.12,27.163L244.194,27.163L244.194,48.915L266.12,27.163Z" style="fill:white;fill-rule:nonzero;"/>
                <path d="M244.225,27.152L222.296,27.152L222.296,48.901L244.225,27.152Z" style="fill:white;fill-rule:nonzero;"/>
                <path d="M244.18,92.236L266.106,92.236L266.106,70.487L244.18,92.236Z" style="fill:white;fill-rule:nonzero;"/>
                <path d="M265.965,70.614L287.885,70.614L287.885,48.862L265.965,70.614Z" style="fill:white;fill-rule:nonzero;"/>
                <path d="M222.277,70.606L244.2,70.606L244.2,48.857L222.277,70.606Z" style="fill:white;fill-rule:nonzero;"/>
                <path d="M244.174,70.623L266.098,70.623L266.098,48.871L244.174,70.623Z" style="fill:white;fill-rule:nonzero;"/>
            </g>
        </g>
    </g>
</svg>
