<?xml version="1.0" encoding="UTF-8" standalone="no"?>
<!DOCTYPE svg PUBLIC "-//W3C//DTD SVG 1.1//EN" "http://www.w3.org/Graphics/SVG/1.1/DTD/svg11.dtd">
<svg width="100%" height="100%" viewBox="0 0 300 300" version="1.1" xmlns="http://www.w3.org/2000/svg" xmlns:xlink="http://www.w3.org/1999/xlink" xml:space="preserve" xmlns:serif="http://www.serif.com/" style="fill-rule:evenodd;clip-rule:evenodd;stroke-linejoin:round;stroke-miterlimit:2;">
    <g id="Symbols">
    </g>
    <g id="Layer_2">
    </g>
    <g transform="matrix(0.112,0,0,0.112,10,125.086)">
        <rect x="0" y="101.5" width="140.1" height="329.5" style="fill:rgb(33,64,154);fill-rule:nonzero;"/>
        <path d="M0,431L0,101.5L140.1,101.5L140.1,431L0,431ZM210.1,101.5L365.8,101.5L290.6,264.9L371.7,430.9L213.4,430.9L140.1,264.9L210.1,101.5Z" style="fill:rgb(33,64,154);fill-rule:nonzero;"/>
        <path d="M210.1,101.5L365.8,101.5L290.6,264.9L371.7,430.9L213.4,430.9L140.1,264.9L210.1,101.5Z" style="fill:rgb(33,64,154);fill-rule:nonzero;"/>
        <path d="M526,313.6C551.8,313.6 572.8,292.7 572.8,266.8C572.8,240.9 551.9,220 526,220C500.2,220.4 479.5,241.6 479.9,267.5C480.3,292.9 500.7,313.3 526,313.6ZM348,266.9C348,168.6 427.7,88.9 525.9,88.9C624.2,88.9 703.9,168.6 703.9,266.9C703.9,365.2 624.2,444.9 525.9,444.9C427.7,444.8 348,365.2 348,266.9Z" style="fill:rgb(33,64,154);fill-rule:nonzero;"/>
        <path d="M526,313.6C551.8,313.6 572.8,292.7 572.8,266.8C572.8,240.9 551.9,220 526,220C500.2,220.4 479.5,241.6 479.9,267.5C480.3,292.9 500.7,313.3 526,313.6ZM348,266.9C348,168.6 427.7,88.9 525.9,88.9C624.2,88.9 703.9,168.6 703.9,266.9C703.9,365.2 624.2,444.9 525.9,444.9C427.7,444.8 348,365.2 348,266.9ZM709.5,431L760.1,101.5L884.6,101.5L926.1,228L967.6,101.5L1093.4,101.5L1142,402.4L1246.4,101.5L1381.3,101.5L1496.8,431L1352.8,431L1314.5,277.9L1275.7,431L1016.9,431L1000,315.6L965,431L887.2,431L853.5,315.6L832.7,431L709.5,431Z" style="fill:rgb(33,64,154);fill-rule:nonzero;"/>
        <path d="M709.5,431L760.1,101.5L884.6,101.5L926.1,228L967.6,101.5L1093.4,101.5L1142,402.4L1246.4,101.5L1381.3,101.5L1496.8,431L1352.8,431L1314.5,277.9L1275.7,431L1016.9,431L1000,315.6L965,431L887.2,431L853.5,315.6L832.7,431L709.5,431ZM1457.9,101.5L1670.6,101.5L1670.6,0L1799.3,0L1799.3,129.4L1672.2,129.4L1672.2,431L1534.4,431L1534.4,224.7L1457.9,224.7L1457.9,101.5Z" style="fill:rgb(33,64,154);fill-rule:nonzero;"/>
        <path d="M1457.9,101.5L1670.6,101.5L1670.6,0L1799.3,0L1799.3,129.4L1672.2,129.4L1672.2,431L1534.4,431L1534.4,224.7L1457.9,224.7L1457.9,101.5Z" style="fill:rgb(33,64,154);fill-rule:nonzero;"/>
        <path d="M2032.5,127.4L1998.1,217.5C1998.1,217.5 1961.8,191 1915.4,189C1895.9,188.1 1886.8,209.1 1919.6,215.3C1947.3,220.5 1977.2,228.9 1999.1,247.9C2046.3,288.8 2051.6,378.7 1972.7,420.2C1920.2,447.8 1813.8,442.7 1744.4,396L1780.1,307.2C1780.1,307.2 1835.2,345.8 1881.3,344.2C1900.8,343.5 1909.9,320.9 1877.1,314.7C1849.4,309.5 1819.2,302.1 1797.2,283C1750,242.1 1745.7,154.1 1823.6,110.7C1876.3,81.2 1959.3,81.6 2032.5,127.4" style="fill:rgb(33,64,154);fill-rule:nonzero;"/>
        <path d="M2032.5,127.4L1998.1,217.5C1998.1,217.5 1961.8,191 1915.4,189C1895.9,188.1 1886.8,209.1 1919.6,215.3C1947.3,220.5 1977.2,228.9 1999.1,247.9C2046.3,288.8 2051.6,378.7 1972.7,420.2C1920.2,447.8 1813.8,442.7 1744.4,396L1780.1,307.2C1780.1,307.2 1835.2,345.8 1881.3,344.2C1900.8,343.5 1909.9,320.9 1877.1,314.7C1849.4,309.5 1819.2,302.1 1797.2,283C1750,242.1 1745.7,154.1 1823.6,110.7C1876.3,81.2 1959.3,81.6 2032.5,127.4ZM2067.6,101.5L2204.4,101.5L2204.4,302.5C2204.4,325.5 2238.8,325.5 2238.8,302.5L2238.8,101.5L2375,101.5L2375,319.4C2375,329.8 2375,435.5 2222.6,435.5C2067.6,435.5 2067.6,329.8 2067.6,319.4L2067.6,101.5" style="fill:rgb(33,64,154);fill-rule:nonzero;"/>
        <path d="M2067.6,101.5L2204.4,101.5L2204.4,302.5C2204.4,325.5 2238.8,325.5 2238.8,302.5L2238.8,101.5L2375,101.5L2375,319.4C2375,329.8 2375,435.5 2222.6,435.5C2067.6,435.5 2067.6,329.8 2067.6,319.4L2067.6,101.5ZM2442.6,148.2L2442.6,131.3L2453.8,131.3C2459.5,131.3 2465.6,132.6 2465.6,139.3C2465.6,147.7 2459.4,148.2 2452.4,148.2L2442.6,148.2ZM2442.6,155.2L2452.1,155.2L2466.4,178.7L2475.6,178.7L2460.2,154.9C2468.2,153.9 2474.3,149.7 2474.3,139.9C2474.3,129.2 2467.9,124.4 2455.1,124.4L2434.4,124.4L2434.4,178.7L2442.6,178.7L2442.6,155.2ZM2452.6,198.5C2478.2,198.5 2500,178.7 2500,151.5C2500,124.4 2478.2,104.7 2452.6,104.7C2426.6,104.7 2404.7,124.5 2404.7,151.5C2404.7,178.7 2426.6,198.5 2452.6,198.5ZM2414.1,151.5C2414.1,129.2 2431,112.4 2452.6,112.4C2473.9,112.4 2490.7,129.1 2490.7,151.5C2490.7,174.1 2474,190.7 2452.6,190.7C2431,190.7 2414.1,174.1 2414.1,151.5Z" style="fill:rgb(33,64,154);fill-rule:nonzero;"/>
    </g>
</svg>
