<?xml version="1.0" encoding="UTF-8" standalone="no"?>
<!DOCTYPE svg PUBLIC "-//W3C//DTD SVG 1.1//EN" "http://www.w3.org/Graphics/SVG/1.1/DTD/svg11.dtd">
<svg width="100%" height="100%" viewBox="0 0 300 300" version="1.1" xmlns="http://www.w3.org/2000/svg" xmlns:xlink="http://www.w3.org/1999/xlink" xml:space="preserve" xmlns:serif="http://www.serif.com/" style="fill-rule:evenodd;clip-rule:evenodd;stroke-linejoin:round;stroke-miterlimit:2;">
    <g id="Symbols" transform="matrix(3.07692,0,0,3.07692,50,50)">
        <g id="Header---Sticky-Header" serif:id="Header-/-Sticky-Header">
            <g id="Header---RIAI-LOGO" serif:id="Header-/-RIAI-LOGO">
                <g id="Group-11">
                    <path id="Fill-1" d="M0,0L0.001,65L65,65L65,0L0,0Z" style="fill:rgb(30,24,105);"/>
                    <g id="Group-10" transform="matrix(1,0,0,1,7.83132,24.2771)">
                        <path id="Fill-2" d="M5.178,8.021L5.178,1.836C5.684,1.718 6.213,1.647 6.856,1.647C8.763,1.647 9.866,2.476 9.866,4.417C9.866,6.826 8.085,7.858 5.178,8.021M11.566,12.254C10.707,10.914 10.02,9.651 9.365,8.2C11.484,7.427 12.761,5.958 12.761,3.944C12.761,1.031 10.647,0.629 7.476,0.629L0.1,0.629L0.1,1.363L0.743,1.458C2.007,1.647 2.26,2.073 2.26,3.588L2.26,12.42C2.26,13.911 2.007,14.361 0.743,14.55L0.1,14.645L0.1,15.379L7.132,15.379L7.132,14.645L6.511,14.55C5.339,14.361 5.178,13.959 5.178,12.514L5.178,9.271C5.732,9.227 6.268,9.147 6.781,9.038C7.506,10.748 8.142,12.046 8.878,13.296C9.843,14.953 10.693,15.474 12.302,15.474C12.899,15.474 13.474,15.426 14.163,15.332L14.163,14.645C13.037,14.313 12.509,13.722 11.566,12.254" style="fill:rgb(254,254,254);"/>
                        <path id="Fill-4" d="M28.794,10.004L30.879,3.124L33.314,10.004L28.794,10.004ZM37.739,13.035L32.937,0.203L30.271,0.771L26.411,12.443C25.791,14.314 25.791,14.408 24.595,14.645L24.595,15.379L29.444,15.379L29.444,14.645L28.801,14.527C27.721,14.337 27.629,13.816 28.019,12.561L28.443,11.165L33.725,11.165L34.361,12.964C34.729,14.006 34.545,14.408 33.557,14.55L32.914,14.645L32.914,15.379L39.532,15.379L39.532,14.645C38.612,14.479 38.245,14.408 37.739,13.035Z" style="fill:rgb(254,254,254);"/>
                        <path id="Fill-6" d="M23.309,1.363L22.642,1.458C21.379,1.647 21.149,2.073 21.149,3.588L21.149,12.42C21.149,13.911 21.31,14.408 22.321,14.55L22.987,14.645L22.987,15.379L16.116,15.379L16.116,14.645L16.783,14.55C17.794,14.408 17.955,13.911 17.955,12.42L17.955,3.588C17.955,2.073 17.725,1.647 16.461,1.458L15.795,1.363L15.795,0.629L23.309,0.629L23.309,1.363Z" style="fill:rgb(254,254,254);"/>
                        <path id="Fill-8" d="M48.333,1.363L47.666,1.458C46.402,1.647 46.172,2.073 46.172,3.588L46.172,12.42C46.172,13.935 46.402,14.361 47.666,14.55L48.333,14.645L48.333,15.379L41.14,15.379L41.14,14.645L41.807,14.55C42.818,14.408 42.979,13.911 42.979,12.42L42.979,3.588C42.979,2.073 42.749,1.647 41.485,1.458L40.819,1.363L40.819,0.629L48.333,0.629L48.333,1.363Z" style="fill:rgb(254,254,254);"/>
                    </g>
                </g>
            </g>
        </g>
    </g>
</svg>
