<?xml version="1.0" encoding="UTF-8" standalone="no"?>
<!DOCTYPE svg PUBLIC "-//W3C//DTD SVG 1.1//EN" "http://www.w3.org/Graphics/SVG/1.1/DTD/svg11.dtd">
<svg width="100%" height="100%" viewBox="0 0 300 300" version="1.1" xmlns="http://www.w3.org/2000/svg" xmlns:xlink="http://www.w3.org/1999/xlink" xml:space="preserve" xmlns:serif="http://www.serif.com/" style="fill-rule:evenodd;clip-rule:evenodd;stroke-linejoin:round;stroke-miterlimit:2;">
    <g transform="matrix(2.79411,0,0,2.79411,-17.145,68.2527)">
        <path d="M19.96,45.257C19.103,45.257 18.374,44.971 17.773,44.4C17.173,43.813 16.873,43.118 16.873,42.313C16.873,41.492 17.173,40.789 17.773,40.203C18.373,39.616 19.102,39.323 19.96,39.323C20.832,39.323 21.568,39.616 22.168,40.203C22.782,40.789 23.089,41.492 23.089,42.313C23.089,43.118 22.782,43.814 22.168,44.4C21.568,44.972 20.832,45.258 19.96,45.257M54.236,44.774L48.663,44.774L33.98,21.609C33.614,21.033 33.305,20.422 33.058,19.785L32.929,19.785C33.044,20.458 33.101,21.902 33.101,24.115L33.101,44.774L28.171,44.774L28.171,13.257L34.108,13.257L48.298,35.873C48.898,36.811 49.284,37.456 49.456,37.807L49.542,37.807C49.399,36.972 49.327,35.558 49.327,33.565L49.327,13.257L54.237,13.257L54.236,44.774ZM78.245,44.774L60.989,44.774L60.989,13.257L77.559,13.257L77.559,17.697L66.091,17.697L66.091,26.62L76.659,26.62L76.659,31.038L66.09,31.038L66.09,40.356L78.244,40.356L78.245,44.774ZM102.768,17.697L93.937,17.697L93.937,44.774L88.835,44.774L88.835,17.697L80.025,17.697L80.025,13.257L102.768,13.257L102.768,17.697Z" style="fill:rgb(81,56,212);fill-rule:nonzero;"/>
    </g>
</svg>
